<?xml version="1.0" standalone="no"?>
<!DOCTYPE svg PUBLIC "-//W3C//DTD SVG 1.1//EN" "http://www.w3.org/Graphics/SVG/1.1/DTD/svg11.dtd" >
<svg xmlns="http://www.w3.org/2000/svg" xmlns:xlink="http://www.w3.org/1999/xlink" version="1.1">
<metadata>
Created by FontForge 20201107 at Wed Jul 19 12:44:15 2023
 By 
Copyright 2022 The Bricolage Grotesque Project Authors (https://github.com/ateliertriay/bricolage)
</metadata>
<defs>
<font id="BricolageGrotesque-96ptExtraBold" horiz-adv-x="0" >
  <font-face 
    font-family="Bricolage Grotesque 96pt ExtraBold"
    font-weight="800"
    font-stretch="normal"
    units-per-em="1000"
    panose-1="2 11 6 5 4 4 2 0 2 4"
    ascent="800"
    descent="-200"
    x-height="528"
    cap-height="660"
    bbox="-202 -338 1365 1054.13"
    underline-thickness="50"
    underline-position="-125"
    unicode-range="U+0020-27E9"
  />
<missing-glyph horiz-adv-x="598" 
d="M40 -50v756h518v-756h-518zM140 50h318v556h-318v-556zM267 124q-64 0 -64 56t64 56t64 -56t-64 -56zM221 262q-4 38 4 61t22 37t29 23.5t25.5 19.5t10.5 26q0 17 -11.5 24.5t-28.5 7.5q-13 0 -29 -4t-32 -11.5t-29 -16.5l-4 94q23 15 50 22t56 7q30 0 59 -9t47.5 -32.5
t18.5 -66.5q0 -34 -11.5 -54.5t-28.5 -34t-33 -25t-26 -27t-7 -41.5h-82z" />
    <glyph glyph-name=".notdef" horiz-adv-x="598" 
d="M40 -50v756h518v-756h-518zM140 50h318v556h-318v-556zM267 124q-64 0 -64 56t64 56t64 -56t-64 -56zM221 262q-4 38 4 61t22 37t29 23.5t25.5 19.5t10.5 26q0 17 -11.5 24.5t-28.5 7.5q-13 0 -29 -4t-32 -11.5t-29 -16.5l-4 94q23 15 50 22t56 7q30 0 59 -9t47.5 -32.5
t18.5 -66.5q0 -34 -11.5 -54.5t-28.5 -34t-33 -25t-26 -27t-7 -41.5h-82z" />
    <glyph glyph-name=".null" 
 />
    <glyph glyph-name="nonmarkingreturn" horiz-adv-x="333" 
 />
    <glyph glyph-name="space" unicode=" " horiz-adv-x="203" 
 />
    <glyph glyph-name="exclam" unicode="!" horiz-adv-x="268" 
d="M71 210l-33 450h177l-33 -450h-111zM133 -13q-51 0 -76.5 22t-25.5 68q0 47 25.5 69t76.5 22q52 0 78 -22t26 -69q0 -90 -104 -90z" />
    <glyph glyph-name="quotedbl" unicode="&#x22;" horiz-adv-x="340" 
d="M32 440l-18 260h146l-18 -260h-110zM198 440l-18 260h146l-18 -260h-110z" />
    <glyph glyph-name="numbersign" unicode="#" horiz-adv-x="613" 
d="M276 0l161 660h141l-160 -660h-142zM14 166v123h562v-123h-562zM32 0l161 660h141l-160 -660h-142zM37 396v122h562v-122h-562z" />
    <glyph glyph-name="dollar" unicode="$" horiz-adv-x="575" 
d="M227 642l-16 121h147l-17 -121h-114zM211 -107l16 121h114l17 -121h-147zM294 1q-69 0 -120.5 15t-85.5 44t-50 69.5t-14 90.5l147 32q2 -44 19 -71.5t46 -40.5t66 -13q29 0 52 7t36 20t13 31q0 23 -18 38t-48.5 25.5t-69.5 20.5q-42 12 -84 25.5t-76.5 35t-55.5 55
t-21 83.5q0 62 32 105t88.5 65.5t128.5 22.5q77 0 136.5 -25.5t92 -74.5t25.5 -120l-145 -23q1 29 -5.5 51t-21 37.5t-36.5 23.5t-51 8q-30 0 -50 -8t-30.5 -21.5t-10.5 -29.5q0 -21 16 -34.5t45 -23.5t70 -20q42 -11 84.5 -25.5t79 -37t58.5 -58t22 -89.5q0 -64 -34 -106
t-93.5 -63t-136.5 -21z" />
    <glyph glyph-name="percent" unicode="%" horiz-adv-x="948" 
d="M210 318q-57 0 -101.5 20.5t-69.5 63t-25 107.5q0 57 17.5 95t47 60t65 31.5t72.5 9.5q58 0 102.5 -20.5t70 -63t25.5 -108.5q0 -74 -30 -117t-76.5 -60.5t-97.5 -17.5zM216 436q19 0 34 6.5t24.5 22t9.5 43.5q0 29 -9.5 46t-25.5 25t-37 8q-18 0 -34 -7t-25.5 -22.5
t-9.5 -43.5t10 -45.5t26.5 -25t36.5 -7.5zM730 -48q-57 0 -101.5 20.5t-69.5 63t-25 107.5q0 57 17.5 95t47 60t65 31.5t72.5 9.5q58 0 102.5 -20.5t70 -63t25.5 -108.5q0 -74 -30 -117t-76.5 -60.5t-97.5 -17.5zM736 70q19 0 34 6.5t24.5 22t9.5 43.5q0 29 -9.5 46
t-25.5 25t-37 8q-18 0 -34 -7t-25.5 -22.5t-9.5 -43.5t10 -45.5t26.5 -25t36.5 -7.5zM202 0l390 660h156l-390 -660h-156z" />
    <glyph glyph-name="ampersand" unicode="&#x26;" horiz-adv-x="697" 
d="M541 -15q-54 0 -106 25t-99.5 67t-87 95t-69 110t-45.5 111t-16 98q0 49 21.5 90.5t67 67.5t116.5 26q67 0 110 -22.5t64.5 -57t21.5 -71.5q0 -40 -24 -77t-70 -66.5t-113 -47.5l-21 54q36 24 59.5 52t23.5 61q0 20 -10.5 34.5t-35.5 14.5q-17 0 -28 -8t-15.5 -20.5
t-4.5 -26.5q0 -23 11.5 -59.5t31 -79t44.5 -84.5t52 -76.5t54 -55.5t50 -21q17 0 24 10.5t7 22.5q0 17 -14 37.5t-45 37.5t-83 20v108h251v-116l-170 26v-9q94 -17 143.5 -50.5t49.5 -98.5q0 -38 -15 -62t-38 -37t-48 -17.5t-44 -4.5zM179 -15q-48 0 -86 18t-59.5 52.5
t-21.5 84.5q0 45 16.5 78t41.5 55.5t51.5 36t46.5 19.5l28 -53q-14 -19 -23 -42.5t-9 -46.5q0 -32 16.5 -55.5t43.5 -36t58 -12.5q14 0 24 3.5t21 10.5l11 -19h-8q-9 -28 -29.5 -49t-51 -32.5t-70.5 -11.5z" />
    <glyph glyph-name="quotesingle" unicode="'" horiz-adv-x="174" 
d="M32 440l-18 260h146l-18 -260h-110z" />
    <glyph glyph-name="parenleft" unicode="(" horiz-adv-x="303" 
d="M295 700q-24 -41 -43.5 -93.5t-32.5 -109t-20 -110.5t-7 -98q0 -59 12 -132t35.5 -145t55.5 -129h-171q-36 66 -57 139.5t-30 143t-9 123.5t9 125t30 146t57 140h171z" />
    <glyph glyph-name="parenright" unicode=")" horiz-adv-x="303" 
d="M8 700h171q36 -65 57 -140t30 -146t9 -125t-9 -123.5t-30 -143t-57 -139.5h-171q33 57 56 129t35 145t12 132q0 44 -7 98t-20 110.5t-32.5 109t-43.5 93.5z" />
    <glyph glyph-name="asterisk" unicode="*" horiz-adv-x="457" 
d="M168 281l-123 89l110 97v3l-147 15l46 144l125 -73h5l-31 144h151l-31 -144h5l125 73l46 -144l-146 -14v-4l108 -97l-122 -89l-59 135h-3z" />
    <glyph glyph-name="plus" unicode="+" horiz-adv-x="486" 
d="M178 119v421h130v-421h-130zM40 267v126h406v-126h-406z" />
    <glyph glyph-name="comma" unicode="," horiz-adv-x="193" 
d="M-10 -129q18 51 25.5 92.5t9 81.5t1.5 85h146q0 -65 -8.5 -113t-22.5 -83t-29 -63h-122z" />
    <glyph glyph-name="hyphen" unicode="-" horiz-adv-x="313" 
d="M15 195v142h283v-142h-283z" />
    <glyph glyph-name="period" unicode="." horiz-adv-x="246" 
d="M122 -13q-51 0 -76.5 22t-25.5 68q0 47 25.5 69t76.5 22q52 0 78 -22t26 -69q0 -90 -104 -90z" />
    <glyph glyph-name="slash" unicode="/" horiz-adv-x="349" 
d="M-20 -81l237 782h152l-237 -782h-152z" />
    <glyph glyph-name="zero" unicode="0" horiz-adv-x="594" 
d="M294 -14q-65 0 -115 23.5t-84 67.5t-51 106.5t-17 140.5q0 112 31.5 190t92.5 119t149 41q87 0 146.5 -40.5t90 -118t30.5 -187.5q0 -79 -17.5 -142t-52 -107.5t-85.5 -68.5t-118 -24zM299 115q27 0 46 12.5t31 38t17.5 64.5t5.5 91q0 74 -10.5 123.5t-33 74.5t-59.5 25
q-35 0 -57.5 -24t-33 -72t-10.5 -121q0 -53 6 -92.5t19 -66t32.5 -40t46.5 -13.5z" />
    <glyph glyph-name="one" unicode="1" horiz-adv-x="310" 
d="M108 0v438h-88v139q41 0 69.5 14.5t38.5 68.5h142v-660h-162z" />
    <glyph glyph-name="two" unicode="2" horiz-adv-x="551" 
d="M30 0v166l244 167q21 14 37 29.5t27 32.5t17 34.5t6 36.5q0 23 -11 40t-30.5 26t-46.5 9q-32 0 -52.5 -12t-31 -31.5t-13 -42t0.5 -44.5l-152 15q-9 78 19 133.5t88 85t146 29.5q77 0 131.5 -23.5t83.5 -68.5t29 -108q0 -46 -13.5 -83t-38 -67t-57 -56t-70.5 -50
l-127 -81v-4l314 2v-135h-500z" />
    <glyph glyph-name="three" unicode="3" horiz-adv-x="565" 
d="M277 -14q-66 0 -116 13t-84 38.5t-50.5 64t-14.5 90.5l152 23q-1 -21 5.5 -39.5t21.5 -32.5t38 -22t55 -8t56.5 9.5t38 28.5t13.5 48q0 41 -25.5 66t-82 33t-148.5 -2v95l192 132v4h-283v134h476v-127l-214 -150v-5q86 5 142 -20.5t83.5 -71t27.5 -102.5
q0 -60 -31.5 -104.5t-94 -69.5t-157.5 -25z" />
    <glyph glyph-name="four" unicode="4" horiz-adv-x="607" 
d="M15 119v151q48 54 81.5 103t57.5 95.5t42.5 94t37.5 98.5h264v-661h-161v540h-4q-17 -53 -41 -102.5t-52 -94t-61 -85.5v-4h405v-135h-569z" />
    <glyph glyph-name="five" unicode="5" horiz-adv-x="565" 
d="M269 -14q-86 0 -141 23.5t-80.5 69.5t-23.5 111l152 14q0 -41 25 -63.5t71 -22.5q52 0 76 29t24 81q0 28 -6 49t-17 35.5t-27 21.5t-37 7q-15 0 -29 -4t-25 -12t-19 -20t-12 -28h-164l32 384h444v-134h-308l-18 -205h4q11 58 50 93.5t109 35.5q63 0 105.5 -28.5t64 -79.5
t21.5 -119q0 -80 -31 -133t-91.5 -79t-148.5 -26z" />
    <glyph glyph-name="six" unicode="6" horiz-adv-x="592" 
d="M317 -14q-142 0 -216 87.5t-74 250.5q0 116 36 193.5t100.5 117t149.5 39.5q46 0 88 -12t74 -37.5t49.5 -66t14.5 -97.5l-151 -16q0 38 -14 58.5t-33.5 28.5t-37.5 8q-28 0 -50 -15t-36.5 -42t-22 -63.5t-7.5 -78.5q0 -25 3 -53t7 -55h4q-2 56 13.5 91t41 54.5t54.5 26.5
t54 7q55 0 100.5 -22.5t73.5 -67.5t28 -111q0 -39 -12.5 -79t-41 -73t-76.5 -53t-119 -20zM312 115q21 0 37.5 6.5t29 19t19 29.5t6.5 37q0 29 -11 49.5t-31 31.5t-47 11q-28 0 -49 -12t-33 -33.5t-12 -51.5q0 -20 6.5 -36t18 -27.5t28.5 -17.5t38 -6z" />
    <glyph glyph-name="seven" unicode="7" horiz-adv-x="498" 
d="M97 0q0 70 16.5 140t47.5 137t75.5 129t101.5 117v4h-326v134h475v-134q-37 -39 -74.5 -97t-68.5 -128t-49.5 -147t-18.5 -155h-179z" />
    <glyph glyph-name="eight" unicode="8" horiz-adv-x="608" 
d="M304 -14q-84 0 -147.5 20t-99 61.5t-35.5 105.5q0 45 18.5 79t57.5 55.5t100 26.5v7l106 25l106 -25v-7q59 -5 98 -25.5t58.5 -54.5t19.5 -81q0 -64 -35.5 -105.5t-98.5 -61.5t-148 -20zM306 118q20 0 40 4t37.5 13t28 24.5t10.5 39.5q0 28 -15.5 44.5t-42 24t-60.5 7.5
t-60.5 -7.5t-41 -24t-14.5 -44.5q0 -23 10.5 -38.5t28 -25t38 -13.5t41.5 -4zM304 391q27 0 48 7t33 23.5t12 43.5q0 22 -8.5 37t-22.5 23.5t-30.5 12.5t-31.5 4q-21 0 -42 -7t-35 -23.5t-14 -45.5q0 -28 12 -44.5t33 -23.5t46 -7zM304 296l-106 36v9q-52 7 -86 24.5t-50 48
t-16 74.5q0 64 33 105t91 61t134 20q79 0 137 -20.5t90 -62t32 -103.5t-35 -99t-118 -48v-9z" />
    <glyph glyph-name="nine" unicode="9" horiz-adv-x="603" 
d="M281 -14q-48 0 -94 12t-81.5 37.5t-54.5 66.5t-13 98l151 16q0 -29 9 -47.5t24 -29t32 -15t32 -4.5q33 0 57 14.5t40.5 41.5t24.5 62.5t8 77.5q0 15 -1.5 34t-3.5 39t-5 39h-6q3 -54 -11.5 -88.5t-40.5 -54.5t-57.5 -28t-62.5 -8q-53 0 -99 23t-74.5 68t-28.5 111
q0 38 12.5 77t41.5 72t78 53.5t121 20.5q96 0 162.5 -41.5t100.5 -119t34 -185.5q0 -115 -36.5 -191t-103 -113.5t-155.5 -37.5zM280 362q30 0 52 12t34 34t12 51q0 26 -11.5 45t-33 30t-50.5 11q-21 0 -38.5 -6.5t-30 -19t-19.5 -29t-7 -36.5q0 -28 11.5 -49t32 -32
t48.5 -11z" />
    <glyph glyph-name="colon" unicode=":" horiz-adv-x="250" 
d="M124 -5q-51 0 -76.5 22t-25.5 68q0 47 25.5 69t76.5 22q52 0 78 -22t26 -69q0 -90 -104 -90zM124 315q-51 0 -76.5 22t-25.5 68q0 47 25.5 69t76.5 22q52 0 78 -22t26 -69q0 -90 -104 -90z" />
    <glyph glyph-name="semicolon" unicode=";" horiz-adv-x="235" 
d="M-10 -129q18 51 25.5 92.5t9 81.5t1.5 85h146q0 -65 -8.5 -113t-22.5 -83t-29 -63h-122zM110 316q-51 0 -76.5 22t-25.5 68q0 47 25.5 69t76.5 22q52 0 78 -22t26 -69q0 -90 -104 -90z" />
    <glyph glyph-name="less" unicode="&#x3c;" horiz-adv-x="486" 
d="M445 81l-404 159v183l404 159v-156l-269 -91v-4l269 -94v-156z" />
    <glyph glyph-name="equal" unicode="=" horiz-adv-x="486" 
d="M41 347v142h404v-142h-404zM41 153v142h404v-142h-404z" />
    <glyph glyph-name="greater" unicode="&#x3e;" horiz-adv-x="486" 
d="M41 81v156l269 94v4l-269 91v156l404 -159v-183z" />
    <glyph glyph-name="question" unicode="?" horiz-adv-x="396" 
d="M84 209q-6 51 2.5 85t25 56.5t37 37.5t39 27.5t30.5 27t12 35.5q0 26 -18 39t-46 13q-22 0 -48 -7t-51 -18.5t-46 -26.5l-7 152q26 16 53.5 26t57 15t60.5 5q36 0 71.5 -8t65 -27t47 -52.5t17.5 -85.5q0 -46 -13 -76.5t-34 -51t-43.5 -36.5t-42 -33t-30.5 -40t-8 -57
h-131zM158 -13q-51 0 -76.5 22t-25.5 68q0 47 25.5 69t76.5 22q52 0 78 -22t26 -69q0 -90 -104 -90z" />
    <glyph glyph-name="at" unicode="@" horiz-adv-x="936" 
d="M467 -120q-105 0 -187.5 25t-139.5 74.5t-87 123t-30 170.5q0 96 30 170t87 123.5t139.5 75t187.5 25.5q104 0 186.5 -25t140.5 -75t88.5 -123.5t30.5 -170.5t-30.5 -171t-88.5 -123t-140.5 -74t-186.5 -25zM467 5q107 0 177 28.5t104.5 88t34.5 151.5q0 91 -35 150.5
t-105 89t-176 29.5q-107 0 -176.5 -29t-103.5 -88.5t-34 -151.5t34 -151.5t103.5 -88t176.5 -28.5zM446 172q13 0 27.5 4.5t27.5 14.5t21.5 28t8.5 45v22l23 14q-7 -15 -25 -23.5t-39.5 -14t-41.5 -12t-33 -17t-13 -28.5q0 -17 12.5 -25t31.5 -8zM382 64q-32 0 -63 10.5
t-51 35t-20 65.5q0 39 17 62.5t44 37t58 20.5t58 11q36 6 60 11t35.5 12.5t11.5 20.5q0 8 -4.5 15.5t-15.5 12.5t-31 5q-18 0 -36.5 -5.5t-30.5 -17.5t-10 -32l-134 6q-3 44 12.5 75t44.5 50t67 28t80 9q58 0 98 -16t64 -45.5t34.5 -71t10.5 -92.5v-58v-37.5v-42.5v-35v-15
h-131q-1 30 -1 59.5t-1 59.5h-6q-7 -41 -27 -72.5t-53.5 -48.5t-79.5 -17z" />
    <glyph glyph-name="A" unicode="A" horiz-adv-x="659" 
d="M4 0l221 660h210l220 -660h-175l-148 529h-6l-149 -529h-173zM129 117v114h421v-114h-421z" />
    <glyph glyph-name="B" unicode="B" horiz-adv-x="608" 
d="M40 0v660h266q61 0 108.5 -11t81 -32.5t51 -53.5t17.5 -75q0 -40 -16.5 -72t-53 -51.5t-95.5 -24.5v-9q101 -5 146.5 -47t45.5 -111q0 -58 -30 -96t-87.5 -57.5t-142.5 -19.5h-291zM202 130h122q51 0 79 18.5t28 52.5q0 38 -31.5 56.5t-94.5 18.5h-103v-146zM202 386h87
q57 0 87 19t30 56q0 35 -27 52.5t-81 17.5h-96v-145z" />
    <glyph glyph-name="C" unicode="C" horiz-adv-x="631" 
d="M341 -14q-84 0 -144 27t-98 75t-55.5 109.5t-17.5 130.5q0 71 18 134t55.5 110.5t96.5 74.5t142 27q72 0 124 -20.5t83.5 -56t43.5 -81.5t6 -96l-149 -18q2 43 -10.5 74t-38 48t-64.5 17q-33 0 -58.5 -13t-43 -39t-26.5 -64.5t-9 -89.5q0 -66 16 -114.5t49 -75t83 -26.5
q46 0 72.5 21t37.5 58t7 83l153 -13q5 -55 -7.5 -105.5t-45 -90.5t-87 -63t-133.5 -23z" />
    <glyph glyph-name="D" unicode="D" horiz-adv-x="621" 
d="M114 0v135h171q38 0 70.5 16t52.5 57.5t20 119.5q0 56 -11 94t-31.5 60.5t-50 32.5t-67.5 10h-154v135h147q117 0 191 -39t109 -111.5t35 -173.5q0 -78 -17.5 -135t-48.5 -96t-70 -62t-83 -33t-87 -10h-176zM40 0v660h162v-660h-162z" />
    <glyph glyph-name="E" unicode="E" horiz-adv-x="540" 
d="M40 0v660h162v-660h-162zM161 0v135h351v-135h-351zM161 272v121h305v-121h-305zM161 525v135h351v-135h-351z" />
    <glyph glyph-name="F" unicode="F" horiz-adv-x="510" 
d="M40 0v660h162v-660h-162zM121 235v132h336v-132h-336zM121 525v135h370v-135h-370z" />
    <glyph glyph-name="G" unicode="G" horiz-adv-x="649" 
d="M301 -14q-86 0 -147.5 43t-94 119.5t-32.5 176.5q0 74 18.5 137.5t57.5 111t99 74t143 26.5q70 0 120.5 -19t82.5 -53t45 -78.5t8 -95.5l-151 -18q2 45 -11 73.5t-38.5 42.5t-61.5 14q-43 0 -75 -23t-49.5 -69t-17.5 -115q0 -51 10 -91.5t30 -68t49.5 -42t67.5 -14.5
t65 13.5t41.5 37t14.5 54.5h-104v114h248v-124v-212h-111v178h-9q-5 -62 -29.5 -105t-67 -65t-101.5 -22z" />
    <glyph glyph-name="H" unicode="H" horiz-adv-x="637" 
d="M435 0v660h162v-660h-162zM40 0v660h162v-660h-162zM161 264v136h359v-136h-359z" />
    <glyph glyph-name="I" unicode="I" horiz-adv-x="243" 
d="M40 0v660h163v-660h-163z" />
    <glyph glyph-name="J" unicode="J" horiz-adv-x="323" 
d="M26 -6l-18 147q12 -3 23.5 -4t13.5 -1q30 0 47.5 11t24.5 35t7 62v416h162v-417q0 -84 -24 -140t-72 -84t-120 -28q-15 0 -24 1t-20 2z" />
    <glyph glyph-name="K" unicode="K" horiz-adv-x="623" 
d="M40 0v660h162v-282q48 16 84.5 45.5t62.5 67.5t43 81.5t26 87.5h182q-12 -57 -34.5 -107.5t-56.5 -92.5t-79 -74.5t-102 -53.5v-8q61 5 101 -7.5t65 -36.5t39.5 -54.5t24.5 -61.5l53 -164h-180l-38 147q-9 36 -25.5 58.5t-42.5 32.5t-66 10h-57v-248h-162z" />
    <glyph glyph-name="L" unicode="L" horiz-adv-x="460" 
d="M40 0v660h162v-660h-162zM68 0v138h385v-138h-385z" />
    <glyph glyph-name="M" unicode="M" horiz-adv-x="822" 
d="M40 0v660h243l135 -469h2l132 469h230v-660h-150v497h-2l-149 -497h-142l-147 497h-2v-497h-150z" />
    <glyph glyph-name="N" unicode="N" horiz-adv-x="694" 
d="M40 0v660h217l235 -447h2v447h160v-660h-204l-248 462h-2v-462h-160z" />
    <glyph glyph-name="O" unicode="O" horiz-adv-x="661" 
d="M328 -14q-70 0 -126 22t-95 65t-59.5 107t-20.5 147q0 118 38.5 194.5t108 114.5t160.5 38q70 0 125.5 -21.5t94.5 -64.5t59.5 -107.5t20.5 -149.5q0 -86 -21.5 -151t-62 -108t-97 -64.5t-125.5 -21.5zM334 119q45 0 74.5 22.5t44 68t14.5 114.5q0 73 -15.5 121t-46 72.5
t-76.5 24.5q-44 0 -74 -23.5t-45 -70.5t-15 -117q0 -53 8.5 -93t26 -66.5t43.5 -39.5t61 -13z" />
    <glyph glyph-name="P" unicode="P" horiz-adv-x="586" 
d="M161 187v130h123q61 0 91 24.5t30 81.5q0 54 -27.5 80.5t-83.5 26.5h-133v130h142q57 0 106 -13.5t85.5 -42.5t57 -73t20.5 -106q0 -79 -35.5 -132t-102.5 -79.5t-164 -26.5h-109zM40 0v660h162v-660h-162z" />
    <glyph glyph-name="Q" unicode="Q" horiz-adv-x="659" 
d="M626 -157q-68 -15 -116 -18.5t-85 0.5t-72 11.5t-76 15t-97 11.5t-136 -1v133q28 -2 67 -1.5t83.5 4t88 9.5t79.5 15t58 21v6q-79 -22 -141.5 -19.5t-110 25.5t-79 63.5t-47 94.5t-15.5 119q0 76 19.5 138.5t57.5 108t95.5 70.5t133.5 25q96 0 163 -40t101.5 -116.5
t34.5 -184.5q0 -96 -27 -160t-74 -104t-108.5 -60.5t-131.5 -29.5l1 -7q59 -9 104.5 -14.5t83.5 -5.5t73.5 6t72.5 21v-136zM332 109q35 0 64.5 18.5t48 65t18.5 128.5q0 78 -15.5 126.5t-45.5 71.5t-74 23q-33 0 -63 -19t-49 -65.5t-19 -129.5q0 -84 18 -132t49 -67.5
t68 -19.5z" />
    <glyph glyph-name="R" unicode="R" horiz-adv-x="615" 
d="M40 0v660h274q44 0 83.5 -7.5t72 -22.5t56.5 -38t37 -54.5t13 -71.5q0 -31 -10.5 -58.5t-33 -49.5t-58 -36.5t-84.5 -20.5v-8q64 -3 99 -25t52.5 -55.5t26.5 -72.5l35 -140h-179l-25 131q-6 34 -18.5 55t-35.5 31t-61 10h-82v-227h-162zM202 352h94q55 0 84 21t29 64
q0 47 -27 70t-82 23h-98v-178z" />
    <glyph glyph-name="S" unicode="S" horiz-adv-x="585" 
d="M299 -14q-70 0 -122.5 16t-87.5 46t-51.5 72.5t-14.5 94.5l150 33q2 -46 19.5 -74.5t47.5 -42t67 -13.5q30 0 53 7.5t36.5 21t13.5 31.5q0 24 -18 39.5t-49.5 26.5t-71.5 22q-43 12 -85.5 26.5t-77.5 36.5t-56.5 57t-21.5 87q0 64 32.5 109t90 68.5t131.5 23.5
q78 0 139 -26.5t94 -77.5t26 -125l-148 -24q1 30 -6 53t-21.5 39t-36.5 24.5t-52 8.5q-31 0 -51.5 -8t-31 -22t-10.5 -32q0 -21 16 -35t46 -24.5t71 -21.5q43 -12 86.5 -26.5t80.5 -38t59.5 -60.5t22.5 -94q0 -66 -34.5 -110t-95 -66t-139.5 -22z" />
    <glyph glyph-name="T" unicode="T" horiz-adv-x="516" 
d="M177 0v660h162v-660h-162zM14 522v138h488v-138h-488z" />
    <glyph glyph-name="U" unicode="U" horiz-adv-x="627" 
d="M313 -14q-57 0 -102 13t-77.5 37t-54 57.5t-32 75.5t-10.5 91v400h162v-392q0 -51 15 -81.5t40.5 -43.5t58.5 -13q34 0 59.5 13t40.5 43t15 82v392h162v-400q0 -130 -70 -202t-207 -72z" />
    <glyph glyph-name="V" unicode="V" horiz-adv-x="632" 
d="M212 0l-208 660h176l136 -526h3l133 526h176l-208 -660h-208z" />
    <glyph glyph-name="W" unicode="W" horiz-adv-x="915" 
d="M146 0l-134 660h175l81 -506h3l95 506h191l98 -506h3l79 506h166l-134 -660h-226l-84 496h-3l-86 -496h-224z" />
    <glyph glyph-name="X" unicode="X" horiz-adv-x="623" 
d="M11 0l193 327l-193 333h192l106 -247h2l103 247h197l-192 -331l193 -329h-198l-102 253h-2l-107 -253h-192z" />
    <glyph glyph-name="Y" unicode="Y" horiz-adv-x="595" 
d="M217 0v220l-215 440h192l104 -294h2l103 294h190l-214 -440v-220h-162z" />
    <glyph glyph-name="Z" unicode="Z" horiz-adv-x="550" 
d="M23 0v138l312 381v3h-312v138h499v-139l-311 -380v-3h316v-138h-504z" />
    <glyph glyph-name="bracketleft" unicode="[" horiz-adv-x="295" 
d="M40 -121v807h147v-807h-147zM40 -121v123h237v-123h-237zM40 579v121h237v-121h-237z" />
    <glyph glyph-name="backslash" unicode="\" horiz-adv-x="349" 
d="M369 -81h-152l-237 782h152z" />
    <glyph glyph-name="bracketright" unicode="]" horiz-adv-x="295" 
d="M255 -121h-147v807h147v-807zM255 -121h-237v123h237v-123zM255 579h-237v121h237v-121z" />
    <glyph glyph-name="asciicircum" unicode="^" horiz-adv-x="530" 
d="M3 275l159 381h206l159 -381h-162l-95 247h-4l-91 -247h-172z" />
    <glyph glyph-name="underscore" unicode="_" horiz-adv-x="527" 
d="M0 -176v142h527v-142h-527z" />
    <glyph glyph-name="grave" unicode="`" horiz-adv-x="283" 
d="M116 571l-96 126h180l60 -126h-144z" />
    <glyph glyph-name="a" unicode="a" horiz-adv-x="543" 
d="M175 -14q-40 0 -76 14t-59 45.5t-23 84.5q0 49 19 79.5t51 49t70 28t75 16.5q52 10 78 16t35.5 14t9.5 22q0 29 -21.5 44t-56.5 15q-22 0 -44 -8t-36 -28.5t-13 -58.5l-144 10q-2 63 19 104.5t57.5 65t80 33.5t86.5 10q79 0 130 -29.5t75.5 -85t24.5 -134.5v-94v-66.5
v-66.5v-66h-140v73v78h-6q-4 -45 -29.5 -82.5t-67 -60t-95.5 -22.5zM242 104q17 0 36.5 6.5t37 21.5t28.5 41.5t11 65.5v24l27 3q-8 -13 -26.5 -21t-41.5 -12.5t-46.5 -9t-43.5 -12t-32.5 -20t-12.5 -34.5q0 -26 18.5 -39.5t44.5 -13.5z" />
    <glyph glyph-name="b" unicode="b" horiz-adv-x="576" 
d="M353 -14q-45 0 -79 20t-56.5 59.5t-33.5 97.5h-7v-163h-141v186v514h162v-155q0 -27 -2.5 -58t-7 -64t-10.5 -67h9q9 66 32 107t59 60t82 19q59 0 102.5 -30t67.5 -90t24 -151q0 -97 -26.5 -160t-72 -94t-102.5 -31zM296 115q30 0 51 19.5t32 52t11 71.5t-10 73t-31 55
t-53 21q-14 0 -28.5 -5t-27 -15.5t-22.5 -27t-16 -40t-6 -53.5v-7q0 -37 8.5 -64t22.5 -45t32 -26.5t37 -8.5z" />
    <glyph glyph-name="c" unicode="c" horiz-adv-x="539" 
d="M289 -14q-71 0 -122 21.5t-83 59.5t-47 87t-15 104q0 56 15 106.5t46.5 91t82 63.5t121.5 23q84 0 135.5 -31.5t72 -81.5t11.5 -108l-140 -11q2 36 -7.5 59.5t-28.5 35t-46 11.5q-24 0 -42.5 -9t-31 -27.5t-19 -46.5t-6.5 -67q0 -50 11.5 -86t35 -55t59.5 -19q37 0 56 18
t25 45.5t2 54.5l149 -7q6 -44 -4 -85.5t-38.5 -74.5t-76 -52t-115.5 -19z" />
    <glyph glyph-name="d" unicode="d" horiz-adv-x="576" 
d="M223 -14q-57 0 -102.5 31t-72 94t-26.5 159q0 91 24 151.5t68 90.5t103 30q46 0 81.5 -19t58.5 -60t32 -107h9q-5 34 -10 67t-7.5 64t-2.5 58v155h162v-514v-186h-141v163h-7q-11 -58 -33.5 -97.5t-56 -59.5t-79.5 -20zM280 115q19 0 37 8.5t32 26.5t22.5 45t8.5 64v7
q0 30 -6 53.5t-16 40t-23 27t-27.5 15.5t-28.5 5q-31 0 -52 -21t-31 -54.5t-10 -72.5t11 -72t32 -52.5t51 -19.5z" />
    <glyph glyph-name="e" unicode="e" horiz-adv-x="537" 
d="M287 -14q-75 0 -125.5 21.5t-81.5 59t-44.5 85.5t-13.5 101q0 57 14.5 109t45 92.5t79 64t116.5 23.5t116.5 -23.5t77.5 -65.5t37.5 -97t-2.5 -119l-383 -6v88l259 5l-21 -51q6 46 -1.5 77.5t-27.5 48t-55 16.5q-37 0 -59 -19t-31 -53.5t-9 -81.5q0 -81 27 -118t83 -37
q24 0 40 6t26 17.5t14 28t3 37.5l148 -8q3 -33 -6.5 -68t-35.5 -65t-72.5 -49t-117.5 -19z" />
    <glyph glyph-name="f" unicode="f" horiz-adv-x="376" 
d="M84 0v323h-73v116l161 -11v8q-61 7 -92 29t-41.5 50t-10.5 51q0 45 24.5 78.5t68 51.5t98.5 18q45 0 80.5 -12t64.5 -35l-13 -148q-27 19 -52 28.5t-51 9.5q-30 0 -49.5 -13t-19.5 -41q0 -15 8 -28t25.5 -20.5t47.5 -7.5h100v-124h-116v-323h-160z" />
    <glyph glyph-name="g" unicode="g" horiz-adv-x="549" 
d="M245 -158q-89 0 -141 14t-74 38.5t-22 56.5q0 44 35 70.5t102 36.5v5q-51 0 -80 17.5t-29 48.5q0 29 26.5 52t86.5 23v7q-54 13 -86 50t-32 96q0 52 26.5 90t77.5 59.5t124 21.5h263v-124l-181 23v-8q83 -11 112.5 -37.5t29.5 -63.5t-22.5 -66t-69.5 -45.5t-119 -16.5
q-22 0 -44.5 2t-38.5 6q-17 -7 -26.5 -14.5t-9.5 -15.5q0 -5 4 -7.5t11.5 -3.5t17.5 -1h160q21 0 52.5 -2.5t63 -15t52.5 -41.5t21 -82q0 -60 -31.5 -98t-95.5 -56.5t-163 -18.5zM245 -16q67 0 99 4.5t42 12.5t10 18q0 14 -8 22t-20 11.5t-23.5 4t-18.5 0.5h-135
q-32 -11 -43.5 -20.5t-11.5 -21.5q0 -14 13.5 -20.5t38 -8.5t57.5 -2zM262 278q32 0 49.5 20t17.5 55t-18 56.5t-50 21.5q-31 0 -49.5 -21.5t-18.5 -56.5q0 -23 8 -40t23.5 -26t37.5 -9z" />
    <glyph glyph-name="h" unicode="h" horiz-adv-x="562" 
d="M36 0v279v421h162v-132q0 -21 -2.5 -55.5t-7 -73.5t-9 -74.5t-7.5 -59.5h9q9 83 31 135.5t60 77t92 24.5q85 0 126 -60.5t41 -182.5v-299h-162v292q0 56 -15 82t-49 26q-30 0 -54 -22.5t-38.5 -71.5t-14.5 -127v-179h-162z" />
    <glyph glyph-name="i" unicode="i" horiz-adv-x="234" 
d="M36 0v528h162v-528h-162zM116 566q-46 0 -70.5 19.5t-24.5 56.5q0 38 24.5 57.5t70.5 19.5q47 0 71.5 -20t24.5 -57q0 -36 -24.5 -56t-71.5 -20z" />
    <glyph glyph-name="j" unicode="j" horiz-adv-x="244" 
d="M42 -164q-13 0 -26.5 1.5t-27.5 3.5l-13 137q39 -2 55 11.5t16 52.5v486h162v-495q0 -54 -12.5 -91.5t-35.5 -61t-53 -34t-65 -10.5zM126 566q-46 0 -70.5 19.5t-24.5 56.5q0 38 24.5 57.5t70.5 19.5q47 0 71.5 -20t24.5 -57q0 -36 -24.5 -56t-71.5 -20z" />
    <glyph glyph-name="k" unicode="k" horiz-adv-x="541" 
d="M36 0v700h158v-371q34 18 58.5 41t41.5 49.5t27.5 54t17.5 54.5h186q-11 -40 -31.5 -77.5t-50.5 -70t-69.5 -58.5t-87.5 -43v-8q62 10 101.5 2.5t62.5 -28t35.5 -51.5t19.5 -69l23 -125h-175l-11 88q-4 32 -11 60t-27 45.5t-63 17.5h-47v-211h-158z" />
    <glyph glyph-name="l" unicode="l" horiz-adv-x="234" 
d="M36 0v700h162v-700h-162z" />
    <glyph glyph-name="m" unicode="m" horiz-adv-x="860" 
d="M36 0v293v235h137v-215h8q7 84 27.5 134t55 72.5t82.5 22.5q50 0 81 -24.5t46 -75t14 -129.5h8q7 83 29 133t58 73t85 23q41 0 71 -15t50.5 -45t30.5 -75.5t10 -106.5v-300h-162v286q0 38 -6.5 63.5t-19.5 38t-33 12.5q-26 0 -48 -23.5t-35.5 -70.5t-13.5 -119v-187h-158
v290q0 38 -6.5 62t-20 36t-33.5 12q-25 0 -46.5 -20.5t-35 -67.5t-13.5 -125v-187h-162z" />
    <glyph glyph-name="n" unicode="n" horiz-adv-x="562" 
d="M36 0v299v229h137v-215h8q6 78 26 128.5t57 75.5t94 25q86 0 129.5 -57t43.5 -170v-315h-162v294q0 54 -16.5 81t-52.5 27q-30 0 -53 -21t-36 -68t-13 -126v-187h-162z" />
    <glyph glyph-name="o" unicode="o" horiz-adv-x="567" 
d="M282 -14q-76 0 -135 30.5t-92 92t-33 154.5q0 97 34.5 158.5t94 91t134.5 29.5q78 0 136.5 -30.5t91 -92t32.5 -155.5q0 -97 -34.5 -158.5t-94 -90.5t-134.5 -29zM286 105q31 0 52 17.5t32 51.5t11 81q0 52 -12 87.5t-34.5 54.5t-54.5 19q-30 0 -51 -17.5t-32 -51.5
t-11 -82q0 -76 26.5 -118t73.5 -42z" />
    <glyph glyph-name="p" unicode="p" horiz-adv-x="574" 
d="M36 -148v488v188h142v-163h7q11 59 33 98.5t56.5 59t83.5 19.5q62 0 105.5 -31.5t66 -93t22.5 -151.5q0 -97 -25.5 -159t-69.5 -91.5t-100 -29.5q-45 0 -79.5 19t-57 58.5t-31.5 99.5h-9q5 -29 9 -60.5t6.5 -62t2.5 -58.5v-130h-162zM296 119q32 0 52.5 20t30 52.5
t9.5 68.5q0 40 -10.5 72.5t-31 52t-50.5 19.5q-19 0 -37 -8.5t-32 -26t-22.5 -44.5t-8.5 -65v-6q0 -30 6 -52t16 -38t23 -26t27 -14.5t28 -4.5z" />
    <glyph glyph-name="q" unicode="q" horiz-adv-x="574" 
d="M376 -148v130q0 28 2.5 58.5t7 62t8.5 60.5h-9q-9 -61 -32 -100t-57.5 -58t-79.5 -19q-55 0 -99 29.5t-69.5 91.5t-25.5 159q0 90 22.5 151.5t66 93t105.5 31.5q49 0 83.5 -19.5t56.5 -59t33 -98.5h6v163h143v-187v-489h-162zM277 119q14 0 28 4.5t27 14.5t23.5 25.5
t16.5 38t6 52.5v6q0 38 -8.5 65t-22.5 44.5t-32 26t-37 8.5q-30 0 -50.5 -19.5t-31 -52t-10.5 -72.5q0 -36 9.5 -68.5t29.5 -52.5t52 -20z" />
    <glyph glyph-name="r" unicode="r" horiz-adv-x="400" 
d="M36 0v287v241h140v-210h8q6 84 23.5 132.5t44 69t59.5 20.5q18 0 37.5 -5t38.5 -16l-8 -180q-22 13 -43 19.5t-40 6.5q-32 0 -54 -18t-33.5 -53t-11.5 -85v-209h-161z" />
    <glyph glyph-name="s" unicode="s" horiz-adv-x="517" 
d="M267 -14q-53 0 -98.5 10.5t-79 33.5t-51 61.5t-14.5 93.5l141 12q2 -33 15 -54.5t36 -31.5t56 -10q31 0 53.5 10.5t22.5 35.5q0 13 -8 21.5t-29.5 16t-62.5 17.5q-51 13 -92 26t-70 31t-44 44.5t-15 65.5q0 55 29.5 93.5t81.5 59t120 20.5q61 0 114 -19t83.5 -62
t22.5 -114l-138 -13q3 29 -8 49.5t-32 31t-51 10.5q-34 0 -52.5 -12.5t-18.5 -31.5q0 -15 11.5 -25.5t36 -18t63.5 -16.5q34 -7 71 -18t69 -29.5t52 -48.5t20 -76q0 -49 -27 -86t-79 -57t-128 -20z" />
    <glyph glyph-name="t" unicode="t" horiz-adv-x="368" 
d="M247 -12q-93 0 -138.5 47.5t-45.5 147.5v219h-58v102h3q62 8 88 41.5t32 101.5v2h95v-121h121v-130h-121v-200q0 -38 18.5 -54t45.5 -16q14 0 29 4t28 11v-141q-31 -9 -55 -11.5t-42 -2.5z" />
    <glyph glyph-name="u" unicode="u" horiz-adv-x="557" 
d="M200 -14q-86 0 -127.5 60t-41.5 184v298h162v-296q0 -58 16.5 -81t47.5 -23q22 0 40.5 11.5t32.5 35t21.5 60.5t7.5 89v204h162v-290v-238h-138v206h-7q-6 -77 -27 -125.5t-58 -71.5t-91 -23z" />
    <glyph glyph-name="v" unicode="v" horiz-adv-x="530" 
d="M162 0l-159 528h172l91 -394h4l95 394h162l-159 -528h-206z" />
    <glyph glyph-name="w" unicode="w" horiz-adv-x="799" 
d="M133 0l-125 528h172l61 -392h5l68 392h179l66 -392h5l66 392h161l-123 -528h-211l-54 356h-5l-56 -356h-209z" />
    <glyph glyph-name="x" unicode="x" horiz-adv-x="543" 
d="M4 0l166 265l-164 263h188l77 -171h5l75 171h186l-159 -263l161 -265h-191l-73 168h-4l-81 -168h-186z" />
    <glyph glyph-name="y" unicode="y" horiz-adv-x="539" 
d="M225 -156q-30 0 -66 5t-72 16t-67 28l37 163q36 -34 80.5 -48t79.5 -14q49 0 82.5 19.5t50.5 57t17 91.5v92h-9q-2 -70 -22.5 -114.5t-55.5 -65.5t-81 -21q-57 0 -94.5 29t-56.5 87t-19 145v214h161v-172q0 -85 18 -124t57 -39q20 0 35.5 10.5t25.5 32t15 54t5 75.5v163
h161v-372q0 -54 -11 -101.5t-33 -86t-55.5 -66.5t-79 -43t-103.5 -15z" />
    <glyph glyph-name="z" unicode="z" horiz-adv-x="483" 
d="M20 0v136l251 256v6h-246v130h435v-137l-251 -257v-4h254v-130h-443z" />
    <glyph glyph-name="braceleft" unicode="{" horiz-adv-x="321" 
d="M8 255v81q21 1 36.5 12.5t24.5 42.5t9 88q0 60 11.5 102t32.5 68t49 38t61 12q17 0 36 -3.5t38 -8.5v-122q-23 5 -40 0.5t-27.5 -26.5t-15.5 -71q-4 -40 -15 -71t-30 -52.5t-46 -33t-64 -13.5v-6q37 -2 64.5 -14t46 -33t29.5 -52t15 -71q5 -48 15.5 -70.5t27 -27
t40.5 -0.5v-121q-19 -7 -39 -11t-37 -4q-32 0 -60 12.5t-48.5 39t-32 69t-11.5 102.5q0 57 -9 88t-24.5 43t-36.5 13z" />
    <glyph glyph-name="bar" unicode="|" horiz-adv-x="218" 
d="M40 -146v806h138v-806h-138z" />
    <glyph glyph-name="braceright" unicode="}" horiz-adv-x="321" 
d="M313 255q-20 -1 -36 -13t-25 -43t-9 -88q0 -60 -11.5 -102.5t-32 -69t-48.5 -39t-60 -12.5q-16 0 -36 4t-40 11v121q24 -4 40.5 0.5t27 27t15.5 70.5q4 40 15 71t29.5 52t46 33t64.5 14v6q-37 2 -64 13.5t-46 33t-30 52.5t-15 71q-5 49 -15.5 71t-27 26.5t-40.5 -0.5v122
q19 5 38 8.5t36 3.5q33 0 61 -12t49 -38t32.5 -68t11.5 -102q0 -57 9 -88t25 -42.5t36 -12.5v-81z" />
    <glyph glyph-name="asciitilde" unicode="~" horiz-adv-x="486" 
d="M386 241q-22 0 -56.5 6t-71.5 13.5t-67 13.5t-43 6q-18 0 -21 -12.5t0 -29.5h-94q-26 50 -21.5 88.5t31.5 61t66 22.5q21 0 54 -5.5t69 -13t65.5 -13t42.5 -5.5q17 0 20 12t0 30h94q22 -47 20 -86.5t-24.5 -63.5t-63.5 -24z" />
    <glyph glyph-name="uni00A0" unicode="&#xa0;" horiz-adv-x="203" 
 />
    <glyph glyph-name="exclamdown" unicode="&#xa1;" horiz-adv-x="268" 
d="M71 317h111l33 -450h-177zM133 540q104 0 104 -90q0 -46 -26 -68.5t-78 -22.5q-51 0 -76.5 22.5t-25.5 68.5t25.5 68t76.5 22z" />
    <glyph glyph-name="cent" unicode="&#xa2;" horiz-adv-x="539" 
d="M227 589l-17 111h131l-16 -111h-98zM211 -47l16 111h98l16 -111h-130zM289 46q-71 0 -122 21.5t-83 59.5t-47 87t-15 104q0 56 15 106.5t46.5 91t82 63.5t121.5 23q84 0 135.5 -31.5t72 -81.5t11.5 -108l-140 -11q2 36 -7.5 59.5t-28.5 35t-46 11.5q-24 0 -42.5 -9
t-31 -27.5t-19 -46.5t-6.5 -67q0 -50 11.5 -86t35 -55t59.5 -19q37 0 56 18t25 45.5t2 54.5l149 -7q6 -44 -4 -85.5t-38.5 -74.5t-76 -52t-115.5 -19z" />
    <glyph glyph-name="sterling" unicode="&#xa3;" horiz-adv-x="687" 
d="M180 -14q-83 0 -127.5 37t-44.5 99q0 41 17.5 69.5t46.5 43.5t61 15q41 0 77 -20t61 -52h7l1 -44q-28 21 -54.5 28t-40.5 7q-18 0 -33 -9t-15 -31q0 -21 15 -31.5t37 -10.5q20 0 40.5 9.5t34.5 32.5t14 62q0 42 -16 72.5t-39 55t-46.5 49t-39.5 55t-16 72.5
q0 57 31.5 97.5t86.5 62t125 21.5q54 0 97.5 -13.5t73.5 -40.5t44 -67t9 -94l-150 -21q2 33 -5.5 57t-25.5 37.5t-48 13.5q-35 0 -55 -19t-20 -51q0 -26 11.5 -49t28.5 -46.5t34.5 -50.5t29 -60t11.5 -75q0 -36 -11 -73t-36 -68t-67 -50.5t-104 -19.5zM86 291v81h183l1 -78z
M501 -15q-48 0 -82 18.5t-55 43t-30 41.5l-11 9l23 35l22 -10t22.5 -9t23.5 -6.5t24 -2.5q21 0 36 9t23 27.5t8 45.5q0 8 -1 16.5t-3 18t-5 20.5l159 13q7 -22 9.5 -42.5t2.5 -37.5q0 -48 -12.5 -84t-35.5 -59t-53 -34.5t-65 -11.5zM295 299l-2 81l192 2v-81z" />
    <glyph glyph-name="yen" unicode="&#xa5;" horiz-adv-x="583" 
d="M58 168v90h472v-90h-472zM59 290v90h189v-90h-189zM343 290v90h188v-90h-188zM213 6v216l-211 431h188l102 -288h2l101 288h186l-210 -431v-216h-158z" />
    <glyph glyph-name="brokenbar" unicode="&#xa6;" horiz-adv-x="218" 
d="M40 -146v309h138v-309h-138zM40 370v290h138v-290h-138z" />
    <glyph glyph-name="section" unicode="&#xa7;" horiz-adv-x="518" 
d="M266 -158q-54 0 -99.5 10.5t-78.5 33.5t-50.5 61.5t-14.5 94.5l140 12q2 -32 14.5 -54t36 -32.5t58.5 -10.5q33 0 55 11t22 36q0 13 -8 26t-30 24.5t-65 21.5q-52 12 -93.5 26t-69.5 33t-43 46t-15 66q0 24 10 51t43 51t101 39v4q-68 11 -101 33t-43 48t-10 47
q0 54 33 88.5t86 51t111 16.5q62 0 115.5 -19t84.5 -62t23 -115l-138 -13q3 31 -8.5 51.5t-33 30.5t-50.5 10q-35 0 -53.5 -13t-18.5 -33q0 -16 13 -30t38.5 -25.5t63.5 -20.5q35 -8 72 -19.5t68.5 -30t50.5 -48.5t19 -75q0 -22 -9.5 -49t-42 -50t-101.5 -34v-4
q58 -11 91.5 -28.5t47.5 -42t14 -57.5q0 -48 -26.5 -83t-78.5 -54.5t-130 -19.5zM264 192q17 0 35.5 5t32 18.5t13.5 40.5q0 18 -7 30.5t-19 21t-28 12.5t-34 4q-33 0 -55 -14t-22 -49q0 -17 5.5 -30t16 -21.5t26.5 -13t36 -4.5z" />
    <glyph glyph-name="dieresis" unicode="&#xa8;" horiz-adv-x="434" 
d="M330 573q-39 0 -60.5 15t-21.5 53t21.5 53.5t60.5 15.5q41 0 62.5 -15.5t21.5 -53.5t-21.5 -53t-62.5 -15zM103 573q-39 0 -61 15t-22 53t22 53.5t61 15.5q40 0 62 -15.5t22 -53.5t-22 -53t-62 -15z" />
    <glyph glyph-name="copyright" unicode="&#xa9;" horiz-adv-x="914" 
d="M456 -75q-106 0 -187 24.5t-136 73t-83 121.5t-28 169q0 97 28 169.5t83.5 121.5t136.5 73.5t186 24.5q104 0 185 -24.5t137 -73.5t85 -121.5t29 -169.5q0 -96 -29 -169t-84.5 -121.5t-136.5 -73t-186 -24.5zM456 50q106 0 173.5 27.5t100 86t32.5 149.5q0 92 -32.5 150
t-100 86t-173.5 28t-173.5 -27.5t-99 -86t-31.5 -150.5q0 -91 31.5 -149.5t98.5 -86t174 -27.5zM466 98q-73 0 -118.5 29t-67 77.5t-21.5 106.5t21 107.5t66.5 80.5t118.5 31q68 0 108 -24.5t55 -63t9 -80.5l-118 -8q2 29 -10.5 47t-44.5 18q-16 0 -29 -7t-22 -20t-13.5 -32
t-4.5 -43q0 -34 8.5 -59.5t25 -39.5t39.5 -14q30 0 43 14.5t15 34t-1 33.5l124 -5q5 -37 -4 -70t-32 -58.5t-59.5 -40t-87.5 -14.5z" />
    <glyph glyph-name="ordfeminine" unicode="&#xaa;" horiz-adv-x="350" 
d="M109 307q-24 0 -47 9t-38 30t-15 56q0 31 11 51t30 32t42.5 19t48.5 12q31 6 47.5 10.5t23 10t6.5 15.5q0 8 -4.5 14t-13.5 9t-21 3q-15 0 -26.5 -5t-18.5 -15.5t-7 -27.5l-109 5q0 42 16 69t41.5 42t54.5 20.5t54 5.5q43 0 72 -12.5t46.5 -36.5t25 -57t7.5 -74v-51v-42
v-41.5v-41.5h-103q0 14 -1 39.5t-2 45.5h-3q-10 -37 -38.5 -65.5t-78.5 -28.5zM163 394q9 0 22 4.5t23 19t10 43.5v24l16 1q-5 -10 -17 -14.5t-27 -8t-28.5 -7.5t-22.5 -11.5t-9 -21.5q0 -15 10 -22t23 -7z" />
    <glyph glyph-name="guillemotleft" unicode="&#xab;" horiz-adv-x="466" 
d="M85 79q-10 51 -24.5 97t-30.5 90q17 44 31 89t24 95h156q-14 -50 -32.5 -95t-38.5 -89q20 -44 38.5 -90t32.5 -97h-156zM282 79q-10 51 -24.5 97t-30.5 90q17 44 31 89t24 95h156q-14 -50 -32.5 -95t-38.5 -89q20 -44 38.5 -90t32.5 -97h-156z" />
    <glyph glyph-name="logicalnot" unicode="&#xac;" horiz-adv-x="486" 
d="M41 260v135h404v-135h-404zM305 108v226h140v-226h-140z" />
    <glyph glyph-name="registered" unicode="&#xae;" horiz-adv-x="673" 
d="M334 151q-101 0 -172.5 31.5t-109.5 94.5t-38 157t38 157t109.5 94.5t172.5 31.5q102 0 174.5 -31.5t111.5 -94.5t39 -157t-39 -157t-111.5 -94.5t-174.5 -31.5zM334 251q76 0 124.5 19t72 59.5t23.5 104.5t-23.5 104.5t-72.5 59.5t-124 19q-111 0 -163 -43t-52 -140
t52 -140t163 -43zM228 298v275h119q48 0 79.5 -20t31.5 -64q0 -26 -18 -45.5t-60 -24.5v-3q42 -3 55.5 -23t20.5 -44l15 -51h-86l-9 47q-4 23 -14.5 32.5t-36.5 9.5h-17v-89h-80zM308 446h23q10 0 21 1.5t19 8t8 21.5q0 19 -7.5 26.5t-16.5 9t-14 1.5h-33v-68z" />
    <glyph glyph-name="macron" unicode="&#xaf;" horiz-adv-x="332" 
d="M20 590v105h292v-105h-292z" />
    <glyph glyph-name="degree" unicode="&#xb0;" horiz-adv-x="342" 
d="M169 373q-43 0 -78 17.5t-56 50.5t-21 81q0 44 14.5 73t38 46t51.5 24t55 7q42 0 77.5 -15.5t56.5 -48.5t21 -86t-24.5 -86t-61 -48t-73.5 -15zM173 471q20 0 35 11t15 38q0 29 -15.5 41t-37.5 12q-19 0 -34.5 -11t-15.5 -40q0 -25 15.5 -38t37.5 -13z" />
    <glyph glyph-name="plusminus" unicode="&#xb1;" horiz-adv-x="486" 
d="M178 279v321h130v-321h-130zM40 377v126h406v-126h-406zM40 91v132h406v-132h-406z" />
    <glyph glyph-name="uni00B2" unicode="&#xb2;" horiz-adv-x="408" 
d="M25 270v131l181 91q14 7 22.5 12.5t12.5 12.5t4 16q0 17 -12 25.5t-31 8.5q-14 0 -25.5 -5.5t-17 -16t-3.5 -27.5l-137 14q-1 73 52.5 111t137.5 38q50 0 90 -14t63.5 -44t23.5 -78q0 -23 -6 -43t-19 -37t-33.5 -31.5t-48.5 -26.5l-82 -35v-6l189 26v-122h-361z" />
    <glyph glyph-name="uni00B3" unicode="&#xb3;" horiz-adv-x="400" 
d="M192 262q-83 0 -129.5 29t-48.5 87l127 30q3 -14 9.5 -23.5t17 -14t25.5 -4.5q26 0 38 10.5t12 24.5q0 16 -13 28.5t-46.5 17t-95.5 -6.5v73l119 43v6l-179 -2v110h328v-118l-128 -53v-6q81 11 119 -18t38 -83q0 -61 -47 -95.5t-146 -34.5z" />
    <glyph glyph-name="acute" unicode="&#xb4;" horiz-adv-x="283" 
d="M164 571h-144l60 126h180z" />
    <glyph glyph-name="uni00B5" unicode="&#xb5;" horiz-adv-x="542" 
d="M31 -148v676h158v-286q0 -17 1.5 -36.5t7 -37.5t18.5 -29t36 -11q17 0 33.5 11.5t29.5 36.5t21 66t8 99v187h162v-293v-235h-137v215h-8q-6 -83 -20 -133.5t-36 -73t-53 -22.5q-23 0 -40.5 9t-29.5 26.5t-22 43.5h-8l25 -146v-67h-146z" />
    <glyph glyph-name="paragraph" unicode="&#xb6;" horiz-adv-x="649" 
d="M318 -147v334h-3q-96 0 -163 26.5t-102.5 79.5t-35.5 132q0 62 20.5 106.5t57 73t85.5 42t106 13.5h157v-807h-122zM370 -147v81h193v-81h-193zM487 -147v807h122v-807h-122zM341 579v81h252v-81h-252z" />
    <glyph glyph-name="periodcentered" unicode="&#xb7;" horiz-adv-x="246" 
d="M122 235q-51 0 -76.5 22t-25.5 68q0 47 25.5 69t76.5 22q52 0 78 -22t26 -69q0 -90 -104 -90z" />
    <glyph glyph-name="cedilla" unicode="&#xb8;" horiz-adv-x="318" 
d="M20 -175l23 85q14 -9 39.5 -16t52 -10t45 2.5t18.5 21.5q0 5 -4 11t-16 10.5t-36 6.5t-65 0l10 72h100l-6 -41q36 0 62 -7t40.5 -22.5t14.5 -42.5q0 -41 -28.5 -63.5t-73 -30t-91.5 -1t-85 24.5z" />
    <glyph glyph-name="uni00B9" unicode="&#xb9;" horiz-adv-x="244" 
d="M73 270v217h-58v123q29 0 46.5 13t22.5 47h130v-400h-141z" />
    <glyph glyph-name="ordmasculine" unicode="&#xba;" horiz-adv-x="408" 
d="M202 307q-85 0 -138 44t-53 137q0 65 25.5 105.5t69.5 60t99 19.5q88 0 140 -46t52 -138q0 -64 -25.5 -104.5t-69.5 -59t-100 -18.5zM206 400q20 0 33 9t20 27t7 45q0 30 -7.5 50t-21.5 30.5t-36 10.5q-20 0 -33 -10t-19.5 -28.5t-6.5 -45.5q0 -29 7 -49t21.5 -29.5
t35.5 -9.5z" />
    <glyph glyph-name="guillemotright" unicode="&#xbb;" horiz-adv-x="466" 
d="M381 79h-156q14 51 33 97t38 90q-20 44 -38.5 89t-32.5 95h156q10 -50 24.5 -95t30.5 -89q-16 -44 -30.5 -90t-24.5 -97zM184 79h-156q14 51 33 97t38 90q-20 44 -38.5 89t-32.5 95h156q10 -50 24.5 -95t30.5 -89q-16 -44 -30.5 -90t-24.5 -97z" />
    <glyph glyph-name="onequarter" unicode="&#xbc;" horiz-adv-x="844" 
d="M73 300v217h-58v123q29 0 46.5 13t22.5 47h130v-400h-141zM83 0l390 660h156l-390 -660h-156zM425 23v121q32 42 53.5 77.5t34.5 69t19 69.5h243v-400h-139v314h-6q-13 -36 -32.5 -68.5t-42.5 -67.5v-8h276v-107h-406z" />
    <glyph glyph-name="onehalf" unicode="&#xbd;" horiz-adv-x="851" 
d="M73 300v217h-58v123q29 0 46.5 13t22.5 47h130v-400h-141zM83 0l390 660h156l-390 -660h-156zM468 -40v131l181 91q14 7 22.5 12.5t12.5 12.5t4 16q0 17 -12 25.5t-31 8.5q-14 0 -25.5 -5.5t-17 -16t-3.5 -27.5l-137 14q-1 73 52.5 111t137.5 38q50 0 90 -14t63.5 -44
t23.5 -78q0 -23 -6 -43t-19 -37t-33.5 -31.5t-48.5 -26.5l-82 -35v-6l189 26v-122h-361z" />
    <glyph glyph-name="threequarters" unicode="&#xbe;" horiz-adv-x="980" 
d="M192 292q-83 0 -129.5 29t-48.5 87l127 30q3 -14 9.5 -23.5t17 -14t25.5 -4.5q26 0 38 10.5t12 24.5q0 16 -13 28.5t-46.5 17t-95.5 -6.5v73l119 43v6l-179 -2v110h328v-118l-128 -53v-6q81 11 119 -18t38 -83q0 -61 -47 -95.5t-146 -34.5zM219 0l390 660h156l-390 -660
h-156zM561 23v121q32 42 53.5 77.5t34.5 69t19 69.5h243v-400h-139v314h-6q-13 -36 -32.5 -68.5t-42.5 -67.5v-8h276v-107h-406z" />
    <glyph glyph-name="questiondown" unicode="&#xbf;" horiz-adv-x="386" 
d="M318 318q6 -51 -2.5 -85t-25 -56.5t-37 -37.5t-39 -27.5t-30.5 -26.5t-12 -36q0 -26 18 -39t46 -13q22 0 48 7t51.5 19t45.5 26l7 -152q-25 -16 -52.5 -26t-57 -15t-61.5 -5q-36 0 -71.5 8t-65 27t-47 52.5t-17.5 85.5q0 46 13 76.5t34 51t43.5 36.5t42 33t30.5 40t8 57
h131zM244 540q51 0 76.5 -22t25.5 -68t-25.5 -68.5t-76.5 -22.5q-52 0 -78 22.5t-26 68.5q0 90 104 90z" />
    <glyph glyph-name="Agrave" unicode="&#xc0;" horiz-adv-x="659" 
d="M4 0l221 660h210l220 -660h-175l-148 529h-6l-149 -529h-173zM129 117v114h421v-114h-421zM267 704l-96 126h180l60 -126h-144z" />
    <glyph glyph-name="Aacute" unicode="&#xc1;" horiz-adv-x="659" 
d="M4 0l221 660h210l220 -660h-175l-148 529h-6l-149 -529h-173zM129 117v114h421v-114h-421zM393 704h-144l60 126h180z" />
    <glyph glyph-name="Acircumflex" unicode="&#xc2;" horiz-adv-x="659" 
d="M4 0l221 660h210l220 -660h-175l-148 529h-6l-149 -529h-173zM129 117v114h421v-114h-421zM173 680v113l157 53l157 -53v-113l-157 52z" />
    <glyph glyph-name="Atilde" unicode="&#xc3;" horiz-adv-x="659" 
d="M4 0l221 660h210l220 -660h-175l-148 529h-6l-149 -529h-173zM129 117v114h421v-114h-421zM423 700q-18 0 -40.5 4.5t-44.5 11t-40.5 11t-29.5 4.5q-16 0 -19 -8.5t0 -17.5h-71q-19 34 -15.5 63t25 47t55.5 18q18 0 39.5 -4.5t43 -10t39.5 -10t29 -4.5q16 0 18.5 8
t-0.5 18h71q15 -32 13.5 -62t-19.5 -49t-54 -19z" />
    <glyph glyph-name="Adieresis" unicode="&#xc4;" horiz-adv-x="659" 
d="M4 0l221 660h210l220 -660h-175l-148 529h-6l-149 -529h-173zM129 117v114h421v-114h-421zM441 706q-39 0 -60.5 15t-21.5 53t21.5 53.5t60.5 15.5q41 0 62.5 -15.5t21.5 -53.5t-21.5 -53t-62.5 -15zM214 706q-39 0 -61 15t-22 53t22 53.5t61 15.5q40 0 62 -15.5
t22 -53.5t-22 -53t-62 -15z" />
    <glyph glyph-name="Aring" unicode="&#xc5;" horiz-adv-x="659" 
d="M4 0l221 660h210l220 -660h-175l-148 529h-6l-149 -529h-173zM129 117v114h421v-114h-421zM330 698q-38 0 -69 22.5t-31 65.5q0 44 30 65.5t70 21.5q38 0 68.5 -21.5t30.5 -65.5t-31 -66t-68 -22zM331 760q10 0 18 6t8 19q0 12 -8.5 19.5t-19.5 7.5t-18.5 -7t-7.5 -19
q0 -13 8.5 -19.5t19.5 -6.5z" />
    <glyph glyph-name="AE" unicode="&#xc6;" horiz-adv-x="863" 
d="M4 0l286 660h226l-103 -131h-22l-214 -529h-173zM129 117v112h315v-112h-315zM525 0v135h310v-135h-310zM412 0v660h154v-660h-154zM525 272v121h263v-121h-263zM525 525v135h309v-135h-309z" />
    <glyph glyph-name="Ccedilla" unicode="&#xc7;" horiz-adv-x="631" 
d="M341 -14q-84 0 -144 27t-98 75t-55.5 109.5t-17.5 130.5q0 71 18 134t55.5 110.5t96.5 74.5t142 27q72 0 124 -20.5t83.5 -56t43.5 -81.5t6 -96l-149 -18q2 43 -10.5 74t-38 48t-64.5 17q-33 0 -58.5 -13t-43 -39t-26.5 -64.5t-9 -89.5q0 -66 16 -114.5t49 -75t83 -26.5
q46 0 72.5 21t37.5 58t7 83l153 -13q5 -55 -7.5 -105.5t-45 -90.5t-87 -63t-133.5 -23zM202 -175l23 85q14 -9 39.5 -16t52 -10t45 2.5t18.5 21.5q0 5 -4 11t-16 10.5t-36 6.5t-65 0l10 72h100l-6 -41q36 0 62 -7t40.5 -22.5t14.5 -42.5q0 -41 -28.5 -63.5t-73 -30t-91.5 -1
t-85 24.5z" />
    <glyph glyph-name="Egrave" unicode="&#xc8;" horiz-adv-x="540" 
d="M40 0v660h162v-660h-162zM161 0v135h351v-135h-351zM161 272v121h305v-121h-305zM161 525v135h351v-135h-351zM214 704l-96 126h180l60 -126h-144z" />
    <glyph glyph-name="Eacute" unicode="&#xc9;" horiz-adv-x="540" 
d="M40 0v660h162v-660h-162zM161 0v135h351v-135h-351zM161 272v121h305v-121h-305zM161 525v135h351v-135h-351zM340 704h-144l60 126h180z" />
    <glyph glyph-name="Ecircumflex" unicode="&#xca;" horiz-adv-x="540" 
d="M40 0v660h162v-660h-162zM161 0v135h351v-135h-351zM161 272v121h305v-121h-305zM161 525v135h351v-135h-351zM120 680v113l157 53l157 -53v-113l-157 52z" />
    <glyph glyph-name="Edieresis" unicode="&#xcb;" horiz-adv-x="540" 
d="M40 0v660h162v-660h-162zM161 0v135h351v-135h-351zM161 272v121h305v-121h-305zM161 525v135h351v-135h-351zM388 706q-39 0 -60.5 15t-21.5 53t21.5 53.5t60.5 15.5q41 0 62.5 -15.5t21.5 -53.5t-21.5 -53t-62.5 -15zM161 706q-39 0 -61 15t-22 53t22 53.5t61 15.5
q40 0 62 -15.5t22 -53.5t-22 -53t-62 -15z" />
    <glyph glyph-name="Igrave" unicode="&#xcc;" horiz-adv-x="243" 
d="M40 0v660h163v-660h-163zM59 704l-96 126h180l60 -126h-144z" />
    <glyph glyph-name="Iacute" unicode="&#xcd;" horiz-adv-x="243" 
d="M40 0v660h163v-660h-163zM185 704h-144l60 126h180z" />
    <glyph glyph-name="Icircumflex" unicode="&#xce;" horiz-adv-x="243" 
d="M40 0v660h163v-660h-163zM0 680v114l122 52l121 -52v-114l-121 52z" />
    <glyph glyph-name="Idieresis" unicode="&#xcf;" horiz-adv-x="243" 
d="M40 0v660h163v-660h-163zM200 705q-26 0 -46 15t-20 53q0 37 20 52.5t46 15.5q29 0 48.5 -15.5t19.5 -52.5q0 -38 -19.5 -53t-48.5 -15zM42 705q-27 0 -47 15t-20 53q0 37 20 52.5t47 15.5q28 0 48 -15.5t20 -52.5q0 -38 -20 -53t-48 -15z" />
    <glyph glyph-name="Eth" unicode="&#xd0;" horiz-adv-x="645" 
d="M15 412h272v-126h-272v126zM138 0v135h171q38 0 70.5 16t52.5 57.5t20 119.5q0 56 -11 94t-31.5 60.5t-50 32.5t-67.5 10h-154v135h147q117 0 191 -39t109 -111.5t35 -173.5q0 -78 -17.5 -135t-48.5 -96t-70 -62t-83 -33t-87 -10h-176zM64 0v660h162v-660h-162z" />
    <glyph glyph-name="Ntilde" unicode="&#xd1;" horiz-adv-x="694" 
d="M40 0v660h217l235 -447h2v447h160v-660h-204l-248 462h-2v-462h-160zM440 700q-18 0 -40.5 4.5t-44.5 11t-40.5 11t-29.5 4.5q-16 0 -19 -8.5t0 -17.5h-71q-19 34 -15.5 63t25 47t55.5 18q18 0 39.5 -4.5t43 -10t39.5 -10t29 -4.5q16 0 18.5 8t-0.5 18h71
q15 -32 13.5 -62t-19.5 -49t-54 -19z" />
    <glyph glyph-name="Ograve" unicode="&#xd2;" horiz-adv-x="661" 
d="M328 -14q-70 0 -126 22t-95 65t-59.5 107t-20.5 147q0 118 38.5 194.5t108 114.5t160.5 38q70 0 125.5 -21.5t94.5 -64.5t59.5 -107.5t20.5 -149.5q0 -86 -21.5 -151t-62 -108t-97 -64.5t-125.5 -21.5zM334 119q45 0 74.5 22.5t44 68t14.5 114.5q0 73 -15.5 121t-46 72.5
t-76.5 24.5q-44 0 -74 -23.5t-45 -70.5t-15 -117q0 -53 8.5 -93t26 -66.5t43.5 -39.5t61 -13zM268 704l-96 126h180l60 -126h-144z" />
    <glyph glyph-name="Oacute" unicode="&#xd3;" horiz-adv-x="661" 
d="M328 -14q-70 0 -126 22t-95 65t-59.5 107t-20.5 147q0 118 38.5 194.5t108 114.5t160.5 38q70 0 125.5 -21.5t94.5 -64.5t59.5 -107.5t20.5 -149.5q0 -86 -21.5 -151t-62 -108t-97 -64.5t-125.5 -21.5zM334 119q45 0 74.5 22.5t44 68t14.5 114.5q0 73 -15.5 121t-46 72.5
t-76.5 24.5q-44 0 -74 -23.5t-45 -70.5t-15 -117q0 -53 8.5 -93t26 -66.5t43.5 -39.5t61 -13zM394 704h-144l60 126h180z" />
    <glyph glyph-name="Ocircumflex" unicode="&#xd4;" horiz-adv-x="661" 
d="M328 -14q-70 0 -126 22t-95 65t-59.5 107t-20.5 147q0 118 38.5 194.5t108 114.5t160.5 38q70 0 125.5 -21.5t94.5 -64.5t59.5 -107.5t20.5 -149.5q0 -86 -21.5 -151t-62 -108t-97 -64.5t-125.5 -21.5zM334 119q45 0 74.5 22.5t44 68t14.5 114.5q0 73 -15.5 121t-46 72.5
t-76.5 24.5q-44 0 -74 -23.5t-45 -70.5t-15 -117q0 -53 8.5 -93t26 -66.5t43.5 -39.5t61 -13zM174 680v113l157 53l157 -53v-113l-157 52z" />
    <glyph glyph-name="Otilde" unicode="&#xd5;" horiz-adv-x="661" 
d="M328 -14q-70 0 -126 22t-95 65t-59.5 107t-20.5 147q0 118 38.5 194.5t108 114.5t160.5 38q70 0 125.5 -21.5t94.5 -64.5t59.5 -107.5t20.5 -149.5q0 -86 -21.5 -151t-62 -108t-97 -64.5t-125.5 -21.5zM334 119q45 0 74.5 22.5t44 68t14.5 114.5q0 73 -15.5 121t-46 72.5
t-76.5 24.5q-44 0 -74 -23.5t-45 -70.5t-15 -117q0 -53 8.5 -93t26 -66.5t43.5 -39.5t61 -13zM424 700q-18 0 -40.5 4.5t-44.5 11t-40.5 11t-29.5 4.5q-16 0 -19 -8.5t0 -17.5h-71q-19 34 -15.5 63t25 47t55.5 18q18 0 39.5 -4.5t43 -10t39.5 -10t29 -4.5q16 0 18.5 8
t-0.5 18h71q15 -32 13.5 -62t-19.5 -49t-54 -19z" />
    <glyph glyph-name="Odieresis" unicode="&#xd6;" horiz-adv-x="661" 
d="M328 -14q-70 0 -126 22t-95 65t-59.5 107t-20.5 147q0 118 38.5 194.5t108 114.5t160.5 38q70 0 125.5 -21.5t94.5 -64.5t59.5 -107.5t20.5 -149.5q0 -86 -21.5 -151t-62 -108t-97 -64.5t-125.5 -21.5zM334 119q45 0 74.5 22.5t44 68t14.5 114.5q0 73 -15.5 121t-46 72.5
t-76.5 24.5q-44 0 -74 -23.5t-45 -70.5t-15 -117q0 -53 8.5 -93t26 -66.5t43.5 -39.5t61 -13zM442 706q-39 0 -60.5 15t-21.5 53t21.5 53.5t60.5 15.5q41 0 62.5 -15.5t21.5 -53.5t-21.5 -53t-62.5 -15zM215 706q-39 0 -61 15t-22 53t22 53.5t61 15.5q40 0 62 -15.5
t22 -53.5t-22 -53t-62 -15z" />
    <glyph glyph-name="multiply" unicode="&#xd7;" horiz-adv-x="486" 
d="M130 130l-90 90l316 317l90 -91zM357 130l-317 316l89 92l317 -316z" />
    <glyph glyph-name="Oslash" unicode="&#xd8;" horiz-adv-x="670" 
d="M27 -16l496 692h120l-495 -692h-121zM332 -11q-70 0 -126 22t-95 65t-59.5 107t-20.5 147q0 118 38.5 194.5t108 114.5t160.5 38q70 0 125.5 -21.5t94.5 -64.5t59.5 -107.5t20.5 -149.5q0 -86 -21.5 -151t-62 -108t-97 -64.5t-125.5 -21.5zM338 122q45 0 74.5 22.5
t44 68.5t14.5 114q0 73 -15.5 121t-46 72.5t-76.5 24.5q-44 0 -74 -23.5t-45 -70.5t-15 -117q0 -53 8.5 -93t26 -66.5t43.5 -39.5t61 -13z" />
    <glyph glyph-name="Ugrave" unicode="&#xd9;" horiz-adv-x="627" 
d="M313 -14q-57 0 -102 13t-77.5 37t-54 57.5t-32 75.5t-10.5 91v400h162v-392q0 -51 15 -81.5t40.5 -43.5t58.5 -13q34 0 59.5 13t40.5 43t15 82v392h162v-400q0 -130 -70 -202t-207 -72zM250 704l-96 126h180l60 -126h-144z" />
    <glyph glyph-name="Uacute" unicode="&#xda;" horiz-adv-x="627" 
d="M313 -14q-57 0 -102 13t-77.5 37t-54 57.5t-32 75.5t-10.5 91v400h162v-392q0 -51 15 -81.5t40.5 -43.5t58.5 -13q34 0 59.5 13t40.5 43t15 82v392h162v-400q0 -130 -70 -202t-207 -72zM376 704h-144l60 126h180z" />
    <glyph glyph-name="Ucircumflex" unicode="&#xdb;" horiz-adv-x="627" 
d="M313 -14q-57 0 -102 13t-77.5 37t-54 57.5t-32 75.5t-10.5 91v400h162v-392q0 -51 15 -81.5t40.5 -43.5t58.5 -13q34 0 59.5 13t40.5 43t15 82v392h162v-400q0 -130 -70 -202t-207 -72zM156 680v113l157 53l157 -53v-113l-157 52z" />
    <glyph glyph-name="Udieresis" unicode="&#xdc;" horiz-adv-x="627" 
d="M313 -14q-57 0 -102 13t-77.5 37t-54 57.5t-32 75.5t-10.5 91v400h162v-392q0 -51 15 -81.5t40.5 -43.5t58.5 -13q34 0 59.5 13t40.5 43t15 82v392h162v-400q0 -130 -70 -202t-207 -72zM424 706q-39 0 -60.5 15t-21.5 53t21.5 53.5t60.5 15.5q41 0 62.5 -15.5t21.5 -53.5
t-21.5 -53t-62.5 -15zM197 706q-39 0 -61 15t-22 53t22 53.5t61 15.5q40 0 62 -15.5t22 -53.5t-22 -53t-62 -15z" />
    <glyph glyph-name="Yacute" unicode="&#xdd;" horiz-adv-x="595" 
d="M217 0v220l-215 440h192l104 -294h2l103 294h190l-214 -440v-220h-162zM361 704h-144l60 126h180z" />
    <glyph glyph-name="Thorn" unicode="&#xde;" horiz-adv-x="587" 
d="M161 98v130h117q14 0 30.5 1t34 6t31.5 16.5t23 32t9 53.5q0 34 -8.5 55t-22.5 33t-29.5 17t-29 6t-21.5 1h-134v129h143q54 0 102.5 -14t86 -44t59 -76t21.5 -111q0 -78 -35 -130t-102 -78.5t-164 -26.5h-111zM40 0v660h162v-660h-162z" />
    <glyph glyph-name="germandbls" unicode="&#xdf;" horiz-adv-x="638" 
d="M413 -13q-58 0 -103 19t-68 55.5t-17 89.5l130 20q1 -19 8 -31.5t19 -18.5t26 -6t24 5t17 13.5t10 20t3 24.5q0 29 -13 46.5t-37 27.5t-57.5 13.5t-74.5 3.5v122q53 0 86.5 6t49.5 20.5t16 40.5q0 29 -17.5 47t-45 26.5t-58.5 8.5q-34 0 -55 -9t-33 -23t-17.5 -30.5
t-6.5 -32.5t-1 -28v-416h-162v396q0 52 11 95t33.5 76.5t57 56.5t81.5 35t107 12q85 0 143 -23t88 -64.5t30 -99.5q0 -38 -15.5 -72t-50.5 -55t-94 -21v-6q65 -5 108 -26t64.5 -56.5t21.5 -86.5q0 -47 -20.5 -87t-66.5 -64t-121 -24z" />
    <glyph glyph-name="agrave" unicode="&#xe0;" horiz-adv-x="543" 
d="M175 -14q-40 0 -76 14t-59 45.5t-23 84.5q0 49 19 79.5t51 49t70 28t75 16.5q52 10 78 16t35.5 14t9.5 22q0 29 -21.5 44t-56.5 15q-22 0 -44 -8t-36 -28.5t-13 -58.5l-144 10q-2 63 19 104.5t57.5 65t80 33.5t86.5 10q79 0 130 -29.5t75.5 -85t24.5 -134.5v-94v-66.5
v-66.5v-66h-140v73v78h-6q-4 -45 -29.5 -82.5t-67 -60t-95.5 -22.5zM242 104q17 0 36.5 6.5t37 21.5t28.5 41.5t11 65.5v24l27 3q-8 -13 -26.5 -21t-41.5 -12.5t-46.5 -9t-43.5 -12t-32.5 -20t-12.5 -34.5q0 -26 18.5 -39.5t44.5 -13.5zM220 572l-96 126h180l60 -126h-144z
" />
    <glyph glyph-name="aacute" unicode="&#xe1;" horiz-adv-x="543" 
d="M175 -14q-40 0 -76 14t-59 45.5t-23 84.5q0 49 19 79.5t51 49t70 28t75 16.5q52 10 78 16t35.5 14t9.5 22q0 29 -21.5 44t-56.5 15q-22 0 -44 -8t-36 -28.5t-13 -58.5l-144 10q-2 63 19 104.5t57.5 65t80 33.5t86.5 10q79 0 130 -29.5t75.5 -85t24.5 -134.5v-94v-66.5
v-66.5v-66h-140v73v78h-6q-4 -45 -29.5 -82.5t-67 -60t-95.5 -22.5zM242 104q17 0 36.5 6.5t37 21.5t28.5 41.5t11 65.5v24l27 3q-8 -13 -26.5 -21t-41.5 -12.5t-46.5 -9t-43.5 -12t-32.5 -20t-12.5 -34.5q0 -26 18.5 -39.5t44.5 -13.5zM346 572h-144l60 126h180z" />
    <glyph glyph-name="acircumflex" unicode="&#xe2;" horiz-adv-x="543" 
d="M175 -14q-40 0 -76 14t-59 45.5t-23 84.5q0 49 19 79.5t51 49t70 28t75 16.5q52 10 78 16t35.5 14t9.5 22q0 29 -21.5 44t-56.5 15q-22 0 -44 -8t-36 -28.5t-13 -58.5l-144 10q-2 63 19 104.5t57.5 65t80 33.5t86.5 10q79 0 130 -29.5t75.5 -85t24.5 -134.5v-94v-66.5
v-66.5v-66h-140v73v78h-6q-4 -45 -29.5 -82.5t-67 -60t-95.5 -22.5zM242 104q17 0 36.5 6.5t37 21.5t28.5 41.5t11 65.5v24l27 3q-8 -13 -26.5 -21t-41.5 -12.5t-46.5 -9t-43.5 -12t-32.5 -20t-12.5 -34.5q0 -26 18.5 -39.5t44.5 -13.5zM126 548v113l157 53l157 -53v-113
l-157 52z" />
    <glyph glyph-name="atilde" unicode="&#xe3;" horiz-adv-x="543" 
d="M175 -14q-40 0 -76 14t-59 45.5t-23 84.5q0 49 19 79.5t51 49t70 28t75 16.5q52 10 78 16t35.5 14t9.5 22q0 29 -21.5 44t-56.5 15q-22 0 -44 -8t-36 -28.5t-13 -58.5l-144 10q-2 63 19 104.5t57.5 65t80 33.5t86.5 10q79 0 130 -29.5t75.5 -85t24.5 -134.5v-94v-66.5
v-66.5v-66h-140v73v78h-6q-4 -45 -29.5 -82.5t-67 -60t-95.5 -22.5zM242 104q17 0 36.5 6.5t37 21.5t28.5 41.5t11 65.5v24l27 3q-8 -13 -26.5 -21t-41.5 -12.5t-46.5 -9t-43.5 -12t-32.5 -20t-12.5 -34.5q0 -26 18.5 -39.5t44.5 -13.5zM376 568q-18 0 -40.5 4.5t-44.5 11
t-40.5 11t-29.5 4.5q-16 0 -19 -8.5t0 -17.5h-71q-19 34 -15.5 63t25 47t55.5 18q18 0 39.5 -4.5t43 -10t39.5 -10t29 -4.5q16 0 18.5 8t-0.5 18h71q15 -32 13.5 -62t-19.5 -49t-54 -19z" />
    <glyph glyph-name="adieresis" unicode="&#xe4;" horiz-adv-x="543" 
d="M175 -14q-40 0 -76 14t-59 45.5t-23 84.5q0 49 19 79.5t51 49t70 28t75 16.5q52 10 78 16t35.5 14t9.5 22q0 29 -21.5 44t-56.5 15q-22 0 -44 -8t-36 -28.5t-13 -58.5l-144 10q-2 63 19 104.5t57.5 65t80 33.5t86.5 10q79 0 130 -29.5t75.5 -85t24.5 -134.5v-94v-66.5
v-66.5v-66h-140v73v78h-6q-4 -45 -29.5 -82.5t-67 -60t-95.5 -22.5zM242 104q17 0 36.5 6.5t37 21.5t28.5 41.5t11 65.5v24l27 3q-8 -13 -26.5 -21t-41.5 -12.5t-46.5 -9t-43.5 -12t-32.5 -20t-12.5 -34.5q0 -26 18.5 -39.5t44.5 -13.5zM394 574q-39 0 -60.5 15t-21.5 53
t21.5 53.5t60.5 15.5q41 0 62.5 -15.5t21.5 -53.5t-21.5 -53t-62.5 -15zM167 574q-39 0 -61 15t-22 53t22 53.5t61 15.5q40 0 62 -15.5t22 -53.5t-22 -53t-62 -15z" />
    <glyph glyph-name="aring" unicode="&#xe5;" horiz-adv-x="543" 
d="M175 -14q-40 0 -76 14t-59 45.5t-23 84.5q0 49 19 79.5t51 49t70 28t75 16.5q52 10 78 16t35.5 14t9.5 22q0 29 -21.5 44t-56.5 15q-22 0 -44 -8t-36 -28.5t-13 -58.5l-144 10q-2 63 19 104.5t57.5 65t80 33.5t86.5 10q79 0 130 -29.5t75.5 -85t24.5 -134.5v-94v-66.5
v-66.5v-66h-140v73v78h-6q-4 -45 -29.5 -82.5t-67 -60t-95.5 -22.5zM242 104q17 0 36.5 6.5t37 21.5t28.5 41.5t11 65.5v24l27 3q-8 -13 -26.5 -21t-41.5 -12.5t-46.5 -9t-43.5 -12t-32.5 -20t-12.5 -34.5q0 -26 18.5 -39.5t44.5 -13.5zM283 566q-38 0 -69 22.5t-31 65.5
q0 44 30 65.5t70 21.5q38 0 68.5 -21.5t30.5 -65.5t-31 -66t-68 -22zM284 628q10 0 18 6t8 19q0 12 -8.5 19.5t-19.5 7.5t-18.5 -7t-7.5 -19q0 -13 8.5 -19.5t19.5 -6.5z" />
    <glyph glyph-name="ae" unicode="&#xe6;" horiz-adv-x="858" 
d="M178 -14q-35 0 -72.5 14.5t-63 47t-25.5 87.5q0 46 18.5 75t48 45.5t65 26t68.5 15.5q35 7 62.5 14.5t43.5 20t16 33.5q0 13 -6.5 23.5t-22 17.5t-41.5 7q-29 0 -50.5 -10t-33.5 -31t-13 -53l-143 13q3 78 35.5 124t83.5 66t108 20q36 0 64.5 -7.5t50.5 -22.5t37 -39.5
t23 -59.5h5q8 40 29 65.5t48 39t55 19t51 5.5q45 0 85.5 -16.5t71 -51.5t45.5 -91.5t9 -137.5l-384 -8v89l301 5l-67 -42q7 36 -1 64.5t-28 45t-49 16.5q-23 0 -44.5 -13t-35.5 -43.5t-14 -85.5t15 -93.5t40 -58.5t55 -20q20 0 36 8t26.5 21.5t15 31.5t1.5 37l142 -9
q6 -46 -7 -83.5t-42.5 -64.5t-73 -41.5t-97.5 -14.5q-58 0 -105 17.5t-78 54.5t-42 94h-7q-7 -45 -29.5 -76.5t-53.5 -51t-64 -29t-62 -9.5zM235 105q15 0 32 6t33.5 20.5t28.5 40.5t16 65l10 85l47 -42q-21 -21 -50 -33t-60 -19t-57.5 -15t-43 -21t-16.5 -36
q0 -25 18.5 -38t41.5 -13z" />
    <glyph glyph-name="ccedilla" unicode="&#xe7;" horiz-adv-x="539" 
d="M289 -14q-71 0 -122 21.5t-83 59.5t-47 87t-15 104q0 56 15 106.5t46.5 91t82 63.5t121.5 23q84 0 135.5 -31.5t72 -81.5t11.5 -108l-140 -11q2 36 -7.5 59.5t-28.5 35t-46 11.5q-24 0 -42.5 -9t-31 -27.5t-19 -46.5t-6.5 -67q0 -50 11.5 -86t35 -55t59.5 -19q37 0 56 18
t25 45.5t2 54.5l149 -7q6 -44 -4 -85.5t-38.5 -74.5t-76 -52t-115.5 -19zM155 -175l23 85q14 -9 39.5 -16t52 -10t45 2.5t18.5 21.5q0 5 -4 11t-16 10.5t-36 6.5t-65 0l10 72h100l-6 -41q36 0 62 -7t40.5 -22.5t14.5 -42.5q0 -41 -28.5 -63.5t-73 -30t-91.5 -1t-85 24.5z
" />
    <glyph glyph-name="egrave" unicode="&#xe8;" horiz-adv-x="537" 
d="M287 -14q-75 0 -125.5 21.5t-81.5 59t-44.5 85.5t-13.5 101q0 57 14.5 109t45 92.5t79 64t116.5 23.5t116.5 -23.5t77.5 -65.5t37.5 -97t-2.5 -119l-383 -6v88l259 5l-21 -51q6 46 -1.5 77.5t-27.5 48t-55 16.5q-37 0 -59 -19t-31 -53.5t-9 -81.5q0 -81 27 -118t83 -37
q24 0 40 6t26 17.5t14 28t3 37.5l148 -8q3 -33 -6.5 -68t-35.5 -65t-72.5 -49t-117.5 -19zM211 572l-96 126h180l60 -126h-144z" />
    <glyph glyph-name="eacute" unicode="&#xe9;" horiz-adv-x="537" 
d="M287 -14q-75 0 -125.5 21.5t-81.5 59t-44.5 85.5t-13.5 101q0 57 14.5 109t45 92.5t79 64t116.5 23.5t116.5 -23.5t77.5 -65.5t37.5 -97t-2.5 -119l-383 -6v88l259 5l-21 -51q6 46 -1.5 77.5t-27.5 48t-55 16.5q-37 0 -59 -19t-31 -53.5t-9 -81.5q0 -81 27 -118t83 -37
q24 0 40 6t26 17.5t14 28t3 37.5l148 -8q3 -33 -6.5 -68t-35.5 -65t-72.5 -49t-117.5 -19zM337 572h-144l60 126h180z" />
    <glyph glyph-name="ecircumflex" unicode="&#xea;" horiz-adv-x="537" 
d="M287 -14q-75 0 -125.5 21.5t-81.5 59t-44.5 85.5t-13.5 101q0 57 14.5 109t45 92.5t79 64t116.5 23.5t116.5 -23.5t77.5 -65.5t37.5 -97t-2.5 -119l-383 -6v88l259 5l-21 -51q6 46 -1.5 77.5t-27.5 48t-55 16.5q-37 0 -59 -19t-31 -53.5t-9 -81.5q0 -81 27 -118t83 -37
q24 0 40 6t26 17.5t14 28t3 37.5l148 -8q3 -33 -6.5 -68t-35.5 -65t-72.5 -49t-117.5 -19zM117 548v113l157 53l157 -53v-113l-157 52z" />
    <glyph glyph-name="edieresis" unicode="&#xeb;" horiz-adv-x="537" 
d="M287 -14q-75 0 -125.5 21.5t-81.5 59t-44.5 85.5t-13.5 101q0 57 14.5 109t45 92.5t79 64t116.5 23.5t116.5 -23.5t77.5 -65.5t37.5 -97t-2.5 -119l-383 -6v88l259 5l-21 -51q6 46 -1.5 77.5t-27.5 48t-55 16.5q-37 0 -59 -19t-31 -53.5t-9 -81.5q0 -81 27 -118t83 -37
q24 0 40 6t26 17.5t14 28t3 37.5l148 -8q3 -33 -6.5 -68t-35.5 -65t-72.5 -49t-117.5 -19zM385 574q-39 0 -60.5 15t-21.5 53t21.5 53.5t60.5 15.5q41 0 62.5 -15.5t21.5 -53.5t-21.5 -53t-62.5 -15zM158 574q-39 0 -61 15t-22 53t22 53.5t61 15.5q40 0 62 -15.5t22 -53.5
t-22 -53t-62 -15z" />
    <glyph glyph-name="igrave" unicode="&#xec;" horiz-adv-x="252" 
d="M54 0v528h162v-528h-162zM72 572l-96 126h180l60 -126h-144z" />
    <glyph glyph-name="iacute" unicode="&#xed;" horiz-adv-x="234" 
d="M36 0v528h162v-528h-162zM180 572h-144l60 126h180z" />
    <glyph glyph-name="icircumflex" unicode="&#xee;" horiz-adv-x="234" 
d="M36 0v528h162v-528h-162zM-5 548v114l122 52l121 -52v-114l-121 52z" />
    <glyph glyph-name="idieresis" unicode="&#xef;" horiz-adv-x="234" 
d="M36 0v528h162v-528h-162zM195 573q-26 0 -46 15t-20 53q0 37 20 52.5t46 15.5q29 0 48.5 -15.5t19.5 -52.5q0 -38 -19.5 -53t-48.5 -15zM37 573q-27 0 -47 15t-20 53q0 37 20 52.5t47 15.5q28 0 48 -15.5t20 -52.5q0 -38 -20 -53t-48 -15z" />
    <glyph glyph-name="eth" unicode="&#xf0;" horiz-adv-x="570" 
d="M281 -15q-62 0 -110 17t-81.5 49t-50.5 78.5t-17 105.5q0 78 25.5 131.5t70 81.5t99.5 28q38 0 72.5 -15.5t62 -53.5t44.5 -107h7q-4 38 -16 76t-35 73.5t-59.5 67t-90.5 57t-128 43.5l37 97q88 -16 154.5 -43.5t114.5 -63.5t80.5 -78t52 -87t27.5 -91t8 -90
q0 -67 -17 -119t-51 -86.5t-84 -52.5t-115 -18zM279 114q17 0 33.5 7.5t29.5 22t21 38t8 54.5v6q0 27 -8 48.5t-21.5 36t-31 22.5t-35.5 8q-29 0 -49 -17t-30 -44.5t-10 -58.5q0 -33 11.5 -61t32.5 -45t49 -17zM111 549l227 165l58 -59l-229 -166z" />
    <glyph glyph-name="ntilde" unicode="&#xf1;" horiz-adv-x="562" 
d="M36 0v299v229h137v-215h8q6 78 26 128.5t57 75.5t94 25q86 0 129.5 -57t43.5 -170v-315h-162v294q0 54 -16.5 81t-52.5 27q-30 0 -53 -21t-36 -68t-13 -126v-187h-162zM382 568q-18 0 -40.5 4.5t-44.5 11t-40.5 11t-29.5 4.5q-16 0 -19 -8.5t0 -17.5h-71q-19 34 -15.5 63
t25 47t55.5 18q18 0 39.5 -4.5t43 -10t39.5 -10t29 -4.5q16 0 18.5 8t-0.5 18h71q15 -32 13.5 -62t-19.5 -49t-54 -19z" />
    <glyph glyph-name="ograve" unicode="&#xf2;" horiz-adv-x="567" 
d="M282 -14q-76 0 -135 30.5t-92 92t-33 154.5q0 97 34.5 158.5t94 91t134.5 29.5q78 0 136.5 -30.5t91 -92t32.5 -155.5q0 -97 -34.5 -158.5t-94 -90.5t-134.5 -29zM286 105q31 0 52 17.5t32 51.5t11 81q0 52 -12 87.5t-34.5 54.5t-54.5 19q-30 0 -51 -17.5t-32 -51.5
t-11 -82q0 -76 26.5 -118t73.5 -42zM221 572l-96 126h180l60 -126h-144z" />
    <glyph glyph-name="oacute" unicode="&#xf3;" horiz-adv-x="567" 
d="M282 -14q-76 0 -135 30.5t-92 92t-33 154.5q0 97 34.5 158.5t94 91t134.5 29.5q78 0 136.5 -30.5t91 -92t32.5 -155.5q0 -97 -34.5 -158.5t-94 -90.5t-134.5 -29zM286 105q31 0 52 17.5t32 51.5t11 81q0 52 -12 87.5t-34.5 54.5t-54.5 19q-30 0 -51 -17.5t-32 -51.5
t-11 -82q0 -76 26.5 -118t73.5 -42zM347 572h-144l60 126h180z" />
    <glyph glyph-name="ocircumflex" unicode="&#xf4;" horiz-adv-x="567" 
d="M282 -14q-76 0 -135 30.5t-92 92t-33 154.5q0 97 34.5 158.5t94 91t134.5 29.5q78 0 136.5 -30.5t91 -92t32.5 -155.5q0 -97 -34.5 -158.5t-94 -90.5t-134.5 -29zM286 105q31 0 52 17.5t32 51.5t11 81q0 52 -12 87.5t-34.5 54.5t-54.5 19q-30 0 -51 -17.5t-32 -51.5
t-11 -82q0 -76 26.5 -118t73.5 -42zM127 548v113l157 53l157 -53v-113l-157 52z" />
    <glyph glyph-name="otilde" unicode="&#xf5;" horiz-adv-x="567" 
d="M282 -14q-76 0 -135 30.5t-92 92t-33 154.5q0 97 34.5 158.5t94 91t134.5 29.5q78 0 136.5 -30.5t91 -92t32.5 -155.5q0 -97 -34.5 -158.5t-94 -90.5t-134.5 -29zM286 105q31 0 52 17.5t32 51.5t11 81q0 52 -12 87.5t-34.5 54.5t-54.5 19q-30 0 -51 -17.5t-32 -51.5
t-11 -82q0 -76 26.5 -118t73.5 -42zM377 568q-18 0 -40.5 4.5t-44.5 11t-40.5 11t-29.5 4.5q-16 0 -19 -8.5t0 -17.5h-71q-19 34 -15.5 63t25 47t55.5 18q18 0 39.5 -4.5t43 -10t39.5 -10t29 -4.5q16 0 18.5 8t-0.5 18h71q15 -32 13.5 -62t-19.5 -49t-54 -19z" />
    <glyph glyph-name="odieresis" unicode="&#xf6;" horiz-adv-x="567" 
d="M282 -14q-76 0 -135 30.5t-92 92t-33 154.5q0 97 34.5 158.5t94 91t134.5 29.5q78 0 136.5 -30.5t91 -92t32.5 -155.5q0 -97 -34.5 -158.5t-94 -90.5t-134.5 -29zM286 105q31 0 52 17.5t32 51.5t11 81q0 52 -12 87.5t-34.5 54.5t-54.5 19q-30 0 -51 -17.5t-32 -51.5
t-11 -82q0 -76 26.5 -118t73.5 -42zM395 574q-39 0 -60.5 15t-21.5 53t21.5 53.5t60.5 15.5q41 0 62.5 -15.5t21.5 -53.5t-21.5 -53t-62.5 -15zM168 574q-39 0 -61 15t-22 53t22 53.5t61 15.5q40 0 62 -15.5t22 -53.5t-22 -53t-62 -15z" />
    <glyph glyph-name="divide" unicode="&#xf7;" horiz-adv-x="486" 
d="M41 251v142h404v-142h-404zM243 431q-34 0 -56.5 19.5t-22.5 56.5q0 38 22.5 58t56.5 20q35 0 57 -20t22 -58q0 -37 -22 -56.5t-57 -19.5zM243 59q-34 0 -56.5 20t-22.5 56q0 38 22.5 58t56.5 20q35 0 57 -20t22 -58q0 -36 -22.5 -56t-56.5 -20z" />
    <glyph glyph-name="oslash" unicode="&#xf8;" horiz-adv-x="567" 
d="M100 -40l282 609h89l-282 -609h-89zM282 -14q-76 0 -135 30.5t-92 92t-33 154.5q0 97 34.5 158.5t94 91t134.5 29.5q78 0 136.5 -30.5t91 -92t32.5 -155.5q0 -97 -34.5 -158.5t-94 -90.5t-134.5 -29zM286 105q31 0 52 17.5t32 51.5t11 81q0 52 -12 87.5t-34.5 54.5
t-54.5 19q-30 0 -51 -17.5t-32 -51.5t-11 -82q0 -76 26.5 -118t73.5 -42z" />
    <glyph glyph-name="ugrave" unicode="&#xf9;" horiz-adv-x="557" 
d="M200 -14q-86 0 -127.5 60t-41.5 184v298h162v-296q0 -58 16.5 -81t47.5 -23q22 0 40.5 11.5t32.5 35t21.5 60.5t7.5 89v204h162v-290v-238h-138v206h-7q-6 -77 -27 -125.5t-58 -71.5t-91 -23zM213 572l-96 126h180l60 -126h-144z" />
    <glyph glyph-name="uacute" unicode="&#xfa;" horiz-adv-x="557" 
d="M200 -14q-86 0 -127.5 60t-41.5 184v298h162v-296q0 -58 16.5 -81t47.5 -23q22 0 40.5 11.5t32.5 35t21.5 60.5t7.5 89v204h162v-290v-238h-138v206h-7q-6 -77 -27 -125.5t-58 -71.5t-91 -23zM339 572h-144l60 126h180z" />
    <glyph glyph-name="ucircumflex" unicode="&#xfb;" horiz-adv-x="557" 
d="M200 -14q-86 0 -127.5 60t-41.5 184v298h162v-296q0 -58 16.5 -81t47.5 -23q22 0 40.5 11.5t32.5 35t21.5 60.5t7.5 89v204h162v-290v-238h-138v206h-7q-6 -77 -27 -125.5t-58 -71.5t-91 -23zM119 548v113l157 53l157 -53v-113l-157 52z" />
    <glyph glyph-name="udieresis" unicode="&#xfc;" horiz-adv-x="557" 
d="M200 -14q-86 0 -127.5 60t-41.5 184v298h162v-296q0 -58 16.5 -81t47.5 -23q22 0 40.5 11.5t32.5 35t21.5 60.5t7.5 89v204h162v-290v-238h-138v206h-7q-6 -77 -27 -125.5t-58 -71.5t-91 -23zM387 574q-39 0 -60.5 15t-21.5 53t21.5 53.5t60.5 15.5q41 0 62.5 -15.5
t21.5 -53.5t-21.5 -53t-62.5 -15zM160 574q-39 0 -61 15t-22 53t22 53.5t61 15.5q40 0 62 -15.5t22 -53.5t-22 -53t-62 -15z" />
    <glyph glyph-name="yacute" unicode="&#xfd;" horiz-adv-x="539" 
d="M225 -156q-30 0 -66 5t-72 16t-67 28l37 163q36 -34 80.5 -48t79.5 -14q49 0 82.5 19.5t50.5 57t17 91.5v92h-9q-2 -70 -22.5 -114.5t-55.5 -65.5t-81 -21q-57 0 -94.5 29t-56.5 87t-19 145v214h161v-172q0 -85 18 -124t57 -39q20 0 35.5 10.5t25.5 32t15 54t5 75.5v163
h161v-372q0 -54 -11 -101.5t-33 -86t-55.5 -66.5t-79 -43t-103.5 -15zM332 572h-144l60 126h180z" />
    <glyph glyph-name="thorn" unicode="&#xfe;" horiz-adv-x="574" 
d="M36 -146v486v360h162v-172q0 -17 -3.5 -45.5t-8 -60.5t-8.5 -58h7q11 60 33 99.5t57 59t83 19.5q62 0 105.5 -31.5t66 -93t22.5 -151.5q0 -98 -25.5 -160t-69.5 -91.5t-100 -29.5q-45 0 -79.5 19t-57 58.5t-31.5 100.5h-9q3 -22 6.5 -45.5t6 -46.5t4 -45.5t1.5 -43.5
v-128h-162zM296 118q32 0 52.5 20t30 52.5t9.5 69.5q0 40 -10.5 72.5t-31 52t-50.5 19.5q-15 0 -30 -5.5t-27.5 -16.5t-22 -28.5t-15 -41t-5.5 -53.5v-6q0 -37 9 -63t24 -42t32.5 -23t34.5 -7z" />
    <glyph glyph-name="ydieresis" unicode="&#xff;" horiz-adv-x="539" 
d="M225 -156q-30 0 -66 5t-72 16t-67 28l37 163q36 -34 80.5 -48t79.5 -14q49 0 82.5 19.5t50.5 57t17 91.5v92h-9q-2 -70 -22.5 -114.5t-55.5 -65.5t-81 -21q-57 0 -94.5 29t-56.5 87t-19 145v214h161v-172q0 -85 18 -124t57 -39q20 0 35.5 10.5t25.5 32t15 54t5 75.5v163
h161v-372q0 -54 -11 -101.5t-33 -86t-55.5 -66.5t-79 -43t-103.5 -15zM380 574q-39 0 -60.5 15t-21.5 53t21.5 53.5t60.5 15.5q41 0 62.5 -15.5t21.5 -53.5t-21.5 -53t-62.5 -15zM153 574q-39 0 -61 15t-22 53t22 53.5t61 15.5q40 0 62 -15.5t22 -53.5t-22 -53t-62 -15z" />
    <glyph glyph-name="Amacron" unicode="&#x100;" horiz-adv-x="659" 
d="M4 0l221 660h210l220 -660h-175l-148 529h-6l-149 -529h-173zM129 117v114h421v-114h-421zM184 723v105h292v-105h-292z" />
    <glyph glyph-name="amacron" unicode="&#x101;" horiz-adv-x="543" 
d="M175 -14q-40 0 -76 14t-59 45.5t-23 84.5q0 49 19 79.5t51 49t70 28t75 16.5q52 10 78 16t35.5 14t9.5 22q0 29 -21.5 44t-56.5 15q-22 0 -44 -8t-36 -28.5t-13 -58.5l-144 10q-2 63 19 104.5t57.5 65t80 33.5t86.5 10q79 0 130 -29.5t75.5 -85t24.5 -134.5v-94v-66.5
v-66.5v-66h-140v73v78h-6q-4 -45 -29.5 -82.5t-67 -60t-95.5 -22.5zM242 104q17 0 36.5 6.5t37 21.5t28.5 41.5t11 65.5v24l27 3q-8 -13 -26.5 -21t-41.5 -12.5t-46.5 -9t-43.5 -12t-32.5 -20t-12.5 -34.5q0 -26 18.5 -39.5t44.5 -13.5zM137 591v105h292v-105h-292z" />
    <glyph glyph-name="Abreve" unicode="&#x102;" horiz-adv-x="659" 
d="M4 0l221 660h210l220 -660h-175l-148 529h-6l-149 -529h-173zM129 117v114h421v-114h-421zM202 830h92q-4 -19 6.5 -32t31.5 -13t30.5 13t4.5 32h91q10 -46 -6.5 -75.5t-49 -44t-72.5 -14.5t-73 14.5t-48.5 44t-6.5 75.5z" />
    <glyph glyph-name="abreve" unicode="&#x103;" horiz-adv-x="543" 
d="M175 -14q-40 0 -76 14t-59 45.5t-23 84.5q0 49 19 79.5t51 49t70 28t75 16.5q52 10 78 16t35.5 14t9.5 22q0 29 -21.5 44t-56.5 15q-22 0 -44 -8t-36 -28.5t-13 -58.5l-144 10q-2 63 19 104.5t57.5 65t80 33.5t86.5 10q79 0 130 -29.5t75.5 -85t24.5 -134.5v-94v-66.5
v-66.5v-66h-140v73v78h-6q-4 -45 -29.5 -82.5t-67 -60t-95.5 -22.5zM242 104q17 0 36.5 6.5t37 21.5t28.5 41.5t11 65.5v24l27 3q-8 -13 -26.5 -21t-41.5 -12.5t-46.5 -9t-43.5 -12t-32.5 -20t-12.5 -34.5q0 -26 18.5 -39.5t44.5 -13.5zM155 698h92q-4 -19 6.5 -32t31.5 -13
t30.5 13t4.5 32h91q10 -46 -6.5 -75.5t-49 -44t-72.5 -14.5t-73 14.5t-48.5 44t-6.5 75.5z" />
    <glyph glyph-name="Aogonek" unicode="&#x104;" horiz-adv-x="659" 
d="M4 0l221 660h210l220 -660h-175l-148 529h-6l-149 -529h-173zM129 117v114h421v-114h-421zM649 -153q-23 -12 -54 -16t-60 1.5t-48.5 22t-19.5 46.5t17.5 49.5t43 30.5t47.5 13v19l75 2v-15q-43 -7 -63.5 -22.5t-20.5 -29.5q0 -12 8.5 -17.5t21.5 -6.5t27.5 2t25.5 7v-86
z" />
    <glyph glyph-name="aogonek" unicode="&#x105;" horiz-adv-x="543" 
d="M175 -14q-40 0 -76 14t-59 45.5t-23 84.5q0 49 19 79.5t51 49t70 28t75 16.5q52 10 78 16t35.5 14t9.5 22q0 29 -21.5 44t-56.5 15q-22 0 -44 -8t-36 -28.5t-13 -58.5l-144 10q-2 63 19 104.5t57.5 65t80 33.5t86.5 10q79 0 130 -29.5t75.5 -85t24.5 -134.5v-94v-66.5
v-66.5v-66h-140v73v78h-6q-4 -45 -29.5 -82.5t-67 -60t-95.5 -22.5zM242 104q17 0 36.5 6.5t37 21.5t28.5 41.5t11 65.5v24l27 3q-8 -13 -26.5 -21t-41.5 -12.5t-46.5 -9t-43.5 -12t-32.5 -20t-12.5 -34.5q0 -26 18.5 -39.5t44.5 -13.5zM512 -153q-23 -12 -54 -16t-60 1.5
t-48.5 22t-19.5 46.5t17.5 49.5t43 30.5t47.5 13v19l75 2v-15q-43 -7 -63.5 -22.5t-20.5 -29.5q0 -12 8.5 -17.5t21.5 -6.5t27.5 2t25.5 7v-86z" />
    <glyph glyph-name="Cacute" unicode="&#x106;" horiz-adv-x="631" 
d="M341 -14q-84 0 -144 27t-98 75t-55.5 109.5t-17.5 130.5q0 71 18 134t55.5 110.5t96.5 74.5t142 27q72 0 124 -20.5t83.5 -56t43.5 -81.5t6 -96l-149 -18q2 43 -10.5 74t-38 48t-64.5 17q-33 0 -58.5 -13t-43 -39t-26.5 -64.5t-9 -89.5q0 -66 16 -114.5t49 -75t83 -26.5
q46 0 72.5 21t37.5 58t7 83l153 -13q5 -55 -7.5 -105.5t-45 -90.5t-87 -63t-133.5 -23zM382 704h-144l60 126h180z" />
    <glyph glyph-name="cacute" unicode="&#x107;" horiz-adv-x="539" 
d="M289 -14q-71 0 -122 21.5t-83 59.5t-47 87t-15 104q0 56 15 106.5t46.5 91t82 63.5t121.5 23q84 0 135.5 -31.5t72 -81.5t11.5 -108l-140 -11q2 36 -7.5 59.5t-28.5 35t-46 11.5q-24 0 -42.5 -9t-31 -27.5t-19 -46.5t-6.5 -67q0 -50 11.5 -86t35 -55t59.5 -19q37 0 56 18
t25 45.5t2 54.5l149 -7q6 -44 -4 -85.5t-38.5 -74.5t-76 -52t-115.5 -19zM337 572h-144l60 126h180z" />
    <glyph glyph-name="Cdotaccent" unicode="&#x10a;" horiz-adv-x="631" 
d="M341 -14q-84 0 -144 27t-98 75t-55.5 109.5t-17.5 130.5q0 71 18 134t55.5 110.5t96.5 74.5t142 27q72 0 124 -20.5t83.5 -56t43.5 -81.5t6 -96l-149 -18q2 43 -10.5 74t-38 48t-64.5 17q-33 0 -58.5 -13t-43 -39t-26.5 -64.5t-9 -89.5q0 -66 16 -114.5t49 -75t83 -26.5
q46 0 72.5 21t37.5 58t7 83l153 -13q5 -55 -7.5 -105.5t-45 -90.5t-87 -63t-133.5 -23zM318 698q-46 0 -70.5 19.5t-24.5 56.5q0 38 24.5 57.5t70.5 19.5q47 0 71.5 -20t24.5 -57q0 -36 -24.5 -56t-71.5 -20z" />
    <glyph glyph-name="cdotaccent" unicode="&#x10b;" horiz-adv-x="539" 
d="M289 -14q-71 0 -122 21.5t-83 59.5t-47 87t-15 104q0 56 15 106.5t46.5 91t82 63.5t121.5 23q84 0 135.5 -31.5t72 -81.5t11.5 -108l-140 -11q2 36 -7.5 59.5t-28.5 35t-46 11.5q-24 0 -42.5 -9t-31 -27.5t-19 -46.5t-6.5 -67q0 -50 11.5 -86t35 -55t59.5 -19q37 0 56 18
t25 45.5t2 54.5l149 -7q6 -44 -4 -85.5t-38.5 -74.5t-76 -52t-115.5 -19zM273 566q-46 0 -70.5 19.5t-24.5 56.5q0 38 24.5 57.5t70.5 19.5q47 0 71.5 -20t24.5 -57q0 -36 -24.5 -56t-71.5 -20z" />
    <glyph glyph-name="Ccaron" unicode="&#x10c;" horiz-adv-x="631" 
d="M341 -14q-84 0 -144 27t-98 75t-55.5 109.5t-17.5 130.5q0 71 18 134t55.5 110.5t96.5 74.5t142 27q72 0 124 -20.5t83.5 -56t43.5 -81.5t6 -96l-149 -18q2 43 -10.5 74t-38 48t-64.5 17q-33 0 -58.5 -13t-43 -39t-26.5 -64.5t-9 -89.5q0 -66 16 -114.5t49 -75t83 -26.5
q46 0 72.5 21t37.5 58t7 83l153 -13q5 -55 -7.5 -105.5t-45 -90.5t-87 -63t-133.5 -23zM162 864l157 -52l157 52v-113l-157 -53l-157 53v113z" />
    <glyph glyph-name="ccaron" unicode="&#x10d;" horiz-adv-x="539" 
d="M289 -14q-71 0 -122 21.5t-83 59.5t-47 87t-15 104q0 56 15 106.5t46.5 91t82 63.5t121.5 23q84 0 135.5 -31.5t72 -81.5t11.5 -108l-140 -11q2 36 -7.5 59.5t-28.5 35t-46 11.5q-24 0 -42.5 -9t-31 -27.5t-19 -46.5t-6.5 -67q0 -50 11.5 -86t35 -55t59.5 -19q37 0 56 18
t25 45.5t2 54.5l149 -7q6 -44 -4 -85.5t-38.5 -74.5t-76 -52t-115.5 -19zM117 732l157 -52l157 52v-113l-157 -53l-157 53v113z" />
    <glyph glyph-name="Dcaron" unicode="&#x10e;" horiz-adv-x="621" 
d="M114 0v135h171q38 0 70.5 16t52.5 57.5t20 119.5q0 56 -11 94t-31.5 60.5t-50 32.5t-67.5 10h-154v135h147q117 0 191 -39t109 -111.5t35 -173.5q0 -78 -17.5 -135t-48.5 -96t-70 -62t-83 -33t-87 -10h-176zM40 0v660h162v-660h-162zM138 864l157 -52l157 52v-113
l-157 -53l-157 53v113z" />
    <glyph glyph-name="dcaron" unicode="&#x10f;" horiz-adv-x="576" 
d="M223 -14q-57 0 -102.5 31t-72 94t-26.5 159q0 91 24 151.5t68 90.5t103 30q46 0 81.5 -19t58.5 -60t32 -107h9q-5 34 -10 67t-7.5 64t-2.5 58v155h162v-514v-186h-141v163h-7q-11 -58 -33.5 -97.5t-56 -59.5t-79.5 -20zM280 115q19 0 37 8.5t32 26.5t22.5 45t8.5 64v7
q0 30 -6 53.5t-16 40t-23 27t-27.5 15.5t-28.5 5q-31 0 -52 -21t-31 -54.5t-10 -72.5t11 -72t32 -52.5t51 -19.5zM561 555q3 24 5.5 48.5t3.5 49t1 47.5h138q0 -30 -8.5 -67.5t-25.5 -77.5h-114z" />
    <glyph glyph-name="Dcroat" unicode="&#x110;" horiz-adv-x="645" 
d="M15 412h272v-126h-272v126zM138 0v135h171q38 0 70.5 16t52.5 57.5t20 119.5q0 56 -11 94t-31.5 60.5t-50 32.5t-67.5 10h-154v135h147q117 0 191 -39t109 -111.5t35 -173.5q0 -78 -17.5 -135t-48.5 -96t-70 -62t-83 -33t-87 -10h-176zM64 0v660h162v-660h-162z" />
    <glyph glyph-name="dcroat" unicode="&#x111;" horiz-adv-x="568" 
d="M215 653h367v-89h-367v89zM223 -14q-57 0 -102.5 31t-72 94t-26.5 159q0 91 24 151.5t68 90.5t103 30q46 0 81.5 -19t58.5 -60t32 -107h9q-5 34 -10 67t-7.5 64t-2.5 58v155h162v-514v-186h-141v163h-7q-11 -58 -33.5 -97.5t-56 -59.5t-79.5 -20zM280 115q19 0 37 8.5
t32 26.5t22.5 45t8.5 64v7q0 30 -6 53.5t-16 40t-23 27t-27.5 15.5t-28.5 5q-31 0 -52 -21t-31 -54.5t-10 -72.5t11 -72t32 -52.5t51 -19.5z" />
    <glyph glyph-name="Emacron" unicode="&#x112;" horiz-adv-x="540" 
d="M40 0v660h162v-660h-162zM161 0v135h351v-135h-351zM161 272v121h305v-121h-305zM161 525v135h351v-135h-351zM131 723v105h292v-105h-292z" />
    <glyph glyph-name="emacron" unicode="&#x113;" horiz-adv-x="537" 
d="M287 -14q-75 0 -125.5 21.5t-81.5 59t-44.5 85.5t-13.5 101q0 57 14.5 109t45 92.5t79 64t116.5 23.5t116.5 -23.5t77.5 -65.5t37.5 -97t-2.5 -119l-383 -6v88l259 5l-21 -51q6 46 -1.5 77.5t-27.5 48t-55 16.5q-37 0 -59 -19t-31 -53.5t-9 -81.5q0 -81 27 -118t83 -37
q24 0 40 6t26 17.5t14 28t3 37.5l148 -8q3 -33 -6.5 -68t-35.5 -65t-72.5 -49t-117.5 -19zM128 591v105h292v-105h-292z" />
    <glyph glyph-name="Edotaccent" unicode="&#x116;" horiz-adv-x="540" 
d="M40 0v660h162v-660h-162zM161 0v135h351v-135h-351zM161 272v121h305v-121h-305zM161 525v135h351v-135h-351zM276 698q-46 0 -70.5 19.5t-24.5 56.5q0 38 24.5 57.5t70.5 19.5q47 0 71.5 -20t24.5 -57q0 -36 -24.5 -56t-71.5 -20z" />
    <glyph glyph-name="edotaccent" unicode="&#x117;" horiz-adv-x="537" 
d="M287 -14q-75 0 -125.5 21.5t-81.5 59t-44.5 85.5t-13.5 101q0 57 14.5 109t45 92.5t79 64t116.5 23.5t116.5 -23.5t77.5 -65.5t37.5 -97t-2.5 -119l-383 -6v88l259 5l-21 -51q6 46 -1.5 77.5t-27.5 48t-55 16.5q-37 0 -59 -19t-31 -53.5t-9 -81.5q0 -81 27 -118t83 -37
q24 0 40 6t26 17.5t14 28t3 37.5l148 -8q3 -33 -6.5 -68t-35.5 -65t-72.5 -49t-117.5 -19zM273 566q-46 0 -70.5 19.5t-24.5 56.5q0 38 24.5 57.5t70.5 19.5q47 0 71.5 -20t24.5 -57q0 -36 -24.5 -56t-71.5 -20z" />
    <glyph glyph-name="Eogonek" unicode="&#x118;" horiz-adv-x="540" 
d="M40 0v660h162v-660h-162zM161 0v135h351v-135h-351zM161 272v121h305v-121h-305zM161 525v135h351v-135h-351zM511 -153q-23 -12 -54 -16t-60 1.5t-48.5 22t-19.5 46.5t17.5 49.5t43 30.5t47.5 13v19l75 2v-15q-43 -7 -63.5 -22.5t-20.5 -29.5q0 -12 8.5 -17.5t21.5 -6.5
t27.5 2t25.5 7v-86z" />
    <glyph glyph-name="eogonek" unicode="&#x119;" horiz-adv-x="537" 
d="M498 -142q-24 -12 -56 -15.5t-62.5 2.5t-51 23t-20.5 46q0 21 9.5 35.5t26.5 24.5t39 15l8 55l73 24l-5 -31q-19 -16 -32 -30.5t-20 -26.5t-7 -20q0 -15 11 -20t27.5 -3.5t33 6t26.5 9.5v-94zM287 -14q-75 0 -125.5 21.5t-81.5 59t-44.5 85.5t-13.5 101q0 57 14.5 109
t45 92.5t79 64t116.5 23.5t116.5 -23.5t77.5 -65.5t37.5 -97t-2.5 -119l-383 -6v88l259 5l-21 -51q6 46 -1.5 77.5t-27.5 48t-55 16.5q-37 0 -59 -19t-31 -53.5t-9 -81.5q0 -81 27 -118t83 -37q24 0 40 6t26 17.5t14 28t3 37.5l148 -8q3 -33 -6.5 -68t-35.5 -65t-72.5 -49
t-117.5 -19z" />
    <glyph glyph-name="Ecaron" unicode="&#x11a;" horiz-adv-x="540" 
d="M40 0v660h162v-660h-162zM161 0v135h351v-135h-351zM161 272v121h305v-121h-305zM161 525v135h351v-135h-351zM120 864l157 -52l157 52v-113l-157 -53l-157 53v113z" />
    <glyph glyph-name="ecaron" unicode="&#x11b;" horiz-adv-x="537" 
d="M287 -14q-75 0 -125.5 21.5t-81.5 59t-44.5 85.5t-13.5 101q0 57 14.5 109t45 92.5t79 64t116.5 23.5t116.5 -23.5t77.5 -65.5t37.5 -97t-2.5 -119l-383 -6v88l259 5l-21 -51q6 46 -1.5 77.5t-27.5 48t-55 16.5q-37 0 -59 -19t-31 -53.5t-9 -81.5q0 -81 27 -118t83 -37
q24 0 40 6t26 17.5t14 28t3 37.5l148 -8q3 -33 -6.5 -68t-35.5 -65t-72.5 -49t-117.5 -19zM117 732l157 -52l157 52v-113l-157 -53l-157 53v113z" />
    <glyph glyph-name="Gbreve" unicode="&#x11e;" horiz-adv-x="649" 
d="M301 -14q-86 0 -147.5 43t-94 119.5t-32.5 176.5q0 74 18.5 137.5t57.5 111t99 74t143 26.5q70 0 120.5 -19t82.5 -53t45 -78.5t8 -95.5l-151 -18q2 45 -11 73.5t-38.5 42.5t-61.5 14q-43 0 -75 -23t-49.5 -69t-17.5 -115q0 -51 10 -91.5t30 -68t49.5 -42t67.5 -14.5
t65 13.5t41.5 37t14.5 54.5h-104v114h248v-124v-212h-111v178h-9q-5 -62 -29.5 -105t-67 -65t-101.5 -22zM198 830h92q-4 -19 6.5 -32t31.5 -13t30.5 13t4.5 32h91q10 -46 -6.5 -75.5t-49 -44t-72.5 -14.5t-73 14.5t-48.5 44t-6.5 75.5z" />
    <glyph glyph-name="gbreve" unicode="&#x11f;" horiz-adv-x="549" 
d="M245 -158q-89 0 -141 14t-74 38.5t-22 56.5q0 44 35 70.5t102 36.5v5q-51 0 -80 17.5t-29 48.5q0 29 26.5 52t86.5 23v7q-54 13 -86 50t-32 96q0 52 26.5 90t77.5 59.5t124 21.5h263v-124l-181 23v-8q83 -11 112.5 -37.5t29.5 -63.5t-22.5 -66t-69.5 -45.5t-119 -16.5
q-22 0 -44.5 2t-38.5 6q-17 -7 -26.5 -14.5t-9.5 -15.5q0 -5 4 -7.5t11.5 -3.5t17.5 -1h160q21 0 52.5 -2.5t63 -15t52.5 -41.5t21 -82q0 -60 -31.5 -98t-95.5 -56.5t-163 -18.5zM245 -16q67 0 99 4.5t42 12.5t10 18q0 14 -8 22t-20 11.5t-23.5 4t-18.5 0.5h-135
q-32 -11 -43.5 -20.5t-11.5 -21.5q0 -14 13.5 -20.5t38 -8.5t57.5 -2zM262 278q32 0 49.5 20t17.5 55t-18 56.5t-50 21.5q-31 0 -49.5 -21.5t-18.5 -56.5q0 -23 8 -40t23.5 -26t37.5 -9zM141 698h92q-4 -19 6.5 -32t31.5 -13t30.5 13t4.5 32h91q10 -46 -6.5 -75.5t-49 -44
t-72.5 -14.5t-73 14.5t-48.5 44t-6.5 75.5z" />
    <glyph glyph-name="Gdotaccent" unicode="&#x120;" horiz-adv-x="649" 
d="M301 -14q-86 0 -147.5 43t-94 119.5t-32.5 176.5q0 74 18.5 137.5t57.5 111t99 74t143 26.5q70 0 120.5 -19t82.5 -53t45 -78.5t8 -95.5l-151 -18q2 45 -11 73.5t-38.5 42.5t-61.5 14q-43 0 -75 -23t-49.5 -69t-17.5 -115q0 -51 10 -91.5t30 -68t49.5 -42t67.5 -14.5
t65 13.5t41.5 37t14.5 54.5h-104v114h248v-124v-212h-111v178h-9q-5 -62 -29.5 -105t-67 -65t-101.5 -22zM325 698q-46 0 -70.5 19.5t-24.5 56.5q0 38 24.5 57.5t70.5 19.5q47 0 71.5 -20t24.5 -57q0 -36 -24.5 -56t-71.5 -20z" />
    <glyph glyph-name="gdotaccent" unicode="&#x121;" horiz-adv-x="549" 
d="M245 -158q-89 0 -141 14t-74 38.5t-22 56.5q0 44 35 70.5t102 36.5v5q-51 0 -80 17.5t-29 48.5q0 29 26.5 52t86.5 23v7q-54 13 -86 50t-32 96q0 52 26.5 90t77.5 59.5t124 21.5h263v-124l-181 23v-8q83 -11 112.5 -37.5t29.5 -63.5t-22.5 -66t-69.5 -45.5t-119 -16.5
q-22 0 -44.5 2t-38.5 6q-17 -7 -26.5 -14.5t-9.5 -15.5q0 -5 4 -7.5t11.5 -3.5t17.5 -1h160q21 0 52.5 -2.5t63 -15t52.5 -41.5t21 -82q0 -60 -31.5 -98t-95.5 -56.5t-163 -18.5zM245 -16q67 0 99 4.5t42 12.5t10 18q0 14 -8 22t-20 11.5t-23.5 4t-18.5 0.5h-135
q-32 -11 -43.5 -20.5t-11.5 -21.5q0 -14 13.5 -20.5t38 -8.5t57.5 -2zM262 278q32 0 49.5 20t17.5 55t-18 56.5t-50 21.5q-31 0 -49.5 -21.5t-18.5 -56.5q0 -23 8 -40t23.5 -26t37.5 -9zM268 566q-46 0 -70.5 19.5t-24.5 56.5q0 38 24.5 57.5t70.5 19.5q47 0 71.5 -20
t24.5 -57q0 -36 -24.5 -56t-71.5 -20z" />
    <glyph glyph-name="uni0122" unicode="&#x122;" horiz-adv-x="649" 
d="M301 -14q-86 0 -147.5 43t-94 119.5t-32.5 176.5q0 74 18.5 137.5t57.5 111t99 74t143 26.5q70 0 120.5 -19t82.5 -53t45 -78.5t8 -95.5l-151 -18q2 45 -11 73.5t-38.5 42.5t-61.5 14q-43 0 -75 -23t-49.5 -69t-17.5 -115q0 -51 10 -91.5t30 -68t49.5 -42t67.5 -14.5
t65 13.5t41.5 37t14.5 54.5h-104v114h248v-124v-212h-111v178h-9q-5 -62 -29.5 -105t-67 -65t-101.5 -22zM224 -222q21 62 24.5 107t3.5 70h146q0 -56 -17.5 -102.5t-33.5 -74.5h-123z" />
    <glyph glyph-name="uni0123" unicode="&#x123;" horiz-adv-x="549" 
d="M245 -158q-89 0 -141 14t-74 38.5t-22 56.5q0 44 35 70.5t102 36.5v5q-51 0 -80 17.5t-29 48.5q0 29 26.5 52t86.5 23v7q-54 13 -86 50t-32 96q0 52 26.5 90t77.5 59.5t124 21.5h263v-124l-181 23v-8q83 -11 112.5 -37.5t29.5 -63.5t-22.5 -66t-69.5 -45.5t-119 -16.5
q-22 0 -44.5 2t-38.5 6q-17 -7 -26.5 -14.5t-9.5 -15.5q0 -5 4 -7.5t11.5 -3.5t17.5 -1h160q21 0 52.5 -2.5t63 -15t52.5 -41.5t21 -82q0 -60 -31.5 -98t-95.5 -56.5t-163 -18.5zM245 -16q67 0 99 4.5t42 12.5t10 18q0 14 -8 22t-20 11.5t-23.5 4t-18.5 0.5h-135
q-32 -11 -43.5 -20.5t-11.5 -21.5q0 -14 13.5 -20.5t38 -8.5t57.5 -2zM262 278q32 0 49.5 20t17.5 55t-18 56.5t-50 21.5q-31 0 -49.5 -21.5t-18.5 -56.5q0 -23 8 -40t23.5 -26t37.5 -9zM355 698q-12 -28 -17.5 -50.5t-7.5 -41t-2 -34.5h-147q0 20 8 44t20 46t24 36h122z
" />
    <glyph glyph-name="Hbar" unicode="&#x126;" horiz-adv-x="679" 
d="M15 578h649v-107h-649v107zM458 0v660h162v-660h-162zM63 0v660h162v-660h-162zM184 264v136h359v-136h-359z" />
    <glyph glyph-name="hbar" unicode="&#x127;" horiz-adv-x="571" 
d="M-4 653h360v-89h-360v89zM45 0v279v421h162v-132q0 -21 -2.5 -55.5t-7 -73.5t-9 -74.5t-7.5 -59.5h9q9 83 31 135.5t60 77t92 24.5q85 0 126 -60.5t41 -182.5v-299h-162v292q0 56 -15 82t-49 26q-30 0 -54 -22.5t-38.5 -71.5t-14.5 -127v-179h-162z" />
    <glyph glyph-name="Itilde" unicode="&#x128;" horiz-adv-x="243" 
d="M40 0v660h163v-660h-163zM196 700q-27 0 -46 8t-34 15.5t-32 7.5q-18 0 -21 -8.5t0 -17.5h-76q-20 34 -16 62t27 45.5t59 17.5q27 0 44.5 -7t31.5 -14.5t30 -7.5q17 0 19.5 8t-0.5 18h77q16 -32 14.5 -61.5t-20.5 -47.5t-57 -18z" />
    <glyph glyph-name="itilde" unicode="&#x129;" horiz-adv-x="234" 
d="M36 0v528h162v-528h-162zM191 568q-27 0 -46 8t-34 15.5t-32 7.5q-18 0 -21 -8.5t0 -17.5h-76q-20 34 -16 62t27 45.5t59 17.5q27 0 44.5 -7t31.5 -14.5t30 -7.5q17 0 19.5 8t-0.5 18h77q16 -32 14.5 -61.5t-20.5 -47.5t-57 -18z" />
    <glyph glyph-name="Imacron" unicode="&#x12a;" horiz-adv-x="243" 
d="M40 0v660h163v-660h-163zM3 720v110h238v-110h-238z" />
    <glyph glyph-name="imacron" unicode="&#x12b;" horiz-adv-x="234" 
d="M36 0v528h162v-528h-162zM-2 588v110h238v-110h-238z" />
    <glyph glyph-name="Iogonek" unicode="&#x12e;" horiz-adv-x="243" 
d="M40 0v660h163v-660h-163zM203 -153q-23 -12 -54 -16t-60 1.5t-48.5 22t-19.5 46.5t17.5 49.5t43 30.5t47.5 13v19l75 2v-15q-43 -7 -63.5 -22.5t-20.5 -29.5q0 -12 8.5 -17.5t21.5 -6.5t27.5 2t25.5 7v-86z" />
    <glyph glyph-name="iogonek" unicode="&#x12f;" horiz-adv-x="234" 
d="M36 0v528h162v-528h-162zM116 566q-46 0 -70.5 19.5t-24.5 56.5q0 38 24.5 57.5t70.5 19.5q47 0 71.5 -20t24.5 -57q0 -36 -24.5 -56t-71.5 -20zM197 -153q-23 -12 -54 -16t-60 1.5t-48.5 22t-19.5 46.5t17.5 49.5t43 30.5t47.5 13v19l75 2v-15q-43 -7 -63.5 -22.5
t-20.5 -29.5q0 -12 8.5 -17.5t21.5 -6.5t27.5 2t25.5 7v-86z" />
    <glyph glyph-name="Idotaccent" unicode="&#x130;" horiz-adv-x="243" 
d="M40 0v660h163v-660h-163zM121 698q-46 0 -70.5 19.5t-24.5 56.5q0 38 24.5 57.5t70.5 19.5q47 0 71.5 -20t24.5 -57q0 -36 -24.5 -56t-71.5 -20z" />
    <glyph glyph-name="dotlessi" unicode="&#x131;" horiz-adv-x="234" 
d="M36 0v528h162v-528h-162z" />
    <glyph glyph-name="IJ" unicode="&#x132;" horiz-adv-x="566" 
d="M40 0v660h163v-660h-163zM269 -6l-18 147q12 -3 23.5 -4t13.5 -1q30 0 47.5 11t24.5 35t7 62v416h162v-417q0 -84 -24 -140t-72 -84t-120 -28q-15 0 -24 1t-20 2z" />
    <glyph glyph-name="ij" unicode="&#x133;" horiz-adv-x="478" 
d="M36 0v528h162v-528h-162zM116 566q-46 0 -70.5 19.5t-24.5 56.5q0 38 24.5 57.5t70.5 19.5q47 0 71.5 -20t24.5 -57q0 -36 -24.5 -56t-71.5 -20zM276 -164q-13 0 -26.5 1.5t-27.5 3.5l-13 137q39 -2 55 11.5t16 52.5v486h162v-495q0 -54 -12.5 -91.5t-35.5 -61t-53 -34
t-65 -10.5zM360 566q-46 0 -70.5 19.5t-24.5 56.5q0 38 24.5 57.5t70.5 19.5q47 0 71.5 -20t24.5 -57q0 -36 -24.5 -56t-71.5 -20z" />
    <glyph glyph-name="uni0136" unicode="&#x136;" horiz-adv-x="623" 
d="M40 0v660h162v-282q48 16 84.5 45.5t62.5 67.5t43 81.5t26 87.5h182q-12 -57 -34.5 -107.5t-56.5 -92.5t-79 -74.5t-102 -53.5v-8q61 5 101 -7.5t65 -36.5t39.5 -54.5t24.5 -61.5l53 -164h-180l-38 147q-9 36 -25.5 58.5t-42.5 32.5t-66 10h-57v-248h-162zM213 -222
q21 62 24.5 107t3.5 70h146q0 -56 -17.5 -102.5t-33.5 -74.5h-123z" />
    <glyph glyph-name="uni0137" unicode="&#x137;" horiz-adv-x="541" 
d="M36 0v700h158v-371q34 18 58.5 41t41.5 49.5t27.5 54t17.5 54.5h186q-11 -40 -31.5 -77.5t-50.5 -70t-69.5 -58.5t-87.5 -43v-8q62 10 101.5 2.5t62.5 -28t35.5 -51.5t19.5 -69l23 -125h-175l-11 88q-4 32 -11 60t-27 45.5t-63 17.5h-47v-211h-158zM170 -222
q21 62 24.5 107t3.5 70h146q0 -56 -17.5 -102.5t-33.5 -74.5h-123z" />
    <glyph glyph-name="Lacute" unicode="&#x139;" horiz-adv-x="460" 
d="M40 0v660h162v-660h-162zM68 0v138h385v-138h-385zM184 704h-144l60 126h180z" />
    <glyph glyph-name="lacute" unicode="&#x13a;" horiz-adv-x="234" 
d="M36 0v700h162v-700h-162zM180 742h-144l60 126h180z" />
    <glyph glyph-name="uni013B" unicode="&#x13b;" horiz-adv-x="460" 
d="M40 0v660h162v-660h-162zM68 0v138h385v-138h-385zM132 -222q21 62 24.5 107t3.5 70h146q0 -56 -17.5 -102.5t-33.5 -74.5h-123z" />
    <glyph glyph-name="uni013C" unicode="&#x13c;" horiz-adv-x="234" 
d="M36 0v700h162v-700h-162zM16 -222q21 62 24.5 107t3.5 70h146q0 -56 -17.5 -102.5t-33.5 -74.5h-123z" />
    <glyph glyph-name="Lcaron" unicode="&#x13d;" horiz-adv-x="460" 
d="M40 0v660h162v-660h-162zM68 0v138h385v-138h-385zM264 515q3 24 5.5 48.5t3.5 49t1 47.5h138q0 -30 -8.5 -67.5t-25.5 -77.5h-114z" />
    <glyph glyph-name="lcaron" unicode="&#x13e;" horiz-adv-x="234" 
d="M36 0v700h162v-700h-162zM228 556q3 24 5.5 48.5t3.5 49t1 47.5h138q0 -30 -8.5 -67.5t-25.5 -77.5h-114z" />
    <glyph glyph-name="Lslash" unicode="&#x141;" horiz-adv-x="498" 
d="M30 366l329 113v-137l-329 -113v137zM78 0v660h162v-660h-162zM106 0v138h385v-138h-385z" />
    <glyph glyph-name="lslash" unicode="&#x142;" horiz-adv-x="295" 
d="M11 411l273 73v-142l-273 -73v142zM67 0v700h162v-700h-162z" />
    <glyph glyph-name="Nacute" unicode="&#x143;" horiz-adv-x="694" 
d="M40 0v660h217l235 -447h2v447h160v-660h-204l-248 462h-2v-462h-160zM410 704h-144l60 126h180z" />
    <glyph glyph-name="nacute" unicode="&#x144;" horiz-adv-x="562" 
d="M36 0v299v229h137v-215h8q6 78 26 128.5t57 75.5t94 25q86 0 129.5 -57t43.5 -170v-315h-162v294q0 54 -16.5 81t-52.5 27q-30 0 -53 -21t-36 -68t-13 -126v-187h-162zM352 572h-144l60 126h180z" />
    <glyph glyph-name="uni0145" unicode="&#x145;" horiz-adv-x="694" 
d="M40 0v660h217l235 -447h2v447h160v-660h-204l-248 462h-2v-462h-160zM246 -222q21 62 24.5 107t3.5 70h146q0 -56 -17.5 -102.5t-33.5 -74.5h-123z" />
    <glyph glyph-name="uni0146" unicode="&#x146;" horiz-adv-x="562" 
d="M36 0v299v229h137v-215h8q6 78 26 128.5t57 75.5t94 25q86 0 129.5 -57t43.5 -170v-315h-162v294q0 54 -16.5 81t-52.5 27q-30 0 -53 -21t-36 -68t-13 -126v-187h-162zM183 -222q21 62 24.5 107t3.5 70h146q0 -56 -17.5 -102.5t-33.5 -74.5h-123z" />
    <glyph glyph-name="Ncaron" unicode="&#x147;" horiz-adv-x="694" 
d="M40 0v660h217l235 -447h2v447h160v-660h-204l-248 462h-2v-462h-160zM190 864l157 -52l157 52v-113l-157 -53l-157 53v113z" />
    <glyph glyph-name="ncaron" unicode="&#x148;" horiz-adv-x="562" 
d="M36 0v299v229h137v-215h8q6 78 26 128.5t57 75.5t94 25q86 0 129.5 -57t43.5 -170v-315h-162v294q0 54 -16.5 81t-52.5 27q-30 0 -53 -21t-36 -68t-13 -126v-187h-162zM132 732l157 -52l157 52v-113l-157 -53l-157 53v113z" />
    <glyph glyph-name="Eng" unicode="&#x14a;" horiz-adv-x="694" 
d="M398 -189l-18 135q9 -3 19.5 -4.5t23.5 -1.5q21 0 37 7t25 25t9 51v40h160v-61q0 -45 -13.5 -80.5t-39.5 -61t-65.5 -39t-92.5 -13.5q-15 0 -24.5 1t-20.5 2zM40 0v660h217l235 -447h2v447h160v-660h-204l-248 462h-2v-462h-160z" />
    <glyph glyph-name="eng" unicode="&#x14b;" horiz-adv-x="562" 
d="M379 -175q-18 0 -34.5 2.5t-33.5 6.5l-13 147q39 -17 55 -7.5t16 35.5v31h162v-40q0 -64 -21 -102.5t-55.5 -55.5t-75.5 -17zM36 0v299v229h137v-215h8q6 78 26 128.5t57 75.5t94 25q86 0 129.5 -57t43.5 -170v-315h-162v294q0 54 -16.5 81t-52.5 27q-30 0 -53 -21
t-36 -68t-13 -126v-187h-162z" />
    <glyph glyph-name="Omacron" unicode="&#x14c;" horiz-adv-x="661" 
d="M328 -14q-70 0 -126 22t-95 65t-59.5 107t-20.5 147q0 118 38.5 194.5t108 114.5t160.5 38q70 0 125.5 -21.5t94.5 -64.5t59.5 -107.5t20.5 -149.5q0 -86 -21.5 -151t-62 -108t-97 -64.5t-125.5 -21.5zM334 119q45 0 74.5 22.5t44 68t14.5 114.5q0 73 -15.5 121t-46 72.5
t-76.5 24.5q-44 0 -74 -23.5t-45 -70.5t-15 -117q0 -53 8.5 -93t26 -66.5t43.5 -39.5t61 -13zM185 723v105h292v-105h-292z" />
    <glyph glyph-name="omacron" unicode="&#x14d;" horiz-adv-x="567" 
d="M282 -14q-76 0 -135 30.5t-92 92t-33 154.5q0 97 34.5 158.5t94 91t134.5 29.5q78 0 136.5 -30.5t91 -92t32.5 -155.5q0 -97 -34.5 -158.5t-94 -90.5t-134.5 -29zM286 105q31 0 52 17.5t32 51.5t11 81q0 52 -12 87.5t-34.5 54.5t-54.5 19q-30 0 -51 -17.5t-32 -51.5
t-11 -82q0 -76 26.5 -118t73.5 -42zM138 591v105h292v-105h-292z" />
    <glyph glyph-name="Ohungarumlaut" unicode="&#x150;" horiz-adv-x="661" 
d="M328 -14q-70 0 -126 22t-95 65t-59.5 107t-20.5 147q0 118 38.5 194.5t108 114.5t160.5 38q70 0 125.5 -21.5t94.5 -64.5t59.5 -107.5t20.5 -149.5q0 -86 -21.5 -151t-62 -108t-97 -64.5t-125.5 -21.5zM334 119q45 0 74.5 22.5t44 68t14.5 114.5q0 73 -15.5 121t-46 72.5
t-76.5 24.5q-44 0 -74 -23.5t-45 -70.5t-15 -117q0 -53 8.5 -93t26 -66.5t43.5 -39.5t61 -13zM286 704h-106l48 126h139zM442 704h-105l48 126h139z" />
    <glyph glyph-name="ohungarumlaut" unicode="&#x151;" horiz-adv-x="567" 
d="M282 -14q-76 0 -135 30.5t-92 92t-33 154.5q0 97 34.5 158.5t94 91t134.5 29.5q78 0 136.5 -30.5t91 -92t32.5 -155.5q0 -97 -34.5 -158.5t-94 -90.5t-134.5 -29zM286 105q31 0 52 17.5t32 51.5t11 81q0 52 -12 87.5t-34.5 54.5t-54.5 19q-30 0 -51 -17.5t-32 -51.5
t-11 -82q0 -76 26.5 -118t73.5 -42zM239 572h-106l48 126h139zM395 572h-105l48 126h139z" />
    <glyph glyph-name="OE" unicode="&#x152;" horiz-adv-x="942" 
d="M286 -18q-68 0 -127.5 37.5t-95.5 115.5t-36 197q0 116 34.5 191t92 111.5t124.5 36.5q54 0 96.5 -23.5t69 -71.5t33.5 -123h10q-2 31 -5 64t-4.5 65.5t-1.5 60.5v17h153v-660h-143v35q0 18 1 43.5t3 55.5l4 60h-9q-8 -72 -35 -119t-69 -70t-95 -23zM555 0v135h359v-135
h-359zM334 109q24 0 45.5 8.5t38.5 25.5t29 42.5t18.5 59.5t6.5 76v9q0 35 -6.5 67t-19 58t-29.5 44.5t-38 29t-45 10.5q-43 0 -74 -30t-47.5 -79t-16.5 -107t16.5 -107t47.5 -78t74 -29zM555 272v121h312v-121h-312zM555 525v135h358v-135h-358z" />
    <glyph glyph-name="oe" unicode="&#x153;" horiz-adv-x="928" 
d="M261 -14q-63 0 -117.5 30.5t-88 92.5t-33.5 158q0 95 33 156t87.5 90t120.5 29q40 0 80.5 -11.5t75 -39.5t54.5 -78h6q16 46 47.5 74.5t72.5 41.5t84 13q64 0 108.5 -24.5t71.5 -67t35.5 -98t0.5 -117.5l-366 -6v91h223q-2 44 -23 70.5t-60 26.5q-29 0 -50 -16t-32 -48.5
t-11 -82.5q0 -88 32 -128t76 -40q17 0 31.5 6t25 17.5t16 29t4.5 40.5l145 -9q4 -55 -15 -93.5t-52.5 -62t-74 -34t-81.5 -10.5q-51 0 -95.5 16.5t-75.5 51t-40 89.5h-5q-9 -53 -40.5 -88t-76 -52t-93.5 -17zM273 105q23 0 40 10t29 29t18 47t6 64q0 39 -6 69t-18 50.5
t-29 31t-40 10.5q-21 0 -37.5 -10t-27.5 -29t-17 -47.5t-6 -64.5q0 -39 6 -68.5t17 -50t27.5 -31t37.5 -10.5z" />
    <glyph glyph-name="Racute" unicode="&#x154;" horiz-adv-x="615" 
d="M40 0v660h274q44 0 83.5 -7.5t72 -22.5t56.5 -38t37 -54.5t13 -71.5q0 -31 -10.5 -58.5t-33 -49.5t-58 -36.5t-84.5 -20.5v-8q64 -3 99 -25t52.5 -55.5t26.5 -72.5l35 -140h-179l-25 131q-6 34 -18.5 55t-35.5 31t-61 10h-82v-227h-162zM202 352h94q55 0 84 21t29 64
q0 47 -27 70t-82 23h-98v-178zM343 704h-144l60 126h180z" />
    <glyph glyph-name="racute" unicode="&#x155;" horiz-adv-x="400" 
d="M36 0v287v241h140v-210h8q6 84 23.5 132.5t44 69t59.5 20.5q18 0 37.5 -5t38.5 -16l-8 -180q-22 13 -43 19.5t-40 6.5q-32 0 -54 -18t-33.5 -53t-11.5 -85v-209h-161zM257 572h-144l60 126h180z" />
    <glyph glyph-name="uni0156" unicode="&#x156;" horiz-adv-x="615" 
d="M40 0v660h274q44 0 83.5 -7.5t72 -22.5t56.5 -38t37 -54.5t13 -71.5q0 -31 -10.5 -58.5t-33 -49.5t-58 -36.5t-84.5 -20.5v-8q64 -3 99 -25t52.5 -55.5t26.5 -72.5l35 -140h-179l-25 131q-6 34 -18.5 55t-35.5 31t-61 10h-82v-227h-162zM202 352h94q55 0 84 21t29 64
q0 47 -27 70t-82 23h-98v-178zM212 -222q21 62 24.5 107t3.5 70h146q0 -56 -17.5 -102.5t-33.5 -74.5h-123z" />
    <glyph glyph-name="uni0157" unicode="&#x157;" horiz-adv-x="400" 
d="M36 0v287v241h140v-210h8q6 84 23.5 132.5t44 69t59.5 20.5q18 0 37.5 -5t38.5 -16l-8 -180q-22 13 -43 19.5t-40 6.5q-32 0 -54 -18t-33.5 -53t-11.5 -85v-209h-161zM16 -222q21 62 24.5 107t3.5 70h146q0 -56 -17.5 -102.5t-33.5 -74.5h-123z" />
    <glyph glyph-name="Rcaron" unicode="&#x158;" horiz-adv-x="615" 
d="M40 0v660h274q44 0 83.5 -7.5t72 -22.5t56.5 -38t37 -54.5t13 -71.5q0 -31 -10.5 -58.5t-33 -49.5t-58 -36.5t-84.5 -20.5v-8q64 -3 99 -25t52.5 -55.5t26.5 -72.5l35 -140h-179l-25 131q-6 34 -18.5 55t-35.5 31t-61 10h-82v-227h-162zM202 352h94q55 0 84 21t29 64
q0 47 -27 70t-82 23h-98v-178zM123 864l157 -52l157 52v-113l-157 -53l-157 53v113z" />
    <glyph glyph-name="rcaron" unicode="&#x159;" horiz-adv-x="400" 
d="M36 0v287v241h140v-210h8q6 84 23.5 132.5t44 69t59.5 20.5q18 0 37.5 -5t38.5 -16l-8 -180q-22 13 -43 19.5t-40 6.5q-32 0 -54 -18t-33.5 -53t-11.5 -85v-209h-161zM37 732l157 -52l157 52v-113l-157 -53l-157 53v113z" />
    <glyph glyph-name="Sacute" unicode="&#x15a;" horiz-adv-x="585" 
d="M299 -14q-70 0 -122.5 16t-87.5 46t-51.5 72.5t-14.5 94.5l150 33q2 -46 19.5 -74.5t47.5 -42t67 -13.5q30 0 53 7.5t36.5 21t13.5 31.5q0 24 -18 39.5t-49.5 26.5t-71.5 22q-43 12 -85.5 26.5t-77.5 36.5t-56.5 57t-21.5 87q0 64 32.5 109t90 68.5t131.5 23.5
q78 0 139 -26.5t94 -77.5t26 -125l-148 -24q1 30 -6 53t-21.5 39t-36.5 24.5t-52 8.5q-31 0 -51.5 -8t-31 -22t-10.5 -32q0 -21 16 -35t46 -24.5t71 -21.5q43 -12 86.5 -26.5t80.5 -38t59.5 -60.5t22.5 -94q0 -66 -34.5 -110t-95 -66t-139.5 -22zM354 702h-144l60 126h180z
" />
    <glyph glyph-name="sacute" unicode="&#x15b;" horiz-adv-x="517" 
d="M267 -14q-53 0 -98.5 10.5t-79 33.5t-51 61.5t-14.5 93.5l141 12q2 -33 15 -54.5t36 -31.5t56 -10q31 0 53.5 10.5t22.5 35.5q0 13 -8 21.5t-29.5 16t-62.5 17.5q-51 13 -92 26t-70 31t-44 44.5t-15 65.5q0 55 29.5 93.5t81.5 59t120 20.5q61 0 114 -19t83.5 -62
t22.5 -114l-138 -13q3 29 -8 49.5t-32 31t-51 10.5q-34 0 -52.5 -12.5t-18.5 -31.5q0 -15 11.5 -25.5t36 -18t63.5 -16.5q34 -7 71 -18t69 -29.5t52 -48.5t20 -76q0 -49 -27 -86t-79 -57t-128 -20zM314 572h-144l60 126h180z" />
    <glyph glyph-name="Scedilla" unicode="&#x15e;" horiz-adv-x="585" 
d="M299 -14q-70 0 -122.5 16t-87.5 46t-51.5 72.5t-14.5 94.5l150 33q2 -46 19.5 -74.5t47.5 -42t67 -13.5q30 0 53 7.5t36.5 21t13.5 31.5q0 24 -18 39.5t-49.5 26.5t-71.5 22q-43 12 -85.5 26.5t-77.5 36.5t-56.5 57t-21.5 87q0 64 32.5 109t90 68.5t131.5 23.5
q78 0 139 -26.5t94 -77.5t26 -125l-148 -24q1 30 -6 53t-21.5 39t-36.5 24.5t-52 8.5q-31 0 -51.5 -8t-31 -22t-10.5 -32q0 -21 16 -35t46 -24.5t71 -21.5q43 -12 86.5 -26.5t80.5 -38t59.5 -60.5t22.5 -94q0 -66 -34.5 -110t-95 -66t-139.5 -22zM166 -175l23 85
q14 -9 39.5 -16t52 -10t45 2.5t18.5 21.5q0 5 -4 11t-16 10.5t-36 6.5t-65 0l10 72h100l-6 -41q36 0 62 -7t40.5 -22.5t14.5 -42.5q0 -41 -28.5 -63.5t-73 -30t-91.5 -1t-85 24.5z" />
    <glyph glyph-name="scedilla" unicode="&#x15f;" horiz-adv-x="517" 
d="M267 -14q-53 0 -98.5 10.5t-79 33.5t-51 61.5t-14.5 93.5l141 12q2 -33 15 -54.5t36 -31.5t56 -10q31 0 53.5 10.5t22.5 35.5q0 13 -8 21.5t-29.5 16t-62.5 17.5q-51 13 -92 26t-70 31t-44 44.5t-15 65.5q0 55 29.5 93.5t81.5 59t120 20.5q61 0 114 -19t83.5 -62
t22.5 -114l-138 -13q3 29 -8 49.5t-32 31t-51 10.5q-34 0 -52.5 -12.5t-18.5 -31.5q0 -15 11.5 -25.5t36 -18t63.5 -16.5q34 -7 71 -18t69 -29.5t52 -48.5t20 -76q0 -49 -27 -86t-79 -57t-128 -20zM138 -175l23 85q14 -9 39.5 -16t52 -10t45 2.5t18.5 21.5q0 5 -4 11
t-16 10.5t-36 6.5t-65 0l10 72h100l-6 -41q36 0 62 -7t40.5 -22.5t14.5 -42.5q0 -41 -28.5 -63.5t-73 -30t-91.5 -1t-85 24.5z" />
    <glyph glyph-name="Scaron" unicode="&#x160;" horiz-adv-x="585" 
d="M299 -14q-70 0 -122.5 16t-87.5 46t-51.5 72.5t-14.5 94.5l150 33q2 -46 19.5 -74.5t47.5 -42t67 -13.5q30 0 53 7.5t36.5 21t13.5 31.5q0 24 -18 39.5t-49.5 26.5t-71.5 22q-43 12 -85.5 26.5t-77.5 36.5t-56.5 57t-21.5 87q0 64 32.5 109t90 68.5t131.5 23.5
q78 0 139 -26.5t94 -77.5t26 -125l-148 -24q1 30 -6 53t-21.5 39t-36.5 24.5t-52 8.5q-31 0 -51.5 -8t-31 -22t-10.5 -32q0 -21 16 -35t46 -24.5t71 -21.5q43 -12 86.5 -26.5t80.5 -38t59.5 -60.5t22.5 -94q0 -66 -34.5 -110t-95 -66t-139.5 -22zM134 862l157 -52l157 52
v-113l-157 -53l-157 53v113z" />
    <glyph glyph-name="scaron" unicode="&#x161;" horiz-adv-x="517" 
d="M267 -14q-53 0 -98.5 10.5t-79 33.5t-51 61.5t-14.5 93.5l141 12q2 -33 15 -54.5t36 -31.5t56 -10q31 0 53.5 10.5t22.5 35.5q0 13 -8 21.5t-29.5 16t-62.5 17.5q-51 13 -92 26t-70 31t-44 44.5t-15 65.5q0 55 29.5 93.5t81.5 59t120 20.5q61 0 114 -19t83.5 -62
t22.5 -114l-138 -13q3 29 -8 49.5t-32 31t-51 10.5q-34 0 -52.5 -12.5t-18.5 -31.5q0 -15 11.5 -25.5t36 -18t63.5 -16.5q34 -7 71 -18t69 -29.5t52 -48.5t20 -76q0 -49 -27 -86t-79 -57t-128 -20zM94 732l157 -52l157 52v-113l-157 -53l-157 53v113z" />
    <glyph glyph-name="Tcaron" unicode="&#x164;" horiz-adv-x="516" 
d="M177 0v660h162v-660h-162zM14 522v138h488v-138h-488zM101 864l157 -52l157 52v-113l-157 -53l-157 53v113z" />
    <glyph glyph-name="tcaron" unicode="&#x165;" horiz-adv-x="368" 
d="M247 -12q-93 0 -138.5 47.5t-45.5 147.5v219h-58v102h3q62 8 88 41.5t32 101.5v2h95v-121h121v-130h-121v-200q0 -38 18.5 -54t45.5 -16q14 0 29 4t28 11v-141q-31 -9 -55 -11.5t-42 -2.5zM246 553q3 24 5.5 48.5t3.5 49t1 47.5h138q0 -30 -8.5 -67.5t-25.5 -77.5h-114z
" />
    <glyph glyph-name="Utilde" unicode="&#x168;" horiz-adv-x="627" 
d="M313 -14q-57 0 -102 13t-77.5 37t-54 57.5t-32 75.5t-10.5 91v400h162v-392q0 -51 15 -81.5t40.5 -43.5t58.5 -13q34 0 59.5 13t40.5 43t15 82v392h162v-400q0 -130 -70 -202t-207 -72zM406 700q-18 0 -40.5 4.5t-44.5 11t-40.5 11t-29.5 4.5q-16 0 -19 -8.5t0 -17.5h-71
q-19 34 -15.5 63t25 47t55.5 18q18 0 39.5 -4.5t43 -10t39.5 -10t29 -4.5q16 0 18.5 8t-0.5 18h71q15 -32 13.5 -62t-19.5 -49t-54 -19z" />
    <glyph glyph-name="utilde" unicode="&#x169;" horiz-adv-x="557" 
d="M200 -14q-86 0 -127.5 60t-41.5 184v298h162v-296q0 -58 16.5 -81t47.5 -23q22 0 40.5 11.5t32.5 35t21.5 60.5t7.5 89v204h162v-290v-238h-138v206h-7q-6 -77 -27 -125.5t-58 -71.5t-91 -23zM369 568q-18 0 -40.5 4.5t-44.5 11t-40.5 11t-29.5 4.5q-16 0 -19 -8.5
t0 -17.5h-71q-19 34 -15.5 63t25 47t55.5 18q18 0 39.5 -4.5t43 -10t39.5 -10t29 -4.5q16 0 18.5 8t-0.5 18h71q15 -32 13.5 -62t-19.5 -49t-54 -19z" />
    <glyph glyph-name="Umacron" unicode="&#x16a;" horiz-adv-x="627" 
d="M313 -14q-57 0 -102 13t-77.5 37t-54 57.5t-32 75.5t-10.5 91v400h162v-392q0 -51 15 -81.5t40.5 -43.5t58.5 -13q34 0 59.5 13t40.5 43t15 82v392h162v-400q0 -130 -70 -202t-207 -72zM167 723v105h292v-105h-292z" />
    <glyph glyph-name="umacron" unicode="&#x16b;" horiz-adv-x="557" 
d="M200 -14q-86 0 -127.5 60t-41.5 184v298h162v-296q0 -58 16.5 -81t47.5 -23q22 0 40.5 11.5t32.5 35t21.5 60.5t7.5 89v204h162v-290v-238h-138v206h-7q-6 -77 -27 -125.5t-58 -71.5t-91 -23zM130 591v105h292v-105h-292z" />
    <glyph glyph-name="Ubreve" unicode="&#x16c;" horiz-adv-x="627" 
d="M313 -14q-57 0 -102 13t-77.5 37t-54 57.5t-32 75.5t-10.5 91v400h162v-392q0 -51 15 -81.5t40.5 -43.5t58.5 -13q34 0 59.5 13t40.5 43t15 82v392h162v-400q0 -130 -70 -202t-207 -72zM185 830h92q-4 -19 6.5 -32t31.5 -13t30.5 13t4.5 32h91q10 -46 -6.5 -75.5t-49 -44
t-72.5 -14.5t-73 14.5t-48.5 44t-6.5 75.5z" />
    <glyph glyph-name="ubreve" unicode="&#x16d;" horiz-adv-x="557" 
d="M200 -14q-86 0 -127.5 60t-41.5 184v298h162v-296q0 -58 16.5 -81t47.5 -23q22 0 40.5 11.5t32.5 35t21.5 60.5t7.5 89v204h162v-290v-238h-138v206h-7q-6 -77 -27 -125.5t-58 -71.5t-91 -23zM148 698h92q-4 -19 6.5 -32t31.5 -13t30.5 13t4.5 32h91q10 -46 -6.5 -75.5
t-49 -44t-72.5 -14.5t-73 14.5t-48.5 44t-6.5 75.5z" />
    <glyph glyph-name="Uring" unicode="&#x16e;" horiz-adv-x="627" 
d="M313 -14q-57 0 -102 13t-77.5 37t-54 57.5t-32 75.5t-10.5 91v400h162v-392q0 -51 15 -81.5t40.5 -43.5t58.5 -13q34 0 59.5 13t40.5 43t15 82v392h162v-400q0 -130 -70 -202t-207 -72zM313 698q-38 0 -69 22.5t-31 65.5q0 44 30 65.5t70 21.5q38 0 68.5 -21.5
t30.5 -65.5t-31 -66t-68 -22zM314 760q10 0 18 6t8 19q0 12 -8.5 19.5t-19.5 7.5t-18.5 -7t-7.5 -19q0 -13 8.5 -19.5t19.5 -6.5z" />
    <glyph glyph-name="uring" unicode="&#x16f;" horiz-adv-x="557" 
d="M200 -14q-86 0 -127.5 60t-41.5 184v298h162v-296q0 -58 16.5 -81t47.5 -23q22 0 40.5 11.5t32.5 35t21.5 60.5t7.5 89v204h162v-290v-238h-138v206h-7q-6 -77 -27 -125.5t-58 -71.5t-91 -23zM276 566q-38 0 -69 22.5t-31 65.5q0 44 30 65.5t70 21.5q38 0 68.5 -21.5
t30.5 -65.5t-31 -66t-68 -22zM277 628q10 0 18 6t8 19q0 12 -8.5 19.5t-19.5 7.5t-18.5 -7t-7.5 -19q0 -13 8.5 -19.5t19.5 -6.5z" />
    <glyph glyph-name="Uhungarumlaut" unicode="&#x170;" horiz-adv-x="627" 
d="M313 -14q-57 0 -102 13t-77.5 37t-54 57.5t-32 75.5t-10.5 91v400h162v-392q0 -51 15 -81.5t40.5 -43.5t58.5 -13q34 0 59.5 13t40.5 43t15 82v392h162v-400q0 -130 -70 -202t-207 -72zM268 704h-106l48 126h139zM424 704h-105l48 126h139z" />
    <glyph glyph-name="uhungarumlaut" unicode="&#x171;" horiz-adv-x="557" 
d="M200 -14q-86 0 -127.5 60t-41.5 184v298h162v-296q0 -58 16.5 -81t47.5 -23q22 0 40.5 11.5t32.5 35t21.5 60.5t7.5 89v204h162v-290v-238h-138v206h-7q-6 -77 -27 -125.5t-58 -71.5t-91 -23zM231 572h-106l48 126h139zM387 572h-105l48 126h139z" />
    <glyph glyph-name="Uogonek" unicode="&#x172;" horiz-adv-x="627" 
d="M397 -164q-23 -12 -54 -16t-60 1.5t-48.5 22.5t-19.5 47t17.5 47.5t42.5 26t47 11.5v21l76 9v-14q-44 -15 -64.5 -27.5t-20.5 -26.5q0 -12 8.5 -17.5t22 -6.5t28 1.5t25.5 6.5v-86zM313 -14q-57 0 -102 13t-77.5 37t-54 57.5t-32 75.5t-10.5 91v400h162v-392
q0 -51 15 -81.5t40.5 -43.5t58.5 -13q34 0 59.5 13t40.5 43t15 82v392h162v-400q0 -130 -70 -202t-207 -72z" />
    <glyph glyph-name="uogonek" unicode="&#x173;" horiz-adv-x="557" 
d="M200 -14q-86 0 -127.5 60t-41.5 184v298h162v-296q0 -58 16.5 -81t47.5 -23q22 0 40.5 11.5t32.5 35t21.5 60.5t7.5 89v204h162v-290v-238h-138v206h-7q-6 -77 -27 -125.5t-58 -71.5t-91 -23zM520 -153q-23 -12 -54 -16t-60 1.5t-48.5 22t-19.5 46.5t17.5 49.5t43 30.5
t47.5 13v19l75 2v-15q-43 -7 -63.5 -22.5t-20.5 -29.5q0 -12 8.5 -17.5t21.5 -6.5t27.5 2t25.5 7v-86z" />
    <glyph glyph-name="Wcircumflex" unicode="&#x174;" horiz-adv-x="915" 
d="M146 0l-134 660h175l81 -506h3l95 506h191l98 -506h3l79 506h166l-134 -660h-226l-84 496h-3l-86 -496h-224zM302 680v113l157 53l157 -53v-113l-157 52z" />
    <glyph glyph-name="wcircumflex" unicode="&#x175;" horiz-adv-x="799" 
d="M133 0l-125 528h172l61 -392h5l68 392h179l66 -392h5l66 392h161l-123 -528h-211l-54 356h-5l-56 -356h-209zM246 548v113l157 53l157 -53v-113l-157 52z" />
    <glyph glyph-name="Ycircumflex" unicode="&#x176;" horiz-adv-x="595" 
d="M217 0v220l-215 440h192l104 -294h2l103 294h190l-214 -440v-220h-162zM141 680v113l157 53l157 -53v-113l-157 52z" />
    <glyph glyph-name="ycircumflex" unicode="&#x177;" horiz-adv-x="539" 
d="M225 -156q-30 0 -66 5t-72 16t-67 28l37 163q36 -34 80.5 -48t79.5 -14q49 0 82.5 19.5t50.5 57t17 91.5v92h-9q-2 -70 -22.5 -114.5t-55.5 -65.5t-81 -21q-57 0 -94.5 29t-56.5 87t-19 145v214h161v-172q0 -85 18 -124t57 -39q20 0 35.5 10.5t25.5 32t15 54t5 75.5v163
h161v-372q0 -54 -11 -101.5t-33 -86t-55.5 -66.5t-79 -43t-103.5 -15zM112 548v113l157 53l157 -53v-113l-157 52z" />
    <glyph glyph-name="Ydieresis" unicode="&#x178;" horiz-adv-x="595" 
d="M217 0v220l-215 440h192l104 -294h2l103 294h190l-214 -440v-220h-162zM409 706q-39 0 -60.5 15t-21.5 53t21.5 53.5t60.5 15.5q41 0 62.5 -15.5t21.5 -53.5t-21.5 -53t-62.5 -15zM182 706q-39 0 -61 15t-22 53t22 53.5t61 15.5q40 0 62 -15.5t22 -53.5t-22 -53t-62 -15z
" />
    <glyph glyph-name="Zacute" unicode="&#x179;" horiz-adv-x="550" 
d="M23 0v138l312 381v3h-312v138h499v-139l-311 -380v-3h316v-138h-504zM338 704h-144l60 126h180z" />
    <glyph glyph-name="zacute" unicode="&#x17a;" horiz-adv-x="483" 
d="M20 0v136l251 256v6h-246v130h435v-137l-251 -257v-4h254v-130h-443zM300 572h-144l60 126h180z" />
    <glyph glyph-name="Zdotaccent" unicode="&#x17b;" horiz-adv-x="550" 
d="M23 0v138l312 381v3h-312v138h499v-139l-311 -380v-3h316v-138h-504zM274 698q-46 0 -70.5 19.5t-24.5 56.5q0 38 24.5 57.5t70.5 19.5q47 0 71.5 -20t24.5 -57q0 -36 -24.5 -56t-71.5 -20z" />
    <glyph glyph-name="zdotaccent" unicode="&#x17c;" horiz-adv-x="483" 
d="M20 0v136l251 256v6h-246v130h435v-137l-251 -257v-4h254v-130h-443zM236 566q-46 0 -70.5 19.5t-24.5 56.5q0 38 24.5 57.5t70.5 19.5q47 0 71.5 -20t24.5 -57q0 -36 -24.5 -56t-71.5 -20z" />
    <glyph glyph-name="Zcaron" unicode="&#x17d;" horiz-adv-x="550" 
d="M23 0v138l312 381v3h-312v138h499v-139l-311 -380v-3h316v-138h-504zM118 864l157 -52l157 52v-113l-157 -53l-157 53v113z" />
    <glyph glyph-name="zcaron" unicode="&#x17e;" horiz-adv-x="483" 
d="M20 0v136l251 256v6h-246v130h435v-137l-251 -257v-4h254v-130h-443zM80 732l157 -52l157 52v-113l-157 -53l-157 53v113z" />
    <glyph glyph-name="Ohorn" unicode="&#x1a0;" horiz-adv-x="669" 
d="M507 630l-33 -14l-53 41q48 0 70 13t27.5 34t1.5 44h116q11 -46 2 -81.5t-41 -47.5t-90 11zM328 -14q-70 0 -126 22t-95 65t-59.5 107t-20.5 147q0 118 38.5 194.5t108 114.5t160.5 38q70 0 125.5 -21.5t94.5 -64.5t59.5 -107.5t20.5 -149.5q0 -86 -21.5 -151t-62 -108
t-97 -64.5t-125.5 -21.5zM334 119q45 0 74.5 22.5t44 68t14.5 114.5q0 73 -15.5 121t-46 72.5t-76.5 24.5q-44 0 -74 -23.5t-45 -70.5t-15 -117q0 -53 8.5 -93t26 -66.5t43.5 -39.5t61 -13z" />
    <glyph glyph-name="ohorn" unicode="&#x1a1;" horiz-adv-x="614" 
d="M447 500l-32 -14l-54 41q48 0 70 12.5t27.5 33.5t1.5 44h116q11 -46 2 -81t-40.5 -47t-90.5 11zM282 -14q-76 0 -135 30.5t-92 92t-33 154.5q0 97 34.5 158.5t94 91t134.5 29.5q78 0 136.5 -30.5t91 -92t32.5 -155.5q0 -97 -34.5 -158.5t-94 -90.5t-134.5 -29zM286 105
q31 0 52 17.5t32 51.5t11 81q0 52 -12 87.5t-34.5 54.5t-54.5 19q-30 0 -51 -17.5t-32 -51.5t-11 -82q0 -76 26.5 -118t73.5 -42z" />
    <glyph glyph-name="Uhorn" unicode="&#x1af;" horiz-adv-x="627" 
d="M313 -14q-57 0 -102 13t-77.5 37t-54 57.5t-32 75.5t-10.5 91v400h162v-392q0 -51 15 -81.5t40.5 -43.5t58.5 -13q34 0 59.5 13t40.5 43t15 82v392h162v-400q0 -130 -70 -202t-207 -72zM591 628l-99 6l2 26q31 0 47.5 8.5t23 23t6.5 31.5t-3 35h127q15 -64 -0.5 -98
t-45 -41t-58.5 9z" />
    <glyph glyph-name="uhorn" unicode="&#x1b0;" horiz-adv-x="608" 
d="M200 -14q-86 0 -127.5 60t-41.5 184v298h162v-296q0 -58 16.5 -81t47.5 -23q22 0 40.5 11.5t32.5 35t21.5 60.5t7.5 89v204h162v-290v-238h-138v206h-7q-6 -77 -27 -125.5t-58 -71.5t-91 -23zM522 496l-99 6l2 26q31 0 47.5 8.5t23 23t6.5 31.5t-3 35h127
q15 -64 -0.5 -98t-45 -41t-58.5 9z" />
    <glyph glyph-name="uni01CD" unicode="&#x1cd;" horiz-adv-x="659" 
d="M4 0l221 660h210l220 -660h-175l-148 529h-6l-149 -529h-173zM129 117v114h421v-114h-421zM173 864l157 -52l157 52v-113l-157 -53l-157 53v113z" />
    <glyph glyph-name="uni01CE" unicode="&#x1ce;" horiz-adv-x="543" 
d="M175 -14q-40 0 -76 14t-59 45.5t-23 84.5q0 49 19 79.5t51 49t70 28t75 16.5q52 10 78 16t35.5 14t9.5 22q0 29 -21.5 44t-56.5 15q-22 0 -44 -8t-36 -28.5t-13 -58.5l-144 10q-2 63 19 104.5t57.5 65t80 33.5t86.5 10q79 0 130 -29.5t75.5 -85t24.5 -134.5v-94v-66.5
v-66.5v-66h-140v73v78h-6q-4 -45 -29.5 -82.5t-67 -60t-95.5 -22.5zM242 104q17 0 36.5 6.5t37 21.5t28.5 41.5t11 65.5v24l27 3q-8 -13 -26.5 -21t-41.5 -12.5t-46.5 -9t-43.5 -12t-32.5 -20t-12.5 -34.5q0 -26 18.5 -39.5t44.5 -13.5zM126 732l157 -52l157 52v-113
l-157 -53l-157 53v113z" />
    <glyph glyph-name="uni0218" unicode="&#x218;" horiz-adv-x="585" 
d="M299 -14q-70 0 -122.5 16t-87.5 46t-51.5 72.5t-14.5 94.5l150 33q2 -46 19.5 -74.5t47.5 -42t67 -13.5q30 0 53 7.5t36.5 21t13.5 31.5q0 24 -18 39.5t-49.5 26.5t-71.5 22q-43 12 -85.5 26.5t-77.5 36.5t-56.5 57t-21.5 87q0 64 32.5 109t90 68.5t131.5 23.5
q78 0 139 -26.5t94 -77.5t26 -125l-148 -24q1 30 -6 53t-21.5 39t-36.5 24.5t-52 8.5q-31 0 -51.5 -8t-31 -22t-10.5 -32q0 -21 16 -35t46 -24.5t71 -21.5q43 -12 86.5 -26.5t80.5 -38t59.5 -60.5t22.5 -94q0 -66 -34.5 -110t-95 -66t-139.5 -22zM194 -222q21 62 24.5 107
t3.5 70h146q0 -56 -17.5 -102.5t-33.5 -74.5h-123z" />
    <glyph glyph-name="uni0219" unicode="&#x219;" horiz-adv-x="517" 
d="M267 -14q-53 0 -98.5 10.5t-79 33.5t-51 61.5t-14.5 93.5l141 12q2 -33 15 -54.5t36 -31.5t56 -10q31 0 53.5 10.5t22.5 35.5q0 13 -8 21.5t-29.5 16t-62.5 17.5q-51 13 -92 26t-70 31t-44 44.5t-15 65.5q0 55 29.5 93.5t81.5 59t120 20.5q61 0 114 -19t83.5 -62
t22.5 -114l-138 -13q3 29 -8 49.5t-32 31t-51 10.5q-34 0 -52.5 -12.5t-18.5 -31.5q0 -15 11.5 -25.5t36 -18t63.5 -16.5q34 -7 71 -18t69 -29.5t52 -48.5t20 -76q0 -49 -27 -86t-79 -57t-128 -20zM166 -222q21 62 24.5 107t3.5 70h146q0 -56 -17.5 -102.5t-33.5 -74.5h-123
z" />
    <glyph glyph-name="uni021A" unicode="&#x21a;" horiz-adv-x="516" 
d="M177 0v660h162v-660h-162zM14 522v138h488v-138h-488zM157 -222q21 62 24.5 107t3.5 70h146q0 -56 -17.5 -102.5t-33.5 -74.5h-123z" />
    <glyph glyph-name="uni021B" unicode="&#x21b;" horiz-adv-x="368" 
d="M247 -12q-93 0 -138.5 47.5t-45.5 147.5v219h-58v102h3q62 8 88 41.5t32 101.5v2h95v-121h121v-130h-121v-200q0 -38 18.5 -54t45.5 -16q14 0 29 4t28 11v-141q-31 -9 -55 -11.5t-42 -2.5zM110 -222q21 62 24.5 107t3.5 70h146q0 -56 -17.5 -102.5t-33.5 -74.5h-123z" />
    <glyph glyph-name="uni0237" unicode="&#x237;" horiz-adv-x="244" 
d="M42 -164q-13 0 -26.5 1.5t-27.5 3.5l-13 137q39 -2 55 11.5t16 52.5v486h162v-495q0 -54 -12.5 -91.5t-35.5 -61t-53 -34t-65 -10.5z" />
    <glyph glyph-name="circumflex" unicode="&#x2c6;" horiz-adv-x="354" 
d="M20 548v113l157 53l157 -53v-113l-157 52z" />
    <glyph glyph-name="caron" unicode="&#x2c7;" horiz-adv-x="354" 
d="M20 731l157 -52l157 52v-113l-157 -53l-157 53v113z" />
    <glyph glyph-name="breve" unicode="&#x2d8;" horiz-adv-x="275" 
d="M23 697h92q-4 -19 6.5 -32t31.5 -13t30.5 13t4.5 32h91q10 -46 -6.5 -75.5t-49 -44t-72.5 -14.5t-73 14.5t-48.5 44t-6.5 75.5z" />
    <glyph glyph-name="dotaccent" unicode="&#x2d9;" horiz-adv-x="231" 
d="M115 565q-46 0 -70.5 19.5t-24.5 56.5q0 38 24.5 57.5t70.5 19.5q47 0 71.5 -20t24.5 -57q0 -36 -24.5 -56t-71.5 -20z" />
    <glyph glyph-name="ring" unicode="&#x2da;" horiz-adv-x="239" 
d="M120 562q-38 0 -69 22.5t-31 65.5q0 44 30 65.5t70 21.5q38 0 68.5 -21.5t30.5 -65.5t-31 -66t-68 -22zM121 624q10 0 18 6t8 19q0 12 -8.5 19.5t-19.5 7.5t-18.5 -7t-7.5 -19q0 -13 8.5 -19.5t19.5 -6.5z" />
    <glyph glyph-name="ogonek" unicode="&#x2db;" horiz-adv-x="215" 
d="M202 -153q-23 -12 -54 -16t-60 1.5t-48.5 22t-19.5 46.5t17.5 49.5t43 30.5t47.5 13v19l75 2v-15q-43 -7 -63.5 -22.5t-20.5 -29.5q0 -12 8.5 -17.5t21.5 -6.5t27.5 2t25.5 7v-86z" />
    <glyph glyph-name="tilde" unicode="&#x2dc;" horiz-adv-x="374" 
d="M281 567q-18 0 -40.5 4.5t-44.5 11t-40.5 11t-29.5 4.5q-16 0 -19 -8.5t0 -17.5h-71q-19 34 -15.5 63t25 47t55.5 18q18 0 39.5 -4.5t43 -10t39.5 -10t29 -4.5q16 0 18.5 8t-0.5 18h71q15 -32 13.5 -62t-19.5 -49t-54 -19z" />
    <glyph glyph-name="hungarumlaut" unicode="&#x2dd;" horiz-adv-x="376" 
d="M126 571h-106l48 126h139zM282 571h-105l48 126h139z" />
    <glyph glyph-name="gravecomb" unicode="&#x300;" 
d="M116 571l-96 126h180l60 -126h-144z" />
    <glyph glyph-name="acutecomb" unicode="&#x301;" 
d="M164 571h-144l60 126h180z" />
    <glyph glyph-name="uni0302" unicode="&#x302;" 
d="M20 548v113l157 53l157 -53v-113l-157 52z" />
    <glyph glyph-name="tildecomb" unicode="&#x303;" 
d="M281 567q-18 0 -40.5 4.5t-44.5 11t-40.5 11t-29.5 4.5q-16 0 -19 -8.5t0 -17.5h-71q-19 34 -15.5 63t25 47t55.5 18q18 0 39.5 -4.5t43 -10t39.5 -10t29 -4.5q16 0 18.5 8t-0.5 18h71q15 -32 13.5 -62t-19.5 -49t-54 -19z" />
    <glyph glyph-name="uni0304" unicode="&#x304;" 
d="M20 590v105h292v-105h-292z" />
    <glyph glyph-name="uni0306" unicode="&#x306;" 
d="M23 697h92q-4 -19 6.5 -32t31.5 -13t30.5 13t4.5 32h91q10 -46 -6.5 -75.5t-49 -44t-72.5 -14.5t-73 14.5t-48.5 44t-6.5 75.5z" />
    <glyph glyph-name="uni0307" unicode="&#x307;" 
d="M115 565q-46 0 -70.5 19.5t-24.5 56.5q0 38 24.5 57.5t70.5 19.5q47 0 71.5 -20t24.5 -57q0 -36 -24.5 -56t-71.5 -20z" />
    <glyph glyph-name="uni0308" unicode="&#x308;" 
d="M330 573q-39 0 -60.5 15t-21.5 53t21.5 53.5t60.5 15.5q41 0 62.5 -15.5t21.5 -53.5t-21.5 -53t-62.5 -15zM103 573q-39 0 -61 15t-22 53t22 53.5t61 15.5q40 0 62 -15.5t22 -53.5t-22 -53t-62 -15z" />
    <glyph glyph-name="hookabovecomb" unicode="&#x309;" 
d="M63 570q-5 25 3.5 39t22.5 22.5t25 15.5t11 17q0 9 -11.5 12t-28 1.5t-33.5 -6.5t-28 -12l-4 71q27 17 61 22.5t66 -0.5t53 -25.5t21 -53.5q0 -28 -12 -41.5t-27.5 -20.5t-26 -15t-7.5 -26h-85z" />
    <glyph glyph-name="uni030A" unicode="&#x30a;" 
d="M120 562q-38 0 -69 22.5t-31 65.5q0 44 30 65.5t70 21.5q38 0 68.5 -21.5t30.5 -65.5t-31 -66t-68 -22zM121 624q10 0 18 6t8 19q0 12 -8.5 19.5t-19.5 7.5t-18.5 -7t-7.5 -19q0 -13 8.5 -19.5t19.5 -6.5z" />
    <glyph glyph-name="uni030B" unicode="&#x30b;" 
d="M126 571h-106l48 126h139zM282 571h-105l48 126h139z" />
    <glyph glyph-name="uni030C" unicode="&#x30c;" 
d="M20 731l157 -52l157 52v-113l-157 -53l-157 53v113z" />
    <glyph glyph-name="uni0312" unicode="&#x312;" 
d="M194 697q-12 -28 -17.5 -50.5t-7.5 -41t-2 -34.5h-147q0 20 8 44t20 46t24 36h122z" />
    <glyph glyph-name="uni031B" unicode="&#x31b;" 
d="M119 495l-99 6l2 26q31 0 47.5 8.5t23 23t6.5 31.5t-3 35h127q15 -64 -0.5 -98t-45 -41t-58.5 9z" />
    <glyph glyph-name="dotbelowcomb" unicode="&#x323;" 
d="M115 -192q-46 0 -70.5 19.5t-24.5 56.5q0 38 24.5 57.5t70.5 19.5q47 0 71.5 -20t24.5 -57q0 -36 -24.5 -56t-71.5 -20z" />
    <glyph glyph-name="uni0326" unicode="&#x326;" 
d="M20 -222q21 62 24.5 107t3.5 70h146q0 -56 -17.5 -102.5t-33.5 -74.5h-123z" />
    <glyph glyph-name="uni0327" unicode="&#x327;" 
d="M20 -175l23 85q14 -9 39.5 -16t52 -10t45 2.5t18.5 21.5q0 5 -4 11t-16 10.5t-36 6.5t-65 0l10 72h100l-6 -41q36 0 62 -7t40.5 -22.5t14.5 -42.5q0 -41 -28.5 -63.5t-73 -30t-91.5 -1t-85 24.5z" />
    <glyph glyph-name="uni0328" unicode="&#x328;" 
d="M202 -153q-23 -12 -54 -16t-60 1.5t-48.5 22t-19.5 46.5t17.5 49.5t43 30.5t47.5 13v19l75 2v-15q-43 -7 -63.5 -22.5t-20.5 -29.5q0 -12 8.5 -17.5t21.5 -6.5t27.5 2t25.5 7v-86z" />
    <glyph glyph-name="pi" unicode="&#x3c0;" horiz-adv-x="638" 
d="M84 0v483h160v-483h-160zM394 0v483h160v-483h-160zM14 398v130h610v-130h-610z" />
    <glyph glyph-name="uni0E3F" unicode="&#xe3f;" horiz-adv-x="597" 
d="M227 642l-16 122h147l-17 -122h-114zM211 -107l16 121h114l17 -121h-147zM40 6v647h261q59 0 106 -10.5t80 -32t50 -53t17 -73.5q0 -39 -16.5 -70t-52 -50.5t-93.5 -24.5v-9q99 -5 143.5 -46t44.5 -108q0 -57 -29 -94.5t-86 -56.5t-140 -19h-285zM199 133h120q50 0 77 18
t27 52q0 37 -30.5 55t-92.5 18h-101v-143zM199 384h85q56 0 85.5 18.5t29.5 55.5q0 34 -26.5 51t-79.5 17h-94v-142z" />
    <glyph glyph-name="Wgrave" unicode="&#x1e80;" horiz-adv-x="915" 
d="M146 0l-134 660h175l81 -506h3l95 506h191l98 -506h3l79 506h166l-134 -660h-226l-84 496h-3l-86 -496h-224zM396 704l-96 126h180l60 -126h-144z" />
    <glyph glyph-name="wgrave" unicode="&#x1e81;" horiz-adv-x="799" 
d="M133 0l-125 528h172l61 -392h5l68 392h179l66 -392h5l66 392h161l-123 -528h-211l-54 356h-5l-56 -356h-209zM340 572l-96 126h180l60 -126h-144z" />
    <glyph glyph-name="Wacute" unicode="&#x1e82;" horiz-adv-x="915" 
d="M146 0l-134 660h175l81 -506h3l95 506h191l98 -506h3l79 506h166l-134 -660h-226l-84 496h-3l-86 -496h-224zM522 704h-144l60 126h180z" />
    <glyph glyph-name="wacute" unicode="&#x1e83;" horiz-adv-x="799" 
d="M133 0l-125 528h172l61 -392h5l68 392h179l66 -392h5l66 392h161l-123 -528h-211l-54 356h-5l-56 -356h-209zM466 572h-144l60 126h180z" />
    <glyph glyph-name="Wdieresis" unicode="&#x1e84;" horiz-adv-x="915" 
d="M146 0l-134 660h175l81 -506h3l95 506h191l98 -506h3l79 506h166l-134 -660h-226l-84 496h-3l-86 -496h-224zM570 706q-39 0 -60.5 15t-21.5 53t21.5 53.5t60.5 15.5q41 0 62.5 -15.5t21.5 -53.5t-21.5 -53t-62.5 -15zM343 706q-39 0 -61 15t-22 53t22 53.5t61 15.5
q40 0 62 -15.5t22 -53.5t-22 -53t-62 -15z" />
    <glyph glyph-name="wdieresis" unicode="&#x1e85;" horiz-adv-x="799" 
d="M133 0l-125 528h172l61 -392h5l68 392h179l66 -392h5l66 392h161l-123 -528h-211l-54 356h-5l-56 -356h-209zM514 574q-39 0 -60.5 15t-21.5 53t21.5 53.5t60.5 15.5q41 0 62.5 -15.5t21.5 -53.5t-21.5 -53t-62.5 -15zM287 574q-39 0 -61 15t-22 53t22 53.5t61 15.5
q40 0 62 -15.5t22 -53.5t-22 -53t-62 -15z" />
    <glyph glyph-name="uni1E9E" unicode="&#x1e9e;" horiz-adv-x="666" 
d="M426 -14q-56 0 -100.5 18t-69.5 55.5t-23 94.5l144 22q-1 -15 3 -27.5t12.5 -21.5t19 -13.5t21.5 -4.5q17 0 30 7.5t21 23t8 37.5q0 26 -12.5 48t-38 36.5t-65 20t-93.5 -2.5v95l136 130q-11 17 -37.5 28t-58.5 11q-18 0 -35.5 -4t-33.5 -13.5t-28.5 -24t-19.5 -35
t-7 -47.5v-419h-162v399q0 52 11 95t33.5 76.5t57 56.5t81.5 35t108 12q90 0 146 -23.5t82 -60t26 -75.5l-151 -148v-5q71 3 120 -21t74.5 -66t25.5 -93q0 -50 -24.5 -95t-74.5 -73t-126 -28z" />
    <glyph glyph-name="uni1EA0" unicode="&#x1ea0;" horiz-adv-x="659" 
d="M4 0l221 660h210l220 -660h-175l-148 529h-6l-149 -529h-173zM129 117v114h421v-114h-421zM336 -192q-46 0 -70.5 19.5t-24.5 56.5q0 38 24.5 57.5t70.5 19.5q47 0 71.5 -20t24.5 -57q0 -36 -24.5 -56t-71.5 -20z" />
    <glyph glyph-name="uni1EA1" unicode="&#x1ea1;" horiz-adv-x="543" 
d="M175 -14q-40 0 -76 14t-59 45.5t-23 84.5q0 49 19 79.5t51 49t70 28t75 16.5q52 10 78 16t35.5 14t9.5 22q0 29 -21.5 44t-56.5 15q-22 0 -44 -8t-36 -28.5t-13 -58.5l-144 10q-2 63 19 104.5t57.5 65t80 33.5t86.5 10q79 0 130 -29.5t75.5 -85t24.5 -134.5v-94v-66.5
v-66.5v-66h-140v73v78h-6q-4 -45 -29.5 -82.5t-67 -60t-95.5 -22.5zM242 104q17 0 36.5 6.5t37 21.5t28.5 41.5t11 65.5v24l27 3q-8 -13 -26.5 -21t-41.5 -12.5t-46.5 -9t-43.5 -12t-32.5 -20t-12.5 -34.5q0 -26 18.5 -39.5t44.5 -13.5zM286 -192q-46 0 -70.5 19.5
t-24.5 56.5q0 38 24.5 57.5t70.5 19.5q47 0 71.5 -20t24.5 -57q0 -36 -24.5 -56t-71.5 -20z" />
    <glyph glyph-name="uni1EA2" unicode="&#x1ea2;" horiz-adv-x="659" 
d="M4 0l221 660h210l220 -660h-175l-148 529h-6l-149 -529h-173zM129 117v114h421v-114h-421zM282 703q-5 25 3.5 39t22.5 22.5t25 15.5t11 17q0 9 -11.5 12t-28 1.5t-33.5 -6.5t-28 -12l-4 71q27 17 61 22.5t66 -0.5t53 -25.5t21 -53.5q0 -28 -12 -41.5t-27.5 -20.5
t-26 -15t-7.5 -26h-85z" />
    <glyph glyph-name="uni1EA3" unicode="&#x1ea3;" horiz-adv-x="543" 
d="M175 -14q-40 0 -76 14t-59 45.5t-23 84.5q0 49 19 79.5t51 49t70 28t75 16.5q52 10 78 16t35.5 14t9.5 22q0 29 -21.5 44t-56.5 15q-22 0 -44 -8t-36 -28.5t-13 -58.5l-144 10q-2 63 19 104.5t57.5 65t80 33.5t86.5 10q79 0 130 -29.5t75.5 -85t24.5 -134.5v-94v-66.5
v-66.5v-66h-140v73v78h-6q-4 -45 -29.5 -82.5t-67 -60t-95.5 -22.5zM242 104q17 0 36.5 6.5t37 21.5t28.5 41.5t11 65.5v24l27 3q-8 -13 -26.5 -21t-41.5 -12.5t-46.5 -9t-43.5 -12t-32.5 -20t-12.5 -34.5q0 -26 18.5 -39.5t44.5 -13.5zM235 571q-5 25 3.5 39t22.5 22.5
t25 15.5t11 17q0 9 -11.5 12t-28 1.5t-33.5 -6.5t-28 -12l-4 71q27 17 61 22.5t66 -0.5t53 -25.5t21 -53.5q0 -28 -12 -41.5t-27.5 -20.5t-26 -15t-7.5 -26h-85z" />
    <glyph glyph-name="uni1EA4" unicode="&#x1ea4;" horiz-adv-x="659" 
d="M4 0l221 660h210l220 -660h-175l-148 529h-6l-149 -529h-173zM129 117v114h421v-114h-421zM173 680v113l157 53l157 -53v-113l-157 52zM393 870h-144l60 126h180z" />
    <glyph glyph-name="uni1EA5" unicode="&#x1ea5;" horiz-adv-x="543" 
d="M175 -14q-40 0 -76 14t-59 45.5t-23 84.5q0 49 19 79.5t51 49t70 28t75 16.5q52 10 78 16t35.5 14t9.5 22q0 29 -21.5 44t-56.5 15q-22 0 -44 -8t-36 -28.5t-13 -58.5l-144 10q-2 63 19 104.5t57.5 65t80 33.5t86.5 10q79 0 130 -29.5t75.5 -85t24.5 -134.5v-94v-66.5
v-66.5v-66h-140v73v78h-6q-4 -45 -29.5 -82.5t-67 -60t-95.5 -22.5zM242 104q17 0 36.5 6.5t37 21.5t28.5 41.5t11 65.5v24l27 3q-8 -13 -26.5 -21t-41.5 -12.5t-46.5 -9t-43.5 -12t-32.5 -20t-12.5 -34.5q0 -26 18.5 -39.5t44.5 -13.5zM126 548v113l157 53l157 -53v-113
l-157 52zM346 738h-144l60 126h180z" />
    <glyph glyph-name="uni1EA6" unicode="&#x1ea6;" horiz-adv-x="659" 
d="M4 0l221 660h210l220 -660h-175l-148 529h-6l-149 -529h-173zM129 117v114h421v-114h-421zM173 680v113l157 53l157 -53v-113l-157 52zM267 870l-96 126h180l60 -126h-144z" />
    <glyph glyph-name="uni1EA7" unicode="&#x1ea7;" horiz-adv-x="543" 
d="M175 -14q-40 0 -76 14t-59 45.5t-23 84.5q0 49 19 79.5t51 49t70 28t75 16.5q52 10 78 16t35.5 14t9.5 22q0 29 -21.5 44t-56.5 15q-22 0 -44 -8t-36 -28.5t-13 -58.5l-144 10q-2 63 19 104.5t57.5 65t80 33.5t86.5 10q79 0 130 -29.5t75.5 -85t24.5 -134.5v-94v-66.5
v-66.5v-66h-140v73v78h-6q-4 -45 -29.5 -82.5t-67 -60t-95.5 -22.5zM242 104q17 0 36.5 6.5t37 21.5t28.5 41.5t11 65.5v24l27 3q-8 -13 -26.5 -21t-41.5 -12.5t-46.5 -9t-43.5 -12t-32.5 -20t-12.5 -34.5q0 -26 18.5 -39.5t44.5 -13.5zM126 548v113l157 53l157 -53v-113
l-157 52zM220 738l-96 126h180l60 -126h-144z" />
    <glyph glyph-name="uni1EA8" unicode="&#x1ea8;" horiz-adv-x="659" 
d="M4 0l221 660h210l220 -660h-175l-148 529h-6l-149 -529h-173zM129 117v114h421v-114h-421zM173 680v113l157 53l157 -53v-113l-157 52zM282 869q-5 25 3.5 39t22.5 22.5t25 15.5t11 17q0 9 -11.5 12t-28 1.5t-33.5 -6.5t-28 -12l-4 71q27 17 61 22.5t66 -0.5t53 -25.5
t21 -53.5q0 -28 -12 -41.5t-27.5 -20.5t-26 -15t-7.5 -26h-85z" />
    <glyph glyph-name="uni1EA9" unicode="&#x1ea9;" horiz-adv-x="543" 
d="M175 -14q-40 0 -76 14t-59 45.5t-23 84.5q0 49 19 79.5t51 49t70 28t75 16.5q52 10 78 16t35.5 14t9.5 22q0 29 -21.5 44t-56.5 15q-22 0 -44 -8t-36 -28.5t-13 -58.5l-144 10q-2 63 19 104.5t57.5 65t80 33.5t86.5 10q79 0 130 -29.5t75.5 -85t24.5 -134.5v-94v-66.5
v-66.5v-66h-140v73v78h-6q-4 -45 -29.5 -82.5t-67 -60t-95.5 -22.5zM242 104q17 0 36.5 6.5t37 21.5t28.5 41.5t11 65.5v24l27 3q-8 -13 -26.5 -21t-41.5 -12.5t-46.5 -9t-43.5 -12t-32.5 -20t-12.5 -34.5q0 -26 18.5 -39.5t44.5 -13.5zM126 548v113l157 53l157 -53v-113
l-157 52zM235 737q-5 25 3.5 39t22.5 22.5t25 15.5t11 17q0 9 -11.5 12t-28 1.5t-33.5 -6.5t-28 -12l-4 71q27 17 61 22.5t66 -0.5t53 -25.5t21 -53.5q0 -28 -12 -41.5t-27.5 -20.5t-26 -15t-7.5 -26h-85z" />
    <glyph glyph-name="uni1EAA" unicode="&#x1eaa;" horiz-adv-x="659" 
d="M4 0l221 660h210l220 -660h-175l-148 529h-6l-149 -529h-173zM129 117v114h421v-114h-421zM173 680v113l157 53l157 -53v-113l-157 52zM423 866q-18 0 -40.5 4.5t-44.5 11t-40.5 11t-29.5 4.5q-16 0 -19 -8.5t0 -17.5h-71q-19 34 -15.5 63t25 47t55.5 18q18 0 39.5 -4.5
t43 -10t39.5 -10t29 -4.5q16 0 18.5 8t-0.5 18h71q15 -32 13.5 -62t-19.5 -49t-54 -19z" />
    <glyph glyph-name="uni1EAB" unicode="&#x1eab;" horiz-adv-x="543" 
d="M175 -14q-40 0 -76 14t-59 45.5t-23 84.5q0 49 19 79.5t51 49t70 28t75 16.5q52 10 78 16t35.5 14t9.5 22q0 29 -21.5 44t-56.5 15q-22 0 -44 -8t-36 -28.5t-13 -58.5l-144 10q-2 63 19 104.5t57.5 65t80 33.5t86.5 10q79 0 130 -29.5t75.5 -85t24.5 -134.5v-94v-66.5
v-66.5v-66h-140v73v78h-6q-4 -45 -29.5 -82.5t-67 -60t-95.5 -22.5zM242 104q17 0 36.5 6.5t37 21.5t28.5 41.5t11 65.5v24l27 3q-8 -13 -26.5 -21t-41.5 -12.5t-46.5 -9t-43.5 -12t-32.5 -20t-12.5 -34.5q0 -26 18.5 -39.5t44.5 -13.5zM126 548v113l157 53l157 -53v-113
l-157 52zM376 734q-18 0 -40.5 4.5t-44.5 11t-40.5 11t-29.5 4.5q-16 0 -19 -8.5t0 -17.5h-71q-19 34 -15.5 63t25 47t55.5 18q18 0 39.5 -4.5t43 -10t39.5 -10t29 -4.5q16 0 18.5 8t-0.5 18h71q15 -32 13.5 -62t-19.5 -49t-54 -19z" />
    <glyph glyph-name="uni1EAC" unicode="&#x1eac;" horiz-adv-x="659" 
d="M4 0l221 660h210l220 -660h-175l-148 529h-6l-149 -529h-173zM129 117v114h421v-114h-421zM336 -192q-46 0 -70.5 19.5t-24.5 56.5q0 38 24.5 57.5t70.5 19.5q47 0 71.5 -20t24.5 -57q0 -36 -24.5 -56t-71.5 -20zM173 680v113l157 53l157 -53v-113l-157 52z" />
    <glyph glyph-name="uni1EAD" unicode="&#x1ead;" horiz-adv-x="543" 
d="M175 -14q-40 0 -76 14t-59 45.5t-23 84.5q0 49 19 79.5t51 49t70 28t75 16.5q52 10 78 16t35.5 14t9.5 22q0 29 -21.5 44t-56.5 15q-22 0 -44 -8t-36 -28.5t-13 -58.5l-144 10q-2 63 19 104.5t57.5 65t80 33.5t86.5 10q79 0 130 -29.5t75.5 -85t24.5 -134.5v-94v-66.5
v-66.5v-66h-140v73v78h-6q-4 -45 -29.5 -82.5t-67 -60t-95.5 -22.5zM242 104q17 0 36.5 6.5t37 21.5t28.5 41.5t11 65.5v24l27 3q-8 -13 -26.5 -21t-41.5 -12.5t-46.5 -9t-43.5 -12t-32.5 -20t-12.5 -34.5q0 -26 18.5 -39.5t44.5 -13.5zM286 -192q-46 0 -70.5 19.5
t-24.5 56.5q0 38 24.5 57.5t70.5 19.5q47 0 71.5 -20t24.5 -57q0 -36 -24.5 -56t-71.5 -20zM126 548v113l157 53l157 -53v-113l-157 52z" />
    <glyph glyph-name="uni1EAE" unicode="&#x1eae;" horiz-adv-x="659" 
d="M4 0l221 660h210l220 -660h-175l-148 529h-6l-149 -529h-173zM129 117v114h421v-114h-421zM202 830h92q-4 -19 6.5 -32t31.5 -13t30.5 13t4.5 32h91q10 -46 -6.5 -75.5t-49 -44t-72.5 -14.5t-73 14.5t-48.5 44t-6.5 75.5zM393 858h-144l60 126h180z" />
    <glyph glyph-name="uni1EAF" unicode="&#x1eaf;" horiz-adv-x="543" 
d="M175 -14q-40 0 -76 14t-59 45.5t-23 84.5q0 49 19 79.5t51 49t70 28t75 16.5q52 10 78 16t35.5 14t9.5 22q0 29 -21.5 44t-56.5 15q-22 0 -44 -8t-36 -28.5t-13 -58.5l-144 10q-2 63 19 104.5t57.5 65t80 33.5t86.5 10q79 0 130 -29.5t75.5 -85t24.5 -134.5v-94v-66.5
v-66.5v-66h-140v73v78h-6q-4 -45 -29.5 -82.5t-67 -60t-95.5 -22.5zM242 104q17 0 36.5 6.5t37 21.5t28.5 41.5t11 65.5v24l27 3q-8 -13 -26.5 -21t-41.5 -12.5t-46.5 -9t-43.5 -12t-32.5 -20t-12.5 -34.5q0 -26 18.5 -39.5t44.5 -13.5zM155 698h92q-4 -19 6.5 -32t31.5 -13
t30.5 13t4.5 32h91q10 -46 -6.5 -75.5t-49 -44t-72.5 -14.5t-73 14.5t-48.5 44t-6.5 75.5zM346 726h-144l60 126h180z" />
    <glyph glyph-name="uni1EB0" unicode="&#x1eb0;" horiz-adv-x="659" 
d="M4 0l221 660h210l220 -660h-175l-148 529h-6l-149 -529h-173zM129 117v114h421v-114h-421zM202 830h92q-4 -19 6.5 -32t31.5 -13t30.5 13t4.5 32h91q10 -46 -6.5 -75.5t-49 -44t-72.5 -14.5t-73 14.5t-48.5 44t-6.5 75.5zM267 858l-96 126h180l60 -126h-144z" />
    <glyph glyph-name="uni1EB1" unicode="&#x1eb1;" horiz-adv-x="543" 
d="M175 -14q-40 0 -76 14t-59 45.5t-23 84.5q0 49 19 79.5t51 49t70 28t75 16.5q52 10 78 16t35.5 14t9.5 22q0 29 -21.5 44t-56.5 15q-22 0 -44 -8t-36 -28.5t-13 -58.5l-144 10q-2 63 19 104.5t57.5 65t80 33.5t86.5 10q79 0 130 -29.5t75.5 -85t24.5 -134.5v-94v-66.5
v-66.5v-66h-140v73v78h-6q-4 -45 -29.5 -82.5t-67 -60t-95.5 -22.5zM242 104q17 0 36.5 6.5t37 21.5t28.5 41.5t11 65.5v24l27 3q-8 -13 -26.5 -21t-41.5 -12.5t-46.5 -9t-43.5 -12t-32.5 -20t-12.5 -34.5q0 -26 18.5 -39.5t44.5 -13.5zM155 698h92q-4 -19 6.5 -32t31.5 -13
t30.5 13t4.5 32h91q10 -46 -6.5 -75.5t-49 -44t-72.5 -14.5t-73 14.5t-48.5 44t-6.5 75.5zM220 726l-96 126h180l60 -126h-144z" />
    <glyph glyph-name="uni1EB2" unicode="&#x1eb2;" horiz-adv-x="659" 
d="M4 0l221 660h210l220 -660h-175l-148 529h-6l-149 -529h-173zM129 117v114h421v-114h-421zM202 830h92q-4 -19 6.5 -32t31.5 -13t30.5 13t4.5 32h91q10 -46 -6.5 -75.5t-49 -44t-72.5 -14.5t-73 14.5t-48.5 44t-6.5 75.5zM282 857q-5 25 3.5 39t22.5 22.5t25 15.5t11 17
q0 9 -11.5 12t-28 1.5t-33.5 -6.5t-28 -12l-4 71q27 17 61 22.5t66 -0.5t53 -25.5t21 -53.5q0 -28 -12 -41.5t-27.5 -20.5t-26 -15t-7.5 -26h-85z" />
    <glyph glyph-name="uni1EB3" unicode="&#x1eb3;" horiz-adv-x="543" 
d="M175 -14q-40 0 -76 14t-59 45.5t-23 84.5q0 49 19 79.5t51 49t70 28t75 16.5q52 10 78 16t35.5 14t9.5 22q0 29 -21.5 44t-56.5 15q-22 0 -44 -8t-36 -28.5t-13 -58.5l-144 10q-2 63 19 104.5t57.5 65t80 33.5t86.5 10q79 0 130 -29.5t75.5 -85t24.5 -134.5v-94v-66.5
v-66.5v-66h-140v73v78h-6q-4 -45 -29.5 -82.5t-67 -60t-95.5 -22.5zM242 104q17 0 36.5 6.5t37 21.5t28.5 41.5t11 65.5v24l27 3q-8 -13 -26.5 -21t-41.5 -12.5t-46.5 -9t-43.5 -12t-32.5 -20t-12.5 -34.5q0 -26 18.5 -39.5t44.5 -13.5zM155 698h92q-4 -19 6.5 -32t31.5 -13
t30.5 13t4.5 32h91q10 -46 -6.5 -75.5t-49 -44t-72.5 -14.5t-73 14.5t-48.5 44t-6.5 75.5zM235 725q-5 25 3.5 39t22.5 22.5t25 15.5t11 17q0 9 -11.5 12t-28 1.5t-33.5 -6.5t-28 -12l-4 71q27 17 61 22.5t66 -0.5t53 -25.5t21 -53.5q0 -28 -12 -41.5t-27.5 -20.5t-26 -15
t-7.5 -26h-85z" />
    <glyph glyph-name="uni1EB4" unicode="&#x1eb4;" horiz-adv-x="659" 
d="M4 0l221 660h210l220 -660h-175l-148 529h-6l-149 -529h-173zM129 117v114h421v-114h-421zM202 830h92q-4 -19 6.5 -32t31.5 -13t30.5 13t4.5 32h91q10 -46 -6.5 -75.5t-49 -44t-72.5 -14.5t-73 14.5t-48.5 44t-6.5 75.5zM404 854q-27 0 -46 8t-34 15.5t-32 7.5
q-18 0 -21 -8.5t0 -17.5h-76q-20 34 -16 62t27 45.5t59 17.5q27 0 44.5 -7t31.5 -14.5t30 -7.5q17 0 19.5 8t-0.5 18h77q16 -32 14.5 -61.5t-20.5 -47.5t-57 -18z" />
    <glyph glyph-name="uni1EB5" unicode="&#x1eb5;" horiz-adv-x="543" 
d="M175 -14q-40 0 -76 14t-59 45.5t-23 84.5q0 49 19 79.5t51 49t70 28t75 16.5q52 10 78 16t35.5 14t9.5 22q0 29 -21.5 44t-56.5 15q-22 0 -44 -8t-36 -28.5t-13 -58.5l-144 10q-2 63 19 104.5t57.5 65t80 33.5t86.5 10q79 0 130 -29.5t75.5 -85t24.5 -134.5v-94v-66.5
v-66.5v-66h-140v73v78h-6q-4 -45 -29.5 -82.5t-67 -60t-95.5 -22.5zM242 104q17 0 36.5 6.5t37 21.5t28.5 41.5t11 65.5v24l27 3q-8 -13 -26.5 -21t-41.5 -12.5t-46.5 -9t-43.5 -12t-32.5 -20t-12.5 -34.5q0 -26 18.5 -39.5t44.5 -13.5zM155 698h92q-4 -19 6.5 -32t31.5 -13
t30.5 13t4.5 32h91q10 -46 -6.5 -75.5t-49 -44t-72.5 -14.5t-73 14.5t-48.5 44t-6.5 75.5zM357 722q-27 0 -46 8t-34 15.5t-32 7.5q-18 0 -21 -8.5t0 -17.5h-76q-20 34 -16 62t27 45.5t59 17.5q27 0 44.5 -7t31.5 -14.5t30 -7.5q17 0 19.5 8t-0.5 18h77q16 -32 14.5 -61.5
t-20.5 -47.5t-57 -18z" />
    <glyph glyph-name="uni1EB6" unicode="&#x1eb6;" horiz-adv-x="659" 
d="M4 0l221 660h210l220 -660h-175l-148 529h-6l-149 -529h-173zM129 117v114h421v-114h-421zM336 -192q-46 0 -70.5 19.5t-24.5 56.5q0 38 24.5 57.5t70.5 19.5q47 0 71.5 -20t24.5 -57q0 -36 -24.5 -56t-71.5 -20zM202 830h92q-4 -19 6.5 -32t31.5 -13t30.5 13t4.5 32h91
q10 -46 -6.5 -75.5t-49 -44t-72.5 -14.5t-73 14.5t-48.5 44t-6.5 75.5z" />
    <glyph glyph-name="uni1EB7" unicode="&#x1eb7;" horiz-adv-x="543" 
d="M175 -14q-40 0 -76 14t-59 45.5t-23 84.5q0 49 19 79.5t51 49t70 28t75 16.5q52 10 78 16t35.5 14t9.5 22q0 29 -21.5 44t-56.5 15q-22 0 -44 -8t-36 -28.5t-13 -58.5l-144 10q-2 63 19 104.5t57.5 65t80 33.5t86.5 10q79 0 130 -29.5t75.5 -85t24.5 -134.5v-94v-66.5
v-66.5v-66h-140v73v78h-6q-4 -45 -29.5 -82.5t-67 -60t-95.5 -22.5zM242 104q17 0 36.5 6.5t37 21.5t28.5 41.5t11 65.5v24l27 3q-8 -13 -26.5 -21t-41.5 -12.5t-46.5 -9t-43.5 -12t-32.5 -20t-12.5 -34.5q0 -26 18.5 -39.5t44.5 -13.5zM286 -192q-46 0 -70.5 19.5
t-24.5 56.5q0 38 24.5 57.5t70.5 19.5q47 0 71.5 -20t24.5 -57q0 -36 -24.5 -56t-71.5 -20zM155 698h92q-4 -19 6.5 -32t31.5 -13t30.5 13t4.5 32h91q10 -46 -6.5 -75.5t-49 -44t-72.5 -14.5t-73 14.5t-48.5 44t-6.5 75.5z" />
    <glyph glyph-name="uni1EB8" unicode="&#x1eb8;" horiz-adv-x="540" 
d="M40 0v660h162v-660h-162zM161 0v135h351v-135h-351zM161 272v121h305v-121h-305zM161 525v135h351v-135h-351zM279 -192q-46 0 -70.5 19.5t-24.5 56.5q0 38 24.5 57.5t70.5 19.5q47 0 71.5 -20t24.5 -57q0 -36 -24.5 -56t-71.5 -20z" />
    <glyph glyph-name="uni1EB9" unicode="&#x1eb9;" horiz-adv-x="537" 
d="M287 -14q-75 0 -125.5 21.5t-81.5 59t-44.5 85.5t-13.5 101q0 57 14.5 109t45 92.5t79 64t116.5 23.5t116.5 -23.5t77.5 -65.5t37.5 -97t-2.5 -119l-383 -6v88l259 5l-21 -51q6 46 -1.5 77.5t-27.5 48t-55 16.5q-37 0 -59 -19t-31 -53.5t-9 -81.5q0 -81 27 -118t83 -37
q24 0 40 6t26 17.5t14 28t3 37.5l148 -8q3 -33 -6.5 -68t-35.5 -65t-72.5 -49t-117.5 -19zM291 -192q-46 0 -70.5 19.5t-24.5 56.5q0 38 24.5 57.5t70.5 19.5q47 0 71.5 -20t24.5 -57q0 -36 -24.5 -56t-71.5 -20z" />
    <glyph glyph-name="uni1EBA" unicode="&#x1eba;" horiz-adv-x="540" 
d="M40 0v660h162v-660h-162zM161 0v135h351v-135h-351zM161 272v121h305v-121h-305zM161 525v135h351v-135h-351zM229 703q-5 25 3.5 39t22.5 22.5t25 15.5t11 17q0 9 -11.5 12t-28 1.5t-33.5 -6.5t-28 -12l-4 71q27 17 61 22.5t66 -0.5t53 -25.5t21 -53.5q0 -28 -12 -41.5
t-27.5 -20.5t-26 -15t-7.5 -26h-85z" />
    <glyph glyph-name="uni1EBB" unicode="&#x1ebb;" horiz-adv-x="537" 
d="M287 -14q-75 0 -125.5 21.5t-81.5 59t-44.5 85.5t-13.5 101q0 57 14.5 109t45 92.5t79 64t116.5 23.5t116.5 -23.5t77.5 -65.5t37.5 -97t-2.5 -119l-383 -6v88l259 5l-21 -51q6 46 -1.5 77.5t-27.5 48t-55 16.5q-37 0 -59 -19t-31 -53.5t-9 -81.5q0 -81 27 -118t83 -37
q24 0 40 6t26 17.5t14 28t3 37.5l148 -8q3 -33 -6.5 -68t-35.5 -65t-72.5 -49t-117.5 -19zM226 571q-5 25 3.5 39t22.5 22.5t25 15.5t11 17q0 9 -11.5 12t-28 1.5t-33.5 -6.5t-28 -12l-4 71q27 17 61 22.5t66 -0.5t53 -25.5t21 -53.5q0 -28 -12 -41.5t-27.5 -20.5t-26 -15
t-7.5 -26h-85z" />
    <glyph glyph-name="uni1EBC" unicode="&#x1ebc;" horiz-adv-x="540" 
d="M40 0v660h162v-660h-162zM161 0v135h351v-135h-351zM161 272v121h305v-121h-305zM161 525v135h351v-135h-351zM370 700q-18 0 -40.5 4.5t-44.5 11t-40.5 11t-29.5 4.5q-16 0 -19 -8.5t0 -17.5h-71q-19 34 -15.5 63t25 47t55.5 18q18 0 39.5 -4.5t43 -10t39.5 -10t29 -4.5
q16 0 18.5 8t-0.5 18h71q15 -32 13.5 -62t-19.5 -49t-54 -19z" />
    <glyph glyph-name="uni1EBD" unicode="&#x1ebd;" horiz-adv-x="537" 
d="M287 -14q-75 0 -125.5 21.5t-81.5 59t-44.5 85.5t-13.5 101q0 57 14.5 109t45 92.5t79 64t116.5 23.5t116.5 -23.5t77.5 -65.5t37.5 -97t-2.5 -119l-383 -6v88l259 5l-21 -51q6 46 -1.5 77.5t-27.5 48t-55 16.5q-37 0 -59 -19t-31 -53.5t-9 -81.5q0 -81 27 -118t83 -37
q24 0 40 6t26 17.5t14 28t3 37.5l148 -8q3 -33 -6.5 -68t-35.5 -65t-72.5 -49t-117.5 -19zM367 568q-18 0 -40.5 4.5t-44.5 11t-40.5 11t-29.5 4.5q-16 0 -19 -8.5t0 -17.5h-71q-19 34 -15.5 63t25 47t55.5 18q18 0 39.5 -4.5t43 -10t39.5 -10t29 -4.5q16 0 18.5 8t-0.5 18
h71q15 -32 13.5 -62t-19.5 -49t-54 -19z" />
    <glyph glyph-name="uni1EBE" unicode="&#x1ebe;" horiz-adv-x="540" 
d="M40 0v660h162v-660h-162zM161 0v135h351v-135h-351zM161 272v121h305v-121h-305zM161 525v135h351v-135h-351zM120 680v113l157 53l157 -53v-113l-157 52zM340 870h-144l60 126h180z" />
    <glyph glyph-name="uni1EBF" unicode="&#x1ebf;" horiz-adv-x="537" 
d="M287 -14q-75 0 -125.5 21.5t-81.5 59t-44.5 85.5t-13.5 101q0 57 14.5 109t45 92.5t79 64t116.5 23.5t116.5 -23.5t77.5 -65.5t37.5 -97t-2.5 -119l-383 -6v88l259 5l-21 -51q6 46 -1.5 77.5t-27.5 48t-55 16.5q-37 0 -59 -19t-31 -53.5t-9 -81.5q0 -81 27 -118t83 -37
q24 0 40 6t26 17.5t14 28t3 37.5l148 -8q3 -33 -6.5 -68t-35.5 -65t-72.5 -49t-117.5 -19zM117 548v113l157 53l157 -53v-113l-157 52zM337 738h-144l60 126h180z" />
    <glyph glyph-name="uni1EC0" unicode="&#x1ec0;" horiz-adv-x="540" 
d="M40 0v660h162v-660h-162zM161 0v135h351v-135h-351zM161 272v121h305v-121h-305zM161 525v135h351v-135h-351zM120 680v113l157 53l157 -53v-113l-157 52zM214 870l-96 126h180l60 -126h-144z" />
    <glyph glyph-name="uni1EC1" unicode="&#x1ec1;" horiz-adv-x="537" 
d="M287 -14q-75 0 -125.5 21.5t-81.5 59t-44.5 85.5t-13.5 101q0 57 14.5 109t45 92.5t79 64t116.5 23.5t116.5 -23.5t77.5 -65.5t37.5 -97t-2.5 -119l-383 -6v88l259 5l-21 -51q6 46 -1.5 77.5t-27.5 48t-55 16.5q-37 0 -59 -19t-31 -53.5t-9 -81.5q0 -81 27 -118t83 -37
q24 0 40 6t26 17.5t14 28t3 37.5l148 -8q3 -33 -6.5 -68t-35.5 -65t-72.5 -49t-117.5 -19zM117 548v113l157 53l157 -53v-113l-157 52zM211 738l-96 126h180l60 -126h-144z" />
    <glyph glyph-name="uni1EC2" unicode="&#x1ec2;" horiz-adv-x="540" 
d="M40 0v660h162v-660h-162zM161 0v135h351v-135h-351zM161 272v121h305v-121h-305zM161 525v135h351v-135h-351zM120 680v113l157 53l157 -53v-113l-157 52zM229 869q-5 25 3.5 39t22.5 22.5t25 15.5t11 17q0 9 -11.5 12t-28 1.5t-33.5 -6.5t-28 -12l-4 71q27 17 61 22.5
t66 -0.5t53 -25.5t21 -53.5q0 -28 -12 -41.5t-27.5 -20.5t-26 -15t-7.5 -26h-85z" />
    <glyph glyph-name="uni1EC3" unicode="&#x1ec3;" horiz-adv-x="537" 
d="M287 -14q-75 0 -125.5 21.5t-81.5 59t-44.5 85.5t-13.5 101q0 57 14.5 109t45 92.5t79 64t116.5 23.5t116.5 -23.5t77.5 -65.5t37.5 -97t-2.5 -119l-383 -6v88l259 5l-21 -51q6 46 -1.5 77.5t-27.5 48t-55 16.5q-37 0 -59 -19t-31 -53.5t-9 -81.5q0 -81 27 -118t83 -37
q24 0 40 6t26 17.5t14 28t3 37.5l148 -8q3 -33 -6.5 -68t-35.5 -65t-72.5 -49t-117.5 -19zM117 548v113l157 53l157 -53v-113l-157 52zM226 737q-5 25 3.5 39t22.5 22.5t25 15.5t11 17q0 9 -11.5 12t-28 1.5t-33.5 -6.5t-28 -12l-4 71q27 17 61 22.5t66 -0.5t53 -25.5
t21 -53.5q0 -28 -12 -41.5t-27.5 -20.5t-26 -15t-7.5 -26h-85z" />
    <glyph glyph-name="uni1EC4" unicode="&#x1ec4;" horiz-adv-x="540" 
d="M40 0v660h162v-660h-162zM161 0v135h351v-135h-351zM161 272v121h305v-121h-305zM161 525v135h351v-135h-351zM120 680v113l157 53l157 -53v-113l-157 52zM370 866q-18 0 -40.5 4.5t-44.5 11t-40.5 11t-29.5 4.5q-16 0 -19 -8.5t0 -17.5h-71q-19 34 -15.5 63t25 47
t55.5 18q18 0 39.5 -4.5t43 -10t39.5 -10t29 -4.5q16 0 18.5 8t-0.5 18h71q15 -32 13.5 -62t-19.5 -49t-54 -19z" />
    <glyph glyph-name="uni1EC5" unicode="&#x1ec5;" horiz-adv-x="537" 
d="M287 -14q-75 0 -125.5 21.5t-81.5 59t-44.5 85.5t-13.5 101q0 57 14.5 109t45 92.5t79 64t116.5 23.5t116.5 -23.5t77.5 -65.5t37.5 -97t-2.5 -119l-383 -6v88l259 5l-21 -51q6 46 -1.5 77.5t-27.5 48t-55 16.5q-37 0 -59 -19t-31 -53.5t-9 -81.5q0 -81 27 -118t83 -37
q24 0 40 6t26 17.5t14 28t3 37.5l148 -8q3 -33 -6.5 -68t-35.5 -65t-72.5 -49t-117.5 -19zM117 548v113l157 53l157 -53v-113l-157 52zM367 734q-18 0 -40.5 4.5t-44.5 11t-40.5 11t-29.5 4.5q-16 0 -19 -8.5t0 -17.5h-71q-19 34 -15.5 63t25 47t55.5 18q18 0 39.5 -4.5
t43 -10t39.5 -10t29 -4.5q16 0 18.5 8t-0.5 18h71q15 -32 13.5 -62t-19.5 -49t-54 -19z" />
    <glyph glyph-name="uni1EC6" unicode="&#x1ec6;" horiz-adv-x="540" 
d="M40 0v660h162v-660h-162zM161 0v135h351v-135h-351zM161 272v121h305v-121h-305zM161 525v135h351v-135h-351zM279 -192q-46 0 -70.5 19.5t-24.5 56.5q0 38 24.5 57.5t70.5 19.5q47 0 71.5 -20t24.5 -57q0 -36 -24.5 -56t-71.5 -20zM120 680v113l157 53l157 -53v-113
l-157 52z" />
    <glyph glyph-name="uni1EC7" unicode="&#x1ec7;" horiz-adv-x="537" 
d="M287 -14q-75 0 -125.5 21.5t-81.5 59t-44.5 85.5t-13.5 101q0 57 14.5 109t45 92.5t79 64t116.5 23.5t116.5 -23.5t77.5 -65.5t37.5 -97t-2.5 -119l-383 -6v88l259 5l-21 -51q6 46 -1.5 77.5t-27.5 48t-55 16.5q-37 0 -59 -19t-31 -53.5t-9 -81.5q0 -81 27 -118t83 -37
q24 0 40 6t26 17.5t14 28t3 37.5l148 -8q3 -33 -6.5 -68t-35.5 -65t-72.5 -49t-117.5 -19zM291 -192q-46 0 -70.5 19.5t-24.5 56.5q0 38 24.5 57.5t70.5 19.5q47 0 71.5 -20t24.5 -57q0 -36 -24.5 -56t-71.5 -20zM117 548v113l157 53l157 -53v-113l-157 52z" />
    <glyph glyph-name="uni1EC8" unicode="&#x1ec8;" horiz-adv-x="243" 
d="M40 0v660h163v-660h-163zM74 703q-5 25 3.5 39t22.5 22.5t25 15.5t11 17q0 9 -11.5 12t-28 1.5t-33.5 -6.5t-28 -12l-4 71q27 17 61 22.5t66 -0.5t53 -25.5t21 -53.5q0 -28 -12 -41.5t-27.5 -20.5t-26 -15t-7.5 -26h-85z" />
    <glyph glyph-name="uni1EC9" unicode="&#x1ec9;" horiz-adv-x="234" 
d="M36 0v528h162v-528h-162zM69 571q-5 25 3.5 39t22.5 22.5t25 15.5t11 17q0 9 -11.5 12t-28 1.5t-33.5 -6.5t-28 -12l-4 71q27 17 61 22.5t66 -0.5t53 -25.5t21 -53.5q0 -28 -12 -41.5t-27.5 -20.5t-26 -15t-7.5 -26h-85z" />
    <glyph glyph-name="uni1ECA" unicode="&#x1eca;" horiz-adv-x="243" 
d="M40 0v660h163v-660h-163zM126 -192q-46 0 -70.5 19.5t-24.5 56.5q0 38 24.5 57.5t70.5 19.5q47 0 71.5 -20t24.5 -57q0 -36 -24.5 -56t-71.5 -20z" />
    <glyph glyph-name="uni1ECB" unicode="&#x1ecb;" horiz-adv-x="234" 
d="M36 0v528h162v-528h-162zM116 566q-46 0 -70.5 19.5t-24.5 56.5q0 38 24.5 57.5t70.5 19.5q47 0 71.5 -20t24.5 -57q0 -36 -24.5 -56t-71.5 -20zM119 -192q-46 0 -70.5 19.5t-24.5 56.5q0 38 24.5 57.5t70.5 19.5q47 0 71.5 -20t24.5 -57q0 -36 -24.5 -56t-71.5 -20z" />
    <glyph glyph-name="uni1ECC" unicode="&#x1ecc;" horiz-adv-x="661" 
d="M328 -14q-70 0 -126 22t-95 65t-59.5 107t-20.5 147q0 118 38.5 194.5t108 114.5t160.5 38q70 0 125.5 -21.5t94.5 -64.5t59.5 -107.5t20.5 -149.5q0 -86 -21.5 -151t-62 -108t-97 -64.5t-125.5 -21.5zM334 119q45 0 74.5 22.5t44 68t14.5 114.5q0 73 -15.5 121t-46 72.5
t-76.5 24.5q-44 0 -74 -23.5t-45 -70.5t-15 -117q0 -53 8.5 -93t26 -66.5t43.5 -39.5t61 -13zM335 -192q-46 0 -70.5 19.5t-24.5 56.5q0 38 24.5 57.5t70.5 19.5q47 0 71.5 -20t24.5 -57q0 -36 -24.5 -56t-71.5 -20z" />
    <glyph glyph-name="uni1ECD" unicode="&#x1ecd;" horiz-adv-x="567" 
d="M282 -14q-76 0 -135 30.5t-92 92t-33 154.5q0 97 34.5 158.5t94 91t134.5 29.5q78 0 136.5 -30.5t91 -92t32.5 -155.5q0 -97 -34.5 -158.5t-94 -90.5t-134.5 -29zM286 105q31 0 52 17.5t32 51.5t11 81q0 52 -12 87.5t-34.5 54.5t-54.5 19q-30 0 -51 -17.5t-32 -51.5
t-11 -82q0 -76 26.5 -118t73.5 -42zM288 -192q-46 0 -70.5 19.5t-24.5 56.5q0 38 24.5 57.5t70.5 19.5q47 0 71.5 -20t24.5 -57q0 -36 -24.5 -56t-71.5 -20z" />
    <glyph glyph-name="uni1ECE" unicode="&#x1ece;" horiz-adv-x="661" 
d="M328 -14q-70 0 -126 22t-95 65t-59.5 107t-20.5 147q0 118 38.5 194.5t108 114.5t160.5 38q70 0 125.5 -21.5t94.5 -64.5t59.5 -107.5t20.5 -149.5q0 -86 -21.5 -151t-62 -108t-97 -64.5t-125.5 -21.5zM334 119q45 0 74.5 22.5t44 68t14.5 114.5q0 73 -15.5 121t-46 72.5
t-76.5 24.5q-44 0 -74 -23.5t-45 -70.5t-15 -117q0 -53 8.5 -93t26 -66.5t43.5 -39.5t61 -13zM283 703q-5 25 3.5 39t22.5 22.5t25 15.5t11 17q0 9 -11.5 12t-28 1.5t-33.5 -6.5t-28 -12l-4 71q27 17 61 22.5t66 -0.5t53 -25.5t21 -53.5q0 -28 -12 -41.5t-27.5 -20.5
t-26 -15t-7.5 -26h-85z" />
    <glyph glyph-name="uni1ECF" unicode="&#x1ecf;" horiz-adv-x="567" 
d="M282 -14q-76 0 -135 30.5t-92 92t-33 154.5q0 97 34.5 158.5t94 91t134.5 29.5q78 0 136.5 -30.5t91 -92t32.5 -155.5q0 -97 -34.5 -158.5t-94 -90.5t-134.5 -29zM286 105q31 0 52 17.5t32 51.5t11 81q0 52 -12 87.5t-34.5 54.5t-54.5 19q-30 0 -51 -17.5t-32 -51.5
t-11 -82q0 -76 26.5 -118t73.5 -42zM236 571q-5 25 3.5 39t22.5 22.5t25 15.5t11 17q0 9 -11.5 12t-28 1.5t-33.5 -6.5t-28 -12l-4 71q27 17 61 22.5t66 -0.5t53 -25.5t21 -53.5q0 -28 -12 -41.5t-27.5 -20.5t-26 -15t-7.5 -26h-85z" />
    <glyph glyph-name="uni1ED0" unicode="&#x1ed0;" horiz-adv-x="661" 
d="M328 -14q-70 0 -126 22t-95 65t-59.5 107t-20.5 147q0 118 38.5 194.5t108 114.5t160.5 38q70 0 125.5 -21.5t94.5 -64.5t59.5 -107.5t20.5 -149.5q0 -86 -21.5 -151t-62 -108t-97 -64.5t-125.5 -21.5zM334 119q45 0 74.5 22.5t44 68t14.5 114.5q0 73 -15.5 121t-46 72.5
t-76.5 24.5q-44 0 -74 -23.5t-45 -70.5t-15 -117q0 -53 8.5 -93t26 -66.5t43.5 -39.5t61 -13zM174 680v113l157 53l157 -53v-113l-157 52zM394 870h-144l60 126h180z" />
    <glyph glyph-name="uni1ED1" unicode="&#x1ed1;" horiz-adv-x="567" 
d="M282 -14q-76 0 -135 30.5t-92 92t-33 154.5q0 97 34.5 158.5t94 91t134.5 29.5q78 0 136.5 -30.5t91 -92t32.5 -155.5q0 -97 -34.5 -158.5t-94 -90.5t-134.5 -29zM286 105q31 0 52 17.5t32 51.5t11 81q0 52 -12 87.5t-34.5 54.5t-54.5 19q-30 0 -51 -17.5t-32 -51.5
t-11 -82q0 -76 26.5 -118t73.5 -42zM127 548v113l157 53l157 -53v-113l-157 52zM347 738h-144l60 126h180z" />
    <glyph glyph-name="uni1ED2" unicode="&#x1ed2;" horiz-adv-x="661" 
d="M328 -14q-70 0 -126 22t-95 65t-59.5 107t-20.5 147q0 118 38.5 194.5t108 114.5t160.5 38q70 0 125.5 -21.5t94.5 -64.5t59.5 -107.5t20.5 -149.5q0 -86 -21.5 -151t-62 -108t-97 -64.5t-125.5 -21.5zM334 119q45 0 74.5 22.5t44 68t14.5 114.5q0 73 -15.5 121t-46 72.5
t-76.5 24.5q-44 0 -74 -23.5t-45 -70.5t-15 -117q0 -53 8.5 -93t26 -66.5t43.5 -39.5t61 -13zM174 680v113l157 53l157 -53v-113l-157 52zM268 870l-96 126h180l60 -126h-144z" />
    <glyph glyph-name="uni1ED3" unicode="&#x1ed3;" horiz-adv-x="567" 
d="M282 -14q-76 0 -135 30.5t-92 92t-33 154.5q0 97 34.5 158.5t94 91t134.5 29.5q78 0 136.5 -30.5t91 -92t32.5 -155.5q0 -97 -34.5 -158.5t-94 -90.5t-134.5 -29zM286 105q31 0 52 17.5t32 51.5t11 81q0 52 -12 87.5t-34.5 54.5t-54.5 19q-30 0 -51 -17.5t-32 -51.5
t-11 -82q0 -76 26.5 -118t73.5 -42zM127 548v113l157 53l157 -53v-113l-157 52zM221 738l-96 126h180l60 -126h-144z" />
    <glyph glyph-name="uni1ED4" unicode="&#x1ed4;" horiz-adv-x="661" 
d="M328 -14q-70 0 -126 22t-95 65t-59.5 107t-20.5 147q0 118 38.5 194.5t108 114.5t160.5 38q70 0 125.5 -21.5t94.5 -64.5t59.5 -107.5t20.5 -149.5q0 -86 -21.5 -151t-62 -108t-97 -64.5t-125.5 -21.5zM334 119q45 0 74.5 22.5t44 68t14.5 114.5q0 73 -15.5 121t-46 72.5
t-76.5 24.5q-44 0 -74 -23.5t-45 -70.5t-15 -117q0 -53 8.5 -93t26 -66.5t43.5 -39.5t61 -13zM174 680v113l157 53l157 -53v-113l-157 52zM283 869q-5 25 3.5 39t22.5 22.5t25 15.5t11 17q0 9 -11.5 12t-28 1.5t-33.5 -6.5t-28 -12l-4 71q27 17 61 22.5t66 -0.5t53 -25.5
t21 -53.5q0 -28 -12 -41.5t-27.5 -20.5t-26 -15t-7.5 -26h-85z" />
    <glyph glyph-name="uni1ED5" unicode="&#x1ed5;" horiz-adv-x="567" 
d="M282 -14q-76 0 -135 30.5t-92 92t-33 154.5q0 97 34.5 158.5t94 91t134.5 29.5q78 0 136.5 -30.5t91 -92t32.5 -155.5q0 -97 -34.5 -158.5t-94 -90.5t-134.5 -29zM286 105q31 0 52 17.5t32 51.5t11 81q0 52 -12 87.5t-34.5 54.5t-54.5 19q-30 0 -51 -17.5t-32 -51.5
t-11 -82q0 -76 26.5 -118t73.5 -42zM127 548v113l157 53l157 -53v-113l-157 52zM236 737q-5 25 3.5 39t22.5 22.5t25 15.5t11 17q0 9 -11.5 12t-28 1.5t-33.5 -6.5t-28 -12l-4 71q27 17 61 22.5t66 -0.5t53 -25.5t21 -53.5q0 -28 -12 -41.5t-27.5 -20.5t-26 -15t-7.5 -26
h-85z" />
    <glyph glyph-name="uni1ED6" unicode="&#x1ed6;" horiz-adv-x="661" 
d="M328 -14q-70 0 -126 22t-95 65t-59.5 107t-20.5 147q0 118 38.5 194.5t108 114.5t160.5 38q70 0 125.5 -21.5t94.5 -64.5t59.5 -107.5t20.5 -149.5q0 -86 -21.5 -151t-62 -108t-97 -64.5t-125.5 -21.5zM334 119q45 0 74.5 22.5t44 68t14.5 114.5q0 73 -15.5 121t-46 72.5
t-76.5 24.5q-44 0 -74 -23.5t-45 -70.5t-15 -117q0 -53 8.5 -93t26 -66.5t43.5 -39.5t61 -13zM174 680v113l157 53l157 -53v-113l-157 52zM424 866q-18 0 -40.5 4.5t-44.5 11t-40.5 11t-29.5 4.5q-16 0 -19 -8.5t0 -17.5h-71q-19 34 -15.5 63t25 47t55.5 18q18 0 39.5 -4.5
t43 -10t39.5 -10t29 -4.5q16 0 18.5 8t-0.5 18h71q15 -32 13.5 -62t-19.5 -49t-54 -19z" />
    <glyph glyph-name="uni1ED7" unicode="&#x1ed7;" horiz-adv-x="567" 
d="M282 -14q-76 0 -135 30.5t-92 92t-33 154.5q0 97 34.5 158.5t94 91t134.5 29.5q78 0 136.5 -30.5t91 -92t32.5 -155.5q0 -97 -34.5 -158.5t-94 -90.5t-134.5 -29zM286 105q31 0 52 17.5t32 51.5t11 81q0 52 -12 87.5t-34.5 54.5t-54.5 19q-30 0 -51 -17.5t-32 -51.5
t-11 -82q0 -76 26.5 -118t73.5 -42zM127 548v113l157 53l157 -53v-113l-157 52zM377 734q-18 0 -40.5 4.5t-44.5 11t-40.5 11t-29.5 4.5q-16 0 -19 -8.5t0 -17.5h-71q-19 34 -15.5 63t25 47t55.5 18q18 0 39.5 -4.5t43 -10t39.5 -10t29 -4.5q16 0 18.5 8t-0.5 18h71
q15 -32 13.5 -62t-19.5 -49t-54 -19z" />
    <glyph glyph-name="uni1ED8" unicode="&#x1ed8;" horiz-adv-x="661" 
d="M328 -14q-70 0 -126 22t-95 65t-59.5 107t-20.5 147q0 118 38.5 194.5t108 114.5t160.5 38q70 0 125.5 -21.5t94.5 -64.5t59.5 -107.5t20.5 -149.5q0 -86 -21.5 -151t-62 -108t-97 -64.5t-125.5 -21.5zM334 119q45 0 74.5 22.5t44 68t14.5 114.5q0 73 -15.5 121t-46 72.5
t-76.5 24.5q-44 0 -74 -23.5t-45 -70.5t-15 -117q0 -53 8.5 -93t26 -66.5t43.5 -39.5t61 -13zM335 -192q-46 0 -70.5 19.5t-24.5 56.5q0 38 24.5 57.5t70.5 19.5q47 0 71.5 -20t24.5 -57q0 -36 -24.5 -56t-71.5 -20zM174 680v113l157 53l157 -53v-113l-157 52z" />
    <glyph glyph-name="uni1ED9" unicode="&#x1ed9;" horiz-adv-x="567" 
d="M282 -14q-76 0 -135 30.5t-92 92t-33 154.5q0 97 34.5 158.5t94 91t134.5 29.5q78 0 136.5 -30.5t91 -92t32.5 -155.5q0 -97 -34.5 -158.5t-94 -90.5t-134.5 -29zM286 105q31 0 52 17.5t32 51.5t11 81q0 52 -12 87.5t-34.5 54.5t-54.5 19q-30 0 -51 -17.5t-32 -51.5
t-11 -82q0 -76 26.5 -118t73.5 -42zM288 -192q-46 0 -70.5 19.5t-24.5 56.5q0 38 24.5 57.5t70.5 19.5q47 0 71.5 -20t24.5 -57q0 -36 -24.5 -56t-71.5 -20zM127 548v113l157 53l157 -53v-113l-157 52z" />
    <glyph glyph-name="uni1EDA" unicode="&#x1eda;" horiz-adv-x="669" 
d="M507 630l-33 -14l-53 41q48 0 70 13t27.5 34t1.5 44h116q11 -46 2 -81.5t-41 -47.5t-90 11zM328 -14q-70 0 -126 22t-95 65t-59.5 107t-20.5 147q0 118 38.5 194.5t108 114.5t160.5 38q70 0 125.5 -21.5t94.5 -64.5t59.5 -107.5t20.5 -149.5q0 -86 -21.5 -151t-62 -108
t-97 -64.5t-125.5 -21.5zM334 119q45 0 74.5 22.5t44 68t14.5 114.5q0 73 -15.5 121t-46 72.5t-76.5 24.5q-44 0 -74 -23.5t-45 -70.5t-15 -117q0 -53 8.5 -93t26 -66.5t43.5 -39.5t61 -13zM394 704h-144l60 126h180z" />
    <glyph glyph-name="uni1EDB" unicode="&#x1edb;" horiz-adv-x="614" 
d="M447 500l-32 -14l-54 41q48 0 70 12.5t27.5 33.5t1.5 44h116q11 -46 2 -81t-40.5 -47t-90.5 11zM282 -14q-76 0 -135 30.5t-92 92t-33 154.5q0 97 34.5 158.5t94 91t134.5 29.5q78 0 136.5 -30.5t91 -92t32.5 -155.5q0 -97 -34.5 -158.5t-94 -90.5t-134.5 -29zM286 105
q31 0 52 17.5t32 51.5t11 81q0 52 -12 87.5t-34.5 54.5t-54.5 19q-30 0 -51 -17.5t-32 -51.5t-11 -82q0 -76 26.5 -118t73.5 -42zM347 572h-144l60 126h180z" />
    <glyph glyph-name="uni1EDC" unicode="&#x1edc;" horiz-adv-x="669" 
d="M507 630l-33 -14l-53 41q48 0 70 13t27.5 34t1.5 44h116q11 -46 2 -81.5t-41 -47.5t-90 11zM328 -14q-70 0 -126 22t-95 65t-59.5 107t-20.5 147q0 118 38.5 194.5t108 114.5t160.5 38q70 0 125.5 -21.5t94.5 -64.5t59.5 -107.5t20.5 -149.5q0 -86 -21.5 -151t-62 -108
t-97 -64.5t-125.5 -21.5zM334 119q45 0 74.5 22.5t44 68t14.5 114.5q0 73 -15.5 121t-46 72.5t-76.5 24.5q-44 0 -74 -23.5t-45 -70.5t-15 -117q0 -53 8.5 -93t26 -66.5t43.5 -39.5t61 -13zM268 704l-96 126h180l60 -126h-144z" />
    <glyph glyph-name="uni1EDD" unicode="&#x1edd;" horiz-adv-x="614" 
d="M447 500l-32 -14l-54 41q48 0 70 12.5t27.5 33.5t1.5 44h116q11 -46 2 -81t-40.5 -47t-90.5 11zM282 -14q-76 0 -135 30.5t-92 92t-33 154.5q0 97 34.5 158.5t94 91t134.5 29.5q78 0 136.5 -30.5t91 -92t32.5 -155.5q0 -97 -34.5 -158.5t-94 -90.5t-134.5 -29zM286 105
q31 0 52 17.5t32 51.5t11 81q0 52 -12 87.5t-34.5 54.5t-54.5 19q-30 0 -51 -17.5t-32 -51.5t-11 -82q0 -76 26.5 -118t73.5 -42zM221 572l-96 126h180l60 -126h-144z" />
    <glyph glyph-name="uni1EDE" unicode="&#x1ede;" horiz-adv-x="669" 
d="M507 630l-33 -14l-53 41q48 0 70 13t27.5 34t1.5 44h116q11 -46 2 -81.5t-41 -47.5t-90 11zM328 -14q-70 0 -126 22t-95 65t-59.5 107t-20.5 147q0 118 38.5 194.5t108 114.5t160.5 38q70 0 125.5 -21.5t94.5 -64.5t59.5 -107.5t20.5 -149.5q0 -86 -21.5 -151t-62 -108
t-97 -64.5t-125.5 -21.5zM334 119q45 0 74.5 22.5t44 68t14.5 114.5q0 73 -15.5 121t-46 72.5t-76.5 24.5q-44 0 -74 -23.5t-45 -70.5t-15 -117q0 -53 8.5 -93t26 -66.5t43.5 -39.5t61 -13zM283 703q-5 25 3.5 39t22.5 22.5t25 15.5t11 17q0 9 -11.5 12t-28 1.5t-33.5 -6.5
t-28 -12l-4 71q27 17 61 22.5t66 -0.5t53 -25.5t21 -53.5q0 -28 -12 -41.5t-27.5 -20.5t-26 -15t-7.5 -26h-85z" />
    <glyph glyph-name="uni1EDF" unicode="&#x1edf;" horiz-adv-x="614" 
d="M447 500l-32 -14l-54 41q48 0 70 12.5t27.5 33.5t1.5 44h116q11 -46 2 -81t-40.5 -47t-90.5 11zM282 -14q-76 0 -135 30.5t-92 92t-33 154.5q0 97 34.5 158.5t94 91t134.5 29.5q78 0 136.5 -30.5t91 -92t32.5 -155.5q0 -97 -34.5 -158.5t-94 -90.5t-134.5 -29zM286 105
q31 0 52 17.5t32 51.5t11 81q0 52 -12 87.5t-34.5 54.5t-54.5 19q-30 0 -51 -17.5t-32 -51.5t-11 -82q0 -76 26.5 -118t73.5 -42zM236 571q-5 25 3.5 39t22.5 22.5t25 15.5t11 17q0 9 -11.5 12t-28 1.5t-33.5 -6.5t-28 -12l-4 71q27 17 61 22.5t66 -0.5t53 -25.5t21 -53.5
q0 -28 -12 -41.5t-27.5 -20.5t-26 -15t-7.5 -26h-85z" />
    <glyph glyph-name="uni1EE0" unicode="&#x1ee0;" horiz-adv-x="669" 
d="M507 630l-33 -14l-53 41q48 0 70 13t27.5 34t1.5 44h116q11 -46 2 -81.5t-41 -47.5t-90 11zM328 -14q-70 0 -126 22t-95 65t-59.5 107t-20.5 147q0 118 38.5 194.5t108 114.5t160.5 38q70 0 125.5 -21.5t94.5 -64.5t59.5 -107.5t20.5 -149.5q0 -86 -21.5 -151t-62 -108
t-97 -64.5t-125.5 -21.5zM334 119q45 0 74.5 22.5t44 68t14.5 114.5q0 73 -15.5 121t-46 72.5t-76.5 24.5q-44 0 -74 -23.5t-45 -70.5t-15 -117q0 -53 8.5 -93t26 -66.5t43.5 -39.5t61 -13zM405 700q-27 0 -46 8t-34 15.5t-32 7.5q-18 0 -21 -8.5t0 -17.5h-76q-20 34 -16 62
t27 45.5t59 17.5q27 0 44.5 -7t31.5 -14.5t30 -7.5q17 0 19.5 8t-0.5 18h77q16 -32 14.5 -61.5t-20.5 -47.5t-57 -18z" />
    <glyph glyph-name="uni1EE1" unicode="&#x1ee1;" horiz-adv-x="614" 
d="M447 500l-32 -14l-54 41q48 0 70 12.5t27.5 33.5t1.5 44h116q11 -46 2 -81t-40.5 -47t-90.5 11zM282 -14q-76 0 -135 30.5t-92 92t-33 154.5q0 97 34.5 158.5t94 91t134.5 29.5q78 0 136.5 -30.5t91 -92t32.5 -155.5q0 -97 -34.5 -158.5t-94 -90.5t-134.5 -29zM286 105
q31 0 52 17.5t32 51.5t11 81q0 52 -12 87.5t-34.5 54.5t-54.5 19q-30 0 -51 -17.5t-32 -51.5t-11 -82q0 -76 26.5 -118t73.5 -42zM358 568q-27 0 -46 8t-34 15.5t-32 7.5q-18 0 -21 -8.5t0 -17.5h-76q-20 34 -16 62t27 45.5t59 17.5q27 0 44.5 -7t31.5 -14.5t30 -7.5
q17 0 19.5 8t-0.5 18h77q16 -32 14.5 -61.5t-20.5 -47.5t-57 -18z" />
    <glyph glyph-name="uni1EE2" unicode="&#x1ee2;" horiz-adv-x="669" 
d="M507 630l-33 -14l-53 41q48 0 70 13t27.5 34t1.5 44h116q11 -46 2 -81.5t-41 -47.5t-90 11zM328 -14q-70 0 -126 22t-95 65t-59.5 107t-20.5 147q0 118 38.5 194.5t108 114.5t160.5 38q70 0 125.5 -21.5t94.5 -64.5t59.5 -107.5t20.5 -149.5q0 -86 -21.5 -151t-62 -108
t-97 -64.5t-125.5 -21.5zM334 119q45 0 74.5 22.5t44 68t14.5 114.5q0 73 -15.5 121t-46 72.5t-76.5 24.5q-44 0 -74 -23.5t-45 -70.5t-15 -117q0 -53 8.5 -93t26 -66.5t43.5 -39.5t61 -13zM335 -192q-46 0 -70.5 19.5t-24.5 56.5q0 38 24.5 57.5t70.5 19.5q47 0 71.5 -20
t24.5 -57q0 -36 -24.5 -56t-71.5 -20z" />
    <glyph glyph-name="uni1EE3" unicode="&#x1ee3;" horiz-adv-x="614" 
d="M447 500l-32 -14l-54 41q48 0 70 12.5t27.5 33.5t1.5 44h116q11 -46 2 -81t-40.5 -47t-90.5 11zM282 -14q-76 0 -135 30.5t-92 92t-33 154.5q0 97 34.5 158.5t94 91t134.5 29.5q78 0 136.5 -30.5t91 -92t32.5 -155.5q0 -97 -34.5 -158.5t-94 -90.5t-134.5 -29zM286 105
q31 0 52 17.5t32 51.5t11 81q0 52 -12 87.5t-34.5 54.5t-54.5 19q-30 0 -51 -17.5t-32 -51.5t-11 -82q0 -76 26.5 -118t73.5 -42zM288 -192q-46 0 -70.5 19.5t-24.5 56.5q0 38 24.5 57.5t70.5 19.5q47 0 71.5 -20t24.5 -57q0 -36 -24.5 -56t-71.5 -20z" />
    <glyph glyph-name="uni1EE4" unicode="&#x1ee4;" horiz-adv-x="627" 
d="M313 -14q-57 0 -102 13t-77.5 37t-54 57.5t-32 75.5t-10.5 91v400h162v-392q0 -51 15 -81.5t40.5 -43.5t58.5 -13q34 0 59.5 13t40.5 43t15 82v392h162v-400q0 -130 -70 -202t-207 -72zM318 -192q-46 0 -70.5 19.5t-24.5 56.5q0 38 24.5 57.5t70.5 19.5q47 0 71.5 -20
t24.5 -57q0 -36 -24.5 -56t-71.5 -20z" />
    <glyph glyph-name="uni1EE5" unicode="&#x1ee5;" horiz-adv-x="557" 
d="M200 -14q-86 0 -127.5 60t-41.5 184v298h162v-296q0 -58 16.5 -81t47.5 -23q22 0 40.5 11.5t32.5 35t21.5 60.5t7.5 89v204h162v-290v-238h-138v206h-7q-6 -77 -27 -125.5t-58 -71.5t-91 -23zM288 -192q-46 0 -70.5 19.5t-24.5 56.5q0 38 24.5 57.5t70.5 19.5
q47 0 71.5 -20t24.5 -57q0 -36 -24.5 -56t-71.5 -20z" />
    <glyph glyph-name="uni1EE6" unicode="&#x1ee6;" horiz-adv-x="627" 
d="M313 -14q-57 0 -102 13t-77.5 37t-54 57.5t-32 75.5t-10.5 91v400h162v-392q0 -51 15 -81.5t40.5 -43.5t58.5 -13q34 0 59.5 13t40.5 43t15 82v392h162v-400q0 -130 -70 -202t-207 -72zM265 703q-5 25 3.5 39t22.5 22.5t25 15.5t11 17q0 9 -11.5 12t-28 1.5t-33.5 -6.5
t-28 -12l-4 71q27 17 61 22.5t66 -0.5t53 -25.5t21 -53.5q0 -28 -12 -41.5t-27.5 -20.5t-26 -15t-7.5 -26h-85z" />
    <glyph glyph-name="uni1EE7" unicode="&#x1ee7;" horiz-adv-x="557" 
d="M200 -14q-86 0 -127.5 60t-41.5 184v298h162v-296q0 -58 16.5 -81t47.5 -23q22 0 40.5 11.5t32.5 35t21.5 60.5t7.5 89v204h162v-290v-238h-138v206h-7q-6 -77 -27 -125.5t-58 -71.5t-91 -23zM228 571q-5 25 3.5 39t22.5 22.5t25 15.5t11 17q0 9 -11.5 12t-28 1.5
t-33.5 -6.5t-28 -12l-4 71q27 17 61 22.5t66 -0.5t53 -25.5t21 -53.5q0 -28 -12 -41.5t-27.5 -20.5t-26 -15t-7.5 -26h-85z" />
    <glyph glyph-name="uni1EE8" unicode="&#x1ee8;" horiz-adv-x="627" 
d="M313 -14q-57 0 -102 13t-77.5 37t-54 57.5t-32 75.5t-10.5 91v400h162v-392q0 -51 15 -81.5t40.5 -43.5t58.5 -13q34 0 59.5 13t40.5 43t15 82v392h162v-400q0 -130 -70 -202t-207 -72zM591 628l-99 6l2 26q31 0 47.5 8.5t23 23t6.5 31.5t-3 35h127q15 -64 -0.5 -98
t-45 -41t-58.5 9zM376 704h-144l60 126h180z" />
    <glyph glyph-name="uni1EE9" unicode="&#x1ee9;" horiz-adv-x="608" 
d="M200 -14q-86 0 -127.5 60t-41.5 184v298h162v-296q0 -58 16.5 -81t47.5 -23q22 0 40.5 11.5t32.5 35t21.5 60.5t7.5 89v204h162v-290v-238h-138v206h-7q-6 -77 -27 -125.5t-58 -71.5t-91 -23zM522 496l-99 6l2 26q31 0 47.5 8.5t23 23t6.5 31.5t-3 35h127
q15 -64 -0.5 -98t-45 -41t-58.5 9zM339 572h-144l60 126h180z" />
    <glyph glyph-name="uni1EEA" unicode="&#x1eea;" horiz-adv-x="627" 
d="M313 -14q-57 0 -102 13t-77.5 37t-54 57.5t-32 75.5t-10.5 91v400h162v-392q0 -51 15 -81.5t40.5 -43.5t58.5 -13q34 0 59.5 13t40.5 43t15 82v392h162v-400q0 -130 -70 -202t-207 -72zM591 628l-99 6l2 26q31 0 47.5 8.5t23 23t6.5 31.5t-3 35h127q15 -64 -0.5 -98
t-45 -41t-58.5 9zM250 704l-96 126h180l60 -126h-144z" />
    <glyph glyph-name="uni1EEB" unicode="&#x1eeb;" horiz-adv-x="608" 
d="M200 -14q-86 0 -127.5 60t-41.5 184v298h162v-296q0 -58 16.5 -81t47.5 -23q22 0 40.5 11.5t32.5 35t21.5 60.5t7.5 89v204h162v-290v-238h-138v206h-7q-6 -77 -27 -125.5t-58 -71.5t-91 -23zM522 496l-99 6l2 26q31 0 47.5 8.5t23 23t6.5 31.5t-3 35h127
q15 -64 -0.5 -98t-45 -41t-58.5 9zM213 572l-96 126h180l60 -126h-144z" />
    <glyph glyph-name="uni1EEC" unicode="&#x1eec;" horiz-adv-x="627" 
d="M313 -14q-57 0 -102 13t-77.5 37t-54 57.5t-32 75.5t-10.5 91v400h162v-392q0 -51 15 -81.5t40.5 -43.5t58.5 -13q34 0 59.5 13t40.5 43t15 82v392h162v-400q0 -130 -70 -202t-207 -72zM591 628l-99 6l2 26q31 0 47.5 8.5t23 23t6.5 31.5t-3 35h127q15 -64 -0.5 -98
t-45 -41t-58.5 9zM265 703q-5 25 3.5 39t22.5 22.5t25 15.5t11 17q0 9 -11.5 12t-28 1.5t-33.5 -6.5t-28 -12l-4 71q27 17 61 22.5t66 -0.5t53 -25.5t21 -53.5q0 -28 -12 -41.5t-27.5 -20.5t-26 -15t-7.5 -26h-85z" />
    <glyph glyph-name="uni1EED" unicode="&#x1eed;" horiz-adv-x="608" 
d="M200 -14q-86 0 -127.5 60t-41.5 184v298h162v-296q0 -58 16.5 -81t47.5 -23q22 0 40.5 11.5t32.5 35t21.5 60.5t7.5 89v204h162v-290v-238h-138v206h-7q-6 -77 -27 -125.5t-58 -71.5t-91 -23zM522 496l-99 6l2 26q31 0 47.5 8.5t23 23t6.5 31.5t-3 35h127
q15 -64 -0.5 -98t-45 -41t-58.5 9zM228 571q-5 25 3.5 39t22.5 22.5t25 15.5t11 17q0 9 -11.5 12t-28 1.5t-33.5 -6.5t-28 -12l-4 71q27 17 61 22.5t66 -0.5t53 -25.5t21 -53.5q0 -28 -12 -41.5t-27.5 -20.5t-26 -15t-7.5 -26h-85z" />
    <glyph glyph-name="uni1EEE" unicode="&#x1eee;" horiz-adv-x="627" 
d="M313 -14q-57 0 -102 13t-77.5 37t-54 57.5t-32 75.5t-10.5 91v400h162v-392q0 -51 15 -81.5t40.5 -43.5t58.5 -13q34 0 59.5 13t40.5 43t15 82v392h162v-400q0 -130 -70 -202t-207 -72zM591 628l-99 6l2 26q31 0 47.5 8.5t23 23t6.5 31.5t-3 35h127q15 -64 -0.5 -98
t-45 -41t-58.5 9zM406 700q-18 0 -40.5 4.5t-44.5 11t-40.5 11t-29.5 4.5q-16 0 -19 -8.5t0 -17.5h-71q-19 34 -15.5 63t25 47t55.5 18q18 0 39.5 -4.5t43 -10t39.5 -10t29 -4.5q16 0 18.5 8t-0.5 18h71q15 -32 13.5 -62t-19.5 -49t-54 -19z" />
    <glyph glyph-name="uni1EEF" unicode="&#x1eef;" horiz-adv-x="608" 
d="M200 -14q-86 0 -127.5 60t-41.5 184v298h162v-296q0 -58 16.5 -81t47.5 -23q22 0 40.5 11.5t32.5 35t21.5 60.5t7.5 89v204h162v-290v-238h-138v206h-7q-6 -77 -27 -125.5t-58 -71.5t-91 -23zM522 496l-99 6l2 26q31 0 47.5 8.5t23 23t6.5 31.5t-3 35h127
q15 -64 -0.5 -98t-45 -41t-58.5 9zM369 568q-18 0 -40.5 4.5t-44.5 11t-40.5 11t-29.5 4.5q-16 0 -19 -8.5t0 -17.5h-71q-19 34 -15.5 63t25 47t55.5 18q18 0 39.5 -4.5t43 -10t39.5 -10t29 -4.5q16 0 18.5 8t-0.5 18h71q15 -32 13.5 -62t-19.5 -49t-54 -19z" />
    <glyph glyph-name="uni1EF0" unicode="&#x1ef0;" horiz-adv-x="627" 
d="M313 -14q-57 0 -102 13t-77.5 37t-54 57.5t-32 75.5t-10.5 91v400h162v-392q0 -51 15 -81.5t40.5 -43.5t58.5 -13q34 0 59.5 13t40.5 43t15 82v392h162v-400q0 -130 -70 -202t-207 -72zM591 628l-99 6l2 26q31 0 47.5 8.5t23 23t6.5 31.5t-3 35h127q15 -64 -0.5 -98
t-45 -41t-58.5 9zM318 -192q-46 0 -70.5 19.5t-24.5 56.5q0 38 24.5 57.5t70.5 19.5q47 0 71.5 -20t24.5 -57q0 -36 -24.5 -56t-71.5 -20z" />
    <glyph glyph-name="uni1EF1" unicode="&#x1ef1;" horiz-adv-x="608" 
d="M200 -14q-86 0 -127.5 60t-41.5 184v298h162v-296q0 -58 16.5 -81t47.5 -23q22 0 40.5 11.5t32.5 35t21.5 60.5t7.5 89v204h162v-290v-238h-138v206h-7q-6 -77 -27 -125.5t-58 -71.5t-91 -23zM522 496l-99 6l2 26q31 0 47.5 8.5t23 23t6.5 31.5t-3 35h127
q15 -64 -0.5 -98t-45 -41t-58.5 9zM288 -192q-46 0 -70.5 19.5t-24.5 56.5q0 38 24.5 57.5t70.5 19.5q47 0 71.5 -20t24.5 -57q0 -36 -24.5 -56t-71.5 -20z" />
    <glyph glyph-name="Ygrave" unicode="&#x1ef2;" horiz-adv-x="595" 
d="M217 0v220l-215 440h192l104 -294h2l103 294h190l-214 -440v-220h-162zM235 704l-96 126h180l60 -126h-144z" />
    <glyph glyph-name="ygrave" unicode="&#x1ef3;" horiz-adv-x="539" 
d="M225 -156q-30 0 -66 5t-72 16t-67 28l37 163q36 -34 80.5 -48t79.5 -14q49 0 82.5 19.5t50.5 57t17 91.5v92h-9q-2 -70 -22.5 -114.5t-55.5 -65.5t-81 -21q-57 0 -94.5 29t-56.5 87t-19 145v214h161v-172q0 -85 18 -124t57 -39q20 0 35.5 10.5t25.5 32t15 54t5 75.5v163
h161v-372q0 -54 -11 -101.5t-33 -86t-55.5 -66.5t-79 -43t-103.5 -15zM206 572l-96 126h180l60 -126h-144z" />
    <glyph glyph-name="uni1EF4" unicode="&#x1ef4;" horiz-adv-x="595" 
d="M217 0v220l-215 440h192l104 -294h2l103 294h190l-214 -440v-220h-162zM302 -192q-46 0 -70.5 19.5t-24.5 56.5q0 38 24.5 57.5t70.5 19.5q47 0 71.5 -20t24.5 -57q0 -36 -24.5 -56t-71.5 -20z" />
    <glyph glyph-name="uni1EF5" unicode="&#x1ef5;" horiz-adv-x="539" 
d="M225 -156q-30 0 -66 5t-72 16t-67 28l37 163q36 -34 80.5 -48t79.5 -14q49 0 82.5 19.5t50.5 57t17 91.5v92h-9q-2 -70 -22.5 -114.5t-55.5 -65.5t-81 -21q-57 0 -94.5 29t-56.5 87t-19 145v214h161v-172q0 -85 18 -124t57 -39q20 0 35.5 10.5t25.5 32t15 54t5 75.5v163
h161v-372q0 -54 -11 -101.5t-33 -86t-55.5 -66.5t-79 -43t-103.5 -15zM267 -338q-46 0 -70.5 19.5t-24.5 56.5q0 38 24.5 57.5t70.5 19.5q47 0 71.5 -20t24.5 -57q0 -36 -24.5 -56t-71.5 -20z" />
    <glyph glyph-name="uni1EF6" unicode="&#x1ef6;" horiz-adv-x="595" 
d="M217 0v220l-215 440h192l104 -294h2l103 294h190l-214 -440v-220h-162zM250 703q-5 25 3.5 39t22.5 22.5t25 15.5t11 17q0 9 -11.5 12t-28 1.5t-33.5 -6.5t-28 -12l-4 71q27 17 61 22.5t66 -0.5t53 -25.5t21 -53.5q0 -28 -12 -41.5t-27.5 -20.5t-26 -15t-7.5 -26h-85z
" />
    <glyph glyph-name="uni1EF7" unicode="&#x1ef7;" horiz-adv-x="539" 
d="M225 -156q-30 0 -66 5t-72 16t-67 28l37 163q36 -34 80.5 -48t79.5 -14q49 0 82.5 19.5t50.5 57t17 91.5v92h-9q-2 -70 -22.5 -114.5t-55.5 -65.5t-81 -21q-57 0 -94.5 29t-56.5 87t-19 145v214h161v-172q0 -85 18 -124t57 -39q20 0 35.5 10.5t25.5 32t15 54t5 75.5v163
h161v-372q0 -54 -11 -101.5t-33 -86t-55.5 -66.5t-79 -43t-103.5 -15zM221 571q-5 25 3.5 39t22.5 22.5t25 15.5t11 17q0 9 -11.5 12t-28 1.5t-33.5 -6.5t-28 -12l-4 71q27 17 61 22.5t66 -0.5t53 -25.5t21 -53.5q0 -28 -12 -41.5t-27.5 -20.5t-26 -15t-7.5 -26h-85z" />
    <glyph glyph-name="uni1EF8" unicode="&#x1ef8;" horiz-adv-x="595" 
d="M217 0v220l-215 440h192l104 -294h2l103 294h190l-214 -440v-220h-162zM391 700q-18 0 -40.5 4.5t-44.5 11t-40.5 11t-29.5 4.5q-16 0 -19 -8.5t0 -17.5h-71q-19 34 -15.5 63t25 47t55.5 18q18 0 39.5 -4.5t43 -10t39.5 -10t29 -4.5q16 0 18.5 8t-0.5 18h71
q15 -32 13.5 -62t-19.5 -49t-54 -19z" />
    <glyph glyph-name="uni1EF9" unicode="&#x1ef9;" horiz-adv-x="539" 
d="M225 -156q-30 0 -66 5t-72 16t-67 28l37 163q36 -34 80.5 -48t79.5 -14q49 0 82.5 19.5t50.5 57t17 91.5v92h-9q-2 -70 -22.5 -114.5t-55.5 -65.5t-81 -21q-57 0 -94.5 29t-56.5 87t-19 145v214h161v-172q0 -85 18 -124t57 -39q20 0 35.5 10.5t25.5 32t15 54t5 75.5v163
h161v-372q0 -54 -11 -101.5t-33 -86t-55.5 -66.5t-79 -43t-103.5 -15zM362 568q-18 0 -40.5 4.5t-44.5 11t-40.5 11t-29.5 4.5q-16 0 -19 -8.5t0 -17.5h-71q-19 34 -15.5 63t25 47t55.5 18q18 0 39.5 -4.5t43 -10t39.5 -10t29 -4.5q16 0 18.5 8t-0.5 18h71q15 -32 13.5 -62
t-19.5 -49t-54 -19z" />
    <glyph glyph-name="uni2000" unicode="&#x2000;" horiz-adv-x="500" 
 />
    <glyph glyph-name="uni2001" unicode="&#x2001;" horiz-adv-x="1000" 
 />
    <glyph glyph-name="uni2002" unicode="&#x2002;" horiz-adv-x="500" 
 />
    <glyph glyph-name="uni2003" unicode="&#x2003;" horiz-adv-x="1000" 
 />
    <glyph glyph-name="uni2004" unicode="&#x2004;" horiz-adv-x="300" 
 />
    <glyph glyph-name="uni2005" unicode="&#x2005;" horiz-adv-x="250" 
 />
    <glyph glyph-name="uni2006" unicode="&#x2006;" horiz-adv-x="167" 
 />
    <glyph glyph-name="uni2007" unicode="&#x2007;" horiz-adv-x="580" 
 />
    <glyph glyph-name="uni2008" unicode="&#x2008;" horiz-adv-x="246" 
 />
    <glyph glyph-name="uni2009" unicode="&#x2009;" horiz-adv-x="100" 
 />
    <glyph glyph-name="uni200A" unicode="&#x200a;" horiz-adv-x="60" 
 />
    <glyph glyph-name="uni200B" unicode="&#x200b;" 
 />
    <glyph glyph-name="endash" unicode="&#x2013;" horiz-adv-x="500" 
d="M15 195v142h470v-142h-470z" />
    <glyph glyph-name="emdash" unicode="&#x2014;" horiz-adv-x="775" 
d="M15 195v142h745v-142h-745z" />
    <glyph glyph-name="uni2016" unicode="&#x2016;" horiz-adv-x="408" 
d="M40 -146v806h138v-806h-138zM230 -146v806h138v-806h-138z" />
    <glyph glyph-name="quoteleft" unicode="&#x2018;" horiz-adv-x="193" 
d="M191 700q-18 -50 -25.5 -92t-9 -82t-1.5 -85h-146q0 66 9 113.5t22.5 82.5t28.5 63h122z" />
    <glyph glyph-name="quoteright" unicode="&#x2019;" horiz-adv-x="193" 
d="M2 441q18 51 25.5 92.5t9 81.5t1.5 85h146q0 -65 -8.5 -113t-22.5 -83t-29 -63h-122z" />
    <glyph glyph-name="quotesinglbase" unicode="&#x201a;" horiz-adv-x="193" 
d="M-10 -146q18 51 25.5 92.5t9 81.5t1.5 85h146q0 -65 -8.5 -113t-22.5 -83t-29 -63h-122z" />
    <glyph glyph-name="quotedblleft" unicode="&#x201c;" horiz-adv-x="382" 
d="M380 700q-18 -50 -25.5 -92t-9 -82t-1.5 -85h-146q0 66 9 113.5t22.5 82.5t28.5 63h122zM191 700q-18 -50 -25.5 -92t-9 -82t-1.5 -85h-146q0 66 9 113.5t22.5 82.5t28.5 63h122z" />
    <glyph glyph-name="quotedblright" unicode="&#x201d;" horiz-adv-x="382" 
d="M2 441q18 51 25.5 92.5t9 81.5t1.5 85h146q0 -65 -8.5 -113t-22.5 -83t-29 -63h-122zM191 441q18 51 25.5 92.5t9 81.5t1.5 85h146q0 -65 -8.5 -113t-22.5 -83t-29 -63h-122z" />
    <glyph glyph-name="quotedblbase" unicode="&#x201e;" horiz-adv-x="382" 
d="M-10 -120q18 51 25.5 92.5t9 81.5t1.5 85h146q0 -65 -8.5 -113t-22.5 -83t-29 -63h-122zM179 -120q18 51 25.5 92.5t9 81.5t1.5 85h146q0 -65 -8.5 -113t-22.5 -83t-29 -63h-122z" />
    <glyph glyph-name="dagger" unicode="&#x2020;" horiz-adv-x="438" 
d="M159 545l-145 -35v161l151 -45l4 5l-40 154h179l-39 -154l3 -5l152 45v-162l-143 36l-5 -6l22 -259h-159l26 259z" />
    <glyph glyph-name="daggerdbl" unicode="&#x2021;" horiz-adv-x="440" 
d="M169 615l-155 -35v141l151 -45l4 5l-40 104h179l-39 -104l3 -5l152 45v-142l-153 36l-5 -6l-24 -68h-39l-28 68zM171 450l6 6l26 68h39l26 -68l5 -6l153 36v-142l-152 45l-3 -5l39 -104h-179l40 104l-4 5l-151 -45v141z" />
    <glyph glyph-name="bullet" unicode="&#x2022;" horiz-adv-x="349" 
d="M173 131q-76 0 -114.5 33t-38.5 102q0 70 38.5 103t114.5 33q78 0 117 -33t39 -103q0 -69 -39 -102t-117 -33z" />
    <glyph glyph-name="ellipsis" unicode="&#x2026;" horiz-adv-x="757" 
d="M122 -13q-51 0 -76.5 22t-25.5 68q0 47 25.5 69t76.5 22q52 0 78 -22t26 -69q0 -90 -104 -90zM378 -13q-51 0 -76.5 22t-25.5 68q0 47 25.5 69t76.5 22q52 0 78 -22t26 -69q0 -90 -104 -90zM633 -13q-51 0 -76.5 22t-25.5 68q0 47 25.5 69t76.5 22q52 0 78 -22t26 -69
q0 -90 -104 -90z" />
    <glyph glyph-name="uni202F" unicode="&#x202f;" horiz-adv-x="167" 
 />
    <glyph glyph-name="perthousand" unicode="&#x2030;" horiz-adv-x="1379" 
d="M210 318q-57 0 -101.5 20.5t-69.5 63t-25 107.5q0 57 17.5 95t47 60t65 31.5t72.5 9.5q58 0 102.5 -20.5t70 -63t25.5 -108.5q0 -74 -30 -117t-76.5 -60.5t-97.5 -17.5zM216 436q19 0 34 6.5t24.5 22t9.5 43.5q0 29 -9.5 46t-25.5 25t-37 8q-18 0 -34 -7t-25.5 -22.5
t-9.5 -43.5t10 -45.5t26.5 -25t36.5 -7.5zM730 -48q-57 0 -101.5 20.5t-69.5 63t-25 107.5q0 57 17.5 95t47 60t65 31.5t72.5 9.5q58 0 102.5 -20.5t70 -63t25.5 -108.5q0 -74 -30 -117t-76.5 -60.5t-97.5 -17.5zM736 70q19 0 34 6.5t24.5 22t9.5 43.5q0 29 -9.5 46
t-25.5 25t-37 8q-18 0 -34 -7t-25.5 -22.5t-9.5 -43.5t10 -45.5t26.5 -25t36.5 -7.5zM1161 -48q-57 0 -101.5 20.5t-69.5 63t-25 107.5q0 57 17.5 95t47 60t65 31.5t72.5 9.5q58 0 102.5 -20.5t70 -63t25.5 -108.5q0 -74 -30 -117t-76.5 -60.5t-97.5 -17.5zM1167 70
q19 0 34 6.5t24.5 22t9.5 43.5q0 29 -9.5 46t-25.5 25t-37 8q-18 0 -34 -7t-25.5 -22.5t-9.5 -43.5t10 -45.5t26.5 -25t36.5 -7.5zM202 0l390 660h156l-390 -660h-156z" />
    <glyph glyph-name="minute" unicode="&#x2032;" horiz-adv-x="179" 
d="M14 400l10 260h147l-45 -260h-112z" />
    <glyph glyph-name="second" unicode="&#x2033;" horiz-adv-x="349" 
d="M184 400l10 260h147l-45 -260h-112zM14 400l10 260h147l-45 -260h-112z" />
    <glyph glyph-name="guilsinglleft" unicode="&#x2039;" horiz-adv-x="269" 
d="M85 79q-10 51 -24.5 97t-30.5 90q17 44 31 89t24 95h156q-14 -50 -32.5 -95t-38.5 -89q20 -44 38.5 -90t32.5 -97h-156z" />
    <glyph glyph-name="guilsinglright" unicode="&#x203a;" horiz-adv-x="269" 
d="M184 79h-156q14 51 33 97t38 90q-20 44 -38.5 89t-32.5 95h156q10 -50 24.5 -95t30.5 -89q-16 -44 -30.5 -90t-24.5 -97z" />
    <glyph glyph-name="fraction" unicode="&#x2044;" horiz-adv-x="266" 
d="M-140 0l390 660h156l-390 -660h-156z" />
    <glyph glyph-name="uni2070" unicode="&#x2070;" horiz-adv-x="436" 
d="M215 262q-58 0 -102 22t-68.5 68t-24.5 116q0 74 26.5 120.5t71.5 69t102 22.5t101 -22t69.5 -67.5t25.5 -118.5q0 -75 -26.5 -121t-72 -67.5t-102.5 -21.5zM220 369q8 0 20.5 5t22.5 24.5t10 62.5q0 58 -15.5 84.5t-40.5 26.5q-7 0 -19.5 -6.5t-22.5 -28.5t-10 -68
q0 -41 9 -63t22 -29.5t24 -7.5z" />
    <glyph glyph-name="uni2074" unicode="&#x2074;" horiz-adv-x="436" 
d="M17 333v121q32 42 53.5 77.5t34.5 69t19 69.5h243v-400h-139v314h-6q-13 -36 -32.5 -68.5t-42.5 -67.5v-8h276v-107h-406z" />
    <glyph glyph-name="uni2075" unicode="&#x2075;" horiz-adv-x="403" 
d="M200 262q-53 0 -93.5 14t-63 39.5t-22.5 61.5l136 21q2 -16 14.5 -23.5t27.5 -7.5t26 9t11 31q0 15 -5.5 25t-14.5 15t-20 5q-10 0 -19.5 -4t-19.5 -14h-132l19 235h323v-113h-207l-7 -66h7q14 23 39.5 33.5t63.5 10.5t65 -16t41 -43.5t14 -63.5q0 -51 -22.5 -84
t-63.5 -49t-97 -16z" />
    <glyph glyph-name="uni2076" unicode="&#x2076;" horiz-adv-x="431" 
d="M231 260q-107 0 -159 55.5t-52 154.5q0 75 27.5 121t75 67.5t107.5 21.5q36 0 65 -7t50.5 -20.5t35 -34t19.5 -46.5l-132 -28q-1 8 -13 17.5t-31 9.5q-23 0 -38 -12.5t-22 -33t-7 -46.5q0 -10 0.5 -17.5t1.5 -14.5h10q3 25 19.5 39.5t41.5 21t52 6.5q36 0 66 -13
t48 -38.5t18 -63.5q0 -21 -8 -45t-28 -45.5t-55.5 -35t-91.5 -13.5zM226 369q13 0 23 3.5t15.5 10.5t5.5 16q0 10 -10 22t-38 12q-21 0 -33 -8.5t-12 -22.5q0 -11 7.5 -18.5t19 -11t22.5 -3.5z" />
    <glyph glyph-name="uni2077" unicode="&#x2077;" horiz-adv-x="350" 
d="M61 270q0 47 17.5 94.5t53.5 95.5t89 96v6l-207 -4v112h331v-107q-19 -16 -40.5 -48.5t-40.5 -73.5t-30.5 -85.5t-11.5 -85.5h-161z" />
    <glyph glyph-name="uni2078" unicode="&#x2078;" horiz-adv-x="428" 
d="M214 260q-59 0 -103 12t-68 38t-24 66q0 41 24 65.5t70 27.5v7l101 24l103 -24v-7q33 -3 53 -16t29.5 -32.5t9.5 -44.5q0 -40 -24.5 -66t-68 -38t-102.5 -12zM214 359q14 0 26 4.5t19 13t7 20.5q0 13 -8.5 20.5t-20 10.5t-22.5 3q-12 0 -23.5 -4t-19.5 -11.5t-8 -19.5
q0 -11 7 -19.5t18.5 -13t24.5 -4.5zM214 517q14 0 23.5 4.5t14.5 12t5 16.5t-5 17t-14 12.5t-22 4.5q-11 0 -21 -4t-15.5 -11.5t-5.5 -18.5q0 -9 4.5 -16.5t13.5 -12t22 -4.5zM214 437l-101 31v7q-47 7 -62 28t-15 52q0 34 13 58t36.5 39t56 22t72.5 7q80 0 130 -28.5
t50 -95.5q0 -29 -15 -52t-62 -30v-7z" />
    <glyph glyph-name="uni2079" unicode="&#x2079;" horiz-adv-x="429" 
d="M195 260q-39 0 -69 7t-51.5 20t-35 32t-18.5 43l132 33q5 -6 11 -12t15.5 -9.5t24.5 -3.5q18 0 31 6t21 17t12 25.5t4 31.5q0 11 -1.5 22t-3.5 22h-4q-3 -25 -19 -42.5t-40.5 -26.5t-54.5 -9q-53 0 -92.5 29.5t-39.5 90.5q0 23 7.5 48t27 47t53.5 36t87 14
q74 0 122 -28.5t71.5 -78t23.5 -114.5q0 -76 -29.5 -120t-78 -62t-106.5 -18zM204 509q16 0 30.5 8.5t14.5 24.5q0 10 -6 16.5t-16 10t-22 3.5q-8 0 -18.5 -2.5t-18 -8.5t-7.5 -19q0 -15 12 -24t31 -9z" />
    <glyph glyph-name="uni2080" unicode="&#x2080;" horiz-adv-x="436" 
d="M215 -218q-58 0 -102 22t-68.5 68t-24.5 116q0 74 26.5 120.5t71.5 69t102 22.5t101 -22t69.5 -67.5t25.5 -118.5q0 -75 -26.5 -121t-72 -67.5t-102.5 -21.5zM220 -111q8 0 20.5 5t22.5 24.5t10 62.5q0 58 -15.5 84.5t-40.5 26.5q-7 0 -19.5 -6.5t-22.5 -28.5t-10 -68
q0 -41 9 -63t22 -29.5t24 -7.5z" />
    <glyph glyph-name="uni2081" unicode="&#x2081;" horiz-adv-x="244" 
d="M73 -210v217h-58v123q29 0 46.5 13t22.5 47h130v-400h-141z" />
    <glyph glyph-name="uni2082" unicode="&#x2082;" horiz-adv-x="408" 
d="M25 -210v131l181 91q14 7 22.5 12.5t12.5 12.5t4 16q0 17 -12 25.5t-31 8.5q-14 0 -25.5 -5.5t-17 -16t-3.5 -27.5l-137 14q-1 73 52.5 111t137.5 38q50 0 90 -14t63.5 -44t23.5 -78q0 -23 -6 -43t-19 -37t-33.5 -31.5t-48.5 -26.5l-82 -35v-6l189 26v-122h-361z" />
    <glyph glyph-name="uni2083" unicode="&#x2083;" horiz-adv-x="400" 
d="M192 -218q-83 0 -129.5 29t-48.5 87l127 30q3 -14 9.5 -23.5t17 -14t25.5 -4.5q26 0 38 10.5t12 24.5q0 16 -13 28.5t-46.5 17t-95.5 -6.5v73l119 43v6l-179 -2v110h328v-118l-128 -53v-6q81 11 119 -18t38 -83q0 -61 -47 -95.5t-146 -34.5z" />
    <glyph glyph-name="uni2084" unicode="&#x2084;" horiz-adv-x="436" 
d="M17 -147v121q32 42 53.5 77.5t34.5 69t19 69.5h243v-400h-139v314h-6q-13 -36 -32.5 -68.5t-42.5 -67.5v-8h276v-107h-406z" />
    <glyph glyph-name="uni2085" unicode="&#x2085;" horiz-adv-x="403" 
d="M200 -218q-53 0 -93.5 14t-63 39.5t-22.5 61.5l136 21q2 -16 14.5 -23.5t27.5 -7.5t26 9t11 31q0 15 -5.5 25t-14.5 15t-20 5q-10 0 -19.5 -4t-19.5 -14h-132l19 235h323v-113h-207l-7 -66h7q14 23 39.5 33.5t63.5 10.5t65 -16t41 -43.5t14 -63.5q0 -51 -22.5 -84
t-63.5 -49t-97 -16z" />
    <glyph glyph-name="uni2086" unicode="&#x2086;" horiz-adv-x="431" 
d="M231 -220q-107 0 -159 55.5t-52 154.5q0 75 27.5 121t75 67.5t107.5 21.5q36 0 65 -7t50.5 -20.5t35 -34t19.5 -46.5l-132 -28q-1 8 -13 17.5t-31 9.5q-23 0 -38 -12.5t-22 -33t-7 -46.5q0 -10 0.5 -17.5t1.5 -14.5h10q3 25 19.5 39.5t41.5 21t52 6.5q36 0 66 -13
t48 -38.5t18 -63.5q0 -21 -8 -45t-28 -45.5t-55.5 -35t-91.5 -13.5zM226 -111q13 0 23 3.5t15.5 10.5t5.5 16q0 10 -10 22t-38 12q-21 0 -33 -8.5t-12 -22.5q0 -11 7.5 -18.5t19 -11t22.5 -3.5z" />
    <glyph glyph-name="uni2087" unicode="&#x2087;" horiz-adv-x="350" 
d="M61 -210q0 47 17.5 94.5t53.5 95.5t89 96v6l-207 -4v112h331v-107q-19 -16 -40.5 -48.5t-40.5 -73.5t-30.5 -85.5t-11.5 -85.5h-161z" />
    <glyph glyph-name="uni2088" unicode="&#x2088;" horiz-adv-x="428" 
d="M214 -220q-59 0 -103 12t-68 38t-24 66q0 41 24 65.5t70 27.5v7l101 24l103 -24v-7q33 -3 53 -16t29.5 -32.5t9.5 -44.5q0 -40 -24.5 -66t-68 -38t-102.5 -12zM214 -121q14 0 26 4.5t19 13t7 20.5q0 13 -8.5 20.5t-20 10.5t-22.5 3q-12 0 -23.5 -4t-19.5 -11.5t-8 -19.5
q0 -11 7 -19.5t18.5 -13t24.5 -4.5zM214 37q14 0 23.5 4.5t14.5 12t5 16.5t-5 17t-14 12.5t-22 4.5q-11 0 -21 -4t-15.5 -11.5t-5.5 -18.5q0 -9 4.5 -16.5t13.5 -12t22 -4.5zM214 -43l-101 31v7q-47 7 -62 28t-15 52q0 34 13 58t36.5 39t56 22t72.5 7q80 0 130 -28.5
t50 -95.5q0 -29 -15 -52t-62 -30v-7z" />
    <glyph glyph-name="uni2089" unicode="&#x2089;" horiz-adv-x="429" 
d="M195 -220q-39 0 -69 7t-51.5 20t-35 32t-18.5 43l132 33q5 -6 11 -12t15.5 -9.5t24.5 -3.5q18 0 31 6t21 17t12 25.5t4 31.5q0 11 -1.5 22t-3.5 22h-4q-3 -25 -19 -42.5t-40.5 -26.5t-54.5 -9q-53 0 -92.5 29.5t-39.5 90.5q0 23 7.5 48t27 47t53.5 36t87 14
q74 0 122 -28.5t71.5 -78t23.5 -114.5q0 -76 -29.5 -120t-78 -62t-106.5 -18zM204 29q16 0 30.5 8.5t14.5 24.5q0 10 -6 16.5t-16 10t-22 3.5q-8 0 -18.5 -2.5t-18 -8.5t-7.5 -19q0 -15 12 -24t31 -9z" />
    <glyph glyph-name="colonmonetary" unicode="&#x20a1;" horiz-adv-x="619" 
d="M462 584l-105 20l21 161h109zM141 -87l27 171l101 -20l-19 -151h-109zM293 -87l26 171l97 -20l-13 -151h-110zM309 584l-105 20l21 161h110zM335 -7q-83 0 -141.5 27t-95.5 73.5t-54.5 107t-17.5 127.5q0 70 17.5 131.5t54.5 108.5t95 73.5t139 26.5q71 0 121.5 -20.5
t81.5 -55.5t43 -79.5t6 -93.5l-146 -18q2 42 -10 72.5t-37.5 47t-63.5 16.5q-32 0 -57 -13t-42.5 -38.5t-26 -63t-8.5 -87.5q0 -65 15.5 -112.5t48 -73t81.5 -25.5q45 0 71 20.5t36.5 56.5t7.5 81l150 -12q5 -54 -7.5 -103.5t-44 -88.5t-85 -62t-131.5 -23z" />
    <glyph glyph-name="lira" unicode="&#x20a4;" horiz-adv-x="687" 
d="M180 -14q-83 0 -127.5 37t-44.5 99q0 41 17.5 69.5t46.5 43.5t61 15q41 0 77 -20t61 -52h7l1 -44q-28 21 -54.5 28t-40.5 7q-18 0 -33 -9t-15 -31q0 -21 15 -31.5t37 -10.5q20 0 40.5 9.5t34.5 32.5t14 62q0 42 -16 72.5t-39 55t-46.5 49t-39.5 55t-16 72.5
q0 57 31.5 97.5t86.5 62t125 21.5q54 0 97.5 -13.5t73.5 -40.5t44 -67t9 -94l-150 -21q2 33 -5.5 57t-25.5 37.5t-48 13.5q-35 0 -55 -19t-20 -51q0 -26 11.5 -49t28.5 -46.5t34.5 -50.5t29 -60t11.5 -75q0 -36 -11 -73t-36 -68t-67 -50.5t-104 -19.5zM501 -15
q-48 0 -82 18.5t-55 43t-30 41.5l-11 9l23 35l22 -10t22.5 -9t23.5 -6.5t24 -2.5q21 0 36 9t23 27.5t8 45.5q0 8 -1 16.5t-3 18t-5 20.5l159 13q7 -22 9.5 -42.5t2.5 -37.5q0 -48 -12.5 -84t-35.5 -59t-53 -34.5t-65 -11.5zM86 270v47h183l1 -45zM86 350v47h183l1 -45z
M295 275l-2 47l192 1v-47zM295 355l-2 47l192 1v-47z" />
    <glyph glyph-name="uni20A6" unicode="&#x20a6;" horiz-adv-x="817" 
d="M611 340v90h188v-90h-188zM18 216v90h188v-90h-188zM18 340v90h188v-90h-188zM611 216v90h188v-90h-188zM106 7v647h213l230 -438h2v438h157v-647h-200l-243 453h-2v-453h-157z" />
    <glyph glyph-name="uni20A8" unicode="&#x20a8;" horiz-adv-x="1121" 
d="M40 0v660h274q44 0 83.5 -7.5t72 -22.5t56.5 -38t37 -54.5t13 -71.5q0 -31 -10.5 -58.5t-33 -49.5t-58 -36.5t-84.5 -20.5v-8q64 -3 99 -25t52.5 -55.5t26.5 -72.5l35 -140h-179l-25 131q-6 34 -18.5 55t-35.5 31t-61 10h-82v-227h-162zM202 352h94q55 0 84 21t29 64
q0 47 -27 70t-82 23h-98v-178zM871 -14q-53 0 -98.5 10.5t-79 33.5t-51 61.5t-14.5 93.5l141 12q2 -33 15 -54.5t36 -31.5t56 -10q31 0 53.5 10.5t22.5 35.5q0 13 -8 21.5t-29.5 16t-62.5 17.5q-51 13 -92 26t-70 31t-44 44.5t-15 65.5q0 55 29.5 93.5t81.5 59t120 20.5
q61 0 114 -19t83.5 -62t22.5 -114l-138 -13q3 29 -8 49.5t-32 31t-51 10.5q-34 0 -52.5 -12.5t-18.5 -31.5q0 -15 11.5 -25.5t36 -18t63.5 -16.5q34 -7 71 -18t69 -29.5t52 -48.5t20 -76q0 -49 -27 -86t-79 -57t-128 -20z" />
    <glyph glyph-name="uni20A9" unicode="&#x20a9;" horiz-adv-x="994" 
d="M788 340v90h188v-90h-188zM18 216v90h188v-90h-188zM18 340v90h188v-90h-188zM788 216v90h188v-90h-188zM200 7l-131 647h171l80 -496h3l93 496h187l96 -496h3l77 496h163l-131 -647h-222l-82 486h-3l-84 -486h-220z" />
    <glyph glyph-name="dong" unicode="&#x20ab;" horiz-adv-x="568" 
d="M62 -121v89h477v-89h-477zM223 -14q-57 0 -102.5 31t-72 94t-26.5 159q0 91 24 151.5t68 90.5t103 30q46 0 81.5 -19t58.5 -60t32 -107h9q-5 34 -10 67t-7.5 64t-2.5 58v155h162v-514v-186h-141v163h-7q-11 -58 -33.5 -97.5t-56 -59.5t-79.5 -20zM280 115q19 0 37 8.5
t32 26.5t22.5 45t8.5 64v7q0 30 -6 53.5t-16 40t-23 27t-27.5 15.5t-28.5 5q-31 0 -52 -21t-31 -54.5t-10 -72.5t11 -72t32 -52.5t51 -19.5zM215 653h367v-89h-367v89z" />
    <glyph glyph-name="Euro" unicode="&#x20ac;" horiz-adv-x="680" 
d="M13 347l17 90h369l-17 -90h-369zM5 211l17 90h352l-17 -90h-352zM390 -14q-84 0 -144 27t-98 75t-55.5 109.5t-17.5 130.5q0 71 18 134t55.5 110.5t96.5 74.5t142 27q72 0 124 -20.5t83.5 -56t43.5 -81.5t6 -96l-149 -18q2 43 -10.5 74t-38 48t-64.5 17q-33 0 -58.5 -13
t-43 -39t-26.5 -64.5t-9 -89.5q0 -66 16 -114.5t49 -75t83 -26.5q46 0 72.5 21t37.5 58t7 83l153 -13q5 -55 -7.5 -105.5t-45 -90.5t-87 -63t-133.5 -23z" />
    <glyph glyph-name="uni20AD" unicode="&#x20ad;" horiz-adv-x="717" 
d="M500 0l-208 288v90l200 282h213l-278 -318v-8l278 -334h-205zM79 0v660h162v-660h-162zM2 288v90h607v-90h-607z" />
    <glyph glyph-name="uni20AE" unicode="&#x20ae;" horiz-adv-x="506" 
d="M45 298l411 120v-89l-411 -120v89zM45 182l411 120v-89l-411 -120v89zM173 7v647h159v-647h-159zM14 519v135h478v-135h-478z" />
    <glyph glyph-name="uni20B1" unicode="&#x20b1;" horiz-adv-x="720" 
d="M13 316v90h188v-90h-188zM519 316v90h188v-90h-188zM13 440v90h188v-90h-188zM519 440v90h188v-90h-188zM216 187v130h123q61 0 91 24.5t30 81.5q0 54 -27.5 80.5t-83.5 26.5h-133v130h142q57 0 106 -13.5t85.5 -42.5t57 -73t20.5 -106q0 -79 -35.5 -132t-102.5 -79.5
t-164 -26.5h-109zM95 0v660h162v-660h-162z" />
    <glyph glyph-name="uni20B2" unicode="&#x20b2;" horiz-adv-x="619" 
d="M249 642l-16 121h147l-17 -121h-114zM233 -107l16 121h114l17 -121h-147zM277 -9q-85 0 -145 42.5t-92 117t-32 173.5q0 72 18.5 134.5t56.5 109t97 72.5t140 26q68 0 118 -19t81 -52t44 -77t8 -94l-148 -17q1 43 -11.5 71.5t-37 42t-60.5 13.5q-42 0 -73.5 -22.5
t-48.5 -67.5t-17 -113q0 -50 10 -89.5t29.5 -66.5t48 -41t66.5 -14q37 0 63.5 13t41 36t14.5 54h-102v111h243v-121v-208h-109v174h-9q-5 -61 -29 -103t-65.5 -63.5t-99.5 -21.5z" />
    <glyph glyph-name="uni20B4" unicode="&#x20b4;" horiz-adv-x="640" 
d="M313 -14q-79 0 -139.5 22t-95 66t-34.5 110q0 47 21 80t47 56h348q-15 -8 -45.5 -16.5t-66.5 -19t-69.5 -24.5t-55 -34t-21.5 -47q0 -18 13 -32t36.5 -21.5t53.5 -7.5q33 0 60 10t45 32t25 56l154 -20q-1 -48 -19.5 -87t-53 -66.5t-85.5 -42t-118 -14.5zM17 250v70h600
v-70h-600zM17 348v70h600v-70h-600zM171 348q13 11 42.5 21t65.5 20.5t69.5 23.5t55.5 30t22 39q0 18 -10.5 32.5t-31 23t-51.5 8.5q-33 0 -57 -10.5t-38 -30.5t-19 -49l-151 20q3 64 37.5 108t92.5 67t130 23q74 0 131.5 -23.5t90 -68.5t32.5 -109q0 -42 -19.5 -72.5
t-43.5 -52.5h-348z" />
    <glyph glyph-name="uni20B5" unicode="&#x20b5;" horiz-adv-x="619" 
d="M267 642l-6 121h147l-27 -121h-114zM251 -107l16 121h114l17 -121h-147zM335 -7q-83 0 -141.5 27t-95.5 73.5t-54.5 107t-17.5 127.5q0 70 17.5 131.5t54.5 108.5t95 73.5t139 26.5q71 0 121.5 -20.5t81.5 -55.5t43 -79.5t6 -93.5l-146 -18q2 42 -10 72.5t-37.5 47
t-63.5 16.5q-32 0 -57 -13t-42.5 -38.5t-26 -63t-8.5 -87.5q0 -65 15.5 -112.5t48 -73t81.5 -25.5q45 0 71 20.5t36.5 56.5t7.5 81l150 -12q5 -54 -7.5 -103.5t-44 -88.5t-85 -62t-131.5 -23z" />
    <glyph glyph-name="uni20B8" unicode="&#x20b8;" horiz-adv-x="516" 
d="M177 9v538h162v-538h-162zM14 409v138h488v-138h-488zM14 570v90h488v-90h-488z" />
    <glyph glyph-name="uni20B9" unicode="&#x20b9;" horiz-adv-x="520" 
d="M282 0l-23 101q-7 32 -19 53.5t-35 32t-63 10.5h-116v125h109q18 0 40.5 2t43.5 11t34.5 31t13.5 61q0 31 -9 50.5t-22.5 30.5t-29 15.5t-28.5 5.5t-20 1v37l189 -3v-39q31 -5 50 -22t28 -39t9 -46t-10.5 -48t-33 -44.5t-58 -34.5t-84.5 -20v-8q64 -3 100 -25.5t54 -56
t28 -71.5l31 -110h-179zM26 387v85h466v-85h-466zM26 530v130h466v-130h-466z" />
    <glyph glyph-name="uni20BA" unicode="&#x20ba;" horiz-adv-x="608" 
d="M594 236v-11q0 -58 -12.5 -100.5t-37 -70t-62 -41t-87.5 -13.5h-142v130h103q8 0 18.5 1t21.5 6t20 16t15 31.5t6 52.5v9zM132 660h162v-660h-162v660zM18 388l411 120v-89l-411 -120v89zM18 272l411 120v-89l-411 -120v89z" />
    <glyph glyph-name="uni20BC" unicode="&#x20bc;" horiz-adv-x="613" 
d="M30 0v310q0 49 10.5 91t32 75.5t54 57.5t77.5 37t102 13q55 0 99 -12t77.5 -35t56 -56t33.5 -76t11 -95v-310h-152v302q0 39 -10 67t-27.5 46t-40 26.5t-47.5 8.5q-33 0 -61.5 -15.5t-45.5 -48t-17 -84.5v-302h-152zM252 0v660h110v-660h-110z" />
    <glyph glyph-name="uni20BD" unicode="&#x20bd;" horiz-adv-x="638" 
d="M17 62v90h402v-90h-402zM17 190v90h188v-90h-188zM221 190v128h120q60 0 89.5 24t29.5 80q0 52 -27 78t-82 26h-130v128h139q56 0 104 -13.5t84 -41.5t56 -71.5t20 -103.5q0 -78 -35 -130t-101 -78t-160 -26h-107zM102 7v647h159v-647h-159z" />
    <glyph glyph-name="uni20BE" unicode="&#x20be;" horiz-adv-x="614" 
d="M211 99v38q-35 13 -68 33.5t-59 50.5t-41 71t-15 94q0 47 18 97t55.5 93.5t97 70.5t143.5 27q96 0 155 -35.5t84 -93.5t16 -125l-149 -18q2 43 -10 74t-38 48t-66 17q-44 0 -74.5 -21.5t-46 -63t-15.5 -100.5q0 -52 12 -94t34 -71.5t53 -45t69 -15.5l-3 -31h-152zM38 0
v130h541v-130h-541zM256 362v352l54 17v-352zM338 370v369l54 17v-369z" />
    <glyph glyph-name="uni20BF" unicode="&#x20bf;" horiz-adv-x="597" 
d="M138 632l-13 132h119l-13 -132h-93zM312 632l-13 132h120l-14 -132h-93zM138 24h93l13 -122h-119zM312 24h93l14 -122h-120zM40 7v647h261q59 0 106 -10.5t80 -32t50 -53t17 -73.5q0 -39 -16.5 -70t-52 -50.5t-93.5 -24.5v-9q99 -5 143.5 -46t44.5 -108q0 -57 -29 -94.5
t-86 -56.5t-140 -19h-285zM199 134h120q50 0 77 18t27 52q0 37 -30.5 55t-92.5 18h-101v-143zM199 385h85q56 0 85.5 18.5t29.5 55.5q0 34 -26.5 51t-79.5 17h-94v-142z" />
    <glyph glyph-name="uni2113" unicode="&#x2113;" horiz-adv-x="460" 
d="M304 -14q-57 0 -103.5 21.5t-79 66t-50 112t-17.5 158.5q0 117 27.5 189.5t75.5 105.5t109 33q60 0 99 -27t58.5 -72.5t19.5 -101.5q0 -69 -29 -123t-85 -90t-137.5 -51.5t-186.5 -7.5v73q103 0 165.5 19t95 48.5t43.5 62t11 59.5q0 36 -12.5 62t-36.5 26
q-15 0 -29.5 -16t-24 -58t-9.5 -120q0 -51 5.5 -97.5t17.5 -82t33.5 -56t52.5 -20.5q16 0 34 5.5t39 17.5l23 -110q-22 -13 -49.5 -19.5t-59.5 -6.5z" />
    <glyph glyph-name="uni2116" unicode="&#x2116;" horiz-adv-x="1010" 
d="M702 342h275v-89h-275v89zM40 0v660h217l235 -447h2v447h160v-660h-204l-248 462h-2v-462h-160zM837 373q-42 0 -77.5 17.5t-56.5 50.5t-21 81q0 44 14.5 73t38 46t51.5 24t55 7q42 0 77.5 -15.5t56.5 -48.5t21 -86t-24.5 -86t-61 -48t-73.5 -15zM841 471q20 0 35 11
t15 38q0 29 -15.5 41t-37.5 12q-19 0 -34.5 -11t-15.5 -40q0 -25 15.5 -38t37.5 -13z" />
    <glyph glyph-name="trademark" unicode="&#x2122;" horiz-adv-x="944" 
d="M96 328v328h121v-328h-121zM3 541v115h306v-115h-306zM331 328v328h178l69 -158l68 158h168v-328h-113v180l-82 -180h-94l-81 178v-178h-113z" />
    <glyph glyph-name="uni2126" unicode="&#x2126;" horiz-adv-x="722" 
d="M28 0v134h184v10q-63 14 -103 49.5t-59.5 83.5t-19.5 98q0 32 9 71.5t30.5 79.5t59 73.5t94.5 54t138 20.5t138 -20.5t94.5 -54t59 -73.5t30.5 -79.5t9 -71.5q0 -50 -19 -98t-59.5 -83.5t-103.5 -49.5v-10h184v-134h-314v146q28 4 53 17t45 37t31.5 60.5t11.5 87.5
q0 73 -22.5 115t-59 60t-78.5 18q-41 0 -78 -18t-59.5 -60t-22.5 -115q0 -51 11.5 -87.5t31.5 -60.5t45 -37t53 -17v-146h-314z" />
    <glyph glyph-name="estimated" unicode="&#x212e;" horiz-adv-x="791" 
d="M398 -5q-110 0 -195 42t-133 119t-48 182q0 103 48 180.5t133 120.5t195 43q111 0 193.5 -40.5t130 -119.5t52.5 -193h-598q-7 0 -11 -2.5t-4 -15.5v-168q0 -13 17 -33.5t48.5 -40.5t75 -33.5t96.5 -13.5q71 0 134.5 31.5t103.5 77.5h70q-44 -49 -88 -79t-96.5 -43.5
t-123.5 -13.5v0zM176 350v0h442q11 0 13.5 3.5t2.5 12.5v165q0 20 -21.5 42.5t-57 41.5t-77 31t-81.5 12q-51 0 -94 -14t-75 -34.5t-49.5 -40.5t-17.5 -31v-179q0 -9 15 -9z" />
    <glyph glyph-name="uni2153" unicode="&#x2153;" horiz-adv-x="870" 
d="M73 300v217h-58v123q29 0 46.5 13t22.5 47h130v-400h-141zM83 0l390 660h156l-390 -660h-156zM662 -48q-83 0 -129.5 29t-48.5 87l127 30q3 -14 9.5 -23.5t17 -14t25.5 -4.5q26 0 38 10.5t12 24.5q0 16 -13 28.5t-46.5 17t-95.5 -6.5v73l119 43v6l-179 -2v110h328v-118
l-128 -53v-6q81 11 119 -18t38 -83q0 -61 -47 -95.5t-146 -34.5z" />
    <glyph glyph-name="uni2154" unicode="&#x2154;" horiz-adv-x="1039" 
d="M25 300v131l181 91q14 7 22.5 12.5t12.5 12.5t4 16q0 17 -12 25.5t-31 8.5q-14 0 -25.5 -5.5t-17 -16t-3.5 -27.5l-137 14q-1 73 52.5 111t137.5 38q50 0 90 -14t63.5 -44t23.5 -78q0 -23 -6 -43t-19 -37t-33.5 -31.5t-48.5 -26.5l-82 -35v-6l189 26v-122h-361zM252 0
l390 660h156l-390 -660h-156zM831 -48q-83 0 -129.5 29t-48.5 87l127 30q3 -14 9.5 -23.5t17 -14t25.5 -4.5q26 0 38 10.5t12 24.5q0 16 -13 28.5t-46.5 17t-95.5 -6.5v73l119 43v6l-179 -2v110h328v-118l-128 -53v-6q81 11 119 -18t38 -83q0 -61 -47 -95.5t-146 -34.5z" />
    <glyph glyph-name="oneeighth" unicode="&#x215b;" horiz-adv-x="865" 
d="M73 300v217h-58v123q29 0 46.5 13t22.5 47h130v-400h-141zM83 0l390 660h156l-390 -660h-156zM651 -50q-59 0 -103 12t-68 38t-24 66q0 41 24 65.5t70 27.5v7l101 24l103 -24v-7q33 -3 53 -16t29.5 -32.5t9.5 -44.5q0 -40 -24.5 -66t-68 -38t-102.5 -12zM651 49
q14 0 26 4.5t19 13t7 20.5q0 13 -8.5 20.5t-20 10.5t-22.5 3q-12 0 -23.5 -4t-19.5 -11.5t-8 -19.5q0 -11 7 -19.5t18.5 -13t24.5 -4.5zM651 207q14 0 23.5 4.5t14.5 12t5 16.5t-5 17t-14 12.5t-22 4.5q-11 0 -21 -4t-15.5 -11.5t-5.5 -18.5q0 -9 4.5 -16.5t13.5 -12
t22 -4.5zM651 127l-101 31v7q-47 7 -62 28t-15 52q0 34 13 58t36.5 39t56 22t72.5 7q80 0 130 -28.5t50 -95.5q0 -29 -15 -52t-62 -30v-7z" />
    <glyph glyph-name="threeeighths" unicode="&#x215c;" horiz-adv-x="1001" 
d="M192 292q-83 0 -129.5 29t-48.5 87l127 30q3 -14 9.5 -23.5t17 -14t25.5 -4.5q26 0 38 10.5t12 24.5q0 16 -13 28.5t-46.5 17t-95.5 -6.5v73l119 43v6l-179 -2v110h328v-118l-128 -53v-6q81 11 119 -18t38 -83q0 -61 -47 -95.5t-146 -34.5zM219 0l390 660h156l-390 -660
h-156zM787 -50q-59 0 -103 12t-68 38t-24 66q0 41 24 65.5t70 27.5v7l101 24l103 -24v-7q33 -3 53 -16t29.5 -32.5t9.5 -44.5q0 -40 -24.5 -66t-68 -38t-102.5 -12zM787 49q14 0 26 4.5t19 13t7 20.5q0 13 -8.5 20.5t-20 10.5t-22.5 3q-12 0 -23.5 -4t-19.5 -11.5t-8 -19.5
q0 -11 7 -19.5t18.5 -13t24.5 -4.5zM787 207q14 0 23.5 4.5t14.5 12t5 16.5t-5 17t-14 12.5t-22 4.5q-11 0 -21 -4t-15.5 -11.5t-5.5 -18.5q0 -9 4.5 -16.5t13.5 -12t22 -4.5zM787 127l-101 31v7q-47 7 -62 28t-15 52q0 34 13 58t36.5 39t56 22t72.5 7q80 0 130 -28.5
t50 -95.5q0 -29 -15 -52t-62 -30v-7z" />
    <glyph glyph-name="fiveeighths" unicode="&#x215d;" horiz-adv-x="999" 
d="M200 292q-53 0 -93.5 14t-63 39.5t-22.5 61.5l136 21q2 -16 14.5 -23.5t27.5 -7.5t26 9t11 31q0 15 -5.5 25t-14.5 15t-20 5q-10 0 -19.5 -4t-19.5 -14h-132l19 235h323v-113h-207l-7 -66h7q14 23 39.5 33.5t63.5 10.5t65 -16t41 -43.5t14 -63.5q0 -51 -22.5 -84
t-63.5 -49t-97 -16zM217 0l390 660h156l-390 -660h-156zM785 -50q-59 0 -103 12t-68 38t-24 66q0 41 24 65.5t70 27.5v7l101 24l103 -24v-7q33 -3 53 -16t29.5 -32.5t9.5 -44.5q0 -40 -24.5 -66t-68 -38t-102.5 -12zM785 49q14 0 26 4.5t19 13t7 20.5q0 13 -8.5 20.5
t-20 10.5t-22.5 3q-12 0 -23.5 -4t-19.5 -11.5t-8 -19.5q0 -11 7 -19.5t18.5 -13t24.5 -4.5zM785 207q14 0 23.5 4.5t14.5 12t5 16.5t-5 17t-14 12.5t-22 4.5q-11 0 -21 -4t-15.5 -11.5t-5.5 -18.5q0 -9 4.5 -16.5t13.5 -12t22 -4.5zM785 127l-101 31v7q-47 7 -62 28t-15 52
q0 34 13 58t36.5 39t56 22t72.5 7q80 0 130 -28.5t50 -95.5q0 -29 -15 -52t-62 -30v-7z" />
    <glyph glyph-name="seveneighths" unicode="&#x215e;" horiz-adv-x="903" 
d="M61 300q0 47 17.5 94.5t53.5 95.5t89 96v6l-207 -4v112h331v-107q-19 -16 -40.5 -48.5t-40.5 -73.5t-30.5 -85.5t-11.5 -85.5h-161zM121 0l390 660h156l-390 -660h-156zM689 -50q-59 0 -103 12t-68 38t-24 66q0 41 24 65.5t70 27.5v7l101 24l103 -24v-7q33 -3 53 -16
t29.5 -32.5t9.5 -44.5q0 -40 -24.5 -66t-68 -38t-102.5 -12zM689 49q14 0 26 4.5t19 13t7 20.5q0 13 -8.5 20.5t-20 10.5t-22.5 3q-12 0 -23.5 -4t-19.5 -11.5t-8 -19.5q0 -11 7 -19.5t18.5 -13t24.5 -4.5zM689 207q14 0 23.5 4.5t14.5 12t5 16.5t-5 17t-14 12.5t-22 4.5
q-11 0 -21 -4t-15.5 -11.5t-5.5 -18.5q0 -9 4.5 -16.5t13.5 -12t22 -4.5zM689 127l-101 31v7q-47 7 -62 28t-15 52q0 34 13 58t36.5 39t56 22t72.5 7q80 0 130 -28.5t50 -95.5q0 -29 -15 -52t-62 -30v-7z" />
    <glyph glyph-name="arrowleft" unicode="&#x2190;" horiz-adv-x="590" 
d="M263 34h-156q-3 69 -30 124.5t-73 81.5v71q32 17 54.5 48t34.5 71.5t14 84.5h164q-3 -34 -15 -67t-32.5 -61.5t-49.5 -49.5v-4l412 14v-144l-412 14v-4q28 -16 47 -45t29.5 -64t12.5 -70z" />
    <glyph glyph-name="arrowup" unicode="&#x2191;" horiz-adv-x="495" 
d="M488 411q-34 2 -69.5 10t-64.5 25t-45 44h-4l14 -490h-144l14 490h-4q-21 -28 -49.5 -46.5t-61.5 -28t-67 -12.5v164q44 2 84.5 11.5t72 29.5t47.5 52h71q18 -30 48.5 -50t71 -30.5t86.5 -12.5v-156z" />
    <glyph glyph-name="arrowright" unicode="&#x2192;" horiz-adv-x="590" 
d="M327 34q2 35 12.5 70t30 64t46.5 45v4l-412 -14v144l412 -14v4q-28 21 -49 49.5t-33 61.5t-15 67h164q2 -44 14.5 -84.5t34.5 -71.5t54 -48v-71q-46 -26 -73 -81.5t-30 -124.5h-156z" />
    <glyph glyph-name="arrowdown" unicode="&#x2193;" horiz-adv-x="509" 
d="M14 249q35 -2 70 -10t64 -24.5t45 -44.5h4l-14 490h144l-14 -490h4q21 29 49.5 47t61.5 27.5t67 12.5v-164q-44 -2 -84.5 -11.5t-71.5 -29.5t-48 -52h-71q-17 31 -48 50.5t-71.5 30t-86.5 12.5v156z" />
    <glyph glyph-name="partialdiff" unicode="&#x2202;" horiz-adv-x="585" 
d="M407 219q-9 28 -21.5 49t-28.5 35.5t-35 21.5t-42 7q-34 0 -55 -14.5t-30 -38.5t-9 -51q0 -25 8.5 -51.5t30 -44.5t59.5 -18q25 0 46.5 10t38 31.5t25.5 57.5t9 87q-4 38 -15.5 73t-33 64.5t-55.5 50.5t-82 31.5t-113 7.5l27 137q101 -1 174 -27t122 -68.5t77.5 -95
t41 -107t12.5 -103.5q0 -55 -13 -99.5t-37.5 -78t-58.5 -56t-76.5 -33.5t-91.5 -11q-62 0 -110 17t-81.5 48t-50.5 74.5t-17 95.5q0 72 28.5 119t73 70t91.5 23q38 0 73.5 -14.5t63 -40.5t40.5 -61h15v-97z" />
    <glyph glyph-name="emptyset" unicode="&#x2205;" horiz-adv-x="681" 
d="M338 -14q-70 0 -127.5 21.5t-98.5 62t-63 98t-22 129.5q0 77 23.5 136t66.5 99.5t100.5 61t126.5 20.5q70 0 127 -21t98 -61.5t63 -98.5t22 -132q0 -75 -23 -133.5t-65.5 -99t-100.5 -61.5t-127 -21zM343 119q26 0 51.5 8.5t46.5 28.5t33.5 53.5t12.5 82.5q0 43 -10 78
t-29.5 60t-46.5 38.5t-61 13.5q-20 0 -40.5 -5.5t-39.5 -18t-33.5 -33t-23 -51t-8.5 -72.5q0 -49 12 -84t32.5 -57t47 -32t56.5 -10zM29 -16l492 632h117l-491 -632h-118z" />
    <glyph glyph-name="uni2206" unicode="&#x2206;" horiz-adv-x="679" 
d="M4 0l231 660h210l230 -660h-175l-158 529h-6l-159 -529h-173zM129 0v134h441v-134h-441z" />
    <glyph glyph-name="product" unicode="&#x220f;" horiz-adv-x="637" 
d="M435 -148v808h162v-808h-162zM40 -148v808h162v-808h-162zM161 524v136h359v-136h-359z" />
    <glyph glyph-name="summation" unicode="&#x2211;" horiz-adv-x="513" 
d="M5 -148v139l171 268l-171 262v139h496v-138h-329v-3l167 -260l-167 -266v-3h329v-138h-496z" />
    <glyph glyph-name="minus" unicode="&#x2212;" horiz-adv-x="486" 
d="M41 251v142h404v-142h-404z" />
    <glyph glyph-name="radical" unicode="&#x221a;" horiz-adv-x="620" 
d="M220 0l-113 386h152l65 -252h3l134 526h155l-188 -660h-208zM14 251v135h245l-60 -135h-185z" />
    <glyph glyph-name="infinity" unicode="&#x221e;" horiz-adv-x="885" 
d="M363 272q-11 33 -25.5 54.5t-33 31.5t-40.5 10q-24 0 -43.5 -11t-31.5 -33t-12 -55q0 -36 13.5 -57t33.5 -30.5t39 -9.5q25 0 44.5 13.5t33.5 36.5t22 50zM503 270l-56 -106h-9q-16 -33 -42.5 -62t-65.5 -47t-92 -18q-63 0 -111.5 28t-76.5 80.5t-28 127.5q0 74 27 125
t76.5 78t114.5 27q53 0 90.5 -16.5t63.5 -45t44 -65.5h9zM522 272q9 -27 23 -50t33.5 -36.5t44.5 -13.5q19 0 38.5 9.5t33 30.5t13.5 57q0 33 -11.5 55t-31 33t-43.5 11q-22 0 -40.5 -10t-33.5 -31.5t-26 -54.5zM382 270l56 106h9q18 37 44 65.5t64 45t90 16.5q66 0 115 -27
t76 -78t27 -125q0 -75 -27.5 -127.5t-76.5 -80.5t-112 -28q-53 0 -92 18t-65.5 47t-42.5 62h-9z" />
    <glyph glyph-name="integral" unicode="&#x222b;" horiz-adv-x="445" 
d="M131 -160q-21 0 -50.5 7t-68.5 35l25 117q24 -14 46.5 -19t39 6t18.5 45l34 473q6 85 45 125.5t103 40.5q30 0 56 -9.5t54 -32.5l-16 -117q-23 13 -43.5 18.5t-33.5 -5.5t-16 -46l-35 -472q-6 -85 -44.5 -125.5t-113.5 -40.5z" />
    <glyph glyph-name="approxequal" unicode="&#x2248;" horiz-adv-x="486" 
d="M386 328q-22 0 -56.5 6t-71.5 13.5t-67 13.5t-43 6q-18 0 -21 -12.5t0 -29.5h-94q-26 50 -21.5 88.5t31.5 61t66 22.5q21 0 54 -5.5t69 -13t65.5 -13t42.5 -5.5q17 0 20 12t0 30h94q22 -47 20 -86.5t-24.5 -63.5t-63.5 -24zM386 126q-22 0 -56.5 6t-71.5 13.5t-67 13.5
t-43 6q-18 0 -21 -12.5t0 -29.5h-94q-26 50 -21.5 88.5t31.5 61t66 22.5q21 0 54 -5.5t69 -13t65.5 -13t42.5 -5.5q17 0 20 12t0 30h94q22 -47 20 -86.5t-24.5 -63.5t-63.5 -24z" />
    <glyph glyph-name="notequal" unicode="&#x2260;" horiz-adv-x="486" 
d="M201 83h-131l216 483h131zM41 347v142h404v-142h-404zM41 153v142h404v-142h-404z" />
    <glyph glyph-name="lessequal" unicode="&#x2264;" horiz-adv-x="486" 
d="M445 231l-404 99v183l404 119v-156l-269 -51v-4l269 -34v-156zM445 61h-404v142h404v-142z" />
    <glyph glyph-name="greaterequal" unicode="&#x2265;" horiz-adv-x="486" 
d="M41 231v156l269 34v4l-269 51v156l404 -119v-183zM41 61v142h404v-142h-404z" />
    <glyph glyph-name="uni27E8" unicode="&#x27e8;" horiz-adv-x="305" 
d="M160 271l133 -402h-156l-132 402l132 389h156z" />
    <glyph glyph-name="uni27E9" unicode="&#x27e9;" horiz-adv-x="305" 
d="M145 271l-133 389h156l132 -389l-132 -402h-156z" />
    <glyph glyph-name="i.loclTRK" horiz-adv-x="234" 
d="M36 0v528h162v-528h-162zM116 566q-46 0 -70.5 19.5t-24.5 56.5q0 38 24.5 57.5t70.5 19.5q47 0 71.5 -20t24.5 -57q0 -36 -24.5 -56t-71.5 -20z" />
    <glyph glyph-name="zero.osf" horiz-adv-x="594" 
d="M294 -11q-65 0 -115 18t-84 52.5t-51 85t-17 114.5q0 91 31.5 154t92.5 96t149 33q87 0 146.5 -32t90 -94t30.5 -153q0 -65 -17.5 -116t-52 -86t-85.5 -53.5t-118 -18.5zM299 115q27 0 46 8t31 24.5t17.5 43.5t5.5 65q0 56 -10.5 91.5t-33 52t-59.5 16.5q-35 0 -57.5 -16
t-33 -49.5t-10.5 -87.5q0 -52 11 -84.5t34 -48t59 -15.5z" />
    <glyph glyph-name="one.osf" horiz-adv-x="310" 
d="M108 0v306h-88v139q28 0 50 6t37 23.5t21 53.5h142v-528h-162z" />
    <glyph glyph-name="two.osf" horiz-adv-x="503" 
d="M33 0v159l219 127q25 15 39 29t19.5 27t5.5 25q0 26 -19 35.5t-42 9.5q-31 0 -47.5 -11t-23 -27t-7 -31.5t-0.5 -23.5l-153 16q-5 66 20.5 112t79 70.5t131.5 24.5q71 0 120.5 -20t75.5 -58.5t26 -93.5q0 -37 -11.5 -67t-33 -54t-51.5 -43t-66 -34l-93 -38v-3l260 2v-133
h-449z" />
    <glyph glyph-name="three.osf" horiz-adv-x="545" 
d="M266 -157q-60 0 -107.5 14t-81 41t-50.5 67.5t-15 93.5l151 23q-1 -21 5 -41t19.5 -36t34.5 -25.5t50 -9.5q33 0 55.5 12t34 33.5t11.5 48.5q0 37 -24 60.5t-77.5 31t-142.5 -2.5v95l171 142v4h-256v134h459v-131l-192 -156v-5q76 4 126.5 -18t76.5 -63.5t26 -95.5
q0 -57 -30 -106.5t-90.5 -79.5t-153.5 -30z" />
    <glyph glyph-name="four.osf" horiz-adv-x="617" 
d="M15 0v151q48 49 81.5 95t57.5 91.5t42.5 92.5t37.5 98h274v-676h-161v555h-4q-17 -53 -41 -102t-52 -90.5t-61 -75.5v-4h405v-135h-579z" />
    <glyph glyph-name="five.osf" horiz-adv-x="565" 
d="M269 -157q-86 0 -141 26t-80.5 74.5t-23.5 113.5l152 14q0 -41 25 -68.5t71 -27.5q52 0 76 34t24 86q0 28 -6 49t-17 35.5t-27 21.5t-37 7q-15 0 -29 -4t-25 -12t-19 -20t-12 -28h-172l15 384h469v-134h-318l-8 -205h4q11 58 50 93.5t109 35.5q63 0 105.5 -28.5t64 -79.5
t21.5 -119q0 -60 -17.5 -106.5t-52 -78t-85 -47.5t-116.5 -16z" />
    <glyph glyph-name="six.osf" horiz-adv-x="612" 
d="M328 -14q-147 0 -224 87.5t-77 250.5q0 116 37 193.5t103.5 117t155.5 39.5q48 0 91.5 -12t77 -37.5t51.5 -66t15 -97.5l-152 -16q0 38 -15 58.5t-36 28.5t-41 8q-31 0 -54.5 -15t-39.5 -42t-24 -63t-8 -79q0 -22 3 -50.5t8 -57.5h5q-2 56 14 91t42.5 54.5t57.5 26.5
t58 7q57 0 105 -22.5t76.5 -67.5t28.5 -111q0 -39 -13 -79t-42.5 -73t-79 -53t-123.5 -20zM323 115q23 0 41.5 6.5t31.5 19t20 29.5t7 37q0 29 -12 49.5t-33.5 31.5t-50.5 11q-30 0 -53 -12t-36 -33.5t-13 -51.5q0 -20 7 -36t20 -27.5t31 -17.5t40 -6z" />
    <glyph glyph-name="seven.osf" horiz-adv-x="488" 
d="M94 -148q0 76 16 149t46.5 141t74 130.5t98.5 117.5v4h-317v134h465v-134q-36 -39 -72 -97t-66.5 -129.5t-48.5 -152t-18 -163.5h-178z" />
    <glyph glyph-name="eight.osf" horiz-adv-x="588" 
d="M294 -14q-81 0 -142.5 20t-95.5 61.5t-34 105.5q0 45 17.5 79t55 55.5t96.5 26.5v7l103 25l103 -25v-7q57 -5 94.5 -25.5t56 -54.5t18.5 -81q0 -64 -34 -105.5t-95 -61.5t-143 -20zM296 121q18 0 36 3.5t33.5 12t24.5 23.5t9 39q0 28 -13 44.5t-36.5 24t-55.5 7.5
t-55.5 -7.5t-36 -24t-12.5 -44.5q0 -23 9 -38t24.5 -24t34.5 -12.5t38 -3.5zM294 391q25 0 43.5 7t29 23.5t10.5 43.5q0 22 -7.5 36.5t-20 22.5t-27 11.5t-28.5 3.5q-19 0 -38.5 -6t-32 -22t-12.5 -45q0 -28 11 -44.5t30 -23.5t42 -7zM294 296l-103 36v9q-51 7 -83 24.5
t-47.5 48t-15.5 74.5q0 64 32 105t88 61t129 20q76 0 132 -20.5t87 -62t31 -103.5q0 -61 -33 -98.5t-114 -48.5v-9z" />
    <glyph glyph-name="nine.osf" horiz-adv-x="583" 
d="M280 -156q-48 0 -94 13.5t-81 41t-54 70t-13 99.5l150 16q0 -28 9 -48.5t23.5 -33t31.5 -18.5t33 -6q28 0 49 16t35 44.5t21 65.5t7 78q0 20 -1 39t-3 37.5t-5 37.5h-5q3 -54 -11.5 -89.5t-39 -56t-53.5 -29t-57 -8.5q-51 0 -96 24t-72.5 69.5t-27.5 109.5q0 39 12 79
t40 73t74 53.5t115 20.5q95 0 159 -41.5t97 -119.5t33 -188q0 -114 -34.5 -191.5t-96.5 -117.5t-145 -40zM273 226q27 0 47 13t31 35.5t11 49.5q0 28 -10.5 47.5t-30 30.5t-46.5 11q-19 0 -35.5 -6.5t-28 -19t-18 -29.5t-6.5 -38q0 -27 10.5 -48t30 -33.5t45.5 -12.5z" />
    <glyph glyph-name="zero.tf" horiz-adv-x="580" 
d="M287 -14q-61 0 -109 23.5t-81 67.5t-50 106.5t-17 140.5q0 112 31 190t90 119t142 41q82 0 139 -40.5t87.5 -118t30.5 -187.5q0 -79 -17.5 -142t-51 -107.5t-82.5 -68.5t-112 -24zM292 115q23 0 40 12.5t28 38t16.5 64.5t5.5 91q0 74 -10 123.5t-30.5 74.5t-52.5 25
q-22 0 -39.5 -13.5t-28.5 -40.5t-17 -67.5t-6 -95.5q0 -53 6 -92.5t18 -66t29.5 -40t40.5 -13.5z" />
    <glyph glyph-name="one.tf" horiz-adv-x="580" 
d="M219 0v438h-128v139q48 0 78 6t47 23.5t23 53.5h142v-660h-162zM40 0v134h500v-134h-500z" />
    <glyph glyph-name="two.tf" horiz-adv-x="580" 
d="M26 0v166l260 167q22 14 40.5 29.5t32 32.5t21 34.5t7.5 36.5q0 23 -12.5 40t-35 26t-54.5 9q-34 0 -57 -12t-36 -31.5t-16.5 -42t1.5 -44.5l-154 15q-11 78 18 133.5t93 85t156 29.5q82 0 140 -23.5t89 -68.5t31 -108q0 -47 -15 -84.5t-42 -68t-61.5 -55.5t-73.5 -47
l-145 -82v-4l347 2v-135h-534z" />
    <glyph glyph-name="three.tf" horiz-adv-x="580" 
d="M274 -14q-61 0 -110 12t-83 37.5t-51 64t-15 92.5l151 23q-1 -21 5 -39.5t20 -32.5t36.5 -22t53.5 -8q30 0 53 9.5t36 28.5t13 48q0 41 -24.5 66t-79 33t-144.5 -2v95l184 132v4h-272v134h465v-127l-207 -150v-5q62 3 108 -10.5t76.5 -41t45.5 -64t15 -78.5
q0 -60 -30.5 -104.5t-92 -69.5t-153.5 -25z" />
    <glyph glyph-name="four.tf" horiz-adv-x="580" 
d="M10 119v151q37 47 65 89t51 86.5t43.5 96.5t41.5 119h262v-661h-160v540h-4q-16 -55 -37 -105t-46 -94t-53 -83v-4h382v-135h-545z" />
    <glyph glyph-name="five.tf" horiz-adv-x="580" 
d="M277 -14q-86 0 -142 23.5t-81.5 69.5t-23.5 111l152 14q0 -41 25.5 -63.5t72.5 -22.5q53 0 77.5 29t24.5 81q0 28 -6 49t-17.5 35.5t-28 21.5t-37.5 7q-16 0 -30 -4t-25 -12t-19 -20t-12 -28h-165l32 384h448v-134h-311l-19 -205h5q7 39 27 68t53 45t80 16
q63 0 106 -28.5t65 -79.5t22 -119q0 -80 -31.5 -133t-92 -79t-149.5 -26z" />
    <glyph glyph-name="six.tf" horiz-adv-x="580" 
d="M310 -14q-137 0 -208.5 87.5t-71.5 250.5q0 116 35 193.5t97 117t144 39.5q44 0 84.5 -12t72 -37.5t48 -66t13.5 -97.5l-150 -16q0 38 -13 58.5t-31 28.5t-34 8q-26 0 -46 -15t-33.5 -42.5t-20.5 -63.5t-7 -78q0 -29 2.5 -55t6.5 -53h4q-2 56 13 91t39.5 54.5t51.5 26.5
t50 7q52 0 96 -22.5t71 -67.5t27 -111q0 -39 -12 -79t-39 -73t-73.5 -53t-115.5 -20zM305 115q18 0 33.5 6.5t26.5 19t17.5 29.5t6.5 37q0 29 -10 49.5t-28.5 31.5t-43.5 11q-39 0 -63 -26.5t-24 -70.5q0 -26 10 -46t29.5 -30.5t45.5 -10.5z" />
    <glyph glyph-name="seven.tf" horiz-adv-x="580" 
d="M136 0q0 70 17.5 140t51.5 137t82.5 129t110.5 117v4h-358v134h510v-134q-43 -39 -84.5 -97t-75.5 -128.5t-54 -147.5t-20 -154h-180z" />
    <glyph glyph-name="eight.tf" horiz-adv-x="580" 
d="M290 -14q-82 0 -144 20t-96.5 61.5t-34.5 105.5q0 45 18 79t56 55.5t97 26.5v7l104 25l104 -25v-7q57 -5 95 -25.5t57 -54.5t19 -81q0 -64 -34.5 -105.5t-96 -61.5t-144.5 -20zM292 118q18 0 37.5 4t36 13t26.5 24.5t10 39.5q0 28 -14.5 44.5t-39.5 24t-58 7.5
t-57.5 -7.5t-38.5 -24t-14 -44.5q0 -23 10 -38.5t26.5 -25t36.5 -13.5t39 -4zM290 391q25 0 44.5 7t31 23.5t11.5 43.5q0 22 -8 37t-21 23.5t-28.5 12.5t-29.5 4q-20 0 -39.5 -7t-32.5 -23.5t-13 -45.5q0 -28 11.5 -44.5t30.5 -23.5t43 -7zM290 296l-104 36v9q-51 7 -84 25
t-48.5 48t-15.5 74q0 64 32 105t89 61t131 20q77 0 133.5 -20.5t88 -62t31.5 -103.5q0 -60 -33 -98t-116 -49v-9z" />
    <glyph glyph-name="nine.tf" horiz-adv-x="580" 
d="M270 -14q-44 0 -87 12t-77 37.5t-52.5 66.5t-12.5 98l150 16q0 -29 8 -47.5t21 -29t27.5 -15t27.5 -4.5q29 0 50.5 15t36 41.5t22 62t7.5 77.5q0 17 -1 35.5t-2.5 38t-3.5 38.5h-6q3 -54 -11 -88.5t-38 -54.5t-52.5 -28t-56.5 -8q-48 0 -91.5 23t-71 68t-27.5 111
q0 38 11.5 77t39 72t74 53.5t115.5 20.5q91 0 153.5 -41.5t94.5 -119t32 -185.5q0 -115 -35.5 -191t-98.5 -113.5t-146 -37.5zM272 362q27 0 46 12t29.5 34t10.5 51q0 26 -10 45t-28.5 30t-45.5 11q-18 0 -33 -6.5t-26.5 -19t-17.5 -29t-6 -36.5q0 -28 10 -49t28.5 -32
t42.5 -11z" />
    <glyph glyph-name="zero.tosf" horiz-adv-x="570" 
d="M282 -11q-61 0 -108 18t-79 52.5t-48.5 85t-16.5 114.5q0 91 29.5 154t87 96t141.5 33q82 0 138 -32t85 -94t29 -153q0 -65 -17 -116t-49.5 -86t-80.5 -53.5t-111 -18.5zM287 115q24 0 40 8t26.5 25t15 44t4.5 64q0 56 -9 91.5t-28.5 52t-51.5 16.5q-30 0 -49.5 -16
t-28.5 -49.5t-9 -87.5q0 -52 9.5 -84.5t29.5 -48t51 -15.5z" />
    <glyph glyph-name="one.tosf" horiz-adv-x="570" 
d="M218 0v306h-108v139q28 0 54.5 6t47 23.5t26.5 53.5h142v-528h-162zM40 134h490v-134h-490v134z" />
    <glyph glyph-name="two.tosf" horiz-adv-x="570" 
d="M49 0v159l235 127q19 10 33 20.5t24 20.5t15 20t5 20q0 26 -22 35.5t-52 9.5q-33 0 -52 -11t-28 -27t-10.5 -31.5t0.5 -23.5l-155 16q-7 66 19.5 112t84 70.5t141.5 24.5q75 0 128 -20t81 -58.5t28 -93.5q0 -35 -11.5 -64.5t-34 -54t-54.5 -44t-74 -34.5l-110 -39v-3
l290 2v-133h-481z" />
    <glyph glyph-name="three.tosf" horiz-adv-x="570" 
d="M270 -157q-58 0 -105 14t-80.5 41t-50 67.5t-14.5 93.5l151 23q-1 -21 4.5 -41t18.5 -36t33.5 -25.5t48.5 -9.5q32 0 53.5 12t32.5 33.5t11 48.5q0 37 -23.5 60t-75.5 31t-140 -2v95l167 142v4h-249v134h452v-131l-188 -156v-5q74 4 123.5 -18t75 -63.5t25.5 -95.5
q0 -57 -29.5 -106.5t-89.5 -79.5t-151 -30z" />
    <glyph glyph-name="four.tosf" horiz-adv-x="570" 
d="M20 0v151q33 45 59 90.5t47 92t38.5 95t33.5 99.5h270v-676h-158v575h-4q-18 -57 -40.5 -110t-46.5 -98t-47 -80v-4h373v-135h-525z" />
    <glyph glyph-name="five.tosf" horiz-adv-x="570" 
d="M272 -157q-85 0 -139.5 26t-79.5 74.5t-23 113.5l152 14q0 -41 24 -68.5t69 -27.5q50 0 73.5 34t23.5 86q0 28 -6 49t-16.5 35.5t-26 21.5t-35.5 7q-15 0 -28 -4t-24 -12t-19 -20t-12 -28h-171l14 384h464v-134h-313l-8 -205h4q11 58 49 93.5t108 35.5q62 0 103.5 -28.5
t63 -79.5t21.5 -119q0 -60 -17.5 -106.5t-51.5 -78t-84 -47.5t-115 -16z" />
    <glyph glyph-name="six.tosf" horiz-adv-x="570" 
d="M304 -14q-135 0 -204.5 87.5t-69.5 250.5q0 116 34 193.5t95 117t141 39.5q44 0 84 -12t70.5 -37.5t47 -66t13.5 -97.5l-150 -16q1 38 -11.5 58.5t-30 28.5t-32.5 8q-25 0 -44 -15t-32 -42t-19.5 -63t-6.5 -79q0 -16 1.5 -47.5t5.5 -60.5h5q-1 56 13 91t37.5 54.5
t50 26.5t49.5 7q51 0 94 -22.5t69 -67.5t26 -111q0 -39 -11.5 -79t-38.5 -73t-72.5 -53t-113.5 -20zM300 115q17 0 31.5 6.5t25 19t16.5 29.5t6 37q0 29 -9.5 49.5t-27 31.5t-42.5 11q-37 0 -59 -26.5t-22 -70.5q0 -26 9.5 -46t27.5 -30.5t44 -10.5z" />
    <glyph glyph-name="seven.tosf" horiz-adv-x="570" 
d="M130 -148q0 76 17 149t49 141.5t78.5 130.5t105.5 117v4h-340v134h490v-134q-40 -39 -79 -97t-71 -129.5t-51.5 -152t-19.5 -163.5h-179z" />
    <glyph glyph-name="eight.tosf" horiz-adv-x="570" 
d="M285 -14q-80 0 -141 20t-95 61.5t-34 105.5q0 44 17.5 78.5t54.5 56t96 26.5v7l102 25l102 -25v-7q57 -5 94 -25.5t55.5 -55t18.5 -80.5q0 -64 -34 -105.5t-94.5 -61.5t-141.5 -20zM287 121q18 0 35.5 3.5t32.5 12t24 23.5t9 39q0 28 -13 44.5t-36 24t-54 7.5
q-32 0 -55 -7.5t-35 -24t-12 -44.5q0 -23 9 -38t24 -24t33.5 -12.5t37.5 -3.5zM285 391q24 0 42.5 7t28.5 23.5t10 43.5q0 22 -7.5 36.5t-19.5 22.5t-26 11.5t-28 3.5q-19 0 -37.5 -6t-31 -22t-12.5 -45q0 -28 10.5 -44.5t29 -23.5t41.5 -7zM285 296l-102 36v9q-51 7 -83 25
t-47 48t-15 74q0 64 31.5 105t87.5 61t128 20q75 0 131 -20.5t86.5 -62t30.5 -103.5q0 -61 -32.5 -98.5t-113.5 -48.5v-9z" />
    <glyph glyph-name="nine.tosf" horiz-adv-x="570" 
d="M275 -156q-46 0 -90 13.5t-78.5 41t-52.5 70t-12 99.5l149 16q0 -38 14.5 -61.5t35 -34t39.5 -10.5q25 0 44 16t32 44.5t19.5 65.5t6.5 78q0 19 -1 37t-2.5 37t-4.5 40h-4q2 -54 -11.5 -89.5t-37 -56t-50.5 -29t-53 -8.5q-48 0 -91 24t-70 69.5t-27 109.5q0 39 11.5 79
t38 73t71.5 53.5t111 20.5q91 0 153 -41.5t93.5 -119.5t31.5 -188q0 -114 -33.5 -191.5t-93 -117.5t-138.5 -40zM269 226q25 0 43 13t28 35.5t10 49.5q0 28 -9.5 47.5t-27.5 30.5t-43 11q-17 0 -31.5 -6.5t-25.5 -19t-17 -29.5t-6 -38q0 -26 9.5 -47.5t27.5 -34t42 -12.5z
" />
    <glyph glyph-name="zero.dnom" horiz-adv-x="436" 
d="M215 -48q-58 0 -102 22t-68.5 68t-24.5 116q0 74 26.5 120.5t71.5 69t102 22.5t101 -22t69.5 -67.5t25.5 -118.5q0 -75 -26.5 -121t-72 -67.5t-102.5 -21.5zM220 59q8 0 20.5 5t22.5 24.5t10 62.5q0 58 -15.5 84.5t-40.5 26.5q-7 0 -19.5 -6.5t-22.5 -28.5t-10 -68
q0 -41 9 -63t22 -29.5t24 -7.5z" />
    <glyph glyph-name="one.dnom" horiz-adv-x="244" 
d="M73 -40v217h-58v123q29 0 46.5 13t22.5 47h130v-400h-141z" />
    <glyph glyph-name="two.dnom" horiz-adv-x="408" 
d="M25 -40v131l181 91q14 7 22.5 12.5t12.5 12.5t4 16q0 17 -12 25.5t-31 8.5q-14 0 -25.5 -5.5t-17 -16t-3.5 -27.5l-137 14q-1 73 52.5 111t137.5 38q50 0 90 -14t63.5 -44t23.5 -78q0 -23 -6 -43t-19 -37t-33.5 -31.5t-48.5 -26.5l-82 -35v-6l189 26v-122h-361z" />
    <glyph glyph-name="three.dnom" horiz-adv-x="400" 
d="M192 -48q-83 0 -129.5 29t-48.5 87l127 30q3 -14 9.5 -23.5t17 -14t25.5 -4.5q26 0 38 10.5t12 24.5q0 16 -13 28.5t-46.5 17t-95.5 -6.5v73l119 43v6l-179 -2v110h328v-118l-128 -53v-6q81 11 119 -18t38 -83q0 -61 -47 -95.5t-146 -34.5z" />
    <glyph glyph-name="four.dnom" horiz-adv-x="436" 
d="M17 23v121q32 42 53.5 77.5t34.5 69t19 69.5h243v-400h-139v314h-6q-13 -36 -32.5 -68.5t-42.5 -67.5v-8h276v-107h-406z" />
    </font>
</defs>
</svg>
