<?xml version="1.0" standalone="no"?>
<!DOCTYPE svg PUBLIC "-//W3C//DTD SVG 1.1//EN" "http://www.w3.org/Graphics/SVG/1.1/DTD/svg11.dtd" >
<svg xmlns="http://www.w3.org/2000/svg" xmlns:xlink="http://www.w3.org/1999/xlink" version="1.1">
<metadata>
Created by FontForge 20201107 at Wed Jul 19 12:44:15 2023
 By 
Copyright 2022 The Bricolage Grotesque Project Authors (https://github.com/ateliertriay/bricolage)
</metadata>
<defs>
<font id="BricolageGrotesque-Medium" horiz-adv-x="0" >
  <font-face 
    font-family="Bricolage Grotesque Medium"
    font-weight="500"
    font-stretch="normal"
    units-per-em="1000"
    panose-1="2 11 6 5 4 4 2 0 2 4"
    ascent="800"
    descent="-200"
    x-height="519"
    cap-height="660"
    bbox="-185 -355 1333 1139.86"
    underline-thickness="50"
    underline-position="-125"
    unicode-range="U+0020-27E9"
  />
<missing-glyph horiz-adv-x="656" 
d="M82 -52v746h493v-746h-493zM157 23h343v596h-343v-596zM294 119q-44 0 -44 39q0 40 44 40q45 0 45 -40q0 -39 -45 -39zM264 238q-3 39 6.5 63t26 39t33.5 26t28.5 25.5t11.5 37.5q0 29 -18.5 43.5t-46.5 14.5q-15 0 -30.5 -4.5t-30.5 -13t-30 -21.5l-5 56q21 19 48 29
t54 10q33 0 61 -12.5t45 -36.5t17 -60q0 -31 -12.5 -50.5t-30.5 -33t-36 -26.5t-29 -33t-8 -53h-54z" />
    <glyph glyph-name=".notdef" horiz-adv-x="656" 
d="M82 -52v746h493v-746h-493zM157 23h343v596h-343v-596zM294 119q-44 0 -44 39q0 40 44 40q45 0 45 -40q0 -39 -45 -39zM264 238q-3 39 6.5 63t26 39t33.5 26t28.5 25.5t11.5 37.5q0 29 -18.5 43.5t-46.5 14.5q-15 0 -30.5 -4.5t-30.5 -13t-30 -21.5l-5 56q21 19 48 29
t54 10q33 0 61 -12.5t45 -36.5t17 -60q0 -31 -12.5 -50.5t-30.5 -33t-36 -26.5t-29 -33t-8 -53h-54z" />
    <glyph glyph-name=".null" 
 />
    <glyph glyph-name="nonmarkingreturn" horiz-adv-x="333" 
 />
    <glyph glyph-name="space" unicode=" " horiz-adv-x="246" 
 />
    <glyph glyph-name="exclam" unicode="!" horiz-adv-x="266" 
d="M99 185l-31 475h129l-30 -475h-68zM132 -12q-37 0 -55 16t-18 50q0 35 18 51t55 16q38 0 57 -16t19 -51q0 -66 -76 -66z" />
    <glyph glyph-name="quotedbl" unicode="&#x22;" horiz-adv-x="317" 
d="M42 462l-14 243h102l-15 -243h-73zM201 462l-14 243h102l-15 -243h-73z" />
    <glyph glyph-name="numbersign" unicode="#" horiz-adv-x="612" 
d="M298 0l149 660h97l-150 -660h-96zM23 187v84h543v-84h-543zM62 0l150 660h97l-150 -660h-97zM46 420v83h543v-83h-543z" />
    <glyph glyph-name="dollar" unicode="$" horiz-adv-x="630" 
d="M274 646l-21 137h110l-21 -137h-68zM253 -126l21 136h68l21 -136h-110zM315 0q-64 0 -113.5 13t-83.5 38.5t-51 63.5t-16 89l95 25q-2 -49 19 -81t61 -47.5t94 -15.5q51 0 86 12.5t53.5 34t18.5 49.5q0 32 -21.5 50.5t-58.5 29.5t-81 21q-47 10 -92 22.5t-82 33t-59 53.5
t-22 83q0 57 29.5 99t84 65t129.5 23q74 0 130.5 -22.5t89 -65.5t34.5 -104l-99 -25q0 33 -11 58t-31.5 41.5t-49 25t-64.5 8.5q-42 0 -73.5 -12t-49 -33.5t-17.5 -49.5q0 -33 25.5 -53.5t66.5 -32.5t88 -22q42 -9 84 -21t76.5 -32t55.5 -53t21 -84q0 -56 -30 -97.5t-89 -64
t-147 -22.5z" />
    <glyph glyph-name="percent" unicode="%" horiz-adv-x="947" 
d="M213 309q-51 0 -93 21t-66.5 63t-24.5 104q0 51 15.5 87.5t42 59t60 33t68.5 10.5q53 0 94.5 -21t66 -63t24.5 -105q0 -68 -27.5 -110t-70 -60.5t-89.5 -18.5zM217 394q22 0 43 10t34.5 32t13.5 59q0 40 -15 63t-36.5 33t-44.5 10t-43.5 -10t-33.5 -32t-13 -58
q0 -38 14 -61.5t36 -34.5t45 -11zM731 -30q-52 0 -94 21t-66 63.5t-24 104.5q0 51 15.5 87t42 58.5t60 33.5t68.5 11q52 0 93.5 -21t66 -63t24.5 -106q0 -68 -27 -109.5t-69.5 -60.5t-89.5 -19zM735 56q22 0 42.5 10t34 31.5t13.5 58.5q0 40 -14.5 63t-36.5 33.5t-45 10.5
q-22 0 -43 -10.5t-34 -32t-13 -58.5t14 -61t36.5 -34.5t45.5 -10.5zM213 0l399 660h109l-400 -660h-108z" />
    <glyph glyph-name="ampersand" unicode="&#x26;" horiz-adv-x="756" 
d="M561 -13q-52 0 -100.5 25t-91.5 67.5t-78 95t-61 109t-40 110.5t-14 98q0 49 19.5 90.5t60 66.5t103.5 25q57 0 96 -20.5t59.5 -54.5t20.5 -76q0 -34 -15.5 -65.5t-52.5 -57.5t-100 -43l-8 17q40 32 57.5 63.5t17.5 65.5q0 35 -18.5 59t-55.5 24q-27 0 -44 -12.5
t-24.5 -34t-7.5 -48.5q0 -32 11 -75t30.5 -89t45.5 -90t57 -79.5t64.5 -56.5t67.5 -21q28 0 44.5 14.5t16.5 37.5q0 25 -18.5 49t-53 43.5t-84.5 29.5v95h231v-84l-182 25v-20q103 -19 152 -59t49 -99q0 -35 -15 -59.5t-39 -38.5t-50.5 -20.5t-49.5 -6.5zM205 -13
q-51 0 -90.5 19.5t-61 55t-21.5 82.5q0 42 17.5 74t47 53.5t66.5 35t75 18.5l5 -26q-53 -24 -80.5 -57.5t-27.5 -72.5q0 -29 13 -52.5t38.5 -37t62.5 -13.5q34 0 61 14t51 37l25 -38h-24q-15 -28 -37 -48.5t-51.5 -32t-68.5 -11.5z" />
    <glyph glyph-name="quotesingle" unicode="'" horiz-adv-x="158" 
d="M42 462l-14 243h102l-15 -243h-73z" />
    <glyph glyph-name="parenleft" unicode="(" horiz-adv-x="305" 
d="M281 695q-28 -54 -48 -108t-32.5 -106t-18.5 -102.5t-6 -98.5q0 -75 13 -145t36.5 -133.5t56.5 -120.5h-119q-37 67 -59 134.5t-31.5 135.5t-9.5 136q0 66 9.5 134.5t31 137t58.5 136.5h119z" />
    <glyph glyph-name="parenright" unicode=")" horiz-adv-x="290" 
d="M9 695h119q37 -68 58.5 -136.5t31 -137t9.5 -134.5q0 -68 -9.5 -136t-31.5 -135.5t-59 -134.5h-119q33 57 56.5 120.5t36.5 133.5t13 145q0 48 -6 98.5t-18.5 102.5t-32.5 106t-48 108z" />
    <glyph glyph-name="asterisk" unicode="*" horiz-adv-x="395" 
d="M133 356l-84 61l98 92l-1 6l-134 22l30 100l121 -68l5 4l-23 132h104l-23 -132l6 -4l119 69l32 -101l-134 -22l-1 -6l101 -91l-83 -61l-65 120h-6z" />
    <glyph glyph-name="plus" unicode="+" horiz-adv-x="516" 
d="M212 113v397h92v-397h-92zM60 268v87h396v-87h-396z" />
    <glyph glyph-name="comma" unicode="," horiz-adv-x="165" 
d="M2 -135q18 46 25.5 84t9 73.5t1.5 72.5h102q0 -57 -7 -100t-19 -75t-24 -55h-88z" />
    <glyph glyph-name="hyphen" unicode="-" horiz-adv-x="339" 
d="M32 217v98h274v-98h-274z" />
    <glyph glyph-name="period" unicode="." horiz-adv-x="196" 
d="M97 -12q-37 0 -55.5 16t-18.5 50q0 35 19 51t55 16q38 0 57 -16t19 -51q0 -66 -76 -66z" />
    <glyph glyph-name="slash" unicode="/" horiz-adv-x="353" 
d="M-2 -85l254 789h103l-254 -789h-103z" />
    <glyph glyph-name="zero" unicode="0" horiz-adv-x="656" 
d="M328 -14q-61 0 -111 24t-85.5 68t-54.5 107t-19 141q0 111 35 188.5t96.5 118t140.5 40.5q83 0 143 -42t92.5 -119.5t32.5 -183.5q0 -78 -19 -141.5t-55 -108t-85.5 -68.5t-110.5 -24zM329 77q33 0 62 15t51 45.5t34.5 78t12.5 112.5q0 80 -20 137t-56 87.5t-84 30.5
q-41 0 -78.5 -25.5t-60.5 -81t-23 -146.5q0 -64 12 -111.5t34 -79t51.5 -47t64.5 -15.5z" />
    <glyph glyph-name="one" unicode="1" horiz-adv-x="320" 
d="M128 0v488h-96v96q46 0 76.5 15t39.5 61h90v-660h-110z" />
    <glyph glyph-name="two" unicode="2" horiz-adv-x="583" 
d="M47 0v121l242 175q20 16 41.5 34.5t40 41.5t30 49t11.5 57t-14 54t-41.5 36t-68.5 13q-31 0 -56 -9.5t-42 -29t-25 -50.5t-8 -75l-105 20q-2 73 25 126t80.5 82.5t132.5 29.5q69 0 121 -22.5t80.5 -64.5t28.5 -102q0 -48 -16 -88t-41.5 -72t-55.5 -57t-59 -44l-178 -129
v-8l365 4v-92h-488z" />
    <glyph glyph-name="three" unicode="3" horiz-adv-x="595" 
d="M280 -14q-62 0 -108 13.5t-76.5 38.5t-46.5 61t-19 79l100 30q2 -38 15 -63.5t34.5 -41t48 -22t54.5 -6.5q43 0 78 12t56 38t21 67q0 53 -32.5 83.5t-93 43t-144.5 7.5v67l229 170v8l-338 -2v92h447v-111l-212 -161v-8q92 2 147.5 -23t80 -68.5t24.5 -97.5
q0 -63 -29 -109t-88 -71.5t-148 -25.5z" />
    <glyph glyph-name="four" unicode="4" horiz-adv-x="595" 
d="M26 139v116q48 51 88.5 102.5t74 102.5t59 101.5t42.5 99.5h190v-661h-108v582h-9q-30 -70 -66.5 -131.5t-78 -113.5t-84.5 -98v-10h432v-90h-540z" />
    <glyph glyph-name="five" unicode="5" horiz-adv-x="599" 
d="M293 -14q-72 0 -125.5 22t-82.5 62t-30 95l102 23q5 -53 39 -82t96 -29q67 0 104 36t37 111q0 30 -6.5 56t-20.5 45.5t-37 31t-57 11.5q-27 0 -48 -7t-36 -19t-25.5 -27.5t-17.5 -33.5h-117l23 379h423v-93h-331l-15 -220h12q21 56 67.5 81t100.5 25q67 0 110.5 -28.5
t65 -79.5t21.5 -119q0 -85 -32.5 -138t-89.5 -77.5t-130 -24.5z" />
    <glyph glyph-name="six" unicode="6" horiz-adv-x="646" 
d="M346 -15q-138 0 -213 86t-75 252q0 110 32.5 188.5t95.5 121t154 42.5q46 0 85.5 -12t69.5 -35.5t49.5 -59t25.5 -82.5l-103 -26q-5 43 -24 70t-47 39t-61 12q-45 0 -78 -21t-53 -58t-30 -84t-10 -99q0 -30 4.5 -64t11.5 -64h10q-3 59 13 100t45 66.5t65 37.5t73 12
q55 0 101 -23t74.5 -68t28.5 -112q0 -42 -13.5 -81t-42.5 -70.5t-75.5 -49.5t-112.5 -18zM339 76q38 0 64.5 10.5t43.5 28.5t25 40.5t8 47.5q0 41 -18 68.5t-46.5 40.5t-61.5 13q-41 0 -72 -17t-48.5 -48.5t-17.5 -73.5q0 -33 11 -54t29 -33.5t39.5 -17.5t43.5 -5z" />
    <glyph glyph-name="seven" unicode="7" horiz-adv-x="493" 
d="M133 0q0 70 13.5 145.5t42 150.5t73 143.5t105.5 123.5v9l-341 -4v93h441v-99q-49 -48 -88.5 -109.5t-68 -133t-43.5 -152t-15 -167.5h-119z" />
    <glyph glyph-name="eight" unicode="8" horiz-adv-x="645" 
d="M322 -15q-80 0 -140.5 20t-94 60.5t-33.5 100.5q0 47 20.5 81t56 55t78.5 27v7l113 17l114 -16v-7q42 -5 77.5 -25t56.5 -55t21 -84q0 -60 -33.5 -100.5t-94 -60.5t-141.5 -20zM323 80q25 0 52 4.5t51 15.5t39.5 30.5t15.5 48.5q0 36 -23 61t-59 37.5t-77 12.5
q-40 0 -76 -12.5t-58 -36.5t-22 -61q0 -28 14.5 -47.5t38.5 -31t51.5 -16.5t52.5 -5zM322 377q33 0 63.5 11.5t50 35t19.5 58.5q0 28 -12.5 47t-33 30.5t-44 16.5t-46.5 5q-30 0 -60 -9t-50.5 -30.5t-20.5 -57.5q0 -35 19 -59.5t50 -36t65 -11.5zM322 306l-113 21v14
q-39 8 -69 27t-47 50.5t-17 74.5q0 61 31.5 101t87 60.5t127.5 20.5q76 0 130.5 -21.5t84 -62t29.5 -98.5q0 -61 -33 -99.5t-97 -52.5v-13z" />
    <glyph glyph-name="nine" unicode="9" horiz-adv-x="640" 
d="M301 -15q-50 0 -90.5 11t-71 33t-50.5 55t-28 76l102 27q7 -32 22 -53t34 -32.5t40.5 -16.5t43.5 -5q48 0 81 19t53.5 53t29.5 78.5t9 94.5q0 26 -2.5 50.5t-6 48.5t-7.5 46h-12q4 -58 -11 -99t-43.5 -67t-64.5 -38t-73 -12q-53 0 -98.5 24t-73.5 69.5t-28 109.5
q0 42 13.5 81t42 70t73.5 49t108 18q92 0 156.5 -41t98.5 -120t34 -194q0 -105 -31 -180.5t-93.5 -115t-156.5 -39.5zM289 335q38 0 68 17t47 48.5t17 73.5q0 44 -18 68t-45.5 33.5t-56.5 9.5q-35 0 -61 -10.5t-42.5 -28.5t-24.5 -40.5t-8 -47.5q0 -39 17.5 -67t45.5 -42
t61 -14z" />
    <glyph glyph-name="colon" unicode=":" horiz-adv-x="207" 
d="M102 19q-37 0 -55.5 16t-18.5 50q0 35 19 51t55 16q38 0 57 -16t19 -51q0 -66 -76 -66zM102 352q-37 0 -55.5 16t-18.5 50q0 35 19 51t55 16q38 0 57 -16t19 -51q0 -66 -76 -66z" />
    <glyph glyph-name="semicolon" unicode=";" horiz-adv-x="187" 
d="M3 -135q18 46 25.5 84t9 73.5t1.5 72.5h102q0 -57 -7 -100t-19 -75t-24 -55h-88zM87 352q-37 0 -55.5 16t-18.5 50q0 35 19 51t55 16q38 0 57 -16t19 -51q0 -66 -76 -66z" />
    <glyph glyph-name="less" unicode="&#x3c;" horiz-adv-x="516" 
d="M456 79l-396 180v138l396 179v-116l-303 -127v-14l303 -128v-112z" />
    <glyph glyph-name="equal" unicode="=" horiz-adv-x="516" 
d="M60 356v97h396v-97h-396zM60 161v97h396v-97h-396z" />
    <glyph glyph-name="greater" unicode="&#x3e;" horiz-adv-x="516" 
d="M60 79v112l303 128v14l-303 127v116l396 -179v-138z" />
    <glyph glyph-name="question" unicode="?" horiz-adv-x="413" 
d="M112 185q-5 52 5 86.5t29.5 57.5t42.5 40t44 33t34.5 36.5t13.5 50.5q0 45 -29.5 67.5t-72.5 22.5q-23 0 -49 -6.5t-51 -20t-48 -34.5l-9 95q24 20 51 33.5t56.5 20.5t60.5 7q40 0 76 -11t63.5 -33t43.5 -55t16 -76t-14.5 -71t-37 -48t-47.5 -37.5t-46.5 -37.5
t-33.5 -48.5t-9 -71.5h-89zM161 -12q-36 0 -54.5 16t-18.5 50q0 35 18.5 51t54.5 16q38 0 57 -16t19 -51q0 -66 -76 -66z" />
    <glyph glyph-name="at" unicode="@" horiz-adv-x="952" 
d="M476 -113q-98 0 -175 25t-130.5 73.5t-81.5 120.5t-28 167q0 94 28 166t81.5 121t130.5 74t175 25q97 0 174 -25t130.5 -74t82 -121t28.5 -166q0 -95 -28.5 -167t-82 -120.5t-130.5 -73.5t-174 -25zM476 -23q105 0 175.5 32.5t107.5 98t37 165.5t-36.5 165.5t-108 98
t-175.5 32.5q-105 0 -176.5 -32.5t-107.5 -98t-36 -165.5t36 -165.5t107.5 -98t176.5 -32.5zM438 143q16 0 32.5 4.5t32 15t29 26t23.5 38.5l-1 74l18 -5q-12 -15 -35.5 -21.5t-51 -11t-52 -10.5t-40.5 -19.5t-16 -38.5q0 -26 17.5 -39t43.5 -13zM407 78q-31 0 -59.5 11
t-47 34t-18.5 60t16.5 60t43 36t57.5 19.5t61 10.5q37 5 57.5 10.5t28.5 13.5t8 22q0 15 -8 27t-24 19.5t-42 7.5q-19 0 -40 -6t-36 -21.5t-19 -45.5l-90 25q5 31 21.5 54.5t41.5 39.5t57 24t69 8q51 0 84 -14.5t51 -39t25.5 -54t7.5 -59.5v-87q0 -17 0.5 -34.5t1 -35.5
t1.5 -36.5t1 -37.5h-78q-2 25 -4.5 49t-3.5 47h-13q-10 -35 -32 -59t-52.5 -36t-65.5 -12z" />
    <glyph glyph-name="A" unicode="A" horiz-adv-x="671" 
d="M26 0l230 660h159l230 -660h-118l-185 571h-13l-185 -571h-118zM141 142v80h403v-80h-403z" />
    <glyph glyph-name="B" unicode="B" horiz-adv-x="666" 
d="M82 0v660h252q58 0 104 -10t79 -31t50.5 -54t17.5 -79q0 -38 -15.5 -67t-48.5 -47.5t-87 -26.5v-13q93 -7 135.5 -48.5t42.5 -109.5q0 -57 -27.5 -95.5t-83.5 -58.5t-143 -20h-276zM186 91h178q71 0 106 23.5t35 72.5q0 56 -47 84t-141 28h-131v-208zM186 375h112
q91 0 135.5 24.5t44.5 74.5q0 49 -39 72.5t-117 23.5h-136v-195z" />
    <glyph glyph-name="C" unicode="C" horiz-adv-x="670" 
d="M369 -13q-73 0 -131 22t-98 64.5t-61 105t-21 143.5q0 82 21.5 147t61.5 110.5t96 69.5t125 24q53 0 98 -14.5t78 -41.5t51.5 -66t19.5 -88l-103 -26q1 48 -19.5 79.5t-54.5 47.5t-73 16q-36 0 -70 -14t-60.5 -44.5t-42 -78.5t-15.5 -116q0 -87 25.5 -141.5t71 -80
t104.5 -25.5t94 23t51.5 61.5t18.5 87.5l97 -17q-1 -51 -16 -96.5t-46.5 -79.5t-81.5 -53t-120 -19z" />
    <glyph glyph-name="D" unicode="D" horiz-adv-x="691" 
d="M137 0v92h194q64 0 106 29t62.5 82t20.5 125q0 62 -13 107.5t-39.5 74.5t-67 43.5t-94.5 14.5h-169v92h166q114 0 187 -39t108 -111.5t35 -174.5q0 -70 -16 -124.5t-43.5 -94t-65 -65.5t-82 -38.5t-92.5 -12.5h-197zM82 0v660h109v-660h-109z" />
    <glyph glyph-name="E" unicode="E" horiz-adv-x="599" 
d="M82 0v660h109v-660h-109zM146 0v92h414v-92h-414zM146 293v85h366v-85h-366zM146 569v91h413v-91h-413z" />
    <glyph glyph-name="F" unicode="F" horiz-adv-x="578" 
d="M82 0v660h109v-660h-109zM129 271v92h381v-92h-381zM129 565v95h422v-95h-422z" />
    <glyph glyph-name="G" unicode="G" horiz-adv-x="706" 
d="M339 -13q-81 0 -144.5 37.5t-100 112.5t-36.5 188q0 82 20 146t60 109t97.5 69t133.5 24q57 0 103 -14t80 -40t54.5 -63t23.5 -85l-104 -31q-3 50 -26 81t-58.5 45t-75.5 14q-59 0 -102.5 -26t-67.5 -81.5t-24 -143.5q0 -68 14.5 -115.5t40 -77t61 -43t76.5 -13.5
q50 0 86 18t58 55t27 94h-142v83h250v-106v-224h-83l13 176h-16q-14 -63 -41.5 -105t-70.5 -63t-106 -21z" />
    <glyph glyph-name="H" unicode="H" horiz-adv-x="708" 
d="M518 0v660h109v-660h-109zM82 0v660h109v-660h-109zM140 290v92h421v-92h-421z" />
    <glyph glyph-name="I" unicode="I" horiz-adv-x="274" 
d="M82 0v660h111v-660h-111z" />
    <glyph glyph-name="J" unicode="J" horiz-adv-x="357" 
d="M23 -8l-13 102q11 -2 21 -2.5t17 -0.5q50 0 76 15.5t35.5 47t9.5 79.5v427h109v-427q0 -76 -20.5 -130.5t-67 -83.5t-127.5 -29q-7 0 -16.5 0.5t-23.5 1.5z" />
    <glyph glyph-name="K" unicode="K" horiz-adv-x="666" 
d="M82 0v660h109v-309q54 20 103.5 52.5t91 73.5t71.5 88t45 95h123q-18 -55 -49 -105t-71.5 -92.5t-85 -74.5t-88.5 -51v-13q48 0 86.5 -12.5t69.5 -36.5t55.5 -61t44.5 -87l46 -127h-124l-29 99q-20 58 -48 95t-71 55t-111 18h-59v-267h-109z" />
    <glyph glyph-name="L" unicode="L" horiz-adv-x="508" 
d="M82 0v660h109v-660h-109zM111 0v94h378v-94h-378z" />
    <glyph glyph-name="M" unicode="M" horiz-adv-x="908" 
d="M82 0v660h167l207 -541h5l206 541h160v-660h-104l7 550h-9l-218 -550h-100l-216 550h-9l7 -550h-103z" />
    <glyph glyph-name="N" unicode="N" horiz-adv-x="746" 
d="M82 0v660h144l331 -515h9l-7 515h106v-660h-131l-344 531h-9l7 -531h-106z" />
    <glyph glyph-name="O" unicode="O" horiz-adv-x="716" 
d="M357 -13q-72 0 -127.5 23.5t-94 67.5t-58 107t-19.5 142q0 116 39 192.5t107 115t155 38.5q68 0 123 -22.5t94.5 -67t60.5 -109t21 -146.5q0 -80 -20 -143.5t-59 -107.5t-94.5 -67t-127.5 -23zM359 78q60 0 102 29t64 83.5t22 133.5q0 81 -22.5 138t-65 87.5t-102.5 30.5
q-58 0 -100.5 -29.5t-65 -85.5t-22.5 -138q0 -60 13 -106.5t37 -78t59.5 -48t80.5 -16.5z" />
    <glyph glyph-name="P" unicode="P" horiz-adv-x="629" 
d="M148 197v89h159q87 0 130.5 34t43.5 112q0 70 -40.5 105t-124.5 35h-168v88h170q65 0 115.5 -15t86 -44t54 -72.5t18.5 -100.5q0 -75 -34 -126.5t-100.5 -78t-164.5 -26.5h-145zM82 0v660h109v-660h-109z" />
    <glyph glyph-name="Q" unicode="Q" horiz-adv-x="719" 
d="M655 -142q-66 -12 -113.5 -15t-85 0t-73.5 9.5t-79 13t-100 10t-139 0.5v94q33 -1 70.5 -0.5t75.5 4t75.5 10t71.5 17t63 25.5v13q-70 -20 -127.5 -17t-101.5 26.5t-73.5 65t-45 97t-15.5 121.5q0 75 19.5 137t58 108t94.5 71t130 25q93 0 160.5 -40.5t104 -117.5
t36.5 -185q0 -85 -22.5 -147t-66.5 -105.5t-108.5 -72t-148.5 -47.5v-12q49 -5 90 -9t79.5 -4.5t79.5 4t91 14.5v-93zM362 78q62 0 104 29t63 84t21 135q0 83 -22.5 139.5t-65 85.5t-104.5 29q-61 0 -103.5 -29t-64 -85t-21.5 -138t22.5 -138t65.5 -84t105 -28z" />
    <glyph glyph-name="R" unicode="R" horiz-adv-x="660" 
d="M82 0v660h242q52 0 94 -8t75 -24t56 -39.5t34.5 -54t11.5 -67.5q0 -35 -10.5 -63.5t-32 -50.5t-53 -35.5t-73.5 -18.5v-13q41 -5 69 -21t47 -45t32 -76l41 -144h-119l-32 132q-10 40 -30 64.5t-50 35.5t-71 11h-122v-243h-109zM191 329h125q82 0 124.5 30t42.5 92
t-40.5 91.5t-124.5 29.5h-127v-243z" />
    <glyph glyph-name="S" unicode="S" horiz-adv-x="641" 
d="M320 -13q-65 0 -115.5 13.5t-85 40t-52 66t-16.5 91.5l97 26q-2 -50 19 -83t62.5 -49.5t95.5 -16.5q53 0 89 13t54.5 35.5t18.5 51.5q0 33 -22.5 52.5t-59.5 31t-83 21.5q-47 10 -93 23t-83.5 34.5t-60 55.5t-22.5 86q0 60 30 103t85.5 67t131.5 24t133.5 -23.5t91 -68
t34.5 -107.5l-100 -26q0 34 -11.5 60t-32.5 43t-50 25.5t-66 8.5q-43 0 -75 -12.5t-49.5 -34t-17.5 -50.5q0 -36 25.5 -56.5t67.5 -33t90 -23.5q43 -9 85.5 -21.5t78 -33.5t57 -55t21.5 -87q0 -58 -30.5 -101t-90.5 -66.5t-151 -23.5z" />
    <glyph glyph-name="T" unicode="T" horiz-adv-x="553" 
d="M221 0v660h110v-660h-110zM23 566v94h507v-94h-507z" />
    <glyph glyph-name="U" unicode="U" horiz-adv-x="719" 
d="M360 -13q-57 0 -102 11.5t-79 34.5t-56.5 55.5t-34 74t-11.5 91.5v406h110v-402q0 -58 19.5 -96t57.5 -57.5t95 -19.5q59 0 97 19t57 57.5t19 96.5v402h109v-406q0 -128 -71.5 -197.5t-209.5 -69.5z" />
    <glyph glyph-name="V" unicode="V" horiz-adv-x="657" 
d="M251 0l-225 660h119l178 -565h11l180 565h117l-226 -660h-154z" />
    <glyph glyph-name="W" unicode="W" horiz-adv-x="957" 
d="M190 0l-159 660h118l120 -563h10l129 563h144l128 -563h10l123 563h113l-163 -660h-154l-125 563h-9l-127 -563h-158z" />
    <glyph glyph-name="X" unicode="X" horiz-adv-x="652" 
d="M30 0l221 330l-221 330h128l164 -267h5l165 267h128l-221 -328l227 -332h-129l-170 271h-5l-165 -271h-127z" />
    <glyph glyph-name="Y" unicode="Y" horiz-adv-x="600" 
d="M246 0v211l-235 449h128l159 -346h5l159 346h128l-235 -448v-212h-109z" />
    <glyph glyph-name="Z" unicode="Z" horiz-adv-x="560" 
d="M34 0v105l357 449v12h-344v94h467v-113l-352 -442v-11h364v-94h-492z" />
    <glyph glyph-name="bracketleft" unicode="[" horiz-adv-x="315" 
d="M82 -119v794h102v-794h-102zM82 -119v86h209v-86h-209zM82 603v87h209v-87h-209z" />
    <glyph glyph-name="backslash" unicode="\" horiz-adv-x="341" 
d="M343 -85h-103l-253 789h102z" />
    <glyph glyph-name="bracketright" unicode="]" horiz-adv-x="300" 
d="M222 -119h-103v794h103v-794zM222 -119h-209v86h209v-86zM222 603h-209v87h209v-87z" />
    <glyph glyph-name="asciicircum" unicode="^" horiz-adv-x="546" 
d="M16 313l183 343h148l183 -343h-117l-131 255h-15l-130 -255h-121z" />
    <glyph glyph-name="underscore" unicode="_" horiz-adv-x="578" 
d="M0 -123v99h578v-99h-578z" />
    <glyph glyph-name="grave" unicode="`" horiz-adv-x="283" 
d="M119 597l-99 160h114l73 -160h-88z" />
    <glyph glyph-name="a" unicode="a" horiz-adv-x="567" 
d="M195 -13q-43 0 -77 16.5t-53.5 49.5t-19.5 82q0 39 14.5 67.5t44 48t75.5 32t109 21.5q35 5 57.5 10t33 16t10.5 33q0 34 -23.5 58.5t-75.5 24.5q-29 0 -57.5 -10t-49 -32.5t-27.5 -60.5l-98 31q9 38 29 67.5t50 50t69.5 31t86.5 10.5q69 0 114 -23t67.5 -70.5
t22.5 -121.5v-106q0 -33 1.5 -69.5t4 -73t6.5 -69.5h-99q-3 30 -5.5 62t-4.5 65h-15q-14 -38 -39.5 -70t-63 -51t-87.5 -19zM233 71q21 0 42.5 7t43 21.5t40 37.5t32.5 55l-1 94l26 -5q-17 -15 -42.5 -23t-55.5 -12.5t-59.5 -10t-54 -15t-39 -26.5t-14.5 -47q0 -37 23 -56.5
t59 -19.5z" />
    <glyph glyph-name="b" unicode="b" horiz-adv-x="618" 
d="M359 -13q-50 0 -85.5 20t-57.5 55t-33 82h-17l3 -144h-94v256v449h109v-165q0 -25 -3 -53.5t-7.5 -58t-9.5 -58.5h19q12 45 33.5 81.5t56.5 58.5t87 22q65 0 112 -34.5t72.5 -96t25.5 -143.5q0 -80 -24.5 -141t-71.5 -95.5t-115 -34.5zM328 79q40 0 69 22t44.5 62.5
t15.5 94.5q0 53 -15 94t-43.5 64.5t-69.5 23.5q-29 0 -52.5 -11.5t-41 -30.5t-29 -42t-17.5 -47t-6 -44v-14q0 -27 9.5 -57.5t28 -56.5t45.5 -42t62 -16z" />
    <glyph glyph-name="c" unicode="c" horiz-adv-x="555" 
d="M303 -13q-67 0 -115.5 21t-79.5 58t-46 85t-15 103q0 59 16 109.5t47.5 89t78.5 59.5t109 21q61 0 106.5 -20.5t74.5 -58t38 -87.5l-102 -31q-3 29 -17 54t-40 39.5t-63 14.5q-35 0 -61 -13.5t-43 -39t-25.5 -59.5t-8.5 -75q0 -56 15.5 -97.5t48.5 -64t83 -22.5
q42 0 69 15t42 40.5t20 59.5l97 -23q-6 -41 -24 -74.5t-47 -56.5t-68.5 -35t-89.5 -12z" />
    <glyph glyph-name="d" unicode="d" horiz-adv-x="617" 
d="M260 -13q-66 0 -114 34.5t-73 96t-25 142.5q0 79 23.5 140.5t70 96.5t114.5 35q54 0 89 -21.5t56.5 -58.5t32.5 -82h20q-5 29 -10 60.5t-8 61t-3 52.5v161h110v-449v-256h-95l4 144h-18q-12 -49 -34 -84t-56.5 -54t-83.5 -19zM290 79q35 0 62 16t45 42t27.5 56.5
t9.5 57.5v14q0 20 -5.5 43.5t-17 47t-28.5 42.5t-40.5 30.5t-52.5 11.5q-42 0 -70.5 -23.5t-43.5 -64.5t-15 -94q0 -54 15.5 -94.5t44.5 -62.5t69 -22z" />
    <glyph glyph-name="e" unicode="e" horiz-adv-x="570" 
d="M304 -13q-62 0 -110 18.5t-81 53t-50 83t-17 109.5t17 112.5t48.5 89.5t78 59t105.5 21q55 0 98.5 -18t73.5 -54.5t45 -91t11 -127.5l-407 -3v68l343 3l-38 -42q6 60 -10 99t-46 58t-69 19q-44 0 -76.5 -22.5t-50.5 -65.5t-18 -103q0 -90 40 -135.5t114 -45.5
q31 0 53 7.5t37 20t24.5 30t15.5 36.5l95 -22q-9 -37 -27.5 -65.5t-46.5 -49t-65.5 -31.5t-86.5 -11z" />
    <glyph glyph-name="f" unicode="f" horiz-adv-x="380" 
d="M116 0v355h-90v84l133 -7v18q-28 9 -46.5 26.5t-28 41t-9.5 50.5q0 42 20 73.5t56.5 49t85.5 17.5q41 0 74 -10.5t54 -27.5l-10 -100q-21 17 -49 28t-55 11q-32 0 -52.5 -19.5t-20.5 -60.5q0 -25 8 -42t21 -27.5t26 -16.5h125v-88h-136v-355h-106z" />
    <glyph glyph-name="g" unicode="g" horiz-adv-x="588" 
d="M273 -178q-84 0 -137.5 13t-78.5 39t-25 64q0 46 36 75.5t109 37.5v20q-54 -1 -81.5 11.5t-27.5 39.5q0 28 27.5 47.5t89.5 34.5v19q-61 2 -94 38t-33 92q0 51 27.5 89.5t81 60t129.5 21.5h251v-88l-161 24v-20q60 -11 90 -38t30 -73q0 -41 -25.5 -73t-74.5 -49.5
t-120 -17.5q-13 0 -28 1t-44 5q-24 -15 -38.5 -28t-14.5 -23t12.5 -16t31.5 -8t36 -2h128q20 0 51 -3.5t62 -16.5t52 -40.5t21 -76.5q0 -56 -32 -91t-95 -51.5t-155 -16.5zM280 -89q64 0 103 7.5t57 24.5t18 43q0 24 -12 37.5t-29.5 19t-35.5 6.5t-31 1h-119
q-53 -9 -74 -30.5t-21 -47.5q0 -25 18 -38.5t50.5 -18t75.5 -4.5zM287 253q58 0 87.5 25.5t29.5 67.5q0 45 -30 73.5t-89 28.5q-58 0 -88.5 -28t-30.5 -71q0 -29 14 -50.5t40.5 -33.5t66.5 -12z" />
    <glyph glyph-name="h" unicode="h" horiz-adv-x="608" 
d="M75 0v319v386h110v-162q0 -21 -1 -43.5t-4 -45.5l-6 -46t-7 -47h18q15 56 37.5 94.5t57 58t83.5 19.5q90 0 134 -62.5t44 -187.5v-283h-110v269q0 88 -26.5 129t-79.5 41q-44 0 -73.5 -26t-46.5 -70t-22 -100v-243h-108z" />
    <glyph glyph-name="i" unicode="i" horiz-adv-x="259" 
d="M75 0v520h108v-520h-108zM129 607q-35 0 -53 14.5t-18 43.5q0 28 18 43t53 15q36 0 54 -15t18 -43q0 -29 -18 -43.5t-54 -14.5z" />
    <glyph glyph-name="j" unicode="j" horiz-adv-x="266" 
d="M28 -190q-10 0 -22.5 2t-25.5 6l-9 97q59 -10 85 4.5t26 70.5v530h109v-524q0 -47 -10 -82t-30.5 -58t-51 -34.5t-71.5 -11.5zM136 607q-35 0 -53 14.5t-18 43.5q0 28 18 43t53 15q36 0 54 -15t18 -43q0 -29 -18 -43.5t-54 -14.5z" />
    <glyph glyph-name="k" unicode="k" horiz-adv-x="561" 
d="M75 0v706h107v-399q37 20 70.5 46.5t62 55.5t50 57.5t33.5 53.5h126q-18 -38 -45.5 -75.5t-62.5 -70t-76.5 -56t-86.5 -32.5v-13q56 6 96 -9t69 -45t51.5 -69.5t42.5 -80.5l28 -69h-120l-20 47q-22 51 -46.5 90.5t-58 62.5t-82.5 23h-31v-223h-107z" />
    <glyph glyph-name="l" unicode="l" horiz-adv-x="257" 
d="M75 0v705h107v-705h-107z" />
    <glyph glyph-name="m" unicode="m" horiz-adv-x="912" 
d="M75 0v326v194h92l-6 -162h18q13 59 35.5 97.5t55 58t75.5 19.5q48 0 79.5 -23t48 -62t17.5 -88h16q13 57 36.5 95.5t58.5 58t78 19.5q41 0 72 -16.5t52 -48.5t31.5 -79.5t10.5 -109.5v-279h-109v265q0 58 -10 96t-31 57t-53 19q-36 0 -63.5 -24.5t-44.5 -67.5t-21 -99
v-246h-107v258q0 60 -10 99.5t-31 59.5t-53 20q-38 0 -65.5 -25.5t-43.5 -69.5t-20 -99v-243h-108z" />
    <glyph glyph-name="n" unicode="n" horiz-adv-x="608" 
d="M75 0v320v200h94l-6 -162h17q14 60 37.5 98.5t60 57.5t85.5 19q87 0 132.5 -62t45.5 -189v-282h-110v271q0 87 -26 127.5t-78 40.5q-45 0 -76.5 -28.5t-48.5 -74.5t-19 -100v-236h-108z" />
    <glyph glyph-name="o" unicode="o" horiz-adv-x="604" 
d="M302 -13q-75 0 -133 32t-90.5 93t-32.5 150q0 91 34 151t91.5 90t129.5 30q74 0 132 -31t91.5 -92t33.5 -152q0 -90 -33.5 -150.5t-91.5 -90.5t-131 -30zM306 73q45 0 77 21t49 62t17 98q0 59 -18 101.5t-51.5 65.5t-81.5 23q-43 0 -75.5 -20.5t-49.5 -61t-17 -98.5
q0 -91 40 -141t110 -50z" />
    <glyph glyph-name="p" unicode="p" horiz-adv-x="618" 
d="M75 -164v422v262h94l-3 -137l16 -1q11 47 33 80.5t56.5 52t82.5 18.5q70 0 118.5 -35t73 -97t24.5 -142q0 -78 -23.5 -139.5t-70.5 -97t-115 -35.5q-53 0 -88 21.5t-57 57t-34 78.5h-18q6 -27 10 -55.5t7 -56.5t3 -53v-143h-109zM329 78q41 0 69.5 23.5t43.5 64.5t15 94
q0 55 -15.5 95t-44.5 62.5t-69 22.5q-35 0 -62 -16t-45.5 -41.5t-28 -56t-9.5 -59.5v-15q0 -20 6 -43t17.5 -46t29 -42.5t41 -31t52.5 -11.5z" />
    <glyph glyph-name="q" unicode="q" horiz-adv-x="617" 
d="M433 -164v142q0 26 3 53.5t8 56.5t9 56h-17q-13 -43 -34.5 -79t-56.5 -57t-89 -21q-68 0 -114.5 35.5t-70 97t-23.5 138.5q0 80 24.5 142t73 97.5t117.5 35.5q50 0 85 -18.5t56.5 -52.5t30.5 -80h18l-5 137h95v-258v-425h-110zM290 78q29 0 52 11.5t40.5 30.5t29 42
t17 46.5t5.5 43.5v15q0 29 -9.5 59.5t-27.5 56t-45 41.5t-62 16q-40 0 -69 -22.5t-44.5 -62.5t-15.5 -95q0 -53 15 -94t43.5 -64.5t70.5 -23.5z" />
    <glyph glyph-name="r" unicode="r" horiz-adv-x="411" 
d="M75 0v271v249h94l-5 -180h17q9 61 28 104t52 65.5t82 22.5q10 0 22 -1t27 -6l-5 -114q-15 6 -31 8.5t-29 2.5q-40 0 -68 -22.5t-46.5 -62t-28.5 -91.5v-246h-109z" />
    <glyph glyph-name="s" unicode="s" horiz-adv-x="535" 
d="M273 -13q-54 0 -96 11t-71.5 31.5t-45.5 49.5t-19 63l88 29q0 -29 18 -52t51.5 -35.5t80.5 -12.5q55 0 85 18t30 50q0 24 -16.5 38t-47 23t-71.5 17q-37 8 -73.5 18.5t-67 27.5t-49 44.5t-18.5 69.5q0 48 25 82.5t72.5 54t113.5 19.5q64 0 110.5 -19t74.5 -53t34 -80
l-92 -27q-2 31 -18.5 52t-44.5 31.5t-66 10.5q-50 0 -78.5 -18t-28.5 -49q0 -24 17.5 -38.5t48 -23t69.5 -16.5q40 -8 77 -18t66.5 -26.5t47 -44t17.5 -69.5q0 -51 -27.5 -86.5t-77.5 -53.5t-118 -18z" />
    <glyph glyph-name="t" unicode="t" horiz-adv-x="380" 
d="M247 -11q-77 0 -114.5 42t-37.5 129v271h-77l2 89h50q26 0 39 8.5t16 30.5l10 77h65v-116h143v-91h-143v-266q0 -39 18 -56t53 -17q19 0 38.5 4.5t37.5 17.5v-105q-30 -10 -55 -14t-45 -4z" />
    <glyph glyph-name="u" unicode="u" horiz-adv-x="599" 
d="M245 -13q-88 0 -133 60.5t-45 182.5v290h109v-278q0 -82 25 -122t79 -40q30 0 53 15t40.5 42t28 63.5t14.5 80.5v239h108v-304v-216h-92l5 165h-17q-13 -62 -36.5 -101.5t-58 -58t-80.5 -18.5z" />
    <glyph glyph-name="v" unicode="v" horiz-adv-x="546" 
d="M198 0l-182 519h121l130 -430h15l131 430h117l-182 -519h-150z" />
    <glyph glyph-name="w" unicode="w" horiz-adv-x="827" 
d="M157 0l-135 520h112l93 -430h17l102 430h136l104 -430h16l92 430h111l-136 -520h-151l-99 429h-13l-98 -429h-151z" />
    <glyph glyph-name="x" unicode="x" horiz-adv-x="534" 
d="M21 0l174 260l-175 260h126l113 -205h15l111 205h127l-175 -260l178 -260h-127l-115 206h-14l-112 -206h-126z" />
    <glyph glyph-name="y" unicode="y" horiz-adv-x="591" 
d="M265 -176q-40 0 -80.5 8.5t-74.5 26t-57 45.5l44 86q26 -34 70 -51.5t93 -17.5q56 0 92.5 23.5t55.5 72.5t20 123l9 100h-19q-11 -71 -34.5 -114t-57.5 -62t-80 -19q-57 0 -95.5 28.5t-58 85t-19.5 138.5v223h108v-199q0 -95 25.5 -139t76.5 -44q28 0 50 14t38.5 41.5
t26 68.5t11.5 95v163h109v-385q0 -62 -10 -111.5t-30.5 -87t-50.5 -63t-70.5 -37.5t-91.5 -12z" />
    <glyph glyph-name="z" unicode="z" horiz-adv-x="500" 
d="M35 0v95l286 322v13h-282v90h424v-92l-291 -324v-13h293v-91h-430z" />
    <glyph glyph-name="braceleft" unicode="{" horiz-adv-x="353" 
d="M28 238v77q22 3 39 17.5t28.5 46.5t15.5 87q6 67 18 110t31 67t45 33.5t59 9.5q13 0 30.5 -2t35.5 -6v-83q-29 5 -54 -1t-41 -32t-19 -82q-2 -35 -11 -68t-24.5 -58.5t-35.5 -42.5t-42 -21v-23q22 -4 41.5 -19.5t34.5 -40.5t25 -58t12 -73q3 -55 18.5 -81.5t40.5 -32
t55 -0.5v-84q-18 -3 -36 -5t-30 -2q-32 0 -58 9t-45.5 33t-32 67t-17.5 111q-4 56 -15 86.5t-28 44t-40 16.5z" />
    <glyph glyph-name="bar" unicode="|" horiz-adv-x="259" 
d="M82 -157v817h95v-817h-95z" />
    <glyph glyph-name="braceright" unicode="}" horiz-adv-x="331" 
d="M303 238q-21 -3 -38.5 -16.5t-29 -44t-15.5 -86.5q-5 -68 -17.5 -111t-31.5 -67t-45 -33t-59 -9q-11 0 -29 2t-37 5v84q31 -5 55.5 0.5t40.5 32t19 81.5q2 40 11.5 73t25 58t35 40.5t40.5 19.5v23q-21 4 -41 21t-35.5 42.5t-25 58.5t-10.5 68q-3 56 -19 82t-41 32t-55 1
v83q19 4 36.5 6t29.5 2q33 0 59 -9.5t45.5 -33.5t31.5 -67t17 -110q5 -55 16.5 -87t28.5 -46.5t38 -17.5v-77z" />
    <glyph glyph-name="asciitilde" unicode="~" horiz-adv-x="516" 
d="M389 245q-31 0 -65 6t-65.5 13t-58 13t-43.5 6q-16 0 -21 -11t-3 -33h-77q-14 40 -10 70.5t25.5 48t56.5 17.5q30 0 63 -5.5t65 -12.5t59 -12.5t45 -5.5q17 0 22.5 10.5t2.5 33.5h75q13 -37 10 -68.5t-23 -50.5t-58 -19z" />
    <glyph glyph-name="uni00A0" unicode="&#xa0;" horiz-adv-x="246" 
 />
    <glyph glyph-name="exclamdown" unicode="&#xa1;" horiz-adv-x="266" 
d="M99 342h68l30 -475h-129zM132 539q76 0 76 -66q0 -34 -19 -50.5t-57 -16.5q-37 0 -55 16.5t-18 50.5t18.5 50t54.5 16z" />
    <glyph glyph-name="cent" unicode="&#xa2;" horiz-adv-x="555" 
d="M256 576l-21 136h111l-21 -136h-69zM235 -73l21 136h69l21 -136h-111zM303 45q-67 0 -115.5 21t-79.5 58t-46 85.5t-15 102.5q0 59 16 109.5t47.5 89t78.5 59.5t109 21q61 0 106.5 -20.5t74.5 -58t38 -87.5l-102 -31q-3 29 -17 54t-40 39.5t-63 14.5q-35 0 -61 -13.5
t-43 -39t-25.5 -59.5t-8.5 -75q0 -56 15.5 -97.5t48.5 -64t83 -22.5q42 0 69 15t42 41t20 59l97 -23q-6 -41 -24 -74t-47 -56.5t-68.5 -35.5t-89.5 -12z" />
    <glyph glyph-name="sterling" unicode="&#xa3;" horiz-adv-x="717" 
d="M183 -13q-74 0 -116 36.5t-42 94.5q0 38 16.5 66.5t46.5 45t69 16.5q40 0 67 -16.5t45 -45.5l15 4v-52q-24 25 -48 35t-48 10q-34 0 -52 -17.5t-18 -43.5q0 -27 19 -44.5t53 -17.5q31 0 51.5 15t30.5 43t10 64q0 45 -11.5 76.5t-29 56.5t-35 49.5t-29 54t-11.5 71.5
q0 63 29.5 104t79 61.5t109.5 20.5q53 0 94.5 -14.5t70 -41.5t43 -64t11.5 -82l-103 -17q0 37 -12 66t-37.5 45.5t-67.5 16.5q-55 0 -80.5 -28.5t-25.5 -72.5q0 -31 9.5 -57t24 -51t29.5 -52.5t24.5 -60t9.5 -74.5q0 -39 -10.5 -75t-33.5 -64t-59.5 -44.5t-87.5 -16.5z
M99 307v72l158 -3l3 -54zM516 -14q-51 0 -88.5 19.5t-61.5 46.5t-36 47l-13 7l19 49q11 -9 26.5 -23t35.5 -28t42 -23t45 -9q35 0 53.5 19t25.5 47.5t7 57.5q0 13 -1.5 26t-4 25t-5.5 23h108q6 -21 9.5 -45t3.5 -45q0 -36 -9 -70.5t-28.5 -62.5t-51 -44.5t-76.5 -16.5z
M269 324l-4 57l230 17v-72z" />
    <glyph glyph-name="yen" unicode="&#xa5;" horiz-adv-x="589" 
d="M62 134v75h483v-75h-483zM62 291v74h179v-74h-179zM368 291v74h177v-74h-177zM241 6v207l-230 440h125l157 -340h4l156 340h125l-230 -439v-208h-107z" />
    <glyph glyph-name="brokenbar" unicode="&#xa6;" horiz-adv-x="259" 
d="M82 -157v320h95v-320h-95zM82 370v290h95v-290h-95z" />
    <glyph glyph-name="section" unicode="&#xa7;" horiz-adv-x="555" 
d="M283 -171q-54 0 -97 11t-72 32.5t-45 52t-18 68.5l86 28q1 -33 19.5 -57.5t52 -37t79.5 -12.5q57 0 86.5 19.5t29.5 56.5q0 29 -16.5 48t-46 30.5t-70.5 19.5q-44 8 -82 18t-67.5 27t-46.5 45t-17 71q0 34 13 61t43.5 46t80.5 27v11q-53 11 -83 31t-41.5 45.5t-11.5 52.5
q0 48 25.5 82t73 52t113.5 18q65 0 111.5 -19t74.5 -55t35 -86l-92 -27q-2 34 -18.5 56.5t-45 34t-66.5 11.5q-52 0 -80.5 -19.5t-28.5 -55.5q0 -29 18.5 -47.5t50 -30t71.5 -19.5q45 -9 82 -19.5t65 -26.5t43 -43t15 -70q0 -31 -11 -56.5t-40.5 -44t-84.5 -27.5v-12
q55 -12 84.5 -32t40.5 -46t11 -55q0 -54 -27.5 -88.5t-77.5 -51.5t-118 -17zM292 169q35 0 60 9t38.5 26t13.5 43q0 28 -14.5 46t-36.5 27.5t-45.5 13.5t-40.5 4q-48 0 -77 -20t-29 -60q0 -27 12.5 -44.5t32.5 -27t43 -13.5t43 -4z" />
    <glyph glyph-name="dieresis" unicode="&#xa8;" horiz-adv-x="364" 
d="M283 611q-30 0 -46 12.5t-16 41.5q0 28 16 41t46 13q29 0 45 -13t16 -41q0 -29 -16.5 -41.5t-44.5 -12.5zM82 611q-29 0 -45.5 12.5t-16.5 41.5q0 28 16.5 41t45.5 13q28 0 45 -13t17 -41q0 -29 -17 -41.5t-45 -12.5z" />
    <glyph glyph-name="copyright" unicode="&#xa9;" horiz-adv-x="922" 
d="M460 -88q-97 0 -174 24.5t-130.5 72.5t-81.5 120t-28 167t28 166.5t81.5 120t130.5 73t174 24.5t174 -24.5t131 -72.5t82 -120t28 -167t-28 -167t-82 -120t-131 -72.5t-174 -24.5zM460 2q105 0 176.5 32t108 97t36.5 165t-36.5 165t-108 97t-176.5 32t-176 -32t-107 -97
t-36 -165t36 -165.5t107 -97t176 -31.5zM472 86q-74 0 -121 27.5t-69.5 74.5t-22.5 105q0 62 23 111t69 78t114 29q49 0 86.5 -16t60.5 -45t30 -69l-89 -28q-2 35 -27 58t-66 23q-23 0 -42.5 -9.5t-33 -27t-20.5 -42.5t-7 -57q0 -44 13 -75t39 -47t63 -16q31 0 51.5 11.5
t33 31.5t15.5 44l87 -20q-5 -33 -20 -59t-39 -44.5t-56.5 -28t-71.5 -9.5z" />
    <glyph glyph-name="ordfeminine" unicode="&#xaa;" horiz-adv-x="414" 
d="M138 276q-33 0 -59.5 12t-41 35t-14.5 57q0 40 18.5 63t48 34.5t61.5 17t58 9.5q29 4 45.5 7.5t24 11.5t7.5 22q0 15 -7.5 27t-23 19.5t-41.5 7.5q-22 0 -43 -7.5t-35.5 -23t-19.5 -38.5l-83 24q8 29 24 51t39 36.5t53 22t66 7.5q59 0 92 -18t47.5 -44.5t18 -54
t3.5 -47.5v-68q0 -23 1 -49.5t3 -53t5 -50.5h-82q-2 16 -4.5 41.5t-3.5 48.5h-12q-19 -46 -55.5 -73t-89.5 -27zM174 345q20 0 41.5 8t40 25.5t31.5 43.5l-1 64l20 -3q-15 -12 -39 -17.5t-51 -9t-50.5 -9t-38 -17.5t-14.5 -35q0 -24 17 -37t44 -13z" />
    <glyph glyph-name="guillemotleft" unicode="&#xab;" horiz-adv-x="420" 
d="M85 84q-10 51 -24.5 97t-30.5 90q17 44 31 89t24 95h108q-13 -50 -31 -95t-37 -89q19 -44 37 -90t31 -97h-108zM275 84q-10 51 -24.5 97t-30.5 90q17 44 31 89t24 95h108q-13 -50 -31 -95t-37 -89q19 -44 37 -90t31 -97h-108z" />
    <glyph glyph-name="logicalnot" unicode="&#xac;" horiz-adv-x="516" 
d="M60 263v92h396v-92h-396zM360 118v207h96v-207h-96z" />
    <glyph glyph-name="registered" unicode="&#xae;" horiz-adv-x="656" 
d="M327 157q-94 0 -161 31t-102 92t-35 151t35 151t102 92t161 31q95 0 162 -31t102.5 -92t35.5 -151t-35.5 -151t-102.5 -92t-162 -31zM327 236q72 0 119.5 21t71.5 64t24 110t-24 110t-71.5 64t-119.5 21q-108 0 -160.5 -47t-52.5 -148q0 -100 52.5 -147.5t160.5 -47.5z
M221 288v290h119q47 0 77.5 -21.5t30.5 -65.5q0 -29 -18.5 -48.5t-58.5 -23.5v-8q37 -2 51 -19.5t22 -48.5l15 -55h-69l-11 50q-5 24 -15 37.5t-38 13.5h-41v-101h-64zM285 438h39q17 0 30 4t20.5 13t7.5 26q0 20 -6.5 30t-17.5 13.5t-23 3.5h-50v-90z" />
    <glyph glyph-name="macron" unicode="&#xaf;" horiz-adv-x="318" 
d="M20 624v81h278v-81h-278z" />
    <glyph glyph-name="degree" unicode="&#xb0;" horiz-adv-x="350" 
d="M173 390q-42 0 -74.5 16.5t-51 48t-18.5 76.5q0 36 12 62.5t32 43.5t46.5 25.5t56.5 8.5q43 0 75.5 -16.5t51 -47.5t18.5 -77q0 -47 -20 -78.5t-53.5 -46.5t-74.5 -15zM177 461q30 0 47.5 19.5t17.5 50.5q0 30 -18 49t-50 19q-30 0 -48 -18.5t-18 -48.5q0 -31 19 -51
t50 -20z" />
    <glyph glyph-name="plusminus" unicode="&#xb1;" horiz-adv-x="516" 
d="M212 263v347h92v-347h-92zM60 393v87h396v-87h-396zM60 90v92h396v-92h-396z" />
    <glyph glyph-name="uni00B2" unicode="&#xb2;" horiz-adv-x="411" 
d="M40 270v94l162 102q15 10 30 23t25 29t10 34q0 24 -17 39t-49 15q-28 0 -43.5 -11.5t-21 -30t-5.5 -40.5l-90 14q-1 67 41.5 106.5t121.5 39.5q46 0 81.5 -14t55.5 -41.5t20 -68.5q0 -28 -9.5 -50.5t-25.5 -41.5t-36.5 -34.5t-43.5 -29.5l-96 -62v-6l216 14v-80h-326z
" />
    <glyph glyph-name="uni00B3" unicode="&#xb3;" horiz-adv-x="410" 
d="M191 262q-84 0 -123.5 31.5t-45.5 86.5l85 17q1 -22 11.5 -36t29.5 -21t43 -7q36 0 58.5 15t22.5 44q0 25 -16 42t-51 25.5t-90 5.5v47l129 83v6l-201 -2v75h297v-86l-133 -79v-9q79 5 118.5 -24.5t39.5 -86.5q0 -58 -43.5 -92.5t-130.5 -34.5z" />
    <glyph glyph-name="acute" unicode="&#xb4;" horiz-adv-x="283" 
d="M108 597h-88l73 160h114z" />
    <glyph glyph-name="uni00B5" unicode="&#xb5;" horiz-adv-x="611" 
d="M67 -164v684h109v-249q0 -26 2 -58.5t11 -61.5t31 -47.5t61 -18.5q37 0 63 15t43 41.5t26.5 62t12.5 74.5v242h109v-305l1 -215h-93l5 160h-17q-8 -51 -27.5 -90t-51 -61t-75.5 -22q-24 0 -45.5 9t-38 27.5t-24.5 44.5h-16l22 -182v-50h-108z" />
    <glyph glyph-name="paragraph" unicode="&#xb6;" horiz-adv-x="659" 
d="M351 -158v366h-29q-94 0 -157.5 26t-95.5 77t-32 123q0 58 19 100t53 70.5t80.5 42t100.5 13.5h151v-818h-90zM386 -158v75h163v-75h-163zM488 -158v818h89v-818h-89zM372 585v75h193v-75h-193z" />
    <glyph glyph-name="periodcentered" unicode="&#xb7;" horiz-adv-x="196" 
d="M97 270q-37 0 -55.5 16t-18.5 50q0 35 19 51t55 16q38 0 57 -16t19 -51q0 -66 -76 -66z" />
    <glyph glyph-name="cedilla" unicode="&#xb8;" horiz-adv-x="281" 
d="M20 -228l15 60q17 -3 42.5 -6t50.5 -1.5t42 11.5t17 30q0 8 -3.5 16t-15 14t-36.5 8.5t-69 0.5l12 100h61l-6 -69q45 3 74 -5t43 -25.5t14 -44.5q0 -40 -25 -62.5t-62.5 -31t-79 -6.5t-74.5 11z" />
    <glyph glyph-name="uni00B9" unicode="&#xb9;" horiz-adv-x="248" 
d="M94 270v271h-57v82q28 0 45.5 10.5t21.5 40.5h82v-404h-92z" />
    <glyph glyph-name="ordmasculine" unicode="&#xba;" horiz-adv-x="414" 
d="M207 278q-82 0 -133 49.5t-51 147.5q0 67 23.5 110t65.5 64.5t94 21.5q82 0 133.5 -48.5t51.5 -148.5q0 -67 -24 -110.5t-65.5 -64.5t-94.5 -21zM209 349q22 0 41.5 10.5t32 36.5t12.5 72q0 49 -13.5 76.5t-34 39.5t-43.5 12q-21 0 -40.5 -10.5t-32 -36t-12.5 -72.5
q0 -48 13 -76t33.5 -40t43.5 -12z" />
    <glyph glyph-name="guillemotright" unicode="&#xbb;" horiz-adv-x="420" 
d="M336 84h-109q14 51 31.5 97t36.5 90q-19 44 -36.5 89t-31.5 95h109q10 -50 24 -95t30 -89q-16 -44 -30 -90t-24 -97zM146 84h-109q14 51 31.5 97t36.5 90q-19 44 -36.5 89t-31.5 95h109q10 -50 24 -95t30 -89q-16 -44 -30 -90t-24 -97z" />
    <glyph glyph-name="onequarter" unicode="&#xbc;" horiz-adv-x="886" 
d="M94 300v271h-57v82q28 0 45.5 10.5t21.5 40.5h82v-404h-92zM118 0l399 660h108l-399 -660h-108zM475 36v90q42 50 70 90.5t46 77t30 71.5h163v-405h-92v349h-7q-22 -51 -53.5 -100.5t-69.5 -92.5v-7h279v-73h-366z" />
    <glyph glyph-name="onehalf" unicode="&#xbd;" horiz-adv-x="895" 
d="M94 300v271h-57v82q28 0 45.5 10.5t21.5 40.5h82v-404h-92zM118 0l399 660h108l-399 -660h-108zM525 -40v94l162 102q15 10 30 23t25 29t10 34q0 24 -17 39t-49 15q-28 0 -43.5 -11.5t-21 -30t-5.5 -40.5l-90 14q-1 67 41.5 106.5t121.5 39.5q46 0 81.5 -14t55.5 -41.5
t20 -68.5q0 -28 -9.5 -50.5t-25.5 -41.5t-36.5 -34.5t-43.5 -29.5l-96 -62v-6l216 14v-80h-326z" />
    <glyph glyph-name="threequarters" unicode="&#xbe;" horiz-adv-x="1035" 
d="M191 292q-84 0 -123.5 31.5t-45.5 86.5l85 17q1 -22 11.5 -36t29.5 -21t43 -7q36 0 58.5 15t22.5 44q0 25 -16 42t-51 25.5t-90 5.5v47l129 83v6l-201 -2v75h297v-86l-133 -79v-9q79 5 118.5 -24.5t39.5 -86.5q0 -58 -43.5 -92.5t-130.5 -34.5zM268 0l399 660h108
l-399 -660h-108zM625 36v90q42 50 70 90.5t46 77t30 71.5h163v-405h-92v349h-7q-22 -51 -53.5 -100.5t-69.5 -92.5v-7h279v-73h-366z" />
    <glyph glyph-name="questiondown" unicode="&#xbf;" horiz-adv-x="404" 
d="M293 335q5 -52 -5.5 -86.5t-29.5 -57.5t-42 -40t-44.5 -33t-35 -36.5t-13.5 -50.5q0 -45 29.5 -67.5t72.5 -22.5q24 0 49.5 6.5t51 20.5t47.5 34l10 -95q-23 -20 -51 -33.5t-57.5 -20.5t-59.5 -7q-40 0 -76 11t-63.5 33t-43.5 55t-16 76t14.5 71t37 48t47.5 37.5
t46.5 37.5t33.5 48.5t8 71.5h90zM243 532q37 0 55.5 -16t18.5 -50t-18.5 -50.5t-55.5 -16.5t-56 16.5t-19 50.5q0 66 75 66z" />
    <glyph glyph-name="Agrave" unicode="&#xc0;" horiz-adv-x="671" 
d="M26 0l230 660h159l230 -660h-118l-185 571h-13l-185 -571h-118zM141 142v80h403v-80h-403zM304 737l-99 160h114l72 -160h-87z" />
    <glyph glyph-name="Aacute" unicode="&#xc1;" horiz-adv-x="671" 
d="M26 0l230 660h159l230 -660h-118l-185 571h-13l-185 -571h-118zM141 142v80h403v-80h-403zM369 737h-88l73 160h114z" />
    <glyph glyph-name="Acircumflex" unicode="&#xc2;" horiz-adv-x="671" 
d="M26 0l230 660h159l230 -660h-118l-185 571h-13l-185 -571h-118zM141 142v80h403v-80h-403zM183 720v89l154 97l153 -97v-89l-153 99z" />
    <glyph glyph-name="Atilde" unicode="&#xc3;" horiz-adv-x="671" 
d="M26 0l230 660h159l230 -660h-118l-185 571h-13l-185 -571h-118zM141 142v80h403v-80h-403zM426 738q-20 0 -43 8t-45 18t-40.5 18.5t-31.5 8.5q-14 0 -19.5 -12.5t-3.5 -33.5h-54q-11 34 -7 61t21 43t44 16q20 0 42.5 -8t44.5 -18t41 -18t30 -8q16 0 21.5 15t3.5 32h54
q10 -32 7 -59.5t-19 -45t-46 -17.5z" />
    <glyph glyph-name="Adieresis" unicode="&#xc4;" horiz-adv-x="671" 
d="M26 0l230 660h159l230 -660h-118l-185 571h-13l-185 -571h-118zM141 142v80h403v-80h-403zM437 752q-30 0 -46 12.5t-16 41.5q0 28 16 41t46 13q29 0 45 -13t16 -41q0 -29 -16.5 -41.5t-44.5 -12.5zM236 752q-29 0 -45.5 12.5t-16.5 41.5q0 28 16.5 41t45.5 13
q28 0 45 -13t17 -41q0 -29 -17 -41.5t-45 -12.5z" />
    <glyph glyph-name="Aring" unicode="&#xc5;" horiz-adv-x="671" 
d="M26 0l230 660h159l230 -660h-118l-185 571h-13l-185 -571h-118zM141 142v80h403v-80h-403zM337 727q-39 0 -65 21.5t-26 64.5t26.5 64.5t63.5 21.5q38 0 64 -22.5t26 -63.5q0 -44 -26 -65t-63 -21zM338 774q17 0 25.5 10t8.5 28q0 19 -9 29.5t-26 10.5t-27 -10t-10 -28
q0 -19 10 -29.5t28 -10.5z" />
    <glyph glyph-name="AE" unicode="&#xc6;" horiz-adv-x="917" 
d="M26 0l307 660h186l-74 -90h-38l-262 -570h-119zM154 142v79h336v-79h-336zM510 0v92h368v-92h-368zM444 0v660h109v-660h-109zM510 290v86h321v-86h-321zM510 569v91h367v-91h-367z" />
    <glyph glyph-name="Ccedilla" unicode="&#xc7;" horiz-adv-x="670" 
d="M369 -13q-73 0 -131 22t-98 64.5t-61 105t-21 143.5q0 82 21.5 147t61.5 110.5t96 69.5t125 24q53 0 98 -14.5t78 -41.5t51.5 -66t19.5 -88l-103 -26q1 48 -19.5 79.5t-54.5 47.5t-73 16q-36 0 -70 -14t-60.5 -44.5t-42 -78.5t-15.5 -116q0 -87 25.5 -141.5t71 -80
t104.5 -25.5t94 23t51.5 61.5t18.5 87.5l97 -17q-1 -51 -16 -96.5t-46.5 -79.5t-81.5 -53t-120 -19zM231 -228l15 60q17 -3 42.5 -6t50.5 -1.5t42 11.5t17 30q0 8 -3.5 16t-15 14t-36.5 8.5t-69 0.5l12 100h61l-6 -69q45 3 74 -5t43 -25.5t14 -44.5q0 -40 -25 -62.5
t-62.5 -31t-79 -6.5t-74.5 11z" />
    <glyph glyph-name="Egrave" unicode="&#xc8;" horiz-adv-x="599" 
d="M82 0v660h109v-660h-109zM146 0v92h414v-92h-414zM146 293v85h366v-85h-366zM146 569v91h413v-91h-413zM269 737l-99 160h114l73 -160h-88z" />
    <glyph glyph-name="Eacute" unicode="&#xc9;" horiz-adv-x="599" 
d="M82 0v660h109v-660h-109zM146 0v92h414v-92h-414zM146 293v85h366v-85h-366zM146 569v91h413v-91h-413zM335 737h-88l73 160h114z" />
    <glyph glyph-name="Ecircumflex" unicode="&#xca;" horiz-adv-x="599" 
d="M82 0v660h109v-660h-109zM146 0v92h414v-92h-414zM146 293v85h366v-85h-366zM146 569v91h413v-91h-413zM148 720v89l154 97l153 -97v-89l-153 99z" />
    <glyph glyph-name="Edieresis" unicode="&#xcb;" horiz-adv-x="599" 
d="M82 0v660h109v-660h-109zM146 0v92h414v-92h-414zM146 293v85h366v-85h-366zM146 569v91h413v-91h-413zM402 752q-30 0 -46 12.5t-16 41.5q0 28 16 41t46 13q29 0 45 -13t16 -41q0 -29 -16.5 -41.5t-44.5 -12.5zM201 752q-29 0 -45.5 12.5t-16.5 41.5q0 28 16.5 41
t45.5 13q28 0 45 -13t17 -41q0 -29 -17 -41.5t-45 -12.5z" />
    <glyph glyph-name="Igrave" unicode="&#xcc;" horiz-adv-x="274" 
d="M82 0v660h111v-660h-111zM105 737l-100 160h115l72 -160h-87z" />
    <glyph glyph-name="Iacute" unicode="&#xcd;" horiz-adv-x="274" 
d="M82 0v660h111v-660h-111zM170 737h-88l73 160h114z" />
    <glyph glyph-name="Icircumflex" unicode="&#xce;" horiz-adv-x="274" 
d="M82 0v660h111v-660h-111zM5 716v92l132 88l132 -88v-92l-132 88z" />
    <glyph glyph-name="Idieresis" unicode="&#xcf;" horiz-adv-x="274" 
d="M82 0v660h111v-660h-111zM215 752q-27 0 -41.5 13t-14.5 40q0 28 14.5 40.5t41.5 12.5q26 0 40 -13t14 -41q0 -26 -14.5 -39t-39.5 -13zM59 752q-27 0 -42 13t-15 40q0 28 14.5 40.5t41.5 12.5t42 -13t15 -41q0 -26 -14.5 -39t-41.5 -13z" />
    <glyph glyph-name="Eth" unicode="&#xd0;" horiz-adv-x="747" 
d="M54 391h285v-84h-285v84zM193 0v92h194q64 0 106 29t62.5 82t20.5 125q0 62 -13 107.5t-39.5 74.5t-67 43.5t-94.5 14.5h-169v92h166q114 0 187 -39t108 -111.5t35 -174.5q0 -70 -16 -124.5t-44 -94t-65.5 -65.5t-81.5 -38.5t-92 -12.5h-197zM138 0v660h109v-660h-109z
" />
    <glyph glyph-name="Ntilde" unicode="&#xd1;" horiz-adv-x="746" 
d="M82 0v660h144l331 -515h9l-7 515h106v-660h-131l-344 531h-9l7 -531h-106zM464 738q-20 0 -43 8t-45 18t-40.5 18.5t-31.5 8.5q-14 0 -19.5 -12.5t-3.5 -33.5h-54q-11 34 -7 61t21 43t44 16q20 0 42.5 -8t44.5 -18t41 -18t30 -8q16 0 21.5 15t3.5 32h54q10 -32 7 -59.5
t-19 -45t-46 -17.5z" />
    <glyph glyph-name="Ograve" unicode="&#xd2;" horiz-adv-x="716" 
d="M357 -13q-72 0 -127.5 23.5t-94 67.5t-58 107t-19.5 142q0 116 39 192.5t107 115t155 38.5q68 0 123 -22.5t94.5 -67t60.5 -109t21 -146.5q0 -80 -20 -143.5t-59 -107.5t-94.5 -67t-127.5 -23zM359 78q60 0 102 29t64 83.5t22 133.5q0 81 -22.5 138t-65 87.5t-102.5 30.5
q-58 0 -100.5 -29.5t-65 -85.5t-22.5 -138q0 -60 13 -106.5t37 -78t59.5 -48t80.5 -16.5zM326 737l-99 160h114l73 -160h-88z" />
    <glyph glyph-name="Oacute" unicode="&#xd3;" horiz-adv-x="716" 
d="M357 -13q-72 0 -127.5 23.5t-94 67.5t-58 107t-19.5 142q0 116 39 192.5t107 115t155 38.5q68 0 123 -22.5t94.5 -67t60.5 -109t21 -146.5q0 -80 -20 -143.5t-59 -107.5t-94.5 -67t-127.5 -23zM359 78q60 0 102 29t64 83.5t22 133.5q0 81 -22.5 138t-65 87.5t-102.5 30.5
q-58 0 -100.5 -29.5t-65 -85.5t-22.5 -138q0 -60 13 -106.5t37 -78t59.5 -48t80.5 -16.5zM392 737h-88l73 160h114z" />
    <glyph glyph-name="Ocircumflex" unicode="&#xd4;" horiz-adv-x="716" 
d="M357 -13q-72 0 -127.5 23.5t-94 67.5t-58 107t-19.5 142q0 116 39 192.5t107 115t155 38.5q68 0 123 -22.5t94.5 -67t60.5 -109t21 -146.5q0 -80 -20 -143.5t-59 -107.5t-94.5 -67t-127.5 -23zM359 78q60 0 102 29t64 83.5t22 133.5q0 81 -22.5 138t-65 87.5t-102.5 30.5
q-58 0 -100.5 -29.5t-65 -85.5t-22.5 -138q0 -60 13 -106.5t37 -78t59.5 -48t80.5 -16.5zM205 720v89l154 97l153 -97v-89l-153 99z" />
    <glyph glyph-name="Otilde" unicode="&#xd5;" horiz-adv-x="716" 
d="M357 -13q-72 0 -127.5 23.5t-94 67.5t-58 107t-19.5 142q0 116 39 192.5t107 115t155 38.5q68 0 123 -22.5t94.5 -67t60.5 -109t21 -146.5q0 -80 -20 -143.5t-59 -107.5t-94.5 -67t-127.5 -23zM359 78q60 0 102 29t64 83.5t22 133.5q0 81 -22.5 138t-65 87.5t-102.5 30.5
q-58 0 -100.5 -29.5t-65 -85.5t-22.5 -138q0 -60 13 -106.5t37 -78t59.5 -48t80.5 -16.5zM448 738q-20 0 -43 8t-45 18t-40.5 18.5t-31.5 8.5q-14 0 -19.5 -12.5t-3.5 -33.5h-54q-11 34 -7 61t21 43t44 16q20 0 42.5 -8t44.5 -18t41 -18t30 -8q16 0 21.5 15t3.5 32h54
q10 -32 7 -59.5t-19 -45t-46 -17.5z" />
    <glyph glyph-name="Odieresis" unicode="&#xd6;" horiz-adv-x="716" 
d="M357 -13q-72 0 -127.5 23.5t-94 67.5t-58 107t-19.5 142q0 116 39 192.5t107 115t155 38.5q68 0 123 -22.5t94.5 -67t60.5 -109t21 -146.5q0 -80 -20 -143.5t-59 -107.5t-94.5 -67t-127.5 -23zM359 78q60 0 102 29t64 83.5t22 133.5q0 81 -22.5 138t-65 87.5t-102.5 30.5
q-58 0 -100.5 -29.5t-65 -85.5t-22.5 -138q0 -60 13 -106.5t37 -78t59.5 -48t80.5 -16.5zM459 752q-30 0 -46 12.5t-16 41.5q0 28 16 41t46 13q29 0 45 -13t16 -41q0 -29 -16.5 -41.5t-44.5 -12.5zM258 752q-29 0 -45.5 12.5t-16.5 41.5q0 28 16.5 41t45.5 13q28 0 45 -13
t17 -41q0 -29 -17 -41.5t-45 -12.5z" />
    <glyph glyph-name="multiply" unicode="&#xd7;" horiz-adv-x="516" 
d="M124 114l-64 64l332 332l64 -65zM392 114l-332 331l64 65l332 -331z" />
    <glyph glyph-name="Oslash" unicode="&#xd8;" horiz-adv-x="722" 
d="M59 -17l489 694h92l-490 -694h-91zM363 -10q-72 0 -127.5 23.5t-94 67.5t-58.5 107t-20 142q0 116 39 192.5t107.5 115t155.5 38.5q68 0 123 -22.5t94 -67t60.5 -109t21.5 -146.5q0 -80 -20.5 -143.5t-59 -107.5t-94.5 -67t-127 -23zM364 81q61 0 102.5 29t63.5 83.5
t22 133.5q0 81 -22.5 138t-65 87.5t-102.5 30.5q-58 0 -100 -29.5t-64.5 -85.5t-22.5 -138q0 -60 12.5 -106.5t36.5 -78t59.5 -48t80.5 -16.5z" />
    <glyph glyph-name="Ugrave" unicode="&#xd9;" horiz-adv-x="719" 
d="M360 -13q-57 0 -102 11.5t-79 34.5t-56.5 55.5t-34 74t-11.5 91.5v406h110v-402q0 -58 19.5 -96t57.5 -57.5t95 -19.5q59 0 97 19t57 57.5t19 96.5v402h109v-406q0 -128 -71.5 -197.5t-209.5 -69.5zM327 737l-99 160h114l73 -160h-88z" />
    <glyph glyph-name="Uacute" unicode="&#xda;" horiz-adv-x="719" 
d="M360 -13q-57 0 -102 11.5t-79 34.5t-56.5 55.5t-34 74t-11.5 91.5v406h110v-402q0 -58 19.5 -96t57.5 -57.5t95 -19.5q59 0 97 19t57 57.5t19 96.5v402h109v-406q0 -128 -71.5 -197.5t-209.5 -69.5zM393 737h-88l73 160h114z" />
    <glyph glyph-name="Ucircumflex" unicode="&#xdb;" horiz-adv-x="719" 
d="M360 -13q-57 0 -102 11.5t-79 34.5t-56.5 55.5t-34 74t-11.5 91.5v406h110v-402q0 -58 19.5 -96t57.5 -57.5t95 -19.5q59 0 97 19t57 57.5t19 96.5v402h109v-406q0 -128 -71.5 -197.5t-209.5 -69.5zM206 720v89l154 97l153 -97v-89l-153 99z" />
    <glyph glyph-name="Udieresis" unicode="&#xdc;" horiz-adv-x="719" 
d="M360 -13q-57 0 -102 11.5t-79 34.5t-56.5 55.5t-34 74t-11.5 91.5v406h110v-402q0 -58 19.5 -96t57.5 -57.5t95 -19.5q59 0 97 19t57 57.5t19 96.5v402h109v-406q0 -128 -71.5 -197.5t-209.5 -69.5zM460 752q-30 0 -46 12.5t-16 41.5q0 28 16 41t46 13q29 0 45 -13
t16 -41q0 -29 -16.5 -41.5t-44.5 -12.5zM259 752q-29 0 -45.5 12.5t-16.5 41.5q0 28 16.5 41t45.5 13q28 0 45 -13t17 -41q0 -29 -17 -41.5t-45 -12.5z" />
    <glyph glyph-name="Yacute" unicode="&#xdd;" horiz-adv-x="600" 
d="M246 0v211l-235 449h128l159 -346h5l159 346h128l-235 -448v-212h-109zM334 737h-88l73 160h114z" />
    <glyph glyph-name="Thorn" unicode="&#xde;" horiz-adv-x="633" 
d="M148 101v89h148q18 0 42.5 1.5t50 8t47.5 23t35.5 45.5t13.5 75q0 44 -13.5 72t-34.5 43.5t-44.5 22t-44.5 8t-34 1.5h-166v88h174q58 0 108 -14.5t87 -44.5t58 -74.5t21 -105.5q0 -78 -35.5 -131.5t-104 -80t-168.5 -26.5h-140zM82 0v660h108v-660h-108z" />
    <glyph glyph-name="germandbls" unicode="&#xdf;" horiz-adv-x="665" 
d="M399 -14q-42 0 -75 11.5t-55.5 33.5t-35.5 53l72 58q9 -22 22 -36t30.5 -20.5t38.5 -6.5q18 0 37 5.5t35.5 16.5t26.5 29.5t10 44.5q0 40 -19.5 63.5t-53 34t-73.5 14t-81 3.5v75q61 0 103.5 11t65 35.5t22.5 65.5q0 39 -19.5 60.5t-51 30.5t-66.5 9q-45 0 -73.5 -11
t-44 -28.5t-22.5 -37.5t-8.5 -40t-1.5 -35v-425h-107v417q0 35 6.5 71.5t23.5 69t47 58t75.5 40t110.5 14.5q72 0 125.5 -20.5t83.5 -60t30 -100.5q0 -41 -15 -71.5t-46.5 -49.5t-82.5 -28v-14q62 -5 101 -26t58 -54.5t19 -79.5q0 -55 -26 -95.5t-73 -62.5t-113 -22z" />
    <glyph glyph-name="agrave" unicode="&#xe0;" horiz-adv-x="567" 
d="M195 -13q-43 0 -77 16.5t-53.5 49.5t-19.5 82q0 39 14.5 67.5t44 48t75.5 32t109 21.5q35 5 57.5 10t33 16t10.5 33q0 34 -23.5 58.5t-75.5 24.5q-29 0 -57.5 -10t-49 -32.5t-27.5 -60.5l-98 31q9 38 29 67.5t50 50t69.5 31t86.5 10.5q69 0 114 -23t67.5 -70.5
t22.5 -121.5v-106q0 -33 1.5 -69.5t4 -73t6.5 -69.5h-99q-3 30 -5.5 62t-4.5 65h-15q-14 -38 -39.5 -70t-63 -51t-87.5 -19zM233 71q21 0 42.5 7t43 21.5t40 37.5t32.5 55l-1 94l26 -5q-17 -15 -42.5 -23t-55.5 -12.5t-59.5 -10t-54 -15t-39 -26.5t-14.5 -47q0 -37 23 -56.5
t59 -19.5zM256 596l-99 160h114l73 -160h-88z" />
    <glyph glyph-name="aacute" unicode="&#xe1;" horiz-adv-x="567" 
d="M195 -13q-43 0 -77 16.5t-53.5 49.5t-19.5 82q0 39 14.5 67.5t44 48t75.5 32t109 21.5q35 5 57.5 10t33 16t10.5 33q0 34 -23.5 58.5t-75.5 24.5q-29 0 -57.5 -10t-49 -32.5t-27.5 -60.5l-98 31q9 38 29 67.5t50 50t69.5 31t86.5 10.5q69 0 114 -23t67.5 -70.5
t22.5 -121.5v-106q0 -33 1.5 -69.5t4 -73t6.5 -69.5h-99q-3 30 -5.5 62t-4.5 65h-15q-14 -38 -39.5 -70t-63 -51t-87.5 -19zM233 71q21 0 42.5 7t43 21.5t40 37.5t32.5 55l-1 94l26 -5q-17 -15 -42.5 -23t-55.5 -12.5t-59.5 -10t-54 -15t-39 -26.5t-14.5 -47q0 -37 23 -56.5
t59 -19.5zM322 596h-88l73 160h114z" />
    <glyph glyph-name="acircumflex" unicode="&#xe2;" horiz-adv-x="567" 
d="M195 -13q-43 0 -77 16.5t-53.5 49.5t-19.5 82q0 39 14.5 67.5t44 48t75.5 32t109 21.5q35 5 57.5 10t33 16t10.5 33q0 34 -23.5 58.5t-75.5 24.5q-29 0 -57.5 -10t-49 -32.5t-27.5 -60.5l-98 31q9 38 29 67.5t50 50t69.5 31t86.5 10.5q69 0 114 -23t67.5 -70.5
t22.5 -121.5v-106q0 -33 1.5 -69.5t4 -73t6.5 -69.5h-99q-3 30 -5.5 62t-4.5 65h-15q-14 -38 -39.5 -70t-63 -51t-87.5 -19zM233 71q21 0 42.5 7t43 21.5t40 37.5t32.5 55l-1 94l26 -5q-17 -15 -42.5 -23t-55.5 -12.5t-59.5 -10t-54 -15t-39 -26.5t-14.5 -47q0 -37 23 -56.5
t59 -19.5zM135 579v89l154 97l153 -97v-89l-153 99z" />
    <glyph glyph-name="atilde" unicode="&#xe3;" horiz-adv-x="567" 
d="M195 -13q-43 0 -77 16.5t-53.5 49.5t-19.5 82q0 39 14.5 67.5t44 48t75.5 32t109 21.5q35 5 57.5 10t33 16t10.5 33q0 34 -23.5 58.5t-75.5 24.5q-29 0 -57.5 -10t-49 -32.5t-27.5 -60.5l-98 31q9 38 29 67.5t50 50t69.5 31t86.5 10.5q69 0 114 -23t67.5 -70.5
t22.5 -121.5v-106q0 -33 1.5 -69.5t4 -73t6.5 -69.5h-99q-3 30 -5.5 62t-4.5 65h-15q-14 -38 -39.5 -70t-63 -51t-87.5 -19zM233 71q21 0 42.5 7t43 21.5t40 37.5t32.5 55l-1 94l26 -5q-17 -15 -42.5 -23t-55.5 -12.5t-59.5 -10t-54 -15t-39 -26.5t-14.5 -47q0 -37 23 -56.5
t59 -19.5zM379 597q-20 0 -43 8t-45 18t-40.5 18.5t-31.5 8.5q-14 0 -19.5 -12.5t-3.5 -33.5h-54q-11 34 -7 61t21 43t44 16q20 0 42.5 -8t44.5 -18t41 -18t30 -8q16 0 21.5 15t3.5 32h54q10 -32 7 -59.5t-19 -45t-46 -17.5z" />
    <glyph glyph-name="adieresis" unicode="&#xe4;" horiz-adv-x="567" 
d="M195 -13q-43 0 -77 16.5t-53.5 49.5t-19.5 82q0 39 14.5 67.5t44 48t75.5 32t109 21.5q35 5 57.5 10t33 16t10.5 33q0 34 -23.5 58.5t-75.5 24.5q-29 0 -57.5 -10t-49 -32.5t-27.5 -60.5l-98 31q9 38 29 67.5t50 50t69.5 31t86.5 10.5q69 0 114 -23t67.5 -70.5
t22.5 -121.5v-106q0 -33 1.5 -69.5t4 -73t6.5 -69.5h-99q-3 30 -5.5 62t-4.5 65h-15q-14 -38 -39.5 -70t-63 -51t-87.5 -19zM233 71q21 0 42.5 7t43 21.5t40 37.5t32.5 55l-1 94l26 -5q-17 -15 -42.5 -23t-55.5 -12.5t-59.5 -10t-54 -15t-39 -26.5t-14.5 -47q0 -37 23 -56.5
t59 -19.5zM389 611q-30 0 -46 12.5t-16 41.5q0 28 16 41t46 13q29 0 45 -13t16 -41q0 -29 -16.5 -41.5t-44.5 -12.5zM188 611q-29 0 -45.5 12.5t-16.5 41.5q0 28 16.5 41t45.5 13q28 0 45 -13t17 -41q0 -29 -17 -41.5t-45 -12.5z" />
    <glyph glyph-name="aring" unicode="&#xe5;" horiz-adv-x="567" 
d="M195 -13q-43 0 -77 16.5t-53.5 49.5t-19.5 82q0 39 14.5 67.5t44 48t75.5 32t109 21.5q35 5 57.5 10t33 16t10.5 33q0 34 -23.5 58.5t-75.5 24.5q-29 0 -57.5 -10t-49 -32.5t-27.5 -60.5l-98 31q9 38 29 67.5t50 50t69.5 31t86.5 10.5q69 0 114 -23t67.5 -70.5
t22.5 -121.5v-106q0 -33 1.5 -69.5t4 -73t6.5 -69.5h-99q-3 30 -5.5 62t-4.5 65h-15q-14 -38 -39.5 -70t-63 -51t-87.5 -19zM233 71q21 0 42.5 7t43 21.5t40 37.5t32.5 55l-1 94l26 -5q-17 -15 -42.5 -23t-55.5 -12.5t-59.5 -10t-54 -15t-39 -26.5t-14.5 -47q0 -37 23 -56.5
t59 -19.5zM289 586q-39 0 -65 21.5t-26 64.5t26.5 64.5t63.5 21.5q38 0 64 -22.5t26 -63.5q0 -44 -26 -65t-63 -21zM290 633q17 0 25.5 10t8.5 28q0 19 -9 29.5t-26 10.5t-27 -10t-10 -28q0 -19 10 -29.5t28 -10.5z" />
    <glyph glyph-name="ae" unicode="&#xe6;" horiz-adv-x="907" 
d="M198 -13q-46 0 -80.5 16.5t-53.5 49t-19 79.5q0 52 22.5 84t58.5 49t78 25t80 14q35 6 55 11.5t28.5 16t8.5 31.5q0 24 -9 42.5t-28.5 29.5t-51.5 11q-28 0 -55.5 -10t-48 -32.5t-27.5 -59.5l-98 31q12 50 41.5 86t74.5 55t101 19q42 0 74 -10.5t53 -31.5t32 -53t11 -75
h13q4 47 21 79.5t43.5 52.5t58.5 29t64 9q49 0 90 -18.5t70.5 -55.5t44 -91.5t10.5 -127.5l-395 -3v67l345 3l-53 -48q9 61 -6.5 102t-45.5 62t-67 21q-40 0 -71 -22.5t-48.5 -66t-17.5 -105.5q0 -60 17.5 -100.5t50.5 -61t78 -20.5q28 0 49 7t35.5 20.5t24.5 31.5t15 39
l96 -25q-9 -37 -27.5 -66t-46.5 -49.5t-64 -31t-79 -10.5q-57 0 -102 18.5t-75 55t-43 90.5h-14q-13 -37 -34.5 -67t-50.5 -51.5t-62.5 -33t-70.5 -11.5zM233 70q21 0 42.5 7t42 21t38.5 35t32 50l-1 131l28 -30q-24 -18 -58 -27t-70 -14.5t-66.5 -14.5t-50 -27.5
t-19.5 -53.5q0 -37 23 -57t59 -20z" />
    <glyph glyph-name="ccedilla" unicode="&#xe7;" horiz-adv-x="555" 
d="M303 -13q-67 0 -115.5 21t-79.5 58t-46 85t-15 103q0 59 16 109.5t47.5 89t78.5 59.5t109 21q61 0 106.5 -20.5t74.5 -58t38 -87.5l-102 -31q-3 29 -17 54t-40 39.5t-63 14.5q-35 0 -61 -13.5t-43 -39t-25.5 -59.5t-8.5 -75q0 -56 15.5 -97.5t48.5 -64t83 -22.5
q42 0 69 15t42 40.5t20 59.5l97 -23q-6 -41 -24 -74.5t-47 -56.5t-68.5 -35t-89.5 -12zM184 -228l15 60q17 -3 42.5 -6t50.5 -1.5t42 11.5t17 30q0 8 -3.5 16t-15 14t-36.5 8.5t-69 0.5l12 100h61l-6 -69q45 3 74 -5t43 -25.5t14 -44.5q0 -40 -25 -62.5t-62.5 -31t-79 -6.5
t-74.5 11z" />
    <glyph glyph-name="egrave" unicode="&#xe8;" horiz-adv-x="570" 
d="M304 -13q-62 0 -110 18.5t-81 53t-50 83t-17 109.5t17 112.5t48.5 89.5t78 59t105.5 21q55 0 98.5 -18t73.5 -54.5t45 -91t11 -127.5l-407 -3v68l343 3l-38 -42q6 60 -10 99t-46 58t-69 19q-44 0 -76.5 -22.5t-50.5 -65.5t-18 -103q0 -90 40 -135.5t114 -45.5
q31 0 53 7.5t37 20t24.5 30t15.5 36.5l95 -22q-9 -37 -27.5 -65.5t-46.5 -49t-65.5 -31.5t-86.5 -11zM258 597l-99 160h114l73 -160h-88z" />
    <glyph glyph-name="eacute" unicode="&#xe9;" horiz-adv-x="570" 
d="M304 -13q-62 0 -110 18.5t-81 53t-50 83t-17 109.5t17 112.5t48.5 89.5t78 59t105.5 21q55 0 98.5 -18t73.5 -54.5t45 -91t11 -127.5l-407 -3v68l343 3l-38 -42q6 60 -10 99t-46 58t-69 19q-44 0 -76.5 -22.5t-50.5 -65.5t-18 -103q0 -90 40 -135.5t114 -45.5
q31 0 53 7.5t37 20t24.5 30t15.5 36.5l95 -22q-9 -37 -27.5 -65.5t-46.5 -49t-65.5 -31.5t-86.5 -11zM323 597h-88l73 160h114z" />
    <glyph glyph-name="ecircumflex" unicode="&#xea;" horiz-adv-x="570" 
d="M304 -13q-62 0 -110 18.5t-81 53t-50 83t-17 109.5t17 112.5t48.5 89.5t78 59t105.5 21q55 0 98.5 -18t73.5 -54.5t45 -91t11 -127.5l-407 -3v68l343 3l-38 -42q6 60 -10 99t-46 58t-69 19q-44 0 -76.5 -22.5t-50.5 -65.5t-18 -103q0 -90 40 -135.5t114 -45.5
q31 0 53 7.5t37 20t24.5 30t15.5 36.5l95 -22q-9 -37 -27.5 -65.5t-46.5 -49t-65.5 -31.5t-86.5 -11zM137 579v89l154 97l153 -97v-89l-153 99z" />
    <glyph glyph-name="edieresis" unicode="&#xeb;" horiz-adv-x="570" 
d="M304 -13q-62 0 -110 18.5t-81 53t-50 83t-17 109.5t17 112.5t48.5 89.5t78 59t105.5 21q55 0 98.5 -18t73.5 -54.5t45 -91t11 -127.5l-407 -3v68l343 3l-38 -42q6 60 -10 99t-46 58t-69 19q-44 0 -76.5 -22.5t-50.5 -65.5t-18 -103q0 -90 40 -135.5t114 -45.5
q31 0 53 7.5t37 20t24.5 30t15.5 36.5l95 -22q-9 -37 -27.5 -65.5t-46.5 -49t-65.5 -31.5t-86.5 -11zM391 612q-30 0 -46 12.5t-16 41.5q0 28 16 41t46 13q29 0 45 -13t16 -41q0 -29 -16.5 -41.5t-44.5 -12.5zM190 612q-29 0 -45.5 12.5t-16.5 41.5q0 28 16.5 41t45.5 13
q28 0 45 -13t17 -41q0 -29 -17 -41.5t-45 -12.5z" />
    <glyph glyph-name="igrave" unicode="&#xec;" horiz-adv-x="258" 
d="M75 0v520h108v-520h-108zM97 597l-99 160h114l73 -160h-88z" />
    <glyph glyph-name="iacute" unicode="&#xed;" horiz-adv-x="258" 
d="M75 0v520h108v-520h-108zM163 597h-88l73 160h114z" />
    <glyph glyph-name="icircumflex" unicode="&#xee;" horiz-adv-x="258" 
d="M75 0v520h108v-520h-108zM-3 576v92l132 88l132 -88v-92l-132 88z" />
    <glyph glyph-name="idieresis" unicode="&#xef;" horiz-adv-x="258" 
d="M75 0v520h108v-520h-108zM207 612q-27 0 -41.5 13t-14.5 40q0 28 14.5 40.5t41.5 12.5q26 0 40 -13t14 -41q0 -26 -14.5 -39t-39.5 -13zM51 612q-27 0 -42 13t-15 40q0 28 14.5 40.5t41.5 12.5t42 -13t15 -41q0 -26 -14.5 -39t-41.5 -13z" />
    <glyph glyph-name="eth" unicode="&#xf0;" horiz-adv-x="597" 
d="M295 -14q-55 0 -100.5 15.5t-79 46t-51.5 77.5t-18 109q0 77 26.5 131.5t72 83.5t104.5 29q42 0 82.5 -16.5t71 -52.5t42.5 -94h20q-4 28 -17 67.5t-38 81t-64.5 79t-97.5 63t-137 32.5l11 71q82 -7 145.5 -29t111.5 -55.5t80.5 -75.5t53 -88t29.5 -94t9 -94
q0 -64 -16 -117t-48 -91t-80 -58.5t-112 -20.5zM294 78q36 0 62 13.5t43.5 36t26 50.5t8.5 57v7q0 23 -10 49t-29.5 50t-47 39t-62.5 15q-38 0 -67 -20.5t-44.5 -56.5t-15.5 -82t16.5 -82t47 -56t72.5 -20zM163 566l255 138l34 -46l-258 -139z" />
    <glyph glyph-name="ntilde" unicode="&#xf1;" horiz-adv-x="608" 
d="M75 0v320v200h94l-6 -162h17q14 60 37.5 98.5t60 57.5t85.5 19q87 0 132.5 -62t45.5 -189v-282h-110v271q0 87 -26 127.5t-78 40.5q-45 0 -76.5 -28.5t-48.5 -74.5t-19 -100v-236h-108zM399 597q-20 0 -43 8t-45 18t-40.5 18.5t-31.5 8.5q-14 0 -19.5 -12.5t-3.5 -33.5
h-54q-11 34 -7 61t21 43t44 16q20 0 42.5 -8t44.5 -18t41 -18t30 -8q16 0 21.5 15t3.5 32h54q10 -32 7 -59.5t-19 -45t-46 -17.5z" />
    <glyph glyph-name="ograve" unicode="&#xf2;" horiz-adv-x="604" 
d="M302 -13q-75 0 -133 32t-90.5 93t-32.5 150q0 91 34 151t91.5 90t129.5 30q74 0 132 -31t91.5 -92t33.5 -152q0 -90 -33.5 -150.5t-91.5 -90.5t-131 -30zM306 73q45 0 77 21t49 62t17 98q0 59 -18 101.5t-51.5 65.5t-81.5 23q-43 0 -75.5 -20.5t-49.5 -61t-17 -98.5
q0 -91 40 -141t110 -50zM270 597l-99 160h114l73 -160h-88z" />
    <glyph glyph-name="oacute" unicode="&#xf3;" horiz-adv-x="604" 
d="M302 -13q-75 0 -133 32t-90.5 93t-32.5 150q0 91 34 151t91.5 90t129.5 30q74 0 132 -31t91.5 -92t33.5 -152q0 -90 -33.5 -150.5t-91.5 -90.5t-131 -30zM306 73q45 0 77 21t49 62t17 98q0 59 -18 101.5t-51.5 65.5t-81.5 23q-43 0 -75.5 -20.5t-49.5 -61t-17 -98.5
q0 -91 40 -141t110 -50zM335 597h-88l73 160h114z" />
    <glyph glyph-name="ocircumflex" unicode="&#xf4;" horiz-adv-x="604" 
d="M302 -13q-75 0 -133 32t-90.5 93t-32.5 150q0 91 34 151t91.5 90t129.5 30q74 0 132 -31t91.5 -92t33.5 -152q0 -90 -33.5 -150.5t-91.5 -90.5t-131 -30zM306 73q45 0 77 21t49 62t17 98q0 59 -18 101.5t-51.5 65.5t-81.5 23q-43 0 -75.5 -20.5t-49.5 -61t-17 -98.5
q0 -91 40 -141t110 -50zM149 579v89l154 97l153 -97v-89l-153 99z" />
    <glyph glyph-name="otilde" unicode="&#xf5;" horiz-adv-x="604" 
d="M302 -13q-75 0 -133 32t-90.5 93t-32.5 150q0 91 34 151t91.5 90t129.5 30q74 0 132 -31t91.5 -92t33.5 -152q0 -90 -33.5 -150.5t-91.5 -90.5t-131 -30zM306 73q45 0 77 21t49 62t17 98q0 59 -18 101.5t-51.5 65.5t-81.5 23q-43 0 -75.5 -20.5t-49.5 -61t-17 -98.5
q0 -91 40 -141t110 -50zM392 598q-20 0 -43 8t-45 18t-40.5 18.5t-31.5 8.5q-14 0 -19.5 -12.5t-3.5 -33.5h-54q-11 34 -7 61t21 43t44 16q20 0 42.5 -8t44.5 -18t41 -18t30 -8q16 0 21.5 15t3.5 32h54q10 -32 7 -59.5t-19 -45t-46 -17.5z" />
    <glyph glyph-name="odieresis" unicode="&#xf6;" horiz-adv-x="604" 
d="M302 -13q-75 0 -133 32t-90.5 93t-32.5 150q0 91 34 151t91.5 90t129.5 30q74 0 132 -31t91.5 -92t33.5 -152q0 -90 -33.5 -150.5t-91.5 -90.5t-131 -30zM306 73q45 0 77 21t49 62t17 98q0 59 -18 101.5t-51.5 65.5t-81.5 23q-43 0 -75.5 -20.5t-49.5 -61t-17 -98.5
q0 -91 40 -141t110 -50zM403 612q-30 0 -46 12.5t-16 41.5q0 28 16 41t46 13q29 0 45 -13t16 -41q0 -29 -16.5 -41.5t-44.5 -12.5zM202 612q-29 0 -45.5 12.5t-16.5 41.5q0 28 16.5 41t45.5 13q28 0 45 -13t17 -41q0 -29 -17 -41.5t-45 -12.5z" />
    <glyph glyph-name="divide" unicode="&#xf7;" horiz-adv-x="516" 
d="M60 259v97h396v-97h-396zM257 428q-29 0 -45.5 15t-16.5 43t17 43t45 15q30 0 47 -15t17 -43q0 -27 -17 -42.5t-47 -15.5zM258 72q-29 0 -46 15t-17 42q0 29 17 43.5t45 14.5q30 0 47 -15t17 -43q0 -27 -17 -42t-46 -15z" />
    <glyph glyph-name="oslash" unicode="&#xf8;" horiz-adv-x="604" 
d="M118 -48l292 620h67l-292 -620h-67zM302 -13q-75 0 -133 32t-90.5 93t-32.5 150q0 91 34 151t91.5 90t129.5 30q74 0 132 -31t91.5 -92t33.5 -152q0 -90 -33.5 -150.5t-91.5 -90.5t-131 -30zM306 73q45 0 77 21t49 62t17 98q0 59 -18 101.5t-51.5 65.5t-81.5 23
q-43 0 -75.5 -20.5t-49.5 -61t-17 -98.5q0 -91 40 -141t110 -50z" />
    <glyph glyph-name="ugrave" unicode="&#xf9;" horiz-adv-x="599" 
d="M245 -13q-88 0 -133 60.5t-45 182.5v290h109v-278q0 -82 25 -122t79 -40q30 0 53 15t40.5 42t28 63.5t14.5 80.5v239h108v-304v-216h-92l5 165h-17q-13 -62 -36.5 -101.5t-58 -58t-80.5 -18.5zM263 597l-99 160h114l73 -160h-88z" />
    <glyph glyph-name="uacute" unicode="&#xfa;" horiz-adv-x="599" 
d="M245 -13q-88 0 -133 60.5t-45 182.5v290h109v-278q0 -82 25 -122t79 -40q30 0 53 15t40.5 42t28 63.5t14.5 80.5v239h108v-304v-216h-92l5 165h-17q-13 -62 -36.5 -101.5t-58 -58t-80.5 -18.5zM329 597h-88l73 160h114z" />
    <glyph glyph-name="ucircumflex" unicode="&#xfb;" horiz-adv-x="599" 
d="M245 -13q-88 0 -133 60.5t-45 182.5v290h109v-278q0 -82 25 -122t79 -40q30 0 53 15t40.5 42t28 63.5t14.5 80.5v239h108v-304v-216h-92l5 165h-17q-13 -62 -36.5 -101.5t-58 -58t-80.5 -18.5zM142 579v89l154 97l153 -97v-89l-153 99z" />
    <glyph glyph-name="udieresis" unicode="&#xfc;" horiz-adv-x="599" 
d="M245 -13q-88 0 -133 60.5t-45 182.5v290h109v-278q0 -82 25 -122t79 -40q30 0 53 15t40.5 42t28 63.5t14.5 80.5v239h108v-304v-216h-92l5 165h-17q-13 -62 -36.5 -101.5t-58 -58t-80.5 -18.5zM396 612q-30 0 -46 12.5t-16 41.5q0 28 16 41t46 13q29 0 45 -13t16 -41
q0 -29 -16.5 -41.5t-44.5 -12.5zM195 612q-29 0 -45.5 12.5t-16.5 41.5q0 28 16.5 41t45.5 13q28 0 45 -13t17 -41q0 -29 -17 -41.5t-45 -12.5z" />
    <glyph glyph-name="yacute" unicode="&#xfd;" horiz-adv-x="591" 
d="M265 -176q-40 0 -80.5 8.5t-74.5 26t-57 45.5l44 86q26 -34 70 -51.5t93 -17.5q56 0 92.5 23.5t55.5 72.5t20 123l9 100h-19q-11 -71 -34.5 -114t-57.5 -62t-80 -19q-57 0 -95.5 28.5t-58 85t-19.5 138.5v223h108v-199q0 -95 25.5 -139t76.5 -44q28 0 50 14t38.5 41.5
t26 68.5t11.5 95v163h109v-385q0 -62 -10 -111.5t-30.5 -87t-50.5 -63t-70.5 -37.5t-91.5 -12zM332 597h-88l73 160h114z" />
    <glyph glyph-name="thorn" unicode="&#xfe;" horiz-adv-x="617" 
d="M75 -157v415v447h109v-166q0 -24 -3 -52.5t-7.5 -58t-9.5 -58.5h19q11 45 32.5 81.5t57 58.5t87.5 22q65 0 112 -34.5t72.5 -96t25.5 -143.5q0 -81 -24.5 -142t-72 -95.5t-114.5 -34.5q-50 0 -85.5 20t-57.5 55.5t-33 82.5h-19q4 -18 7.5 -39.5t6.5 -44t4.5 -44.5
t1.5 -42v-131h-109zM328 78q40 0 68.5 22t44.5 62.5t16 95.5q0 54 -15 94.5t-43.5 64t-69.5 23.5q-29 0 -52.5 -11.5t-41 -30.5t-29 -42.5t-17.5 -47t-6 -43.5v-14q0 -28 9.5 -58t28 -56.5t45.5 -42.5t62 -16z" />
    <glyph glyph-name="ydieresis" unicode="&#xff;" horiz-adv-x="591" 
d="M265 -176q-40 0 -80.5 8.5t-74.5 26t-57 45.5l44 86q26 -34 70 -51.5t93 -17.5q56 0 92.5 23.5t55.5 72.5t20 123l9 100h-19q-11 -71 -34.5 -114t-57.5 -62t-80 -19q-57 0 -95.5 28.5t-58 85t-19.5 138.5v223h108v-199q0 -95 25.5 -139t76.5 -44q28 0 50 14t38.5 41.5
t26 68.5t11.5 95v163h109v-385q0 -62 -10 -111.5t-30.5 -87t-50.5 -63t-70.5 -37.5t-91.5 -12zM399 612q-30 0 -46 12.5t-16 41.5q0 28 16 41t46 13q29 0 45 -13t16 -41q0 -29 -16.5 -41.5t-44.5 -12.5zM198 612q-29 0 -45.5 12.5t-16.5 41.5q0 28 16.5 41t45.5 13
q28 0 45 -13t17 -41q0 -29 -17 -41.5t-45 -12.5z" />
    <glyph glyph-name="Amacron" unicode="&#x100;" horiz-adv-x="671" 
d="M26 0l230 660h159l230 -660h-118l-185 571h-13l-185 -571h-118zM141 142v80h403v-80h-403zM197 765v81h278v-81h-278z" />
    <glyph glyph-name="amacron" unicode="&#x101;" horiz-adv-x="567" 
d="M195 -13q-43 0 -77 16.5t-53.5 49.5t-19.5 82q0 39 14.5 67.5t44 48t75.5 32t109 21.5q35 5 57.5 10t33 16t10.5 33q0 34 -23.5 58.5t-75.5 24.5q-29 0 -57.5 -10t-49 -32.5t-27.5 -60.5l-98 31q9 38 29 67.5t50 50t69.5 31t86.5 10.5q69 0 114 -23t67.5 -70.5
t22.5 -121.5v-106q0 -33 1.5 -69.5t4 -73t6.5 -69.5h-99q-3 30 -5.5 62t-4.5 65h-15q-14 -38 -39.5 -70t-63 -51t-87.5 -19zM233 71q21 0 42.5 7t43 21.5t40 37.5t32.5 55l-1 94l26 -5q-17 -15 -42.5 -23t-55.5 -12.5t-59.5 -10t-54 -15t-39 -26.5t-14.5 -47q0 -37 23 -56.5
t59 -19.5zM150 624v81h278v-81h-278z" />
    <glyph glyph-name="Abreve" unicode="&#x102;" horiz-adv-x="671" 
d="M26 0l230 660h159l230 -660h-118l-185 571h-13l-185 -571h-118zM141 142v80h403v-80h-403zM200 863h72q-2 -24 12 -43.5t54 -19.5q38 0 51 19t12 44h72q3 -41 -12.5 -70t-47 -44.5t-77.5 -15.5q-47 0 -78.5 16t-46.5 45t-11 69z" />
    <glyph glyph-name="abreve" unicode="&#x103;" horiz-adv-x="567" 
d="M195 -13q-43 0 -77 16.5t-53.5 49.5t-19.5 82q0 39 14.5 67.5t44 48t75.5 32t109 21.5q35 5 57.5 10t33 16t10.5 33q0 34 -23.5 58.5t-75.5 24.5q-29 0 -57.5 -10t-49 -32.5t-27.5 -60.5l-98 31q9 38 29 67.5t50 50t69.5 31t86.5 10.5q69 0 114 -23t67.5 -70.5
t22.5 -121.5v-106q0 -33 1.5 -69.5t4 -73t6.5 -69.5h-99q-3 30 -5.5 62t-4.5 65h-15q-14 -38 -39.5 -70t-63 -51t-87.5 -19zM233 71q21 0 42.5 7t43 21.5t40 37.5t32.5 55l-1 94l26 -5q-17 -15 -42.5 -23t-55.5 -12.5t-59.5 -10t-54 -15t-39 -26.5t-14.5 -47q0 -37 23 -56.5
t59 -19.5zM152 722h72q-2 -24 12 -43.5t54 -19.5q38 0 51 19t12 44h72q3 -41 -12.5 -70t-47 -44.5t-77.5 -15.5q-47 0 -78.5 16t-46.5 45t-11 69z" />
    <glyph glyph-name="Aogonek" unicode="&#x104;" horiz-adv-x="671" 
d="M26 0l230 660h159l230 -660h-118l-185 571h-13l-185 -571h-118zM141 142v80h403v-80h-403zM640 -189q-24 -5 -52.5 -5.5t-53.5 6t-41 24.5t-16 50q0 28 14.5 47.5t36.5 33t44 20.5v19h63v-6q-35 -17 -57.5 -41.5t-22.5 -43.5q0 -14 9.5 -21.5t23.5 -9.5t28 -1t24 3v-75z
" />
    <glyph glyph-name="aogonek" unicode="&#x105;" horiz-adv-x="567" 
d="M195 -13q-43 0 -77 16.5t-53.5 49.5t-19.5 82q0 39 14.5 67.5t44 48t75.5 32t109 21.5q35 5 57.5 10t33 16t10.5 33q0 34 -23.5 58.5t-75.5 24.5q-29 0 -57.5 -10t-49 -32.5t-27.5 -60.5l-98 31q9 38 29 67.5t50 50t69.5 31t86.5 10.5q69 0 114 -23t67.5 -70.5
t22.5 -121.5v-106q0 -33 1.5 -69.5t4 -73t6.5 -69.5h-99q-3 30 -5.5 62t-4.5 65h-15q-14 -38 -39.5 -70t-63 -51t-87.5 -19zM233 71q21 0 42.5 7t43 21.5t40 37.5t32.5 55l-1 94l26 -5q-17 -15 -42.5 -23t-55.5 -12.5t-59.5 -10t-54 -15t-39 -26.5t-14.5 -47q0 -37 23 -56.5
t59 -19.5zM513 -189q-24 -5 -52.5 -5.5t-53.5 6t-41 24.5t-16 50q0 28 14.5 47.5t36.5 33t44 20.5v19h63v-6q-35 -17 -57.5 -41.5t-22.5 -43.5q0 -14 9.5 -21.5t23.5 -9.5t28 -1t24 3v-75z" />
    <glyph glyph-name="Cacute" unicode="&#x106;" horiz-adv-x="670" 
d="M369 -13q-73 0 -131 22t-98 64.5t-61 105t-21 143.5q0 82 21.5 147t61.5 110.5t96 69.5t125 24q53 0 98 -14.5t78 -41.5t51.5 -66t19.5 -88l-103 -26q1 48 -19.5 79.5t-54.5 47.5t-73 16q-36 0 -70 -14t-60.5 -44.5t-42 -78.5t-15.5 -116q0 -87 25.5 -141.5t71 -80
t104.5 -25.5t94 23t51.5 61.5t18.5 87.5l97 -17q-1 -51 -16 -96.5t-46.5 -79.5t-81.5 -53t-120 -19zM374 737h-88l73 160h114z" />
    <glyph glyph-name="cacute" unicode="&#x107;" horiz-adv-x="555" 
d="M303 -13q-67 0 -115.5 21t-79.5 58t-46 85t-15 103q0 59 16 109.5t47.5 89t78.5 59.5t109 21q61 0 106.5 -20.5t74.5 -58t38 -87.5l-102 -31q-3 29 -17 54t-40 39.5t-63 14.5q-35 0 -61 -13.5t-43 -39t-25.5 -59.5t-8.5 -75q0 -56 15.5 -97.5t48.5 -64t83 -22.5
q42 0 69 15t42 40.5t20 59.5l97 -23q-6 -41 -24 -74.5t-47 -56.5t-68.5 -35t-89.5 -12zM326 597h-88l73 160h114z" />
    <glyph glyph-name="Cdotaccent" unicode="&#x10a;" horiz-adv-x="670" 
d="M369 -13q-73 0 -131 22t-98 64.5t-61 105t-21 143.5q0 82 21.5 147t61.5 110.5t96 69.5t125 24q53 0 98 -14.5t78 -41.5t51.5 -66t19.5 -88l-103 -26q1 48 -19.5 79.5t-54.5 47.5t-73 16q-36 0 -70 -14t-60.5 -44.5t-42 -78.5t-15.5 -116q0 -87 25.5 -141.5t71 -80
t104.5 -25.5t94 23t51.5 61.5t18.5 87.5l97 -17q-1 -51 -16 -96.5t-46.5 -79.5t-81.5 -53t-120 -19zM340 747q-35 0 -53 14.5t-18 43.5q0 28 18 43t53 15q36 0 54 -15t18 -43q0 -29 -18 -43.5t-54 -14.5z" />
    <glyph glyph-name="cdotaccent" unicode="&#x10b;" horiz-adv-x="555" 
d="M303 -13q-67 0 -115.5 21t-79.5 58t-46 85t-15 103q0 59 16 109.5t47.5 89t78.5 59.5t109 21q61 0 106.5 -20.5t74.5 -58t38 -87.5l-102 -31q-3 29 -17 54t-40 39.5t-63 14.5q-35 0 -61 -13.5t-43 -39t-25.5 -59.5t-8.5 -75q0 -56 15.5 -97.5t48.5 -64t83 -22.5
q42 0 69 15t42 40.5t20 59.5l97 -23q-6 -41 -24 -74.5t-47 -56.5t-68.5 -35t-89.5 -12zM292 607q-35 0 -53 14.5t-18 43.5q0 28 18 43t53 15q36 0 54 -15t18 -43q0 -29 -18 -43.5t-54 -14.5z" />
    <glyph glyph-name="Ccaron" unicode="&#x10c;" horiz-adv-x="670" 
d="M369 -13q-73 0 -131 22t-98 64.5t-61 105t-21 143.5q0 82 21.5 147t61.5 110.5t96 69.5t125 24q53 0 98 -14.5t78 -41.5t51.5 -66t19.5 -88l-103 -26q1 48 -19.5 79.5t-54.5 47.5t-73 16q-36 0 -70 -14t-60.5 -44.5t-42 -78.5t-15.5 -116q0 -87 25.5 -141.5t71 -80
t104.5 -25.5t94 23t51.5 61.5t18.5 87.5l97 -17q-1 -51 -16 -96.5t-46.5 -79.5t-81.5 -53t-120 -19zM188 909l153 -99l153 99v-89l-153 -98l-153 98v89z" />
    <glyph glyph-name="ccaron" unicode="&#x10d;" horiz-adv-x="555" 
d="M303 -13q-67 0 -115.5 21t-79.5 58t-46 85t-15 103q0 59 16 109.5t47.5 89t78.5 59.5t109 21q61 0 106.5 -20.5t74.5 -58t38 -87.5l-102 -31q-3 29 -17 54t-40 39.5t-63 14.5q-35 0 -61 -13.5t-43 -39t-25.5 -59.5t-8.5 -75q0 -56 15.5 -97.5t48.5 -64t83 -22.5
q42 0 69 15t42 40.5t20 59.5l97 -23q-6 -41 -24 -74.5t-47 -56.5t-68.5 -35t-89.5 -12zM140 769l153 -99l153 99v-89l-153 -98l-153 98v89z" />
    <glyph glyph-name="Dcaron" unicode="&#x10e;" horiz-adv-x="691" 
d="M137 0v92h194q64 0 106 29t62.5 82t20.5 125q0 62 -13 107.5t-39.5 74.5t-67 43.5t-94.5 14.5h-169v92h166q114 0 187 -39t108 -111.5t35 -174.5q0 -70 -16 -124.5t-43.5 -94t-65 -65.5t-82 -38.5t-92.5 -12.5h-197zM82 0v660h109v-660h-109zM182 909l154 -99l153 99v-89
l-153 -98l-154 98v89z" />
    <glyph glyph-name="dcaron" unicode="&#x10f;" horiz-adv-x="617" 
d="M260 -13q-66 0 -114 34.5t-73 96t-25 142.5q0 79 23.5 140.5t70 96.5t114.5 35q54 0 89 -21.5t56.5 -58.5t32.5 -82h20q-5 29 -10 60.5t-8 61t-3 52.5v161h110v-449v-256h-95l4 144h-18q-12 -49 -34 -84t-56.5 -54t-83.5 -19zM290 79q35 0 62 16t45 42t27.5 56.5
t9.5 57.5v14q0 20 -5.5 43.5t-17 47t-28.5 42.5t-40.5 30.5t-52.5 11.5q-42 0 -70.5 -23.5t-43.5 -64.5t-15 -94q0 -54 15.5 -94.5t44.5 -62.5t69 -22zM601 604q9 37 13 64t5.5 45.5t1.5 29.5h97q0 -36 -11 -72.5t-28 -66.5h-78z" />
    <glyph glyph-name="Dcroat" unicode="&#x110;" horiz-adv-x="747" 
d="M54 391h285v-84h-285v84zM193 0v92h194q64 0 106 29t62.5 82t20.5 125q0 62 -13 107.5t-39.5 74.5t-67 43.5t-94.5 14.5h-169v92h166q114 0 187 -39t108 -111.5t35 -174.5q0 -70 -16 -124.5t-44 -94t-65.5 -65.5t-81.5 -38.5t-92 -12.5h-197zM138 0v660h109v-660h-109z
" />
    <glyph glyph-name="dcroat" unicode="&#x111;" horiz-adv-x="610" 
d="M230 648h390v-49h-390v49zM260 -13q-66 0 -114 34.5t-73 96t-25 142.5q0 79 23.5 140.5t70 96.5t114.5 35q54 0 89 -21.5t56.5 -58.5t32.5 -82h20q-5 29 -10 60.5t-8 61t-3 52.5v161h110v-449v-256h-95l4 144h-18q-12 -49 -34 -84t-56.5 -54t-83.5 -19zM290 79
q35 0 62 16t45 42t27.5 56.5t9.5 57.5v14q0 20 -5.5 43.5t-17 47t-28.5 42.5t-40.5 30.5t-52.5 11.5q-42 0 -70.5 -23.5t-43.5 -64.5t-15 -94q0 -54 15.5 -94.5t44.5 -62.5t69 -22z" />
    <glyph glyph-name="Emacron" unicode="&#x112;" horiz-adv-x="599" 
d="M82 0v660h109v-660h-109zM146 0v92h414v-92h-414zM146 293v85h366v-85h-366zM146 569v91h413v-91h-413zM162 765v81h278v-81h-278z" />
    <glyph glyph-name="emacron" unicode="&#x113;" horiz-adv-x="570" 
d="M304 -13q-62 0 -110 18.5t-81 53t-50 83t-17 109.5t17 112.5t48.5 89.5t78 59t105.5 21q55 0 98.5 -18t73.5 -54.5t45 -91t11 -127.5l-407 -3v68l343 3l-38 -42q6 60 -10 99t-46 58t-69 19q-44 0 -76.5 -22.5t-50.5 -65.5t-18 -103q0 -90 40 -135.5t114 -45.5
q31 0 53 7.5t37 20t24.5 30t15.5 36.5l95 -22q-9 -37 -27.5 -65.5t-46.5 -49t-65.5 -31.5t-86.5 -11zM151 625v81h278v-81h-278z" />
    <glyph glyph-name="Edotaccent" unicode="&#x116;" horiz-adv-x="599" 
d="M82 0v660h109v-660h-109zM146 0v92h414v-92h-414zM146 293v85h366v-85h-366zM146 569v91h413v-91h-413zM301 747q-35 0 -53 14.5t-18 43.5q0 28 18 43t53 15q36 0 54 -15t18 -43q0 -29 -18 -43.5t-54 -14.5z" />
    <glyph glyph-name="edotaccent" unicode="&#x117;" horiz-adv-x="570" 
d="M304 -13q-62 0 -110 18.5t-81 53t-50 83t-17 109.5t17 112.5t48.5 89.5t78 59t105.5 21q55 0 98.5 -18t73.5 -54.5t45 -91t11 -127.5l-407 -3v68l343 3l-38 -42q6 60 -10 99t-46 58t-69 19q-44 0 -76.5 -22.5t-50.5 -65.5t-18 -103q0 -90 40 -135.5t114 -45.5
q31 0 53 7.5t37 20t24.5 30t15.5 36.5l95 -22q-9 -37 -27.5 -65.5t-46.5 -49t-65.5 -31.5t-86.5 -11zM290 607q-35 0 -53 14.5t-18 43.5q0 28 18 43t53 15q36 0 54 -15t18 -43q0 -29 -18 -43.5t-54 -14.5z" />
    <glyph glyph-name="Eogonek" unicode="&#x118;" horiz-adv-x="599" 
d="M82 0v660h109v-660h-109zM146 0v92h414v-92h-414zM146 293v85h366v-85h-366zM146 569v91h413v-91h-413zM565 -189q-24 -5 -52.5 -5.5t-53.5 6t-41 24.5t-16 50q0 28 14.5 47.5t36.5 33t44 20.5v19h63v-6q-35 -17 -57.5 -41.5t-22.5 -43.5q0 -14 9.5 -21.5t23.5 -9.5
t28 -1t24 3v-75z" />
    <glyph glyph-name="eogonek" unicode="&#x119;" horiz-adv-x="570" 
d="M503 -171q-22 -6 -51 -7.5t-56.5 4t-46 22t-18.5 47.5q0 20 8.5 37t23.5 30t33 22v60l79 37l14 -17q-14 -21 -33.5 -42t-34 -42t-14.5 -43q0 -19 10 -27.5t26 -10t32 1t28 4.5v-76zM304 -13q-62 0 -110 18.5t-81 53t-50 83t-17 109.5t17 112.5t48.5 89.5t78 59t105.5 21
q55 0 98.5 -18t73.5 -54.5t45 -91t11 -127.5l-407 -3v68l343 3l-38 -42q6 60 -10 99t-46 58t-69 19q-44 0 -76.5 -22.5t-50.5 -65.5t-18 -103q0 -90 40 -135.5t114 -45.5q31 0 53 7.5t37 20t24.5 30t15.5 36.5l95 -22q-9 -37 -27.5 -65.5t-46.5 -49t-65.5 -31.5t-86.5 -11z
" />
    <glyph glyph-name="Ecaron" unicode="&#x11a;" horiz-adv-x="599" 
d="M82 0v660h109v-660h-109zM146 0v92h414v-92h-414zM146 293v85h366v-85h-366zM146 569v91h413v-91h-413zM149 909l153 -99l153 99v-89l-153 -98l-153 98v89z" />
    <glyph glyph-name="ecaron" unicode="&#x11b;" horiz-adv-x="570" 
d="M304 -13q-62 0 -110 18.5t-81 53t-50 83t-17 109.5t17 112.5t48.5 89.5t78 59t105.5 21q55 0 98.5 -18t73.5 -54.5t45 -91t11 -127.5l-407 -3v68l343 3l-38 -42q6 60 -10 99t-46 58t-69 19q-44 0 -76.5 -22.5t-50.5 -65.5t-18 -103q0 -90 40 -135.5t114 -45.5
q31 0 53 7.5t37 20t24.5 30t15.5 36.5l95 -22q-9 -37 -27.5 -65.5t-46.5 -49t-65.5 -31.5t-86.5 -11zM137 769l154 -99l153 99v-89l-153 -98l-154 98v89z" />
    <glyph glyph-name="Gbreve" unicode="&#x11e;" horiz-adv-x="706" 
d="M339 -13q-81 0 -144.5 37.5t-100 112.5t-36.5 188q0 82 20 146t60 109t97.5 69t133.5 24q57 0 103 -14t80 -40t54.5 -63t23.5 -85l-104 -31q-3 50 -26 81t-58.5 45t-75.5 14q-59 0 -102.5 -26t-67.5 -81.5t-24 -143.5q0 -68 14.5 -115.5t40 -77t61 -43t76.5 -13.5
q50 0 86 18t58 55t27 94h-142v83h250v-106v-224h-83l13 176h-16q-14 -63 -41.5 -105t-70.5 -63t-106 -21zM218 863h72q-2 -24 12 -43.5t54 -19.5q38 0 51 19t12 44h72q3 -41 -12.5 -70t-47 -44.5t-77.5 -15.5q-47 0 -78.5 16t-46.5 45t-11 69z" />
    <glyph glyph-name="gbreve" unicode="&#x11f;" horiz-adv-x="588" 
d="M273 -178q-84 0 -137.5 13t-78.5 39t-25 64q0 46 36 75.5t109 37.5v20q-54 -1 -81.5 11.5t-27.5 39.5q0 28 27.5 47.5t89.5 34.5v19q-61 2 -94 38t-33 92q0 51 27.5 89.5t81 60t129.5 21.5h251v-88l-161 24v-20q60 -11 90 -38t30 -73q0 -41 -25.5 -73t-74.5 -49.5
t-120 -17.5q-13 0 -28 1t-44 5q-24 -15 -38.5 -28t-14.5 -23t12.5 -16t31.5 -8t36 -2h128q20 0 51 -3.5t62 -16.5t52 -40.5t21 -76.5q0 -56 -32 -91t-95 -51.5t-155 -16.5zM280 -89q64 0 103 7.5t57 24.5t18 43q0 24 -12 37.5t-29.5 19t-35.5 6.5t-31 1h-119
q-53 -9 -74 -30.5t-21 -47.5q0 -25 18 -38.5t50.5 -18t75.5 -4.5zM287 253q58 0 87.5 25.5t29.5 67.5q0 45 -30 73.5t-89 28.5q-58 0 -88.5 -28t-30.5 -71q0 -29 14 -50.5t40.5 -33.5t66.5 -12zM154 724h72q-2 -24 12 -43.5t54 -19.5q38 0 51 19t12 44h72q3 -41 -12.5 -70
t-47 -44.5t-77.5 -15.5q-47 0 -78.5 16t-46.5 45t-11 69z" />
    <glyph glyph-name="Gdotaccent" unicode="&#x120;" horiz-adv-x="706" 
d="M339 -13q-81 0 -144.5 37.5t-100 112.5t-36.5 188q0 82 20 146t60 109t97.5 69t133.5 24q57 0 103 -14t80 -40t54.5 -63t23.5 -85l-104 -31q-3 50 -26 81t-58.5 45t-75.5 14q-59 0 -102.5 -26t-67.5 -81.5t-24 -143.5q0 -68 14.5 -115.5t40 -77t61 -43t76.5 -13.5
q50 0 86 18t58 55t27 94h-142v83h250v-106v-224h-83l13 176h-16q-14 -63 -41.5 -105t-70.5 -63t-106 -21zM354 747q-35 0 -53 14.5t-18 43.5q0 28 18 43t53 15q36 0 54 -15t18 -43q0 -29 -18 -43.5t-54 -14.5z" />
    <glyph glyph-name="gdotaccent" unicode="&#x121;" horiz-adv-x="588" 
d="M273 -178q-84 0 -137.5 13t-78.5 39t-25 64q0 46 36 75.5t109 37.5v20q-54 -1 -81.5 11.5t-27.5 39.5q0 28 27.5 47.5t89.5 34.5v19q-61 2 -94 38t-33 92q0 51 27.5 89.5t81 60t129.5 21.5h251v-88l-161 24v-20q60 -11 90 -38t30 -73q0 -41 -25.5 -73t-74.5 -49.5
t-120 -17.5q-13 0 -28 1t-44 5q-24 -15 -38.5 -28t-14.5 -23t12.5 -16t31.5 -8t36 -2h128q20 0 51 -3.5t62 -16.5t52 -40.5t21 -76.5q0 -56 -32 -91t-95 -51.5t-155 -16.5zM280 -89q64 0 103 7.5t57 24.5t18 43q0 24 -12 37.5t-29.5 19t-35.5 6.5t-31 1h-119
q-53 -9 -74 -30.5t-21 -47.5q0 -25 18 -38.5t50.5 -18t75.5 -4.5zM287 253q58 0 87.5 25.5t29.5 67.5q0 45 -30 73.5t-89 28.5q-58 0 -88.5 -28t-30.5 -71q0 -29 14 -50.5t40.5 -33.5t66.5 -12zM289 608q-35 0 -53 14.5t-18 43.5q0 28 18 43t53 15q36 0 54 -15t18 -43
q0 -29 -18 -43.5t-54 -14.5z" />
    <glyph glyph-name="uni0122" unicode="&#x122;" horiz-adv-x="706" 
d="M339 -13q-81 0 -144.5 37.5t-100 112.5t-36.5 188q0 82 20 146t60 109t97.5 69t133.5 24q57 0 103 -14t80 -40t54.5 -63t23.5 -85l-104 -31q-3 50 -26 81t-58.5 45t-75.5 14q-59 0 -102.5 -26t-67.5 -81.5t-24 -143.5q0 -68 14.5 -115.5t40 -77t61 -43t76.5 -13.5
q50 0 86 18t58 55t27 94h-142v83h250v-106v-224h-83l13 176h-16q-14 -63 -41.5 -105t-70.5 -63t-106 -21zM283 -226q14 64 17.5 104.5t3.5 62.5h100q0 -43 -11.5 -85.5t-25.5 -81.5h-84z" />
    <glyph glyph-name="uni0123" unicode="&#x123;" horiz-adv-x="588" 
d="M273 -178q-84 0 -137.5 13t-78.5 39t-25 64q0 46 36 75.5t109 37.5v20q-54 -1 -81.5 11.5t-27.5 39.5q0 28 27.5 47.5t89.5 34.5v19q-61 2 -94 38t-33 92q0 51 27.5 89.5t81 60t129.5 21.5h251v-88l-161 24v-20q60 -11 90 -38t30 -73q0 -41 -25.5 -73t-74.5 -49.5
t-120 -17.5q-13 0 -28 1t-44 5q-24 -15 -38.5 -28t-14.5 -23t12.5 -16t31.5 -8t36 -2h128q20 0 51 -3.5t62 -16.5t52 -40.5t21 -76.5q0 -56 -32 -91t-95 -51.5t-155 -16.5zM280 -89q64 0 103 7.5t57 24.5t18 43q0 24 -12 37.5t-29.5 19t-35.5 6.5t-31 1h-119
q-53 -9 -74 -30.5t-21 -47.5q0 -25 18 -38.5t50.5 -18t75.5 -4.5zM287 253q58 0 87.5 25.5t29.5 67.5q0 45 -30 73.5t-89 28.5q-58 0 -88.5 -28t-30.5 -71q0 -29 14 -50.5t40.5 -33.5t66.5 -12zM350 740q-8 -34 -12.5 -61t-5.5 -46.5t-1 -30.5h-102q0 25 5.5 49.5t15 48
t18.5 40.5h82z" />
    <glyph glyph-name="Hbar" unicode="&#x126;" horiz-adv-x="818" 
d="M66 563h686v-78h-686v78zM580 0v660h109v-660h-109zM144 0v660h109v-660h-109zM203 290v92h421v-92h-421z" />
    <glyph glyph-name="hbar" unicode="&#x127;" horiz-adv-x="608" 
d="M-9 648h380v-49h-380v49zM75 0v319v386h110v-162q0 -21 -1 -43.5t-4 -45.5l-6 -46t-7 -47h19q14 56 36.5 94.5t57 58t83.5 19.5q90 0 134 -62.5t44 -187.5v-283h-109v269q0 88 -27 129t-80 41q-44 0 -73.5 -26t-46.5 -70t-22 -100v-243h-108z" />
    <glyph glyph-name="Itilde" unicode="&#x128;" horiz-adv-x="274" 
d="M82 0v660h111v-660h-111zM210 731q-28 0 -50 12.5t-40 25.5t-34 13q-15 0 -19.5 -13t-2.5 -28h-56q-12 32 -8.5 58.5t20.5 42t45 15.5q27 0 49 -12.5t40.5 -25t34.5 -12.5t20 13t1 28h57q10 -29 7.5 -56t-18 -44t-46.5 -17z" />
    <glyph glyph-name="itilde" unicode="&#x129;" horiz-adv-x="258" 
d="M75 0v520h108v-520h-108zM202 591q-28 0 -50 12.5t-40 25.5t-34 13q-15 0 -19.5 -13t-2.5 -28h-56q-12 32 -8.5 58.5t20.5 42t45 15.5q27 0 49 -12.5t40.5 -25t34.5 -12.5t20 13t1 28h57q10 -29 7.5 -56t-18 -44t-46.5 -17z" />
    <glyph glyph-name="Imacron" unicode="&#x12a;" horiz-adv-x="274" 
d="M82 0v660h111v-660h-111zM15 758v85h244v-85h-244z" />
    <glyph glyph-name="imacron" unicode="&#x12b;" horiz-adv-x="258" 
d="M75 0v520h108v-520h-108zM8 618v85h244v-85h-244z" />
    <glyph glyph-name="Iogonek" unicode="&#x12e;" horiz-adv-x="274" 
d="M82 0v660h111v-660h-111zM198 -189q-24 -5 -52.5 -5.5t-53.5 6t-41 24.5t-16 50q0 28 14.5 47.5t36.5 33t44 20.5v19h63v-6q-35 -17 -57.5 -41.5t-22.5 -43.5q0 -14 9.5 -21.5t23.5 -9.5t28 -1t24 3v-75z" />
    <glyph glyph-name="iogonek" unicode="&#x12f;" horiz-adv-x="258" 
d="M75 0v520h108v-520h-108zM129 607q-35 0 -53 14.5t-18 43.5q0 28 18 43t53 15q36 0 54 -15t18 -43q0 -29 -18 -43.5t-54 -14.5zM189 -189q-24 -5 -52.5 -5.5t-53.5 6t-41 24.5t-16 50q0 28 14.5 47.5t36.5 33t44 20.5v19h63v-6q-35 -17 -57.5 -41.5t-22.5 -43.5
q0 -14 9.5 -21.5t23.5 -9.5t28 -1t24 3v-75z" />
    <glyph glyph-name="Idotaccent" unicode="&#x130;" horiz-adv-x="274" 
d="M82 0v660h111v-660h-111zM136 747q-35 0 -53 14.5t-18 43.5q0 28 18 43t53 15q36 0 54 -15t18 -43q0 -29 -18 -43.5t-54 -14.5z" />
    <glyph glyph-name="dotlessi" unicode="&#x131;" horiz-adv-x="258" 
d="M75 0v520h108v-520h-108z" />
    <glyph glyph-name="IJ" unicode="&#x132;" horiz-adv-x="632" 
d="M82 0v660h111v-660h-111zM297 -8l-13 102q11 -2 21 -2.5t17 -0.5q50 0 76 15.5t35.5 47t9.5 79.5v427h109v-427q0 -76 -20.5 -130.5t-67 -83.5t-127.5 -29q-7 0 -16.5 0.5t-23.5 1.5z" />
    <glyph glyph-name="ij" unicode="&#x133;" horiz-adv-x="525" 
d="M75 0v520h108v-520h-108zM129 607q-35 0 -53 14.5t-18 43.5q0 28 18 43t53 15q36 0 54 -15t18 -43q0 -29 -18 -43.5t-54 -14.5zM287 -190q-10 0 -22.5 2t-25.5 6l-9 97q59 -10 85 4.5t26 70.5v530h109v-524q0 -47 -10 -82t-30.5 -58t-51 -34.5t-71.5 -11.5zM395 607
q-35 0 -53 14.5t-18 43.5q0 28 18 43t53 15q36 0 54 -15t18 -43q0 -29 -18 -43.5t-54 -14.5z" />
    <glyph glyph-name="uni0136" unicode="&#x136;" horiz-adv-x="666" 
d="M82 0v660h109v-309q54 20 103.5 52.5t91 73.5t71.5 88t45 95h123q-18 -55 -49 -105t-71.5 -92.5t-85 -74.5t-88.5 -51v-13q48 0 86.5 -12.5t69.5 -36.5t55.5 -61t44.5 -87l46 -127h-124l-29 99q-20 58 -48 95t-71 55t-111 18h-59v-267h-109zM262 -226q14 64 17.5 104.5
t3.5 62.5h100q0 -43 -11.5 -85.5t-25.5 -81.5h-84z" />
    <glyph glyph-name="uni0137" unicode="&#x137;" horiz-adv-x="561" 
d="M75 0v706h107v-399q37 20 70.5 46.5t62 55.5t50 57.5t33.5 53.5h126q-18 -38 -45.5 -75.5t-62.5 -70t-76.5 -56t-86.5 -32.5v-13q56 6 96 -9t69 -45t51.5 -69.5t42.5 -80.5l28 -69h-120l-20 47q-22 51 -46.5 90.5t-58 62.5t-82.5 23h-31v-223h-107zM224 -226
q14 64 17.5 104.5t3.5 62.5h100q0 -43 -11.5 -85.5t-25.5 -81.5h-84z" />
    <glyph glyph-name="Lacute" unicode="&#x139;" horiz-adv-x="508" 
d="M82 0v660h109v-660h-109zM111 0v94h378v-94h-378zM170 737h-88l73 160h114z" />
    <glyph glyph-name="lacute" unicode="&#x13a;" horiz-adv-x="257" 
d="M75 0v705h107v-705h-107zM161 779h-88l73 160h114z" />
    <glyph glyph-name="uni013B" unicode="&#x13b;" horiz-adv-x="508" 
d="M82 0v660h109v-660h-109zM111 0v94h378v-94h-378zM202 -226q14 64 17.5 104.5t3.5 62.5h100q0 -43 -11.5 -85.5t-25.5 -81.5h-84z" />
    <glyph glyph-name="uni013C" unicode="&#x13c;" horiz-adv-x="257" 
d="M75 0v705h107v-705h-107zM57 -226q14 64 17.5 104.5t3.5 62.5h100q0 -43 -11.5 -85.5t-25.5 -81.5h-84z" />
    <glyph glyph-name="Lcaron" unicode="&#x13d;" horiz-adv-x="508" 
d="M82 0v660h109v-660h-109zM111 0v94h378v-94h-378zM312 559q9 37 13 64t5.5 45.5t1.5 29.5h97q0 -36 -11 -72.5t-28 -66.5h-78z" />
    <glyph glyph-name="lcaron" unicode="&#x13e;" horiz-adv-x="257" 
d="M75 0v705h107v-705h-107zM241 604q9 37 13 64t5.5 45.5t1.5 29.5h97q0 -36 -11 -72.5t-28 -66.5h-78z" />
    <glyph glyph-name="Lslash" unicode="&#x141;" horiz-adv-x="589" 
d="M72 329l382 131v-94l-382 -131v94zM163 0v660h109v-660h-109zM192 0v94h378v-94h-378z" />
    <glyph glyph-name="lslash" unicode="&#x142;" horiz-adv-x="356" 
d="M41 376l274 92v-84l-274 -91v83zM123 0v705h108v-705h-108z" />
    <glyph glyph-name="Nacute" unicode="&#x143;" horiz-adv-x="746" 
d="M82 0v660h144l331 -515h9l-7 515h106v-660h-131l-344 531h-9l7 -531h-106zM407 737h-88l73 160h114z" />
    <glyph glyph-name="nacute" unicode="&#x144;" horiz-adv-x="608" 
d="M75 0v320v200h94l-6 -162h17q14 60 37.5 98.5t60 57.5t85.5 19q87 0 132.5 -62t45.5 -189v-282h-110v271q0 87 -26 127.5t-78 40.5q-45 0 -76.5 -28.5t-48.5 -74.5t-19 -100v-236h-108zM342 596h-88l73 160h114z" />
    <glyph glyph-name="uni0145" unicode="&#x145;" horiz-adv-x="746" 
d="M82 0v660h144l331 -515h9l-7 515h106v-660h-131l-344 531h-9l7 -531h-106zM302 -226q14 64 17.5 104.5t3.5 62.5h100q0 -43 -11.5 -85.5t-25.5 -81.5h-84z" />
    <glyph glyph-name="uni0146" unicode="&#x146;" horiz-adv-x="608" 
d="M75 0v320v200h94l-6 -162h17q14 60 37.5 98.5t60 57.5t85.5 19q87 0 132.5 -62t45.5 -189v-282h-110v271q0 87 -26 127.5t-78 40.5q-45 0 -76.5 -28.5t-48.5 -74.5t-19 -100v-236h-108zM239 -226q14 64 17.5 104.5t3.5 62.5h100q0 -43 -11.5 -85.5t-25.5 -81.5h-84z" />
    <glyph glyph-name="Ncaron" unicode="&#x147;" horiz-adv-x="746" 
d="M82 0v660h144l331 -515h9l-7 515h106v-660h-131l-344 531h-9l7 -531h-106zM221 909l154 -99l153 99v-89l-153 -98l-154 98v89z" />
    <glyph glyph-name="ncaron" unicode="&#x148;" horiz-adv-x="608" 
d="M75 0v320v200h94l-6 -162h17q14 60 37.5 98.5t60 57.5t85.5 19q87 0 132.5 -62t45.5 -189v-282h-110v271q0 87 -26 127.5t-78 40.5q-45 0 -76.5 -28.5t-48.5 -74.5t-19 -100v-236h-108zM156 768l154 -99l152 99v-89l-152 -98l-154 98v89z" />
    <glyph glyph-name="Eng" unicode="&#x14a;" horiz-adv-x="746" 
d="M419 -192l-19 100q10 -2 19.5 -2.5t16.5 -0.5q49 0 75 13.5t35.5 37.5t9.5 56v43h109v-54q0 -40 -11 -75t-36 -62t-66.5 -42.5t-101.5 -15.5q-6 0 -13 0.5t-18 1.5zM82 0v660h144l331 -515h9l-7 515h106v-660h-131l-344 531h-9l7 -531h-106z" />
    <glyph glyph-name="eng" unicode="&#x14b;" horiz-adv-x="608" 
d="M397 -174q-18 0 -37.5 3.5t-42.5 8.5l-8 95q65 -20 93.5 -5t28.5 69v27h110v-24q0 -58 -16.5 -96.5t-48 -58t-79.5 -19.5zM75 0v320v200h94l-6 -162h17q14 60 37.5 98.5t60 57.5t85.5 19q87 0 132.5 -62t45.5 -189v-282h-110v271q0 87 -26 127.5t-78 40.5
q-45 0 -76.5 -28.5t-48.5 -74.5t-19 -100v-236h-108z" />
    <glyph glyph-name="Omacron" unicode="&#x14c;" horiz-adv-x="716" 
d="M357 -13q-72 0 -127.5 23.5t-94 67.5t-58 107t-19.5 142q0 116 39 192.5t107 115t155 38.5q68 0 123 -22.5t94.5 -67t60.5 -109t21 -146.5q0 -80 -20 -143.5t-59 -107.5t-94.5 -67t-127.5 -23zM359 78q60 0 102 29t64 83.5t22 133.5q0 81 -22.5 138t-65 87.5t-102.5 30.5
q-58 0 -100.5 -29.5t-65 -85.5t-22.5 -138q0 -60 13 -106.5t37 -78t59.5 -48t80.5 -16.5zM219 765v81h278v-81h-278z" />
    <glyph glyph-name="omacron" unicode="&#x14d;" horiz-adv-x="604" 
d="M302 -13q-75 0 -133 32t-90.5 93t-32.5 150q0 91 34 151t91.5 90t129.5 30q74 0 132 -31t91.5 -92t33.5 -152q0 -90 -33.5 -150.5t-91.5 -90.5t-131 -30zM306 73q45 0 77 21t49 62t17 98q0 59 -18 101.5t-51.5 65.5t-81.5 23q-43 0 -75.5 -20.5t-49.5 -61t-17 -98.5
q0 -91 40 -141t110 -50zM163 625v81h278v-81h-278z" />
    <glyph glyph-name="Ohungarumlaut" unicode="&#x150;" horiz-adv-x="716" 
d="M357 -13q-72 0 -127.5 23.5t-94 67.5t-58 107t-19.5 142q0 116 39 192.5t107 115t155 38.5q68 0 123 -22.5t94.5 -67t60.5 -109t21 -146.5q0 -80 -20 -143.5t-59 -107.5t-94.5 -67t-127.5 -23zM359 78q60 0 102 29t64 83.5t22 133.5q0 81 -22.5 138t-65 87.5t-102.5 30.5
q-58 0 -100.5 -29.5t-65 -85.5t-22.5 -138q0 -60 13 -106.5t37 -78t59.5 -48t80.5 -16.5zM311 748h-82l44 141h106zM474 748h-80l44 141h106z" />
    <glyph glyph-name="ohungarumlaut" unicode="&#x151;" horiz-adv-x="604" 
d="M302 -13q-75 0 -133 32t-90.5 93t-32.5 150q0 91 34 151t91.5 90t129.5 30q74 0 132 -31t91.5 -92t33.5 -152q0 -90 -33.5 -150.5t-91.5 -90.5t-131 -30zM306 73q45 0 77 21t49 62t17 98q0 59 -18 101.5t-51.5 65.5t-81.5 23q-43 0 -75.5 -20.5t-49.5 -61t-17 -98.5
q0 -91 40 -141t110 -50zM255 608h-82l44 141h106zM418 608h-80l44 141h106z" />
    <glyph glyph-name="OE" unicode="&#x152;" horiz-adv-x="987" 
d="M310 -16q-74 0 -131 42t-89 119.5t-32 184.5t31 183.5t87 117.5t131 41q55 0 97 -22.5t69 -68t39 -114.5h19q-4 30 -7.5 59t-5.5 57.5t-2 56.5v20h103v-660h-100v28q0 22 1.5 46t4.5 50l6 52h-19q-7 -56 -33 -99.5t-68 -68t-101 -24.5zM562 0v92h386v-92h-386zM334 75
q31 0 58 13t49 36t37 53.5t23 67t8 76.5v8q0 31 -7 65.5t-21 67.5t-34.5 59t-48.5 42t-63 16q-55 0 -91.5 -35.5t-54.5 -93.5t-18 -127q0 -72 19 -128t55.5 -88t88.5 -32zM562 290v86h340v-86h-340zM562 568v92h386v-92h-386z" />
    <glyph glyph-name="oe" unicode="&#x153;" horiz-adv-x="960" 
d="M286 -13q-67 0 -121.5 32t-86.5 93t-32 150q0 90 32 150t86.5 90.5t121.5 30.5q47 0 86.5 -15.5t69.5 -50.5t45 -93h16q9 51 35.5 86.5t67 54t91.5 18.5q54 0 95 -20t69.5 -57.5t42 -91.5t9.5 -122l-412 -3v67l313 3q-5 67 -40 101t-84 34q-42 0 -73 -23.5t-47.5 -66.5
t-16.5 -102q0 -86 37.5 -133.5t109.5 -47.5q28 0 49 7.5t36 20.5t24.5 31t14.5 39l96 -26q-8 -34 -26.5 -63t-45.5 -49.5t-62.5 -32t-79.5 -11.5q-51 0 -94.5 17t-73 51t-38.5 85h-14q-14 -49 -41.5 -83t-67.5 -52t-91 -18zM297 72q24 0 48.5 9.5t44.5 30.5t32 56t12 86
q0 53 -12.5 89t-34 58t-47 32t-50.5 10q-23 0 -47 -8.5t-44 -28t-32 -55t-12 -88.5t12.5 -90t33.5 -59t46 -32t50 -10z" />
    <glyph glyph-name="Racute" unicode="&#x154;" horiz-adv-x="660" 
d="M82 0v660h242q52 0 94 -8t75 -24t56 -39.5t34.5 -54t11.5 -67.5q0 -35 -10.5 -63.5t-32 -50.5t-53 -35.5t-73.5 -18.5v-13q41 -5 69 -21t47 -45t32 -76l41 -144h-119l-32 132q-10 40 -30 64.5t-50 35.5t-71 11h-122v-243h-109zM191 329h125q82 0 124.5 30t42.5 92
t-40.5 91.5t-124.5 29.5h-127v-243zM347 737h-88l73 160h114z" />
    <glyph glyph-name="racute" unicode="&#x155;" horiz-adv-x="411" 
d="M75 0v271v249h94l-5 -180h17q9 61 28 104t52 65.5t82 22.5q10 0 22 -1t27 -6l-5 -114q-15 6 -31 8.5t-29 2.5q-40 0 -68 -22.5t-46.5 -62t-28.5 -91.5v-246h-109zM239 597h-88l73 160h114z" />
    <glyph glyph-name="uni0156" unicode="&#x156;" horiz-adv-x="660" 
d="M82 0v660h242q52 0 94 -8t75 -24t56 -39.5t34.5 -54t11.5 -67.5q0 -35 -10.5 -63.5t-32 -50.5t-53 -35.5t-73.5 -18.5v-13q41 -5 69 -21t47 -45t32 -76l41 -144h-119l-32 132q-10 40 -30 64.5t-50 35.5t-71 11h-122v-243h-109zM191 329h125q82 0 124.5 30t42.5 92
t-40.5 91.5t-124.5 29.5h-127v-243zM271 -226q14 64 17.5 104.5t3.5 62.5h100q0 -43 -11.5 -85.5t-25.5 -81.5h-84z" />
    <glyph glyph-name="uni0157" unicode="&#x157;" horiz-adv-x="411" 
d="M75 0v271v249h94l-5 -180h17q9 61 28 104t52 65.5t82 22.5q10 0 22 -1t27 -6l-5 -114q-15 6 -31 8.5t-29 2.5q-40 0 -68 -22.5t-46.5 -62t-28.5 -91.5v-246h-109zM61 -226q14 64 17.5 104.5t3.5 62.5h100q0 -43 -11.5 -85.5t-25.5 -81.5h-84z" />
    <glyph glyph-name="Rcaron" unicode="&#x158;" horiz-adv-x="660" 
d="M82 0v660h242q52 0 94 -8t75 -24t56 -39.5t34.5 -54t11.5 -67.5q0 -35 -10.5 -63.5t-32 -50.5t-53 -35.5t-73.5 -18.5v-13q41 -5 69 -21t47 -45t32 -76l41 -144h-119l-32 132q-10 40 -30 64.5t-50 35.5t-71 11h-122v-243h-109zM191 329h125q82 0 124.5 30t42.5 92
t-40.5 91.5t-124.5 29.5h-127v-243zM161 909l153 -99l153 99v-89l-153 -98l-153 98v89z" />
    <glyph glyph-name="rcaron" unicode="&#x159;" horiz-adv-x="411" 
d="M75 0v271v249h94l-5 -180h17q9 61 28 104t52 65.5t82 22.5q10 0 22 -1t27 -6l-5 -114q-15 6 -31 8.5t-29 2.5q-40 0 -68 -22.5t-46.5 -62t-28.5 -91.5v-246h-109zM53 769l153 -99l153 99v-89l-153 -98l-153 98v89z" />
    <glyph glyph-name="Sacute" unicode="&#x15a;" horiz-adv-x="641" 
d="M320 -13q-65 0 -115.5 13.5t-85 40t-52 66t-16.5 91.5l97 26q-2 -50 19 -83t62.5 -49.5t95.5 -16.5q53 0 89 13t54.5 35.5t18.5 51.5q0 33 -22.5 52.5t-59.5 31t-83 21.5q-47 10 -93 23t-83.5 34.5t-60 55.5t-22.5 86q0 60 30 103t85.5 67t131.5 24t133.5 -23.5t91 -68
t34.5 -107.5l-100 -26q0 34 -11.5 60t-32.5 43t-50 25.5t-66 8.5q-43 0 -75 -12.5t-49.5 -34t-17.5 -50.5q0 -36 25.5 -56.5t67.5 -33t90 -23.5q43 -9 85.5 -21.5t78 -33.5t57 -55t21.5 -87q0 -58 -30.5 -101t-90.5 -66.5t-151 -23.5zM354 736h-88l73 160h114z" />
    <glyph glyph-name="sacute" unicode="&#x15b;" horiz-adv-x="535" 
d="M273 -13q-54 0 -96 11t-71.5 31.5t-45.5 49.5t-19 63l88 29q0 -29 18 -52t51.5 -35.5t80.5 -12.5q55 0 85 18t30 50q0 24 -16.5 38t-47 23t-71.5 17q-37 8 -73.5 18.5t-67 27.5t-49 44.5t-18.5 69.5q0 48 25 82.5t72.5 54t113.5 19.5q64 0 110.5 -19t74.5 -53t34 -80
l-92 -27q-2 31 -18.5 52t-44.5 31.5t-66 10.5q-50 0 -78.5 -18t-28.5 -49q0 -24 17.5 -38.5t48 -23t69.5 -16.5q40 -8 77 -18t66.5 -26.5t47 -44t17.5 -69.5q0 -51 -27.5 -86.5t-77.5 -53.5t-118 -18zM295 597h-88l73 160h114z" />
    <glyph glyph-name="Scedilla" unicode="&#x15e;" horiz-adv-x="641" 
d="M320 -13q-65 0 -115.5 13.5t-85 40t-52 66t-16.5 91.5l97 26q-2 -50 19 -83t62.5 -49.5t95.5 -16.5q53 0 89 13t54.5 35.5t18.5 51.5q0 33 -22.5 52.5t-59.5 31t-83 21.5q-47 10 -93 23t-83.5 34.5t-60 55.5t-22.5 86q0 60 30 103t85.5 67t131.5 24t133.5 -23.5t91 -68
t34.5 -107.5l-100 -26q0 34 -11.5 60t-32.5 43t-50 25.5t-66 8.5q-43 0 -75 -12.5t-49.5 -34t-17.5 -50.5q0 -36 25.5 -56.5t67.5 -33t90 -23.5q43 -9 85.5 -21.5t78 -33.5t57 -55t21.5 -87q0 -58 -30.5 -101t-90.5 -66.5t-151 -23.5zM212 -228l15 60q17 -3 42.5 -6
t50.5 -1.5t42 11.5t17 30q0 8 -3.5 16t-15 14t-36.5 8.5t-69 0.5l12 100h61l-6 -69q45 3 74 -5t43 -25.5t14 -44.5q0 -40 -25 -62.5t-62.5 -31t-79 -6.5t-74.5 11z" />
    <glyph glyph-name="scedilla" unicode="&#x15f;" horiz-adv-x="535" 
d="M273 -13q-54 0 -96 11t-71.5 31.5t-45.5 49.5t-19 63l88 29q0 -29 18 -52t51.5 -35.5t80.5 -12.5q55 0 85 18t30 50q0 24 -16.5 38t-47 23t-71.5 17q-37 8 -73.5 18.5t-67 27.5t-49 44.5t-18.5 69.5q0 48 25 82.5t72.5 54t113.5 19.5q64 0 110.5 -19t74.5 -53t34 -80
l-92 -27q-2 31 -18.5 52t-44.5 31.5t-66 10.5q-50 0 -78.5 -18t-28.5 -49q0 -24 17.5 -38.5t48 -23t69.5 -16.5q40 -8 77 -18t66.5 -26.5t47 -44t17.5 -69.5q0 -51 -27.5 -86.5t-77.5 -53.5t-118 -18zM157 -228l15 60q17 -3 42.5 -6t50.5 -1.5t42 11.5t17 30q0 8 -3.5 16
t-15 14t-36.5 8.5t-69 0.5l12 100h61l-6 -69q45 3 74 -5t43 -25.5t14 -44.5q0 -40 -25 -62.5t-62.5 -31t-79 -6.5t-74.5 11z" />
    <glyph glyph-name="Scaron" unicode="&#x160;" horiz-adv-x="641" 
d="M320 -13q-65 0 -115.5 13.5t-85 40t-52 66t-16.5 91.5l97 26q-2 -50 19 -83t62.5 -49.5t95.5 -16.5q53 0 89 13t54.5 35.5t18.5 51.5q0 33 -22.5 52.5t-59.5 31t-83 21.5q-47 10 -93 23t-83.5 34.5t-60 55.5t-22.5 86q0 60 30 103t85.5 67t131.5 24t133.5 -23.5t91 -68
t34.5 -107.5l-100 -26q0 34 -11.5 60t-32.5 43t-50 25.5t-66 8.5q-43 0 -75 -12.5t-49.5 -34t-17.5 -50.5q0 -36 25.5 -56.5t67.5 -33t90 -23.5q43 -9 85.5 -21.5t78 -33.5t57 -55t21.5 -87q0 -58 -30.5 -101t-90.5 -66.5t-151 -23.5zM167 908l154 -99l153 99v-89l-153 -98
l-154 98v89z" />
    <glyph glyph-name="scaron" unicode="&#x161;" horiz-adv-x="535" 
d="M273 -13q-54 0 -96 11t-71.5 31.5t-45.5 49.5t-19 63l88 29q0 -29 18 -52t51.5 -35.5t80.5 -12.5q55 0 85 18t30 50q0 24 -16.5 38t-47 23t-71.5 17q-37 8 -73.5 18.5t-67 27.5t-49 44.5t-18.5 69.5q0 48 25 82.5t72.5 54t113.5 19.5q64 0 110.5 -19t74.5 -53t34 -80
l-92 -27q-2 31 -18.5 52t-44.5 31.5t-66 10.5q-50 0 -78.5 -18t-28.5 -49q0 -24 17.5 -38.5t48 -23t69.5 -16.5q40 -8 77 -18t66.5 -26.5t47 -44t17.5 -69.5q0 -51 -27.5 -86.5t-77.5 -53.5t-118 -18zM109 769l154 -99l152 99v-89l-152 -98l-154 98v89z" />
    <glyph glyph-name="Tcaron" unicode="&#x164;" horiz-adv-x="553" 
d="M221 0v660h110v-660h-110zM23 566v94h507v-94h-507zM123 909l154 -99l153 99v-89l-153 -98l-154 98v89z" />
    <glyph glyph-name="tcaron" unicode="&#x165;" horiz-adv-x="380" 
d="M247 -11q-77 0 -114.5 42t-37.5 129v271h-77l2 89h50q26 0 39 8.5t16 30.5l10 77h65v-116h143v-91h-143v-266q0 -39 18 -56t53 -17q19 0 38.5 4.5t37.5 17.5v-105q-30 -10 -55 -14t-45 -4zM262 600q9 37 13 64t5.5 45.5t1.5 29.5h97q0 -36 -11 -72.5t-28 -66.5h-78z" />
    <glyph glyph-name="Utilde" unicode="&#x168;" horiz-adv-x="719" 
d="M360 -13q-57 0 -102 11.5t-79 34.5t-56.5 55.5t-34 74t-11.5 91.5v406h110v-402q0 -58 19.5 -96t57.5 -57.5t95 -19.5q59 0 97 19t57 57.5t19 96.5v402h109v-406q0 -128 -71.5 -197.5t-209.5 -69.5zM449 738q-20 0 -43 8t-45 18t-40.5 18.5t-31.5 8.5q-14 0 -19.5 -12.5
t-3.5 -33.5h-54q-11 34 -7 61t21 43t44 16q20 0 42.5 -8t44.5 -18t41 -18t30 -8q16 0 21.5 15t3.5 32h54q10 -32 7 -59.5t-19 -45t-46 -17.5z" />
    <glyph glyph-name="utilde" unicode="&#x169;" horiz-adv-x="599" 
d="M245 -13q-88 0 -133 60.5t-45 182.5v290h109v-278q0 -82 25 -122t79 -40q30 0 53 15t40.5 42t28 63.5t14.5 80.5v239h108v-304v-216h-92l5 165h-17q-13 -62 -36.5 -101.5t-58 -58t-80.5 -18.5zM385 598q-20 0 -43 8t-45 18t-40.5 18.5t-31.5 8.5q-14 0 -19.5 -12.5
t-3.5 -33.5h-54q-11 34 -7 61t21 43t44 16q20 0 42.5 -8t44.5 -18t41 -18t30 -8q16 0 21.5 15t3.5 32h54q10 -32 7 -59.5t-19 -45t-46 -17.5z" />
    <glyph glyph-name="Umacron" unicode="&#x16a;" horiz-adv-x="719" 
d="M360 -13q-57 0 -102 11.5t-79 34.5t-56.5 55.5t-34 74t-11.5 91.5v406h110v-402q0 -58 19.5 -96t57.5 -57.5t95 -19.5q59 0 97 19t57 57.5t19 96.5v402h109v-406q0 -128 -71.5 -197.5t-209.5 -69.5zM220 765v81h278v-81h-278z" />
    <glyph glyph-name="umacron" unicode="&#x16b;" horiz-adv-x="599" 
d="M245 -13q-88 0 -133 60.5t-45 182.5v290h109v-278q0 -82 25 -122t79 -40q30 0 53 15t40.5 42t28 63.5t14.5 80.5v239h108v-304v-216h-92l5 165h-17q-13 -62 -36.5 -101.5t-58 -58t-80.5 -18.5zM156 625v81h278v-81h-278z" />
    <glyph glyph-name="Ubreve" unicode="&#x16c;" horiz-adv-x="719" 
d="M360 -13q-57 0 -102 11.5t-79 34.5t-56.5 55.5t-34 74t-11.5 91.5v406h110v-402q0 -58 19.5 -96t57.5 -57.5t95 -19.5q59 0 97 19t57 57.5t19 96.5v402h109v-406q0 -128 -71.5 -197.5t-209.5 -69.5zM223 863h72q-2 -24 12 -43.5t54 -19.5q38 0 51 19t12 44h72
q3 -41 -12.5 -70t-47 -44.5t-77.5 -15.5q-47 0 -78.5 16t-46.5 45t-11 69z" />
    <glyph glyph-name="ubreve" unicode="&#x16d;" horiz-adv-x="599" 
d="M245 -13q-88 0 -133 60.5t-45 182.5v290h109v-278q0 -82 25 -122t79 -40q30 0 53 15t40.5 42t28 63.5t14.5 80.5v239h108v-304v-216h-92l5 165h-17q-13 -62 -36.5 -101.5t-58 -58t-80.5 -18.5zM159 723h72q-2 -24 12 -43.5t54 -19.5q38 0 51 19t12 44h72q3 -41 -12.5 -70
t-47 -44.5t-77.5 -15.5q-47 0 -78.5 16t-46.5 45t-11 69z" />
    <glyph glyph-name="Uring" unicode="&#x16e;" horiz-adv-x="719" 
d="M360 -13q-57 0 -102 11.5t-79 34.5t-56.5 55.5t-34 74t-11.5 91.5v406h110v-402q0 -58 19.5 -96t57.5 -57.5t95 -19.5q59 0 97 19t57 57.5t19 96.5v402h109v-406q0 -128 -71.5 -197.5t-209.5 -69.5zM360 727q-39 0 -65 21.5t-26 64.5t26.5 64.5t63.5 21.5q38 0 64 -22.5
t26 -63.5q0 -44 -26 -65t-63 -21zM361 774q17 0 25.5 10t8.5 28q0 19 -9 29.5t-26 10.5t-27 -10t-10 -28q0 -19 10 -29.5t28 -10.5z" />
    <glyph glyph-name="uring" unicode="&#x16f;" horiz-adv-x="599" 
d="M245 -13q-88 0 -133 60.5t-45 182.5v290h109v-278q0 -82 25 -122t79 -40q30 0 53 15t40.5 42t28 63.5t14.5 80.5v239h108v-304v-216h-92l5 165h-17q-13 -62 -36.5 -101.5t-58 -58t-80.5 -18.5zM296 587q-39 0 -65 21.5t-26 64.5t26.5 64.5t63.5 21.5q38 0 64 -22.5
t26 -63.5q0 -44 -26 -65t-63 -21zM297 634q17 0 25.5 10t8.5 28q0 19 -9 29.5t-26 10.5t-27 -10t-10 -28q0 -19 10 -29.5t28 -10.5z" />
    <glyph glyph-name="Uhungarumlaut" unicode="&#x170;" horiz-adv-x="719" 
d="M360 -13q-57 0 -102 11.5t-79 34.5t-56.5 55.5t-34 74t-11.5 91.5v406h110v-402q0 -58 19.5 -96t57.5 -57.5t95 -19.5q59 0 97 19t57 57.5t19 96.5v402h109v-406q0 -128 -71.5 -197.5t-209.5 -69.5zM312 748h-82l44 141h106zM475 748h-80l44 141h106z" />
    <glyph glyph-name="uhungarumlaut" unicode="&#x171;" horiz-adv-x="599" 
d="M245 -13q-88 0 -133 60.5t-45 182.5v290h109v-278q0 -82 25 -122t79 -40q30 0 53 15t40.5 42t28 63.5t14.5 80.5v239h108v-304v-216h-92l5 165h-17q-13 -62 -36.5 -101.5t-58 -58t-80.5 -18.5zM248 608h-82l44 141h106zM411 608h-80l44 141h106z" />
    <glyph glyph-name="Uogonek" unicode="&#x172;" horiz-adv-x="719" 
d="M428 -192q-24 -3 -51.5 -4.5t-53 4t-41.5 20.5t-16 46q0 29 15 48.5t37.5 32t41.5 18.5v19l64 5v-6q-39 -19 -60 -42.5t-21 -44.5q0 -12 10 -17.5t24 -6.5t28.5 0.5t22.5 2.5v-75zM360 -13q-57 0 -102 11.5t-79 34.5t-56.5 55.5t-34 74t-11.5 91.5v406h110v-402
q0 -58 19.5 -96t57.5 -57.5t95 -19.5q59 0 97 19t57 57.5t19 96.5v402h109v-406q0 -128 -71.5 -197.5t-209.5 -69.5z" />
    <glyph glyph-name="uogonek" unicode="&#x173;" horiz-adv-x="599" 
d="M245 -13q-88 0 -133 60.5t-45 182.5v290h109v-278q0 -82 25 -122t79 -40q30 0 53 15t40.5 42t28 63.5t14.5 80.5v239h108v-304v-216h-92l5 165h-17q-13 -62 -36.5 -101.5t-58 -58t-80.5 -18.5zM529 -189q-24 -5 -52.5 -5.5t-53.5 6t-41 24.5t-16 50q0 28 14.5 47.5
t36.5 33t44 20.5v19h63v-6q-35 -17 -57.5 -41.5t-22.5 -43.5q0 -14 9.5 -21.5t23.5 -9.5t28 -1t24 3v-75z" />
    <glyph glyph-name="Wcircumflex" unicode="&#x174;" horiz-adv-x="957" 
d="M190 0l-159 660h118l120 -563h10l129 563h144l128 -563h10l123 563h113l-163 -660h-154l-125 563h-9l-127 -563h-158zM326 720v89l154 97l153 -97v-89l-153 99z" />
    <glyph glyph-name="wcircumflex" unicode="&#x175;" horiz-adv-x="827" 
d="M157 0l-135 520h112l93 -430h17l102 430h136l104 -430h16l92 430h111l-136 -520h-151l-99 429h-13l-98 -429h-151zM263 579v89l154 97l153 -97v-89l-153 99z" />
    <glyph glyph-name="Ycircumflex" unicode="&#x176;" horiz-adv-x="600" 
d="M246 0v211l-235 449h128l159 -346h5l159 346h128l-235 -448v-212h-109zM147 720v89l154 97l153 -97v-89l-153 99z" />
    <glyph glyph-name="ycircumflex" unicode="&#x177;" horiz-adv-x="591" 
d="M265 -176q-40 0 -80.5 8.5t-74.5 26t-57 45.5l44 86q26 -34 70 -51.5t93 -17.5q56 0 92.5 23.5t55.5 72.5t20 123l9 100h-19q-11 -71 -34.5 -114t-57.5 -62t-80 -19q-57 0 -95.5 28.5t-58 85t-19.5 138.5v223h108v-199q0 -95 25.5 -139t76.5 -44q28 0 50 14t38.5 41.5
t26 68.5t11.5 95v163h109v-385q0 -62 -10 -111.5t-30.5 -87t-50.5 -63t-70.5 -37.5t-91.5 -12zM145 579v89l154 97l153 -97v-89l-153 99z" />
    <glyph glyph-name="Ydieresis" unicode="&#x178;" horiz-adv-x="600" 
d="M246 0v211l-235 449h128l159 -346h5l159 346h128l-235 -448v-212h-109zM401 752q-30 0 -46 12.5t-16 41.5q0 28 16 41t46 13q29 0 45 -13t16 -41q0 -29 -16.5 -41.5t-44.5 -12.5zM200 752q-29 0 -45.5 12.5t-16.5 41.5q0 28 16.5 41t45.5 13q28 0 45 -13t17 -41
q0 -29 -17 -41.5t-45 -12.5z" />
    <glyph glyph-name="Zacute" unicode="&#x179;" horiz-adv-x="560" 
d="M34 0v105l357 449v12h-344v94h467v-113l-352 -442v-11h364v-94h-492zM313 737h-88l73 160h114z" />
    <glyph glyph-name="zacute" unicode="&#x17a;" horiz-adv-x="500" 
d="M35 0v95l286 322v13h-282v90h424v-92l-291 -324v-13h293v-91h-430zM284 597h-88l73 160h114z" />
    <glyph glyph-name="Zdotaccent" unicode="&#x17b;" horiz-adv-x="560" 
d="M34 0v105l357 449v12h-344v94h467v-113l-352 -442v-11h364v-94h-492zM279 747q-35 0 -53 14.5t-18 43.5q0 28 18 43t53 15q36 0 54 -15t18 -43q0 -29 -18 -43.5t-54 -14.5z" />
    <glyph glyph-name="zdotaccent" unicode="&#x17c;" horiz-adv-x="500" 
d="M35 0v95l286 322v13h-282v90h424v-92l-291 -324v-13h293v-91h-430zM250 607q-35 0 -53 14.5t-18 43.5q0 28 18 43t53 15q36 0 54 -15t18 -43q0 -29 -18 -43.5t-54 -14.5z" />
    <glyph glyph-name="Zcaron" unicode="&#x17d;" horiz-adv-x="560" 
d="M34 0v105l357 449v12h-344v94h467v-113l-352 -442v-11h364v-94h-492zM126 909l154 -99l153 99v-89l-153 -98l-154 98v89z" />
    <glyph glyph-name="zcaron" unicode="&#x17e;" horiz-adv-x="500" 
d="M35 0v96l286 321v13h-282v90h424v-92l-291 -324v-13h293v-91h-430zM98 769l154 -99l153 99v-89l-153 -98l-154 98v89z" />
    <glyph glyph-name="Ohorn" unicode="&#x1a0;" horiz-adv-x="716" 
d="M535 622l-85 9l2 21q45 0 64 15.5t22 42.5t0 61h82q9 -53 1 -87.5t-30 -50t-56 -11.5zM357 -13q-72 0 -127.5 23.5t-94 67.5t-58 107t-19.5 142q0 116 39 192.5t107 115t155 38.5q68 0 123 -22.5t94.5 -67t60.5 -109t21 -146.5q0 -80 -20 -143.5t-59 -107.5t-94.5 -67
t-127.5 -23zM359 78q60 0 102 29t64 83.5t22 133.5q0 81 -22.5 138t-65 87.5t-102.5 30.5q-58 0 -100.5 -29.5t-65 -85.5t-22.5 -138q0 -60 13 -106.5t37 -78t59.5 -48t80.5 -16.5z" />
    <glyph glyph-name="ohorn" unicode="&#x1a1;" horiz-adv-x="625" 
d="M462 488l-84 9l2 24q44 0 63 15.5t22.5 42t0.5 57.5h83q9 -49 1.5 -83.5t-29.5 -51.5t-59 -13zM302 -13q-75 0 -133 32t-90.5 93t-32.5 150q0 91 34 151t91.5 90t129.5 30q74 0 132 -31t91.5 -92t33.5 -152q0 -90 -33.5 -150.5t-91.5 -90.5t-131 -30zM306 73q45 0 77 21
t49 62t17 98q0 59 -18 101.5t-51.5 65.5t-81.5 23q-43 0 -75.5 -20.5t-49.5 -61t-17 -98.5q0 -91 40 -141t110 -50z" />
    <glyph glyph-name="Uhorn" unicode="&#x1af;" horiz-adv-x="719" 
d="M360 -13q-57 0 -102 11.5t-79 34.5t-56.5 55.5t-34 74t-11.5 91.5v406h110v-402q0 -58 19.5 -96t57.5 -57.5t95 -19.5q59 0 97 19t57 57.5t19 96.5v402h109v-406q0 -128 -71.5 -197.5t-209.5 -69.5zM656 627l-82 10l2 23q34 0 52.5 10t25.5 27t7 38t-2 43h87
q8 -50 1 -85.5t-29.5 -53t-61.5 -12.5z" />
    <glyph glyph-name="uhorn" unicode="&#x1b0;" horiz-adv-x="638" 
d="M245 -13q-88 0 -133 60.5t-45 182.5v290h109v-278q0 -82 25 -122t79 -40q30 0 53 15t40.5 42t28 63.5t14.5 80.5v239h108v-304v-216h-92l5 165h-17q-13 -62 -36.5 -101.5t-58 -58t-80.5 -18.5zM539 487l-82 10l2 23q34 0 52.5 10t25.5 27t7 38t-2 43h87q8 -50 1 -85.5
t-29.5 -53t-61.5 -12.5z" />
    <glyph glyph-name="uni01CD" unicode="&#x1cd;" horiz-adv-x="671" 
d="M26 0l230 660h159l230 -660h-118l-185 571h-13l-185 -571h-118zM141 142v80h403v-80h-403zM183 909l154 -99l153 99v-89l-153 -98l-154 98v89z" />
    <glyph glyph-name="uni01CE" unicode="&#x1ce;" horiz-adv-x="567" 
d="M195 -13q-43 0 -77 16.5t-53.5 49.5t-19.5 82q0 39 14.5 67.5t44 48t75.5 32t109 21.5q35 5 57.5 10t33 16t10.5 33q0 34 -23.5 58.5t-75.5 24.5q-29 0 -57.5 -10t-49 -32.5t-27.5 -60.5l-98 31q9 38 29 67.5t50 50t69.5 31t86.5 10.5q69 0 114 -23t67.5 -70.5
t22.5 -121.5v-106q0 -33 1.5 -69.5t4 -73t6.5 -69.5h-99q-3 30 -5.5 62t-4.5 65h-15q-14 -38 -39.5 -70t-63 -51t-87.5 -19zM233 71q21 0 42.5 7t43 21.5t40 37.5t32.5 55l-1 94l26 -5q-17 -15 -42.5 -23t-55.5 -12.5t-59.5 -10t-54 -15t-39 -26.5t-14.5 -47q0 -37 23 -56.5
t59 -19.5zM136 768l153 -99l153 99v-89l-153 -98l-153 98v89z" />
    <glyph glyph-name="uni0218" unicode="&#x218;" horiz-adv-x="641" 
d="M320 -13q-65 0 -115.5 13.5t-85 40t-52 66t-16.5 91.5l97 26q-2 -50 19 -83t62.5 -49.5t95.5 -16.5q53 0 89 13t54.5 35.5t18.5 51.5q0 33 -22.5 52.5t-59.5 31t-83 21.5q-47 10 -93 23t-83.5 34.5t-60 55.5t-22.5 86q0 60 30 103t85.5 67t131.5 24t133.5 -23.5t91 -68
t34.5 -107.5l-100 -26q0 34 -11.5 60t-32.5 43t-50 25.5t-66 8.5q-43 0 -75 -12.5t-49.5 -34t-17.5 -50.5q0 -36 25.5 -56.5t67.5 -33t90 -23.5q43 -9 85.5 -21.5t78 -33.5t57 -55t21.5 -87q0 -58 -30.5 -101t-90.5 -66.5t-151 -23.5zM250 -226q14 64 17.5 104.5t3.5 62.5
h100q0 -43 -11.5 -85.5t-25.5 -81.5h-84z" />
    <glyph glyph-name="uni0219" unicode="&#x219;" horiz-adv-x="535" 
d="M273 -13q-54 0 -96 11t-71.5 31.5t-45.5 49.5t-19 63l88 29q0 -29 18 -52t51.5 -35.5t80.5 -12.5q55 0 85 18t30 50q0 24 -16.5 38t-47 23t-71.5 17q-37 8 -73.5 18.5t-67 27.5t-49 44.5t-18.5 69.5q0 48 25 82.5t72.5 54t113.5 19.5q64 0 110.5 -19t74.5 -53t34 -80
l-92 -27q-2 31 -18.5 52t-44.5 31.5t-66 10.5q-50 0 -78.5 -18t-28.5 -49q0 -24 17.5 -38.5t48 -23t69.5 -16.5q40 -8 77 -18t66.5 -26.5t47 -44t17.5 -69.5q0 -51 -27.5 -86.5t-77.5 -53.5t-118 -18zM195 -226q14 64 17.5 104.5t3.5 62.5h100q0 -43 -11.5 -85.5
t-25.5 -81.5h-84z" />
    <glyph glyph-name="uni021A" unicode="&#x21a;" horiz-adv-x="553" 
d="M221 0v660h110v-660h-110zM23 566v94h507v-94h-507zM204 -226q14 64 17.5 104.5t3.5 62.5h100q0 -43 -11.5 -85.5t-25.5 -81.5h-84z" />
    <glyph glyph-name="uni021B" unicode="&#x21b;" horiz-adv-x="380" 
d="M247 -11q-77 0 -114.5 42t-37.5 129v271h-77l2 89h50q26 0 39 8.5t16 30.5l10 77h65v-116h143v-91h-143v-266q0 -39 18 -56t53 -17q19 0 38.5 4.5t37.5 17.5v-105q-30 -10 -55 -14t-45 -4zM136 -226q14 64 17.5 104.5t3.5 62.5h100q0 -43 -11.5 -85.5t-25.5 -81.5h-84z
" />
    <glyph glyph-name="uni0237" unicode="&#x237;" horiz-adv-x="266" 
d="M28 -190q-10 0 -22.5 2t-25.5 6l-9 97q59 -10 85 4.5t26 70.5v530h109v-524q0 -47 -10 -82t-30.5 -58t-51 -34.5t-71.5 -11.5z" />
    <glyph glyph-name="circumflex" unicode="&#x2c6;" horiz-adv-x="347" 
d="M20 579v89l154 97l153 -97v-89l-153 99z" />
    <glyph glyph-name="caron" unicode="&#x2c7;" horiz-adv-x="347" 
d="M20 768l154 -98l153 98v-89l-153 -97l-154 97v89z" />
    <glyph glyph-name="breve" unicode="&#x2d8;" horiz-adv-x="260" 
d="M21 722h72q-2 -24 12 -43.5t54 -19.5q38 0 51 19t12 44h72q3 -41 -12.5 -70t-47 -44.5t-77.5 -15.5q-47 0 -78.5 16t-46.5 45t-11 69z" />
    <glyph glyph-name="dotaccent" unicode="&#x2d9;" horiz-adv-x="183" 
d="M91 606q-35 0 -53 14.5t-18 43.5q0 28 18 43t53 15q36 0 54 -15t18 -43q0 -29 -18 -43.5t-54 -14.5z" />
    <glyph glyph-name="ring" unicode="&#x2da;" horiz-adv-x="220" 
d="M111 586q-39 0 -65 21.5t-26 64.5t26.5 64.5t63.5 21.5q38 0 64 -22.5t26 -63.5q0 -44 -26 -65t-63 -21zM112 633q17 0 25.5 10t8.5 28q0 19 -9 29.5t-26 10.5t-27 -10t-10 -28q0 -19 10 -29.5t28 -10.5z" />
    <glyph glyph-name="ogonek" unicode="&#x2db;" horiz-adv-x="195" 
d="M183 -189q-24 -5 -52.5 -5.5t-53.5 6t-41 24.5t-16 50q0 28 14.5 47.5t36.5 33t44 20.5v19h63v-6q-35 -17 -57.5 -41.5t-22.5 -43.5q0 -14 9.5 -21.5t23.5 -9.5t28 -1t24 3v-75z" />
    <glyph glyph-name="tilde" unicode="&#x2dc;" horiz-adv-x="352" 
d="M266 597q-20 0 -43 8t-45 18t-40.5 18.5t-31.5 8.5q-14 0 -19.5 -12.5t-3.5 -33.5h-54q-11 34 -7 61t21 43t44 16q20 0 42.5 -8t44.5 -18t41 -18t30 -8q16 0 21.5 15t3.5 32h54q10 -32 7 -59.5t-19 -45t-46 -17.5z" />
    <glyph glyph-name="hungarumlaut" unicode="&#x2dd;" horiz-adv-x="348" 
d="M102 597h-82l44 141h106zM265 597h-80l44 141h106z" />
    <glyph glyph-name="gravecomb" unicode="&#x300;" 
d="M119 597l-99 160h114l73 -160h-88z" />
    <glyph glyph-name="acutecomb" unicode="&#x301;" 
d="M108 597h-88l73 160h114z" />
    <glyph glyph-name="uni0302" unicode="&#x302;" 
d="M20 579v89l154 97l153 -97v-89l-153 99z" />
    <glyph glyph-name="tildecomb" unicode="&#x303;" 
d="M266 597q-20 0 -43 8t-45 18t-40.5 18.5t-31.5 8.5q-14 0 -19.5 -12.5t-3.5 -33.5h-54q-11 34 -7 61t21 43t44 16q20 0 42.5 -8t44.5 -18t41 -18t30 -8q16 0 21.5 15t3.5 32h54q10 -32 7 -59.5t-19 -45t-46 -17.5z" />
    <glyph glyph-name="uni0304" unicode="&#x304;" 
d="M20 624v81h278v-81h-278z" />
    <glyph glyph-name="uni0306" unicode="&#x306;" 
d="M21 722h72q-2 -24 12 -43.5t54 -19.5q38 0 51 19t12 44h72q3 -41 -12.5 -70t-47 -44.5t-77.5 -15.5q-47 0 -78.5 16t-46.5 45t-11 69z" />
    <glyph glyph-name="uni0307" unicode="&#x307;" 
d="M91 606q-35 0 -53 14.5t-18 43.5q0 28 18 43t53 15q36 0 54 -15t18 -43q0 -29 -18 -43.5t-54 -14.5z" />
    <glyph glyph-name="uni0308" unicode="&#x308;" 
d="M283 611q-30 0 -46 12.5t-16 41.5q0 28 16 41t46 13q29 0 45 -13t16 -41q0 -29 -16.5 -41.5t-44.5 -12.5zM82 611q-29 0 -45.5 12.5t-16.5 41.5q0 28 16.5 41t45.5 13q28 0 45 -13t17 -41q0 -29 -17 -41.5t-45 -12.5z" />
    <glyph glyph-name="hookabovecomb" unicode="&#x309;" 
d="M61 597q-2 20 8 32t23.5 20t24 16t10.5 21t-12 18.5t-29.5 6t-35.5 -2t-30 -7.5v61q21 10 52 13.5t62 -2t51.5 -23.5t20.5 -51q0 -23 -11.5 -36.5t-26 -22.5t-25.5 -18.5t-11 -24.5h-71z" />
    <glyph glyph-name="uni030A" unicode="&#x30a;" 
d="M111 586q-39 0 -65 21.5t-26 64.5t26.5 64.5t63.5 21.5q38 0 64 -22.5t26 -63.5q0 -44 -26 -65t-63 -21zM112 633q17 0 25.5 10t8.5 28q0 19 -9 29.5t-26 10.5t-27 -10t-10 -28q0 -19 10 -29.5t28 -10.5z" />
    <glyph glyph-name="uni030B" unicode="&#x30b;" 
d="M102 597h-82l44 141h106zM265 597h-80l44 141h106z" />
    <glyph glyph-name="uni030C" unicode="&#x30c;" 
d="M20 768l154 -98l153 98v-89l-153 -97l-154 97v89z" />
    <glyph glyph-name="uni0312" unicode="&#x312;" 
d="M141 738q-8 -34 -12.5 -61t-5.5 -46.5t-1 -30.5h-102q0 25 5.5 49.5t15 48t18.5 40.5h82z" />
    <glyph glyph-name="uni031B" unicode="&#x31b;" 
d="M102 486l-82 10l2 23q34 0 52.5 10t25.5 27t7 38t-2 43h87q8 -50 1 -85.5t-29.5 -53t-61.5 -12.5z" />
    <glyph glyph-name="dotbelowcomb" unicode="&#x323;" 
d="M91 -198q-35 0 -53 14.5t-18 43.5q0 28 18 43t53 15q36 0 54 -15t18 -43q0 -29 -18 -43.5t-54 -14.5z" />
    <glyph glyph-name="uni0326" unicode="&#x326;" 
d="M20 -226q14 64 17.5 104.5t3.5 62.5h100q0 -43 -11.5 -85.5t-25.5 -81.5h-84z" />
    <glyph glyph-name="uni0327" unicode="&#x327;" 
d="M20 -228l15 60q17 -3 42.5 -6t50.5 -1.5t42 11.5t17 30q0 8 -3.5 16t-15 14t-36.5 8.5t-69 0.5l12 100h61l-6 -69q45 3 74 -5t43 -25.5t14 -44.5q0 -40 -25 -62.5t-62.5 -31t-79 -6.5t-74.5 11z" />
    <glyph glyph-name="uni0328" unicode="&#x328;" 
d="M183 -189q-24 -5 -52.5 -5.5t-53.5 6t-41 24.5t-16 50q0 28 14.5 47.5t36.5 33t44 20.5v19h63v-6q-35 -17 -57.5 -41.5t-22.5 -43.5q0 -14 9.5 -21.5t23.5 -9.5t28 -1t24 3v-75z" />
    <glyph glyph-name="pi" unicode="&#x3c0;" horiz-adv-x="651" 
d="M119 0v497h108v-497h-108zM424 0v497h108v-497h-108zM23 429v91h605v-91h-605z" />
    <glyph glyph-name="uni0E3F" unicode="&#xe3f;" horiz-adv-x="655" 
d="M269 646l-21 137h110l-21 -137h-68zM248 -126l21 136h68l21 -136h-110zM82 6v647h247q56 0 101.5 -10t77.5 -30.5t49.5 -52.5t17.5 -78q0 -38 -15 -66t-48 -46t-85 -26v-13q91 -7 132.5 -47.5t41.5 -106.5q0 -56 -27 -94t-82 -57.5t-140 -19.5h-270zM184 95h174
q70 0 104 23t34 71q0 55 -45.5 82.5t-138.5 27.5h-128v-204zM184 373h109q90 0 133.5 24.5t43.5 73.5q0 47 -38 70.5t-115 23.5h-133v-192z" />
    <glyph glyph-name="Wgrave" unicode="&#x1e80;" horiz-adv-x="957" 
d="M190 0l-159 660h118l120 -563h10l129 563h144l128 -563h10l123 563h113l-163 -660h-154l-125 563h-9l-127 -563h-158zM447 737l-99 160h114l73 -160h-88z" />
    <glyph glyph-name="wgrave" unicode="&#x1e81;" horiz-adv-x="827" 
d="M157 0l-135 520h112l93 -430h17l102 430h136l104 -430h16l92 430h111l-136 -520h-151l-99 429h-13l-98 -429h-151zM384 597l-100 160h115l72 -160h-87z" />
    <glyph glyph-name="Wacute" unicode="&#x1e82;" horiz-adv-x="957" 
d="M190 0l-159 660h118l120 -563h10l129 563h144l128 -563h10l123 563h113l-163 -660h-154l-125 563h-9l-127 -563h-158zM513 737h-88l73 160h114z" />
    <glyph glyph-name="wacute" unicode="&#x1e83;" horiz-adv-x="827" 
d="M157 0l-135 520h112l93 -430h17l102 430h136l104 -430h16l92 430h111l-136 -520h-151l-99 429h-13l-98 -429h-151zM449 597h-88l73 160h114z" />
    <glyph glyph-name="Wdieresis" unicode="&#x1e84;" horiz-adv-x="957" 
d="M190 0l-159 660h118l120 -563h10l129 563h144l128 -563h10l123 563h113l-163 -660h-154l-125 563h-9l-127 -563h-158zM580 752q-30 0 -46 12.5t-16 41.5q0 28 16 41t46 13q29 0 45 -13t16 -41q0 -29 -16.5 -41.5t-44.5 -12.5zM379 752q-29 0 -45.5 12.5t-16.5 41.5
q0 28 16.5 41t45.5 13q28 0 45 -13t17 -41q0 -29 -17 -41.5t-45 -12.5z" />
    <glyph glyph-name="wdieresis" unicode="&#x1e85;" horiz-adv-x="827" 
d="M157 0l-135 520h112l93 -430h17l102 430h136l104 -430h16l92 430h111l-136 -520h-151l-99 429h-13l-98 -429h-151zM516 612q-30 0 -46 12.5t-16 41.5q0 28 16 41t46 13q29 0 45 -13t16 -41q0 -29 -16.5 -41.5t-44.5 -12.5zM315 612q-29 0 -45.5 12.5t-16.5 41.5
q0 28 16.5 41t45.5 13q28 0 45 -13t17 -41q0 -29 -17 -41.5t-45 -12.5z" />
    <glyph glyph-name="uni1E9E" unicode="&#x1e9e;" horiz-adv-x="687" 
d="M427 -13q-47 0 -83 13t-58.5 36t-31.5 53l78 52q6 -18 17 -31t24.5 -20.5t28.5 -11t28 -3.5q25 0 48 11.5t37.5 35t14.5 58.5q0 34 -15 57.5t-43 38t-67.5 20t-87.5 3.5v76l154 132q-5 35 -40 54.5t-88 19.5q-35 0 -61.5 -9t-44.5 -24.5t-29 -36t-15.5 -43t-4.5 -45.5
v-423h-110v414q0 37 6.5 74t23 70.5t46.5 59.5t76.5 40.5t113.5 14.5q81 0 134 -21t78.5 -59.5t25.5 -90.5l-165 -142v-7q75 2 124 -21t73.5 -62t24.5 -89q0 -53 -24 -97t-71 -70.5t-117 -26.5z" />
    <glyph glyph-name="uni1EA0" unicode="&#x1ea0;" horiz-adv-x="671" 
d="M26 0l230 660h159l230 -660h-118l-185 571h-13l-185 -571h-118zM141 142v80h403v-80h-403zM339 -198q-35 0 -53 14.5t-18 43.5q0 28 18 43t53 15q36 0 54 -15t18 -43q0 -29 -18 -43.5t-54 -14.5z" />
    <glyph glyph-name="uni1EA1" unicode="&#x1ea1;" horiz-adv-x="567" 
d="M195 -13q-43 0 -77 16.5t-53.5 49.5t-19.5 82q0 39 14.5 67.5t44 48t75.5 32t109 21.5q35 5 57.5 10t33 16t10.5 33q0 34 -23.5 58.5t-75.5 24.5q-29 0 -57.5 -10t-49 -32.5t-27.5 -60.5l-98 31q9 38 29 67.5t50 50t69.5 31t86.5 10.5q69 0 114 -23t67.5 -70.5
t22.5 -121.5v-106q0 -33 1.5 -69.5t4 -73t6.5 -69.5h-99q-3 30 -5.5 62t-4.5 65h-15q-14 -38 -39.5 -70t-63 -51t-87.5 -19zM233 71q21 0 42.5 7t43 21.5t40 37.5t32.5 55l-1 94l26 -5q-17 -15 -42.5 -23t-55.5 -12.5t-59.5 -10t-54 -15t-39 -26.5t-14.5 -47q0 -37 23 -56.5
t59 -19.5zM296 -198q-35 0 -53 14.5t-18 43.5q0 28 18 43t53 15q36 0 54 -15t18 -43q0 -29 -18 -43.5t-54 -14.5z" />
    <glyph glyph-name="uni1EA2" unicode="&#x1ea2;" horiz-adv-x="671" 
d="M26 0l230 660h159l230 -660h-118l-185 571h-13l-185 -571h-118zM141 142v80h403v-80h-403zM292 737q-2 20 8 32t23.5 20t24 16t10.5 21t-12 18.5t-29.5 6t-35.5 -2t-30 -7.5v61q21 10 52 13.5t62 -2t51.5 -23.5t20.5 -51q0 -23 -11.5 -36.5t-26 -22.5t-25.5 -18.5
t-11 -24.5h-71z" />
    <glyph glyph-name="uni1EA3" unicode="&#x1ea3;" horiz-adv-x="567" 
d="M195 -13q-43 0 -77 16.5t-53.5 49.5t-19.5 82q0 39 14.5 67.5t44 48t75.5 32t109 21.5q35 5 57.5 10t33 16t10.5 33q0 34 -23.5 58.5t-75.5 24.5q-29 0 -57.5 -10t-49 -32.5t-27.5 -60.5l-98 31q9 38 29 67.5t50 50t69.5 31t86.5 10.5q69 0 114 -23t67.5 -70.5
t22.5 -121.5v-106q0 -33 1.5 -69.5t4 -73t6.5 -69.5h-99q-3 30 -5.5 62t-4.5 65h-15q-14 -38 -39.5 -70t-63 -51t-87.5 -19zM233 71q21 0 42.5 7t43 21.5t40 37.5t32.5 55l-1 94l26 -5q-17 -15 -42.5 -23t-55.5 -12.5t-59.5 -10t-54 -15t-39 -26.5t-14.5 -47q0 -37 23 -56.5
t59 -19.5zM245 596q-2 20 8 32t23.5 20t24 16t10.5 21t-12 18.5t-29.5 6t-35.5 -2t-30 -7.5v61q21 10 52 13.5t62 -2t51.5 -23.5t20.5 -51q0 -23 -11.5 -36.5t-26 -22.5t-25.5 -18.5t-11 -24.5h-71z" />
    <glyph glyph-name="uni1EA4" unicode="&#x1ea4;" horiz-adv-x="671" 
d="M26 0l230 660h159l230 -660h-118l-185 571h-13l-185 -571h-118zM141 142v80h403v-80h-403zM183 720v89l154 97l153 -97v-89l-153 99zM368 960h-88l73 160h114z" />
    <glyph glyph-name="uni1EA5" unicode="&#x1ea5;" horiz-adv-x="567" 
d="M195 -13q-43 0 -77 16.5t-53.5 49.5t-19.5 82q0 39 14.5 67.5t44 48t75.5 32t109 21.5q35 5 57.5 10t33 16t10.5 33q0 34 -23.5 58.5t-75.5 24.5q-29 0 -57.5 -10t-49 -32.5t-27.5 -60.5l-98 31q9 38 29 67.5t50 50t69.5 31t86.5 10.5q69 0 114 -23t67.5 -70.5
t22.5 -121.5v-106q0 -33 1.5 -69.5t4 -73t6.5 -69.5h-99q-3 30 -5.5 62t-4.5 65h-15q-14 -38 -39.5 -70t-63 -51t-87.5 -19zM233 71q21 0 42.5 7t43 21.5t40 37.5t32.5 55l-1 94l26 -5q-17 -15 -42.5 -23t-55.5 -12.5t-59.5 -10t-54 -15t-39 -26.5t-14.5 -47q0 -37 23 -56.5
t59 -19.5zM135 579v89l154 97l153 -97v-89l-153 99zM321 819h-88l73 160h114z" />
    <glyph glyph-name="uni1EA6" unicode="&#x1ea6;" horiz-adv-x="671" 
d="M26 0l230 660h159l230 -660h-118l-185 571h-13l-185 -571h-118zM141 142v80h403v-80h-403zM183 719v89l153 98l153 -98v-89l-153 99zM303 960l-99 160h114l72 -160h-87z" />
    <glyph glyph-name="uni1EA7" unicode="&#x1ea7;" horiz-adv-x="567" 
d="M195 -13q-43 0 -77 16.5t-53.5 49.5t-19.5 82q0 39 14.5 67.5t44 48t75.5 32t109 21.5q35 5 57.5 10t33 16t10.5 33q0 34 -23.5 58.5t-75.5 24.5q-29 0 -57.5 -10t-49 -32.5t-27.5 -60.5l-98 31q9 38 29 67.5t50 50t69.5 31t86.5 10.5q69 0 114 -23t67.5 -70.5
t22.5 -121.5v-106q0 -33 1.5 -69.5t4 -73t6.5 -69.5h-99q-3 30 -5.5 62t-4.5 65h-15q-14 -38 -39.5 -70t-63 -51t-87.5 -19zM233 71q21 0 42.5 7t43 21.5t40 37.5t32.5 55l-1 94l26 -5q-17 -15 -42.5 -23t-55.5 -12.5t-59.5 -10t-54 -15t-39 -26.5t-14.5 -47q0 -37 23 -56.5
t59 -19.5zM135 578v89l154 98l153 -98v-89l-153 99zM255 819l-99 160h114l73 -160h-88z" />
    <glyph glyph-name="uni1EA8" unicode="&#x1ea8;" horiz-adv-x="671" 
d="M26 0l230 660h159l230 -660h-118l-185 571h-13l-185 -571h-118zM141 142v80h403v-80h-403zM183 720v89l154 97l153 -97v-89l-153 99zM291 960q-2 20 8 32t23.5 20t24 16t10.5 21t-12 18.5t-29.5 6t-35.5 -2t-30 -7.5v61q21 10 52 13.5t62 -2t51.5 -23.5t20.5 -51
q0 -23 -11.5 -36.5t-26 -22.5t-25.5 -18.5t-11 -24.5h-71z" />
    <glyph glyph-name="uni1EA9" unicode="&#x1ea9;" horiz-adv-x="567" 
d="M195 -13q-43 0 -77 16.5t-53.5 49.5t-19.5 82q0 39 14.5 67.5t44 48t75.5 32t109 21.5q35 5 57.5 10t33 16t10.5 33q0 34 -23.5 58.5t-75.5 24.5q-29 0 -57.5 -10t-49 -32.5t-27.5 -60.5l-98 31q9 38 29 67.5t50 50t69.5 31t86.5 10.5q69 0 114 -23t67.5 -70.5
t22.5 -121.5v-106q0 -33 1.5 -69.5t4 -73t6.5 -69.5h-99q-3 30 -5.5 62t-4.5 65h-15q-14 -38 -39.5 -70t-63 -51t-87.5 -19zM233 71q21 0 42.5 7t43 21.5t40 37.5t32.5 55l-1 94l26 -5q-17 -15 -42.5 -23t-55.5 -12.5t-59.5 -10t-54 -15t-39 -26.5t-14.5 -47q0 -37 23 -56.5
t59 -19.5zM135 579v89l154 97l153 -97v-89l-153 99zM244 819q-2 20 8 32t23.5 20t24 16t10.5 21t-12 18.5t-29.5 6t-35.5 -2t-30 -7.5v61q21 10 52 13.5t62 -2t51.5 -23.5t20.5 -51q0 -23 -11.5 -36.5t-26 -22.5t-25.5 -18.5t-11 -24.5h-71z" />
    <glyph glyph-name="uni1EAA" unicode="&#x1eaa;" horiz-adv-x="671" 
d="M26 0l230 660h159l230 -660h-118l-185 571h-13l-185 -571h-118zM141 142v80h403v-80h-403zM183 720v89l154 97l153 -97v-89l-153 99zM425 960q-20 0 -43 8t-45 18t-40.5 18.5t-31.5 8.5q-14 0 -19.5 -12.5t-3.5 -33.5h-54q-11 34 -7 61t21 43t44 16q20 0 42.5 -8
t44.5 -18t41 -18t30 -8q16 0 21.5 15t3.5 32h54q10 -32 7 -59.5t-19 -45t-46 -17.5z" />
    <glyph glyph-name="uni1EAB" unicode="&#x1eab;" horiz-adv-x="567" 
d="M195 -13q-43 0 -77 16.5t-53.5 49.5t-19.5 82q0 39 14.5 67.5t44 48t75.5 32t109 21.5q35 5 57.5 10t33 16t10.5 33q0 34 -23.5 58.5t-75.5 24.5q-29 0 -57.5 -10t-49 -32.5t-27.5 -60.5l-98 31q9 38 29 67.5t50 50t69.5 31t86.5 10.5q69 0 114 -23t67.5 -70.5
t22.5 -121.5v-106q0 -33 1.5 -69.5t4 -73t6.5 -69.5h-99q-3 30 -5.5 62t-4.5 65h-15q-14 -38 -39.5 -70t-63 -51t-87.5 -19zM233 71q21 0 42.5 7t43 21.5t40 37.5t32.5 55l-1 94l26 -5q-17 -15 -42.5 -23t-55.5 -12.5t-59.5 -10t-54 -15t-39 -26.5t-14.5 -47q0 -37 23 -56.5
t59 -19.5zM135 579v89l154 97l153 -97v-89l-153 99zM378 819q-20 0 -43 8t-45 18t-40.5 18.5t-31.5 8.5q-14 0 -19.5 -12.5t-3.5 -33.5h-54q-11 34 -7 61t21 43t44 16q20 0 42.5 -8t44.5 -18t41 -18t30 -8q16 0 21.5 15t3.5 32h54q10 -32 7 -59.5t-19 -45t-46 -17.5z" />
    <glyph glyph-name="uni1EAC" unicode="&#x1eac;" horiz-adv-x="671" 
d="M26 0l230 660h159l230 -660h-118l-185 571h-13l-185 -571h-118zM141 142v80h403v-80h-403zM339 -198q-35 0 -53 14.5t-18 43.5q0 28 18 43t53 15q36 0 54 -15t18 -43q0 -29 -18 -43.5t-54 -14.5zM183 720v89l154 97l153 -97v-89l-153 99z" />
    <glyph glyph-name="uni1EAD" unicode="&#x1ead;" horiz-adv-x="567" 
d="M195 -13q-43 0 -77 16.5t-53.5 49.5t-19.5 82q0 39 14.5 67.5t44 48t75.5 32t109 21.5q35 5 57.5 10t33 16t10.5 33q0 34 -23.5 58.5t-75.5 24.5q-29 0 -57.5 -10t-49 -32.5t-27.5 -60.5l-98 31q9 38 29 67.5t50 50t69.5 31t86.5 10.5q69 0 114 -23t67.5 -70.5
t22.5 -121.5v-106q0 -33 1.5 -69.5t4 -73t6.5 -69.5h-99q-3 30 -5.5 62t-4.5 65h-15q-14 -38 -39.5 -70t-63 -51t-87.5 -19zM233 71q21 0 42.5 7t43 21.5t40 37.5t32.5 55l-1 94l26 -5q-17 -15 -42.5 -23t-55.5 -12.5t-59.5 -10t-54 -15t-39 -26.5t-14.5 -47q0 -37 23 -56.5
t59 -19.5zM296 -198q-35 0 -53 14.5t-18 43.5q0 28 18 43t53 15q36 0 54 -15t18 -43q0 -29 -18 -43.5t-54 -14.5zM135 579v89l154 97l153 -97v-89l-153 99z" />
    <glyph glyph-name="uni1EAE" unicode="&#x1eae;" horiz-adv-x="671" 
d="M26 0l230 660h159l230 -660h-118l-185 571h-13l-185 -571h-118zM141 142v80h403v-80h-403zM200 863h72q-2 -24 12 -43.5t54 -19.5q38 0 51 19t12 44h72q3 -41 -12.5 -70t-47 -44.5t-77.5 -15.5q-47 0 -78.5 16t-46.5 45t-11 69zM369 924h-88l73 160h114z" />
    <glyph glyph-name="uni1EAF" unicode="&#x1eaf;" horiz-adv-x="567" 
d="M195 -13q-43 0 -77 16.5t-53.5 49.5t-19.5 82q0 39 14.5 67.5t44 48t75.5 32t109 21.5q35 5 57.5 10t33 16t10.5 33q0 34 -23.5 58.5t-75.5 24.5q-29 0 -57.5 -10t-49 -32.5t-27.5 -60.5l-98 31q9 38 29 67.5t50 50t69.5 31t86.5 10.5q69 0 114 -23t67.5 -70.5
t22.5 -121.5v-106q0 -33 1.5 -69.5t4 -73t6.5 -69.5h-99q-3 30 -5.5 62t-4.5 65h-15q-14 -38 -39.5 -70t-63 -51t-87.5 -19zM233 71q21 0 42.5 7t43 21.5t40 37.5t32.5 55l-1 94l26 -5q-17 -15 -42.5 -23t-55.5 -12.5t-59.5 -10t-54 -15t-39 -26.5t-14.5 -47q0 -37 23 -56.5
t59 -19.5zM152 722h72q-2 -24 12 -43.5t54 -19.5q38 0 51 19t12 44h72q3 -41 -12.5 -70t-47 -44.5t-77.5 -15.5q-47 0 -78.5 16t-46.5 45t-11 69zM322 783h-88l73 160h114z" />
    <glyph glyph-name="uni1EB0" unicode="&#x1eb0;" horiz-adv-x="671" 
d="M26 0l230 660h159l230 -660h-118l-185 571h-13l-185 -571h-118zM141 142v80h403v-80h-403zM199 863h73q-2 -24 12 -44t53 -20t51.5 19.5t11.5 44.5h73q3 -41 -12.5 -70t-47 -44.5t-78.5 -15.5q-46 0 -77.5 15.5t-46.5 44.5t-12 70zM304 924l-99 160h114l72 -160h-87z" />
    <glyph glyph-name="uni1EB1" unicode="&#x1eb1;" horiz-adv-x="567" 
d="M195 -13q-43 0 -77 16.5t-53.5 49.5t-19.5 82q0 39 14.5 67.5t44 48t75.5 32t109 21.5q35 5 57.5 10t33 16t10.5 33q0 34 -23.5 58.5t-75.5 24.5q-29 0 -57.5 -10t-49 -32.5t-27.5 -60.5l-98 31q9 38 29 67.5t50 50t69.5 31t86.5 10.5q69 0 114 -23t67.5 -70.5
t22.5 -121.5v-106q0 -33 1.5 -69.5t4 -73t6.5 -69.5h-99q-3 30 -5.5 62t-4.5 65h-15q-14 -38 -39.5 -70t-63 -51t-87.5 -19zM233 71q21 0 42.5 7t43 21.5t40 37.5t32.5 55l-1 94l26 -5q-17 -15 -42.5 -23t-55.5 -12.5t-59.5 -10t-54 -15t-39 -26.5t-14.5 -47q0 -37 23 -56.5
t59 -19.5zM152 722h72q-1 -24 12.5 -44t53.5 -20q39 0 51.5 19.5t11.5 44.5h72q4 -41 -11.5 -70t-47.5 -44.5t-78 -15.5t-78 15.5t-47 44.5t-11 70zM256 783l-99 160h114l73 -160h-88z" />
    <glyph glyph-name="uni1EB2" unicode="&#x1eb2;" horiz-adv-x="671" 
d="M26 0l230 660h159l230 -660h-118l-185 571h-13l-185 -571h-118zM141 142v80h403v-80h-403zM200 863h72q-2 -24 12 -43.5t54 -19.5q38 0 51 19t12 44h72q3 -41 -12.5 -70t-47 -44.5t-77.5 -15.5q-47 0 -78.5 16t-46.5 45t-11 69zM292 924q-2 20 8 32t23.5 20t24 16
t10.5 21t-12 18.5t-29.5 6t-35.5 -2t-30 -7.5v61q21 10 52 13.5t62 -2t51.5 -23.5t20.5 -51q0 -23 -11.5 -36.5t-26 -22.5t-25.5 -18.5t-11 -24.5h-71z" />
    <glyph glyph-name="uni1EB3" unicode="&#x1eb3;" horiz-adv-x="567" 
d="M195 -13q-43 0 -77 16.5t-53.5 49.5t-19.5 82q0 39 14.5 67.5t44 48t75.5 32t109 21.5q35 5 57.5 10t33 16t10.5 33q0 34 -23.5 58.5t-75.5 24.5q-29 0 -57.5 -10t-49 -32.5t-27.5 -60.5l-98 31q9 38 29 67.5t50 50t69.5 31t86.5 10.5q69 0 114 -23t67.5 -70.5
t22.5 -121.5v-106q0 -33 1.5 -69.5t4 -73t6.5 -69.5h-99q-3 30 -5.5 62t-4.5 65h-15q-14 -38 -39.5 -70t-63 -51t-87.5 -19zM233 71q21 0 42.5 7t43 21.5t40 37.5t32.5 55l-1 94l26 -5q-17 -15 -42.5 -23t-55.5 -12.5t-59.5 -10t-54 -15t-39 -26.5t-14.5 -47q0 -37 23 -56.5
t59 -19.5zM152 722h72q-2 -24 12 -43.5t54 -19.5q38 0 51 19t12 44h72q3 -41 -12.5 -70t-47 -44.5t-77.5 -15.5q-47 0 -78.5 16t-46.5 45t-11 69zM245 783q-2 20 8 32t23.5 20t24 16t10.5 21t-12 18.5t-29.5 6t-35.5 -2t-30 -7.5v61q21 10 52 13.5t62 -2t51.5 -23.5
t20.5 -51q0 -23 -11.5 -36.5t-26 -22.5t-25.5 -18.5t-11 -24.5h-71z" />
    <glyph glyph-name="uni1EB4" unicode="&#x1eb4;" horiz-adv-x="671" 
d="M26 0l230 660h159l230 -660h-118l-185 571h-13l-185 -571h-118zM141 142v80h403v-80h-403zM200 863h72q-2 -24 12 -43.5t54 -19.5q38 0 51 19t12 44h72q3 -41 -12.5 -70t-47 -44.5t-77.5 -15.5q-47 0 -78.5 16t-46.5 45t-11 69zM409 918q-28 0 -50 12.5t-40 25.5t-34 13
q-15 0 -19.5 -13t-2.5 -28h-56q-12 32 -8.5 58.5t20.5 42t45 15.5q27 0 49 -12.5t40.5 -25t34.5 -12.5t20 13t1 28h57q10 -29 7.5 -56t-18 -44t-46.5 -17z" />
    <glyph glyph-name="uni1EB5" unicode="&#x1eb5;" horiz-adv-x="567" 
d="M195 -13q-43 0 -77 16.5t-53.5 49.5t-19.5 82q0 39 14.5 67.5t44 48t75.5 32t109 21.5q35 5 57.5 10t33 16t10.5 33q0 34 -23.5 58.5t-75.5 24.5q-29 0 -57.5 -10t-49 -32.5t-27.5 -60.5l-98 31q9 38 29 67.5t50 50t69.5 31t86.5 10.5q69 0 114 -23t67.5 -70.5
t22.5 -121.5v-106q0 -33 1.5 -69.5t4 -73t6.5 -69.5h-99q-3 30 -5.5 62t-4.5 65h-15q-14 -38 -39.5 -70t-63 -51t-87.5 -19zM233 71q21 0 42.5 7t43 21.5t40 37.5t32.5 55l-1 94l26 -5q-17 -15 -42.5 -23t-55.5 -12.5t-59.5 -10t-54 -15t-39 -26.5t-14.5 -47q0 -37 23 -56.5
t59 -19.5zM152 722h72q-2 -24 12 -43.5t54 -19.5q38 0 51 19t12 44h72q3 -41 -12.5 -70t-47 -44.5t-77.5 -15.5q-47 0 -78.5 16t-46.5 45t-11 69zM361 777q-28 0 -50 12.5t-40 25.5t-34 13q-15 0 -19.5 -13t-2.5 -28h-56q-12 32 -8.5 58.5t20.5 42t45 15.5q27 0 49 -12.5
t40.5 -25t34.5 -12.5t20 13t1 28h57q10 -29 7.5 -56t-18 -44t-46.5 -17z" />
    <glyph glyph-name="uni1EB6" unicode="&#x1eb6;" horiz-adv-x="671" 
d="M26 0l230 660h159l230 -660h-118l-185 571h-13l-185 -571h-118zM141 142v80h403v-80h-403zM339 -198q-35 0 -53 14.5t-18 43.5q0 28 18 43t53 15q36 0 54 -15t18 -43q0 -29 -18 -43.5t-54 -14.5zM200 863h72q-2 -24 12 -43.5t54 -19.5q38 0 51 19t12 44h72
q3 -41 -12.5 -70t-47 -44.5t-77.5 -15.5q-47 0 -78.5 16t-46.5 45t-11 69z" />
    <glyph glyph-name="uni1EB7" unicode="&#x1eb7;" horiz-adv-x="567" 
d="M195 -13q-43 0 -77 16.5t-53.5 49.5t-19.5 82q0 39 14.5 67.5t44 48t75.5 32t109 21.5q35 5 57.5 10t33 16t10.5 33q0 34 -23.5 58.5t-75.5 24.5q-29 0 -57.5 -10t-49 -32.5t-27.5 -60.5l-98 31q9 38 29 67.5t50 50t69.5 31t86.5 10.5q69 0 114 -23t67.5 -70.5
t22.5 -121.5v-106q0 -33 1.5 -69.5t4 -73t6.5 -69.5h-99q-3 30 -5.5 62t-4.5 65h-15q-14 -38 -39.5 -70t-63 -51t-87.5 -19zM233 71q21 0 42.5 7t43 21.5t40 37.5t32.5 55l-1 94l26 -5q-17 -15 -42.5 -23t-55.5 -12.5t-59.5 -10t-54 -15t-39 -26.5t-14.5 -47q0 -37 23 -56.5
t59 -19.5zM296 -198q-35 0 -53 14.5t-18 43.5q0 28 18 43t53 15q36 0 54 -15t18 -43q0 -29 -18 -43.5t-54 -14.5zM152 722h72q-2 -24 12 -43.5t54 -19.5q38 0 51 19t12 44h72q3 -41 -12.5 -70t-47 -44.5t-77.5 -15.5q-47 0 -78.5 16t-46.5 45t-11 69z" />
    <glyph glyph-name="uni1EB8" unicode="&#x1eb8;" horiz-adv-x="599" 
d="M82 0v660h109v-660h-109zM146 0v92h414v-92h-414zM146 293v85h366v-85h-366zM146 569v91h413v-91h-413zM303 -198q-35 0 -53 14.5t-18 43.5q0 28 18 43t53 15q36 0 54 -15t18 -43q0 -29 -18 -43.5t-54 -14.5z" />
    <glyph glyph-name="uni1EB9" unicode="&#x1eb9;" horiz-adv-x="570" 
d="M304 -13q-62 0 -110 18.5t-81 53t-50 83t-17 109.5t17 112.5t48.5 89.5t78 59t105.5 21q55 0 98.5 -18t73.5 -54.5t45 -91t11 -127.5l-407 -3v68l343 3l-38 -42q6 60 -10 99t-46 58t-69 19q-44 0 -76.5 -22.5t-50.5 -65.5t-18 -103q0 -90 40 -135.5t114 -45.5
q31 0 53 7.5t37 20t24.5 30t15.5 36.5l95 -22q-9 -37 -27.5 -65.5t-46.5 -49t-65.5 -31.5t-86.5 -11zM300 -198q-35 0 -53 14.5t-18 43.5q0 28 18 43t53 15q36 0 54 -15t18 -43q0 -29 -18 -43.5t-54 -14.5z" />
    <glyph glyph-name="uni1EBA" unicode="&#x1eba;" horiz-adv-x="599" 
d="M82 0v660h109v-660h-109zM146 0v92h414v-92h-414zM146 293v85h366v-85h-366zM146 569v91h413v-91h-413zM258 737q-2 20 8 32t23.5 20t24 16t10.5 21t-12 18.5t-29.5 6t-35.5 -2t-30 -7.5v61q21 10 52 13.5t62 -2t51.5 -23.5t20.5 -51q0 -23 -11.5 -36.5t-26 -22.5
t-25.5 -18.5t-11 -24.5h-71z" />
    <glyph glyph-name="uni1EBB" unicode="&#x1ebb;" horiz-adv-x="570" 
d="M304 -13q-62 0 -110 18.5t-81 53t-50 83t-17 109.5t17 112.5t48.5 89.5t78 59t105.5 21q55 0 98.5 -18t73.5 -54.5t45 -91t11 -127.5l-407 -3v68l343 3l-38 -42q6 60 -10 99t-46 58t-69 19q-44 0 -76.5 -22.5t-50.5 -65.5t-18 -103q0 -90 40 -135.5t114 -45.5
q31 0 53 7.5t37 20t24.5 30t15.5 36.5l95 -22q-9 -37 -27.5 -65.5t-46.5 -49t-65.5 -31.5t-86.5 -11zM246 597q-2 20 8 32t23.5 20t24 16t10.5 21t-12 18.5t-29.5 6t-35.5 -2t-30 -7.5v61q21 10 52 13.5t62 -2t51.5 -23.5t20.5 -51q0 -23 -11.5 -36.5t-26 -22.5t-25.5 -18.5
t-11 -24.5h-71z" />
    <glyph glyph-name="uni1EBC" unicode="&#x1ebc;" horiz-adv-x="599" 
d="M82 0v660h109v-660h-109zM146 0v92h414v-92h-414zM146 293v85h366v-85h-366zM146 569v91h413v-91h-413zM391 738q-20 0 -43 8t-45 18t-40.5 18.5t-31.5 8.5q-14 0 -19.5 -12.5t-3.5 -33.5h-54q-11 34 -7 61t21 43t44 16q20 0 42.5 -8t44.5 -18t41 -18t30 -8q16 0 21.5 15
t3.5 32h54q10 -32 7 -59.5t-19 -45t-46 -17.5z" />
    <glyph glyph-name="uni1EBD" unicode="&#x1ebd;" horiz-adv-x="570" 
d="M304 -13q-62 0 -110 18.5t-81 53t-50 83t-17 109.5t17 112.5t48.5 89.5t78 59t105.5 21q55 0 98.5 -18t73.5 -54.5t45 -91t11 -127.5l-407 -3v68l343 3l-38 -42q6 60 -10 99t-46 58t-69 19q-44 0 -76.5 -22.5t-50.5 -65.5t-18 -103q0 -90 40 -135.5t114 -45.5
q31 0 53 7.5t37 20t24.5 30t15.5 36.5l95 -22q-9 -37 -27.5 -65.5t-46.5 -49t-65.5 -31.5t-86.5 -11zM380 598q-20 0 -43 8t-45 18t-40.5 18.5t-31.5 8.5q-14 0 -19.5 -12.5t-3.5 -33.5h-54q-11 34 -7 61t21 43t44 16q20 0 42.5 -8t44.5 -18t41 -18t30 -8q16 0 21.5 15
t3.5 32h54q10 -32 7 -59.5t-19 -45t-46 -17.5z" />
    <glyph glyph-name="uni1EBE" unicode="&#x1ebe;" horiz-adv-x="599" 
d="M82 0v660h109v-660h-109zM146 0v92h414v-92h-414zM146 293v85h366v-85h-366zM146 569v91h413v-91h-413zM148 720v89l154 97l153 -97v-89l-153 99zM334 960h-88l73 160h114z" />
    <glyph glyph-name="uni1EBF" unicode="&#x1ebf;" horiz-adv-x="570" 
d="M304 -13q-62 0 -110 18.5t-81 53t-50 83t-17 109.5t17 112.5t48.5 89.5t78 59t105.5 21q55 0 98.5 -18t73.5 -54.5t45 -91t11 -127.5l-407 -3v68l343 3l-38 -42q6 60 -10 99t-46 58t-69 19q-44 0 -76.5 -22.5t-50.5 -65.5t-18 -103q0 -90 40 -135.5t114 -45.5
q31 0 53 7.5t37 20t24.5 30t15.5 36.5l95 -22q-9 -37 -27.5 -65.5t-46.5 -49t-65.5 -31.5t-86.5 -11zM137 579v89l154 97l153 -97v-89l-153 99zM322 820h-88l73 160h114z" />
    <glyph glyph-name="uni1EC0" unicode="&#x1ec0;" horiz-adv-x="599" 
d="M82 0v660h109v-660h-109zM146 0v92h414v-92h-414zM146 293v85h366v-85h-366zM146 569v91h413v-91h-413zM148 719v89l154 98l153 -98v-89l-153 99zM268 960l-99 160h114l73 -160h-88z" />
    <glyph glyph-name="uni1EC1" unicode="&#x1ec1;" horiz-adv-x="570" 
d="M304 -13q-62 0 -110 18.5t-81 53t-50 83t-17 109.5t17 112.5t48.5 89.5t78 59t105.5 21q55 0 98.5 -18t73.5 -54.5t45 -91t11 -127.5l-407 -3v68l343 3l-38 -42q6 60 -10 99t-46 58t-69 19q-44 0 -76.5 -22.5t-50.5 -65.5t-18 -103q0 -90 40 -135.5t114 -45.5
q31 0 53 7.5t37 20t24.5 30t15.5 36.5l95 -22q-9 -37 -27.5 -65.5t-46.5 -49t-65.5 -31.5t-86.5 -11zM137 579v89l153 98l153 -98v-89l-153 99zM257 820l-99 160h114l73 -160h-88z" />
    <glyph glyph-name="uni1EC2" unicode="&#x1ec2;" horiz-adv-x="599" 
d="M82 0v660h109v-660h-109zM146 0v92h414v-92h-414zM146 293v85h366v-85h-366zM146 569v91h413v-91h-413zM148 720v89l154 97l153 -97v-89l-153 99zM257 960q-2 20 8 32t23.5 20t24 16t10.5 21t-12 18.5t-29.5 6t-35.5 -2t-30 -7.5v61q21 10 52 13.5t62 -2t51.5 -23.5
t20.5 -51q0 -23 -11.5 -36.5t-26 -22.5t-25.5 -18.5t-11 -24.5h-71z" />
    <glyph glyph-name="uni1EC3" unicode="&#x1ec3;" horiz-adv-x="570" 
d="M304 -13q-62 0 -110 18.5t-81 53t-50 83t-17 109.5t17 112.5t48.5 89.5t78 59t105.5 21q55 0 98.5 -18t73.5 -54.5t45 -91t11 -127.5l-407 -3v68l343 3l-38 -42q6 60 -10 99t-46 58t-69 19q-44 0 -76.5 -22.5t-50.5 -65.5t-18 -103q0 -90 40 -135.5t114 -45.5
q31 0 53 7.5t37 20t24.5 30t15.5 36.5l95 -22q-9 -37 -27.5 -65.5t-46.5 -49t-65.5 -31.5t-86.5 -11zM137 579v89l154 97l153 -97v-89l-153 99zM245 820q-2 20 8 32t23.5 20t24 16t10.5 21t-12 18.5t-29.5 6t-35.5 -2t-30 -7.5v61q21 10 52 13.5t62 -2t51.5 -23.5t20.5 -51
q0 -23 -11.5 -36.5t-26 -22.5t-25.5 -18.5t-11 -24.5h-71z" />
    <glyph glyph-name="uni1EC4" unicode="&#x1ec4;" horiz-adv-x="599" 
d="M82 0v660h109v-660h-109zM146 0v92h414v-92h-414zM146 293v85h366v-85h-366zM146 569v91h413v-91h-413zM148 720v89l154 97l153 -97v-89l-153 99zM390 960q-20 0 -43 8t-45 18t-40.5 18.5t-31.5 8.5q-14 0 -19.5 -12.5t-3.5 -33.5h-54q-11 34 -7 61t21 43t44 16
q20 0 42.5 -8t44.5 -18t41 -18t30 -8q16 0 21.5 15t3.5 32h54q10 -32 7 -59.5t-19 -45t-46 -17.5z" />
    <glyph glyph-name="uni1EC5" unicode="&#x1ec5;" horiz-adv-x="570" 
d="M304 -13q-62 0 -110 18.5t-81 53t-50 83t-17 109.5t17 112.5t48.5 89.5t78 59t105.5 21q55 0 98.5 -18t73.5 -54.5t45 -91t11 -127.5l-407 -3v68l343 3l-38 -42q6 60 -10 99t-46 58t-69 19q-44 0 -76.5 -22.5t-50.5 -65.5t-18 -103q0 -90 40 -135.5t114 -45.5
q31 0 53 7.5t37 20t24.5 30t15.5 36.5l95 -22q-9 -37 -27.5 -65.5t-46.5 -49t-65.5 -31.5t-86.5 -11zM137 579v89l154 97l153 -97v-89l-153 99zM379 820q-20 0 -43 8t-45 18t-40.5 18.5t-31.5 8.5q-14 0 -19.5 -12.5t-3.5 -33.5h-54q-11 34 -7 61t21 43t44 16q20 0 42.5 -8
t44.5 -18t41 -18t30 -8q16 0 21.5 15t3.5 32h54q10 -32 7 -59.5t-19 -45t-46 -17.5z" />
    <glyph glyph-name="uni1EC6" unicode="&#x1ec6;" horiz-adv-x="599" 
d="M82 0v660h109v-660h-109zM146 0v92h414v-92h-414zM146 293v85h366v-85h-366zM146 569v91h413v-91h-413zM303 -198q-35 0 -53 14.5t-18 43.5q0 28 18 43t53 15q36 0 54 -15t18 -43q0 -29 -18 -43.5t-54 -14.5zM148 720v89l154 97l153 -97v-89l-153 99z" />
    <glyph glyph-name="uni1EC7" unicode="&#x1ec7;" horiz-adv-x="570" 
d="M304 -13q-62 0 -110 18.5t-81 53t-50 83t-17 109.5t17 112.5t48.5 89.5t78 59t105.5 21q55 0 98.5 -18t73.5 -54.5t45 -91t11 -127.5l-407 -3v68l343 3l-38 -42q6 60 -10 99t-46 58t-69 19q-44 0 -76.5 -22.5t-50.5 -65.5t-18 -103q0 -90 40 -135.5t114 -45.5
q31 0 53 7.5t37 20t24.5 30t15.5 36.5l95 -22q-9 -37 -27.5 -65.5t-46.5 -49t-65.5 -31.5t-86.5 -11zM300 -198q-35 0 -53 14.5t-18 43.5q0 28 18 43t53 15q36 0 54 -15t18 -43q0 -29 -18 -43.5t-54 -14.5zM137 579v89l154 97l153 -97v-89l-153 99z" />
    <glyph glyph-name="uni1EC8" unicode="&#x1ec8;" horiz-adv-x="274" 
d="M82 0v660h111v-660h-111zM93 737q-2 20 8 32t23.5 20t24 16t10.5 21t-12 18.5t-29.5 6t-35.5 -2t-30 -7.5v61q21 10 52 13.5t62 -2t51.5 -23.5t20.5 -51q0 -23 -11.5 -36.5t-26 -22.5t-25.5 -18.5t-11 -24.5h-71z" />
    <glyph glyph-name="uni1EC9" unicode="&#x1ec9;" horiz-adv-x="258" 
d="M75 0v520h108v-520h-108zM86 597q-2 20 8 32t23.5 20t24 16t10.5 21t-12 18.5t-29.5 6t-35.5 -2t-30 -7.5v61q21 10 52 13.5t62 -2t51.5 -23.5t20.5 -51q0 -23 -11.5 -36.5t-26 -22.5t-25.5 -18.5t-11 -24.5h-71z" />
    <glyph glyph-name="uni1ECA" unicode="&#x1eca;" horiz-adv-x="274" 
d="M82 0v660h111v-660h-111zM140 -198q-35 0 -53 14.5t-18 43.5q0 28 18 43t53 15q36 0 54 -15t18 -43q0 -29 -18 -43.5t-54 -14.5z" />
    <glyph glyph-name="uni1ECB" unicode="&#x1ecb;" horiz-adv-x="259" 
d="M75 0v520h108v-520h-108zM129 607q-35 0 -53 14.5t-18 43.5q0 28 18 43t53 15q36 0 54 -15t18 -43q0 -29 -18 -43.5t-54 -14.5zM133 -198q-35 0 -53 14.5t-18 43.5q0 28 18 43t53 15q36 0 54 -15t18 -43q0 -29 -18 -43.5t-54 -14.5z" />
    <glyph glyph-name="uni1ECC" unicode="&#x1ecc;" horiz-adv-x="716" 
d="M357 -13q-72 0 -127.5 23.5t-94 67.5t-58 107t-19.5 142q0 116 39 192.5t107 115t155 38.5q68 0 123 -22.5t94.5 -67t60.5 -109t21 -146.5q0 -80 -20 -143.5t-59 -107.5t-94.5 -67t-127.5 -23zM359 78q60 0 102 29t64 83.5t22 133.5q0 81 -22.5 138t-65 87.5t-102.5 30.5
q-58 0 -100.5 -29.5t-65 -85.5t-22.5 -138q0 -60 13 -106.5t37 -78t59.5 -48t80.5 -16.5zM361 -198q-35 0 -53 14.5t-18 43.5q0 28 18 43t53 15q36 0 54 -15t18 -43q0 -29 -18 -43.5t-54 -14.5z" />
    <glyph glyph-name="uni1ECD" unicode="&#x1ecd;" horiz-adv-x="604" 
d="M302 -13q-75 0 -133 32t-90.5 93t-32.5 150q0 91 34 151t91.5 90t129.5 30q74 0 132 -31t91.5 -92t33.5 -152q0 -90 -33.5 -150.5t-91.5 -90.5t-131 -30zM306 73q45 0 77 21t49 62t17 98q0 59 -18 101.5t-51.5 65.5t-81.5 23q-43 0 -75.5 -20.5t-49.5 -61t-17 -98.5
q0 -91 40 -141t110 -50zM309 -198q-35 0 -53 14.5t-18 43.5q0 28 18 43t53 15q36 0 54 -15t18 -43q0 -29 -18 -43.5t-54 -14.5z" />
    <glyph glyph-name="uni1ECE" unicode="&#x1ece;" horiz-adv-x="716" 
d="M357 -13q-72 0 -127.5 23.5t-94 67.5t-58 107t-19.5 142q0 116 39 192.5t107 115t155 38.5q68 0 123 -22.5t94.5 -67t60.5 -109t21 -146.5q0 -80 -20 -143.5t-59 -107.5t-94.5 -67t-127.5 -23zM359 78q60 0 102 29t64 83.5t22 133.5q0 81 -22.5 138t-65 87.5t-102.5 30.5
q-58 0 -100.5 -29.5t-65 -85.5t-22.5 -138q0 -60 13 -106.5t37 -78t59.5 -48t80.5 -16.5zM315 737q-2 20 8 32t23.5 20t24 16t10.5 21t-12 18.5t-29.5 6t-35.5 -2t-30 -7.5v61q21 10 52 13.5t62 -2t51.5 -23.5t20.5 -51q0 -23 -11.5 -36.5t-26 -22.5t-25.5 -18.5t-11 -24.5
h-71z" />
    <glyph glyph-name="uni1ECF" unicode="&#x1ecf;" horiz-adv-x="604" 
d="M302 -13q-75 0 -133 32t-90.5 93t-32.5 150q0 91 34 151t91.5 90t129.5 30q74 0 132 -31t91.5 -92t33.5 -152q0 -90 -33.5 -150.5t-91.5 -90.5t-131 -30zM306 73q45 0 77 21t49 62t17 98q0 59 -18 101.5t-51.5 65.5t-81.5 23q-43 0 -75.5 -20.5t-49.5 -61t-17 -98.5
q0 -91 40 -141t110 -50zM258 597q-2 20 8 32t23.5 20t24 16t10.5 21t-12 18.5t-29.5 6t-35.5 -2t-30 -7.5v61q21 10 52 13.5t62 -2t51.5 -23.5t20.5 -51q0 -23 -11.5 -36.5t-26 -22.5t-25.5 -18.5t-11 -24.5h-71z" />
    <glyph glyph-name="uni1ED0" unicode="&#x1ed0;" horiz-adv-x="716" 
d="M357 -13q-72 0 -127.5 23.5t-94 67.5t-58 107t-19.5 142q0 116 39 192.5t107 115t155 38.5q68 0 123 -22.5t94.5 -67t60.5 -109t21 -146.5q0 -80 -20 -143.5t-59 -107.5t-94.5 -67t-127.5 -23zM359 78q60 0 102 29t64 83.5t22 133.5q0 81 -22.5 138t-65 87.5t-102.5 30.5
q-58 0 -100.5 -29.5t-65 -85.5t-22.5 -138q0 -60 13 -106.5t37 -78t59.5 -48t80.5 -16.5zM205 720v89l154 97l153 -97v-89l-153 99zM391 960h-88l73 160h114z" />
    <glyph glyph-name="uni1ED1" unicode="&#x1ed1;" horiz-adv-x="604" 
d="M302 -13q-75 0 -133 32t-90.5 93t-32.5 150q0 91 34 151t91.5 90t129.5 30q74 0 132 -31t91.5 -92t33.5 -152q0 -90 -33.5 -150.5t-91.5 -90.5t-131 -30zM306 73q45 0 77 21t49 62t17 98q0 59 -18 101.5t-51.5 65.5t-81.5 23q-43 0 -75.5 -20.5t-49.5 -61t-17 -98.5
q0 -91 40 -141t110 -50zM149 579v89l154 97l153 -97v-89l-153 99zM334 820h-88l73 160h114z" />
    <glyph glyph-name="uni1ED2" unicode="&#x1ed2;" horiz-adv-x="716" 
d="M357 -13q-72 0 -127.5 23.5t-94 67.5t-58 107t-19.5 142q0 116 39 192.5t107 115t155 38.5q68 0 123 -22.5t94.5 -67t60.5 -109t21 -146.5q0 -80 -20 -143.5t-59 -107.5t-94.5 -67t-127.5 -23zM359 78q60 0 102 29t64 83.5t22 133.5q0 81 -22.5 138t-65 87.5t-102.5 30.5
q-58 0 -100.5 -29.5t-65 -85.5t-22.5 -138q0 -60 13 -106.5t37 -78t59.5 -48t80.5 -16.5zM205 719v89l154 98l153 -98v-89l-153 99zM325 960l-99 160h114l73 -160h-88z" />
    <glyph glyph-name="uni1ED3" unicode="&#x1ed3;" horiz-adv-x="604" 
d="M302 -13q-75 0 -133 32t-90.5 93t-32.5 150q0 91 34 151t91.5 90t129.5 30q74 0 132 -31t91.5 -92t33.5 -152q0 -90 -33.5 -150.5t-91.5 -90.5t-131 -30zM306 73q45 0 77 21t49 62t17 98q0 59 -18 101.5t-51.5 65.5t-81.5 23q-43 0 -75.5 -20.5t-49.5 -61t-17 -98.5
q0 -91 40 -141t110 -50zM149 579v89l153 98l153 -98v-89l-153 99zM269 820l-99 160h114l73 -160h-88z" />
    <glyph glyph-name="uni1ED4" unicode="&#x1ed4;" horiz-adv-x="716" 
d="M357 -13q-72 0 -127.5 23.5t-94 67.5t-58 107t-19.5 142q0 116 39 192.5t107 115t155 38.5q68 0 123 -22.5t94.5 -67t60.5 -109t21 -146.5q0 -80 -20 -143.5t-59 -107.5t-94.5 -67t-127.5 -23zM359 78q60 0 102 29t64 83.5t22 133.5q0 81 -22.5 138t-65 87.5t-102.5 30.5
q-58 0 -100.5 -29.5t-65 -85.5t-22.5 -138q0 -60 13 -106.5t37 -78t59.5 -48t80.5 -16.5zM205 720v89l154 97l153 -97v-89l-153 99zM314 960q-2 20 8 32t23.5 20t24 16t10.5 21t-12 18.5t-29.5 6t-35.5 -2t-30 -7.5v61q21 10 52 13.5t62 -2t51.5 -23.5t20.5 -51
q0 -23 -11.5 -36.5t-26 -22.5t-25.5 -18.5t-11 -24.5h-71z" />
    <glyph glyph-name="uni1ED5" unicode="&#x1ed5;" horiz-adv-x="604" 
d="M302 -13q-75 0 -133 32t-90.5 93t-32.5 150q0 91 34 151t91.5 90t129.5 30q74 0 132 -31t91.5 -92t33.5 -152q0 -90 -33.5 -150.5t-91.5 -90.5t-131 -30zM306 73q45 0 77 21t49 62t17 98q0 59 -18 101.5t-51.5 65.5t-81.5 23q-43 0 -75.5 -20.5t-49.5 -61t-17 -98.5
q0 -91 40 -141t110 -50zM149 579v89l154 97l153 -97v-89l-153 99zM257 820q-2 20 8 32t23.5 20t24 16t10.5 21t-12 18.5t-29.5 6t-35.5 -2t-30 -7.5v61q21 10 52 13.5t62 -2t51.5 -23.5t20.5 -51q0 -23 -11.5 -36.5t-26 -22.5t-25.5 -18.5t-11 -24.5h-71z" />
    <glyph glyph-name="uni1ED6" unicode="&#x1ed6;" horiz-adv-x="716" 
d="M357 -13q-72 0 -127.5 23.5t-94 67.5t-58 107t-19.5 142q0 116 39 192.5t107 115t155 38.5q68 0 123 -22.5t94.5 -67t60.5 -109t21 -146.5q0 -80 -20 -143.5t-59 -107.5t-94.5 -67t-127.5 -23zM359 78q60 0 102 29t64 83.5t22 133.5q0 81 -22.5 138t-65 87.5t-102.5 30.5
q-58 0 -100.5 -29.5t-65 -85.5t-22.5 -138q0 -60 13 -106.5t37 -78t59.5 -48t80.5 -16.5zM205 720v89l154 97l153 -97v-89l-153 99zM447 960q-20 0 -43 8t-45 18t-40.5 18.5t-31.5 8.5q-14 0 -19.5 -12.5t-3.5 -33.5h-54q-11 34 -7 61t21 43t44 16q20 0 42.5 -8t44.5 -18
t41 -18t30 -8q16 0 21.5 15t3.5 32h54q10 -32 7 -59.5t-19 -45t-46 -17.5z" />
    <glyph glyph-name="uni1ED7" unicode="&#x1ed7;" horiz-adv-x="604" 
d="M302 -13q-75 0 -133 32t-90.5 93t-32.5 150q0 91 34 151t91.5 90t129.5 30q74 0 132 -31t91.5 -92t33.5 -152q0 -90 -33.5 -150.5t-91.5 -90.5t-131 -30zM306 73q45 0 77 21t49 62t17 98q0 59 -18 101.5t-51.5 65.5t-81.5 23q-43 0 -75.5 -20.5t-49.5 -61t-17 -98.5
q0 -91 40 -141t110 -50zM149 579v89l154 97l153 -97v-89l-153 99zM391 820q-20 0 -43 8t-45 18t-40.5 18.5t-31.5 8.5q-14 0 -19.5 -12.5t-3.5 -33.5h-54q-11 34 -7 61t21 43t44 16q20 0 42.5 -8t44.5 -18t41 -18t30 -8q16 0 21.5 15t3.5 32h54q10 -32 7 -59.5t-19 -45
t-46 -17.5z" />
    <glyph glyph-name="uni1ED8" unicode="&#x1ed8;" horiz-adv-x="716" 
d="M357 -13q-72 0 -127.5 23.5t-94 67.5t-58 107t-19.5 142q0 116 39 192.5t107 115t155 38.5q68 0 123 -22.5t94.5 -67t60.5 -109t21 -146.5q0 -80 -20 -143.5t-59 -107.5t-94.5 -67t-127.5 -23zM359 78q60 0 102 29t64 83.5t22 133.5q0 81 -22.5 138t-65 87.5t-102.5 30.5
q-58 0 -100.5 -29.5t-65 -85.5t-22.5 -138q0 -60 13 -106.5t37 -78t59.5 -48t80.5 -16.5zM361 -198q-35 0 -53 14.5t-18 43.5q0 28 18 43t53 15q36 0 54 -15t18 -43q0 -29 -18 -43.5t-54 -14.5zM205 720v89l154 97l153 -97v-89l-153 99z" />
    <glyph glyph-name="uni1ED9" unicode="&#x1ed9;" horiz-adv-x="604" 
d="M302 -13q-75 0 -133 32t-90.5 93t-32.5 150q0 91 34 151t91.5 90t129.5 30q74 0 132 -31t91.5 -92t33.5 -152q0 -90 -33.5 -150.5t-91.5 -90.5t-131 -30zM306 73q45 0 77 21t49 62t17 98q0 59 -18 101.5t-51.5 65.5t-81.5 23q-43 0 -75.5 -20.5t-49.5 -61t-17 -98.5
q0 -91 40 -141t110 -50zM309 -198q-35 0 -53 14.5t-18 43.5q0 28 18 43t53 15q36 0 54 -15t18 -43q0 -29 -18 -43.5t-54 -14.5zM149 579v89l154 97l153 -97v-89l-153 99z" />
    <glyph glyph-name="uni1EDA" unicode="&#x1eda;" horiz-adv-x="716" 
d="M535 622l-85 9l2 21q45 0 64 15.5t22 42.5t0 61h82q9 -53 1 -87.5t-30 -50t-56 -11.5zM357 -13q-72 0 -127.5 23.5t-94 67.5t-58 107t-19.5 142q0 116 39 192.5t107 115t155 38.5q68 0 123 -22.5t94.5 -67t60.5 -109t21 -146.5q0 -80 -20 -143.5t-59 -107.5t-94.5 -67
t-127.5 -23zM359 78q60 0 102 29t64 83.5t22 133.5q0 81 -22.5 138t-65 87.5t-102.5 30.5q-58 0 -100.5 -29.5t-65 -85.5t-22.5 -138q0 -60 13 -106.5t37 -78t59.5 -48t80.5 -16.5zM392 737h-88l73 160h114z" />
    <glyph glyph-name="uni1EDB" unicode="&#x1edb;" horiz-adv-x="625" 
d="M462 488l-84 9l2 24q44 0 63 15.5t22.5 42t0.5 57.5h83q9 -49 1.5 -83.5t-29.5 -51.5t-59 -13zM302 -13q-75 0 -133 32t-90.5 93t-32.5 150q0 91 34 151t91.5 90t129.5 30q74 0 132 -31t91.5 -92t33.5 -152q0 -90 -33.5 -150.5t-91.5 -90.5t-131 -30zM306 73q45 0 77 21
t49 62t17 98q0 59 -18 101.5t-51.5 65.5t-81.5 23q-43 0 -75.5 -20.5t-49.5 -61t-17 -98.5q0 -91 40 -141t110 -50zM335 597h-88l73 160h114z" />
    <glyph glyph-name="uni1EDC" unicode="&#x1edc;" horiz-adv-x="716" 
d="M535 622l-85 9l2 21q45 0 64 15.5t22 42.5t0 61h82q9 -53 1 -87.5t-30 -50t-56 -11.5zM357 -13q-72 0 -127.5 23.5t-94 67.5t-58 107t-19.5 142q0 116 39 192.5t107 115t155 38.5q68 0 123 -22.5t94.5 -67t60.5 -109t21 -146.5q0 -80 -20 -143.5t-59 -107.5t-94.5 -67
t-127.5 -23zM359 78q60 0 102 29t64 83.5t22 133.5q0 81 -22.5 138t-65 87.5t-102.5 30.5q-58 0 -100.5 -29.5t-65 -85.5t-22.5 -138q0 -60 13 -106.5t37 -78t59.5 -48t80.5 -16.5zM326 737l-99 160h114l73 -160h-88z" />
    <glyph glyph-name="uni1EDD" unicode="&#x1edd;" horiz-adv-x="625" 
d="M462 488l-84 9l2 24q44 0 63 15.5t22.5 42t0.5 57.5h83q9 -49 1.5 -83.5t-29.5 -51.5t-59 -13zM302 -13q-75 0 -133 32t-90.5 93t-32.5 150q0 91 34 151t91.5 90t129.5 30q74 0 132 -31t91.5 -92t33.5 -152q0 -90 -33.5 -150.5t-91.5 -90.5t-131 -30zM306 73q45 0 77 21
t49 62t17 98q0 59 -18 101.5t-51.5 65.5t-81.5 23q-43 0 -75.5 -20.5t-49.5 -61t-17 -98.5q0 -91 40 -141t110 -50zM270 597l-99 160h114l73 -160h-88z" />
    <glyph glyph-name="uni1EDE" unicode="&#x1ede;" horiz-adv-x="716" 
d="M535 622l-85 9l2 21q45 0 64 15.5t22 42.5t0 61h82q9 -53 1 -87.5t-30 -50t-56 -11.5zM357 -13q-72 0 -127.5 23.5t-94 67.5t-58 107t-19.5 142q0 116 39 192.5t107 115t155 38.5q68 0 123 -22.5t94.5 -67t60.5 -109t21 -146.5q0 -80 -20 -143.5t-59 -107.5t-94.5 -67
t-127.5 -23zM359 78q60 0 102 29t64 83.5t22 133.5q0 81 -22.5 138t-65 87.5t-102.5 30.5q-58 0 -100.5 -29.5t-65 -85.5t-22.5 -138q0 -60 13 -106.5t37 -78t59.5 -48t80.5 -16.5zM315 737q-2 20 8 32t23.5 20t24 16t10.5 21t-12 18.5t-29.5 6t-35.5 -2t-30 -7.5v61
q21 10 52 13.5t62 -2t51.5 -23.5t20.5 -51q0 -23 -11.5 -36.5t-26 -22.5t-25.5 -18.5t-11 -24.5h-71z" />
    <glyph glyph-name="uni1EDF" unicode="&#x1edf;" horiz-adv-x="625" 
d="M462 488l-84 9l2 24q44 0 63 15.5t22.5 42t0.5 57.5h83q9 -49 1.5 -83.5t-29.5 -51.5t-59 -13zM302 -13q-75 0 -133 32t-90.5 93t-32.5 150q0 91 34 151t91.5 90t129.5 30q74 0 132 -31t91.5 -92t33.5 -152q0 -90 -33.5 -150.5t-91.5 -90.5t-131 -30zM306 73q45 0 77 21
t49 62t17 98q0 59 -18 101.5t-51.5 65.5t-81.5 23q-43 0 -75.5 -20.5t-49.5 -61t-17 -98.5q0 -91 40 -141t110 -50zM258 597q-2 20 8 32t23.5 20t24 16t10.5 21t-12 18.5t-29.5 6t-35.5 -2t-30 -7.5v61q21 10 52 13.5t62 -2t51.5 -23.5t20.5 -51q0 -23 -11.5 -36.5
t-26 -22.5t-25.5 -18.5t-11 -24.5h-71z" />
    <glyph glyph-name="uni1EE0" unicode="&#x1ee0;" horiz-adv-x="716" 
d="M535 622l-85 9l2 21q45 0 64 15.5t22 42.5t0 61h82q9 -53 1 -87.5t-30 -50t-56 -11.5zM357 -13q-72 0 -127.5 23.5t-94 67.5t-58 107t-19.5 142q0 116 39 192.5t107 115t155 38.5q68 0 123 -22.5t94.5 -67t60.5 -109t21 -146.5q0 -80 -20 -143.5t-59 -107.5t-94.5 -67
t-127.5 -23zM359 78q60 0 102 29t64 83.5t22 133.5q0 81 -22.5 138t-65 87.5t-102.5 30.5q-58 0 -100.5 -29.5t-65 -85.5t-22.5 -138q0 -60 13 -106.5t37 -78t59.5 -48t80.5 -16.5zM431 731q-28 0 -50 12.5t-40 25.5t-34 13q-15 0 -19.5 -13t-2.5 -28h-56q-12 32 -8.5 58.5
t20.5 42t45 15.5q27 0 49 -12.5t40.5 -25t34.5 -12.5t20 13t1 28h57q10 -29 7.5 -56t-18 -44t-46.5 -17z" />
    <glyph glyph-name="uni1EE1" unicode="&#x1ee1;" horiz-adv-x="625" 
d="M462 488l-84 9l2 24q44 0 63 15.5t22.5 42t0.5 57.5h83q9 -49 1.5 -83.5t-29.5 -51.5t-59 -13zM302 -13q-75 0 -133 32t-90.5 93t-32.5 150q0 91 34 151t91.5 90t129.5 30q74 0 132 -31t91.5 -92t33.5 -152q0 -90 -33.5 -150.5t-91.5 -90.5t-131 -30zM306 73q45 0 77 21
t49 62t17 98q0 59 -18 101.5t-51.5 65.5t-81.5 23q-43 0 -75.5 -20.5t-49.5 -61t-17 -98.5q0 -91 40 -141t110 -50zM375 591q-28 0 -50 12.5t-40 25.5t-34 13q-15 0 -19.5 -13t-2.5 -28h-56q-12 32 -8.5 58.5t20.5 42t45 15.5q27 0 49 -12.5t40.5 -25t34.5 -12.5t20 13t1 28
h57q10 -29 7.5 -56t-18 -44t-46.5 -17z" />
    <glyph glyph-name="uni1EE2" unicode="&#x1ee2;" horiz-adv-x="716" 
d="M535 622l-85 9l2 21q45 0 64 15.5t22 42.5t0 61h82q9 -53 1 -87.5t-30 -50t-56 -11.5zM357 -13q-72 0 -127.5 23.5t-94 67.5t-58 107t-19.5 142q0 116 39 192.5t107 115t155 38.5q68 0 123 -22.5t94.5 -67t60.5 -109t21 -146.5q0 -80 -20 -143.5t-59 -107.5t-94.5 -67
t-127.5 -23zM359 78q60 0 102 29t64 83.5t22 133.5q0 81 -22.5 138t-65 87.5t-102.5 30.5q-58 0 -100.5 -29.5t-65 -85.5t-22.5 -138q0 -60 13 -106.5t37 -78t59.5 -48t80.5 -16.5zM361 -198q-35 0 -53 14.5t-18 43.5q0 28 18 43t53 15q36 0 54 -15t18 -43q0 -29 -18 -43.5
t-54 -14.5z" />
    <glyph glyph-name="uni1EE3" unicode="&#x1ee3;" horiz-adv-x="625" 
d="M462 488l-84 9l2 24q44 0 63 15.5t22.5 42t0.5 57.5h83q9 -49 1.5 -83.5t-29.5 -51.5t-59 -13zM302 -13q-75 0 -133 32t-90.5 93t-32.5 150q0 91 34 151t91.5 90t129.5 30q74 0 132 -31t91.5 -92t33.5 -152q0 -90 -33.5 -150.5t-91.5 -90.5t-131 -30zM306 73q45 0 77 21
t49 62t17 98q0 59 -18 101.5t-51.5 65.5t-81.5 23q-43 0 -75.5 -20.5t-49.5 -61t-17 -98.5q0 -91 40 -141t110 -50zM309 -198q-35 0 -53 14.5t-18 43.5q0 28 18 43t53 15q36 0 54 -15t18 -43q0 -29 -18 -43.5t-54 -14.5z" />
    <glyph glyph-name="uni1EE4" unicode="&#x1ee4;" horiz-adv-x="719" 
d="M360 -13q-57 0 -102 11.5t-79 34.5t-56.5 55.5t-34 74t-11.5 91.5v406h110v-402q0 -58 19.5 -96t57.5 -57.5t95 -19.5q59 0 97 19t57 57.5t19 96.5v402h109v-406q0 -128 -71.5 -197.5t-209.5 -69.5zM362 -198q-35 0 -53 14.5t-18 43.5q0 28 18 43t53 15q36 0 54 -15
t18 -43q0 -29 -18 -43.5t-54 -14.5z" />
    <glyph glyph-name="uni1EE5" unicode="&#x1ee5;" horiz-adv-x="599" 
d="M245 -13q-88 0 -133 60.5t-45 182.5v290h109v-278q0 -82 25 -122t79 -40q30 0 53 15t40.5 42t28 63.5t14.5 80.5v239h108v-304v-216h-92l5 165h-17q-13 -62 -36.5 -101.5t-58 -58t-80.5 -18.5zM315 -198q-35 0 -53 14.5t-18 43.5q0 28 18 43t53 15q36 0 54 -15t18 -43
q0 -29 -18 -43.5t-54 -14.5z" />
    <glyph glyph-name="uni1EE6" unicode="&#x1ee6;" horiz-adv-x="719" 
d="M360 -13q-57 0 -102 11.5t-79 34.5t-56.5 55.5t-34 74t-11.5 91.5v406h110v-402q0 -58 19.5 -96t57.5 -57.5t95 -19.5q59 0 97 19t57 57.5t19 96.5v402h109v-406q0 -128 -71.5 -197.5t-209.5 -69.5zM316 737q-2 20 8 32t23.5 20t24 16t10.5 21t-12 18.5t-29.5 6t-35.5 -2
t-30 -7.5v61q21 10 52 13.5t62 -2t51.5 -23.5t20.5 -51q0 -23 -11.5 -36.5t-26 -22.5t-25.5 -18.5t-11 -24.5h-71z" />
    <glyph glyph-name="uni1EE7" unicode="&#x1ee7;" horiz-adv-x="599" 
d="M245 -13q-88 0 -133 60.5t-45 182.5v290h109v-278q0 -82 25 -122t79 -40q30 0 53 15t40.5 42t28 63.5t14.5 80.5v239h108v-304v-216h-92l5 165h-17q-13 -62 -36.5 -101.5t-58 -58t-80.5 -18.5zM252 597q-2 20 8 32t23.5 20t24 16t10.5 21t-12 18.5t-29.5 6t-35.5 -2
t-30 -7.5v61q21 10 52 13.5t62 -2t51.5 -23.5t20.5 -51q0 -23 -11.5 -36.5t-26 -22.5t-25.5 -18.5t-11 -24.5h-71z" />
    <glyph glyph-name="uni1EE8" unicode="&#x1ee8;" horiz-adv-x="719" 
d="M360 -13q-57 0 -102 11.5t-79 34.5t-56.5 55.5t-34 74t-11.5 91.5v406h110v-402q0 -58 19.5 -96t57.5 -57.5t95 -19.5q59 0 97 19t57 57.5t19 96.5v402h109v-406q0 -128 -71.5 -197.5t-209.5 -69.5zM656 627l-82 10l2 23q34 0 52.5 10t25.5 27t7 38t-2 43h87
q8 -50 1 -85.5t-29.5 -53t-61.5 -12.5zM393 737h-88l73 160h114z" />
    <glyph glyph-name="uni1EE9" unicode="&#x1ee9;" horiz-adv-x="638" 
d="M245 -13q-88 0 -133 60.5t-45 182.5v290h109v-278q0 -82 25 -122t79 -40q30 0 53 15t40.5 42t28 63.5t14.5 80.5v239h108v-304v-216h-92l5 165h-17q-13 -62 -36.5 -101.5t-58 -58t-80.5 -18.5zM539 487l-82 10l2 23q34 0 52.5 10t25.5 27t7 38t-2 43h87q8 -50 1 -85.5
t-29.5 -53t-61.5 -12.5zM329 597h-88l73 160h114z" />
    <glyph glyph-name="uni1EEA" unicode="&#x1eea;" horiz-adv-x="719" 
d="M360 -13q-57 0 -102 11.5t-79 34.5t-56.5 55.5t-34 74t-11.5 91.5v406h110v-402q0 -58 19.5 -96t57.5 -57.5t95 -19.5q59 0 97 19t57 57.5t19 96.5v402h109v-406q0 -128 -71.5 -197.5t-209.5 -69.5zM656 626l-82 10l2 24q34 0 52 10t25.5 26.5t7.5 37.5t-2 43h87
q8 -49 1 -85t-29.5 -53t-61.5 -13zM327 737l-99 160h114l73 -160h-88z" />
    <glyph glyph-name="uni1EEB" unicode="&#x1eeb;" horiz-adv-x="638" 
d="M245 -13q-88 0 -133 60.5t-45 182.5v290h109v-278q0 -82 25 -122t79 -40q30 0 53 15t40.5 42t28 63.5t14.5 80.5v239h108v-304v-216h-92l5 165h-17q-13 -62 -36.5 -101.5t-58 -58t-80.5 -18.5zM538 486l-81 10l2 24q33 0 51.5 10t26 26.5t7.5 37.5t-3 43h88q8 -49 1 -85
t-29.5 -53t-62.5 -13zM263 597l-99 160h114l73 -160h-88z" />
    <glyph glyph-name="uni1EEC" unicode="&#x1eec;" horiz-adv-x="719" 
d="M360 -13q-57 0 -102 11.5t-79 34.5t-56.5 55.5t-34 74t-11.5 91.5v406h110v-402q0 -58 19.5 -96t57.5 -57.5t95 -19.5q59 0 97 19t57 57.5t19 96.5v402h109v-406q0 -128 -71.5 -197.5t-209.5 -69.5zM656 627l-82 10l2 23q34 0 52.5 10t25.5 27t7 38t-2 43h87
q8 -50 1 -85.5t-29.5 -53t-61.5 -12.5zM316 737q-2 20 8 32t23.5 20t24 16t10.5 21t-12 18.5t-29.5 6t-35.5 -2t-30 -7.5v61q21 10 52 13.5t62 -2t51.5 -23.5t20.5 -51q0 -23 -11.5 -36.5t-26 -22.5t-25.5 -18.5t-11 -24.5h-71z" />
    <glyph glyph-name="uni1EED" unicode="&#x1eed;" horiz-adv-x="638" 
d="M245 -13q-88 0 -133 60.5t-45 182.5v290h109v-278q0 -82 25 -122t79 -40q30 0 53 15t40.5 42t28 63.5t14.5 80.5v239h108v-304v-216h-92l5 165h-17q-13 -62 -36.5 -101.5t-58 -58t-80.5 -18.5zM539 487l-82 10l2 23q34 0 52.5 10t25.5 27t7 38t-2 43h87q8 -50 1 -85.5
t-29.5 -53t-61.5 -12.5zM252 597q-2 20 8 32t23.5 20t24 16t10.5 21t-12 18.5t-29.5 6t-35.5 -2t-30 -7.5v61q21 10 52 13.5t62 -2t51.5 -23.5t20.5 -51q0 -23 -11.5 -36.5t-26 -22.5t-25.5 -18.5t-11 -24.5h-71z" />
    <glyph glyph-name="uni1EEE" unicode="&#x1eee;" horiz-adv-x="719" 
d="M360 -13q-57 0 -102 11.5t-79 34.5t-56.5 55.5t-34 74t-11.5 91.5v406h110v-402q0 -58 19.5 -96t57.5 -57.5t95 -19.5q59 0 97 19t57 57.5t19 96.5v402h109v-406q0 -128 -71.5 -197.5t-209.5 -69.5zM656 627l-82 10l2 23q34 0 52.5 10t25.5 27t7 38t-2 43h87
q8 -50 1 -85.5t-29.5 -53t-61.5 -12.5zM449 738q-20 0 -43 8t-45 18t-40.5 18.5t-31.5 8.5q-14 0 -19.5 -12.5t-3.5 -33.5h-54q-11 34 -7 61t21 43t44 16q20 0 42.5 -8t44.5 -18t41 -18t30 -8q16 0 21.5 15t3.5 32h54q10 -32 7 -59.5t-19 -45t-46 -17.5z" />
    <glyph glyph-name="uni1EEF" unicode="&#x1eef;" horiz-adv-x="638" 
d="M245 -13q-88 0 -133 60.5t-45 182.5v290h109v-278q0 -82 25 -122t79 -40q30 0 53 15t40.5 42t28 63.5t14.5 80.5v239h108v-304v-216h-92l5 165h-17q-13 -62 -36.5 -101.5t-58 -58t-80.5 -18.5zM539 487l-82 10l2 23q34 0 52.5 10t25.5 27t7 38t-2 43h87q8 -50 1 -85.5
t-29.5 -53t-61.5 -12.5zM385 598q-20 0 -43 8t-45 18t-40.5 18.5t-31.5 8.5q-14 0 -19.5 -12.5t-3.5 -33.5h-54q-11 34 -7 61t21 43t44 16q20 0 42.5 -8t44.5 -18t41 -18t30 -8q16 0 21.5 15t3.5 32h54q10 -32 7 -59.5t-19 -45t-46 -17.5z" />
    <glyph glyph-name="uni1EF0" unicode="&#x1ef0;" horiz-adv-x="719" 
d="M360 -13q-57 0 -102 11.5t-79 34.5t-56.5 55.5t-34 74t-11.5 91.5v406h110v-402q0 -58 19.5 -96t57.5 -57.5t95 -19.5q59 0 97 19t57 57.5t19 96.5v402h109v-406q0 -128 -71.5 -197.5t-209.5 -69.5zM656 627l-82 10l2 23q34 0 52.5 10t25.5 27t7 38t-2 43h87
q8 -50 1 -85.5t-29.5 -53t-61.5 -12.5zM362 -198q-35 0 -53 14.5t-18 43.5q0 28 18 43t53 15q36 0 54 -15t18 -43q0 -29 -18 -43.5t-54 -14.5z" />
    <glyph glyph-name="uni1EF1" unicode="&#x1ef1;" horiz-adv-x="638" 
d="M245 -13q-88 0 -133 60.5t-45 182.5v290h109v-278q0 -82 25 -122t79 -40q30 0 53 15t40.5 42t28 63.5t14.5 80.5v239h108v-304v-216h-92l5 165h-17q-13 -62 -36.5 -101.5t-58 -58t-80.5 -18.5zM539 487l-82 10l2 23q34 0 52.5 10t25.5 27t7 38t-2 43h87q8 -50 1 -85.5
t-29.5 -53t-61.5 -12.5zM315 -198q-35 0 -53 14.5t-18 43.5q0 28 18 43t53 15q36 0 54 -15t18 -43q0 -29 -18 -43.5t-54 -14.5z" />
    <glyph glyph-name="Ygrave" unicode="&#x1ef2;" horiz-adv-x="600" 
d="M246 0v211l-235 449h128l159 -346h5l159 346h128l-235 -448v-212h-109zM268 737l-99 160h114l73 -160h-88z" />
    <glyph glyph-name="ygrave" unicode="&#x1ef3;" horiz-adv-x="591" 
d="M265 -176q-40 0 -80.5 8.5t-74.5 26t-57 45.5l44 86q26 -34 70 -51.5t93 -17.5q56 0 92.5 23.5t55.5 72.5t20 123l9 100h-19q-11 -71 -34.5 -114t-57.5 -62t-80 -19q-57 0 -95.5 28.5t-58 85t-19.5 138.5v223h108v-199q0 -95 25.5 -139t76.5 -44q28 0 50 14t38.5 41.5
t26 68.5t11.5 95v163h109v-385q0 -62 -10 -111.5t-30.5 -87t-50.5 -63t-70.5 -37.5t-91.5 -12zM266 597l-99 160h114l73 -160h-88z" />
    <glyph glyph-name="uni1EF4" unicode="&#x1ef4;" horiz-adv-x="600" 
d="M246 0v211l-235 449h128l159 -346h5l159 346h128l-235 -448v-212h-109zM304 -198q-35 0 -53 14.5t-18 43.5q0 28 18 43t53 15q36 0 54 -15t18 -43q0 -29 -18 -43.5t-54 -14.5z" />
    <glyph glyph-name="uni1EF5" unicode="&#x1ef5;" horiz-adv-x="591" 
d="M265 -176q-40 0 -80.5 8.5t-74.5 26t-57 45.5l44 86q26 -34 70 -51.5t93 -17.5q56 0 92.5 23.5t55.5 72.5t20 123l9 100h-19q-11 -71 -34.5 -114t-57.5 -62t-80 -19q-57 0 -95.5 28.5t-58 85t-19.5 138.5v223h108v-199q0 -95 25.5 -139t76.5 -44q28 0 50 14t38.5 41.5
t26 68.5t11.5 95v163h109v-385q0 -62 -10 -111.5t-30.5 -87t-50.5 -63t-70.5 -37.5t-91.5 -12zM304 -355q-35 0 -53 14.5t-18 43.5q0 28 18 43t53 15q36 0 54 -15t18 -43q0 -29 -18 -43.5t-54 -14.5z" />
    <glyph glyph-name="uni1EF6" unicode="&#x1ef6;" horiz-adv-x="600" 
d="M246 0v211l-235 449h128l159 -346h5l159 346h128l-235 -448v-212h-109zM257 737q-2 20 8 32t23.5 20t24 16t10.5 21t-12 18.5t-29.5 6t-35.5 -2t-30 -7.5v61q21 10 52 13.5t62 -2t51.5 -23.5t20.5 -51q0 -23 -11.5 -36.5t-26 -22.5t-25.5 -18.5t-11 -24.5h-71z" />
    <glyph glyph-name="uni1EF7" unicode="&#x1ef7;" horiz-adv-x="591" 
d="M265 -176q-40 0 -80.5 8.5t-74.5 26t-57 45.5l44 86q26 -34 70 -51.5t93 -17.5q56 0 92.5 23.5t55.5 72.5t20 123l9 100h-19q-11 -71 -34.5 -114t-57.5 -62t-80 -19q-57 0 -95.5 28.5t-58 85t-19.5 138.5v223h108v-199q0 -95 25.5 -139t76.5 -44q28 0 50 14t38.5 41.5
t26 68.5t11.5 95v163h109v-385q0 -62 -10 -111.5t-30.5 -87t-50.5 -63t-70.5 -37.5t-91.5 -12zM255 597q-2 20 8 32t23.5 20t24 16t10.5 21t-12 18.5t-29.5 6t-35.5 -2t-30 -7.5v61q21 10 52 13.5t62 -2t51.5 -23.5t20.5 -51q0 -23 -11.5 -36.5t-26 -22.5t-25.5 -18.5
t-11 -24.5h-71z" />
    <glyph glyph-name="uni1EF8" unicode="&#x1ef8;" horiz-adv-x="600" 
d="M246 0v211l-235 449h128l159 -346h5l159 346h128l-235 -448v-212h-109zM391 738q-20 0 -43 8t-45 18t-40.5 18.5t-31.5 8.5q-14 0 -19.5 -12.5t-3.5 -33.5h-54q-11 34 -7 61t21 43t44 16q20 0 42.5 -8t44.5 -18t41 -18t30 -8q16 0 21.5 15t3.5 32h54q10 -32 7 -59.5
t-19 -45t-46 -17.5z" />
    <glyph glyph-name="uni1EF9" unicode="&#x1ef9;" horiz-adv-x="591" 
d="M265 -176q-40 0 -80.5 8.5t-74.5 26t-57 45.5l44 86q26 -34 70 -51.5t93 -17.5q56 0 92.5 23.5t55.5 72.5t20 123l9 100h-19q-11 -71 -34.5 -114t-57.5 -62t-80 -19q-57 0 -95.5 28.5t-58 85t-19.5 138.5v223h108v-199q0 -95 25.5 -139t76.5 -44q28 0 50 14t38.5 41.5
t26 68.5t11.5 95v163h109v-385q0 -62 -10 -111.5t-30.5 -87t-50.5 -63t-70.5 -37.5t-91.5 -12zM389 598q-20 0 -43 8t-45 18t-40.5 18.5t-31.5 8.5q-14 0 -19.5 -12.5t-3.5 -33.5h-54q-11 34 -7 61t21 43t44 16q20 0 42.5 -8t44.5 -18t41 -18t30 -8q16 0 21.5 15t3.5 32h54
q10 -32 7 -59.5t-19 -45t-46 -17.5z" />
    <glyph glyph-name="uni2000" unicode="&#x2000;" horiz-adv-x="500" 
 />
    <glyph glyph-name="uni2001" unicode="&#x2001;" horiz-adv-x="1000" 
 />
    <glyph glyph-name="uni2002" unicode="&#x2002;" horiz-adv-x="500" 
 />
    <glyph glyph-name="uni2003" unicode="&#x2003;" horiz-adv-x="1000" 
 />
    <glyph glyph-name="uni2004" unicode="&#x2004;" horiz-adv-x="300" 
 />
    <glyph glyph-name="uni2005" unicode="&#x2005;" horiz-adv-x="250" 
 />
    <glyph glyph-name="uni2006" unicode="&#x2006;" horiz-adv-x="167" 
 />
    <glyph glyph-name="uni2007" unicode="&#x2007;" horiz-adv-x="609" 
 />
    <glyph glyph-name="uni2008" unicode="&#x2008;" horiz-adv-x="196" 
 />
    <glyph glyph-name="uni2009" unicode="&#x2009;" horiz-adv-x="125" 
 />
    <glyph glyph-name="uni200A" unicode="&#x200a;" horiz-adv-x="65" 
 />
    <glyph glyph-name="uni200B" unicode="&#x200b;" 
 />
    <glyph glyph-name="endash" unicode="&#x2013;" horiz-adv-x="520" 
d="M32 217v98h456v-98h-456z" />
    <glyph glyph-name="emdash" unicode="&#x2014;" horiz-adv-x="767" 
d="M32 217v98h703v-98h-703z" />
    <glyph glyph-name="uni2016" unicode="&#x2016;" horiz-adv-x="463" 
d="M82 -157v817h95v-817h-95zM286 -157v817h95v-817h-95z" />
    <glyph glyph-name="quoteleft" unicode="&#x2018;" horiz-adv-x="176" 
d="M160 710q-18 -45 -25.5 -83.5t-9 -73.5t-1.5 -73h-102q0 58 7.5 101t19 74.5t23.5 54.5h88z" />
    <glyph glyph-name="quoteright" unicode="&#x2019;" horiz-adv-x="176" 
d="M16 475q18 46 25.5 84t9 73.5t1.5 72.5h102q0 -57 -7 -100t-19 -75t-24 -55h-88z" />
    <glyph glyph-name="quotesinglbase" unicode="&#x201a;" horiz-adv-x="165" 
d="M2 -135q18 46 25.5 84t9 73.5t1.5 72.5h102q0 -57 -7 -100t-19 -75t-24 -55h-88z" />
    <glyph glyph-name="quotedblleft" unicode="&#x201c;" horiz-adv-x="346" 
d="M329 710q-18 -45 -25.5 -83.5t-9 -73.5t-1.5 -73h-102q0 58 7.5 101t19 74.5t24.5 54.5h87zM160 710q-18 -45 -25.5 -83.5t-9 -73.5t-1.5 -73h-102q0 58 7.5 101t19 74.5t23.5 54.5h88z" />
    <glyph glyph-name="quotedblright" unicode="&#x201d;" horiz-adv-x="346" 
d="M16 475q18 46 25.5 84t9 73.5t1.5 72.5h102q0 -57 -7 -100t-19 -75t-24 -55h-88zM186 475q18 46 25.5 84t9 73.5t1.5 72.5h102q0 -57 -7 -100t-19 -75t-24 -55h-88z" />
    <glyph glyph-name="quotedblbase" unicode="&#x201e;" horiz-adv-x="334" 
d="M2 -84q18 46 25.5 84t9 73.5t1.5 72.5h102q0 -57 -7 -100t-19 -75t-24 -55h-88zM172 -84q18 46 25.5 84t9 73.5t1.5 72.5h102q0 -57 -7 -100t-19 -75t-24 -55h-88z" />
    <glyph glyph-name="dagger" unicode="&#x2020;" horiz-adv-x="400" 
d="M160 569l-137 -26v110l140 -34l4 5l-28 138h121l-28 -138l5 -5l140 34v-110l-136 26l-8 -5l22 -248h-111l23 248z" />
    <glyph glyph-name="daggerdbl" unicode="&#x2021;" horiz-adv-x="387" 
d="M152 623l-129 -27v101l132 -35l5 5l-28 95h123l-27 -95l5 -4l131 34v-102l-127 28l-9 -5l-7 -66h-52l-10 66zM152 468l7 5l10 64h52l7 -65l9 -5l127 28v-101l-131 34l-5 -5l27 -95h-123l28 95l-5 5l-132 -34v100z" />
    <glyph glyph-name="bullet" unicode="&#x2022;" horiz-adv-x="271" 
d="M134 162q-56 0 -83.5 24t-27.5 75q0 52 27.5 76t83.5 24q57 0 85 -24t28 -76q0 -51 -28 -75t-85 -24z" />
    <glyph glyph-name="ellipsis" unicode="&#x2026;" horiz-adv-x="706" 
d="M97 -12q-37 0 -55.5 16t-18.5 50q0 35 19 51t55 16q38 0 57 -16t19 -51q0 -66 -76 -66zM352 -12q-37 0 -55.5 16t-18.5 50q0 35 19 51t55 16q38 0 57 -16t19 -51q0 -66 -76 -66zM607 -12q-37 0 -55.5 16t-18.5 50q0 35 19 51t55 16q38 0 57 -16t19 -51q0 -66 -76 -66z
" />
    <glyph glyph-name="uni202F" unicode="&#x202f;" horiz-adv-x="167" 
 />
    <glyph glyph-name="perthousand" unicode="&#x2030;" horiz-adv-x="1362" 
d="M213 309q-51 0 -93 21t-66.5 63t-24.5 104q0 51 15.5 87.5t42 59t60 33t68.5 10.5q53 0 94.5 -21t66 -63t24.5 -105q0 -68 -27.5 -110t-70 -60.5t-89.5 -18.5zM217 394q22 0 43 10t34.5 32t13.5 59q0 40 -15 63t-36.5 33t-44.5 10t-43.5 -10t-33.5 -32t-13 -58
q0 -38 14 -61.5t36 -34.5t45 -11zM731 -30q-52 0 -94 21t-66 63.5t-24 104.5q0 51 15.5 87t42 58.5t60 33.5t68.5 11q52 0 93.5 -21t66 -63t24.5 -106q0 -68 -27 -109.5t-69.5 -60.5t-89.5 -19zM735 56q22 0 42.5 10t34 31.5t13.5 58.5q0 40 -14.5 63t-36.5 33.5t-45 10.5
q-22 0 -43 -10.5t-34 -32t-13 -58.5t14 -61t36.5 -34.5t45.5 -10.5zM1146 -30q-52 0 -94 21t-66 63.5t-24 104.5q0 51 15.5 87t42 58.5t60 33.5t68.5 11q52 0 94 -21t66.5 -63t24.5 -106q0 -68 -27.5 -109.5t-70 -60.5t-89.5 -19zM1150 56q22 0 42.5 10t34 31.5t13.5 58.5
q0 40 -14.5 63t-36.5 33.5t-45 10.5q-22 0 -43 -10.5t-34 -32t-13 -58.5t14.5 -61t36.5 -34.5t45 -10.5zM213 0l399 660h109l-400 -660h-108z" />
    <glyph glyph-name="minute" unicode="&#x2032;" horiz-adv-x="173" 
d="M28 422l25 238h103l-55 -238h-73z" />
    <glyph glyph-name="second" unicode="&#x2033;" horiz-adv-x="327" 
d="M182 422l25 238h103l-55 -238h-73zM28 422l25 238h103l-55 -238h-73z" />
    <glyph glyph-name="guilsinglleft" unicode="&#x2039;" horiz-adv-x="230" 
d="M85 84q-10 51 -24.5 97t-30.5 90q17 44 31 89t24 95h108q-13 -50 -31 -95t-37 -89q19 -44 37 -90t31 -97h-108z" />
    <glyph glyph-name="guilsinglright" unicode="&#x203a;" horiz-adv-x="214" 
d="M130 84h-109q14 51 31.5 97t36.5 90q-19 44 -36.5 89t-31.5 95h109q10 -50 24.5 -95t30.5 -89q-16 -44 -30.5 -90t-24.5 -97z" />
    <glyph glyph-name="fraction" unicode="&#x2044;" horiz-adv-x="285" 
d="M-111 0l399 660h108l-399 -660h-108z" />
    <glyph glyph-name="uni2070" unicode="&#x2070;" horiz-adv-x="444" 
d="M221 262q-54 0 -94 24.5t-62.5 71t-22.5 113.5q0 70 24 117t64.5 70.5t93.5 23.5q54 0 94 -24.5t62 -71.5t22 -114q0 -68 -23 -115t-64 -71t-94 -24zM223 336q20 0 40 12t32.5 41.5t12.5 80.5q0 66 -23.5 102t-62.5 36q-21 0 -41 -13.5t-32 -43t-12 -78.5t12 -79.5
t32 -44t42 -13.5z" />
    <glyph glyph-name="uni2074" unicode="&#x2074;" horiz-adv-x="436" 
d="M25 346v90q42 50 70 90.5t46 77t30 71.5h163v-405h-92v349h-7q-22 -51 -53.5 -100.5t-69.5 -92.5v-7h279v-73h-366z" />
    <glyph glyph-name="uni2075" unicode="&#x2075;" horiz-adv-x="415" 
d="M209 262q-49 0 -85 13.5t-55.5 38t-19.5 58.5l89 16q3 -25 20 -39t49 -14q35 0 53 18.5t18 53.5q0 20 -6.5 37t-20.5 26.5t-37 9.5q-26 0 -42 -11.5t-23 -27.5h-93l15 233h286v-77h-208l-9 -111h10q11 28 39.5 41t64.5 13q40 0 67 -16.5t40.5 -46t13.5 -69.5
q0 -51 -21 -83.5t-58.5 -47.5t-86.5 -15z" />
    <glyph glyph-name="uni2076" unicode="&#x2076;" horiz-adv-x="439" 
d="M235 261q-95 0 -144 53.5t-49 155.5q0 70 23 117.5t65.5 72t100.5 24.5q32 0 58 -7t46 -21.5t32.5 -35.5t17.5 -48l-88 -19q-2 25 -20.5 39t-47.5 14q-30 0 -52 -16.5t-33.5 -46.5t-11.5 -72q0 -18 2.5 -33t6.5 -29h8q0 42 19 65.5t47 33.5t54 10q35 0 64 -14t47 -40.5
t18 -67.5q0 -23 -8.5 -47t-27 -44t-50 -32t-77.5 -12zM229 332q26 0 42.5 9t25 23.5t8.5 30.5q0 30 -20.5 46.5t-49.5 16.5q-31 0 -52.5 -18t-21.5 -50q0 -21 9.5 -33.5t25 -18.5t33.5 -6z" />
    <glyph glyph-name="uni2077" unicode="&#x2077;" horiz-adv-x="347" 
d="M88 270q0 56 16.5 114t50 112.5t84.5 99.5v5l-212 -5v78h295v-76q-27 -25 -50.5 -61t-41.5 -79t-28.5 -91t-10.5 -97h-103z" />
    <glyph glyph-name="uni2078" unicode="&#x2078;" horiz-adv-x="433" 
d="M217 261q-53 0 -93 12.5t-62.5 38t-22.5 63.5q0 43 26.5 67t69.5 29v6l81 15l83 -15v-6q28 -2 49.5 -14t33.5 -33t12 -50q0 -38 -22 -63t-62 -37.5t-93 -12.5zM216 334q18 0 36.5 6t32 18.5t13.5 31.5t-12.5 32t-31.5 19.5t-38 6.5t-37.5 -7t-30.5 -19.5t-12 -31.5
t12.5 -31t31 -18.5t36.5 -6.5zM216 502q17 0 33 6.5t26.5 19t10.5 29.5t-11 28.5t-27 17t-33 5.5q-16 0 -32 -5t-26 -16.5t-10 -28.5t9 -29.5t25 -19.5t35 -7zM216 451l-81 20v8q-40 6 -60.5 28t-20.5 60q0 30 12 52t33.5 36.5t51 21.5t65.5 7q74 0 118.5 -29.5t44.5 -86.5
q0 -38 -20 -60t-60 -29v-9z" />
    <glyph glyph-name="uni2079" unicode="&#x2079;" horiz-adv-x="436" 
d="M203 261q-33 0 -60 6.5t-47 20t-33.5 34t-17.5 47.5l87 20q5 -21 16.5 -32t26.5 -15.5t29 -4.5q24 0 43 9t31.5 26t19 41t6.5 53q0 17 -2.5 35t-6.5 36h-8q1 -41 -18 -65.5t-46.5 -34.5t-53.5 -10q-50 0 -88.5 31t-38.5 90q0 24 8 48t26.5 44t49.5 32t75 12
q63 0 106 -25.5t65 -74t22 -116.5q0 -69 -23 -115t-65.5 -69t-102.5 -23zM204 485q31 0 51 19t20 49q0 21 -9 33.5t-24 19t-34 6.5q-24 0 -40.5 -8.5t-25 -23t-8.5 -33.5q0 -30 20.5 -46t49.5 -16z" />
    <glyph glyph-name="uni2080" unicode="&#x2080;" horiz-adv-x="444" 
d="M221 -218q-54 0 -94 24.5t-62.5 71t-22.5 113.5q0 70 24 117t64.5 70.5t93.5 23.5q54 0 94 -24.5t62 -71.5t22 -114q0 -68 -23 -115t-64 -71t-94 -24zM223 -144q20 0 40 12t32.5 41.5t12.5 80.5q0 66 -23.5 102t-62.5 36q-21 0 -41 -13.5t-32 -43t-12 -78.5t12 -79.5
t32 -44t42 -13.5z" />
    <glyph glyph-name="uni2081" unicode="&#x2081;" horiz-adv-x="248" 
d="M94 -210v271h-57v82q28 0 45.5 10.5t21.5 40.5h82v-404h-92z" />
    <glyph glyph-name="uni2082" unicode="&#x2082;" horiz-adv-x="411" 
d="M40 -210v94l162 102q15 10 30 23t25 29t10 34q0 24 -17 39t-49 15q-28 0 -43.5 -11.5t-21 -30t-5.5 -40.5l-90 14q-1 67 41.5 106.5t121.5 39.5q46 0 81.5 -14t55.5 -41.5t20 -68.5q0 -28 -9.5 -50.5t-25.5 -41.5t-36.5 -34.5t-43.5 -29.5l-96 -62v-6l216 14v-80h-326z
" />
    <glyph glyph-name="uni2083" unicode="&#x2083;" horiz-adv-x="410" 
d="M191 -218q-84 0 -123.5 31.5t-45.5 86.5l85 17q1 -22 11.5 -36t29.5 -21t43 -7q36 0 58.5 15t22.5 44q0 25 -16 42t-51 25.5t-90 5.5v47l129 83v6l-201 -2v75h297v-86l-133 -79v-9q79 5 118.5 -24.5t39.5 -86.5q0 -58 -43.5 -92.5t-130.5 -34.5z" />
    <glyph glyph-name="uni2084" unicode="&#x2084;" horiz-adv-x="436" 
d="M25 -134v90q42 50 70 90.5t46 77t30 71.5h163v-405h-92v349h-7q-22 -51 -53.5 -100.5t-69.5 -92.5v-7h279v-73h-366z" />
    <glyph glyph-name="uni2085" unicode="&#x2085;" horiz-adv-x="415" 
d="M209 -218q-49 0 -85 13.5t-55.5 38t-19.5 58.5l89 16q3 -25 20 -39t49 -14q35 0 53 18.5t18 53.5q0 20 -6.5 37t-20.5 26.5t-37 9.5q-26 0 -42 -11.5t-23 -27.5h-93l15 233h286v-77h-208l-9 -111h10q11 28 39.5 41t64.5 13q40 0 67 -16.5t40.5 -46t13.5 -69.5
q0 -51 -21 -83.5t-58.5 -47.5t-86.5 -15z" />
    <glyph glyph-name="uni2086" unicode="&#x2086;" horiz-adv-x="439" 
d="M235 -219q-95 0 -144 53.5t-49 155.5q0 70 23 117.5t65.5 72t100.5 24.5q32 0 58 -7t46 -21.5t32.5 -35.5t17.5 -48l-88 -19q-2 25 -20.5 39t-47.5 14q-30 0 -52 -16.5t-33.5 -46.5t-11.5 -72q0 -18 2.5 -33t6.5 -29h8q0 42 19 65.5t47 33.5t54 10q35 0 64 -14t47 -40.5
t18 -67.5q0 -23 -8.5 -47t-27 -44t-50 -32t-77.5 -12zM229 -148q26 0 42.5 9t25 23.5t8.5 30.5q0 30 -20.5 46.5t-49.5 16.5q-31 0 -52.5 -18t-21.5 -50q0 -21 9.5 -33.5t25 -18.5t33.5 -6z" />
    <glyph glyph-name="uni2087" unicode="&#x2087;" horiz-adv-x="347" 
d="M88 -210q0 56 16.5 114t50 112.5t84.5 99.5v5l-212 -5v78h295v-76q-27 -25 -50.5 -61t-41.5 -79t-28.5 -91t-10.5 -97h-103z" />
    <glyph glyph-name="uni2088" unicode="&#x2088;" horiz-adv-x="433" 
d="M217 -219q-53 0 -93 12.5t-62.5 38t-22.5 63.5q0 43 26.5 67t69.5 29v6l81 15l83 -15v-6q28 -2 49.5 -14t33.5 -33t12 -50q0 -38 -22 -63t-62 -37.5t-93 -12.5zM216 -146q18 0 36.5 6t32 18.5t13.5 31.5t-12.5 32t-31.5 19.5t-38 6.5t-37.5 -7t-30.5 -19.5t-12 -31.5
t12.5 -31t31 -18.5t36.5 -6.5zM216 22q17 0 33 6.5t26.5 19t10.5 29.5t-11 28.5t-27 17t-33 5.5q-16 0 -32 -5t-26 -16.5t-10 -28.5t9 -29.5t25 -19.5t35 -7zM216 -29l-81 20v8q-40 6 -60.5 28t-20.5 60q0 30 12 52t33.5 36.5t51 21.5t65.5 7q74 0 118.5 -29.5t44.5 -86.5
q0 -38 -20 -60t-60 -29v-9z" />
    <glyph glyph-name="uni2089" unicode="&#x2089;" horiz-adv-x="436" 
d="M203 -219q-33 0 -60 6.5t-47 20t-33.5 34t-17.5 47.5l87 20q5 -21 16.5 -32t26.5 -15.5t29 -4.5q24 0 43 9t31.5 26t19 41t6.5 53q0 17 -2.5 35t-6.5 36h-8q1 -41 -18 -65.5t-46.5 -34.5t-53.5 -10q-50 0 -88.5 31t-38.5 90q0 24 8 48t26.5 44t49.5 32t75 12
q63 0 106 -25.5t65 -74t22 -116.5q0 -69 -23 -115t-65.5 -69t-102.5 -23zM204 5q31 0 51 19t20 49q0 21 -9 33.5t-24 19t-34 6.5q-24 0 -40.5 -8.5t-25 -23t-8.5 -33.5q0 -30 20.5 -46t49.5 -16z" />
    <glyph glyph-name="colonmonetary" unicode="&#x20a1;" horiz-adv-x="659" 
d="M491 604l-77 20l34 151h84zM152 -97l39 156l74 -20l-29 -136h-84zM312 -97l39 156l72 -20l-26 -136h-85zM330 604l-76 20l32 151h85zM362 -6q-71 0 -128 21.5t-96 63.5t-59.5 103t-20.5 141t21 144t60 108.5t94 68t123 23.5q52 0 96 -14.5t76.5 -41t50.5 -64.5t18 -86
l-100 -26q1 47 -19.5 78t-53.5 47t-71 16q-36 0 -69 -14t-59 -44t-41.5 -77t-15.5 -113q0 -86 25.5 -139.5t70 -78t102.5 -24.5q57 0 91.5 22t50.5 60t19 86l95 -17q-1 -50 -16 -94.5t-46 -77.5t-80 -52t-118 -19z" />
    <glyph glyph-name="lira" unicode="&#x20a4;" horiz-adv-x="717" 
d="M183 -13q-74 0 -116 36.5t-42 94.5q0 38 16.5 66t46.5 44t71 16q38 0 65 -15.5t45 -44.5l15 4v-52q-24 25 -48 33.5t-47 8.5q-35 0 -53 -16t-18 -42q0 -27 19 -44.5t53 -17.5q31 0 51.5 15t30.5 43t10 64q0 45 -11.5 76.5t-29 56.5t-35 49.5t-29 54t-11.5 71.5
q0 63 29.5 104t79 61.5t109.5 20.5q53 0 94.5 -14.5t70 -41.5t43 -64t11.5 -82l-103 -17q0 37 -12 66t-37.5 45.5t-67.5 16.5q-55 0 -80.5 -28.5t-25.5 -72.5q0 -31 9.5 -57t24 -51t29.5 -52.5t24.5 -60.5t9.5 -74q0 -39 -10.5 -75t-33.5 -64t-59.5 -44.5t-87.5 -16.5z
M516 -14q-51 0 -88.5 18.5t-61.5 44.5t-36 46l-13 11l19 45q11 -9 26.5 -22t35.5 -26t42 -22t45 -9q35 0 53.5 19t25.5 47.5t7 57.5q0 13 -1.5 26t-4 25t-5.5 23h108q6 -21 9.5 -45t3.5 -45q0 -36 -9 -70.5t-28.5 -62.5t-51 -44.5t-76.5 -16.5zM89 282v49h180v-43zM89 381
v48l150 1v-43zM292 290v44l188 8v-50zM267 389v44l213 7v-47z" />
    <glyph glyph-name="uni20A6" unicode="&#x20a6;" horiz-adv-x="869" 
d="M655 378v74h177v-74h-177zM37 221v75h181v-75h-181zM37 378v74h181v-74h-181zM655 221v75h177v-75h-177zM147 7v647h141l325 -504h9l-7 504h104v-647h-129l-337 520h-9l7 -520h-104z" />
    <glyph glyph-name="uni20A8" unicode="&#x20a8;" horiz-adv-x="1194" 
d="M82 0v660h242q52 0 94 -8t75 -24t56 -39.5t34.5 -54t11.5 -67.5q0 -35 -10.5 -63.5t-32 -50.5t-53 -35.5t-73.5 -18.5v-13q41 -5 69 -21t47 -45t32 -76l41 -144h-119l-32 132q-10 40 -30 64.5t-50 35.5t-71 11h-122v-243h-109zM191 329h125q82 0 124.5 30t42.5 92
t-40.5 91.5t-124.5 29.5h-127v-243zM933 -13q-54 0 -96 11t-71.5 31.5t-45.5 49.5t-19 63l88 29q0 -29 18 -52t51.5 -35.5t80.5 -12.5q55 0 85 18t30 50q0 24 -16.5 38t-47 23t-71.5 17q-37 8 -73.5 18.5t-67 27.5t-49 44.5t-18.5 69.5q0 48 25 82.5t72.5 54t113.5 19.5
q64 0 110.5 -19t74.5 -53t34 -80l-92 -27q-2 31 -18.5 52t-44.5 31.5t-66 10.5q-50 0 -78.5 -18t-28.5 -49q0 -24 17.5 -38.5t48 -23t69.5 -16.5q40 -8 77 -18t66.5 -26.5t47 -44t17.5 -69.5q0 -51 -27.5 -86.5t-77.5 -53.5t-118 -18z" />
    <glyph glyph-name="uni20A9" unicode="&#x20a9;" horiz-adv-x="1037" 
d="M825 378v74h176v-74h-176zM36 221v75h182v-75h-182zM36 378v74h182v-74h-182zM825 221v75h176v-75h-176zM239 7l-156 647h115l118 -552h10l127 552h141l125 -552h9l121 552h111l-160 -647h-151l-122 552h-9l-125 -552h-154z" />
    <glyph glyph-name="dong" unicode="&#x20ab;" horiz-adv-x="611" 
d="M97 -123v59h441v-59h-441zM260 -13q-66 0 -114 34.5t-73 96t-25 142.5q0 79 23.5 140.5t70 96.5t114.5 35q54 0 89 -21.5t56.5 -58.5t32.5 -82h20q-5 29 -10 60.5t-8 61t-3 52.5v161h110v-449v-256h-95l4 144h-18q-12 -49 -34 -84t-56.5 -54t-83.5 -19zM290 79
q35 0 62 16t45 42t27.5 56.5t9.5 57.5v14q0 20 -5.5 43.5t-17 47t-28.5 42.5t-40.5 30.5t-52.5 11.5q-42 0 -70.5 -23.5t-43.5 -64.5t-15 -94q0 -54 15.5 -94.5t44.5 -62.5t69 -22zM230 648h390v-49h-390v49z" />
    <glyph glyph-name="Euro" unicode="&#x20ac;" horiz-adv-x="738" 
d="M45 360l24 60h380l-25 -60h-379zM29 222l23 59h364l-24 -59h-363zM437 -13q-73 0 -131 22t-98 64.5t-61 105t-21 143.5q0 82 21.5 147t61.5 110.5t96 69.5t125 24q53 0 98 -14.5t78 -41.5t51.5 -66t19.5 -88l-103 -26q1 48 -19.5 79.5t-54.5 47.5t-73 16q-36 0 -70 -14
t-60.5 -44.5t-42 -78.5t-15.5 -116q0 -87 25.5 -141.5t71 -80t104.5 -25.5t94 23t51.5 61.5t18.5 87.5l97 -17q-1 -51 -16 -96.5t-46.5 -79.5t-81.5 -53t-120 -19z" />
    <glyph glyph-name="uni20AD" unicode="&#x20ad;" horiz-adv-x="722" 
d="M549 0l-235 298v70l231 292h144l-288 -320v-8l288 -332h-140zM121 0v660h110v-660h-110zM21 298v70h615v-70h-615z" />
    <glyph glyph-name="uni20AE" unicode="&#x20ae;" horiz-adv-x="543" 
d="M59 333l415 94v-70l-415 -94v70zM59 190l415 94v-70l-415 -94v70zM217 7v647h108v-647h-108zM23 562v92h497v-92h-497z" />
    <glyph glyph-name="uni20B1" unicode="&#x20b1;" horiz-adv-x="778" 
d="M34 312v74h176v-74h-176zM573 312v74h171v-74h-171zM34 468v75h176v-75h-176zM573 468v75h171v-75h-171zM214 197v89h159q88 0 131.5 34t43.5 112q0 70 -40.5 105t-125.5 35h-168v88h171q64 0 115 -15t86.5 -44t54 -72.5t18.5 -100.5q0 -75 -34 -126.5t-101 -78
t-165 -26.5h-145zM148 0v660h109v-660h-109z" />
    <glyph glyph-name="uni20B2" unicode="&#x20b2;" horiz-adv-x="667" 
d="M283 646l-21 137h110l-21 -137h-68zM262 -126l21 136h68l21 -136h-110zM307 -8q-79 0 -141.5 36.5t-98 110.5t-35.5 185q0 79 19.5 142.5t58.5 107.5t95.5 67.5t131.5 23.5q55 0 100 -14t78.5 -39t53.5 -62t24 -84l-102 -30q-3 49 -26 79.5t-57.5 44.5t-74.5 14
q-57 0 -100 -26t-66.5 -80.5t-23.5 -140.5q0 -66 14 -112.5t39.5 -75.5t60 -42.5t74.5 -13.5q48 0 84.5 17.5t57.5 54t26 92.5h-139v82h245v-105v-219h-82l13 173h-15q-14 -62 -41 -103.5t-69.5 -62t-103.5 -20.5z" />
    <glyph glyph-name="uni20B4" unicode="&#x20b4;" horiz-adv-x="708" 
d="M352 -13q-90 0 -150.5 23.5t-91 66.5t-30.5 101q0 43 18 72.5t43 50.5h232q-15 -7 -38.5 -14t-49 -16t-48.5 -22t-37.5 -31t-14.5 -43q0 -29 19 -51.5t55 -35.5t88 -13q50 0 87.5 13.5t60 40t27.5 66.5l98 -26q-4 -45 -24 -79t-54.5 -57t-82 -34.5t-107.5 -11.5zM49 248
v53h609v-53h-609zM49 375v53h609v-53h-609zM337 375q14 6 35.5 12.5t44.5 15.5t43 21t32.5 27.5t12.5 35.5q0 29 -17.5 51t-49.5 34.5t-75 12.5q-41 0 -74 -11.5t-54 -34.5t-28 -57l-99 28q11 53 45 89t87.5 55t121.5 19q76 0 131.5 -23.5t85.5 -67t30 -102.5
q0 -34 -12 -59.5t-29 -45.5h-231z" />
    <glyph glyph-name="uni20B5" unicode="&#x20b5;" horiz-adv-x="659" 
d="M307 646l-20 137h110l-21 -137h-69zM287 -126l20 136h69l20 -136h-109zM362 -6q-71 0 -128 21.5t-96 63.5t-59.5 103t-20.5 141t21 144t60 108.5t94 68t123 23.5q52 0 96 -14.5t76.5 -41t50.5 -64.5t18 -86l-100 -26q1 47 -19.5 78t-53.5 47t-71 16q-36 0 -69 -14
t-59 -44t-41.5 -77t-15.5 -113q0 -86 25.5 -139.5t70 -78t102.5 -24.5q57 0 91.5 22t50.5 60t19 86l95 -17q-1 -50 -16 -94.5t-46 -77.5t-80 -52t-118 -19z" />
    <glyph glyph-name="uni20B8" unicode="&#x20b8;" horiz-adv-x="553" 
d="M222 7v520h110v-520h-110zM23 434v93h507v-93h-507zM23 596v68h507v-68h-507z" />
    <glyph glyph-name="uni20B9" unicode="&#x20b9;" horiz-adv-x="591" 
d="M377 -5l-29 86q-12 38 -30 67.5t-48 47t-80 17.5h-152v84h132q25 0 56 2.5t59.5 15t47 42t18.5 83.5q0 40 -12 65.5t-31 39.5t-41.5 20t-43 7t-34.5 1v32l182 -2v-42q33 -9 53.5 -28t30 -43.5t9.5 -53.5q0 -33 -10 -62t-31.5 -52.5t-56 -37.5t-83.5 -18v-14q53 -3 86 -24
t54.5 -55.5t37.5 -79.5l36 -98h-120zM38 401v66h514v-66h-514zM38 573v87h514v-87h-514z" />
    <glyph glyph-name="uni20BA" unicode="&#x20ba;" horiz-adv-x="680" 
d="M650 243v-17q0 -58 -16 -101t-48 -70.5t-79 -41t-107 -13.5h-167v87h159q13 0 32 1.5t39.5 8t38.5 22t29.5 42t11.5 68.5v21zM168 660h107v-660h-107v660zM40 422l425 95v-70l-425 -95v70zM40 279l425 95v-70l-425 -95v70z" />
    <glyph glyph-name="uni20BC" unicode="&#x20bc;" horiz-adv-x="673" 
d="M64 0v306q0 50 11 91.5t33 74t54.5 55.5t76.5 34.5t98 11.5q53 0 95.5 -11t75.5 -33t55.5 -54t34 -74.5t11.5 -94.5v-306h-104v302q0 39 -9.5 71.5t-29.5 56t-52 36t-77 12.5q-59 0 -96 -22t-54.5 -61.5t-17.5 -92.5v-302h-105zM295 0v660h84v-660h-84z" />
    <glyph glyph-name="uni20BD" unicode="&#x20bd;" horiz-adv-x="681" 
d="M40 63v70h404v-70h-404zM41 200v70h155v-70h-155zM209 200v88h155q86 0 129 33t43 109q0 69 -40 103t-123 34h-164v87h167q63 0 112.5 -14.5t84.5 -43t53 -71t18 -98.5q0 -75 -33.5 -125.5t-99 -76t-160.5 -25.5h-142zM144 7v647h107v-647h-107z" />
    <glyph glyph-name="uni20BE" unicode="&#x20be;" horiz-adv-x="676" 
d="M239 72v36q-40 12 -73 34t-58 54.5t-38.5 75.5t-13.5 94q0 63 21 118.5t61.5 98t99.5 67t134 24.5q78 0 137 -26t93 -74.5t37 -116.5l-96 -25q-6 49 -28 82.5t-58.5 51t-85.5 17.5q-58 0 -104 -26t-73 -76.5t-27 -125.5q0 -59 17 -107.5t47 -83.5t69.5 -54t85.5 -19
l-4 -19h-143zM64 0v91h563v-91h-563zM277 351v375l50 21v-376zM396 359v394l49 21v-394z" />
    <glyph glyph-name="uni20BF" unicode="&#x20bf;" horiz-adv-x="655" 
d="M180 632l-10 147h88l-10 -147h-68zM382 632l-10 147h89l-10 -147h-69zM180 24h68l10 -137h-88zM382 24h69l10 -137h-89zM82 7v647h247q56 0 101.5 -10t77.5 -30.5t49.5 -52.5t17.5 -78q0 -38 -15 -66t-48 -46t-85 -26v-13q91 -7 132.5 -47.5t41.5 -106.5q0 -56 -27 -94
t-82 -57.5t-140 -19.5h-270zM184 96h174q70 0 104 23t34 71q0 55 -45.5 82.5t-138.5 27.5h-128v-204zM184 374h109q90 0 133.5 24.5t43.5 73.5q0 47 -38 70.5t-115 23.5h-133v-192z" />
    <glyph glyph-name="uni2113" unicode="&#x2113;" horiz-adv-x="491" 
d="M320 -14q-57 0 -102 25.5t-76.5 73.5t-48 116.5t-16.5 155.5q0 112 26 181.5t70 101.5t100 32t93 -26t56 -70t19 -98q0 -71 -31.5 -127t-89 -95t-134.5 -60t-168 -23v54q95 10 159 34t102.5 58t55.5 73.5t17 79.5q0 49 -21 80.5t-54 31.5q-27 0 -48 -23t-33.5 -72
t-12.5 -128q0 -61 8.5 -114.5t26 -93t45 -62t64.5 -22.5q18 0 37 5.5t44 17.5l23 -80q-26 -13 -54 -19.5t-57 -6.5z" />
    <glyph glyph-name="uni2116" unicode="&#x2116;" horiz-adv-x="1066" 
d="M763 336h249v-69h-249v69zM82 0v660h144l331 -515h9l-7 515h106v-660h-131l-344 531h-9l7 -531h-106zM889 390q-42 0 -74.5 16.5t-51 48t-18.5 76.5q0 36 12 62.5t32 43.5t46.5 25.5t56.5 8.5q43 0 75.5 -16.5t51 -47.5t18.5 -77q0 -47 -20 -78.5t-53.5 -46.5t-74.5 -15z
M893 461q30 0 47.5 19.5t17.5 50.5q0 30 -18 49t-50 19q-30 0 -48 -18.5t-18 -48.5q0 -31 19 -51t50 -20z" />
    <glyph glyph-name="trademark" unicode="&#x2122;" horiz-adv-x="952" 
d="M123 328v328h87v-328h-87zM10 578v78h313v-78h-313zM371 328v328h130l106 -217l105 217h125v-328h-82v231l-116 -231h-73l-113 231v-231h-82z" />
    <glyph glyph-name="uni2126" unicode="&#x2126;" horiz-adv-x="772" 
d="M39 0v93h204v15q-63 13 -106 49t-64.5 89t-21.5 114q0 43 10.5 86.5t35 84.5t63 73t94.5 50.5t132 18.5q75 0 131 -18.5t95 -50.5t63.5 -73t35.5 -85t11 -87q0 -62 -22 -114.5t-64.5 -88t-105.5 -48.5v-15h204v-93h-306v105q33 6 65.5 22.5t59.5 46t43 72t16 100.5
q0 82 -31.5 134t-82.5 77.5t-113 25.5t-113 -25.5t-81.5 -77.5t-30.5 -133q0 -59 17 -103t44.5 -73t60 -45t63.5 -21v-105h-306z" />
    <glyph glyph-name="estimated" unicode="&#x212e;" horiz-adv-x="838" 
d="M422 -5q-110 0 -195 42t-133 119t-48 182q0 103 48 180.5t133 120.5t195 43q111 0 193.5 -40.5t130 -119.5t52.5 -193h-598q-7 0 -11 -2.5t-4 -15.5v-168q0 -13 17 -33.5t48.5 -40.5t75 -33.5t96.5 -13.5q71 0 134.5 31.5t103.5 77.5h70q-44 -49 -88 -79t-96.5 -43.5
t-123.5 -13.5v0zM200 350v0h442q11 0 13.5 3.5t2.5 12.5v165q0 20 -21.5 42.5t-57 41.5t-77 31t-81.5 12q-51 0 -94 -14t-75 -34.5t-49.5 -40.5t-17.5 -31v-179q0 -9 15 -9z" />
    <glyph glyph-name="uni2153" unicode="&#x2153;" horiz-adv-x="910" 
d="M94 300v271h-57v82q28 0 45.5 10.5t21.5 40.5h82v-404h-92zM118 0l399 660h108l-399 -660h-108zM691 -48q-84 0 -123.5 31.5t-45.5 86.5l85 17q1 -22 11.5 -36t29.5 -21t43 -7q36 0 58.5 15t22.5 44q0 25 -16 42t-51 25.5t-90 5.5v47l129 83v6l-201 -2v75h297v-86
l-133 -79v-9q79 5 118.5 -24.5t39.5 -86.5q0 -58 -43.5 -92.5t-130.5 -34.5z" />
    <glyph glyph-name="uni2154" unicode="&#x2154;" horiz-adv-x="1074" 
d="M40 300v94l162 102q15 10 30 23t25 29t10 34q0 24 -17 39t-49 15q-28 0 -43.5 -11.5t-21 -30t-5.5 -40.5l-90 14q-1 67 41.5 106.5t121.5 39.5q46 0 81.5 -14t55.5 -41.5t20 -68.5q0 -28 -9.5 -50.5t-25.5 -41.5t-36.5 -34.5t-43.5 -29.5l-96 -62v-6l216 14v-80h-326z
M283 0l399 660h108l-399 -660h-108zM856 -48q-84 0 -123.5 31.5t-45.5 86.5l85 17q1 -22 11.5 -36t29.5 -21t43 -7q36 0 58.5 15t22.5 44q0 25 -16 42t-51 25.5t-90 5.5v47l129 83v6l-201 -2v75h297v-86l-133 -79v-9q79 5 118.5 -24.5t39.5 -86.5q0 -58 -43.5 -92.5
t-130.5 -34.5z" />
    <glyph glyph-name="oneeighth" unicode="&#x215b;" horiz-adv-x="915" 
d="M94 300v271h-57v82q28 0 45.5 10.5t21.5 40.5h82v-404h-92zM118 0l399 660h108l-399 -660h-108zM699 -49q-53 0 -93 12.5t-62.5 38t-22.5 63.5q0 43 26.5 67t69.5 29v6l81 15l83 -15v-6q28 -2 49.5 -14t33.5 -33t12 -50q0 -38 -22 -63t-62 -37.5t-93 -12.5zM698 24
q18 0 36.5 6t32 18.5t13.5 31.5t-12.5 32t-31.5 19.5t-38 6.5t-37.5 -7t-30.5 -19.5t-12 -31.5t12.5 -31t31 -18.5t36.5 -6.5zM698 192q17 0 33 6.5t26.5 19t10.5 29.5t-11 28.5t-27 17t-33 5.5q-16 0 -32 -5t-26 -16.5t-10 -28.5t9 -29.5t25 -19.5t35 -7zM698 141l-81 20v8
q-40 6 -60.5 28t-20.5 60q0 30 12 52t33.5 36.5t51 21.5t65.5 7q74 0 118.5 -29.5t44.5 -86.5q0 -38 -20 -60t-60 -29v-9z" />
    <glyph glyph-name="threeeighths" unicode="&#x215c;" horiz-adv-x="1065" 
d="M191 292q-84 0 -123.5 31.5t-45.5 86.5l85 17q1 -22 11.5 -36t29.5 -21t43 -7q36 0 58.5 15t22.5 44q0 25 -16 42t-51 25.5t-90 5.5v47l129 83v6l-201 -2v75h297v-86l-133 -79v-9q79 5 118.5 -24.5t39.5 -86.5q0 -58 -43.5 -92.5t-130.5 -34.5zM268 0l399 660h108
l-399 -660h-108zM849 -49q-53 0 -93 12.5t-62.5 38t-22.5 63.5q0 43 26.5 67t69.5 29v6l81 15l83 -15v-6q28 -2 49.5 -14t33.5 -33t12 -50q0 -38 -22 -63t-62 -37.5t-93 -12.5zM848 24q18 0 36.5 6t32 18.5t13.5 31.5t-12.5 32t-31.5 19.5t-38 6.5t-37.5 -7t-30.5 -19.5
t-12 -31.5t12.5 -31t31 -18.5t36.5 -6.5zM848 192q17 0 33 6.5t26.5 19t10.5 29.5t-11 28.5t-27 17t-33 5.5q-16 0 -32 -5t-26 -16.5t-10 -28.5t9 -29.5t25 -19.5t35 -7zM848 141l-81 20v8q-40 6 -60.5 28t-20.5 60q0 30 12 52t33.5 36.5t51 21.5t65.5 7q74 0 118.5 -29.5
t44.5 -86.5q0 -38 -20 -60t-60 -29v-9z" />
    <glyph glyph-name="fiveeighths" unicode="&#x215d;" horiz-adv-x="1070" 
d="M209 292q-49 0 -85 13.5t-55.5 38t-19.5 58.5l89 16q3 -25 20 -39t49 -14q35 0 53 18.5t18 53.5q0 20 -6.5 37t-20.5 26.5t-37 9.5q-26 0 -42 -11.5t-23 -27.5h-93l15 233h286v-77h-208l-9 -111h10q11 28 39.5 41t64.5 13q40 0 67 -16.5t40.5 -46t13.5 -69.5
q0 -51 -21 -83.5t-58.5 -47.5t-86.5 -15zM273 0l399 660h108l-399 -660h-108zM855 -49q-53 0 -93 12.5t-62.5 38t-22.5 63.5q0 43 26.5 67t69.5 29v6l81 15l83 -15v-6q28 -2 49.5 -14t33.5 -33t12 -50q0 -38 -22 -63t-62 -37.5t-93 -12.5zM854 24q18 0 36.5 6t32 18.5
t13.5 31.5t-12.5 32t-31.5 19.5t-38 6.5t-37.5 -7t-30.5 -19.5t-12 -31.5t12.5 -31t31 -18.5t36.5 -6.5zM854 192q17 0 33 6.5t26.5 19t10.5 29.5t-11 28.5t-27 17t-33 5.5q-16 0 -32 -5t-26 -16.5t-10 -28.5t9 -29.5t25 -19.5t35 -7zM854 141l-81 20v8q-40 6 -60.5 28
t-20.5 60q0 30 12 52t33.5 36.5t51 21.5t65.5 7q74 0 118.5 -29.5t44.5 -86.5q0 -38 -20 -60t-60 -29v-9z" />
    <glyph glyph-name="seveneighths" unicode="&#x215e;" horiz-adv-x="960" 
d="M88 300q0 56 16.5 114t50 112.5t84.5 99.5v5l-212 -5v78h295v-76q-27 -25 -50.5 -61t-41.5 -79t-28.5 -91t-10.5 -97h-103zM163 0l399 660h108l-399 -660h-108zM744 -49q-53 0 -93 12.5t-62.5 38t-22.5 63.5q0 43 26.5 67t69.5 29v6l81 15l83 -15v-6q28 -2 49.5 -14
t33.5 -33t12 -50q0 -38 -22 -63t-62 -37.5t-93 -12.5zM743 24q18 0 36.5 6t32 18.5t13.5 31.5t-12.5 32t-31.5 19.5t-38 6.5t-37.5 -7t-30.5 -19.5t-12 -31.5t12.5 -31t31 -18.5t36.5 -6.5zM743 192q17 0 33 6.5t26.5 19t10.5 29.5t-11 28.5t-27 17t-33 5.5q-16 0 -32 -5
t-26 -16.5t-10 -28.5t9 -29.5t25 -19.5t35 -7zM743 141l-81 20v8q-40 6 -60.5 28t-20.5 60q0 30 12 52t33.5 36.5t51 21.5t65.5 7q74 0 118.5 -29.5t44.5 -86.5q0 -38 -20 -60t-60 -29v-9z" />
    <glyph glyph-name="arrowleft" unicode="&#x2190;" horiz-adv-x="614" 
d="M241 41h-108q-11 65 -39 114.5t-74 78.5v63q32 19 54.5 49t37 66.5t21.5 76.5h112q-8 -32 -23 -65.5t-37.5 -63t-55.5 -51.5v-4l466 10v-99l-466 10v-4q32 -17 54 -47.5t36.5 -66t21.5 -67.5z" />
    <glyph glyph-name="arrowup" unicode="&#x2191;" horiz-adv-x="491" 
d="M470 439q-32 8 -67.5 22t-66 36.5t-47.5 53.5h-4l10 -551h-99l10 551h-4q-22 -33 -52 -55.5t-63 -37t-66 -23.5v111q40 8 77 22.5t67 37t49 54.5h62q20 -30 48.5 -53t65 -37.5t80.5 -23.5v-107z" />
    <glyph glyph-name="arrowright" unicode="&#x2192;" horiz-adv-x="614" 
d="M373 41q8 32 22 67.5t36 66t53 47.5v4l-465 -10v99l465 -10v4q-32 22 -55 51.5t-37 63t-23 65.5h111q8 -40 22.5 -76.5t37 -66.5t54.5 -49v-63q-46 -29 -74 -78.5t-40 -114.5h-107z" />
    <glyph glyph-name="arrowdown" unicode="&#x2193;" horiz-adv-x="494" 
d="M23 221q32 -7 67.5 -21.5t66 -36.5t47.5 -54h4l-10 551h99l-10 -551h4q22 33 51.5 55.5t63 37.5t65.5 23v-111q-40 -8 -76.5 -22.5t-66.5 -37t-49 -54.5h-63q-19 31 -48 53.5t-65 37.5t-80 23v107z" />
    <glyph glyph-name="partialdiff" unicode="&#x2202;" horiz-adv-x="617" 
d="M454 207q-7 35 -21.5 65t-36 53.5t-48 36.5t-58.5 13q-41 0 -70.5 -19t-45 -52t-15.5 -76q0 -41 15 -75.5t45 -54.5t73 -20q41 0 72 19t51.5 52t31 75t10.5 87q-2 33 -12 69.5t-30.5 71t-57 62t-91.5 43t-133 14.5l8 95q96 2 167 -20t119.5 -61.5t77 -89t41.5 -103.5
t13 -104q0 -51 -12 -97t-34.5 -83.5t-55.5 -64.5t-74.5 -42t-92.5 -15q-52 0 -96.5 16t-77 46t-50.5 75t-18 104q0 75 28.5 125t75.5 75t102 25q38 0 75 -13.5t67.5 -44.5t47.5 -84h20z" />
    <glyph glyph-name="emptyset" unicode="&#x2205;" horiz-adv-x="749" 
d="M374 -14q-71 0 -128.5 22.5t-98.5 64t-63 98t-22 123.5q0 72 24.5 129.5t68 98t100.5 61.5t123 21q67 0 124 -22t99 -63t65 -98t23 -127q0 -67 -22.5 -123.5t-64 -98t-99.5 -64t-129 -22.5zM376 79q31 0 66 10t65.5 33t50.5 63.5t20 102.5q0 54 -16.5 95.5t-45 69.5
t-64.5 43t-75 15q-23 0 -50.5 -5.5t-54.5 -20t-49 -39t-36 -61.5t-14 -89q0 -61 18.5 -102t49 -66.5t66 -37t69.5 -11.5zM74 -36l503 655h89l-502 -655h-90z" />
    <glyph glyph-name="uni2206" unicode="&#x2206;" horiz-adv-x="691" 
d="M26 0l240 660h159l240 -660h-118l-195 570h-12l-195 -570h-119zM111 0v90h483v-90h-483z" />
    <glyph glyph-name="product" unicode="&#x220f;" horiz-adv-x="708" 
d="M518 -164v824h109v-824h-109zM82 -164v824h109v-824h-109zM141 568v92h421v-92h-421z" />
    <glyph glyph-name="summation" unicode="&#x2211;" horiz-adv-x="571" 
d="M50 -164v105l190 304l-190 308v105h491v-94h-370v-11l185 -308l-185 -304v-11h370v-94h-491z" />
    <glyph glyph-name="minus" unicode="&#x2212;" horiz-adv-x="516" 
d="M60 259v97h396v-97h-396z" />
    <glyph glyph-name="radical" unicode="&#x221a;" horiz-adv-x="665" 
d="M264 0l-121 374h109l84 -279h11l180 565h112l-221 -660h-154zM23 282v92h221l-1 -92h-220z" />
    <glyph glyph-name="infinity" unicode="&#x221e;" horiz-adv-x="968" 
d="M424 266q-16 33 -38 59.5t-50 41.5t-65 15q-36 0 -63 -15.5t-41 -41.5t-14 -58q0 -33 14.5 -59.5t41.5 -42t63 -15.5q38 0 66 16t49.5 42.5t36.5 57.5zM508 264l-22 -60h-9q-20 -45 -54 -78.5t-76.5 -51.5t-90.5 -18q-60 0 -107 27t-74.5 74.5t-27.5 109.5q0 63 27 110
t74.5 72.5t108.5 25.5q49 0 91.5 -17.5t76 -50.5t52.5 -81h9zM544 266q17 -33 38 -59.5t49 -41.5t64 -15q38 0 65 15.5t41 42.5t14 59t-14 58t-40.5 41.5t-64.5 15.5q-35 0 -63 -14t-50 -40t-39 -62zM460 264l21 62h9q22 48 55.5 81t75.5 50.5t90 17.5q61 0 108.5 -25.5
t74.5 -72.5t27 -110q0 -62 -27.5 -109.5t-75 -74.5t-106.5 -27q-48 0 -90.5 18t-76.5 51.5t-55 78.5h-9z" />
    <glyph glyph-name="integral" unicode="&#x222b;" horiz-adv-x="450" 
d="M123 -178q-20 0 -47.5 7t-61.5 27l21 82q26 -13 49 -18t39.5 7t20.5 49l71 556q8 71 37.5 104.5t79.5 33.5q24 0 50 -8t53 -26l-16 -82q-25 13 -46.5 18.5t-36.5 -6.5t-20 -50l-71 -556q-9 -70 -38 -104t-84 -34z" />
    <glyph glyph-name="approxequal" unicode="&#x2248;" horiz-adv-x="516" 
d="M389 343q-31 0 -65 6t-65.5 13t-58 13t-43.5 6q-16 0 -21 -11t-3 -33h-77q-14 40 -10 70.5t25.5 48t56.5 17.5q30 0 63 -5.5t65 -12.5t59 -12.5t45 -5.5q17 0 22.5 10.5t2.5 33.5h75q13 -37 10 -68.5t-23 -50.5t-58 -19zM389 127q-31 0 -65 6t-65.5 13t-58 13t-43.5 6
q-16 0 -21 -11t-3 -33h-77q-14 40 -10 70.5t25.5 48t56.5 17.5q30 0 63 -5.5t65 -12.5t59 -12.5t45 -5.5q17 0 22.5 10.5t2.5 33.5h75q13 -37 10 -68.5t-23 -50.5t-58 -19z" />
    <glyph glyph-name="notequal" unicode="&#x2260;" horiz-adv-x="516" 
d="M190 62h-83l220 491h83zM60 356v98h396v-98h-396zM60 161v97h396v-97h-396z" />
    <glyph glyph-name="lessequal" unicode="&#x2264;" horiz-adv-x="516" 
d="M456 237l-396 119v139l396 124v-116l-303 -73v-13l303 -68v-112zM456 83h-396v97h396v-97z" />
    <glyph glyph-name="greaterequal" unicode="&#x2265;" horiz-adv-x="516" 
d="M60 237v112l303 68v13l-303 73v116l396 -124v-139zM60 83v97h396v-97h-396z" />
    <glyph glyph-name="uni27E8" unicode="&#x27e8;" horiz-adv-x="311" 
d="M125 276l152 -397h-107l-152 397l147 384h107z" />
    <glyph glyph-name="uni27E9" unicode="&#x27e9;" horiz-adv-x="311" 
d="M186 276l-147 384h107l147 -384l-152 -397h-107z" />
    <glyph glyph-name="i.loclTRK" horiz-adv-x="258" 
d="M75 0v520h108v-520h-108zM129 607q-35 0 -53 14.5t-18 43.5q0 28 18 43t53 15q36 0 54 -15t18 -43q0 -29 -18 -43.5t-54 -14.5z" />
    <glyph glyph-name="zero.osf" horiz-adv-x="639" 
d="M319 -11q-59 0 -107.5 18.5t-83 53t-53 85t-18.5 113.5q0 89 34 150t93.5 92.5t137.5 31.5q80 0 138 -32.5t90 -93.5t32 -147q0 -64 -18.5 -114.5t-53.5 -85t-83 -53t-108 -18.5zM320 78q32 0 59.5 10t49 31t33.5 55.5t12 83.5q0 59 -19.5 101t-54 63.5t-80.5 21.5
q-39 0 -74.5 -17t-58 -57t-22.5 -109q0 -63 20.5 -103.5t56 -60t78.5 -19.5z" />
    <glyph glyph-name="one.osf" horiz-adv-x="318" 
d="M135 0v348h-95v96q30 0 54 6.5t39.5 23t21.5 46.5h89v-520h-109z" />
    <glyph glyph-name="two.osf" horiz-adv-x="538" 
d="M52 0v101l215 139q23 16 47.5 35t41 43t16.5 53q0 34 -25.5 53.5t-73.5 19.5q-28 0 -49.5 -8t-36.5 -23t-22 -37t-7 -51l-103 20q-1 57 24 99t75 65.5t121 23.5q63 0 109 -18t71 -53t25 -86q0 -38 -14.5 -69t-38 -55.5t-51 -44t-52.5 -33.5l-147 -92v-9l312 27v-100h-437
z" />
    <glyph glyph-name="three.osf" horiz-adv-x="592" 
d="M285 -175q-62 0 -108.5 15t-78 42.5t-48.5 65t-18 80.5l100 30q2 -37 15 -64t35 -44.5t49 -26t56 -8.5q41 0 74 14.5t52.5 43.5t19.5 71q0 53 -32 84.5t-92 44t-145 9.5v66l223 178v10l-323 -7v91h443v-105l-217 -170v-8q85 1 141 -23t83.5 -68t27.5 -105q0 -62 -29 -111
t-85.5 -77t-142.5 -28z" />
    <glyph glyph-name="four.osf" horiz-adv-x="627" 
d="M34 0v115q49 51 91.5 102.5t77 102.5t61 101t43.5 99h195v-684h-108v605h-9q-30 -70 -68 -131t-81.5 -112t-89.5 -95v-9h452v-94h-564z" />
    <glyph glyph-name="five.osf" horiz-adv-x="604" 
d="M300 -178q-73 0 -127.5 23.5t-83.5 66.5t-29 99l102 23q4 -54 38 -87.5t98 -33.5q70 0 104.5 41.5t34.5 114.5q0 32 -6 59t-20 47t-37.5 31.5t-57.5 11.5q-27 0 -47.5 -7t-35.5 -18.5t-25.5 -27.5t-18.5 -33h-116l17 388h429v-93h-334l-13 -230h12q21 56 67.5 81
t102.5 25q66 0 109 -28.5t64.5 -80t21.5 -122.5q0 -64 -18 -111t-51 -78t-79 -46t-101 -15z" />
    <glyph glyph-name="six.osf" horiz-adv-x="646" 
d="M346 -15q-138 0 -213 86t-75 252q0 110 32.5 188.5t95.5 121t154 42.5q46 0 85.5 -12t69.5 -35t49.5 -57t25.5 -80l-103 -26q-5 41 -24 66.5t-47 37.5t-61 12q-45 0 -77.5 -21t-53 -58t-30 -84t-9.5 -99q0 -30 4 -64t11 -64h10q-3 59 13 101t45 68.5t65.5 39t74.5 12.5
q53 0 99 -23t74.5 -68.5t28.5 -114.5q0 -43 -13.5 -82.5t-42.5 -71t-75.5 -49.5t-112.5 -18zM339 76q38 0 64.5 10.5t43.5 28.5t25 41t8 49q0 42 -17.5 70t-46 41.5t-61.5 13.5q-41 0 -72.5 -18.5t-49 -51t-17.5 -74.5q0 -33 11 -54t29 -33.5t39.5 -17.5t43.5 -5z" />
    <glyph glyph-name="seven.osf" horiz-adv-x="499" 
d="M139 -164q0 78 13.5 158.5t42 157.5t73 146t105.5 125v8l-341 -4v93h441v-99q-48 -47 -88 -109t-68.5 -136t-43.5 -159.5t-15 -180.5h-119z" />
    <glyph glyph-name="eight.osf" horiz-adv-x="645" 
d="M322 -15q-80 0 -140.5 20t-94 60.5t-33.5 100.5q0 47 20.5 81t56 55t78.5 27v7l113 17l113 -16v-7q43 -5 78.5 -25t56.5 -55t21 -84q0 -60 -33.5 -100.5t-94 -60.5t-141.5 -20zM323 80q25 0 52 4.5t51 15.5t39.5 30.5t15.5 48.5q0 36 -23 61t-59 37.5t-77 12.5
q-40 0 -76 -12.5t-58 -36.5t-22 -61q0 -28 14.5 -47.5t38.5 -31t51.5 -16.5t52.5 -5zM322 377q33 0 63.5 11.5t50 35t19.5 58.5q0 28 -12.5 47t-33 30.5t-44 16.5t-46.5 5q-30 0 -60 -9.5t-50.5 -30.5t-20.5 -57q0 -35 19 -59.5t50 -36t65 -11.5zM322 306l-113 21v14
q-39 8 -69.5 27t-47 50.5t-16.5 74.5q0 61 31.5 101t87 60.5t127.5 20.5q76 0 130.5 -21.5t84 -62t29.5 -98.5q0 -61 -33 -99.5t-98 -52.5v-13z" />
    <glyph glyph-name="nine.osf" horiz-adv-x="643" 
d="M309 -176q-53 0 -95.5 13t-73.5 38t-50 59.5t-25 78.5l102 22q5 -32 19 -54.5t33.5 -36t42.5 -20t47 -6.5q48 0 81 20t52.5 55.5t28.5 80t9 93.5q0 27 -2.5 53t-6 51t-7.5 47h-12q5 -59 -10.5 -101t-44 -68.5t-64 -39t-71.5 -12.5q-54 0 -100 24.5t-74 71.5t-28 117
q0 44 13.5 84t42 71.5t73.5 49.5t108 18q92 0 156.5 -42t98.5 -122.5t34 -198.5q0 -108 -30.5 -185.5t-92 -119t-154.5 -41.5zM294 178q38 0 67.5 18.5t47 52t17.5 78.5q0 47 -18 72t-45 34.5t-57 9.5q-36 0 -61.5 -10.5t-42 -28.5t-24.5 -41.5t-8 -51.5q0 -43 17 -72.5
t45 -45t62 -15.5z" />
    <glyph glyph-name="zero.tf" horiz-adv-x="609" 
d="M304 -14q-58 0 -105 24t-80 68t-51 107.5t-18 140.5q0 111 33 188t91 118t132 41q78 0 134.5 -42t87.5 -119.5t31 -183.5q0 -78 -18 -141.5t-51.5 -108t-80.5 -68.5t-105 -24zM305 77q31 0 57 15t46 45.5t32 78.5t12 112q0 80 -18.5 137t-51.5 87.5t-77 30.5
q-28 0 -54.5 -14t-47.5 -44.5t-33.5 -78.5t-12.5 -116q0 -63 11.5 -110.5t31.5 -79.5t47 -47.5t58 -15.5z" />
    <glyph glyph-name="one.tf" horiz-adv-x="609" 
d="M256 0v488h-146v96q56 0 90 6.5t52 23t24 46.5h90v-660h-110zM42 0v94h524v-94h-524z" />
    <glyph glyph-name="two.tf" horiz-adv-x="609" 
d="M45 0v121l256 175q27 19 51 38.5t43.5 42t31 47.5t11.5 54q0 31 -15.5 54t-46 36t-74.5 13q-34 0 -60.5 -9.5t-45.5 -29.5t-29 -51.5t-9 -76.5l-107 23q-2 73 26.5 126t85 82.5t141.5 29.5q73 0 128 -22.5t85.5 -65t30.5 -102.5q0 -45 -16.5 -83.5t-44 -71t-60 -59
t-64.5 -45.5l-194 -130v-9l395 5v-92h-519z" />
    <glyph glyph-name="three.tf" horiz-adv-x="609" 
d="M292 -14q-64 0 -111 13.5t-78.5 38.5t-48 61t-19.5 79l101 30q2 -38 15.5 -63.5t36 -41t50 -22t55.5 -6.5q46 0 82 12t58 38t22 67q0 53 -33.5 83.5t-96 43t-148.5 7.5v67l236 170v8l-349 -2v92h459v-111l-220 -161v-8q72 1 122 -13t80.5 -40.5t44.5 -61t14 -74.5
q0 -63 -30 -109t-90.5 -71.5t-151.5 -25.5z" />
    <glyph glyph-name="four.tf" horiz-adv-x="609" 
d="M20 139v116q48 51 89.5 102t76 102.5t61 102t44.5 99.5h191v-661h-109v582h-9q-31 -70 -69 -131.5t-80 -114t-87 -97.5v-10h441v-90h-549z" />
    <glyph glyph-name="five.tf" horiz-adv-x="609" 
d="M302 -14q-73 0 -127.5 21.5t-84.5 61.5t-30 96l102 23q4 -54 39.5 -82.5t99.5 -28.5q69 0 107 36t38 111q0 29 -6 55t-20.5 46t-38.5 31.5t-59 11.5q-29 0 -50 -7t-37 -19t-26.5 -27.5t-17.5 -33.5h-118l23 379h432v-93h-339l-16 -220h12q14 37 40.5 60.5t60.5 34.5
t71 11q69 0 113.5 -28.5t66.5 -79.5t22 -119q0 -85 -33.5 -138t-91 -77.5t-132.5 -24.5z" />
    <glyph glyph-name="six.tf" horiz-adv-x="609" 
d="M320 -15q-130 0 -200 86t-70 252q0 110 31 188.5t90 121t144 42.5q43 0 79.5 -12t65 -35.5t46.5 -59t25 -82.5l-102 -26q-4 43 -22 70t-43.5 39t-54.5 12q-40 0 -69.5 -21t-48.5 -58t-27.5 -84.5t-8.5 -98.5q0 -31 3.5 -64.5t9.5 -63.5h10q-3 59 12.5 100t42.5 66.5
t60 37.5t67 12q50 0 93.5 -23t69.5 -68t26 -112q0 -42 -12.5 -81t-39.5 -70.5t-71 -49.5t-106 -18zM314 76q33 0 57 10.5t39.5 28.5t23 40.5t7.5 47.5q0 41 -16 68.5t-42 40.5t-56 13q-55 0 -90 -38t-35 -101q0 -43 17 -67t43 -33.5t52 -9.5z" />
    <glyph glyph-name="seven.tf" horiz-adv-x="609" 
d="M184 0q0 70 16 146t50 150.5t86.5 143t125.5 123.5v9l-420 -4v93h525v-99q-61 -48 -109.5 -109.5t-82.5 -133t-51.5 -152t-17.5 -167.5h-122z" />
    <glyph glyph-name="eight.tf" horiz-adv-x="609" 
d="M304 -15q-74 0 -130.5 20t-88 60.5t-31.5 100.5q0 47 18.5 81t51 55t73.5 27v7l107 17l108 -16v-7q40 -5 72 -25t51.5 -55t19.5 -84q0 -60 -31.5 -100.5t-87.5 -60.5t-132 -20zM305 80q22 0 46.5 4.5t46 15.5t35 30.5t13.5 48.5q0 36 -20 61t-52.5 37.5t-69.5 12.5
q-36 0 -68 -12.5t-52 -36.5t-20 -61q0 -28 13 -47.5t34.5 -31t46 -16.5t47.5 -5zM304 377q30 0 57 11.5t44.5 35t17.5 58.5q0 28 -11.5 47t-29.5 30.5t-39 16.5t-41 5q-27 0 -53.5 -9t-45 -30.5t-18.5 -57.5q0 -35 17 -59.5t44.5 -36t57.5 -11.5zM304 306l-107 21v14
q-37 8 -65 27t-42.5 50.5t-14.5 74.5q0 61 29.5 101t81 60.5t118.5 20.5q70 0 121 -21.5t79 -62t28 -98.5q0 -61 -30 -99.5t-90 -52.5v-13z" />
    <glyph glyph-name="nine.tf" horiz-adv-x="609" 
d="M292 -15q-47 0 -86 11.5t-68.5 34t-48 57.5t-24.5 82l100 27q5 -36 18 -59t31 -35.5t38 -17.5t40 -5q45 0 76 18.5t50 52.5t27.5 79t8.5 97q0 25 -2 49t-5.5 48t-7.5 46h-11q4 -58 -10.5 -99t-42 -67t-60.5 -38t-67 -12q-50 0 -93 24t-69 69.5t-26 109.5q0 42 12.5 81
t39.5 70t69.5 49t102.5 18q88 0 149.5 -41t93.5 -120t32 -194q0 -105 -30 -180.5t-89.5 -115t-147.5 -39.5zM282 335q34 0 61.5 17t43.5 49t16 74q0 43 -16.5 67t-41.5 33.5t-51 9.5q-33 0 -56.5 -10.5t-39 -28.5t-23 -40.5t-7.5 -47.5q0 -39 15.5 -67t41.5 -42t57 -14z" />
    <glyph glyph-name="zero.tosf" horiz-adv-x="594" 
d="M297 -11q-56 0 -101.5 18.5t-77.5 53t-49.5 85t-17.5 113.5q0 89 32 150t87.5 92.5t128.5 31.5q75 0 129.5 -32.5t85 -93.5t30.5 -147q0 -64 -18 -114.5t-51 -85t-78 -53t-100 -18.5zM298 78q28 0 53 10t44.5 31t30.5 55.5t11 83.5q0 59 -17.5 101t-49 63.5t-72.5 21.5
q-35 0 -67 -17t-53 -57t-21 -109q0 -63 19 -103.5t51 -60t71 -19.5z" />
    <glyph glyph-name="one.tosf" horiz-adv-x="594" 
d="M246 0v348h-121v96q41 0 70 6.5t47 23t24 46.5h89v-520h-109zM62 94h470v-94h-470v94z" />
    <glyph glyph-name="two.tosf" horiz-adv-x="594" 
d="M55 0v101l237 138q19 12 39.5 26t37.5 30.5t28 35t11 40.5q0 34 -29.5 53.5t-77.5 19.5q-31 0 -56 -8t-43 -23t-27.5 -38t-8.5 -53l-106 23q-1 57 26 99t82 65.5t135 23.5q64 0 112.5 -18t75.5 -53t27 -86q0 -33 -13 -62.5t-36.5 -54.5t-54 -46.5t-66.5 -38.5l-167 -92
v-9l358 27v-100h-484z" />
    <glyph glyph-name="three.tosf" horiz-adv-x="594" 
d="M288 -175q-61 0 -108 15t-78.5 42.5t-48.5 65t-18 80.5l100 30q2 -37 15 -64t35 -44.5t49 -26t56 -8.5q41 0 73.5 14.5t52.5 43.5t20 71q0 53 -32 84.5t-92 44t-146 9.5v66l224 178v10l-323 -7v91h442v-105l-216 -170v-8q85 1 141 -23t83.5 -68t27.5 -105
q0 -62 -28.5 -111t-86 -77t-142.5 -28z" />
    <glyph glyph-name="four.tosf" horiz-adv-x="594" 
d="M20 0v115q47 52 86 103.5t70.5 102t55.5 100.5t39 99h193v-684h-106v615h-9q-29 -73 -65.5 -136t-77.5 -116t-85 -96v-9h433v-94h-534z" />
    <glyph glyph-name="five.tosf" horiz-adv-x="594" 
d="M297 -178q-72 0 -126 23.5t-82.5 66.5t-28.5 99l102 23q4 -54 37.5 -87.5t96.5 -33.5q68 0 102.5 41.5t34.5 114.5q0 32 -6.5 59t-20 47t-36.5 31.5t-57 11.5q-26 0 -46.5 -7t-35.5 -18.5t-25 -27.5t-18 -33h-115l16 388h425v-93h-330l-12 -230h12q20 56 66 81t101 25
q65 0 108 -28.5t64 -80t21 -122.5q0 -64 -17.5 -111t-50.5 -78t-78.5 -46t-100.5 -15z" />
    <glyph glyph-name="six.tosf" horiz-adv-x="594" 
d="M312 -15q-126 0 -194 86t-68 252q0 110 30 188.5t87.5 121t139.5 42.5q41 0 77 -12t63.5 -35t45.5 -57t23 -80l-100 -26q-4 41 -21.5 66.5t-41.5 37.5t-51 12q-39 0 -67 -21t-45.5 -58t-26 -84t-8.5 -99q0 -28 2.5 -63t9.5 -65h9q-2 59 12.5 101t40.5 68t58.5 38.5
t65.5 12.5q48 0 89 -23t67 -68.5t26 -113.5q0 -43 -12 -82.5t-38.5 -71t-69 -49.5t-103.5 -18zM306 76q31 0 53.5 10.5t37.5 28.5t22 41t7 49q0 42 -14.5 70t-39 41.5t-53.5 13.5q-53 0 -86.5 -40.5t-33.5 -103.5q0 -43 16 -67t41 -33.5t50 -9.5z" />
    <glyph glyph-name="seven.tosf" horiz-adv-x="594" 
d="M177 -164q0 77 15 157t46 157t80 146.5t117 126.5v8l-380 -4v93h484v-99q-55 -47 -100 -109t-76.5 -136t-48.5 -159.5t-17 -180.5h-120z" />
    <glyph glyph-name="eight.tosf" horiz-adv-x="594" 
d="M297 -15q-73 0 -129 20t-87 60.5t-31 100.5q0 47 18.5 81t50.5 55t72 27v7l106 17l106 -16v-7q39 -5 71 -25.5t51 -55.5t19 -83q0 -60 -31 -100.5t-86.5 -60.5t-129.5 -20zM298 80q21 0 45 4.5t45 15.5t34.5 30.5t13.5 48.5q0 36 -20 61t-51.5 37.5t-67.5 12.5
q-35 0 -66.5 -12.5t-51 -36.5t-19.5 -61q0 -28 13 -47.5t33.5 -31t44.5 -16.5t47 -5zM297 377q29 0 55.5 11.5t43.5 35t17 58.5q0 28 -11 47t-29 30.5t-38.5 16.5t-39.5 5q-26 0 -52.5 -9.5t-44 -30.5t-17.5 -57q0 -35 17 -59.5t43 -36t56 -11.5zM297 306l-106 21v14
q-37 8 -64 27.5t-42 50.5t-15 74q0 61 29 101t80 60.5t118 20.5q69 0 119.5 -21.5t78 -62t27.5 -98.5q0 -61 -30 -99.5t-89 -52.5v-13z" />
    <glyph glyph-name="nine.tosf" horiz-adv-x="594" 
d="M289 -176q-49 0 -88 13t-67.5 38t-46 59.5t-21.5 78.5l99 22q7 -43 26 -68.5t45 -37t54 -11.5q42 0 70.5 20t46 55t25 80t7.5 94q0 26 -1.5 52t-4.5 51.5t-7 47.5h-10q4 -59 -10.5 -101t-40.5 -68.5t-57.5 -39t-63.5 -12.5q-49 0 -91 24.5t-67.5 71.5t-25.5 117
q0 44 12 84t38.5 71.5t68 49.5t100.5 18q85 0 144 -42t90.5 -122.5t31.5 -198.5q0 -108 -29 -185.5t-86 -119t-141 -41.5zM277 178q32 0 58 18.5t41.5 52t15.5 78.5q0 47 -16 72t-40 34.5t-49 9.5q-31 0 -53 -10.5t-37 -28.5t-22 -41.5t-7 -51.5q0 -43 15 -72.5t39.5 -45
t54.5 -15.5z" />
    <glyph glyph-name="zero.dnom" horiz-adv-x="444" 
d="M221 -48q-54 0 -94 24.5t-62.5 71t-22.5 113.5q0 70 24 117t64.5 70.5t93.5 23.5q54 0 94 -24.5t62 -71.5t22 -114q0 -68 -23 -115t-64 -71t-94 -24zM223 26q20 0 40 12t32.5 41.5t12.5 80.5q0 66 -23.5 102t-62.5 36q-21 0 -41 -13.5t-32 -43t-12 -78.5t12 -79.5t32 -44
t42 -13.5z" />
    <glyph glyph-name="one.dnom" horiz-adv-x="248" 
d="M94 -40v271h-57v82q28 0 45.5 10.5t21.5 40.5h82v-404h-92z" />
    </font>
</defs>
</svg>
