<?xml version="1.0" standalone="no"?>
<!DOCTYPE svg PUBLIC "-//W3C//DTD SVG 1.1//EN" "http://www.w3.org/Graphics/SVG/1.1/DTD/svg11.dtd" >
<svg xmlns="http://www.w3.org/2000/svg" xmlns:xlink="http://www.w3.org/1999/xlink" version="1.1">
<metadata>
Created by FontForge 20201107 at Wed Jul 19 12:44:15 2023
 By 
Copyright 2022 The Bricolage Grotesque Project Authors (https://github.com/ateliertriay/bricolage)
</metadata>
<defs>
<font id="BricolageGrotesque-ExtraLight" horiz-adv-x="0" >
  <font-face 
    font-family="Bricolage Grotesque ExtraLight"
    font-weight="250"
    font-stretch="normal"
    units-per-em="1000"
    panose-1="2 11 6 5 4 4 2 0 2 4"
    ascent="800"
    descent="-200"
    x-height="511"
    cap-height="660"
    bbox="-166 -319 1266 1124.38"
    underline-thickness="50"
    underline-position="-125"
    unicode-range="U+0020-27E9"
  />
<missing-glyph horiz-adv-x="656" 
d="M94 -55v736h468v-736h-468zM144 -5h368v636h-368v-636zM286 97q-29 0 -29 28t29 28q31 0 31 -28t-31 -28zM268 200q-5 49 6 78.5t30.5 48.5t39.5 33t34 32t14 46q0 37 -25.5 57t-61.5 20q-17 0 -33.5 -5.5t-32 -17t-30.5 -31.5l-7 34q17 28 45 41.5t59 13.5q33 0 61 -13
t45.5 -38.5t17.5 -62.5q0 -34 -14.5 -54t-35 -35t-40.5 -31.5t-31.5 -43.5t-7.5 -72h-33z" />
    <glyph glyph-name=".notdef" horiz-adv-x="656" 
d="M94 -55v736h468v-736h-468zM144 -5h368v636h-368v-636zM286 97q-29 0 -29 28t29 28q31 0 31 -28t-31 -28zM268 200q-5 49 6 78.5t30.5 48.5t39.5 33t34 32t14 46q0 37 -25.5 57t-61.5 20q-17 0 -33.5 -5.5t-32 -17t-30.5 -31.5l-7 34q17 28 45 41.5t59 13.5q33 0 61 -13
t45.5 -38.5t17.5 -62.5q0 -34 -14.5 -54t-35 -35t-40.5 -31.5t-31.5 -43.5t-7.5 -72h-33z" />
    <glyph glyph-name=".null" 
 />
    <glyph glyph-name="nonmarkingreturn" horiz-adv-x="333" 
 />
    <glyph glyph-name="space" unicode=" " horiz-adv-x="269" 
 />
    <glyph glyph-name="exclam" unicode="!" horiz-adv-x="230" 
d="M97 144l-20 517h76l-20 -517h-36zM114 -11q-22 0 -33.5 10t-11.5 32q0 23 11.5 33t33.5 10q23 0 34.5 -10t11.5 -33q0 -42 -46 -42z" />
    <glyph glyph-name="quotedbl" unicode="&#x22;" horiz-adv-x="253" 
d="M46 463l-10 228h58l-11 -228h-37zM169 463l-10 228h58l-11 -228h-37z" />
    <glyph glyph-name="numbersign" unicode="#" horiz-adv-x="591" 
d="M325 0l121 660h56l-122 -660h-55zM30 216v53h509v-53h-509zM92 0l123 660h56l-123 -660h-56zM53 426v53h509v-53h-509z" />
    <glyph glyph-name="dollar" unicode="$" horiz-adv-x="613" 
d="M282 650l-15 132h71l-16 -132h-40zM267 -126l15 132h40l16 -132h-71zM304 -2q-64 0 -112 14.5t-78.5 42t-44 68t-6.5 93.5l52 4q-8 -57 13.5 -94t67 -55.5t109.5 -18.5q62 0 104.5 15t65 43t22.5 66q0 42 -25 65t-65.5 35t-87.5 22q-44 9 -87 20.5t-79 31t-57.5 51
t-21.5 80.5q0 56 28.5 96.5t78 62.5t113.5 22t117 -21t85.5 -64.5t33.5 -109.5l-56 -10q0 38 -13 67t-37.5 48t-57.5 28.5t-73 9.5q-47 0 -84 -15.5t-58.5 -43.5t-21.5 -67q0 -45 30 -70.5t77.5 -39t100.5 -24.5q42 -9 80.5 -20.5t69 -30.5t48 -49.5t17.5 -76.5
q0 -52 -27.5 -91.5t-82.5 -61.5t-138 -22z" />
    <glyph glyph-name="percent" unicode="%" horiz-adv-x="901" 
d="M210 299q-47 0 -87 21.5t-63.5 63.5t-23.5 101q0 45 13.5 79.5t37.5 57.5t55.5 35t66.5 12q47 0 86.5 -21.5t63 -63t23.5 -102.5q0 -62 -24.5 -102.5t-63.5 -60.5t-84 -20zM213 352q27 0 53.5 13.5t43.5 42t17 73.5q0 51 -19.5 80.5t-47.5 42t-54 12.5q-28 0 -54.5 -13.5
t-43.5 -42t-17 -73.5q0 -47 18.5 -77t47 -44t56.5 -14zM694 -12q-48 0 -88 21.5t-63.5 63.5t-23.5 101q0 45 13.5 79.5t37.5 57.5t55.5 35t66.5 12q48 0 87.5 -21.5t63 -63t23.5 -102.5q0 -62 -24.5 -102.5t-63.5 -60.5t-84 -20zM696 41q28 0 54.5 13.5t43.5 41.5t17 74
q0 51 -19.5 80.5t-47.5 42t-55 12.5q-28 0 -54.5 -13.5t-43.5 -42t-17 -73.5q0 -47 19 -77t47 -44t56 -14zM208 0l408 660h62l-409 -660h-61z" />
    <glyph glyph-name="ampersand" unicode="&#x26;" horiz-adv-x="758" 
d="M565 -12q-50 0 -95.5 25t-85 67.5t-71 96t-54.5 110t-35.5 110.5t-12.5 96q0 49 17 89.5t51.5 65.5t88.5 25q47 0 81 -19t52 -51.5t18 -73.5q0 -34 -16.5 -68t-53.5 -63t-102 -47l-8 21q69 39 96.5 73.5t27.5 76.5q0 44 -26 71t-70 27q-36 0 -58 -16.5t-32 -45.5t-10 -65
q0 -39 11 -87.5t31 -99t47 -98.5t60 -85.5t70.5 -59.5t76.5 -22q38 0 59 20.5t21 50.5q0 33 -23 62.5t-66 52.5t-105 34v74h234v-56l-187 21v-20q99 -20 150.5 -66t51.5 -106q0 -28 -10.5 -50.5t-29 -38t-42.5 -23.5t-51 -8zM220 -11q-53 0 -91 22t-58.5 58.5t-20.5 80.5
q0 35 13 65.5t39 55t66 42.5t95 27l7 -36q-78 -22 -121 -61t-43 -92q0 -25 11.5 -50t37 -41.5t69.5 -16.5q46 0 79.5 20.5t64.5 52.5l35 -34h-28q-15 -27 -36.5 -48t-50.5 -33t-68 -12z" />
    <glyph glyph-name="quotesingle" unicode="'" horiz-adv-x="130" 
d="M46 463l-10 228h58l-11 -228h-37z" />
    <glyph glyph-name="parenleft" unicode="(" horiz-adv-x="281" 
d="M243 674q-30 -52 -50.5 -104.5t-33 -103.5t-18.5 -101t-6 -98q0 -76 13 -144t37.5 -129.5t58.5 -118.5h-67q-38 67 -60.5 132.5t-32 132t-9.5 133.5t9.5 134.5t31.5 134.5t60 132h67z" />
    <glyph glyph-name="parenright" unicode=")" horiz-adv-x="251" 
d="M7 674h67q38 -65 60 -132t31.5 -134.5t9.5 -134.5t-9.5 -133.5t-32 -132t-60.5 -132.5h-67q35 57 59 118.5t37 129.5t13 144q0 48 -6 98t-18.5 101t-33 103.5t-50.5 104.5z" />
    <glyph glyph-name="asterisk" unicode="*" horiz-adv-x="334" 
d="M102 413l-52 36l91 87l-1 5l-124 29l19 59l115 -61l3 3l-16 120h60l-16 -120l4 -3l114 62l19 -60l-124 -29l-1 -4l97 -86l-50 -37l-69 106h-5z" />
    <glyph glyph-name="plus" unicode="+" horiz-adv-x="498" 
d="M222 106v375h55v-375h-55zM63 267v52h372v-52h-372z" />
    <glyph glyph-name="comma" unicode="," horiz-adv-x="118" 
d="M0 -140q18 46 25.5 81.5t9 63t1.5 48.5h57q0 -41 -6 -76t-15.5 -64.5t-19.5 -52.5h-52z" />
    <glyph glyph-name="hyphen" unicode="-" horiz-adv-x="318" 
d="M35 240v52h249v-52h-249z" />
    <glyph glyph-name="period" unicode="." horiz-adv-x="140" 
d="M70 -11q-22 0 -33.5 10t-11.5 32q0 23 11.5 33t33.5 10q23 0 34.5 -10t11.5 -33q0 -42 -46 -42z" />
    <glyph glyph-name="slash" unicode="/" horiz-adv-x="341" 
d="M11 -81l263 773h57l-263 -773h-57z" />
    <glyph glyph-name="zero" unicode="0" horiz-adv-x="642" 
d="M322 -14q-57 0 -103.5 25t-79.5 70.5t-50.5 107.5t-17.5 137q0 106 31.5 184t88 120.5t131.5 42.5q79 0 134.5 -45.5t84.5 -124t29 -178.5q0 -72 -16 -133.5t-48.5 -108t-78.5 -72t-105 -25.5zM320 41q44 0 79.5 19.5t61 57t39.5 92t14 124.5q0 87 -23.5 151t-66.5 99
t-102 35q-54 0 -98.5 -32t-71 -96t-26.5 -161q0 -68 14 -121.5t39.5 -91t61 -57t79.5 -19.5z" />
    <glyph glyph-name="one" unicode="1" horiz-adv-x="279" 
d="M128 0v541h-93v52q42 0 73 12.5t40 54.5h37v-660h-57z" />
    <glyph glyph-name="two" unicode="2" horiz-adv-x="553" 
d="M53 0v81l221 186q25 21 50.5 45.5t48 53t37 60.5t14.5 68q0 37 -17 65t-50.5 44t-83.5 16q-28 0 -56.5 -7t-51 -27t-35 -57t-11.5 -97l-55 7q-2 70 19.5 123t68.5 82.5t122 29.5q64 0 110 -22t71 -61t25 -91q0 -46 -15.5 -85t-39.5 -72t-52 -60t-54 -48l-210 -175v-8
l392 3v-54h-448z" />
    <glyph glyph-name="three" unicode="3" horiz-adv-x="579" 
d="M267 -14q-58 0 -100 14t-70 39.5t-42 61t-15 77.5l55 15q1 -49 18 -79t43.5 -46t55.5 -22t54 -6q52 0 95.5 13.5t70 44.5t26.5 82q0 65 -36 100t-97.5 49.5t-139.5 15.5v45l239 211v7l-362 -1v53h418v-74l-219 -193v-6q89 -3 145 -29t82.5 -70t26.5 -103t-28 -104
t-83 -70t-137 -25z" />
    <glyph glyph-name="four" unicode="4" horiz-adv-x="552" 
d="M30 154v80q45 41 90 92t85.5 107.5t74 114.5t55.5 113h100v-661h-56v608h-8q-37 -83 -83.5 -154t-97.5 -130t-103 -108v-9h426v-53h-483z" />
    <glyph glyph-name="five" unicode="5" horiz-adv-x="584" 
d="M282 -14q-67 0 -115 21.5t-73.5 61t-27.5 92.5l51 17q5 -64 42 -100.5t120 -36.5q86 0 133 43.5t47 139.5q0 32 -6.5 62.5t-22.5 55t-44 39.5t-71 15q-40 0 -68.5 -10t-46.5 -26.5t-28 -36t-14 -37.5h-75l19 374h383v-53h-331l-17 -268h13q20 64 68 88.5t101 24.5
q69 0 112.5 -29t64.5 -80t21 -118q0 -87 -31.5 -139.5t-84.5 -76t-119 -23.5z" />
    <glyph glyph-name="six" unicode="6" horiz-adv-x="630" 
d="M337 -14q-122 0 -194 83.5t-72 252.5q0 102 28 181t85 124.5t145 45.5q44 0 81 -12.5t64.5 -37t45 -60.5t21.5 -83l-55 -13q-5 51 -25.5 84.5t-53.5 50.5t-77 17q-56 0 -95.5 -25.5t-63.5 -69.5t-35 -99t-11 -115q0 -40 6 -82.5t18 -79.5h9q-6 66 8.5 114t43 78.5
t67 45.5t81.5 15q54 0 100 -23t74.5 -68t28.5 -113q0 -44 -14 -82.5t-42 -67.5t-70 -45t-98 -16zM330 39q51 0 84.5 14.5t53 38t27.5 51.5t8 56q0 54 -22.5 87t-56.5 48t-71 15q-51 0 -87.5 -22t-56.5 -61.5t-20 -92.5q0 -42 12.5 -68t33.5 -40.5t45.5 -20t49.5 -5.5z" />
    <glyph glyph-name="seven" unicode="7" horiz-adv-x="469" 
d="M153 0q0 75 12.5 157.5t39.5 164t69.5 153.5t101.5 126v8l-344 -3v54h402v-67q-57 -56 -99 -121t-69.5 -138.5t-41.5 -157t-14 -176.5h-57z" />
    <glyph glyph-name="eight" unicode="8" horiz-adv-x="630" 
d="M315 -14q-74 0 -130.5 20t-88 59.5t-31.5 96.5q0 49 22 83t58 55t79 29v5l91 8l89 -6v-6q41 -4 77.5 -24.5t60 -56t23.5 -87.5q0 -57 -31.5 -96.5t-88 -59.5t-130.5 -20zM316 43q28 0 61 5t63 17.5t49 35.5t19 58q0 45 -29.5 78.5t-73.5 52t-90 18.5q-45 0 -89.5 -18
t-73.5 -50.5t-29 -78.5q0 -34 18.5 -57t48 -36.5t63 -19t63.5 -5.5zM314 364q39 0 78 16.5t65.5 47t26.5 73.5q0 32 -16.5 54t-42.5 36t-56.5 20t-59.5 6q-37 0 -76 -11t-65 -35.5t-26 -66.5q0 -43 25.5 -74.5t65.5 -48.5t81 -17zM315 319l-91 7v17q-36 8 -67.5 27t-51.5 51
t-20 79q0 56 29.5 94.5t81 58.5t118.5 20q72 0 122.5 -21.5t77 -60.5t26.5 -92q0 -64 -37 -103t-99 -53v-15z" />
    <glyph glyph-name="nine" unicode="9" horiz-adv-x="623" 
d="M299 -14q-47 0 -85 11t-66.5 33.5t-47 54.5t-26.5 74l54 15q8 -40 25.5 -65.5t41 -40t50.5 -21t55 -6.5q57 0 95.5 22t61.5 61t32.5 89t9.5 105q0 38 -3.5 71.5t-9 64t-12.5 58.5h-13q9 -63 -3.5 -110.5t-40.5 -79t-66.5 -47.5t-81.5 -16q-54 0 -99.5 24.5t-73 70.5
t-27.5 110q0 44 14 82t41.5 66.5t68 44.5t93.5 16q82 0 141.5 -40.5t92 -120t32.5 -198.5q0 -96 -24.5 -170t-80 -116t-148.5 -42zM276 310q47 0 82.5 22t55 62t19.5 93q0 55 -20.5 84t-52 39.5t-66.5 10.5q-49 0 -82 -14.5t-51.5 -38t-26.5 -51t-8 -54.5q0 -52 21.5 -86
t56 -50.5t72.5 -16.5z" />
    <glyph glyph-name="colon" unicode=":" horiz-adv-x="152" 
d="M76 43q-22 0 -33.5 10t-11.5 32q0 23 11.5 33t33.5 10q23 0 34.5 -10t11.5 -33q0 -42 -46 -42zM76 353q-22 0 -33.5 10t-11.5 32q0 23 11.5 33t33.5 10q23 0 34.5 -10t11.5 -33q0 -42 -46 -42z" />
    <glyph glyph-name="semicolon" unicode=";" horiz-adv-x="138" 
d="M0 -140q18 46 25.5 81.5t9 63t1.5 48.5h57q0 -41 -6 -76t-15.5 -64.5t-19.5 -52.5h-52zM67 353q-22 0 -33.5 10t-11.5 32q0 23 11.5 33t33.5 10q23 0 34.5 -10t11.5 -33q0 -42 -46 -42z" />
    <glyph glyph-name="less" unicode="&#x3c;" horiz-adv-x="498" 
d="M435 94l-372 186v72l372 186v-63l-320 -154v-11l320 -154v-62z" />
    <glyph glyph-name="equal" unicode="=" horiz-adv-x="498" 
d="M63 346v53h372v-53h-372zM63 182v52h372v-52h-372z" />
    <glyph glyph-name="greater" unicode="&#x3e;" horiz-adv-x="498" 
d="M63 94v62l320 154v11l-320 154v63l372 -186v-72z" />
    <glyph glyph-name="question" unicode="?" horiz-adv-x="400" 
d="M124 144q-6 62 5 103t32 68.5t46.5 47.5t49 39t38.5 42.5t15 58.5q0 56 -38 85.5t-89 29.5q-25 0 -51 -8t-50.5 -25.5t-46.5 -46.5l-12 53q19 26 43.5 44t54 27.5t63.5 9.5q36 0 69.5 -11t59 -32.5t40.5 -53.5t15 -73q0 -43 -15.5 -71t-39.5 -48t-50.5 -39t-48.5 -43.5
t-33.5 -62t-6.5 -94.5h-50zM152 -11q-22 0 -33.5 10t-11.5 32q0 23 11.5 33t33.5 10q23 0 34.5 -10t11.5 -33q0 -42 -46 -42z" />
    <glyph glyph-name="at" unicode="@" horiz-adv-x="900" 
d="M450 -84q-87 0 -156 23t-117 68t-73.5 111.5t-25.5 154.5t25 155t73.5 112.5t117.5 68.5t156 23t156 -23t117 -68.5t73.5 -112.5t25.5 -155t-25.5 -154.5t-74 -111.5t-117 -68t-155.5 -23zM450 -34q101 0 171.5 34t108 102t37.5 171t-37 171.5t-108 103t-172 34.5
t-172 -34.5t-108 -103t-37 -171.5t37 -171t108 -102t172 -34zM404 125q18 0 37.5 5.5t37.5 18.5t35.5 34t31.5 51l1 81l24 -4q-15 -15 -44 -21.5t-62.5 -11t-64 -12.5t-50.5 -25t-20 -50q0 -32 21 -49t53 -17zM392 76q-33 0 -59.5 12t-42.5 37t-16 61q0 39 16 63t43 37.5
t60 20t65 10.5q33 4 52.5 9t27.5 14.5t8 25.5q0 18 -10.5 34t-30 26t-50.5 10q-24 0 -49.5 -8t-44 -27.5t-22.5 -54.5l-55 19q5 26 18 48.5t34.5 38.5t51 25t66.5 9q54 0 84 -16.5t43.5 -40.5t17 -48.5t3.5 -42.5v-93q1 -20 1.5 -40t1.5 -41t3 -40.5t3 -37.5h-53
q-2 29 -3 53.5t-2 46.5h-10q-13 -32 -33.5 -57t-50 -39t-67.5 -14z" />
    <glyph glyph-name="A" unicode="A" horiz-adv-x="630" 
d="M37 0l236 660h83l236 -660h-60l-212 608h-10l-212 -608h-61zM136 160v51h363v-51h-363z" />
    <glyph glyph-name="B" unicode="B" horiz-adv-x="639" 
d="M94 0v660h221q52 0 95 -9.5t74 -30t48 -53t17 -78.5q0 -38 -14.5 -66.5t-45.5 -47t-81 -29.5v-9q89 -9 128 -51.5t39 -110.5q0 -55 -24 -94t-76 -60t-137 -21h-244zM150 53h205q82 0 122.5 29.5t40.5 89.5q0 71 -58.5 106.5t-175.5 35.5h-134v-261zM150 366h117
q113 0 168.5 30t55.5 91q0 60 -47 90t-142 30h-152v-241z" />
    <glyph glyph-name="C" unicode="C" horiz-adv-x="656" 
d="M358 -12q-68 0 -121.5 22.5t-90.5 65.5t-56 105t-19 140q0 79 19.5 143.5t56.5 111t89.5 71.5t118.5 25q50 0 92.5 -14.5t73.5 -42t48.5 -66.5t17.5 -87l-55 -13q1 57 -23 94t-65 55.5t-89 18.5q-46 0 -87.5 -18t-72.5 -54t-49 -92t-18 -133q0 -97 28.5 -157.5t81 -88.5
t123.5 -28q66 0 107.5 22.5t63 66t23.5 106.5l54 -11q-1 -49 -16 -93t-45.5 -77.5t-77.5 -52.5t-112 -19z" />
    <glyph glyph-name="D" unicode="D" horiz-adv-x="676" 
d="M130 0v53h198q75 0 123.5 36.5t72 98.5t23.5 140q0 72 -15 124t-46 86.5t-78 51.5t-111 17h-167v53h167q106 0 174 -39t101 -112t33 -175q0 -61 -12.5 -113.5t-36 -93t-57.5 -69t-76.5 -43.5t-93.5 -15h-199zM94 0v660h57v-660h-57z" />
    <glyph glyph-name="E" unicode="E" horiz-adv-x="566" 
d="M94 0v660h57v-660h-57zM106 0v53h421v-53h-421zM106 313v53h375v-53h-375zM106 607v53h421v-53h-421z" />
    <glyph glyph-name="F" unicode="F" horiz-adv-x="555" 
d="M94 0v660h57v-660h-57zM109 307v53h375v-53h-375zM109 607v53h422v-53h-422z" />
    <glyph glyph-name="G" unicode="G" horiz-adv-x="682" 
d="M347 -12q-81 0 -143.5 37.5t-97.5 113t-35 190.5q0 80 18.5 143t55 108t89.5 68.5t123 23.5q51 0 92.5 -13.5t73 -40t51.5 -65t27 -88.5l-56 -14q-5 63 -33.5 99.5t-69 51.5t-85.5 15q-65 0 -116.5 -28.5t-81 -92t-29.5 -167.5q0 -82 18.5 -137t49 -87t70 -45.5
t79.5 -13.5q58 0 100 23t68.5 70.5t34.5 119.5h-168v53h225v-85v-227h-58l29 187h-12q-12 -68 -39.5 -112t-72 -65.5t-107.5 -21.5z" />
    <glyph glyph-name="H" unicode="H" horiz-adv-x="687" 
d="M536 0v660h57v-660h-57zM94 0v660h57v-660h-57zM114 313v53h445v-53h-445z" />
    <glyph glyph-name="I" unicode="I" horiz-adv-x="246" 
d="M94 0v660h58v-660h-58z" />
    <glyph glyph-name="J" unicode="J" horiz-adv-x="333" 
d="M24 -10l-18 56q11 -1 19 -1h15q62 0 93 20.5t41.5 60.5t10.5 97v437h56v-437q0 -66 -15 -119t-57.5 -83.5t-124.5 -30.5h-9h-11z" />
    <glyph glyph-name="K" unicode="K" horiz-adv-x="635" 
d="M94 0v660h57v-329q60 19 117 51t107.5 75t88.5 94.5t59 108.5h60q-24 -64 -59 -116.5t-78 -93.5t-88.5 -71t-89.5 -48v-12q51 -1 93 -15t76 -41.5t62.5 -69.5t52.5 -100l35 -93h-64l-22 66q-28 72 -63.5 120.5t-89 73.5t-137.5 25h-60v-285h-57z" />
    <glyph glyph-name="L" unicode="L" horiz-adv-x="506" 
d="M94 0v660h57v-660h-57zM124 0v53h356v-53h-356z" />
    <glyph glyph-name="M" unicode="M" horiz-adv-x="862" 
d="M94 0v660h93l243 -608h5l243 608h90v-660h-55l5 603h-6l-245 -603h-70l-244 604h-6l4 -604h-57z" />
    <glyph glyph-name="N" unicode="N" horiz-adv-x="703" 
d="M94 0v660h79l380 -586h6l-5 586h55v-660h-72l-385 593h-7l5 -593h-56z" />
    <glyph glyph-name="O" unicode="O" horiz-adv-x="707" 
d="M354 -12q-72 0 -125 25t-88.5 70.5t-52.5 107.5t-17 137q0 113 36 189.5t99.5 115.5t145.5 39q65 0 117 -23.5t89 -69t57 -110t20 -145.5q0 -73 -17 -134.5t-52 -106.5t-87.5 -70t-124.5 -25zM352 43q72 0 122.5 33.5t76.5 96.5t26 153q0 91 -27 156t-77.5 100t-120.5 35
q-68 0 -118.5 -34t-77.5 -99t-27 -159q0 -68 15 -120.5t43.5 -88.5t70 -54.5t94.5 -18.5z" />
    <glyph glyph-name="P" unicode="P" horiz-adv-x="605" 
d="M108 212v55h171q110 0 165.5 41t55.5 132q0 84 -52 125.5t-157 41.5h-183v53h184q64 0 114.5 -15t84.5 -43.5t51.5 -70t17.5 -94.5q0 -73 -33 -123t-97 -76t-156 -26h-166zM94 0v660h57v-660h-57z" />
    <glyph glyph-name="Q" unicode="Q" horiz-adv-x="712" 
d="M628 -127q-57 -9 -99 -11t-76.5 0t-69 6.5t-75.5 9.5t-96 8t-132 2v56q40 0 74 1t64 4t59 10t59 18.5t64 29.5v14q-57 -18 -107.5 -12.5t-91 30.5t-69.5 67.5t-45 100t-16 126.5q0 75 19 137t55.5 107.5t89 70t119.5 24.5q85 0 149.5 -40.5t100.5 -117.5t36 -188
q0 -75 -18.5 -134.5t-58.5 -106t-105 -82.5t-158 -65v-10q44 -4 81 -7.5t73 -4.5t77.5 2.5t96.5 12.5v-58zM356 46q74 0 124 34t75.5 97.5t25.5 151.5q0 93 -27.5 156.5t-78 96.5t-121.5 33q-72 0 -122 -34t-76 -98t-26 -154q0 -93 27.5 -156t78 -95t120.5 -32z" />
    <glyph glyph-name="R" unicode="R" horiz-adv-x="631" 
d="M94 0v660h204q48 0 88 -8t71.5 -23.5t53 -38.5t33 -53.5t11.5 -67.5q0 -35 -10.5 -64.5t-30.5 -51.5t-49.5 -36t-68.5 -19v-11q26 -4 50 -16t44.5 -39t34.5 -76l45 -156h-59l-37 142q-10 41 -34 67.5t-60 40.5t-83 14h-146v-264h-57zM151 317h142q103 0 154 36t51 109
q0 74 -50 109.5t-155 35.5h-142v-290z" />
    <glyph glyph-name="S" unicode="S" horiz-adv-x="623" 
d="M309 -12q-65 0 -114 14.5t-80 43.5t-44.5 70.5t-7.5 95.5l53 4q-7 -58 14.5 -96.5t68 -57.5t111.5 -19q63 0 107 15.5t66.5 44.5t22.5 68q0 43 -25.5 67t-66.5 36.5t-89 22.5q-45 9 -89.5 21t-80.5 32t-58 52.5t-22 83.5q0 58 29 99.5t79.5 64t115.5 22.5t119 -21.5
t87.5 -66t34.5 -113.5l-57 -10q0 39 -13.5 69t-38.5 49.5t-58.5 29.5t-74.5 10q-48 0 -85.5 -16t-59.5 -45t-22 -69q0 -47 30.5 -73t79 -40t102.5 -26q43 -9 82 -21t70 -31.5t49 -50.5t18 -79q0 -54 -28 -94.5t-84 -63t-141 -22.5z" />
    <glyph glyph-name="T" unicode="T" horiz-adv-x="526" 
d="M235 0v660h57v-660h-57zM30 607v53h467v-53h-467z" />
    <glyph glyph-name="U" unicode="U" horiz-adv-x="704" 
d="M352 -12q-50 0 -91.5 11t-73.5 32.5t-53.5 52.5t-33 71.5t-11.5 89.5v415h57v-412q0 -67 24 -112.5t70 -69t112 -23.5q68 0 113.5 23t69 69t23.5 113v412h57v-415q0 -123 -68.5 -190t-194.5 -67z" />
    <glyph glyph-name="V" unicode="V" horiz-adv-x="632" 
d="M273 0l-236 660h62l212 -605h8l214 605h61l-238 -660h-83z" />
    <glyph glyph-name="W" unicode="W" horiz-adv-x="913" 
d="M217 0l-176 660h60l155 -603h8l150 603h84l146 -603h8l159 603h61l-181 -660h-86l-145 603h-7l-150 -603h-86z" />
    <glyph glyph-name="X" unicode="X" horiz-adv-x="586" 
d="M45 0l213 329l-219 331h68l181 -289h5l181 289h68l-217 -331l221 -329h-68l-186 289h-4l-176 -289h-67z" />
    <glyph glyph-name="Y" unicode="Y" horiz-adv-x="538" 
d="M241 0v218l-223 442h63l187 -380h4l185 380h64l-223 -442v-218h-57z" />
    <glyph glyph-name="Z" unicode="Z" horiz-adv-x="543" 
d="M36 0v58l392 536v13h-376v53h446v-60l-393 -535v-12h403v-53h-472z" />
    <glyph glyph-name="bracketleft" unicode="[" horiz-adv-x="301" 
d="M94 -122v779h58v-779h-58zM94 -122v52h181v-52h-181zM94 619v53h181v-53h-181z" />
    <glyph glyph-name="backslash" unicode="\" horiz-adv-x="318" 
d="M307 -81h-57l-263 773h57z" />
    <glyph glyph-name="bracketright" unicode="]" horiz-adv-x="271" 
d="M183 -122h-58v779h58v-779zM183 -122h-181v52h181v-52zM183 619h-181v53h181v-53z" />
    <glyph glyph-name="asciicircum" unicode="^" horiz-adv-x="508" 
d="M25 318l192 338h74l192 -338h-64l-159 286h-13l-160 -286h-62z" />
    <glyph glyph-name="underscore" unicode="_" horiz-adv-x="613" 
d="M0 -78v53h613v-53h-613z" />
    <glyph glyph-name="grave" unicode="`" horiz-adv-x="283" 
d="M106 597l-86 146h71l70 -146h-55z" />
    <glyph glyph-name="a" unicode="a" horiz-adv-x="539" 
d="M204 -12q-42 0 -76 15.5t-54 48t-20 82.5q0 33 11.5 60.5t37.5 48.5t70.5 35.5t110.5 22.5q42 5 67 10.5t36.5 17.5t11.5 38q0 43 -30 73.5t-94 30.5q-30 0 -63.5 -10t-58.5 -36t-31 -75l-54 21q5 33 21 60.5t42.5 48.5t63.5 32.5t82 11.5q59 0 98.5 -20t60 -61.5
t20.5 -106.5v-131q0 -29 1.5 -66t4 -73.5t5.5 -65.5h-55q-3 36 -4 68l-2 64h-10q-15 -37 -39.5 -70t-62 -53.5t-90.5 -20.5zM208 41q24 0 48.5 7.5t50 25.5t49 47.5t44.5 72.5v110l29 -5q-14 -18 -42.5 -27t-64.5 -14t-73 -11.5t-68.5 -18.5t-50.5 -34.5t-19 -61.5
q0 -46 27 -68.5t70 -22.5z" />
    <glyph glyph-name="b" unicode="b" horiz-adv-x="588" 
d="M322 -12q-50 0 -84 20.5t-54.5 53.5t-33.5 69h-14l8 -131h-57v252v439h57v-157q0 -26 -2 -56t-5.5 -60t-7.5 -56h15q10 36 29.5 73.5t55.5 63t93 25.5q65 0 110.5 -35t69.5 -95.5t24 -137.5q0 -76 -23 -136t-68 -96t-113 -36zM320 42q47 0 80 25.5t50.5 73t17.5 111.5
q0 60 -17 109t-50.5 78.5t-83.5 29.5q-36 0 -64.5 -15t-49 -39.5t-34 -53t-20 -56.5t-6.5 -49v-8q0 -34 13 -70.5t36.5 -67t56 -49.5t71.5 -19z" />
    <glyph glyph-name="c" unicode="c" horiz-adv-x="538" 
d="M295 -12q-67 0 -112 23t-71.5 61.5t-38.5 85t-12 93.5q0 54 14 103t42 87.5t71 60.5t101 22q56 0 99.5 -20t71 -56.5t33.5 -87.5l-56 -12q-2 25 -17 53.5t-46.5 48.5t-82.5 20q-44 0 -76.5 -17.5t-53.5 -47.5t-32 -69.5t-11 -85.5q0 -59 18.5 -106t57.5 -74.5t102 -27.5
q43 0 75.5 14t53 42t26.5 71l55 -13q-8 -46 -28.5 -78.5t-48.5 -52t-62 -28.5t-72 -9z" />
    <glyph glyph-name="d" unicode="d" horiz-adv-x="586" 
d="M265 -12q-67 0 -112.5 35.5t-68.5 96t-23 135.5q0 77 24 138t69.5 96t109.5 35q58 0 94 -25.5t56 -63t29 -73.5h14q-3 26 -6.5 58.5t-6 65t-2.5 58.5v147h57l-1 -437l1 -254h-57l9 131h-14q-12 -37 -33 -69.5t-55 -53t-84 -20.5zM266 42q40 0 72.5 19t56 49.5t35.5 67
t12 70.5v8q0 21 -5.5 49t-18.5 56.5t-33.5 53t-48.5 39.5t-65 15q-50 0 -84 -29.5t-51.5 -78.5t-17.5 -110q0 -63 17.5 -110t50.5 -73t80 -26z" />
    <glyph glyph-name="e" unicode="e" horiz-adv-x="553" 
d="M296 -12q-59 0 -103 19t-73.5 54t-44.5 82.5t-15 104.5q0 60 15 110t44 87.5t71.5 58t98.5 20.5q45 0 83.5 -15.5t67 -48.5t43.5 -84.5t13 -122.5l-403 -4v51l366 3l-19 -43q4 69 -14.5 115.5t-53.5 70.5t-84 24q-53 0 -91.5 -26.5t-59.5 -76t-21 -119.5
q0 -97 44.5 -151.5t137.5 -54.5q34 0 60 7.5t45 22t32 34.5t20 45l50 -13q-11 -36 -29.5 -64t-45 -47t-60 -29t-74.5 -10z" />
    <glyph glyph-name="f" unicode="f" horiz-adv-x="351" 
d="M129 0v384h-97v51l122 -9v16q-19 11 -32 28t-20 39t-7 48q0 40 16.5 71t47 49.5t74.5 18.5q32 0 58 -10.5t44 -26.5l-12 -55q-16 17 -40.5 28t-51.5 11q-37 0 -59 -24.5t-22 -73.5q0 -24 5 -45.5t14 -38t19 -26.5h133l-1 -51h-135v-384h-56z" />
    <glyph glyph-name="g" unicode="g" horiz-adv-x="570" 
d="M271 -170q-80 0 -130.5 12t-74.5 37t-24 63q0 46 35.5 76t110.5 43v18q-54 -1 -79 13t-25 38q0 27 26 43.5t83 33.5v18q-60 -1 -90.5 34.5t-30.5 91.5q0 53 27.5 89t78 54.5t118.5 18.5h229v-55l-156 26v-17q54 -13 86.5 -45.5t32.5 -85.5q0 -44 -24 -76.5t-72 -50
t-120 -17.5q-15 0 -30 1.5t-34 5.5q-33 -18 -53 -34t-20 -29q0 -14 20.5 -21.5t48.5 -10t51 -2.5h96q20 0 49.5 -4.5t59 -17.5t49.5 -39t20 -70q0 -52 -31.5 -83t-89 -44.5t-137.5 -13.5zM263 -121q71 0 117.5 9.5t69.5 30.5t23 52q0 30 -16.5 46.5t-41 23.5t-49 8.5
t-41.5 1.5h-110q-69 -19 -93 -44.5t-24 -52.5q0 -33 24 -48.5t62 -21t79 -5.5zM284 240q73 0 110.5 27.5t37.5 76.5q0 52 -38 85.5t-115 33.5q-73 0 -112 -31.5t-39 -81.5q0 -34 18 -58.5t52.5 -38t85.5 -13.5z" />
    <glyph glyph-name="h" unicode="h" horiz-adv-x="572" 
d="M87 0v302v389h60v-160q0 -23 -1 -46t-3 -46.5t-5 -47t-6 -47.5h14q15 62 39 102.5t59 59t80 18.5q85 0 127 -59.5t42 -173.5v-291h-57v290q0 95 -30 137t-88 42q-50 0 -85.5 -29.5t-57.5 -79.5t-32 -114v-246h-56z" />
    <glyph glyph-name="i" unicode="i" horiz-adv-x="232" 
d="M88 0v512h56v-512h-56zM116 610q-24 0 -36 10t-12 31q0 19 12 29t36 10t36 -10t12 -29q0 -21 -12.5 -31t-35.5 -10z" />
    <glyph glyph-name="j" unicode="j" horiz-adv-x="244" 
d="M36 -172q-17 0 -38 4t-44 11l-5 57q79 -24 115.5 -9.5t36.5 87.5v534h56v-514q0 -40 -7 -71.5t-21.5 -53.5t-37.5 -33.5t-55 -11.5zM128 610q-24 0 -36 10t-12 31q0 19 12 29t36 10t36 -10t12 -29q0 -21 -12.5 -31t-35.5 -10z" />
    <glyph glyph-name="k" unicode="k" horiz-adv-x="517" 
d="M87 0v691h57v-401q44 21 86 50t77.5 61t61 61.5t36.5 49.5h68q-22 -37 -54.5 -74t-70 -69t-74.5 -55.5t-69 -33.5v-9q39 -1 72.5 -18.5t64 -47t60 -68t59.5 -83.5l36 -54h-66l-29 44q-35 53 -71 97t-77.5 70.5t-92.5 26.5h-17v-238h-57z" />
    <glyph glyph-name="l" unicode="l" horiz-adv-x="231" 
d="M87 0v691h57v-691h-57z" />
    <glyph glyph-name="m" unicode="m" horiz-adv-x="861" 
d="M87 0v310v202h58l-13 -168h14q13 60 35 100t54 60t73 20q51 0 83.5 -26.5t47 -67t12.5 -82.5h15q9 55 30 94.5t54.5 60.5t77.5 21q37 0 65.5 -15.5t48.5 -45t30 -73t10 -99.5v-291h-56v284q0 62 -12 103t-35.5 61.5t-58.5 20.5q-40 0 -72.5 -28t-54.5 -77t-31 -112v-252
h-55v271q0 66 -11.5 110t-35 66t-59.5 22q-44 0 -76.5 -30t-53 -81t-28.5 -112v-246h-56z" />
    <glyph glyph-name="n" unicode="n" horiz-adv-x="572" 
d="M87 0v322v190h59l-14 -168h14q15 62 38.5 101.5t59 59t82.5 19.5q82 0 124.5 -59.5t42.5 -171.5v-293h-57v290q0 91 -29.5 135t-86.5 44q-52 0 -90.5 -33.5t-60.5 -87.5t-26 -117v-231h-56z" />
    <glyph glyph-name="o" unicode="o" horiz-adv-x="596" 
d="M300 -12q-71 0 -125 33t-84.5 93.5t-30.5 144.5q0 89 32.5 147.5t86 88t117.5 29.5q67 0 121 -31.5t86.5 -92t32.5 -147.5q0 -86 -31 -145t-84.5 -89.5t-120.5 -30.5zM302 42q54 0 93.5 26.5t61.5 74.5t22 111q0 65 -22.5 113.5t-63.5 75.5t-97 27q-54 0 -94 -25
t-62.5 -71.5t-22.5 -112.5q0 -100 50.5 -159.5t134.5 -59.5z" />
    <glyph glyph-name="p" unicode="p" horiz-adv-x="588" 
d="M87 -158v416v254h57l-8 -124h14q13 38 33.5 68.5t53 49t81.5 18.5q72 0 118 -36.5t68 -97t22 -133.5q0 -77 -24 -138t-69.5 -96t-110.5 -35q-57 0 -93 25t-55.5 63t-29.5 73h-15q5 -27 8 -57t5 -59.5t2 -56.5v-134h-57zM317 43q50 0 83.5 29t50.5 78.5t17 110.5
q0 64 -17.5 110.5t-50.5 72.5t-81 26q-39 0 -71 -18t-55.5 -48.5t-36.5 -67t-13 -74.5v-7q0 -21 6.5 -48.5t20 -56t34 -53t49 -39.5t64.5 -15z" />
    <glyph glyph-name="q" unicode="q" horiz-adv-x="586" 
d="M442 -158v134q0 27 2.5 57t6 60t6.5 55h-14q-9 -35 -29 -72.5t-56 -62.5t-94 -25q-64 0 -109.5 35t-69.5 96t-24 137q0 73 22 133.5t68 97.5t117 37q52 0 85 -20t53 -51t31 -66h14l-9 124h57l-1 -253l1 -416h-57zM271 43q37 0 65 15t48.5 39t33.5 53t18.5 57t5.5 48v7
q0 38 -12.5 74.5t-35.5 66.5t-55.5 48t-71.5 18q-47 0 -80.5 -26t-51 -72.5t-17.5 -110.5q0 -61 17.5 -110t51.5 -78t84 -29z" />
    <glyph glyph-name="r" unicode="r" horiz-adv-x="376" 
d="M87 0v297v215h58l-14 -181h15q11 53 29.5 97t48 70.5t71.5 26.5q12 0 26.5 -2t32.5 -9l-4 -58q-14 5 -27.5 8t-26.5 3q-40 0 -68 -30t-48.5 -78.5t-36.5 -104.5v-254h-56z" />
    <glyph glyph-name="s" unicode="s" horiz-adv-x="520" 
d="M267 -12q-54 0 -95 12.5t-67.5 35.5t-39 55t-9.5 70l55 5q-5 -42 13.5 -69.5t56 -41.5t88.5 -14q70 0 107.5 24t37.5 66q0 33 -21 51.5t-56.5 29t-80.5 19.5q-35 8 -69.5 18t-62 25.5t-44 40.5t-16.5 62q0 46 24 78.5t67.5 50.5t102.5 18q63 0 105.5 -20.5t64.5 -57.5
t21 -85l-54 -8q1 40 -16.5 66t-50 39t-76.5 13q-61 0 -96.5 -24t-35.5 -66q0 -32 20.5 -50.5t55 -28.5t75.5 -19q39 -8 74.5 -18t63 -25.5t44 -41t16.5 -64.5q0 -50 -26 -82.5t-71.5 -48t-104.5 -15.5z" />
    <glyph glyph-name="t" unicode="t" horiz-adv-x="354" 
d="M226 -9q-61 0 -92 34t-31 100v336h-78v51h46q21 0 30 8.5t11 27.5l8 80h39v-116h158v-51h-158v-337q0 -43 19 -61.5t54 -18.5q19 0 41 5.5t47 24.5v-62q-27 -11 -50.5 -16t-43.5 -5z" />
    <glyph glyph-name="u" unicode="u" horiz-adv-x="564" 
d="M246 -12q-82 0 -124.5 58t-42.5 172v294h57v-293q0 -89 28 -132.5t90 -43.5q34 0 61 16t48.5 46t36 71t20.5 91v245h56v-295l1 -217h-58l14 167h-14q-11 -61 -35.5 -101t-59.5 -59t-78 -19z" />
    <glyph glyph-name="v" unicode="v" horiz-adv-x="508" 
d="M215 0l-190 511h62l160 -459h13l159 459h64l-190 -511h-78z" />
    <glyph glyph-name="w" unicode="w" horiz-adv-x="772" 
d="M174 0l-142 512h57l120 -459h14l123 459h82l123 -459h11l122 459h57l-144 -512h-80l-125 460h-8l-126 -460h-84z" />
    <glyph glyph-name="x" unicode="x" horiz-adv-x="481" 
d="M31 0l175 255l-178 257h67l140 -215h9l137 215h67l-176 -257l181 -255h-68l-141 215h-9l-137 -215h-67z" />
    <glyph glyph-name="y" unicode="y" horiz-adv-x="573" 
d="M265 -168q-41 0 -79.5 10t-69 31.5t-48.5 55.5l49 28q17 -34 55 -53t90 -19q58 0 97 27t58.5 82.5t19.5 139.5l13 113h-16q-12 -77 -36.5 -122t-58.5 -64t-78 -19q-55 0 -93.5 28t-58.5 82.5t-20 131.5v228h55v-219q0 -99 32.5 -147.5t94.5 -48.5q34 0 61.5 16t48 49
t33 83.5t16.5 120.5v146h57v-383q0 -59 -8.5 -106.5t-26 -83t-44 -60t-62 -36t-81.5 -11.5z" />
    <glyph glyph-name="z" unicode="z" horiz-adv-x="463" 
d="M37 0v57l309 391v12h-308v52h387v-51l-317 -396v-12h318v-53h-389z" />
    <glyph glyph-name="braceleft" unicode="{" horiz-adv-x="359" 
d="M36 241v49q21 1 37.5 14t28 47.5t16.5 97.5q6 69 19.5 112t33.5 65.5t45.5 30.5t54.5 9q11 0 28.5 -2t35.5 -7v-46q-37 10 -69.5 4.5t-55 -35t-29.5 -92.5q-3 -31 -8.5 -66.5t-15.5 -67t-25.5 -53t-36.5 -24.5v-22q20 -3 34.5 -22t24.5 -48.5t16.5 -66t10.5 -77.5
q7 -61 29 -91t54.5 -35.5t70.5 4.5v-46q-18 -4 -35.5 -6.5t-28.5 -2.5q-29 0 -54.5 8t-45.5 30.5t-34 66t-19 113.5q-5 69 -16 102.5t-27.5 44.5t-38.5 12z" />
    <glyph glyph-name="bar" unicode="|" horiz-adv-x="241" 
d="M94 -153v813h53v-813h-53z" />
    <glyph glyph-name="braceright" unicode="}" horiz-adv-x="316" 
d="M279 241q-21 -1 -38 -12t-28 -44.5t-16 -102.5q-5 -70 -19 -113.5t-34 -66t-45.5 -30.5t-54.5 -8q-11 0 -28 2.5t-35 6.5v46q38 -10 70 -4.5t54.5 35.5t28.5 91q4 41 10.5 77.5t16.5 66t25 48.5t34 22v22q-21 3 -36.5 24.5t-25.5 53t-15.5 67t-8.5 66.5q-6 63 -29 92.5
t-55.5 35t-68.5 -4.5v46q18 5 35 7t28 2q29 -1 54.5 -9t45.5 -30.5t33.5 -65.5t19.5 -112q5 -63 16.5 -97.5t28.5 -47.5t37 -14v-49z" />
    <glyph glyph-name="asciitilde" unicode="~" horiz-adv-x="498" 
d="M367 247q-34 0 -67 5t-62.5 11t-54.5 11t-44 5q-10 0 -17 -6.5t-6 -27.5h-54q-4 27 0 47.5t19 32t42 11.5q32 0 64 -5t63 -11t58 -11t48 -5q14 0 21 6.5t5 28.5h52q6 -27 1.5 -48t-21 -32.5t-47.5 -11.5z" />
    <glyph glyph-name="uni00A0" unicode="&#xa0;" horiz-adv-x="269" 
 />
    <glyph glyph-name="exclamdown" unicode="&#xa1;" horiz-adv-x="230" 
d="M97 383h36l20 -517h-76zM114 538q46 0 46 -42q0 -21 -11.5 -32t-34.5 -11q-22 0 -33.5 10.5t-11.5 32.5t12 32t33 10z" />
    <glyph glyph-name="cent" unicode="&#xa2;" horiz-adv-x="538" 
d="M263 567l-16 131h71l-15 -131h-40zM247 -66l17 132h39l15 -132h-71zM295 48q-67 0 -112 23t-71.5 61.5t-38.5 85t-12 93.5q0 54 14 103t42 87.5t71 60.5t101 22q56 0 99.5 -19.5t71 -56.5t33.5 -88l-56 -12q-2 25 -17 53.5t-46.5 48.5t-82.5 20q-44 0 -76.5 -17.5
t-53.5 -47.5t-32 -69.5t-11 -85.5q0 -59 18.5 -106t57.5 -74.5t102 -27.5q43 0 75.5 14t53 42.5t26.5 70.5l55 -13q-8 -46 -28.5 -78t-48.5 -52t-62 -29t-72 -9z" />
    <glyph glyph-name="sterling" unicode="&#xa3;" horiz-adv-x="716" 
d="M176 -13q-63 0 -101 36t-38 91q0 34 15 63.5t45 47.5t74 18q33 0 59.5 -12.5t46.5 -40.5h14l-1 -59q-19 32 -48.5 46t-61.5 14q-45 0 -65.5 -24.5t-20.5 -53.5q0 -35 24 -54.5t61 -19.5q39 0 63 19t35 50.5t11 67.5q0 40 -10.5 70.5t-26.5 56t-32 51.5t-26.5 57.5
t-10.5 73.5q0 67 28 107.5t73 59.5t96 19q43 0 81 -13.5t66 -39.5t43 -64t12 -88l-55 -4q2 50 -13 84.5t-47.5 53t-83.5 18.5q-76 0 -109 -38t-33 -94q0 -36 10 -65t25 -56t30.5 -55t25.5 -61.5t10 -76.5t-11.5 -77t-33.5 -58t-52 -37t-68 -13zM104 325v57l135 -1l5 -40z
M513 -13q-48 0 -83.5 20t-61 49t-42.5 55l-14 5l15 63q11 -14 29.5 -37t43 -46.5t54 -39.5t61.5 -16q34 0 54 19t29 50t9 67q0 19 -2.5 40t-7.5 41.5t-12 38.5l57 6q12 -30 17 -64.5t5 -64.5q0 -37 -8.5 -71t-27 -59.5t-47 -40.5t-68.5 -15zM252 341l-5 41l228 17v-55z" />
    <glyph glyph-name="yen" unicode="&#xa5;" horiz-adv-x="528" 
d="M74 129v50h406v-50h-406zM74 268v50h161v-50h-161zM325 268v50h155v-50h-155zM236 6v214l-218 433h61l184 -373h4l181 373h63l-219 -433v-214h-56z" />
    <glyph glyph-name="brokenbar" unicode="&#xa6;" horiz-adv-x="241" 
d="M94 -153v316h53v-316h-53zM94 370v290h53v-290h-53z" />
    <glyph glyph-name="section" unicode="&#xa7;" horiz-adv-x="538" 
d="M274 -168q-54 0 -95.5 13t-68.5 38t-39 59.5t-9 78.5l54 3q-5 -48 14 -79t56.5 -45t87.5 -14q71 0 108.5 25.5t37.5 71.5q0 36 -20.5 58.5t-55.5 35.5t-81 21q-39 7 -74 16t-62 25t-43 43.5t-16 70.5q0 36 13 63t43 45t79 26v10q-49 11 -79 29.5t-42.5 43.5t-12.5 54
q0 46 24.5 79.5t68.5 51.5t102 18q64 0 107 -21t65 -60.5t21 -93.5l-54 -8q2 44 -15.5 73t-50 43t-77.5 14q-63 0 -99 -26t-36 -71q0 -35 20.5 -57t56 -34.5t78.5 -21.5q41 -8 76.5 -17.5t62 -25.5t42 -43t15.5 -70q0 -35 -12.5 -62t-41.5 -44t-80 -22v-12q50 -11 79 -29.5
t42 -44t13 -58.5q0 -52 -26 -85t-72 -49t-104 -16zM280 147q42 0 73.5 11.5t49 33.5t17.5 55q0 36 -18 58t-44.5 34t-54 16.5t-47.5 4.5q-58 0 -95 -25.5t-37 -77.5q0 -33 14.5 -54t37.5 -33.5t50.5 -17.5t53.5 -5z" />
    <glyph glyph-name="dieresis" unicode="&#xa8;" horiz-adv-x="329" 
d="M261 613q-25 0 -36.5 10t-11.5 33q0 20 11.5 30.5t36.5 10.5q24 0 36 -10.5t12 -31.5q0 -22 -12 -32t-36 -10zM68 613q-24 0 -36 10t-12 33q0 20 12 30.5t36 10.5t36 -10.5t12 -31.5q0 -22 -12.5 -32t-35.5 -10z" />
    <glyph glyph-name="copyright" unicode="&#xa9;" horiz-adv-x="865" 
d="M432 -79q-87 0 -156 23t-117 68t-73.5 112t-25.5 155t25 155t73.5 112.5t117.5 68.5t156 23t156 -23t117 -68.5t73.5 -112.5t25.5 -155t-25.5 -155t-74 -112t-117 -68t-155.5 -23zM432 -29q101 0 171.5 34t108 102.5t37.5 171.5t-37 171.5t-108 103t-172 34.5t-172 -34.5
t-108 -103t-37 -171.5t37 -171.5t108 -102.5t172 -34zM442 73q-75 0 -119 29.5t-63.5 76.5t-19.5 100q0 57 20 105t63.5 77.5t110.5 29.5q46 0 83 -15t60.5 -43t27.5 -68l-54 -18q-1 35 -30 65t-88 30q-35 0 -60.5 -12.5t-41.5 -34.5t-24 -51.5t-8 -62.5q0 -48 15 -83.5
t47 -55t81 -19.5q34 0 59 11t41.5 32.5t20.5 55.5l55 -15q-5 -33 -21 -58t-39 -42t-53 -25.5t-63 -8.5z" />
    <glyph glyph-name="ordfeminine" unicode="&#xaa;" horiz-adv-x="390" 
d="M143 289q-33 0 -59 11t-41 33.5t-15 56.5q0 36 16 57.5t42.5 33.5t58.5 18t62 10q32 4 50.5 8t26.5 12.5t8 23.5q0 19 -9.5 34t-28.5 24t-50 9q-24 0 -49 -7t-42.5 -24t-21.5 -47l-52 16q4 25 17 45.5t34 35t49 22.5t64 8q51 0 80 -15.5t42 -38t17 -47t4 -43.5v-82
q0 -22 1 -48t3 -51.5t4 -45.5h-51l-2.5 42.5t-1.5 49.5h-9q-22 -49 -59 -75t-88 -26zM155 336q23 0 47.5 9t48 31t41.5 57l1 72l22 -2q-14 -14 -41 -20.5t-60 -10t-62.5 -10.5t-48.5 -22t-19 -45q0 -29 19.5 -44t51.5 -15z" />
    <glyph glyph-name="guillemotleft" unicode="&#xab;" horiz-adv-x="356" 
d="M97 79q-10 51 -24.5 97t-30.5 90q17 44 31 89t24 95h62q-14 -50 -30.5 -95t-34.5 -89q18 -44 34.5 -90t30.5 -97h-62zM243 79q-10 51 -24.5 97t-30.5 90q17 44 31 89t24 95h62q-14 -50 -30.5 -95t-34.5 -89q18 -44 34.5 -90t30.5 -97h-62z" />
    <glyph glyph-name="logicalnot" unicode="&#xac;" horiz-adv-x="498" 
d="M63 267v52h372v-52h-372zM380 127v173h55v-173h-55z" />
    <glyph glyph-name="registered" unicode="&#xae;" horiz-adv-x="610" 
d="M305 167q-84 0 -144.5 30t-92.5 88t-32 143t32 143t92.5 88t144.5 30q86 0 146 -30t92 -88t32 -143t-32 -143t-92 -88t-146 -30zM305 217q71 0 118.5 23t72 70t24.5 118t-24.5 118t-72 70t-118.5 23q-104 0 -159 -52t-55 -159q0 -106 55 -158.5t159 -52.5zM206 278v306
h112q46 0 75 -23t29 -68q0 -31 -18 -52.5t-57 -24.5v-7q33 -2 47.5 -18t22.5 -53l13 -60h-52l-10 54q-4 24 -15 41.5t-41 17.5h-57v-113h-49zM255 431h48q23 0 38 6t22.5 18t7.5 31q0 20 -6.5 32.5t-19 18.5t-31.5 6h-59v-112z" />
    <glyph glyph-name="macron" unicode="&#xaf;" horiz-adv-x="289" 
d="M20 627v50h249v-50h-249z" />
    <glyph glyph-name="degree" unicode="&#xb0;" horiz-adv-x="335" 
d="M167 405q-38 0 -68 17.5t-46.5 47.5t-16.5 67q0 28 9.5 52t27 42t42 28t53.5 10q39 0 69 -17.5t46.5 -47.5t16.5 -69q0 -37 -17 -66.5t-47 -46.5t-69 -17zM170 454q35 0 56.5 23.5t21.5 59.5q0 35 -22 59t-59 24q-35 0 -57 -23t-22 -58q0 -37 22.5 -61t59.5 -24z" />
    <glyph glyph-name="plusminus" unicode="&#xb1;" horiz-adv-x="498" 
d="M222 236v334h55v-334h-55zM64 377v52h371v-52h-371zM63 89v52h371v-52h-371z" />
    <glyph glyph-name="uni00B2" unicode="&#xb2;" horiz-adv-x="380" 
d="M40 270v61l143 111q18 14 38.5 32.5t35 41t14.5 47.5q0 30 -22 49.5t-65 19.5q-31 0 -51 -12t-29 -36t-9 -61l-49 13q-1 59 31 100.5t108 41.5q42 0 73 -13.5t48 -38.5t17 -59q0 -25 -9 -47t-24.5 -41.5t-34 -36.5t-38.5 -32l-122 -94v-4l238 5v-47h-293z" />
    <glyph glyph-name="uni00B3" unicode="&#xb3;" horiz-adv-x="394" 
d="M176 262q-76 0 -112.5 32t-39.5 84l48 12q1 -28 14 -47.5t36 -29t54 -9.5q43 0 75 18.5t32 60.5q0 28 -16 48.5t-53.5 31.5t-100.5 10v33l147 116v4l-220 -1v44h271v-56l-136 -106v-5q78 0 118.5 -31t40.5 -87q0 -55 -40.5 -88.5t-117.5 -33.5z" />
    <glyph glyph-name="acute" unicode="&#xb4;" horiz-adv-x="283" 
d="M75 597h-55l70 146h71z" />
    <glyph glyph-name="uni00B5" unicode="&#xb5;" horiz-adv-x="568" 
d="M79 -159v671h57v-250q0 -32 2 -70.5t12.5 -72.5t35 -55.5t69.5 -21.5t74.5 18.5t47.5 49.5t28.5 70.5t16.5 79.5v252h56v-295l3 -217h-59l14 158h-14q-10 -52 -31.5 -90t-55.5 -59t-82 -21q-19 0 -44 6.5t-46.5 23.5t-30.5 47h-13l17 -175v-49h-57z" />
    <glyph glyph-name="paragraph" unicode="&#xb6;" horiz-adv-x="599" 
d="M353 -154v383h-40q-92 0 -151.5 26t-88 74t-28.5 114q0 54 17 94.5t49 68t75.5 41t94.5 13.5h128v-814h-56zM372 -154v53h123v-53h-123zM449 -154v814h56v-814h-56zM373 607v53h123v-53h-123z" />
    <glyph glyph-name="periodcentered" unicode="&#xb7;" horiz-adv-x="140" 
d="M70 288q-22 0 -33.5 10t-11.5 32q0 23 11.5 33t33.5 10q23 0 34.5 -10t11.5 -33q0 -42 -46 -42z" />
    <glyph glyph-name="cedilla" unicode="&#xb8;" horiz-adv-x="253" 
d="M20 -241l6 41q20 -4 47 -6.5t52.5 0.5t42.5 15t17 35q0 11 -5 20.5t-18.5 16.5t-38.5 9.5t-64 -0.5l14 111h39l-6 -87q42 6 70 -1t42.5 -25t14.5 -47q0 -36 -21 -56.5t-54 -28.5t-70 -6t-68 9z" />
    <glyph glyph-name="uni00B9" unicode="&#xb9;" horiz-adv-x="231" 
d="M100 270v311h-56v45q25 0 43 8.5t23 35.5h40v-400h-50z" />
    <glyph glyph-name="ordmasculine" unicode="&#xba;" horiz-adv-x="400" 
d="M200 289q-76 0 -123 50.5t-47 141.5q0 63 22.5 104.5t61 62.5t85.5 21q74 0 123 -49t49 -142q0 -62 -22.5 -104.5t-61 -63.5t-87.5 -21zM202 336q24 0 50 12.5t44.5 43t18.5 84.5q0 55 -19 86.5t-46 44.5t-53 13q-23 0 -49.5 -11.5t-44.5 -41.5t-18 -84q0 -55 18 -87
t45 -46t54 -14z" />
    <glyph glyph-name="guillemotright" unicode="&#xbb;" horiz-adv-x="356" 
d="M260 79h-63q14 51 31 97t35 90q-18 44 -35 89t-31 95h63q10 -50 24.5 -95t29.5 -89q-15 -44 -29.5 -90t-24.5 -97zM114 79h-63q14 51 31 97t35 90q-18 44 -35 89t-31 95h63q10 -50 24.5 -95t29.5 -89q-15 -44 -29.5 -90t-24.5 -97z" />
    <glyph glyph-name="onequarter" unicode="&#xbc;" horiz-adv-x="806" 
d="M100 300v311h-56v45q25 0 43 8.5t23 35.5h40v-400h-50zM105 0l408 660h62l-409 -660h-61zM426 47v60q40 39 74 81.5t61 86t45 85.5h90v-400h-52v360h-4q-29 -61 -71 -118t-92 -105v-5h269v-45h-320z" />
    <glyph glyph-name="onehalf" unicode="&#xbd;" horiz-adv-x="828" 
d="M100 300v311h-56v45q25 0 43 8.5t23 35.5h40v-400h-50zM105 0l408 660h62l-409 -660h-61zM488 -40v61l143 111q18 14 38.5 32.5t35 41t14.5 47.5q0 30 -22 49.5t-65 19.5q-31 0 -51 -12t-29 -36t-9 -61l-49 13q-1 59 31 100.5t108 41.5q42 0 73 -13.5t48 -38.5t17 -59
q0 -25 -9 -47t-24.5 -41.5t-34 -36.5t-38.5 -32l-122 -94v-4l238 5v-47h-293z" />
    <glyph glyph-name="threequarters" unicode="&#xbe;" horiz-adv-x="961" 
d="M176 292q-76 0 -112.5 32t-39.5 84l48 12q1 -28 14 -47.5t36 -29t54 -9.5q43 0 75 18.5t32 60.5q0 28 -16 48.5t-53.5 31.5t-100.5 10v33l147 116v4l-220 -1v44h271v-56l-136 -106v-5q78 0 118.5 -31t40.5 -87q0 -55 -40.5 -88.5t-117.5 -33.5zM260 0l408 660h62
l-409 -660h-61zM582 47v60q40 39 74 81.5t61 86t45 85.5h90v-400h-52v360h-4q-29 -61 -71 -118t-92 -105v-5h269v-45h-320z" />
    <glyph glyph-name="questiondown" unicode="&#xbf;" horiz-adv-x="383" 
d="M259 368q6 -62 -5 -103t-32 -68.5t-46.5 -47.5t-49 -39t-38.5 -42.5t-15 -58.5q0 -55 38 -85t89 -30q26 0 51.5 8t50 26t47.5 46l12 -53q-19 -26 -44 -44t-54.5 -27.5t-63.5 -9.5q-36 0 -69.5 11t-59 32.5t-40.5 53.5t-15 73q0 44 15.5 71.5t39.5 47.5t50.5 39t48.5 43.5
t34 62t6 94.5h50zM231 523q23 0 34 -10t11 -32t-11 -32.5t-34 -10.5t-34.5 10.5t-11.5 32.5q0 42 46 42z" />
    <glyph glyph-name="Agrave" unicode="&#xc0;" horiz-adv-x="630" 
d="M37 0l236 660h83l236 -660h-60l-212 608h-10l-212 -608h-61zM136 160v51h363v-51h-363zM299 745l-85 146h71l69 -146h-55z" />
    <glyph glyph-name="Aacute" unicode="&#xc1;" horiz-adv-x="630" 
d="M37 0l236 660h83l236 -660h-60l-212 608h-10l-212 -608h-61zM136 160v51h363v-51h-363zM330 745h-55l70 146h71z" />
    <glyph glyph-name="Acircumflex" unicode="&#xc2;" horiz-adv-x="630" 
d="M37 0l236 660h83l236 -660h-60l-212 608h-10l-212 -608h-61zM136 160v51h363v-51h-363zM177 731v61l138 106l136 -106v-61l-136 107z" />
    <glyph glyph-name="Atilde" unicode="&#xc3;" horiz-adv-x="630" 
d="M37 0l236 660h83l236 -660h-60l-212 608h-10l-212 -608h-61zM136 160v51h363v-51h-363zM389 754q-19 0 -39.5 8t-40.5 18t-37 18t-28 8q-10 0 -17.5 -9.5t-6.5 -35.5h-38q-3 31 2 51.5t17.5 31.5t31.5 11q18 0 39 -8t42 -18t39 -18t28 -8q13 0 21.5 13t6.5 33h37
q5 -27 -0.5 -48.5t-19.5 -34t-37 -12.5z" />
    <glyph glyph-name="Adieresis" unicode="&#xc4;" horiz-adv-x="630" 
d="M37 0l236 660h83l236 -660h-60l-212 608h-10l-212 -608h-61zM136 160v51h363v-51h-363zM412 761q-25 0 -36.5 10t-11.5 33q0 20 11.5 30.5t36.5 10.5q24 0 36 -10.5t12 -31.5q0 -22 -12 -32t-36 -10zM219 761q-24 0 -36 10t-12 33q0 20 12 30.5t36 10.5t36 -10.5
t12 -31.5q0 -22 -12.5 -32t-35.5 -10z" />
    <glyph glyph-name="Aring" unicode="&#xc5;" horiz-adv-x="630" 
d="M37 0l236 660h83l236 -660h-60l-212 608h-10l-212 -608h-61zM136 160v51h363v-51h-363zM314 732q-35 0 -59.5 20.5t-24.5 61.5t24.5 61.5t58.5 20.5q37 0 61 -22t24 -61q0 -41 -24.5 -61t-59.5 -20zM316 768q18 0 28.5 12t10.5 32q0 23 -10.5 34.5t-29.5 11.5
q-18 0 -29.5 -11t-11.5 -33q0 -21 11 -33.5t31 -12.5z" />
    <glyph glyph-name="AE" unicode="&#xc6;" horiz-adv-x="861" 
d="M37 0l327 660h110l-37 -53h-36l-302 -607h-62zM162 160v52h303v-52h-303zM451 0v53h372v-53h-372zM437 0v660h57v-660h-57zM451 307v54h327v-54h-327zM451 607v53h372v-53h-372z" />
    <glyph glyph-name="Ccedilla" unicode="&#xc7;" horiz-adv-x="656" 
d="M358 -12q-68 0 -121.5 22.5t-90.5 65.5t-56 105t-19 140q0 79 19.5 143.5t56.5 111t89.5 71.5t118.5 25q50 0 92.5 -14.5t73.5 -42t48.5 -66.5t17.5 -87l-55 -13q1 57 -23 94t-65 55.5t-89 18.5q-46 0 -87.5 -18t-72.5 -54t-49 -92t-18 -133q0 -97 28.5 -157.5t81 -88.5
t123.5 -28q66 0 107.5 22.5t63 66t23.5 106.5l54 -11q-1 -49 -16 -93t-45.5 -77.5t-77.5 -52.5t-112 -19zM241 -241l6 41q20 -4 47 -6.5t52.5 0.5t42.5 15t17 35q0 11 -5 20.5t-18.5 16.5t-38.5 9.5t-64 -0.5l14 111h39l-6 -87q42 6 70 -1t42.5 -25t14.5 -47
q0 -36 -21 -56.5t-54 -28.5t-70 -6t-68 9z" />
    <glyph glyph-name="Egrave" unicode="&#xc8;" horiz-adv-x="566" 
d="M94 0v660h57v-660h-57zM106 0v53h421v-53h-421zM106 313v53h375v-53h-375zM106 607v53h421v-53h-421zM272 745l-85 146h71l69 -146h-55z" />
    <glyph glyph-name="Eacute" unicode="&#xc9;" horiz-adv-x="566" 
d="M94 0v660h57v-660h-57zM106 0v53h421v-53h-421zM106 313v53h375v-53h-375zM106 607v53h421v-53h-421zM303 745h-55l70 146h71z" />
    <glyph glyph-name="Ecircumflex" unicode="&#xca;" horiz-adv-x="566" 
d="M94 0v660h57v-660h-57zM106 0v53h421v-53h-421zM106 313v53h375v-53h-375zM106 607v53h421v-53h-421zM150 731v61l138 106l136 -106v-61l-136 107z" />
    <glyph glyph-name="Edieresis" unicode="&#xcb;" horiz-adv-x="566" 
d="M94 0v660h57v-660h-57zM106 0v53h421v-53h-421zM106 313v53h375v-53h-375zM106 607v53h421v-53h-421zM385 761q-25 0 -36.5 10t-11.5 33q0 20 11.5 30.5t36.5 10.5q24 0 36 -10.5t12 -31.5q0 -22 -12 -32t-36 -10zM192 761q-24 0 -36 10t-12 33q0 20 12 30.5t36 10.5
t36 -10.5t12 -31.5q0 -22 -12.5 -32t-35.5 -10z" />
    <glyph glyph-name="Igrave" unicode="&#xcc;" horiz-adv-x="246" 
d="M94 0v660h58v-660h-58zM108 745l-86 146h71l70 -146h-55z" />
    <glyph glyph-name="Iacute" unicode="&#xcd;" horiz-adv-x="246" 
d="M94 0v660h58v-660h-58zM138 745h-55l70 146h71z" />
    <glyph glyph-name="Icircumflex" unicode="&#xce;" horiz-adv-x="246" 
d="M94 0v660h58v-660h-58zM2 723v63l121 95l120 -95v-63l-120 96z" />
    <glyph glyph-name="Idieresis" unicode="&#xcf;" horiz-adv-x="246" 
d="M94 0v660h58v-660h-58zM189 762q-19 0 -30 9t-11 32q0 24 11 32t30 8q20 0 31 -9t11 -32q0 -22 -11.5 -31t-30.5 -9zM58 762q-22 0 -33.5 9.5t-11.5 31.5q0 24 11 32t33 8q20 0 31 -9t11 -32q0 -22 -11 -31t-30 -9z" />
    <glyph glyph-name="Eth" unicode="&#xd0;" horiz-adv-x="746" 
d="M69 373h253v-48h-253v48zM199 0v53h198q75 0 123.5 36.5t72 98.5t23.5 140q0 72 -15 124t-45.5 86.5t-78 51.5t-111.5 17h-167v53h167q106 0 174 -39t101 -112t33 -175q0 -61 -12.5 -113.5t-36 -93t-57 -69t-76.5 -43.5t-94 -15h-199zM163 0v660h57v-660h-57z" />
    <glyph glyph-name="Ntilde" unicode="&#xd1;" horiz-adv-x="703" 
d="M94 0v660h79l380 -586h6l-5 586h55v-660h-72l-385 593h-7l5 -593h-56zM428 754q-19 0 -39.5 8t-40.5 18t-37 18t-28 8q-10 0 -17.5 -9.5t-6.5 -35.5h-38q-3 31 2 51.5t17.5 31.5t31.5 11q18 0 39 -8t42 -18t39 -18t28 -8q13 0 21.5 13t6.5 33h37q5 -27 -0.5 -48.5
t-19.5 -34t-37 -12.5z" />
    <glyph glyph-name="Ograve" unicode="&#xd2;" horiz-adv-x="707" 
d="M354 -12q-72 0 -125 25t-88.5 70.5t-52.5 107.5t-17 137q0 113 36 189.5t99.5 115.5t145.5 39q65 0 117 -23.5t89 -69t57 -110t20 -145.5q0 -73 -17 -134.5t-52 -106.5t-87.5 -70t-124.5 -25zM352 43q72 0 122.5 33.5t76.5 96.5t26 153q0 91 -27 156t-77.5 100t-120.5 35
q-68 0 -118.5 -34t-77.5 -99t-27 -159q0 -68 15 -120.5t43.5 -88.5t70 -54.5t94.5 -18.5zM339 745l-86 146h72l69 -146h-55z" />
    <glyph glyph-name="Oacute" unicode="&#xd3;" horiz-adv-x="707" 
d="M354 -12q-72 0 -125 25t-88.5 70.5t-52.5 107.5t-17 137q0 113 36 189.5t99.5 115.5t145.5 39q65 0 117 -23.5t89 -69t57 -110t20 -145.5q0 -73 -17 -134.5t-52 -106.5t-87.5 -70t-124.5 -25zM352 43q72 0 122.5 33.5t76.5 96.5t26 153q0 91 -27 156t-77.5 100t-120.5 35
q-68 0 -118.5 -34t-77.5 -99t-27 -159q0 -68 15 -120.5t43.5 -88.5t70 -54.5t94.5 -18.5zM369 745h-55l70 146h71z" />
    <glyph glyph-name="Ocircumflex" unicode="&#xd4;" horiz-adv-x="707" 
d="M354 -12q-72 0 -125 25t-88.5 70.5t-52.5 107.5t-17 137q0 113 36 189.5t99.5 115.5t145.5 39q65 0 117 -23.5t89 -69t57 -110t20 -145.5q0 -73 -17 -134.5t-52 -106.5t-87.5 -70t-124.5 -25zM352 43q72 0 122.5 33.5t76.5 96.5t26 153q0 91 -27 156t-77.5 100t-120.5 35
q-68 0 -118.5 -34t-77.5 -99t-27 -159q0 -68 15 -120.5t43.5 -88.5t70 -54.5t94.5 -18.5zM216 731v61l138 106l136 -106v-61l-136 107z" />
    <glyph glyph-name="Otilde" unicode="&#xd5;" horiz-adv-x="707" 
d="M354 -12q-72 0 -125 25t-88.5 70.5t-52.5 107.5t-17 137q0 113 36 189.5t99.5 115.5t145.5 39q65 0 117 -23.5t89 -69t57 -110t20 -145.5q0 -73 -17 -134.5t-52 -106.5t-87.5 -70t-124.5 -25zM352 43q72 0 122.5 33.5t76.5 96.5t26 153q0 91 -27 156t-77.5 100t-120.5 35
q-68 0 -118.5 -34t-77.5 -99t-27 -159q0 -68 15 -120.5t43.5 -88.5t70 -54.5t94.5 -18.5zM429 754q-19 0 -39.5 8t-40.5 18t-37 18t-28 8q-10 0 -17.5 -9.5t-6.5 -35.5h-38q-3 31 2 51.5t17.5 31.5t31.5 11q18 0 39 -8t42 -18t39 -18t28 -8q13 0 21.5 13t6.5 33h37
q5 -27 -0.5 -48.5t-19.5 -34t-37 -12.5z" />
    <glyph glyph-name="Odieresis" unicode="&#xd6;" horiz-adv-x="707" 
d="M354 -12q-72 0 -125 25t-88.5 70.5t-52.5 107.5t-17 137q0 113 36 189.5t99.5 115.5t145.5 39q65 0 117 -23.5t89 -69t57 -110t20 -145.5q0 -73 -17 -134.5t-52 -106.5t-87.5 -70t-124.5 -25zM352 43q72 0 122.5 33.5t76.5 96.5t26 153q0 91 -27 156t-77.5 100t-120.5 35
q-68 0 -118.5 -34t-77.5 -99t-27 -159q0 -68 15 -120.5t43.5 -88.5t70 -54.5t94.5 -18.5zM452 761q-25 0 -36.5 10t-11.5 33q0 20 11.5 30.5t36.5 10.5q24 0 36 -10.5t12 -31.5q0 -22 -12 -32t-36 -10zM259 761q-24 0 -36 10t-12 33q0 20 12 30.5t36 10.5t36 -10.5t12 -31.5
q0 -22 -12.5 -32t-35.5 -10z" />
    <glyph glyph-name="multiply" unicode="&#xd7;" horiz-adv-x="498" 
d="M102 105l-39 39l333 330l39 -38zM396 105l-333 330l39 39l333 -330z" />
    <glyph glyph-name="Oslash" unicode="&#xd8;" horiz-adv-x="707" 
d="M73 -18l466 696h63l-467 -696h-62zM354 -9q-72 0 -125 25t-88.5 70.5t-52.5 107.5t-17 137q0 113 36 189.5t99.5 115.5t145.5 39q65 0 117 -23.5t89 -69t57 -110t20 -145.5q0 -73 -17 -134.5t-52 -106.5t-87.5 -70t-124.5 -25zM352 46q72 0 122.5 33.5t76.5 96.5t26 153
q0 91 -27 156t-77.5 100t-120.5 35q-68 0 -118.5 -34t-77.5 -99t-27 -159q0 -68 15 -120.5t43.5 -88.5t70 -54.5t94.5 -18.5z" />
    <glyph glyph-name="Ugrave" unicode="&#xd9;" horiz-adv-x="704" 
d="M352 -12q-50 0 -91.5 11t-73.5 32.5t-53.5 52.5t-33 71.5t-11.5 89.5v415h57v-412q0 -67 24 -112.5t70 -69t112 -23.5q68 0 113.5 23t69 69t23.5 113v412h57v-415q0 -123 -68.5 -190t-194.5 -67zM337 745l-86 146h71l70 -146h-55z" />
    <glyph glyph-name="Uacute" unicode="&#xda;" horiz-adv-x="704" 
d="M352 -12q-50 0 -91.5 11t-73.5 32.5t-53.5 52.5t-33 71.5t-11.5 89.5v415h57v-412q0 -67 24 -112.5t70 -69t112 -23.5q68 0 113.5 23t69 69t23.5 113v412h57v-415q0 -123 -68.5 -190t-194.5 -67zM367 745h-55l70 146h71z" />
    <glyph glyph-name="Ucircumflex" unicode="&#xdb;" horiz-adv-x="704" 
d="M352 -12q-50 0 -91.5 11t-73.5 32.5t-53.5 52.5t-33 71.5t-11.5 89.5v415h57v-412q0 -67 24 -112.5t70 -69t112 -23.5q68 0 113.5 23t69 69t23.5 113v412h57v-415q0 -123 -68.5 -190t-194.5 -67zM214 731v61l138 106l136 -106v-61l-136 107z" />
    <glyph glyph-name="Udieresis" unicode="&#xdc;" horiz-adv-x="704" 
d="M352 -12q-50 0 -91.5 11t-73.5 32.5t-53.5 52.5t-33 71.5t-11.5 89.5v415h57v-412q0 -67 24 -112.5t70 -69t112 -23.5q68 0 113.5 23t69 69t23.5 113v412h57v-415q0 -123 -68.5 -190t-194.5 -67zM450 761q-25 0 -36.5 10t-11.5 33q0 20 11.5 30.5t36.5 10.5
q24 0 36 -10.5t12 -31.5q0 -22 -12 -32t-36 -10zM257 761q-24 0 -36 10t-12 33q0 20 12 30.5t36 10.5t36 -10.5t12 -31.5q0 -22 -12.5 -32t-35.5 -10z" />
    <glyph glyph-name="Yacute" unicode="&#xdd;" horiz-adv-x="538" 
d="M241 0v218l-223 442h63l187 -380h4l185 380h64l-223 -442v-218h-57zM285 745h-55l70 146h71z" />
    <glyph glyph-name="Thorn" unicode="&#xde;" horiz-adv-x="613" 
d="M108 105v55h164q22 0 52.5 2t62.5 10t59.5 27.5t45 55t17.5 90.5q0 52 -17.5 85.5t-44.5 52t-57 26.5t-57 10t-43 2h-182v54h190q55 0 104 -13.5t86 -42t58.5 -72.5t21.5 -106q0 -77 -34.5 -130t-102.5 -79.5t-167 -26.5h-156zM94 0v660h56v-660h-56z" />
    <glyph glyph-name="germandbls" unicode="&#xdf;" horiz-adv-x="639" 
d="M375 -14q-49 0 -87 16t-61 46t-29 73l49 19q7 -35 24 -57t42.5 -32t56.5 -10q21 0 46.5 5.5t48.5 19t37.5 37t14.5 59.5q0 50 -26.5 78.5t-69.5 41.5t-92 16.5t-94 3.5v50q73 0 128 13t86.5 44t31.5 85q0 46 -23 72.5t-60 37.5t-79 11q-52 0 -85.5 -13.5t-52 -35
t-26.5 -46t-9.5 -47.5t-1.5 -39v-434h-57v434q0 21 2 51t13 62t35.5 60t69 45t114.5 17q68 0 116.5 -19t74.5 -57t26 -97q0 -45 -15.5 -76.5t-48 -51t-83.5 -28.5v-14q63 -6 103.5 -27t60 -55t19.5 -80q0 -54 -25 -94t-69.5 -62t-104.5 -22z" />
    <glyph glyph-name="agrave" unicode="&#xe0;" horiz-adv-x="539" 
d="M204 -12q-42 0 -76 15.5t-54 48t-20 82.5q0 33 11.5 60.5t37.5 48.5t70.5 35.5t110.5 22.5q42 5 67 10.5t36.5 17.5t11.5 38q0 43 -30 73.5t-94 30.5q-30 0 -63.5 -10t-58.5 -36t-31 -75l-54 21q5 33 21 60.5t42.5 48.5t63.5 32.5t82 11.5q59 0 98.5 -20t60 -61.5
t20.5 -106.5v-131q0 -29 1.5 -66t4 -73.5t5.5 -65.5h-55q-3 36 -4 68l-2 64h-10q-15 -37 -39.5 -70t-62 -53.5t-90.5 -20.5zM208 41q24 0 48.5 7.5t50 25.5t49 47.5t44.5 72.5v110l29 -5q-14 -18 -42.5 -27t-64.5 -14t-73 -11.5t-68.5 -18.5t-50.5 -34.5t-19 -61.5
q0 -46 27 -68.5t70 -22.5zM259 597l-85 146h71l69 -146h-55z" />
    <glyph glyph-name="aacute" unicode="&#xe1;" horiz-adv-x="539" 
d="M204 -12q-42 0 -76 15.5t-54 48t-20 82.5q0 33 11.5 60.5t37.5 48.5t70.5 35.5t110.5 22.5q42 5 67 10.5t36.5 17.5t11.5 38q0 43 -30 73.5t-94 30.5q-30 0 -63.5 -10t-58.5 -36t-31 -75l-54 21q5 33 21 60.5t42.5 48.5t63.5 32.5t82 11.5q59 0 98.5 -20t60 -61.5
t20.5 -106.5v-131q0 -29 1.5 -66t4 -73.5t5.5 -65.5h-55q-3 36 -4 68l-2 64h-10q-15 -37 -39.5 -70t-62 -53.5t-90.5 -20.5zM208 41q24 0 48.5 7.5t50 25.5t49 47.5t44.5 72.5v110l29 -5q-14 -18 -42.5 -27t-64.5 -14t-73 -11.5t-68.5 -18.5t-50.5 -34.5t-19 -61.5
q0 -46 27 -68.5t70 -22.5zM289 597h-55l70 146h71z" />
    <glyph glyph-name="acircumflex" unicode="&#xe2;" horiz-adv-x="539" 
d="M204 -12q-42 0 -76 15.5t-54 48t-20 82.5q0 33 11.5 60.5t37.5 48.5t70.5 35.5t110.5 22.5q42 5 67 10.5t36.5 17.5t11.5 38q0 43 -30 73.5t-94 30.5q-30 0 -63.5 -10t-58.5 -36t-31 -75l-54 21q5 33 21 60.5t42.5 48.5t63.5 32.5t82 11.5q59 0 98.5 -20t60 -61.5
t20.5 -106.5v-131q0 -29 1.5 -66t4 -73.5t5.5 -65.5h-55q-3 36 -4 68l-2 64h-10q-15 -37 -39.5 -70t-62 -53.5t-90.5 -20.5zM208 41q24 0 48.5 7.5t50 25.5t49 47.5t44.5 72.5v110l29 -5q-14 -18 -42.5 -27t-64.5 -14t-73 -11.5t-68.5 -18.5t-50.5 -34.5t-19 -61.5
q0 -46 27 -68.5t70 -22.5zM137 583v61l138 106l136 -106v-61l-136 107z" />
    <glyph glyph-name="atilde" unicode="&#xe3;" horiz-adv-x="539" 
d="M204 -12q-42 0 -76 15.5t-54 48t-20 82.5q0 33 11.5 60.5t37.5 48.5t70.5 35.5t110.5 22.5q42 5 67 10.5t36.5 17.5t11.5 38q0 43 -30 73.5t-94 30.5q-30 0 -63.5 -10t-58.5 -36t-31 -75l-54 21q5 33 21 60.5t42.5 48.5t63.5 32.5t82 11.5q59 0 98.5 -20t60 -61.5
t20.5 -106.5v-131q0 -29 1.5 -66t4 -73.5t5.5 -65.5h-55q-3 36 -4 68l-2 64h-10q-15 -37 -39.5 -70t-62 -53.5t-90.5 -20.5zM208 41q24 0 48.5 7.5t50 25.5t49 47.5t44.5 72.5v110l29 -5q-14 -18 -42.5 -27t-64.5 -14t-73 -11.5t-68.5 -18.5t-50.5 -34.5t-19 -61.5
q0 -46 27 -68.5t70 -22.5zM349 606q-19 0 -39.5 8t-40.5 18t-37 18t-28 8q-10 0 -17.5 -9.5t-6.5 -35.5h-38q-3 31 2 51.5t17.5 31.5t31.5 11q18 0 39 -8t42 -18t39 -18t28 -8q13 0 21.5 13t6.5 33h37q5 -27 -0.5 -48.5t-19.5 -34t-37 -12.5z" />
    <glyph glyph-name="adieresis" unicode="&#xe4;" horiz-adv-x="539" 
d="M204 -12q-42 0 -76 15.5t-54 48t-20 82.5q0 33 11.5 60.5t37.5 48.5t70.5 35.5t110.5 22.5q42 5 67 10.5t36.5 17.5t11.5 38q0 43 -30 73.5t-94 30.5q-30 0 -63.5 -10t-58.5 -36t-31 -75l-54 21q5 33 21 60.5t42.5 48.5t63.5 32.5t82 11.5q59 0 98.5 -20t60 -61.5
t20.5 -106.5v-131q0 -29 1.5 -66t4 -73.5t5.5 -65.5h-55q-3 36 -4 68l-2 64h-10q-15 -37 -39.5 -70t-62 -53.5t-90.5 -20.5zM208 41q24 0 48.5 7.5t50 25.5t49 47.5t44.5 72.5v110l29 -5q-14 -18 -42.5 -27t-64.5 -14t-73 -11.5t-68.5 -18.5t-50.5 -34.5t-19 -61.5
q0 -46 27 -68.5t70 -22.5zM372 613q-25 0 -36.5 10t-11.5 33q0 20 11.5 30.5t36.5 10.5q24 0 36 -10.5t12 -31.5q0 -22 -12 -32t-36 -10zM179 613q-24 0 -36 10t-12 33q0 20 12 30.5t36 10.5t36 -10.5t12 -31.5q0 -22 -12.5 -32t-35.5 -10z" />
    <glyph glyph-name="aring" unicode="&#xe5;" horiz-adv-x="539" 
d="M204 -12q-42 0 -76 15.5t-54 48t-20 82.5q0 33 11.5 60.5t37.5 48.5t70.5 35.5t110.5 22.5q42 5 67 10.5t36.5 17.5t11.5 38q0 43 -30 73.5t-94 30.5q-30 0 -63.5 -10t-58.5 -36t-31 -75l-54 21q5 33 21 60.5t42.5 48.5t63.5 32.5t82 11.5q59 0 98.5 -20t60 -61.5
t20.5 -106.5v-131q0 -29 1.5 -66t4 -73.5t5.5 -65.5h-55q-3 36 -4 68l-2 64h-10q-15 -37 -39.5 -70t-62 -53.5t-90.5 -20.5zM208 41q24 0 48.5 7.5t50 25.5t49 47.5t44.5 72.5v110l29 -5q-14 -18 -42.5 -27t-64.5 -14t-73 -11.5t-68.5 -18.5t-50.5 -34.5t-19 -61.5
q0 -46 27 -68.5t70 -22.5zM274 584q-35 0 -59.5 20.5t-24.5 61.5t24.5 61.5t58.5 20.5q37 0 61 -22t24 -61q0 -41 -24.5 -61t-59.5 -20zM276 620q18 0 28.5 12t10.5 32q0 23 -10.5 34.5t-29.5 11.5q-18 0 -29.5 -11t-11.5 -33q0 -21 11 -33.5t31 -12.5z" />
    <glyph glyph-name="ae" unicode="&#xe6;" horiz-adv-x="876" 
d="M204 -12q-42 0 -76 15.5t-54 47t-20 80.5q0 50 20.5 81t54 48t74.5 26t81 15q44 7 69 12.5t35 17t10 33.5q0 32 -13 56t-40 38t-69 14q-30 0 -64 -10t-59 -36t-31 -75l-54 21q7 44 32.5 78.5t69.5 54.5t104 20q41 0 70.5 -10t48.5 -29.5t29 -49t10 -68.5h9
q6 45 23.5 75.5t42.5 48t54.5 25.5t57.5 8q43 0 80.5 -15.5t65.5 -49t42.5 -85t11.5 -122.5l-387 -4v50l356 4l-25 -24q0 62 -18 105.5t-51 65.5t-76 22q-49 0 -86 -27t-57.5 -77t-20.5 -120q0 -65 19 -111.5t58 -71t97 -24.5q32 0 56.5 7.5t42.5 23t31 37t20 48.5l50 -20
q-11 -36 -29.5 -64t-44.5 -47t-58 -29t-70 -10q-56 0 -98.5 19.5t-69 57t-36.5 89.5h-11q-12 -32 -30.5 -62t-44.5 -53t-59.5 -36.5t-72.5 -13.5zM208 41q24 0 48.5 7.5t50 25.5t48.5 47t44 73v108l12 -19q-25 -14 -62.5 -20.5t-78.5 -12.5t-77 -17.5t-59 -35t-23 -66.5
q0 -45 27 -67.5t70 -22.5z" />
    <glyph glyph-name="ccedilla" unicode="&#xe7;" horiz-adv-x="538" 
d="M295 -12q-67 0 -112 23t-71.5 61.5t-38.5 85t-12 93.5q0 54 14 103t42 87.5t71 60.5t101 22q56 0 99.5 -20t71 -56.5t33.5 -87.5l-56 -12q-2 25 -17 53.5t-46.5 48.5t-82.5 20q-44 0 -76.5 -17.5t-53.5 -47.5t-32 -69.5t-11 -85.5q0 -59 18.5 -106t57.5 -74.5t102 -27.5
q43 0 75.5 14t53 42t26.5 71l55 -13q-8 -46 -28.5 -78.5t-48.5 -52t-62 -28.5t-72 -9zM199 -241l6 41q20 -4 47 -6.5t52.5 0.5t42.5 15t17 35q0 11 -5 20.5t-18.5 16.5t-38.5 9.5t-64 -0.5l14 111h39l-6 -87q42 6 70 -1t42.5 -25t14.5 -47q0 -36 -21 -56.5t-54 -28.5t-70 -6
t-68 9z" />
    <glyph glyph-name="egrave" unicode="&#xe8;" horiz-adv-x="553" 
d="M296 -12q-59 0 -103 19t-73.5 54t-44.5 82.5t-15 104.5q0 60 15 110t44 87.5t71.5 58t98.5 20.5q45 0 83.5 -15.5t67 -48.5t43.5 -84.5t13 -122.5l-403 -4v51l366 3l-19 -43q4 69 -14.5 115.5t-53.5 70.5t-84 24q-53 0 -91.5 -26.5t-59.5 -76t-21 -119.5
q0 -97 44.5 -151.5t137.5 -54.5q34 0 60 7.5t45 22t32 34.5t20 45l50 -13q-11 -36 -29.5 -64t-45 -47t-60 -29t-74.5 -10zM268 597l-85 146h71l69 -146h-55z" />
    <glyph glyph-name="eacute" unicode="&#xe9;" horiz-adv-x="553" 
d="M296 -12q-59 0 -103 19t-73.5 54t-44.5 82.5t-15 104.5q0 60 15 110t44 87.5t71.5 58t98.5 20.5q45 0 83.5 -15.5t67 -48.5t43.5 -84.5t13 -122.5l-403 -4v51l366 3l-19 -43q4 69 -14.5 115.5t-53.5 70.5t-84 24q-53 0 -91.5 -26.5t-59.5 -76t-21 -119.5
q0 -97 44.5 -151.5t137.5 -54.5q34 0 60 7.5t45 22t32 34.5t20 45l50 -13q-11 -36 -29.5 -64t-45 -47t-60 -29t-74.5 -10zM299 597h-55l70 146h71z" />
    <glyph glyph-name="ecircumflex" unicode="&#xea;" horiz-adv-x="553" 
d="M296 -12q-59 0 -103 19t-73.5 54t-44.5 82.5t-15 104.5q0 60 15 110t44 87.5t71.5 58t98.5 20.5q45 0 83.5 -15.5t67 -48.5t43.5 -84.5t13 -122.5l-403 -4v51l366 3l-19 -43q4 69 -14.5 115.5t-53.5 70.5t-84 24q-53 0 -91.5 -26.5t-59.5 -76t-21 -119.5
q0 -97 44.5 -151.5t137.5 -54.5q34 0 60 7.5t45 22t32 34.5t20 45l50 -13q-11 -36 -29.5 -64t-45 -47t-60 -29t-74.5 -10zM146 583v61l138 106l136 -106v-61l-136 107z" />
    <glyph glyph-name="edieresis" unicode="&#xeb;" horiz-adv-x="553" 
d="M296 -12q-59 0 -103 19t-73.5 54t-44.5 82.5t-15 104.5q0 60 15 110t44 87.5t71.5 58t98.5 20.5q45 0 83.5 -15.5t67 -48.5t43.5 -84.5t13 -122.5l-403 -4v51l366 3l-19 -43q4 69 -14.5 115.5t-53.5 70.5t-84 24q-53 0 -91.5 -26.5t-59.5 -76t-21 -119.5
q0 -97 44.5 -151.5t137.5 -54.5q34 0 60 7.5t45 22t32 34.5t20 45l50 -13q-11 -36 -29.5 -64t-45 -47t-60 -29t-74.5 -10zM381 613q-25 0 -36.5 10t-11.5 33q0 20 11.5 30.5t36.5 10.5q24 0 36 -10.5t12 -31.5q0 -22 -12 -32t-36 -10zM188 613q-24 0 -36 10t-12 33
q0 20 12 30.5t36 10.5t36 -10.5t12 -31.5q0 -22 -12.5 -32t-35.5 -10z" />
    <glyph glyph-name="igrave" unicode="&#xec;" horiz-adv-x="230" 
d="M87 0v512h56v-512h-56zM101 597l-86 146h71l70 -146h-55z" />
    <glyph glyph-name="iacute" unicode="&#xed;" horiz-adv-x="230" 
d="M87 0v512h56v-512h-56zM131 597h-55l70 146h71z" />
    <glyph glyph-name="icircumflex" unicode="&#xee;" horiz-adv-x="230" 
d="M87 0v512h56v-512h-56zM-5 575v63l121 95l120 -95v-63l-120 96z" />
    <glyph glyph-name="idieresis" unicode="&#xef;" horiz-adv-x="230" 
d="M87 0v512h56v-512h-56zM182 614q-19 0 -30 9t-11 32q0 24 11 32t30 8q20 0 31 -9t11 -32q0 -22 -11.5 -31t-30.5 -9zM51 614q-22 0 -33.5 9.5t-11.5 31.5q0 24 11 32t33 8q20 0 31 -9t11 -32q0 -22 -11 -31t-30 -9z" />
    <glyph glyph-name="eth" unicode="&#xf0;" horiz-adv-x="576" 
d="M284 -13q-43 0 -83 14.5t-72 44.5t-50.5 78t-18.5 114q0 81 27.5 137t74 84.5t101.5 28.5q46 0 87 -18.5t70.5 -55.5t40.5 -93h15q-3 24 -14 65.5t-34 87.5t-60.5 86t-94 63.5t-135.5 18.5l-8 54q73 2 130.5 -15t100.5 -47.5t72.5 -71t47.5 -86.5t26.5 -93t8.5 -92
q0 -63 -15 -118.5t-44.5 -97t-73 -65t-99.5 -23.5zM284 41q48 0 80.5 19.5t52.5 50t29 63.5t9 60v9q0 20 -11.5 51.5t-35 63.5t-58 53.5t-79.5 21.5q-42 0 -77 -22.5t-55 -66t-20 -105.5t21 -106.5t58 -68t86 -23.5zM181 575l274 111l17 -29l-277 -112z" />
    <glyph glyph-name="ntilde" unicode="&#xf1;" horiz-adv-x="572" 
d="M87 0v322v190h59l-14 -168h14q15 62 38.5 101.5t59 59t82.5 19.5q82 0 124.5 -59.5t42.5 -171.5v-293h-57v290q0 91 -29.5 135t-86.5 44q-52 0 -90.5 -33.5t-60.5 -87.5t-26 -117v-231h-56zM366 604q-19 0 -39.5 8t-40.5 18t-37 18t-28 8q-10 0 -17.5 -9.5t-6.5 -35.5
h-38q-3 31 2 51.5t17.5 31.5t31.5 11q18 0 39 -8t42 -18t39 -18t28 -8q13 0 21.5 13t6.5 33h37q5 -27 -0.5 -48.5t-19.5 -34t-37 -12.5z" />
    <glyph glyph-name="ograve" unicode="&#xf2;" horiz-adv-x="596" 
d="M300 -12q-71 0 -125 33t-84.5 93.5t-30.5 144.5q0 89 32.5 147.5t86 88t117.5 29.5q67 0 121 -31.5t86.5 -92t32.5 -147.5q0 -86 -31 -145t-84.5 -89.5t-120.5 -30.5zM302 42q54 0 93.5 26.5t61.5 74.5t22 111q0 65 -22.5 113.5t-63.5 75.5t-97 27q-54 0 -94 -25
t-62.5 -71.5t-22.5 -112.5q0 -100 50.5 -159.5t134.5 -59.5zM284 597l-85 146h71l69 -146h-55z" />
    <glyph glyph-name="oacute" unicode="&#xf3;" horiz-adv-x="596" 
d="M300 -12q-71 0 -125 33t-84.5 93.5t-30.5 144.5q0 89 32.5 147.5t86 88t117.5 29.5q67 0 121 -31.5t86.5 -92t32.5 -147.5q0 -86 -31 -145t-84.5 -89.5t-120.5 -30.5zM302 42q54 0 93.5 26.5t61.5 74.5t22 111q0 65 -22.5 113.5t-63.5 75.5t-97 27q-54 0 -94 -25
t-62.5 -71.5t-22.5 -112.5q0 -100 50.5 -159.5t134.5 -59.5zM314 597h-55l70 146h71z" />
    <glyph glyph-name="ocircumflex" unicode="&#xf4;" horiz-adv-x="596" 
d="M300 -12q-71 0 -125 33t-84.5 93.5t-30.5 144.5q0 89 32.5 147.5t86 88t117.5 29.5q67 0 121 -31.5t86.5 -92t32.5 -147.5q0 -86 -31 -145t-84.5 -89.5t-120.5 -30.5zM302 42q54 0 93.5 26.5t61.5 74.5t22 111q0 65 -22.5 113.5t-63.5 75.5t-97 27q-54 0 -94 -25
t-62.5 -71.5t-22.5 -112.5q0 -100 50.5 -159.5t134.5 -59.5zM162 583v61l138 106l136 -106v-61l-136 107z" />
    <glyph glyph-name="otilde" unicode="&#xf5;" horiz-adv-x="596" 
d="M300 -12q-71 0 -125 33t-84.5 93.5t-30.5 144.5q0 89 32.5 147.5t86 88t117.5 29.5q67 0 121 -31.5t86.5 -92t32.5 -147.5q0 -86 -31 -145t-84.5 -89.5t-120.5 -30.5zM302 42q54 0 93.5 26.5t61.5 74.5t22 111q0 65 -22.5 113.5t-63.5 75.5t-97 27q-54 0 -94 -25
t-62.5 -71.5t-22.5 -112.5q0 -100 50.5 -159.5t134.5 -59.5zM374 606q-19 0 -39.5 8t-40.5 18t-37 18t-28 8q-10 0 -17.5 -9.5t-6.5 -35.5h-38q-3 31 2 51.5t17.5 31.5t31.5 11q18 0 39 -8t42 -18t39 -18t28 -8q13 0 21.5 13t6.5 33h37q5 -27 -0.5 -48.5t-19.5 -34
t-37 -12.5z" />
    <glyph glyph-name="odieresis" unicode="&#xf6;" horiz-adv-x="596" 
d="M300 -12q-71 0 -125 33t-84.5 93.5t-30.5 144.5q0 89 32.5 147.5t86 88t117.5 29.5q67 0 121 -31.5t86.5 -92t32.5 -147.5q0 -86 -31 -145t-84.5 -89.5t-120.5 -30.5zM302 42q54 0 93.5 26.5t61.5 74.5t22 111q0 65 -22.5 113.5t-63.5 75.5t-97 27q-54 0 -94 -25
t-62.5 -71.5t-22.5 -112.5q0 -100 50.5 -159.5t134.5 -59.5zM397 613q-25 0 -36.5 10t-11.5 33q0 20 11.5 30.5t36.5 10.5q24 0 36 -10.5t12 -31.5q0 -22 -12 -32t-36 -10zM204 613q-24 0 -36 10t-12 33q0 20 12 30.5t36 10.5t36 -10.5t12 -31.5q0 -22 -12.5 -32t-35.5 -10z
" />
    <glyph glyph-name="divide" unicode="&#xf7;" horiz-adv-x="498" 
d="M63 267v52h372v-52h-372zM248 403q-24 0 -35.5 11t-11.5 31t11.5 30.5t35.5 10.5q25 0 37.5 -10.5t12.5 -30.5q0 -19 -12 -30.5t-38 -11.5zM248 101q-24 0 -35.5 11t-11.5 31t11.5 30t35.5 10q25 0 37.5 -10t12.5 -30t-12 -31t-38 -11z" />
    <glyph glyph-name="oslash" unicode="&#xf8;" horiz-adv-x="596" 
d="M103 -40l318 600h53l-318 -600h-53zM300 -12q-71 0 -125 33t-84.5 93.5t-30.5 144.5q0 89 32.5 147.5t86 88t117.5 29.5q67 0 121 -31.5t86.5 -92t32.5 -147.5q0 -86 -31 -145t-84.5 -89.5t-120.5 -30.5zM302 42q54 0 93.5 26.5t61.5 74.5t22 111q0 65 -22.5 113.5
t-63.5 75.5t-97 27q-54 0 -94 -25t-62.5 -71.5t-22.5 -112.5q0 -100 50.5 -159.5t134.5 -59.5z" />
    <glyph glyph-name="ugrave" unicode="&#xf9;" horiz-adv-x="564" 
d="M246 -12q-82 0 -124.5 58t-42.5 172v294h57v-293q0 -89 28 -132.5t90 -43.5q34 0 61 16t48.5 46t36 71t20.5 91v245h56v-295l1 -217h-58l14 167h-14q-11 -61 -35.5 -101t-59.5 -59t-78 -19zM263 597l-85 146h71l69 -146h-55z" />
    <glyph glyph-name="uacute" unicode="&#xfa;" horiz-adv-x="564" 
d="M246 -12q-82 0 -124.5 58t-42.5 172v294h57v-293q0 -89 28 -132.5t90 -43.5q34 0 61 16t48.5 46t36 71t20.5 91v245h56v-295l1 -217h-58l14 167h-14q-11 -61 -35.5 -101t-59.5 -59t-78 -19zM293 597h-55l70 146h71z" />
    <glyph glyph-name="ucircumflex" unicode="&#xfb;" horiz-adv-x="564" 
d="M246 -12q-82 0 -124.5 58t-42.5 172v294h57v-293q0 -89 28 -132.5t90 -43.5q34 0 61 16t48.5 46t36 71t20.5 91v245h56v-295l1 -217h-58l14 167h-14q-11 -61 -35.5 -101t-59.5 -59t-78 -19zM140 583v61l138 106l136 -106v-61l-136 107z" />
    <glyph glyph-name="udieresis" unicode="&#xfc;" horiz-adv-x="564" 
d="M246 -12q-82 0 -124.5 58t-42.5 172v294h57v-293q0 -89 28 -132.5t90 -43.5q34 0 61 16t48.5 46t36 71t20.5 91v245h56v-295l1 -217h-58l14 167h-14q-11 -61 -35.5 -101t-59.5 -59t-78 -19zM376 613q-25 0 -36.5 10t-11.5 33q0 20 11.5 30.5t36.5 10.5q24 0 36 -10.5
t12 -31.5q0 -22 -12 -32t-36 -10zM183 613q-24 0 -36 10t-12 33q0 20 12 30.5t36 10.5t36 -10.5t12 -31.5q0 -22 -12.5 -32t-35.5 -10z" />
    <glyph glyph-name="yacute" unicode="&#xfd;" horiz-adv-x="573" 
d="M265 -168q-41 0 -79.5 10t-69 31.5t-48.5 55.5l49 28q17 -34 55 -53t90 -19q58 0 97 27t58.5 82.5t19.5 139.5l13 113h-16q-12 -77 -36.5 -122t-58.5 -64t-78 -19q-55 0 -93.5 28t-58.5 82.5t-20 131.5v228h55v-219q0 -99 32.5 -147.5t94.5 -48.5q34 0 61.5 16t48 49
t33 83.5t16.5 120.5v146h57v-383q0 -59 -8.5 -106.5t-26 -83t-44 -60t-62 -36t-81.5 -11.5zM304 597h-55l70 146h71z" />
    <glyph glyph-name="thorn" unicode="&#xfe;" horiz-adv-x="587" 
d="M87 -153v405v439h57v-157q0 -26 -2.5 -56t-5.5 -60t-7 -56h15q9 36 29 73.5t56 63t93 25.5q65 0 110.5 -35t69 -96t23.5 -138q0 -75 -22.5 -135.5t-68 -96.5t-113.5 -36q-50 0 -83.5 20.5t-54 54t-33.5 69.5h-16q2 -16 4 -35t3.5 -39t2 -39.5t0.5 -38.5v-132h-57zM320 41
q46 0 79 25.5t51 73t18 111.5q0 61 -17 110t-50.5 78.5t-83.5 29.5q-36 0 -64.5 -15t-49 -39.5t-34 -53.5t-20 -56.5t-6.5 -48.5v-8q0 -34 12.5 -70.5t36 -67.5t56 -50t72.5 -19z" />
    <glyph glyph-name="ydieresis" unicode="&#xff;" horiz-adv-x="573" 
d="M265 -168q-41 0 -79.5 10t-69 31.5t-48.5 55.5l49 28q17 -34 55 -53t90 -19q58 0 97 27t58.5 82.5t19.5 139.5l13 113h-16q-12 -77 -36.5 -122t-58.5 -64t-78 -19q-55 0 -93.5 28t-58.5 82.5t-20 131.5v228h55v-219q0 -99 32.5 -147.5t94.5 -48.5q34 0 61.5 16t48 49
t33 83.5t16.5 120.5v146h57v-383q0 -59 -8.5 -106.5t-26 -83t-44 -60t-62 -36t-81.5 -11.5zM387 613q-25 0 -36.5 10t-11.5 33q0 20 11.5 30.5t36.5 10.5q24 0 36 -10.5t12 -31.5q0 -22 -12 -32t-36 -10zM194 613q-24 0 -36 10t-12 33q0 20 12 30.5t36 10.5t36 -10.5
t12 -31.5q0 -22 -12.5 -32t-35.5 -10z" />
    <glyph glyph-name="Amacron" unicode="&#x100;" horiz-adv-x="630" 
d="M37 0l236 660h83l236 -660h-60l-212 608h-10l-212 -608h-61zM136 160v51h363v-51h-363zM190 775v50h249v-50h-249z" />
    <glyph glyph-name="amacron" unicode="&#x101;" horiz-adv-x="539" 
d="M204 -12q-42 0 -76 15.5t-54 48t-20 82.5q0 33 11.5 60.5t37.5 48.5t70.5 35.5t110.5 22.5q42 5 67 10.5t36.5 17.5t11.5 38q0 43 -30 73.5t-94 30.5q-30 0 -63.5 -10t-58.5 -36t-31 -75l-54 21q5 33 21 60.5t42.5 48.5t63.5 32.5t82 11.5q59 0 98.5 -20t60 -61.5
t20.5 -106.5v-131q0 -29 1.5 -66t4 -73.5t5.5 -65.5h-55q-3 36 -4 68l-2 64h-10q-15 -37 -39.5 -70t-62 -53.5t-90.5 -20.5zM208 41q24 0 48.5 7.5t50 25.5t49 47.5t44.5 72.5v110l29 -5q-14 -18 -42.5 -27t-64.5 -14t-73 -11.5t-68.5 -18.5t-50.5 -34.5t-19 -61.5
q0 -46 27 -68.5t70 -22.5zM149 627v50h249v-50h-249z" />
    <glyph glyph-name="Abreve" unicode="&#x102;" horiz-adv-x="630" 
d="M37 0l236 660h83l236 -660h-60l-212 608h-10l-212 -608h-61zM136 160v51h363v-51h-363zM196 863h50q-1 -26 12.5 -49.5t56.5 -23.5q41 0 54.5 22.5t13.5 50.5h49q1 -32 -11.5 -58.5t-39 -42.5t-67.5 -16q-42 0 -68.5 16.5t-38.5 43t-11 57.5z" />
    <glyph glyph-name="abreve" unicode="&#x103;" horiz-adv-x="539" 
d="M204 -12q-42 0 -76 15.5t-54 48t-20 82.5q0 33 11.5 60.5t37.5 48.5t70.5 35.5t110.5 22.5q42 5 67 10.5t36.5 17.5t11.5 38q0 43 -30 73.5t-94 30.5q-30 0 -63.5 -10t-58.5 -36t-31 -75l-54 21q5 33 21 60.5t42.5 48.5t63.5 32.5t82 11.5q59 0 98.5 -20t60 -61.5
t20.5 -106.5v-131q0 -29 1.5 -66t4 -73.5t5.5 -65.5h-55q-3 36 -4 68l-2 64h-10q-15 -37 -39.5 -70t-62 -53.5t-90.5 -20.5zM208 41q24 0 48.5 7.5t50 25.5t49 47.5t44.5 72.5v110l29 -5q-14 -18 -42.5 -27t-64.5 -14t-73 -11.5t-68.5 -18.5t-50.5 -34.5t-19 -61.5
q0 -46 27 -68.5t70 -22.5zM156 715h50q-1 -26 12.5 -49.5t56.5 -23.5q41 0 54.5 22.5t13.5 50.5h49q1 -32 -11.5 -58.5t-39 -42.5t-67.5 -16q-42 0 -68.5 16.5t-38.5 43t-11 57.5z" />
    <glyph glyph-name="Aogonek" unicode="&#x104;" horiz-adv-x="630" 
d="M37 0l236 660h83l236 -660h-60l-212 608h-10l-212 -608h-61zM136 160v51h363v-51h-363zM593 -175q-18 -6 -40 -6t-41.5 6.5t-32 22.5t-12.5 41q0 27 14 46.5t35 34t40 22.5v13h35v-5q-31 -16 -51 -44t-20 -52q0 -15 7 -22t17.5 -9t23.5 -0.5t25 3.5v-51z" />
    <glyph glyph-name="aogonek" unicode="&#x105;" horiz-adv-x="539" 
d="M204 -12q-42 0 -76 15.5t-54 48t-20 82.5q0 33 11.5 60.5t37.5 48.5t70.5 35.5t110.5 22.5q42 5 67 10.5t36.5 17.5t11.5 38q0 43 -30 73.5t-94 30.5q-30 0 -63.5 -10t-58.5 -36t-31 -75l-54 21q5 33 21 60.5t42.5 48.5t63.5 32.5t82 11.5q59 0 98.5 -20t60 -61.5
t20.5 -106.5v-131q0 -29 1.5 -66t4 -73.5t5.5 -65.5h-55q-3 36 -4 68l-2 64h-10q-15 -37 -39.5 -70t-62 -53.5t-90.5 -20.5zM208 41q24 0 48.5 7.5t50 25.5t49 47.5t44.5 72.5v110l29 -5q-14 -18 -42.5 -27t-64.5 -14t-73 -11.5t-68.5 -18.5t-50.5 -34.5t-19 -61.5
q0 -46 27 -68.5t70 -22.5zM469 -175q-18 -6 -40 -6t-41.5 6.5t-32 22.5t-12.5 41q0 27 14 46.5t35 34t40 22.5v13h35v-5q-31 -16 -51 -44t-20 -52q0 -15 7 -22t17.5 -9t23.5 -0.5t25 3.5v-51z" />
    <glyph glyph-name="Cacute" unicode="&#x106;" horiz-adv-x="656" 
d="M358 -12q-68 0 -121.5 22.5t-90.5 65.5t-56 105t-19 140q0 79 19.5 143.5t56.5 111t89.5 71.5t118.5 25q50 0 92.5 -14.5t73.5 -42t48.5 -66.5t17.5 -87l-55 -13q1 57 -23 94t-65 55.5t-89 18.5q-46 0 -87.5 -18t-72.5 -54t-49 -92t-18 -133q0 -97 28.5 -157.5t81 -88.5
t123.5 -28q66 0 107.5 22.5t63 66t23.5 106.5l54 -11q-1 -49 -16 -93t-45.5 -77.5t-77.5 -52.5t-112 -19zM350 745h-55l70 146h71z" />
    <glyph glyph-name="cacute" unicode="&#x107;" horiz-adv-x="538" 
d="M295 -12q-67 0 -112 23t-71.5 61.5t-38.5 85t-12 93.5q0 54 14 103t42 87.5t71 60.5t101 22q56 0 99.5 -20t71 -56.5t33.5 -87.5l-56 -12q-2 25 -17 53.5t-46.5 48.5t-82.5 20q-44 0 -76.5 -17.5t-53.5 -47.5t-32 -69.5t-11 -85.5q0 -59 18.5 -106t57.5 -74.5t102 -27.5
q43 0 75.5 14t53 42t26.5 71l55 -13q-8 -46 -28.5 -78.5t-48.5 -52t-62 -28.5t-72 -9zM301 597h-55l70 146h71z" />
    <glyph glyph-name="Cdotaccent" unicode="&#x10a;" horiz-adv-x="656" 
d="M358 -12q-68 0 -121.5 22.5t-90.5 65.5t-56 105t-19 140q0 79 19.5 143.5t56.5 111t89.5 71.5t118.5 25q50 0 92.5 -14.5t73.5 -42t48.5 -66.5t17.5 -87l-55 -13q1 57 -23 94t-65 55.5t-89 18.5q-46 0 -87.5 -18t-72.5 -54t-49 -92t-18 -133q0 -97 28.5 -157.5t81 -88.5
t123.5 -28q66 0 107.5 22.5t63 66t23.5 106.5l54 -11q-1 -49 -16 -93t-45.5 -77.5t-77.5 -52.5t-112 -19zM335 758q-24 0 -36 10t-12 31q0 19 12 29t36 10t36 -10t12 -29q0 -21 -12.5 -31t-35.5 -10z" />
    <glyph glyph-name="cdotaccent" unicode="&#x10b;" horiz-adv-x="538" 
d="M295 -12q-67 0 -112 23t-71.5 61.5t-38.5 85t-12 93.5q0 54 14 103t42 87.5t71 60.5t101 22q56 0 99.5 -20t71 -56.5t33.5 -87.5l-56 -12q-2 25 -17 53.5t-46.5 48.5t-82.5 20q-44 0 -76.5 -17.5t-53.5 -47.5t-32 -69.5t-11 -85.5q0 -59 18.5 -106t57.5 -74.5t102 -27.5
q43 0 75.5 14t53 42t26.5 71l55 -13q-8 -46 -28.5 -78.5t-48.5 -52t-62 -28.5t-72 -9zM286 610q-24 0 -36 10t-12 31q0 19 12 29t36 10t36 -10t12 -29q0 -21 -12.5 -31t-35.5 -10z" />
    <glyph glyph-name="Ccaron" unicode="&#x10c;" horiz-adv-x="656" 
d="M358 -12q-68 0 -121.5 22.5t-90.5 65.5t-56 105t-19 140q0 79 19.5 143.5t56.5 111t89.5 71.5t118.5 25q50 0 92.5 -14.5t73.5 -42t48.5 -66.5t17.5 -87l-55 -13q1 57 -23 94t-65 55.5t-89 18.5q-46 0 -87.5 -18t-72.5 -54t-49 -92t-18 -133q0 -97 28.5 -157.5t81 -88.5
t123.5 -28q66 0 107.5 22.5t63 66t23.5 106.5l54 -11q-1 -49 -16 -93t-45.5 -77.5t-77.5 -52.5t-112 -19zM199 895l137 -106l136 106v-61l-136 -105l-137 105v61z" />
    <glyph glyph-name="ccaron" unicode="&#x10d;" horiz-adv-x="538" 
d="M295 -12q-67 0 -112 23t-71.5 61.5t-38.5 85t-12 93.5q0 54 14 103t42 87.5t71 60.5t101 22q56 0 99.5 -20t71 -56.5t33.5 -87.5l-56 -12q-2 25 -17 53.5t-46.5 48.5t-82.5 20q-44 0 -76.5 -17.5t-53.5 -47.5t-32 -69.5t-11 -85.5q0 -59 18.5 -106t57.5 -74.5t102 -27.5
q43 0 75.5 14t53 42t26.5 71l55 -13q-8 -46 -28.5 -78.5t-48.5 -52t-62 -28.5t-72 -9zM150 747l137 -106l136 106v-61l-136 -105l-137 105v61z" />
    <glyph glyph-name="Dcaron" unicode="&#x10e;" horiz-adv-x="676" 
d="M130 0v53h198q75 0 123.5 36.5t72 98.5t23.5 140q0 72 -15 124t-46 86.5t-78 51.5t-111 17h-167v53h167q106 0 174 -39t101 -112t33 -175q0 -61 -12.5 -113.5t-36 -93t-57.5 -69t-76.5 -43.5t-93.5 -15h-199zM94 0v660h57v-660h-57zM183 895l138 -106l136 106v-61
l-136 -105l-138 105v61z" />
    <glyph glyph-name="dcaron" unicode="&#x10f;" horiz-adv-x="586" 
d="M265 -12q-67 0 -112.5 35.5t-68.5 96t-23 135.5q0 77 24 138t69.5 96t109.5 35q58 0 94 -25.5t56 -63t29 -73.5h14q-3 26 -6.5 58.5t-6 65t-2.5 58.5v147h57l-1 -437l1 -254h-57l9 131h-14q-12 -37 -33 -69.5t-55 -53t-84 -20.5zM266 42q40 0 72.5 19t56 49.5t35.5 67
t12 70.5v8q0 21 -5.5 49t-18.5 56.5t-33.5 53t-48.5 39.5t-65 15q-50 0 -84 -29.5t-51.5 -78.5t-17.5 -110q0 -63 17.5 -110t50.5 -73t80 -26zM568 603q8 32 12.5 57t6 42t1.5 26h56q0 -23 -9.5 -58t-26.5 -67h-40z" />
    <glyph glyph-name="Dcroat" unicode="&#x110;" horiz-adv-x="746" 
d="M69 373h253v-48h-253v48zM199 0v53h198q75 0 123.5 36.5t72 98.5t23.5 140q0 72 -15 124t-45.5 86.5t-78 51.5t-111.5 17h-167v53h167q106 0 174 -39t101 -112t33 -175q0 -61 -12.5 -113.5t-36 -93t-57 -69t-76.5 -43.5t-94 -15h-199zM163 0v660h57v-660h-57z" />
    <glyph glyph-name="dcroat" unicode="&#x111;" horiz-adv-x="568" 
d="M227 631h343v-39h-343v39zM265 -12q-67 0 -112.5 35.5t-68.5 96t-23 135.5q0 77 24 138t69.5 96t109.5 35q58 0 94 -25.5t56 -63t29 -73.5h14q-3 26 -6.5 58.5t-6 65t-2.5 58.5v147h57l-1 -437l1 -254h-57l9 131h-14q-12 -37 -33 -69.5t-55 -53t-84 -20.5zM266 42
q40 0 72.5 19t56 49.5t35.5 67t12 70.5v8q0 21 -5.5 49t-18.5 56.5t-33.5 53t-48.5 39.5t-65 15q-50 0 -84 -29.5t-51.5 -78.5t-17.5 -110q0 -63 17.5 -110t50.5 -73t80 -26z" />
    <glyph glyph-name="Emacron" unicode="&#x112;" horiz-adv-x="566" 
d="M94 0v660h57v-660h-57zM106 0v53h421v-53h-421zM106 313v53h375v-53h-375zM106 607v53h421v-53h-421zM163 775v50h249v-50h-249z" />
    <glyph glyph-name="emacron" unicode="&#x113;" horiz-adv-x="553" 
d="M296 -12q-59 0 -103 19t-73.5 54t-44.5 82.5t-15 104.5q0 60 15 110t44 87.5t71.5 58t98.5 20.5q45 0 83.5 -15.5t67 -48.5t43.5 -84.5t13 -122.5l-403 -4v51l366 3l-19 -43q4 69 -14.5 115.5t-53.5 70.5t-84 24q-53 0 -91.5 -26.5t-59.5 -76t-21 -119.5
q0 -97 44.5 -151.5t137.5 -54.5q34 0 60 7.5t45 22t32 34.5t20 45l50 -13q-11 -36 -29.5 -64t-45 -47t-60 -29t-74.5 -10zM159 627v50h249v-50h-249z" />
    <glyph glyph-name="Edotaccent" unicode="&#x116;" horiz-adv-x="566" 
d="M94 0v660h57v-660h-57zM106 0v53h421v-53h-421zM106 313v53h375v-53h-375zM106 607v53h421v-53h-421zM287 758q-24 0 -36 10t-12 31q0 19 12 29t36 10t36 -10t12 -29q0 -21 -12.5 -31t-35.5 -10z" />
    <glyph glyph-name="edotaccent" unicode="&#x117;" horiz-adv-x="553" 
d="M296 -12q-59 0 -103 19t-73.5 54t-44.5 82.5t-15 104.5q0 60 15 110t44 87.5t71.5 58t98.5 20.5q45 0 83.5 -15.5t67 -48.5t43.5 -84.5t13 -122.5l-403 -4v51l366 3l-19 -43q4 69 -14.5 115.5t-53.5 70.5t-84 24q-53 0 -91.5 -26.5t-59.5 -76t-21 -119.5
q0 -97 44.5 -151.5t137.5 -54.5q34 0 60 7.5t45 22t32 34.5t20 45l50 -13q-11 -36 -29.5 -64t-45 -47t-60 -29t-74.5 -10zM283 610q-24 0 -36 10t-12 31q0 19 12 29t36 10t36 -10t12 -29q0 -21 -12.5 -31t-35.5 -10z" />
    <glyph glyph-name="Eogonek" unicode="&#x118;" horiz-adv-x="566" 
d="M94 0v660h57v-660h-57zM106 0v53h421v-53h-421zM106 313v53h375v-53h-375zM106 607v53h421v-53h-421zM529 -175q-18 -6 -40 -6t-41.5 6.5t-32 22.5t-12.5 41q0 27 14 46.5t35 34t40 22.5v13h35v-5q-31 -16 -51 -44t-20 -52q0 -15 7 -22t17.5 -9t23.5 -0.5t25 3.5v-51z
" />
    <glyph glyph-name="eogonek" unicode="&#x119;" horiz-adv-x="553" 
d="M471 -160q-19 -4 -42 -4.5t-43.5 5.5t-34 21t-13.5 42q0 16 6.5 32t19 31t31.5 27v34l74 52v-5q-15 -25 -34 -49.5t-32.5 -48.5t-13.5 -48q0 -18 8.5 -26.5t22 -10.5t27.5 -0.5t24 3.5v-55zM296 -12q-59 0 -103 19t-73.5 54t-44.5 82.5t-15 104.5q0 60 15 110t44 87.5
t71.5 58t98.5 20.5q45 0 83.5 -15.5t67 -48.5t43.5 -84.5t13 -122.5l-403 -4v51l366 3l-19 -43q4 69 -14.5 115.5t-53.5 70.5t-84 24q-53 0 -91.5 -26.5t-59.5 -76t-21 -119.5q0 -97 44.5 -151.5t137.5 -54.5q34 0 60 7.5t45 22t32 34.5t20 45l50 -13q-11 -36 -29.5 -64
t-45 -47t-60 -29t-74.5 -10z" />
    <glyph glyph-name="Ecaron" unicode="&#x11a;" horiz-adv-x="566" 
d="M94 0v660h57v-660h-57zM106 0v53h421v-53h-421zM106 313v53h375v-53h-375zM106 607v53h421v-53h-421zM151 895l138 -106l135 106v-61l-135 -105l-138 105v61z" />
    <glyph glyph-name="ecaron" unicode="&#x11b;" horiz-adv-x="553" 
d="M296 -12q-59 0 -103 19t-73.5 54t-44.5 82.5t-15 104.5q0 60 15 110t44 87.5t71.5 58t98.5 20.5q45 0 83.5 -15.5t67 -48.5t43.5 -84.5t13 -122.5l-403 -4v51l366 3l-19 -43q4 69 -14.5 115.5t-53.5 70.5t-84 24q-53 0 -91.5 -26.5t-59.5 -76t-21 -119.5
q0 -97 44.5 -151.5t137.5 -54.5q34 0 60 7.5t45 22t32 34.5t20 45l50 -13q-11 -36 -29.5 -64t-45 -47t-60 -29t-74.5 -10zM147 747l137 -106l136 106v-61l-136 -105l-137 105v61z" />
    <glyph glyph-name="Gbreve" unicode="&#x11e;" horiz-adv-x="682" 
d="M347 -12q-81 0 -143.5 37.5t-97.5 113t-35 190.5q0 80 18.5 143t55 108t89.5 68.5t123 23.5q51 0 92.5 -13.5t73 -40t51.5 -65t27 -88.5l-56 -14q-5 63 -33.5 99.5t-69 51.5t-85.5 15q-65 0 -116.5 -28.5t-81 -92t-29.5 -167.5q0 -82 18.5 -137t49 -87t70 -45.5
t79.5 -13.5q58 0 100 23t68.5 70.5t34.5 119.5h-168v53h225v-85v-227h-58l29 187h-12q-12 -68 -39.5 -112t-72 -65.5t-107.5 -21.5zM225 863h50q-1 -26 12.5 -49.5t56.5 -23.5q41 0 54.5 22.5t13.5 50.5h49q1 -32 -11.5 -58.5t-39 -42.5t-67.5 -16q-42 0 -68.5 16.5
t-38.5 43t-11 57.5z" />
    <glyph glyph-name="gbreve" unicode="&#x11f;" horiz-adv-x="570" 
d="M271 -170q-80 0 -130.5 12t-74.5 37t-24 63q0 46 35.5 76t110.5 43v18q-54 -1 -79 13t-25 38q0 27 26 43.5t83 33.5v18q-60 -1 -90.5 34.5t-30.5 91.5q0 53 27.5 89t78 54.5t118.5 18.5h229v-55l-156 26v-17q54 -13 86.5 -45.5t32.5 -85.5q0 -44 -24 -76.5t-72 -50
t-120 -17.5q-15 0 -30 1.5t-34 5.5q-33 -18 -53 -34t-20 -29q0 -14 20.5 -21.5t48.5 -10t51 -2.5h96q20 0 49.5 -4.5t59 -17.5t49.5 -39t20 -70q0 -52 -31.5 -83t-89 -44.5t-137.5 -13.5zM263 -121q71 0 117.5 9.5t69.5 30.5t23 52q0 30 -16.5 46.5t-41 23.5t-49 8.5
t-41.5 1.5h-110q-69 -19 -93 -44.5t-24 -52.5q0 -33 24 -48.5t62 -21t79 -5.5zM284 240q73 0 110.5 27.5t37.5 76.5q0 52 -38 85.5t-115 33.5q-73 0 -112 -31.5t-39 -81.5q0 -34 18 -58.5t52.5 -38t85.5 -13.5zM164 718h50q-1 -26 12.5 -49.5t56.5 -23.5q41 0 54.5 22.5
t13.5 50.5h49q1 -32 -11.5 -58.5t-39 -42.5t-67.5 -16q-42 0 -68.5 16.5t-38.5 43t-11 57.5z" />
    <glyph glyph-name="Gdotaccent" unicode="&#x120;" horiz-adv-x="682" 
d="M347 -12q-81 0 -143.5 37.5t-97.5 113t-35 190.5q0 80 18.5 143t55 108t89.5 68.5t123 23.5q51 0 92.5 -13.5t73 -40t51.5 -65t27 -88.5l-56 -14q-5 63 -33.5 99.5t-69 51.5t-85.5 15q-65 0 -116.5 -28.5t-81 -92t-29.5 -167.5q0 -82 18.5 -137t49 -87t70 -45.5
t79.5 -13.5q58 0 100 23t68.5 70.5t34.5 119.5h-168v53h225v-85v-227h-58l29 187h-12q-12 -68 -39.5 -112t-72 -65.5t-107.5 -21.5zM343 758q-24 0 -36 10t-12 31q0 19 12 29t36 10t36 -10t12 -29q0 -21 -12.5 -31t-35.5 -10z" />
    <glyph glyph-name="gdotaccent" unicode="&#x121;" horiz-adv-x="570" 
d="M271 -170q-80 0 -130.5 12t-74.5 37t-24 63q0 46 35.5 76t110.5 43v18q-54 -1 -79 13t-25 38q0 27 26 43.5t83 33.5v18q-60 -1 -90.5 34.5t-30.5 91.5q0 53 27.5 89t78 54.5t118.5 18.5h229v-55l-156 26v-17q54 -13 86.5 -45.5t32.5 -85.5q0 -44 -24 -76.5t-72 -50
t-120 -17.5q-15 0 -30 1.5t-34 5.5q-33 -18 -53 -34t-20 -29q0 -14 20.5 -21.5t48.5 -10t51 -2.5h96q20 0 49.5 -4.5t59 -17.5t49.5 -39t20 -70q0 -52 -31.5 -83t-89 -44.5t-137.5 -13.5zM263 -121q71 0 117.5 9.5t69.5 30.5t23 52q0 30 -16.5 46.5t-41 23.5t-49 8.5
t-41.5 1.5h-110q-69 -19 -93 -44.5t-24 -52.5q0 -33 24 -48.5t62 -21t79 -5.5zM284 240q73 0 110.5 27.5t37.5 76.5q0 52 -38 85.5t-115 33.5q-73 0 -112 -31.5t-39 -81.5q0 -34 18 -58.5t52.5 -38t85.5 -13.5zM282 613q-24 0 -36 10t-12 31q0 19 12 29t36 10t36 -10t12 -29
q0 -21 -12.5 -31t-35.5 -10z" />
    <glyph glyph-name="uni0122" unicode="&#x122;" horiz-adv-x="682" 
d="M347 -12q-81 0 -143.5 37.5t-97.5 113t-35 190.5q0 80 18.5 143t55 108t89.5 68.5t123 23.5q51 0 92.5 -13.5t73 -40t51.5 -65t27 -88.5l-56 -14q-5 63 -33.5 99.5t-69 51.5t-85.5 15q-65 0 -116.5 -28.5t-81 -92t-29.5 -167.5q0 -82 18.5 -137t49 -87t70 -45.5
t79.5 -13.5q58 0 100 23t68.5 70.5t34.5 119.5h-168v53h225v-85v-227h-58l29 187h-12q-12 -68 -39.5 -112t-72 -65.5t-107.5 -21.5zM296 -222q13 66 17 106t4 59h54q0 -30 -7.5 -72t-22.5 -93h-45z" />
    <glyph glyph-name="uni0123" unicode="&#x123;" horiz-adv-x="570" 
d="M271 -170q-80 0 -130.5 12t-74.5 37t-24 63q0 46 35.5 76t110.5 43v18q-54 -1 -79 13t-25 38q0 27 26 43.5t83 33.5v18q-60 -1 -90.5 34.5t-30.5 91.5q0 53 27.5 89t78 54.5t118.5 18.5h229v-55l-156 26v-17q54 -13 86.5 -45.5t32.5 -85.5q0 -44 -24 -76.5t-72 -50
t-120 -17.5q-15 0 -30 1.5t-34 5.5q-33 -18 -53 -34t-20 -29q0 -14 20.5 -21.5t48.5 -10t51 -2.5h96q20 0 49.5 -4.5t59 -17.5t49.5 -39t20 -70q0 -52 -31.5 -83t-89 -44.5t-137.5 -13.5zM263 -121q71 0 117.5 9.5t69.5 30.5t23 52q0 30 -16.5 46.5t-41 23.5t-49 8.5
t-41.5 1.5h-110q-69 -19 -93 -44.5t-24 -52.5q0 -33 24 -48.5t62 -21t79 -5.5zM284 240q73 0 110.5 27.5t37.5 76.5q0 52 -38 85.5t-115 33.5q-73 0 -112 -31.5t-39 -81.5q0 -34 18 -58.5t52.5 -38t85.5 -13.5zM320 728q-8 -27 -12.5 -51t-6 -42.5t-1.5 -31.5h-56q0 20 4 42
t12.5 44t19.5 39h40z" />
    <glyph glyph-name="Hbar" unicode="&#x126;" horiz-adv-x="842" 
d="M93 541h656v-49h-656v49zM623 0v660h57v-660h-57zM181 0v660h57v-660h-57zM201 313v53h445v-53h-445z" />
    <glyph glyph-name="hbar" unicode="&#x127;" horiz-adv-x="567" 
d="M-2 631h328v-39h-328v39zM81 0v302v389h60v-160q0 -23 -1 -46t-3 -46.5t-5 -47t-6 -47.5h14q15 62 39 102.5t59 59t81 18.5q84 0 126 -59.5t42 -173.5v-291h-57v290q0 95 -29.5 137t-88.5 42q-50 0 -85.5 -29.5t-57.5 -79.5t-32 -114v-246h-56z" />
    <glyph glyph-name="Itilde" unicode="&#x128;" horiz-adv-x="246" 
d="M94 0v660h58v-660h-58zM182 743q-24 0 -45 12.5t-38 25.5t-31 13q-11 0 -16.5 -10t-4.5 -27h-37q-3 27 0 46t14 29.5t31 10.5q25 0 46.5 -13t40 -26t33.5 -13q12 0 17.5 10.5t3.5 27.5h38q4 -23 0 -42.5t-16.5 -31.5t-35.5 -12z" />
    <glyph glyph-name="itilde" unicode="&#x129;" horiz-adv-x="230" 
d="M87 0v512h56v-512h-56zM175 595q-24 0 -45 12.5t-38 25.5t-31 13q-11 0 -16.5 -10t-4.5 -27h-37q-3 27 0 46t14 29.5t31 10.5q25 0 46.5 -13t40 -26t33.5 -13q12 0 17.5 10.5t3.5 27.5h38q4 -23 0 -42.5t-16.5 -31.5t-35.5 -12z" />
    <glyph glyph-name="Imacron" unicode="&#x12a;" horiz-adv-x="246" 
d="M94 0v660h58v-660h-58zM16 771v50h215v-50h-215z" />
    <glyph glyph-name="imacron" unicode="&#x12b;" horiz-adv-x="230" 
d="M87 0v512h56v-512h-56zM9 623v50h215v-50h-215z" />
    <glyph glyph-name="Iogonek" unicode="&#x12e;" horiz-adv-x="246" 
d="M94 0v660h58v-660h-58zM155 -175q-18 -6 -40 -6t-41.5 6.5t-32 22.5t-12.5 41q0 27 14 46.5t35 34t40 22.5v13h35v-5q-31 -16 -51 -44t-20 -52q0 -15 7 -22t17.5 -9t23.5 -0.5t25 3.5v-51z" />
    <glyph glyph-name="iogonek" unicode="&#x12f;" horiz-adv-x="230" 
d="M87 0v512h56v-512h-56zM115 610q-24 0 -36 10t-12 31q0 19 12 29t36 10t36 -10t12 -29q0 -21 -12.5 -31t-35.5 -10zM147 -175q-18 -6 -40 -6t-41.5 6.5t-32 22.5t-12.5 41q0 27 14 46.5t35 34t40 22.5v13h35v-5q-31 -16 -51 -44t-20 -52q0 -15 7 -22t17.5 -9t23.5 -0.5
t25 3.5v-51z" />
    <glyph glyph-name="Idotaccent" unicode="&#x130;" horiz-adv-x="246" 
d="M94 0v660h58v-660h-58zM122 758q-24 0 -36 10t-12 31q0 19 12 29t36 10t36 -10t12 -29q0 -21 -12.5 -31t-35.5 -10z" />
    <glyph glyph-name="dotlessi" unicode="&#x131;" horiz-adv-x="230" 
d="M87 0v512h56v-512h-56z" />
    <glyph glyph-name="IJ" unicode="&#x132;" horiz-adv-x="579" 
d="M94 0v660h58v-660h-58zM270 -10l-18 56q11 -1 19 -1h15q62 0 93 20.5t41.5 60.5t10.5 97v437h56v-437q0 -66 -15 -119t-57.5 -83.5t-124.5 -30.5h-9h-11z" />
    <glyph glyph-name="ij" unicode="&#x133;" horiz-adv-x="476" 
d="M88 0v512h56v-512h-56zM116 610q-24 0 -36 10t-12 31q0 19 12 29t36 10t36 -10t12 -29q0 -21 -12.5 -31t-35.5 -10zM268 -172q-17 0 -38 4t-44 11l-5 57q79 -24 115.5 -9.5t36.5 87.5v534h56v-514q0 -40 -7 -71.5t-21.5 -53.5t-37.5 -33.5t-55 -11.5zM360 610
q-24 0 -36 10t-12 31q0 19 12 29t36 10t36 -10t12 -29q0 -21 -12.5 -31t-35.5 -10z" />
    <glyph glyph-name="uni0136" unicode="&#x136;" horiz-adv-x="635" 
d="M94 0v660h57v-329q60 19 117 51t107.5 75t88.5 94.5t59 108.5h60q-24 -64 -59 -116.5t-78 -93.5t-88.5 -71t-89.5 -48v-12q51 -1 93 -15t76 -41.5t62.5 -69.5t52.5 -100l35 -93h-64l-22 66q-28 72 -63.5 120.5t-89 73.5t-137.5 25h-60v-285h-57zM277 -222q13 66 17 106
t4 59h54q0 -30 -7.5 -72t-22.5 -93h-45z" />
    <glyph glyph-name="uni0137" unicode="&#x137;" horiz-adv-x="517" 
d="M87 0v691h57v-401q44 21 86 50t77.5 61t61 61.5t36.5 49.5h68q-22 -37 -54.5 -74t-70 -69t-74.5 -55.5t-69 -33.5v-9q39 -1 72.5 -18.5t64 -47t60 -68t59.5 -83.5l36 -54h-66l-29 44q-35 53 -71 97t-77.5 70.5t-92.5 26.5h-17v-238h-57zM224 -222q13 66 17 106t4 59h54
q0 -30 -7.5 -72t-22.5 -93h-45z" />
    <glyph glyph-name="Lacute" unicode="&#x139;" horiz-adv-x="506" 
d="M94 0v660h57v-660h-57zM124 0v53h356v-53h-356zM139 745h-55l70 146h71z" />
    <glyph glyph-name="lacute" unicode="&#x13a;" horiz-adv-x="231" 
d="M87 0v691h57v-691h-57zM130 776h-55l70 146h71z" />
    <glyph glyph-name="uni013B" unicode="&#x13b;" horiz-adv-x="506" 
d="M94 0v660h57v-660h-57zM124 0v53h356v-53h-356zM238 -222q13 66 17 106t4 59h54q0 -30 -7.5 -72t-22.5 -93h-45z" />
    <glyph glyph-name="uni013C" unicode="&#x13c;" horiz-adv-x="231" 
d="M87 0v691h57v-691h-57zM71 -222q13 66 17 106t4 59h54q0 -30 -7.5 -72t-22.5 -93h-45z" />
    <glyph glyph-name="Lcaron" unicode="&#x13d;" horiz-adv-x="506" 
d="M94 0v660h57v-660h-57zM124 0v53h356v-53h-356zM295 572q8 32 12.5 57t6 42t1.5 26h56q0 -23 -9.5 -58t-26.5 -67h-40z" />
    <glyph glyph-name="lcaron" unicode="&#x13e;" horiz-adv-x="231" 
d="M87 0v691h57v-691h-57zM219 603q8 32 12.5 57t6 42t1.5 26h56q0 -23 -9.5 -58t-26.5 -67h-40z" />
    <glyph glyph-name="Lslash" unicode="&#x141;" horiz-adv-x="594" 
d="M84 303l356 142v-53l-356 -141v52zM181 0v660h57v-660h-57zM211 0v53h356v-53h-356z" />
    <glyph glyph-name="lslash" unicode="&#x142;" horiz-adv-x="334" 
d="M49 367l236 79v-50l-236 -79v50zM135 0v691h57v-691h-57z" />
    <glyph glyph-name="Nacute" unicode="&#x143;" horiz-adv-x="703" 
d="M94 0v660h79l380 -586h6l-5 586h55v-660h-72l-385 593h-7l5 -593h-56zM368 745h-55l70 146h71z" />
    <glyph glyph-name="nacute" unicode="&#x144;" horiz-adv-x="572" 
d="M87 0v322v190h59l-14 -168h14q15 62 38.5 101.5t59 59t82.5 19.5q82 0 124.5 -59.5t42.5 -171.5v-293h-57v290q0 91 -29.5 135t-86.5 44q-52 0 -90.5 -33.5t-60.5 -87.5t-26 -117v-231h-56zM306 595h-55l70 146h71z" />
    <glyph glyph-name="uni0145" unicode="&#x145;" horiz-adv-x="703" 
d="M94 0v660h79l380 -586h6l-5 586h55v-660h-72l-385 593h-7l5 -593h-56zM306 -222q13 66 17 106t4 59h54q0 -30 -7.5 -72t-22.5 -93h-45z" />
    <glyph glyph-name="uni0146" unicode="&#x146;" horiz-adv-x="572" 
d="M87 0v322v190h59l-14 -168h14q15 62 38.5 101.5t59 59t82.5 19.5q82 0 124.5 -59.5t42.5 -171.5v-293h-57v290q0 91 -29.5 135t-86.5 44q-52 0 -90.5 -33.5t-60.5 -87.5t-26 -117v-231h-56zM244 -222q13 66 17 106t4 59h54q0 -30 -7.5 -72t-22.5 -93h-45z" />
    <glyph glyph-name="Ncaron" unicode="&#x147;" horiz-adv-x="703" 
d="M94 0v660h79l380 -586h6l-5 586h55v-660h-72l-385 593h-7l5 -593h-56zM216 895l138 -106l136 106v-61l-136 -105l-138 105v61z" />
    <glyph glyph-name="ncaron" unicode="&#x148;" horiz-adv-x="572" 
d="M87 0v322v190h59l-14 -168h14q15 62 38.5 101.5t59 59t82.5 19.5q82 0 124.5 -59.5t42.5 -171.5v-293h-57v290q0 91 -29.5 135t-86.5 44q-52 0 -90.5 -33.5t-60.5 -87.5t-26 -117v-231h-56zM154 745l138 -106l136 106v-61l-136 -105l-138 105v61z" />
    <glyph glyph-name="Eng" unicode="&#x14a;" horiz-adv-x="703" 
d="M394 -185l-17 56h17h15q61 0 92 17.5t41.5 47.5t10.5 66v30h56v-30q0 -34 -8 -67.5t-29 -60.5t-60 -43t-100 -16h-8h-10zM94 0v660h79l380 -586h6l-5 586h55v-660h-72l-385 593h-7l5 -593h-56z" />
    <glyph glyph-name="eng" unicode="&#x14b;" horiz-adv-x="572" 
d="M371 -166q-17 0 -37.5 4t-44.5 11l-4 57q77 -24 114 -9.5t37 88.5v33h57v-18q0 -52 -13 -89.5t-39.5 -57t-69.5 -19.5zM87 0v322v190h59l-14 -168h14q15 62 38.5 101.5t59 59t82.5 19.5q82 0 124.5 -59.5t42.5 -171.5v-293h-57v290q0 91 -29.5 135t-86.5 44
q-52 0 -90.5 -33.5t-60.5 -87.5t-26 -117v-231h-56z" />
    <glyph glyph-name="Omacron" unicode="&#x14c;" horiz-adv-x="707" 
d="M354 -12q-72 0 -125 25t-88.5 70.5t-52.5 107.5t-17 137q0 113 36 189.5t99.5 115.5t145.5 39q65 0 117 -23.5t89 -69t57 -110t20 -145.5q0 -73 -17 -134.5t-52 -106.5t-87.5 -70t-124.5 -25zM352 43q72 0 122.5 33.5t76.5 96.5t26 153q0 91 -27 156t-77.5 100t-120.5 35
q-68 0 -118.5 -34t-77.5 -99t-27 -159q0 -68 15 -120.5t43.5 -88.5t70 -54.5t94.5 -18.5zM229 775v50h249v-50h-249z" />
    <glyph glyph-name="omacron" unicode="&#x14d;" horiz-adv-x="596" 
d="M300 -12q-71 0 -125 33t-84.5 93.5t-30.5 144.5q0 89 32.5 147.5t86 88t117.5 29.5q67 0 121 -31.5t86.5 -92t32.5 -147.5q0 -86 -31 -145t-84.5 -89.5t-120.5 -30.5zM302 42q54 0 93.5 26.5t61.5 74.5t22 111q0 65 -22.5 113.5t-63.5 75.5t-97 27q-54 0 -94 -25
t-62.5 -71.5t-22.5 -112.5q0 -100 50.5 -159.5t134.5 -59.5zM174 627v50h249v-50h-249z" />
    <glyph glyph-name="Ohungarumlaut" unicode="&#x150;" horiz-adv-x="707" 
d="M354 -12q-72 0 -125 25t-88.5 70.5t-52.5 107.5t-17 137q0 113 36 189.5t99.5 115.5t145.5 39q65 0 117 -23.5t89 -69t57 -110t20 -145.5q0 -73 -17 -134.5t-52 -106.5t-87.5 -70t-124.5 -25zM352 43q72 0 122.5 33.5t76.5 96.5t26 153q0 91 -27 156t-77.5 100t-120.5 35
q-68 0 -118.5 -34t-77.5 -99t-27 -159q0 -68 15 -120.5t43.5 -88.5t70 -54.5t94.5 -18.5zM301 766h-50l40 128h66zM440 766h-48l40 128h65z" />
    <glyph glyph-name="ohungarumlaut" unicode="&#x151;" horiz-adv-x="596" 
d="M300 -12q-71 0 -125 33t-84.5 93.5t-30.5 144.5q0 89 32.5 147.5t86 88t117.5 29.5q67 0 121 -31.5t86.5 -92t32.5 -147.5q0 -86 -31 -145t-84.5 -89.5t-120.5 -30.5zM302 42q54 0 93.5 26.5t61.5 74.5t22 111q0 65 -22.5 113.5t-63.5 75.5t-97 27q-54 0 -94 -25
t-62.5 -71.5t-22.5 -112.5q0 -100 50.5 -159.5t134.5 -59.5zM246 618h-50l40 128h66zM385 618h-48l40 128h65z" />
    <glyph glyph-name="OE" unicode="&#x152;" horiz-adv-x="972" 
d="M312 -13q-79 0 -132.5 45.5t-81 123t-27.5 173.5q0 98 28.5 175.5t83 123t129.5 45.5q56 0 96 -24t66 -71t40 -114h17q-5 35 -9 64t-6 57.5t-2 58.5v16h54v-660h-57v13q0 26 2 53t5 54l6 54h-18q-8 -48 -31.5 -91t-64 -69.5t-98.5 -26.5zM535 0v53h399v-53h-399zM308 41
q39 0 71 17t57 46.5t42.5 65.5t26 74.5t8.5 75.5v8q0 27 -6.5 64t-21 77t-37.5 74t-56.5 55t-78.5 21q-60 0 -101 -41t-62.5 -108t-21.5 -147q0 -84 21.5 -147.5t61.5 -99t97 -35.5zM535 307v52h353v-52h-353zM535 607v53h399v-53h-399z" />
    <glyph glyph-name="oe" unicode="&#x153;" horiz-adv-x="954" 
d="M291 -12q-69 0 -121 33t-81 93.5t-29 144.5q0 89 30.5 147.5t82.5 88t114 29.5q46 0 86 -16.5t71 -52.5t44 -95h15q11 55 36 91t64 54.5t87 18.5q45 0 83.5 -16t66.5 -49.5t43 -85t13 -120.5l-403 -4v50l347 3q-5 80 -45 123.5t-106 43.5q-50 0 -87 -26.5t-57.5 -75.5
t-20.5 -119q0 -97 43.5 -151.5t131.5 -54.5q34 0 60 7.5t45 23t31 37t19 48.5l51 -20q-10 -35 -29 -63.5t-45 -47.5t-59.5 -29t-72.5 -10q-48 0 -89.5 15.5t-70.5 48.5t-39 87h-13q-17 -57 -47 -90t-67.5 -47t-81.5 -14zM290 42q27 0 57.5 10t57.5 34t44 65t17 103
q0 63 -17.5 104t-45 65.5t-59 35t-58.5 10.5q-26 0 -55.5 -9.5t-55.5 -32.5t-42.5 -63.5t-16.5 -103.5q0 -61 16.5 -103t42.5 -67.5t56.5 -36.5t58.5 -11z" />
    <glyph glyph-name="Racute" unicode="&#x154;" horiz-adv-x="631" 
d="M94 0v660h204q48 0 88 -8t71.5 -23.5t53 -38.5t33 -53.5t11.5 -67.5q0 -35 -10.5 -64.5t-30.5 -51.5t-49.5 -36t-68.5 -19v-11q26 -4 50 -16t44.5 -39t34.5 -76l45 -156h-59l-37 142q-10 41 -34 67.5t-60 40.5t-83 14h-146v-264h-57zM151 317h142q103 0 154 36t51 109
q0 74 -50 109.5t-155 35.5h-142v-290zM315 745h-55l70 146h71z" />
    <glyph glyph-name="racute" unicode="&#x155;" horiz-adv-x="376" 
d="M87 0v297v215h58l-14 -181h15q11 53 29.5 97t48 70.5t71.5 26.5q12 0 26.5 -2t32.5 -9l-4 -58q-14 5 -27.5 8t-26.5 3q-40 0 -68 -30t-48.5 -78.5t-36.5 -104.5v-254h-56zM199 597h-55l70 146h71z" />
    <glyph glyph-name="uni0156" unicode="&#x156;" horiz-adv-x="631" 
d="M94 0v660h204q48 0 88 -8t71.5 -23.5t53 -38.5t33 -53.5t11.5 -67.5q0 -35 -10.5 -64.5t-30.5 -51.5t-49.5 -36t-68.5 -19v-11q26 -4 50 -16t44.5 -39t34.5 -76l45 -156h-59l-37 142q-10 41 -34 67.5t-60 40.5t-83 14h-146v-264h-57zM151 317h142q103 0 154 36t51 109
q0 74 -50 109.5t-155 35.5h-142v-290zM282 -222q13 66 17 106t4 59h54q0 -30 -7.5 -72t-22.5 -93h-45z" />
    <glyph glyph-name="uni0157" unicode="&#x157;" horiz-adv-x="376" 
d="M87 0v297v215h58l-14 -181h15q11 53 29.5 97t48 70.5t71.5 26.5q12 0 26.5 -2t32.5 -9l-4 -58q-14 5 -27.5 8t-26.5 3q-40 0 -68 -30t-48.5 -78.5t-36.5 -104.5v-254h-56zM69 -222q13 66 17 106t4 59h54q0 -30 -7.5 -72t-22.5 -93h-45z" />
    <glyph glyph-name="Rcaron" unicode="&#x158;" horiz-adv-x="631" 
d="M94 0v660h204q48 0 88 -8t71.5 -23.5t53 -38.5t33 -53.5t11.5 -67.5q0 -35 -10.5 -64.5t-30.5 -51.5t-49.5 -36t-68.5 -19v-11q26 -4 50 -16t44.5 -39t34.5 -76l45 -156h-59l-37 142q-10 41 -34 67.5t-60 40.5t-83 14h-146v-264h-57zM151 317h142q103 0 154 36t51 109
q0 74 -50 109.5t-155 35.5h-142v-290zM163 895l138 -106l136 106v-61l-136 -105l-138 105v61z" />
    <glyph glyph-name="rcaron" unicode="&#x159;" horiz-adv-x="376" 
d="M87 0v297v215h58l-14 -181h15q11 53 29.5 97t48 70.5t71.5 26.5q12 0 26.5 -2t32.5 -9l-4 -58q-14 5 -27.5 8t-26.5 3q-40 0 -68 -30t-48.5 -78.5t-36.5 -104.5v-254h-56zM48 747l137 -106l136 106v-61l-136 -105l-137 105v61z" />
    <glyph glyph-name="Sacute" unicode="&#x15a;" horiz-adv-x="623" 
d="M309 -12q-65 0 -114 14.5t-80 43.5t-44.5 70.5t-7.5 95.5l53 4q-7 -58 14.5 -96.5t68 -57.5t111.5 -19q63 0 107 15.5t66.5 44.5t22.5 68q0 43 -25.5 67t-66.5 36.5t-89 22.5q-45 9 -89.5 21t-80.5 32t-58 52.5t-22 83.5q0 58 29 99.5t79.5 64t115.5 22.5t119 -21.5
t87.5 -66t34.5 -113.5l-57 -10q0 39 -13.5 69t-38.5 49.5t-58.5 29.5t-74.5 10q-48 0 -85.5 -16t-59.5 -45t-22 -69q0 -47 30.5 -73t79 -40t102.5 -26q43 -9 82 -21t70 -31.5t49 -50.5t18 -79q0 -54 -28 -94.5t-84 -63t-141 -22.5zM323 745h-55l70 146h71z" />
    <glyph glyph-name="sacute" unicode="&#x15b;" horiz-adv-x="520" 
d="M267 -12q-54 0 -95 12.5t-67.5 35.5t-39 55t-9.5 70l55 5q-5 -42 13.5 -69.5t56 -41.5t88.5 -14q70 0 107.5 24t37.5 66q0 33 -21 51.5t-56.5 29t-80.5 19.5q-35 8 -69.5 18t-62 25.5t-44 40.5t-16.5 62q0 46 24 78.5t67.5 50.5t102.5 18q63 0 105.5 -20.5t64.5 -57.5
t21 -85l-54 -8q1 40 -16.5 66t-50 39t-76.5 13q-61 0 -96.5 -24t-35.5 -66q0 -32 20.5 -50.5t55 -28.5t75.5 -19q39 -8 74.5 -18t63 -25.5t44 -41t16.5 -64.5q0 -50 -26 -82.5t-71.5 -48t-104.5 -15.5zM274 597h-55l70 146h71z" />
    <glyph glyph-name="Scedilla" unicode="&#x15e;" horiz-adv-x="623" 
d="M309 -12q-65 0 -114 14.5t-80 43.5t-44.5 70.5t-7.5 95.5l53 4q-7 -58 14.5 -96.5t68 -57.5t111.5 -19q63 0 107 15.5t66.5 44.5t22.5 68q0 43 -25.5 67t-66.5 36.5t-89 22.5q-45 9 -89.5 21t-80.5 32t-58 52.5t-22 83.5q0 58 29 99.5t79.5 64t115.5 22.5t119 -21.5
t87.5 -66t34.5 -113.5l-57 -10q0 39 -13.5 69t-38.5 49.5t-58.5 29.5t-74.5 10q-48 0 -85.5 -16t-59.5 -45t-22 -69q0 -47 30.5 -73t79 -40t102.5 -26q43 -9 82 -21t70 -31.5t49 -50.5t18 -79q0 -54 -28 -94.5t-84 -63t-141 -22.5zM217 -241l6 41q20 -4 47 -6.5t52.5 0.5
t42.5 15t17 35q0 11 -5 20.5t-18.5 16.5t-38.5 9.5t-64 -0.5l14 111h39l-6 -87q42 6 70 -1t42.5 -25t14.5 -47q0 -36 -21 -56.5t-54 -28.5t-70 -6t-68 9z" />
    <glyph glyph-name="scedilla" unicode="&#x15f;" horiz-adv-x="520" 
d="M267 -12q-54 0 -95 12.5t-67.5 35.5t-39 55t-9.5 70l55 5q-5 -42 13.5 -69.5t56 -41.5t88.5 -14q70 0 107.5 24t37.5 66q0 33 -21 51.5t-56.5 29t-80.5 19.5q-35 8 -69.5 18t-62 25.5t-44 40.5t-16.5 62q0 46 24 78.5t67.5 50.5t102.5 18q63 0 105.5 -20.5t64.5 -57.5
t21 -85l-54 -8q1 40 -16.5 66t-50 39t-76.5 13q-61 0 -96.5 -24t-35.5 -66q0 -32 20.5 -50.5t55 -28.5t75.5 -19q39 -8 74.5 -18t63 -25.5t44 -41t16.5 -64.5q0 -50 -26 -82.5t-71.5 -48t-104.5 -15.5zM166 -241l6 41q20 -4 47 -6.5t52.5 0.5t42.5 15t17 35q0 11 -5 20.5
t-18.5 16.5t-38.5 9.5t-64 -0.5l14 111h39l-6 -87q42 6 70 -1t42.5 -25t14.5 -47q0 -36 -21 -56.5t-54 -28.5t-70 -6t-68 9z" />
    <glyph glyph-name="Scaron" unicode="&#x160;" horiz-adv-x="623" 
d="M309 -12q-65 0 -114 14.5t-80 43.5t-44.5 70.5t-7.5 95.5l53 4q-7 -58 14.5 -96.5t68 -57.5t111.5 -19q63 0 107 15.5t66.5 44.5t22.5 68q0 43 -25.5 67t-66.5 36.5t-89 22.5q-45 9 -89.5 21t-80.5 32t-58 52.5t-22 83.5q0 58 29 99.5t79.5 64t115.5 22.5t119 -21.5
t87.5 -66t34.5 -113.5l-57 -10q0 39 -13.5 69t-38.5 49.5t-58.5 29.5t-74.5 10q-48 0 -85.5 -16t-59.5 -45t-22 -69q0 -47 30.5 -73t79 -40t102.5 -26q43 -9 82 -21t70 -31.5t49 -50.5t18 -79q0 -54 -28 -94.5t-84 -63t-141 -22.5zM172 895l137 -106l136 106v-61l-136 -105
l-137 105v61z" />
    <glyph glyph-name="scaron" unicode="&#x161;" horiz-adv-x="520" 
d="M267 -12q-54 0 -95 12.5t-67.5 35.5t-39 55t-9.5 70l55 5q-5 -42 13.5 -69.5t56 -41.5t88.5 -14q70 0 107.5 24t37.5 66q0 33 -21 51.5t-56.5 29t-80.5 19.5q-35 8 -69.5 18t-62 25.5t-44 40.5t-16.5 62q0 46 24 78.5t67.5 50.5t102.5 18q63 0 105.5 -20.5t64.5 -57.5
t21 -85l-54 -8q1 40 -16.5 66t-50 39t-76.5 13q-61 0 -96.5 -24t-35.5 -66q0 -32 20.5 -50.5t55 -28.5t75.5 -19q39 -8 74.5 -18t63 -25.5t44 -41t16.5 -64.5q0 -50 -26 -82.5t-71.5 -48t-104.5 -15.5zM122 747l138 -106l135 106v-61l-135 -105l-138 105v61z" />
    <glyph glyph-name="Tcaron" unicode="&#x164;" horiz-adv-x="526" 
d="M235 0v660h57v-660h-57zM30 607v53h467v-53h-467zM126 895l138 -106l135 106v-61l-135 -105l-138 105v61z" />
    <glyph glyph-name="tcaron" unicode="&#x165;" horiz-adv-x="354" 
d="M226 -9q-61 0 -92 34t-31 100v336h-78v51h46q21 0 30 8.5t11 27.5l8 80h39v-116h158v-51h-158v-337q0 -43 19 -61.5t54 -18.5q19 0 41 5.5t47 24.5v-62q-27 -11 -50.5 -16t-43.5 -5zM243 600q8 32 12.5 57t6 42t1.5 26h56q0 -23 -9.5 -58t-26.5 -67h-40z" />
    <glyph glyph-name="Utilde" unicode="&#x168;" horiz-adv-x="704" 
d="M352 -12q-50 0 -91.5 11t-73.5 32.5t-53.5 52.5t-33 71.5t-11.5 89.5v415h57v-412q0 -67 24 -112.5t70 -69t112 -23.5q68 0 113.5 23t69 69t23.5 113v412h57v-415q0 -123 -68.5 -190t-194.5 -67zM427 754q-19 0 -39.5 8t-40.5 18t-37 18t-28 8q-10 0 -17.5 -9.5
t-6.5 -35.5h-38q-3 31 2 51.5t17.5 31.5t31.5 11q18 0 39 -8t42 -18t39 -18t28 -8q13 0 21.5 13t6.5 33h37q5 -27 -0.5 -48.5t-19.5 -34t-37 -12.5z" />
    <glyph glyph-name="utilde" unicode="&#x169;" horiz-adv-x="564" 
d="M246 -12q-82 0 -124.5 58t-42.5 172v294h57v-293q0 -89 28 -132.5t90 -43.5q34 0 61 16t48.5 46t36 71t20.5 91v245h56v-295l1 -217h-58l14 167h-14q-11 -61 -35.5 -101t-59.5 -59t-78 -19zM353 606q-19 0 -39.5 8t-40.5 18t-37 18t-28 8q-10 0 -17.5 -9.5t-6.5 -35.5
h-38q-3 31 2 51.5t17.5 31.5t31.5 11q18 0 39 -8t42 -18t39 -18t28 -8q13 0 21.5 13t6.5 33h37q5 -27 -0.5 -48.5t-19.5 -34t-37 -12.5z" />
    <glyph glyph-name="Umacron" unicode="&#x16a;" horiz-adv-x="704" 
d="M352 -12q-50 0 -91.5 11t-73.5 32.5t-53.5 52.5t-33 71.5t-11.5 89.5v415h57v-412q0 -67 24 -112.5t70 -69t112 -23.5q68 0 113.5 23t69 69t23.5 113v412h57v-415q0 -123 -68.5 -190t-194.5 -67zM227 775v50h249v-50h-249z" />
    <glyph glyph-name="umacron" unicode="&#x16b;" horiz-adv-x="564" 
d="M246 -12q-82 0 -124.5 58t-42.5 172v294h57v-293q0 -89 28 -132.5t90 -43.5q34 0 61 16t48.5 46t36 71t20.5 91v245h56v-295l1 -217h-58l14 167h-14q-11 -61 -35.5 -101t-59.5 -59t-78 -19zM153 627v50h249v-50h-249z" />
    <glyph glyph-name="Ubreve" unicode="&#x16c;" horiz-adv-x="704" 
d="M352 -12q-50 0 -91.5 11t-73.5 32.5t-53.5 52.5t-33 71.5t-11.5 89.5v415h57v-412q0 -67 24 -112.5t70 -69t112 -23.5q68 0 113.5 23t69 69t23.5 113v412h57v-415q0 -123 -68.5 -190t-194.5 -67zM233 863h50q-1 -26 12.5 -49.5t56.5 -23.5q41 0 54.5 22.5t13.5 50.5h49
q1 -32 -11.5 -58.5t-39 -42.5t-67.5 -16q-42 0 -68.5 16.5t-38.5 43t-11 57.5z" />
    <glyph glyph-name="ubreve" unicode="&#x16d;" horiz-adv-x="564" 
d="M246 -12q-82 0 -124.5 58t-42.5 172v294h57v-293q0 -89 28 -132.5t90 -43.5q34 0 61 16t48.5 46t36 71t20.5 91v245h56v-295l1 -217h-58l14 167h-14q-11 -61 -35.5 -101t-59.5 -59t-78 -19zM160 715h50q-1 -26 12.5 -49.5t56.5 -23.5q41 0 54.5 22.5t13.5 50.5h49
q1 -32 -11.5 -58.5t-39 -42.5t-67.5 -16q-42 0 -68.5 16.5t-38.5 43t-11 57.5z" />
    <glyph glyph-name="Uring" unicode="&#x16e;" horiz-adv-x="704" 
d="M352 -12q-50 0 -91.5 11t-73.5 32.5t-53.5 52.5t-33 71.5t-11.5 89.5v415h57v-412q0 -67 24 -112.5t70 -69t112 -23.5q68 0 113.5 23t69 69t23.5 113v412h57v-415q0 -123 -68.5 -190t-194.5 -67zM352 732q-35 0 -59.5 20.5t-24.5 61.5t24.5 61.5t58.5 20.5q37 0 61 -22
t24 -61q0 -41 -24.5 -61t-59.5 -20zM354 768q18 0 28.5 12t10.5 32q0 23 -10.5 34.5t-29.5 11.5q-18 0 -29.5 -11t-11.5 -33q0 -21 11 -33.5t31 -12.5z" />
    <glyph glyph-name="uring" unicode="&#x16f;" horiz-adv-x="564" 
d="M246 -12q-82 0 -124.5 58t-42.5 172v294h57v-293q0 -89 28 -132.5t90 -43.5q34 0 61 16t48.5 46t36 71t20.5 91v245h56v-295l1 -217h-58l14 167h-14q-11 -61 -35.5 -101t-59.5 -59t-78 -19zM278 584q-35 0 -59.5 20.5t-24.5 61.5t24.5 61.5t58.5 20.5q37 0 61 -22t24 -61
q0 -41 -24.5 -61t-59.5 -20zM280 620q18 0 28.5 12t10.5 32q0 23 -10.5 34.5t-29.5 11.5q-18 0 -29.5 -11t-11.5 -33q0 -21 11 -33.5t31 -12.5z" />
    <glyph glyph-name="Uhungarumlaut" unicode="&#x170;" horiz-adv-x="704" 
d="M352 -12q-50 0 -91.5 11t-73.5 32.5t-53.5 52.5t-33 71.5t-11.5 89.5v415h57v-412q0 -67 24 -112.5t70 -69t112 -23.5q68 0 113.5 23t69 69t23.5 113v412h57v-415q0 -123 -68.5 -190t-194.5 -67zM298 766h-50l40 128h66zM437 766h-48l40 128h65z" />
    <glyph glyph-name="uhungarumlaut" unicode="&#x171;" horiz-adv-x="564" 
d="M246 -12q-82 0 -124.5 58t-42.5 172v294h57v-293q0 -89 28 -132.5t90 -43.5q34 0 61 16t48.5 46t36 71t20.5 91v245h56v-295l1 -217h-58l14 167h-14q-11 -61 -35.5 -101t-59.5 -59t-78 -19zM225 618h-50l40 128h66zM364 618h-48l40 128h65z" />
    <glyph glyph-name="Uogonek" unicode="&#x172;" horiz-adv-x="704" 
d="M413 -175q-18 -3 -39.5 -4t-41.5 3.5t-32.5 17.5t-12.5 38q0 28 16 48t37 32.5t34 18.5v13l38 2v-4q-33 -19 -52.5 -46t-19.5 -47q0 -12 7.5 -17.5t18.5 -6.5t24 0.5t23 2.5v-51zM352 -12q-50 0 -91.5 11t-73.5 32.5t-53.5 52.5t-33 71.5t-11.5 89.5v415h57v-412
q0 -67 24 -112.5t70 -69t112 -23.5q68 0 113.5 23t69 69t23.5 113v412h57v-415q0 -123 -68.5 -190t-194.5 -67z" />
    <glyph glyph-name="uogonek" unicode="&#x173;" horiz-adv-x="564" 
d="M246 -12q-82 0 -124.5 58t-42.5 172v294h57v-293q0 -89 28 -132.5t90 -43.5q34 0 61 16t48.5 46t36 71t20.5 91v245h56v-295l1 -217h-58l14 167h-14q-11 -61 -35.5 -101t-59.5 -59t-78 -19zM479 -175q-18 -6 -40 -6t-41.5 6.5t-32 22.5t-12.5 41q0 27 14 46.5t35 34
t40 22.5v13h35v-5q-31 -16 -51 -44t-20 -52q0 -15 7 -22t17.5 -9t23.5 -0.5t25 3.5v-51z" />
    <glyph glyph-name="Wcircumflex" unicode="&#x174;" horiz-adv-x="913" 
d="M217 0l-176 660h60l155 -603h8l150 603h84l146 -603h8l159 603h61l-181 -660h-86l-145 603h-7l-150 -603h-86zM319 731v61l138 106l136 -106v-61l-136 107z" />
    <glyph glyph-name="wcircumflex" unicode="&#x175;" horiz-adv-x="772" 
d="M174 0l-142 512h57l120 -459h14l123 459h82l123 -459h11l122 459h57l-144 -512h-80l-125 460h-8l-126 -460h-84zM252 583v61l138 106l136 -106v-61l-136 107z" />
    <glyph glyph-name="Ycircumflex" unicode="&#x176;" horiz-adv-x="538" 
d="M241 0v218l-223 442h63l187 -380h4l185 380h64l-223 -442v-218h-57zM132 731v61l138 106l136 -106v-61l-136 107z" />
    <glyph glyph-name="ycircumflex" unicode="&#x177;" horiz-adv-x="573" 
d="M265 -168q-41 0 -79.5 10t-69 31.5t-48.5 55.5l49 28q17 -34 55 -53t90 -19q58 0 97 27t58.5 82.5t19.5 139.5l13 113h-16q-12 -77 -36.5 -122t-58.5 -64t-78 -19q-55 0 -93.5 28t-58.5 82.5t-20 131.5v228h55v-219q0 -99 32.5 -147.5t94.5 -48.5q34 0 61.5 16t48 49
t33 83.5t16.5 120.5v146h57v-383q0 -59 -8.5 -106.5t-26 -83t-44 -60t-62 -36t-81.5 -11.5zM151 583v61l138 106l136 -106v-61l-136 107z" />
    <glyph glyph-name="Ydieresis" unicode="&#x178;" horiz-adv-x="538" 
d="M241 0v218l-223 442h63l187 -380h4l185 380h64l-223 -442v-218h-57zM367 761q-25 0 -36.5 10t-11.5 33q0 20 11.5 30.5t36.5 10.5q24 0 36 -10.5t12 -31.5q0 -22 -12 -32t-36 -10zM174 761q-24 0 -36 10t-12 33q0 20 12 30.5t36 10.5t36 -10.5t12 -31.5q0 -22 -12.5 -32
t-35.5 -10z" />
    <glyph glyph-name="Zacute" unicode="&#x179;" horiz-adv-x="543" 
d="M36 0v58l392 536v13h-376v53h446v-60l-393 -535v-12h403v-53h-472zM286 745h-55l70 146h71z" />
    <glyph glyph-name="zacute" unicode="&#x17a;" horiz-adv-x="463" 
d="M37 0v57l309 391v12h-308v52h387v-51l-317 -396v-12h318v-53h-389zM250 597h-55l70 146h71z" />
    <glyph glyph-name="Zdotaccent" unicode="&#x17b;" horiz-adv-x="543" 
d="M36 0v58l392 536v13h-376v53h446v-60l-393 -535v-12h403v-53h-472zM270 758q-24 0 -36 10t-12 31q0 19 12 29t36 10t36 -10t12 -29q0 -21 -12.5 -31t-35.5 -10z" />
    <glyph glyph-name="zdotaccent" unicode="&#x17c;" horiz-adv-x="463" 
d="M37 0v57l309 391v12h-308v52h387v-51l-317 -396v-12h318v-53h-389zM234 610q-24 0 -36 10t-12 31q0 19 12 29t36 10t36 -10t12 -29q0 -21 -12.5 -31t-35.5 -10z" />
    <glyph glyph-name="Zcaron" unicode="&#x17d;" horiz-adv-x="543" 
d="M36 0v58l392 536v13h-376v53h446v-60l-393 -535v-12h403v-53h-472zM134 895l138 -106l136 106v-61l-136 -105l-138 105v61z" />
    <glyph glyph-name="zcaron" unicode="&#x17e;" horiz-adv-x="463" 
d="M37 0v58l309 390v12h-308v52h387v-51l-317 -396v-12h318v-53h-389zM98 747l138 -106l135 106v-61l-135 -105l-138 105v61z" />
    <glyph glyph-name="Ohorn" unicode="&#x1a0;" horiz-adv-x="707" 
d="M499 637l-60 4l2 8q46 0 64 15t19.5 42t-1.5 60h51q7 -48 0 -77t-26 -41.5t-49 -10.5zM354 -12q-72 0 -125 25t-88.5 70.5t-52.5 107.5t-17 137q0 113 36 189.5t99.5 115.5t145.5 39q65 0 117 -23.5t89 -69t57 -110t20 -145.5q0 -73 -17 -134.5t-52 -106.5t-87.5 -70
t-124.5 -25zM352 43q72 0 122.5 33.5t76.5 96.5t26 153q0 91 -27 156t-77.5 100t-120.5 35q-68 0 -118.5 -34t-77.5 -99t-27 -159q0 -68 15 -120.5t43.5 -88.5t70 -54.5t94.5 -18.5z" />
    <glyph glyph-name="ohorn" unicode="&#x1a1;" horiz-adv-x="606" 
d="M421 494l-57 5l2 13q43 0 61 15.5t21 40.5t0 54h52q7 -40 1.5 -69.5t-25 -45t-55.5 -13.5zM300 -12q-71 0 -125 33t-84.5 93.5t-30.5 144.5q0 89 32.5 147.5t86 88t117.5 29.5q67 0 121 -31.5t86.5 -92t32.5 -147.5q0 -86 -31 -145t-84.5 -89.5t-120.5 -30.5zM302 42
q54 0 93.5 26.5t61.5 74.5t22 111q0 65 -22.5 113.5t-63.5 75.5t-97 27q-54 0 -94 -25t-62.5 -71.5t-22.5 -112.5q0 -100 50.5 -159.5t134.5 -59.5z" />
    <glyph glyph-name="Uhorn" unicode="&#x1af;" horiz-adv-x="704" 
d="M352 -12q-50 0 -91.5 11t-73.5 32.5t-53.5 52.5t-33 71.5t-11.5 89.5v415h57v-412q0 -67 24 -112.5t70 -69t112 -23.5q68 0 113.5 23t69 69t23.5 113v412h57v-415q0 -123 -68.5 -190t-194.5 -67zM631 642l-53 5l2 13q34 0 51 11t23 28t5 35.5t-4 35.5h52q6 -38 1.5 -68
t-23 -46.5t-54.5 -13.5z" />
    <glyph glyph-name="uhorn" unicode="&#x1b0;" horiz-adv-x="610" 
d="M246 -12q-82 0 -124.5 58t-42.5 172v294h57v-293q0 -89 28 -132.5t90 -43.5q34 0 61 16t48.5 46t36 71t20.5 91v245h56v-295l1 -217h-58l14 167h-14q-11 -61 -35.5 -101t-59.5 -59t-78 -19zM492 494l-53 5l2 13q34 0 51 11t23 28t5 35.5t-4 35.5h52q6 -38 1.5 -68
t-23 -46.5t-54.5 -13.5z" />
    <glyph glyph-name="uni01CD" unicode="&#x1cd;" horiz-adv-x="630" 
d="M37 0l236 660h83l236 -660h-60l-212 608h-10l-212 -608h-61zM136 160v51h363v-51h-363zM178 895l137 -106l136 106v-61l-136 -105l-137 105v61z" />
    <glyph glyph-name="uni01CE" unicode="&#x1ce;" horiz-adv-x="539" 
d="M204 -12q-42 0 -76 15.5t-54 48t-20 82.5q0 33 11.5 60.5t37.5 48.5t70.5 35.5t110.5 22.5q42 5 67 10.5t36.5 17.5t11.5 38q0 43 -30 73.5t-94 30.5q-30 0 -63.5 -10t-58.5 -36t-31 -75l-54 21q5 33 21 60.5t42.5 48.5t63.5 32.5t82 11.5q59 0 98.5 -20t60 -61.5
t20.5 -106.5v-131q0 -29 1.5 -66t4 -73.5t5.5 -65.5h-55q-3 36 -4 68l-2 64h-10q-15 -37 -39.5 -70t-62 -53.5t-90.5 -20.5zM208 41q24 0 48.5 7.5t50 25.5t49 47.5t44.5 72.5v110l29 -5q-14 -18 -42.5 -27t-64.5 -14t-73 -11.5t-68.5 -18.5t-50.5 -34.5t-19 -61.5
q0 -46 27 -68.5t70 -22.5zM137 747l138 -106l136 106v-61l-136 -105l-138 105v61z" />
    <glyph glyph-name="uni0218" unicode="&#x218;" horiz-adv-x="623" 
d="M309 -12q-65 0 -114 14.5t-80 43.5t-44.5 70.5t-7.5 95.5l53 4q-7 -58 14.5 -96.5t68 -57.5t111.5 -19q63 0 107 15.5t66.5 44.5t22.5 68q0 43 -25.5 67t-66.5 36.5t-89 22.5q-45 9 -89.5 21t-80.5 32t-58 52.5t-22 83.5q0 58 29 99.5t79.5 64t115.5 22.5t119 -21.5
t87.5 -66t34.5 -113.5l-57 -10q0 39 -13.5 69t-38.5 49.5t-58.5 29.5t-74.5 10q-48 0 -85.5 -16t-59.5 -45t-22 -69q0 -47 30.5 -73t79 -40t102.5 -26q43 -9 82 -21t70 -31.5t49 -50.5t18 -79q0 -54 -28 -94.5t-84 -63t-141 -22.5zM265 -222q13 66 17 106t4 59h54
q0 -30 -7.5 -72t-22.5 -93h-45z" />
    <glyph glyph-name="uni0219" unicode="&#x219;" horiz-adv-x="520" 
d="M267 -12q-54 0 -95 12.5t-67.5 35.5t-39 55t-9.5 70l55 5q-5 -42 13.5 -69.5t56 -41.5t88.5 -14q70 0 107.5 24t37.5 66q0 33 -21 51.5t-56.5 29t-80.5 19.5q-35 8 -69.5 18t-62 25.5t-44 40.5t-16.5 62q0 46 24 78.5t67.5 50.5t102.5 18q63 0 105.5 -20.5t64.5 -57.5
t21 -85l-54 -8q1 40 -16.5 66t-50 39t-76.5 13q-61 0 -96.5 -24t-35.5 -66q0 -32 20.5 -50.5t55 -28.5t75.5 -19q39 -8 74.5 -18t63 -25.5t44 -41t16.5 -64.5q0 -50 -26 -82.5t-71.5 -48t-104.5 -15.5zM214 -222q13 66 17 106t4 59h54q0 -30 -7.5 -72t-22.5 -93h-45z" />
    <glyph glyph-name="uni021A" unicode="&#x21a;" horiz-adv-x="526" 
d="M235 0v660h57v-660h-57zM30 607v53h467v-53h-467zM216 -222q13 66 17 106t4 59h54q0 -30 -7.5 -72t-22.5 -93h-45z" />
    <glyph glyph-name="uni021B" unicode="&#x21b;" horiz-adv-x="354" 
d="M226 -9q-61 0 -92 34t-31 100v336h-78v51h46q21 0 30 8.5t11 27.5l8 80h39v-116h158v-51h-158v-337q0 -43 19 -61.5t54 -18.5q19 0 41 5.5t47 24.5v-62q-27 -11 -50.5 -16t-43.5 -5zM159 -222q13 66 17 106t4 59h54q0 -30 -7.5 -72t-22.5 -93h-45z" />
    <glyph glyph-name="uni0237" unicode="&#x237;" horiz-adv-x="244" 
d="M36 -172q-17 0 -38 4t-44 11l-5 57q79 -24 115.5 -9.5t36.5 87.5v534h56v-514q0 -40 -7 -71.5t-21.5 -53.5t-37.5 -33.5t-55 -11.5z" />
    <glyph glyph-name="circumflex" unicode="&#x2c6;" horiz-adv-x="314" 
d="M20 583v61l138 106l136 -106v-61l-136 107z" />
    <glyph glyph-name="caron" unicode="&#x2c7;" horiz-adv-x="314" 
d="M20 747l138 -106l136 106v-61l-136 -105l-138 105v61z" />
    <glyph glyph-name="breve" unicode="&#x2d8;" horiz-adv-x="224" 
d="M20 715h50q-1 -26 12.5 -49.5t56.5 -23.5q41 0 54.5 22.5t13.5 50.5h49q1 -32 -11.5 -58.5t-39 -42.5t-67.5 -16q-42 0 -68.5 16.5t-38.5 43t-11 57.5z" />
    <glyph glyph-name="dotaccent" unicode="&#x2d9;" horiz-adv-x="136" 
d="M68 610q-24 0 -36 10t-12 31q0 19 12 29t36 10t36 -10t12 -29q0 -21 -12.5 -31t-35.5 -10z" />
    <glyph glyph-name="ring" unicode="&#x2da;" horiz-adv-x="208" 
d="M104 584q-35 0 -59.5 20.5t-24.5 61.5t24.5 61.5t58.5 20.5q37 0 61 -22t24 -61q0 -41 -24.5 -61t-59.5 -20zM106 620q18 0 28.5 12t10.5 32q0 23 -10.5 34.5t-29.5 11.5q-18 0 -29.5 -11t-11.5 -33q0 -21 11 -33.5t31 -12.5z" />
    <glyph glyph-name="ogonek" unicode="&#x2db;" horiz-adv-x="158" 
d="M146 -175q-18 -6 -40 -6t-41.5 6.5t-32 22.5t-12.5 41q0 27 14 46.5t35 34t40 22.5v13h35v-5q-31 -16 -51 -44t-20 -52q0 -15 7 -22t17.5 -9t23.5 -0.5t25 3.5v-51z" />
    <glyph glyph-name="tilde" unicode="&#x2dc;" horiz-adv-x="307" 
d="M228 606q-19 0 -39.5 8t-40.5 18t-37 18t-28 8q-10 0 -17.5 -9.5t-6.5 -35.5h-38q-3 31 2 51.5t17.5 31.5t31.5 11q18 0 39 -8t42 -18t39 -18t28 -8q13 0 21.5 13t6.5 33h37q5 -27 -0.5 -48.5t-19.5 -34t-37 -12.5z" />
    <glyph glyph-name="hungarumlaut" unicode="&#x2dd;" horiz-adv-x="279" 
d="M70 597h-50l40 128h66zM209 597h-48l40 128h65z" />
    <glyph glyph-name="gravecomb" unicode="&#x300;" 
d="M106 597l-86 146h71l70 -146h-55z" />
    <glyph glyph-name="acutecomb" unicode="&#x301;" 
d="M75 597h-55l70 146h71z" />
    <glyph glyph-name="uni0302" unicode="&#x302;" 
d="M20 583v61l138 106l136 -106v-61l-136 107z" />
    <glyph glyph-name="tildecomb" unicode="&#x303;" 
d="M228 606q-19 0 -39.5 8t-40.5 18t-37 18t-28 8q-10 0 -17.5 -9.5t-6.5 -35.5h-38q-3 31 2 51.5t17.5 31.5t31.5 11q18 0 39 -8t42 -18t39 -18t28 -8q13 0 21.5 13t6.5 33h37q5 -27 -0.5 -48.5t-19.5 -34t-37 -12.5z" />
    <glyph glyph-name="uni0304" unicode="&#x304;" 
d="M20 627v50h249v-50h-249z" />
    <glyph glyph-name="uni0306" unicode="&#x306;" 
d="M20 715h50q-1 -26 12.5 -49.5t56.5 -23.5q41 0 54.5 22.5t13.5 50.5h49q1 -32 -11.5 -58.5t-39 -42.5t-67.5 -16q-42 0 -68.5 16.5t-38.5 43t-11 57.5z" />
    <glyph glyph-name="uni0307" unicode="&#x307;" 
d="M68 610q-24 0 -36 10t-12 31q0 19 12 29t36 10t36 -10t12 -29q0 -21 -12.5 -31t-35.5 -10z" />
    <glyph glyph-name="uni0308" unicode="&#x308;" 
d="M261 613q-25 0 -36.5 10t-11.5 33q0 20 11.5 30.5t36.5 10.5q24 0 36 -10.5t12 -31.5q0 -22 -12 -32t-36 -10zM68 613q-24 0 -36 10t-12 33q0 20 12 30.5t36 10.5t36 -10.5t12 -31.5q0 -22 -12.5 -32t-35.5 -10z" />
    <glyph glyph-name="hookabovecomb" unicode="&#x309;" 
d="M63 596q0 20 9 31.5t21 18.5t21 14t9 19t-11 18t-27.5 7.5t-34 -0.5t-30.5 -7v45q15 8 41 11t53.5 -0.5t46 -17.5t18.5 -43q0 -22 -10 -34.5t-22.5 -21t-22.5 -17t-10 -23.5h-51z" />
    <glyph glyph-name="uni030A" unicode="&#x30a;" 
d="M104 584q-35 0 -59.5 20.5t-24.5 61.5t24.5 61.5t58.5 20.5q37 0 61 -22t24 -61q0 -41 -24.5 -61t-59.5 -20zM106 620q18 0 28.5 12t10.5 32q0 23 -10.5 34.5t-29.5 11.5q-18 0 -29.5 -11t-11.5 -33q0 -21 11 -33.5t31 -12.5z" />
    <glyph glyph-name="uni030B" unicode="&#x30b;" 
d="M70 597h-50l40 128h66zM209 597h-48l40 128h65z" />
    <glyph glyph-name="uni030C" unicode="&#x30c;" 
d="M20 747l138 -106l136 106v-61l-136 -105l-138 105v61z" />
    <glyph glyph-name="uni0312" unicode="&#x312;" 
d="M96 725q-8 -27 -12.5 -51t-6 -42.5t-1.5 -31.5h-56q0 20 4 42t12.5 44t19.5 39h40z" />
    <glyph glyph-name="uni031B" unicode="&#x31b;" 
d="M73 494l-53 5l2 13q34 0 51 11t23 28t5 35.5t-4 35.5h52q6 -38 1.5 -68t-23 -46.5t-54.5 -13.5z" />
    <glyph glyph-name="dotbelowcomb" unicode="&#x323;" 
d="M68 -166q-24 0 -36 10t-12 31q0 19 12 29t36 10t36 -10t12 -29q0 -21 -12.5 -31t-35.5 -10z" />
    <glyph glyph-name="uni0326" unicode="&#x326;" 
d="M20 -222q13 66 17 106t4 59h54q0 -30 -7.5 -72t-22.5 -93h-45z" />
    <glyph glyph-name="uni0327" unicode="&#x327;" 
d="M20 -241l6 41q20 -4 47 -6.5t52.5 0.5t42.5 15t17 35q0 11 -5 20.5t-18.5 16.5t-38.5 9.5t-64 -0.5l14 111h39l-6 -87q42 6 70 -1t42.5 -25t14.5 -47q0 -36 -21 -56.5t-54 -28.5t-70 -6t-68 9z" />
    <glyph glyph-name="uni0328" unicode="&#x328;" 
d="M146 -175q-18 -6 -40 -6t-41.5 6.5t-32 22.5t-12.5 41q0 27 14 46.5t35 34t40 22.5v13h35v-5q-31 -16 -51 -44t-20 -52q0 -15 7 -22t17.5 -9t23.5 -0.5t25 3.5v-51z" />
    <glyph glyph-name="pi" unicode="&#x3c0;" horiz-adv-x="651" 
d="M152 0v512h56v-512h-56zM443 0v512h56v-512h-56zM30 460v52h591v-52h-591z" />
    <glyph glyph-name="uni0E3F" unicode="&#xe3f;" horiz-adv-x="629" 
d="M272 650l-16 132h72l-16 -132h-40zM256 -126l16 132h40l16 -132h-72zM94 6v647h217q51 0 93 -9.5t72.5 -29.5t47 -52t16.5 -77q0 -38 -14.5 -65.5t-45 -46t-78.5 -28.5v-9q87 -9 125 -50.5t38 -107.5q0 -54 -23.5 -92.5t-74.5 -59t-134 -20.5h-239zM149 58h201
q80 0 120 29t40 88q0 69 -57.5 104t-172.5 35h-131v-256zM149 365h115q110 0 164.5 29.5t54.5 88.5t-46 88.5t-139 29.5h-149v-236z" />
    <glyph glyph-name="Wgrave" unicode="&#x1e80;" horiz-adv-x="913" 
d="M217 0l-176 660h60l155 -603h8l150 603h84l146 -603h8l159 603h61l-181 -660h-86l-145 603h-7l-150 -603h-86zM442 745l-86 146h71l70 -146h-55z" />
    <glyph glyph-name="wgrave" unicode="&#x1e81;" horiz-adv-x="772" 
d="M174 0l-142 512h57l120 -459h14l123 459h82l123 -459h11l122 459h57l-144 -512h-80l-125 460h-8l-126 -460h-84zM375 597l-86 146h71l70 -146h-55z" />
    <glyph glyph-name="Wacute" unicode="&#x1e82;" horiz-adv-x="913" 
d="M217 0l-176 660h60l155 -603h8l150 603h84l146 -603h8l159 603h61l-181 -660h-86l-145 603h-7l-150 -603h-86zM472 745h-55l70 146h71z" />
    <glyph glyph-name="wacute" unicode="&#x1e83;" horiz-adv-x="772" 
d="M174 0l-142 512h57l120 -459h14l123 459h82l123 -459h11l122 459h57l-144 -512h-80l-125 460h-8l-126 -460h-84zM405 597h-55l70 146h71z" />
    <glyph glyph-name="Wdieresis" unicode="&#x1e84;" horiz-adv-x="913" 
d="M217 0l-176 660h60l155 -603h8l150 603h84l146 -603h8l159 603h61l-181 -660h-86l-145 603h-7l-150 -603h-86zM554 761q-25 0 -36.5 10t-11.5 33q0 20 11.5 30.5t36.5 10.5q24 0 36 -10.5t12 -31.5q0 -22 -12 -32t-36 -10zM361 761q-24 0 -36 10t-12 33q0 20 12 30.5
t36 10.5t36 -10.5t12 -31.5q0 -22 -12.5 -32t-35.5 -10z" />
    <glyph glyph-name="wdieresis" unicode="&#x1e85;" horiz-adv-x="772" 
d="M174 0l-142 512h57l120 -459h14l123 459h82l123 -459h11l122 459h57l-144 -512h-80l-125 460h-8l-126 -460h-84zM487 613q-25 0 -36.5 10t-11.5 33q0 20 11.5 30.5t36.5 10.5q24 0 36 -10.5t12 -31.5q0 -22 -12 -32t-36 -10zM294 613q-24 0 -36 10t-12 33q0 20 12 30.5
t36 10.5t36 -10.5t12 -31.5q0 -22 -12.5 -32t-35.5 -10z" />
    <glyph glyph-name="uni1E9E" unicode="&#x1e9e;" horiz-adv-x="643" 
d="M388 -12q-49 0 -86.5 16.5t-60 45t-29.5 66.5l55 16q4 -27 17.5 -44t31.5 -27.5t38 -14.5t37 -4q35 0 67.5 15.5t53 46t20.5 74.5q0 42 -19 69.5t-51 43t-72.5 22t-84.5 6.5v65l174 126q0 53 -42.5 81t-114.5 28q-52 0 -85 -13.5t-51.5 -35t-26.5 -46.5t-9.5 -48.5
t-1.5 -40.5v-435h-57v436q0 22 2 52t12.5 62t35 60t68.5 45t113 17q67 0 115 -19t74 -59.5t26 -104.5l-178 -128v-9q79 0 130 -21.5t76 -60.5t25 -92q0 -57 -25 -99.5t-70.5 -66.5t-106.5 -24z" />
    <glyph glyph-name="uni1EA0" unicode="&#x1ea0;" horiz-adv-x="630" 
d="M37 0l236 660h83l236 -660h-60l-212 608h-10l-212 -608h-61zM136 160v51h363v-51h-363zM318 -166q-24 0 -36 10t-12 31q0 19 12 29t36 10t36 -10t12 -29q0 -21 -12.5 -31t-35.5 -10z" />
    <glyph glyph-name="uni1EA1" unicode="&#x1ea1;" horiz-adv-x="539" 
d="M204 -12q-42 0 -76 15.5t-54 48t-20 82.5q0 33 11.5 60.5t37.5 48.5t70.5 35.5t110.5 22.5q42 5 67 10.5t36.5 17.5t11.5 38q0 43 -30 73.5t-94 30.5q-30 0 -63.5 -10t-58.5 -36t-31 -75l-54 21q5 33 21 60.5t42.5 48.5t63.5 32.5t82 11.5q59 0 98.5 -20t60 -61.5
t20.5 -106.5v-131q0 -29 1.5 -66t4 -73.5t5.5 -65.5h-55q-3 36 -4 68l-2 64h-10q-15 -37 -39.5 -70t-62 -53.5t-90.5 -20.5zM208 41q24 0 48.5 7.5t50 25.5t49 47.5t44.5 72.5v110l29 -5q-14 -18 -42.5 -27t-64.5 -14t-73 -11.5t-68.5 -18.5t-50.5 -34.5t-19 -61.5
q0 -46 27 -68.5t70 -22.5zM284 -166q-24 0 -36 10t-12 31q0 19 12 29t36 10t36 -10t12 -29q0 -21 -12.5 -31t-35.5 -10z" />
    <glyph glyph-name="uni1EA2" unicode="&#x1ea2;" horiz-adv-x="630" 
d="M37 0l236 660h83l236 -660h-60l-212 608h-10l-212 -608h-61zM136 160v51h363v-51h-363zM286 744q0 20 9 31.5t21 18.5t21 14t9 19t-11 18t-27.5 7.5t-34 -0.5t-30.5 -7v45q15 8 41 11t53.5 -0.5t46 -17.5t18.5 -43q0 -22 -10 -34.5t-22.5 -21t-22.5 -17t-10 -23.5h-51z
" />
    <glyph glyph-name="uni1EA3" unicode="&#x1ea3;" horiz-adv-x="539" 
d="M204 -12q-42 0 -76 15.5t-54 48t-20 82.5q0 33 11.5 60.5t37.5 48.5t70.5 35.5t110.5 22.5q42 5 67 10.5t36.5 17.5t11.5 38q0 43 -30 73.5t-94 30.5q-30 0 -63.5 -10t-58.5 -36t-31 -75l-54 21q5 33 21 60.5t42.5 48.5t63.5 32.5t82 11.5q59 0 98.5 -20t60 -61.5
t20.5 -106.5v-131q0 -29 1.5 -66t4 -73.5t5.5 -65.5h-55q-3 36 -4 68l-2 64h-10q-15 -37 -39.5 -70t-62 -53.5t-90.5 -20.5zM208 41q24 0 48.5 7.5t50 25.5t49 47.5t44.5 72.5v110l29 -5q-14 -18 -42.5 -27t-64.5 -14t-73 -11.5t-68.5 -18.5t-50.5 -34.5t-19 -61.5
q0 -46 27 -68.5t70 -22.5zM246 596q0 20 9 31.5t21 18.5t21 14t9 19t-11 18t-27.5 7.5t-34 -0.5t-30.5 -7v45q15 8 41 11t53.5 -0.5t46 -17.5t18.5 -43q0 -22 -10 -34.5t-22.5 -21t-22.5 -17t-10 -23.5h-51z" />
    <glyph glyph-name="uni1EA4" unicode="&#x1ea4;" horiz-adv-x="630" 
d="M37 0l236 660h83l236 -660h-60l-212 608h-10l-212 -608h-61zM136 160v51h363v-51h-363zM177 731v61l138 106l136 -106v-61l-136 107zM329 967h-55l70 146h71z" />
    <glyph glyph-name="uni1EA5" unicode="&#x1ea5;" horiz-adv-x="539" 
d="M204 -12q-42 0 -76 15.5t-54 48t-20 82.5q0 33 11.5 60.5t37.5 48.5t70.5 35.5t110.5 22.5q42 5 67 10.5t36.5 17.5t11.5 38q0 43 -30 73.5t-94 30.5q-30 0 -63.5 -10t-58.5 -36t-31 -75l-54 21q5 33 21 60.5t42.5 48.5t63.5 32.5t82 11.5q59 0 98.5 -20t60 -61.5
t20.5 -106.5v-131q0 -29 1.5 -66t4 -73.5t5.5 -65.5h-55q-3 36 -4 68l-2 64h-10q-15 -37 -39.5 -70t-62 -53.5t-90.5 -20.5zM208 41q24 0 48.5 7.5t50 25.5t49 47.5t44.5 72.5v110l29 -5q-14 -18 -42.5 -27t-64.5 -14t-73 -11.5t-68.5 -18.5t-50.5 -34.5t-19 -61.5
q0 -46 27 -68.5t70 -22.5zM137 583v61l138 106l136 -106v-61l-136 107zM289 819h-55l70 146h71z" />
    <glyph glyph-name="uni1EA6" unicode="&#x1ea6;" horiz-adv-x="630" 
d="M37 0l236 660h83l236 -660h-60l-212 608h-10l-212 -608h-61zM136 160v51h363v-51h-363zM177 731v61l137 106l136 -106v-61l-136 107zM299 967l-85 146h71l69 -146h-55z" />
    <glyph glyph-name="uni1EA7" unicode="&#x1ea7;" horiz-adv-x="539" 
d="M204 -12q-42 0 -76 15.5t-54 48t-20 82.5q0 33 11.5 60.5t37.5 48.5t70.5 35.5t110.5 22.5q42 5 67 10.5t36.5 17.5t11.5 38q0 43 -30 73.5t-94 30.5q-30 0 -63.5 -10t-58.5 -36t-31 -75l-54 21q5 33 21 60.5t42.5 48.5t63.5 32.5t82 11.5q59 0 98.5 -20t60 -61.5
t20.5 -106.5v-131q0 -29 1.5 -66t4 -73.5t5.5 -65.5h-55q-3 36 -4 68l-2 64h-10q-15 -37 -39.5 -70t-62 -53.5t-90.5 -20.5zM208 41q24 0 48.5 7.5t50 25.5t49 47.5t44.5 72.5v110l29 -5q-14 -18 -42.5 -27t-64.5 -14t-73 -11.5t-68.5 -18.5t-50.5 -34.5t-19 -61.5
q0 -46 27 -68.5t70 -22.5zM137 583v61l137 106l136 -106v-61l-136 107zM259 819l-85 146h71l69 -146h-55z" />
    <glyph glyph-name="uni1EA8" unicode="&#x1ea8;" horiz-adv-x="630" 
d="M37 0l236 660h83l236 -660h-60l-212 608h-10l-212 -608h-61zM136 160v51h363v-51h-363zM177 731v61l138 106l136 -106v-61l-136 107zM286 966q0 20 9 31.5t21 18.5t21 14t9 19t-11 18t-27.5 7.5t-34 -0.5t-30.5 -7v45q15 8 41 11t53.5 -0.5t46 -17.5t18.5 -43
q0 -22 -10 -34.5t-22.5 -21t-22.5 -17t-10 -23.5h-51z" />
    <glyph glyph-name="uni1EA9" unicode="&#x1ea9;" horiz-adv-x="539" 
d="M204 -12q-42 0 -76 15.5t-54 48t-20 82.5q0 33 11.5 60.5t37.5 48.5t70.5 35.5t110.5 22.5q42 5 67 10.5t36.5 17.5t11.5 38q0 43 -30 73.5t-94 30.5q-30 0 -63.5 -10t-58.5 -36t-31 -75l-54 21q5 33 21 60.5t42.5 48.5t63.5 32.5t82 11.5q59 0 98.5 -20t60 -61.5
t20.5 -106.5v-131q0 -29 1.5 -66t4 -73.5t5.5 -65.5h-55q-3 36 -4 68l-2 64h-10q-15 -37 -39.5 -70t-62 -53.5t-90.5 -20.5zM208 41q24 0 48.5 7.5t50 25.5t49 47.5t44.5 72.5v110l29 -5q-14 -18 -42.5 -27t-64.5 -14t-73 -11.5t-68.5 -18.5t-50.5 -34.5t-19 -61.5
q0 -46 27 -68.5t70 -22.5zM137 583v61l138 106l136 -106v-61l-136 107zM246 818q0 20 9 31.5t21 18.5t21 14t9 19t-11 18t-27.5 7.5t-34 -0.5t-30.5 -7v45q15 8 41 11t53.5 -0.5t46 -17.5t18.5 -43q0 -22 -10 -34.5t-22.5 -21t-22.5 -17t-10 -23.5h-51z" />
    <glyph glyph-name="uni1EAA" unicode="&#x1eaa;" horiz-adv-x="630" 
d="M37 0l236 660h83l236 -660h-60l-212 608h-10l-212 -608h-61zM136 160v51h363v-51h-363zM177 731v61l138 106l136 -106v-61l-136 107zM389 976q-19 0 -39.5 8t-40.5 18t-37 18t-28 8q-10 0 -17.5 -9.5t-6.5 -35.5h-38q-3 31 2 51.5t17.5 31.5t31.5 11q18 0 39 -8t42 -18
t39 -18t28 -8q13 0 21.5 13t6.5 33h37q5 -27 -0.5 -48.5t-19.5 -34t-37 -12.5z" />
    <glyph glyph-name="uni1EAB" unicode="&#x1eab;" horiz-adv-x="539" 
d="M204 -12q-42 0 -76 15.5t-54 48t-20 82.5q0 33 11.5 60.5t37.5 48.5t70.5 35.5t110.5 22.5q42 5 67 10.5t36.5 17.5t11.5 38q0 43 -30 73.5t-94 30.5q-30 0 -63.5 -10t-58.5 -36t-31 -75l-54 21q5 33 21 60.5t42.5 48.5t63.5 32.5t82 11.5q59 0 98.5 -20t60 -61.5
t20.5 -106.5v-131q0 -29 1.5 -66t4 -73.5t5.5 -65.5h-55q-3 36 -4 68l-2 64h-10q-15 -37 -39.5 -70t-62 -53.5t-90.5 -20.5zM208 41q24 0 48.5 7.5t50 25.5t49 47.5t44.5 72.5v110l29 -5q-14 -18 -42.5 -27t-64.5 -14t-73 -11.5t-68.5 -18.5t-50.5 -34.5t-19 -61.5
q0 -46 27 -68.5t70 -22.5zM137 583v61l138 106l136 -106v-61l-136 107zM349 828q-19 0 -39.5 8t-40.5 18t-37 18t-28 8q-10 0 -17.5 -9.5t-6.5 -35.5h-38q-3 31 2 51.5t17.5 31.5t31.5 11q18 0 39 -8t42 -18t39 -18t28 -8q13 0 21.5 13t6.5 33h37q5 -27 -0.5 -48.5
t-19.5 -34t-37 -12.5z" />
    <glyph glyph-name="uni1EAC" unicode="&#x1eac;" horiz-adv-x="630" 
d="M37 0l236 660h83l236 -660h-60l-212 608h-10l-212 -608h-61zM136 160v51h363v-51h-363zM318 -166q-24 0 -36 10t-12 31q0 19 12 29t36 10t36 -10t12 -29q0 -21 -12.5 -31t-35.5 -10zM177 731v61l138 106l136 -106v-61l-136 107z" />
    <glyph glyph-name="uni1EAD" unicode="&#x1ead;" horiz-adv-x="539" 
d="M204 -12q-42 0 -76 15.5t-54 48t-20 82.5q0 33 11.5 60.5t37.5 48.5t70.5 35.5t110.5 22.5q42 5 67 10.5t36.5 17.5t11.5 38q0 43 -30 73.5t-94 30.5q-30 0 -63.5 -10t-58.5 -36t-31 -75l-54 21q5 33 21 60.5t42.5 48.5t63.5 32.5t82 11.5q59 0 98.5 -20t60 -61.5
t20.5 -106.5v-131q0 -29 1.5 -66t4 -73.5t5.5 -65.5h-55q-3 36 -4 68l-2 64h-10q-15 -37 -39.5 -70t-62 -53.5t-90.5 -20.5zM208 41q24 0 48.5 7.5t50 25.5t49 47.5t44.5 72.5v110l29 -5q-14 -18 -42.5 -27t-64.5 -14t-73 -11.5t-68.5 -18.5t-50.5 -34.5t-19 -61.5
q0 -46 27 -68.5t70 -22.5zM284 -166q-24 0 -36 10t-12 31q0 19 12 29t36 10t36 -10t12 -29q0 -21 -12.5 -31t-35.5 -10zM137 583v61l138 106l136 -106v-61l-136 107z" />
    <glyph glyph-name="uni1EAE" unicode="&#x1eae;" horiz-adv-x="630" 
d="M37 0l236 660h83l236 -660h-60l-212 608h-10l-212 -608h-61zM136 160v51h363v-51h-363zM196 863h50q-1 -26 12.5 -49.5t56.5 -23.5q41 0 54.5 22.5t13.5 50.5h49q1 -32 -11.5 -58.5t-39 -42.5t-67.5 -16q-42 0 -68.5 16.5t-38.5 43t-11 57.5zM330 922h-55l70 146h71z" />
    <glyph glyph-name="uni1EAF" unicode="&#x1eaf;" horiz-adv-x="539" 
d="M204 -12q-42 0 -76 15.5t-54 48t-20 82.5q0 33 11.5 60.5t37.5 48.5t70.5 35.5t110.5 22.5q42 5 67 10.5t36.5 17.5t11.5 38q0 43 -30 73.5t-94 30.5q-30 0 -63.5 -10t-58.5 -36t-31 -75l-54 21q5 33 21 60.5t42.5 48.5t63.5 32.5t82 11.5q59 0 98.5 -20t60 -61.5
t20.5 -106.5v-131q0 -29 1.5 -66t4 -73.5t5.5 -65.5h-55q-3 36 -4 68l-2 64h-10q-15 -37 -39.5 -70t-62 -53.5t-90.5 -20.5zM208 41q24 0 48.5 7.5t50 25.5t49 47.5t44.5 72.5v110l29 -5q-14 -18 -42.5 -27t-64.5 -14t-73 -11.5t-68.5 -18.5t-50.5 -34.5t-19 -61.5
q0 -46 27 -68.5t70 -22.5zM156 715h50q-1 -26 12.5 -49.5t56.5 -23.5q41 0 54.5 22.5t13.5 50.5h49q1 -32 -11.5 -58.5t-39 -42.5t-67.5 -16q-42 0 -68.5 16.5t-38.5 43t-11 57.5zM289 774h-55l70 146h71z" />
    <glyph glyph-name="uni1EB0" unicode="&#x1eb0;" horiz-adv-x="630" 
d="M37 0l236 660h83l236 -660h-60l-212 608h-10l-212 -608h-61zM136 160v51h363v-51h-363zM196 863h50q-1 -26 12.5 -49.5t55.5 -23.5t55.5 22.5t13.5 50.5h49q1 -32 -11.5 -58.5t-39 -42.5t-68.5 -16q-41 0 -67.5 16.5t-38.5 43t-11 57.5zM299 921l-85 147h71l69 -147h-55z
" />
    <glyph glyph-name="uni1EB1" unicode="&#x1eb1;" horiz-adv-x="539" 
d="M204 -12q-42 0 -76 15.5t-54 48t-20 82.5q0 33 11.5 60.5t37.5 48.5t70.5 35.5t110.5 22.5q42 5 67 10.5t36.5 17.5t11.5 38q0 43 -30 73.5t-94 30.5q-30 0 -63.5 -10t-58.5 -36t-31 -75l-54 21q5 33 21 60.5t42.5 48.5t63.5 32.5t82 11.5q59 0 98.5 -20t60 -61.5
t20.5 -106.5v-131q0 -29 1.5 -66t4 -73.5t5.5 -65.5h-55q-3 36 -4 68l-2 64h-10q-15 -37 -39.5 -70t-62 -53.5t-90.5 -20.5zM208 41q24 0 48.5 7.5t50 25.5t49 47.5t44.5 72.5v110l29 -5q-14 -18 -42.5 -27t-64.5 -14t-73 -11.5t-68.5 -18.5t-50.5 -34.5t-19 -61.5
q0 -46 27 -68.5t70 -22.5zM156 715h50q-1 -26 12.5 -49.5t55.5 -23.5t55.5 22.5t13.5 50.5h49q1 -32 -11.5 -58.5t-39 -42.5t-68.5 -16q-41 0 -67.5 16.5t-38.5 43t-11 57.5zM259 773l-85 146h71l69 -146h-55z" />
    <glyph glyph-name="uni1EB2" unicode="&#x1eb2;" horiz-adv-x="630" 
d="M37 0l236 660h83l236 -660h-60l-212 608h-10l-212 -608h-61zM136 160v51h363v-51h-363zM196 863h50q-1 -26 12.5 -49.5t56.5 -23.5q41 0 54.5 22.5t13.5 50.5h49q1 -32 -11.5 -58.5t-39 -42.5t-67.5 -16q-42 0 -68.5 16.5t-38.5 43t-11 57.5zM286 921q0 20 9 31.5
t21 18.5t21 14t9 19t-11 18t-27.5 7.5t-34 -0.5t-30.5 -7v45q15 8 41 11t53.5 -0.5t46 -17.5t18.5 -43q0 -22 -10 -34.5t-22.5 -21t-22.5 -17t-10 -23.5h-51z" />
    <glyph glyph-name="uni1EB3" unicode="&#x1eb3;" horiz-adv-x="539" 
d="M204 -12q-42 0 -76 15.5t-54 48t-20 82.5q0 33 11.5 60.5t37.5 48.5t70.5 35.5t110.5 22.5q42 5 67 10.5t36.5 17.5t11.5 38q0 43 -30 73.5t-94 30.5q-30 0 -63.5 -10t-58.5 -36t-31 -75l-54 21q5 33 21 60.5t42.5 48.5t63.5 32.5t82 11.5q59 0 98.5 -20t60 -61.5
t20.5 -106.5v-131q0 -29 1.5 -66t4 -73.5t5.5 -65.5h-55q-3 36 -4 68l-2 64h-10q-15 -37 -39.5 -70t-62 -53.5t-90.5 -20.5zM208 41q24 0 48.5 7.5t50 25.5t49 47.5t44.5 72.5v110l29 -5q-14 -18 -42.5 -27t-64.5 -14t-73 -11.5t-68.5 -18.5t-50.5 -34.5t-19 -61.5
q0 -46 27 -68.5t70 -22.5zM156 715h50q-1 -26 12.5 -49.5t56.5 -23.5q41 0 54.5 22.5t13.5 50.5h49q1 -32 -11.5 -58.5t-39 -42.5t-67.5 -16q-42 0 -68.5 16.5t-38.5 43t-11 57.5zM246 773q0 20 9 31.5t21 18.5t21 14t9 19t-11 18t-27.5 7.5t-34 -0.5t-30.5 -7v45
q15 8 41 11t53.5 -0.5t46 -17.5t18.5 -43q0 -22 -10 -34.5t-22.5 -21t-22.5 -17t-10 -23.5h-51z" />
    <glyph glyph-name="uni1EB4" unicode="&#x1eb4;" horiz-adv-x="630" 
d="M37 0l236 660h83l236 -660h-60l-212 608h-10l-212 -608h-61zM136 160v51h363v-51h-363zM196 863h50q-1 -26 12.5 -49.5t56.5 -23.5q41 0 54.5 22.5t13.5 50.5h49q1 -32 -11.5 -58.5t-39 -42.5t-67.5 -16q-42 0 -68.5 16.5t-38.5 43t-11 57.5zM374 920q-24 0 -45 12.5
t-38 25.5t-31 13q-11 0 -16.5 -10t-4.5 -27h-37q-3 27 0 46t14 29.5t31 10.5q25 0 46.5 -13t40 -26t33.5 -13q12 0 17.5 10.5t3.5 27.5h38q4 -23 0 -42.5t-16.5 -31.5t-35.5 -12z" />
    <glyph glyph-name="uni1EB5" unicode="&#x1eb5;" horiz-adv-x="539" 
d="M204 -12q-42 0 -76 15.5t-54 48t-20 82.5q0 33 11.5 60.5t37.5 48.5t70.5 35.5t110.5 22.5q42 5 67 10.5t36.5 17.5t11.5 38q0 43 -30 73.5t-94 30.5q-30 0 -63.5 -10t-58.5 -36t-31 -75l-54 21q5 33 21 60.5t42.5 48.5t63.5 32.5t82 11.5q59 0 98.5 -20t60 -61.5
t20.5 -106.5v-131q0 -29 1.5 -66t4 -73.5t5.5 -65.5h-55q-3 36 -4 68l-2 64h-10q-15 -37 -39.5 -70t-62 -53.5t-90.5 -20.5zM208 41q24 0 48.5 7.5t50 25.5t49 47.5t44.5 72.5v110l29 -5q-14 -18 -42.5 -27t-64.5 -14t-73 -11.5t-68.5 -18.5t-50.5 -34.5t-19 -61.5
q0 -46 27 -68.5t70 -22.5zM156 715h50q-1 -26 12.5 -49.5t56.5 -23.5q41 0 54.5 22.5t13.5 50.5h49q1 -32 -11.5 -58.5t-39 -42.5t-67.5 -16q-42 0 -68.5 16.5t-38.5 43t-11 57.5zM334 772q-24 0 -45 12.5t-38 25.5t-31 13q-11 0 -16.5 -10t-4.5 -27h-37q-3 27 0 46t14 29.5
t31 10.5q25 0 46.5 -13t40 -26t33.5 -13q12 0 17.5 10.5t3.5 27.5h38q4 -23 0 -42.5t-16.5 -31.5t-35.5 -12z" />
    <glyph glyph-name="uni1EB6" unicode="&#x1eb6;" horiz-adv-x="630" 
d="M37 0l236 660h83l236 -660h-60l-212 608h-10l-212 -608h-61zM136 160v51h363v-51h-363zM318 -166q-24 0 -36 10t-12 31q0 19 12 29t36 10t36 -10t12 -29q0 -21 -12.5 -31t-35.5 -10zM196 863h50q-1 -26 12.5 -49.5t56.5 -23.5q41 0 54.5 22.5t13.5 50.5h49
q1 -32 -11.5 -58.5t-39 -42.5t-67.5 -16q-42 0 -68.5 16.5t-38.5 43t-11 57.5z" />
    <glyph glyph-name="uni1EB7" unicode="&#x1eb7;" horiz-adv-x="539" 
d="M204 -12q-42 0 -76 15.5t-54 48t-20 82.5q0 33 11.5 60.5t37.5 48.5t70.5 35.5t110.5 22.5q42 5 67 10.5t36.5 17.5t11.5 38q0 43 -30 73.5t-94 30.5q-30 0 -63.5 -10t-58.5 -36t-31 -75l-54 21q5 33 21 60.5t42.5 48.5t63.5 32.5t82 11.5q59 0 98.5 -20t60 -61.5
t20.5 -106.5v-131q0 -29 1.5 -66t4 -73.5t5.5 -65.5h-55q-3 36 -4 68l-2 64h-10q-15 -37 -39.5 -70t-62 -53.5t-90.5 -20.5zM208 41q24 0 48.5 7.5t50 25.5t49 47.5t44.5 72.5v110l29 -5q-14 -18 -42.5 -27t-64.5 -14t-73 -11.5t-68.5 -18.5t-50.5 -34.5t-19 -61.5
q0 -46 27 -68.5t70 -22.5zM284 -166q-24 0 -36 10t-12 31q0 19 12 29t36 10t36 -10t12 -29q0 -21 -12.5 -31t-35.5 -10zM156 715h50q-1 -26 12.5 -49.5t56.5 -23.5q41 0 54.5 22.5t13.5 50.5h49q1 -32 -11.5 -58.5t-39 -42.5t-67.5 -16q-42 0 -68.5 16.5t-38.5 43t-11 57.5z
" />
    <glyph glyph-name="uni1EB8" unicode="&#x1eb8;" horiz-adv-x="566" 
d="M94 0v660h57v-660h-57zM106 0v53h421v-53h-421zM106 313v53h375v-53h-375zM106 607v53h421v-53h-421zM289 -166q-24 0 -36 10t-12 31q0 19 12 29t36 10t36 -10t12 -29q0 -21 -12.5 -31t-35.5 -10z" />
    <glyph glyph-name="uni1EB9" unicode="&#x1eb9;" horiz-adv-x="553" 
d="M296 -12q-59 0 -103 19t-73.5 54t-44.5 82.5t-15 104.5q0 60 15 110t44 87.5t71.5 58t98.5 20.5q45 0 83.5 -15.5t67 -48.5t43.5 -84.5t13 -122.5l-403 -4v51l366 3l-19 -43q4 69 -14.5 115.5t-53.5 70.5t-84 24q-53 0 -91.5 -26.5t-59.5 -76t-21 -119.5
q0 -97 44.5 -151.5t137.5 -54.5q34 0 60 7.5t45 22t32 34.5t20 45l50 -13q-11 -36 -29.5 -64t-45 -47t-60 -29t-74.5 -10zM291 -166q-24 0 -36 10t-12 31q0 19 12 29t36 10t36 -10t12 -29q0 -21 -12.5 -31t-35.5 -10z" />
    <glyph glyph-name="uni1EBA" unicode="&#x1eba;" horiz-adv-x="566" 
d="M94 0v660h57v-660h-57zM106 0v53h421v-53h-421zM106 313v53h375v-53h-375zM106 607v53h421v-53h-421zM259 744q0 20 9 31.5t21 18.5t21 14t9 19t-11 18t-27.5 7.5t-34 -0.5t-30.5 -7v45q15 8 41 11t53.5 -0.5t46 -17.5t18.5 -43q0 -22 -10 -34.5t-22.5 -21t-22.5 -17
t-10 -23.5h-51z" />
    <glyph glyph-name="uni1EBB" unicode="&#x1ebb;" horiz-adv-x="553" 
d="M296 -12q-59 0 -103 19t-73.5 54t-44.5 82.5t-15 104.5q0 60 15 110t44 87.5t71.5 58t98.5 20.5q45 0 83.5 -15.5t67 -48.5t43.5 -84.5t13 -122.5l-403 -4v51l366 3l-19 -43q4 69 -14.5 115.5t-53.5 70.5t-84 24q-53 0 -91.5 -26.5t-59.5 -76t-21 -119.5
q0 -97 44.5 -151.5t137.5 -54.5q34 0 60 7.5t45 22t32 34.5t20 45l50 -13q-11 -36 -29.5 -64t-45 -47t-60 -29t-74.5 -10zM255 596q0 20 9 31.5t21 18.5t21 14t9 19t-11 18t-27.5 7.5t-34 -0.5t-30.5 -7v45q15 8 41 11t53.5 -0.5t46 -17.5t18.5 -43q0 -22 -10 -34.5
t-22.5 -21t-22.5 -17t-10 -23.5h-51z" />
    <glyph glyph-name="uni1EBC" unicode="&#x1ebc;" horiz-adv-x="566" 
d="M94 0v660h57v-660h-57zM106 0v53h421v-53h-421zM106 313v53h375v-53h-375zM106 607v53h421v-53h-421zM363 754q-19 0 -39.5 8t-40.5 18t-37 18t-28 8q-10 0 -17.5 -9.5t-6.5 -35.5h-38q-3 31 2 51.5t17.5 31.5t31.5 11q18 0 39 -8t42 -18t39 -18t28 -8q13 0 21.5 13
t6.5 33h37q5 -27 -0.5 -48.5t-19.5 -34t-37 -12.5z" />
    <glyph glyph-name="uni1EBD" unicode="&#x1ebd;" horiz-adv-x="553" 
d="M296 -12q-59 0 -103 19t-73.5 54t-44.5 82.5t-15 104.5q0 60 15 110t44 87.5t71.5 58t98.5 20.5q45 0 83.5 -15.5t67 -48.5t43.5 -84.5t13 -122.5l-403 -4v51l366 3l-19 -43q4 69 -14.5 115.5t-53.5 70.5t-84 24q-53 0 -91.5 -26.5t-59.5 -76t-21 -119.5
q0 -97 44.5 -151.5t137.5 -54.5q34 0 60 7.5t45 22t32 34.5t20 45l50 -13q-11 -36 -29.5 -64t-45 -47t-60 -29t-74.5 -10zM358 606q-19 0 -39.5 8t-40.5 18t-37 18t-28 8q-10 0 -17.5 -9.5t-6.5 -35.5h-38q-3 31 2 51.5t17.5 31.5t31.5 11q18 0 39 -8t42 -18t39 -18t28 -8
q13 0 21.5 13t6.5 33h37q5 -27 -0.5 -48.5t-19.5 -34t-37 -12.5z" />
    <glyph glyph-name="uni1EBE" unicode="&#x1ebe;" horiz-adv-x="566" 
d="M94 0v660h57v-660h-57zM106 0v53h421v-53h-421zM106 313v53h375v-53h-375zM106 607v53h421v-53h-421zM150 731v61l138 106l136 -106v-61l-136 107zM303 967h-55l70 146h71z" />
    <glyph glyph-name="uni1EBF" unicode="&#x1ebf;" horiz-adv-x="553" 
d="M296 -12q-59 0 -103 19t-73.5 54t-44.5 82.5t-15 104.5q0 60 15 110t44 87.5t71.5 58t98.5 20.5q45 0 83.5 -15.5t67 -48.5t43.5 -84.5t13 -122.5l-403 -4v51l366 3l-19 -43q4 69 -14.5 115.5t-53.5 70.5t-84 24q-53 0 -91.5 -26.5t-59.5 -76t-21 -119.5
q0 -97 44.5 -151.5t137.5 -54.5q34 0 60 7.5t45 22t32 34.5t20 45l50 -13q-11 -36 -29.5 -64t-45 -47t-60 -29t-74.5 -10zM146 583v61l138 106l136 -106v-61l-136 107zM299 819h-55l70 146h71z" />
    <glyph glyph-name="uni1EC0" unicode="&#x1ec0;" horiz-adv-x="566" 
d="M94 0v660h57v-660h-57zM106 0v53h421v-53h-421zM106 313v53h375v-53h-375zM106 607v53h421v-53h-421zM150 731v61l138 106l135 -106v-61l-135 107zM272 967l-85 146h71l69 -146h-55z" />
    <glyph glyph-name="uni1EC1" unicode="&#x1ec1;" horiz-adv-x="553" 
d="M296 -12q-59 0 -103 19t-73.5 54t-44.5 82.5t-15 104.5q0 60 15 110t44 87.5t71.5 58t98.5 20.5q45 0 83.5 -15.5t67 -48.5t43.5 -84.5t13 -122.5l-403 -4v51l366 3l-19 -43q4 69 -14.5 115.5t-53.5 70.5t-84 24q-53 0 -91.5 -26.5t-59.5 -76t-21 -119.5
q0 -97 44.5 -151.5t137.5 -54.5q34 0 60 7.5t45 22t32 34.5t20 45l50 -13q-11 -36 -29.5 -64t-45 -47t-60 -29t-74.5 -10zM146 583v61l137 106l136 -106v-61l-136 107zM268 819l-85 146h71l69 -146h-55z" />
    <glyph glyph-name="uni1EC2" unicode="&#x1ec2;" horiz-adv-x="566" 
d="M94 0v660h57v-660h-57zM106 0v53h421v-53h-421zM106 313v53h375v-53h-375zM106 607v53h421v-53h-421zM150 731v61l138 106l136 -106v-61l-136 107zM259 966q0 20 9 31.5t21 18.5t21 14t9 19t-11 18t-27.5 7.5t-34 -0.5t-30.5 -7v45q15 8 41 11t53.5 -0.5t46 -17.5
t18.5 -43q0 -22 -10 -34.5t-22.5 -21t-22.5 -17t-10 -23.5h-51z" />
    <glyph glyph-name="uni1EC3" unicode="&#x1ec3;" horiz-adv-x="553" 
d="M296 -12q-59 0 -103 19t-73.5 54t-44.5 82.5t-15 104.5q0 60 15 110t44 87.5t71.5 58t98.5 20.5q45 0 83.5 -15.5t67 -48.5t43.5 -84.5t13 -122.5l-403 -4v51l366 3l-19 -43q4 69 -14.5 115.5t-53.5 70.5t-84 24q-53 0 -91.5 -26.5t-59.5 -76t-21 -119.5
q0 -97 44.5 -151.5t137.5 -54.5q34 0 60 7.5t45 22t32 34.5t20 45l50 -13q-11 -36 -29.5 -64t-45 -47t-60 -29t-74.5 -10zM146 583v61l138 106l136 -106v-61l-136 107zM255 818q0 20 9 31.5t21 18.5t21 14t9 19t-11 18t-27.5 7.5t-34 -0.5t-30.5 -7v45q15 8 41 11t53.5 -0.5
t46 -17.5t18.5 -43q0 -22 -10 -34.5t-22.5 -21t-22.5 -17t-10 -23.5h-51z" />
    <glyph glyph-name="uni1EC4" unicode="&#x1ec4;" horiz-adv-x="566" 
d="M94 0v660h57v-660h-57zM106 0v53h421v-53h-421zM106 313v53h375v-53h-375zM106 607v53h421v-53h-421zM150 731v61l138 106l136 -106v-61l-136 107zM363 976q-19 0 -39.5 8t-40.5 18t-37 18t-28 8q-10 0 -17.5 -9.5t-6.5 -35.5h-38q-3 31 2 51.5t17.5 31.5t31.5 11
q18 0 39 -8t42 -18t39 -18t28 -8q13 0 21.5 13t6.5 33h37q5 -27 -0.5 -48.5t-19.5 -34t-37 -12.5z" />
    <glyph glyph-name="uni1EC5" unicode="&#x1ec5;" horiz-adv-x="553" 
d="M296 -12q-59 0 -103 19t-73.5 54t-44.5 82.5t-15 104.5q0 60 15 110t44 87.5t71.5 58t98.5 20.5q45 0 83.5 -15.5t67 -48.5t43.5 -84.5t13 -122.5l-403 -4v51l366 3l-19 -43q4 69 -14.5 115.5t-53.5 70.5t-84 24q-53 0 -91.5 -26.5t-59.5 -76t-21 -119.5
q0 -97 44.5 -151.5t137.5 -54.5q34 0 60 7.5t45 22t32 34.5t20 45l50 -13q-11 -36 -29.5 -64t-45 -47t-60 -29t-74.5 -10zM146 583v61l138 106l136 -106v-61l-136 107zM358 828q-19 0 -39.5 8t-40.5 18t-37 18t-28 8q-10 0 -17.5 -9.5t-6.5 -35.5h-38q-3 31 2 51.5
t17.5 31.5t31.5 11q18 0 39 -8t42 -18t39 -18t28 -8q13 0 21.5 13t6.5 33h37q5 -27 -0.5 -48.5t-19.5 -34t-37 -12.5z" />
    <glyph glyph-name="uni1EC6" unicode="&#x1ec6;" horiz-adv-x="566" 
d="M94 0v660h57v-660h-57zM106 0v53h421v-53h-421zM106 313v53h375v-53h-375zM106 607v53h421v-53h-421zM289 -166q-24 0 -36 10t-12 31q0 19 12 29t36 10t36 -10t12 -29q0 -21 -12.5 -31t-35.5 -10zM150 731v61l138 106l136 -106v-61l-136 107z" />
    <glyph glyph-name="uni1EC7" unicode="&#x1ec7;" horiz-adv-x="553" 
d="M296 -12q-59 0 -103 19t-73.5 54t-44.5 82.5t-15 104.5q0 60 15 110t44 87.5t71.5 58t98.5 20.5q45 0 83.5 -15.5t67 -48.5t43.5 -84.5t13 -122.5l-403 -4v51l366 3l-19 -43q4 69 -14.5 115.5t-53.5 70.5t-84 24q-53 0 -91.5 -26.5t-59.5 -76t-21 -119.5
q0 -97 44.5 -151.5t137.5 -54.5q34 0 60 7.5t45 22t32 34.5t20 45l50 -13q-11 -36 -29.5 -64t-45 -47t-60 -29t-74.5 -10zM291 -166q-24 0 -36 10t-12 31q0 19 12 29t36 10t36 -10t12 -29q0 -21 -12.5 -31t-35.5 -10zM146 583v61l138 106l136 -106v-61l-136 107z" />
    <glyph glyph-name="uni1EC8" unicode="&#x1ec8;" horiz-adv-x="246" 
d="M94 0v660h58v-660h-58zM95 744q0 20 9 31.5t21 18.5t21 14t9 19t-11 18t-27.5 7.5t-34 -0.5t-30.5 -7v45q15 8 41 11t53.5 -0.5t46 -17.5t18.5 -43q0 -22 -10 -34.5t-22.5 -21t-22.5 -17t-10 -23.5h-51z" />
    <glyph glyph-name="uni1EC9" unicode="&#x1ec9;" horiz-adv-x="230" 
d="M87 0v512h56v-512h-56zM88 596q0 20 9 31.5t21 18.5t21 14t9 19t-11 18t-27.5 7.5t-34 -0.5t-30.5 -7v45q15 8 41 11t53.5 -0.5t46 -17.5t18.5 -43q0 -22 -10 -34.5t-22.5 -21t-22.5 -17t-10 -23.5h-51z" />
    <glyph glyph-name="uni1ECA" unicode="&#x1eca;" horiz-adv-x="246" 
d="M94 0v660h58v-660h-58zM127 -166q-24 0 -36 10t-12 31q0 19 12 29t36 10t36 -10t12 -29q0 -21 -12.5 -31t-35.5 -10z" />
    <glyph glyph-name="uni1ECB" unicode="&#x1ecb;" horiz-adv-x="232" 
d="M88 0v512h56v-512h-56zM116 610q-24 0 -36 10t-12 31q0 19 12 29t36 10t36 -10t12 -29q0 -21 -12.5 -31t-35.5 -10zM120 -166q-24 0 -36 10t-12 31q0 19 12 29t36 10t36 -10t12 -29q0 -21 -12.5 -31t-35.5 -10z" />
    <glyph glyph-name="uni1ECC" unicode="&#x1ecc;" horiz-adv-x="707" 
d="M354 -12q-72 0 -125 25t-88.5 70.5t-52.5 107.5t-17 137q0 113 36 189.5t99.5 115.5t145.5 39q65 0 117 -23.5t89 -69t57 -110t20 -145.5q0 -73 -17 -134.5t-52 -106.5t-87.5 -70t-124.5 -25zM352 43q72 0 122.5 33.5t76.5 96.5t26 153q0 91 -27 156t-77.5 100t-120.5 35
q-68 0 -118.5 -34t-77.5 -99t-27 -159q0 -68 15 -120.5t43.5 -88.5t70 -54.5t94.5 -18.5zM358 -166q-24 0 -36 10t-12 31q0 19 12 29t36 10t36 -10t12 -29q0 -21 -12.5 -31t-35.5 -10z" />
    <glyph glyph-name="uni1ECD" unicode="&#x1ecd;" horiz-adv-x="596" 
d="M300 -12q-71 0 -125 33t-84.5 93.5t-30.5 144.5q0 89 32.5 147.5t86 88t117.5 29.5q67 0 121 -31.5t86.5 -92t32.5 -147.5q0 -86 -31 -145t-84.5 -89.5t-120.5 -30.5zM302 42q54 0 93.5 26.5t61.5 74.5t22 111q0 65 -22.5 113.5t-63.5 75.5t-97 27q-54 0 -94 -25
t-62.5 -71.5t-22.5 -112.5q0 -100 50.5 -159.5t134.5 -59.5zM303 -166q-24 0 -36 10t-12 31q0 19 12 29t36 10t36 -10t12 -29q0 -21 -12.5 -31t-35.5 -10z" />
    <glyph glyph-name="uni1ECE" unicode="&#x1ece;" horiz-adv-x="707" 
d="M354 -12q-72 0 -125 25t-88.5 70.5t-52.5 107.5t-17 137q0 113 36 189.5t99.5 115.5t145.5 39q65 0 117 -23.5t89 -69t57 -110t20 -145.5q0 -73 -17 -134.5t-52 -106.5t-87.5 -70t-124.5 -25zM352 43q72 0 122.5 33.5t76.5 96.5t26 153q0 91 -27 156t-77.5 100t-120.5 35
q-68 0 -118.5 -34t-77.5 -99t-27 -159q0 -68 15 -120.5t43.5 -88.5t70 -54.5t94.5 -18.5zM326 744q0 20 9 31.5t21 18.5t21 14t9 19t-11 18t-27.5 7.5t-34 -0.5t-30.5 -7v45q15 8 41 11t53.5 -0.5t46 -17.5t18.5 -43q0 -22 -10 -34.5t-22.5 -21t-22.5 -17t-10 -23.5h-51z
" />
    <glyph glyph-name="uni1ECF" unicode="&#x1ecf;" horiz-adv-x="596" 
d="M300 -12q-71 0 -125 33t-84.5 93.5t-30.5 144.5q0 89 32.5 147.5t86 88t117.5 29.5q67 0 121 -31.5t86.5 -92t32.5 -147.5q0 -86 -31 -145t-84.5 -89.5t-120.5 -30.5zM302 42q54 0 93.5 26.5t61.5 74.5t22 111q0 65 -22.5 113.5t-63.5 75.5t-97 27q-54 0 -94 -25
t-62.5 -71.5t-22.5 -112.5q0 -100 50.5 -159.5t134.5 -59.5zM271 596q0 20 9 31.5t21 18.5t21 14t9 19t-11 18t-27.5 7.5t-34 -0.5t-30.5 -7v45q15 8 41 11t53.5 -0.5t46 -17.5t18.5 -43q0 -22 -10 -34.5t-22.5 -21t-22.5 -17t-10 -23.5h-51z" />
    <glyph glyph-name="uni1ED0" unicode="&#x1ed0;" horiz-adv-x="707" 
d="M354 -12q-72 0 -125 25t-88.5 70.5t-52.5 107.5t-17 137q0 113 36 189.5t99.5 115.5t145.5 39q65 0 117 -23.5t89 -69t57 -110t20 -145.5q0 -73 -17 -134.5t-52 -106.5t-87.5 -70t-124.5 -25zM352 43q72 0 122.5 33.5t76.5 96.5t26 153q0 91 -27 156t-77.5 100t-120.5 35
q-68 0 -118.5 -34t-77.5 -99t-27 -159q0 -68 15 -120.5t43.5 -88.5t70 -54.5t94.5 -18.5zM216 731v61l138 106l136 -106v-61l-136 107zM369 967h-55l70 146h71z" />
    <glyph glyph-name="uni1ED1" unicode="&#x1ed1;" horiz-adv-x="596" 
d="M300 -12q-71 0 -125 33t-84.5 93.5t-30.5 144.5q0 89 32.5 147.5t86 88t117.5 29.5q67 0 121 -31.5t86.5 -92t32.5 -147.5q0 -86 -31 -145t-84.5 -89.5t-120.5 -30.5zM302 42q54 0 93.5 26.5t61.5 74.5t22 111q0 65 -22.5 113.5t-63.5 75.5t-97 27q-54 0 -94 -25
t-62.5 -71.5t-22.5 -112.5q0 -100 50.5 -159.5t134.5 -59.5zM162 583v61l138 106l136 -106v-61l-136 107zM314 819h-55l70 146h71z" />
    <glyph glyph-name="uni1ED2" unicode="&#x1ed2;" horiz-adv-x="707" 
d="M354 -12q-72 0 -125 25t-88.5 70.5t-52.5 107.5t-17 137q0 113 36 189.5t99.5 115.5t145.5 39q65 0 117 -23.5t89 -69t57 -110t20 -145.5q0 -73 -17 -134.5t-52 -106.5t-87.5 -70t-124.5 -25zM352 43q72 0 122.5 33.5t76.5 96.5t26 153q0 91 -27 156t-77.5 100t-120.5 35
q-68 0 -118.5 -34t-77.5 -99t-27 -159q0 -68 15 -120.5t43.5 -88.5t70 -54.5t94.5 -18.5zM216 731v61l138 106l136 -106v-61l-136 107zM339 967l-86 146h71l70 -146h-55z" />
    <glyph glyph-name="uni1ED3" unicode="&#x1ed3;" horiz-adv-x="596" 
d="M300 -12q-71 0 -125 33t-84.5 93.5t-30.5 144.5q0 89 32.5 147.5t86 88t117.5 29.5q67 0 121 -31.5t86.5 -92t32.5 -147.5q0 -86 -31 -145t-84.5 -89.5t-120.5 -30.5zM302 42q54 0 93.5 26.5t61.5 74.5t22 111q0 65 -22.5 113.5t-63.5 75.5t-97 27q-54 0 -94 -25
t-62.5 -71.5t-22.5 -112.5q0 -100 50.5 -159.5t134.5 -59.5zM162 583v61l137 106l136 -106v-61l-136 107zM284 819l-85 146h71l69 -146h-55z" />
    <glyph glyph-name="uni1ED4" unicode="&#x1ed4;" horiz-adv-x="707" 
d="M354 -12q-72 0 -125 25t-88.5 70.5t-52.5 107.5t-17 137q0 113 36 189.5t99.5 115.5t145.5 39q65 0 117 -23.5t89 -69t57 -110t20 -145.5q0 -73 -17 -134.5t-52 -106.5t-87.5 -70t-124.5 -25zM352 43q72 0 122.5 33.5t76.5 96.5t26 153q0 91 -27 156t-77.5 100t-120.5 35
q-68 0 -118.5 -34t-77.5 -99t-27 -159q0 -68 15 -120.5t43.5 -88.5t70 -54.5t94.5 -18.5zM216 731v61l138 106l136 -106v-61l-136 107zM326 966q0 20 9 31.5t21 18.5t21 14t9 19t-11 18t-27.5 7.5t-34 -0.5t-30.5 -7v45q15 8 41 11t53.5 -0.5t46 -17.5t18.5 -43
q0 -22 -10 -34.5t-22.5 -21t-22.5 -17t-10 -23.5h-51z" />
    <glyph glyph-name="uni1ED5" unicode="&#x1ed5;" horiz-adv-x="596" 
d="M300 -12q-71 0 -125 33t-84.5 93.5t-30.5 144.5q0 89 32.5 147.5t86 88t117.5 29.5q67 0 121 -31.5t86.5 -92t32.5 -147.5q0 -86 -31 -145t-84.5 -89.5t-120.5 -30.5zM302 42q54 0 93.5 26.5t61.5 74.5t22 111q0 65 -22.5 113.5t-63.5 75.5t-97 27q-54 0 -94 -25
t-62.5 -71.5t-22.5 -112.5q0 -100 50.5 -159.5t134.5 -59.5zM162 583v61l138 106l136 -106v-61l-136 107zM271 818q0 20 9 31.5t21 18.5t21 14t9 19t-11 18t-27.5 7.5t-34 -0.5t-30.5 -7v45q15 8 41 11t53.5 -0.5t46 -17.5t18.5 -43q0 -22 -10 -34.5t-22.5 -21t-22.5 -17
t-10 -23.5h-51z" />
    <glyph glyph-name="uni1ED6" unicode="&#x1ed6;" horiz-adv-x="707" 
d="M354 -12q-72 0 -125 25t-88.5 70.5t-52.5 107.5t-17 137q0 113 36 189.5t99.5 115.5t145.5 39q65 0 117 -23.5t89 -69t57 -110t20 -145.5q0 -73 -17 -134.5t-52 -106.5t-87.5 -70t-124.5 -25zM352 43q72 0 122.5 33.5t76.5 96.5t26 153q0 91 -27 156t-77.5 100t-120.5 35
q-68 0 -118.5 -34t-77.5 -99t-27 -159q0 -68 15 -120.5t43.5 -88.5t70 -54.5t94.5 -18.5zM216 731v61l138 106l136 -106v-61l-136 107zM429 976q-19 0 -39.5 8t-40.5 18t-37 18t-28 8q-10 0 -17.5 -9.5t-6.5 -35.5h-38q-3 31 2 51.5t17.5 31.5t31.5 11q18 0 39 -8t42 -18
t39 -18t28 -8q13 0 21.5 13t6.5 33h37q5 -27 -0.5 -48.5t-19.5 -34t-37 -12.5z" />
    <glyph glyph-name="uni1ED7" unicode="&#x1ed7;" horiz-adv-x="596" 
d="M300 -12q-71 0 -125 33t-84.5 93.5t-30.5 144.5q0 89 32.5 147.5t86 88t117.5 29.5q67 0 121 -31.5t86.5 -92t32.5 -147.5q0 -86 -31 -145t-84.5 -89.5t-120.5 -30.5zM302 42q54 0 93.5 26.5t61.5 74.5t22 111q0 65 -22.5 113.5t-63.5 75.5t-97 27q-54 0 -94 -25
t-62.5 -71.5t-22.5 -112.5q0 -100 50.5 -159.5t134.5 -59.5zM162 583v61l138 106l136 -106v-61l-136 107zM374 828q-19 0 -39.5 8t-40.5 18t-37 18t-28 8q-10 0 -17.5 -9.5t-6.5 -35.5h-38q-3 31 2 51.5t17.5 31.5t31.5 11q18 0 39 -8t42 -18t39 -18t28 -8q13 0 21.5 13
t6.5 33h37q5 -27 -0.5 -48.5t-19.5 -34t-37 -12.5z" />
    <glyph glyph-name="uni1ED8" unicode="&#x1ed8;" horiz-adv-x="707" 
d="M354 -12q-72 0 -125 25t-88.5 70.5t-52.5 107.5t-17 137q0 113 36 189.5t99.5 115.5t145.5 39q65 0 117 -23.5t89 -69t57 -110t20 -145.5q0 -73 -17 -134.5t-52 -106.5t-87.5 -70t-124.5 -25zM352 43q72 0 122.5 33.5t76.5 96.5t26 153q0 91 -27 156t-77.5 100t-120.5 35
q-68 0 -118.5 -34t-77.5 -99t-27 -159q0 -68 15 -120.5t43.5 -88.5t70 -54.5t94.5 -18.5zM358 -166q-24 0 -36 10t-12 31q0 19 12 29t36 10t36 -10t12 -29q0 -21 -12.5 -31t-35.5 -10zM216 731v61l138 106l136 -106v-61l-136 107z" />
    <glyph glyph-name="uni1ED9" unicode="&#x1ed9;" horiz-adv-x="596" 
d="M300 -12q-71 0 -125 33t-84.5 93.5t-30.5 144.5q0 89 32.5 147.5t86 88t117.5 29.5q67 0 121 -31.5t86.5 -92t32.5 -147.5q0 -86 -31 -145t-84.5 -89.5t-120.5 -30.5zM302 42q54 0 93.5 26.5t61.5 74.5t22 111q0 65 -22.5 113.5t-63.5 75.5t-97 27q-54 0 -94 -25
t-62.5 -71.5t-22.5 -112.5q0 -100 50.5 -159.5t134.5 -59.5zM303 -166q-24 0 -36 10t-12 31q0 19 12 29t36 10t36 -10t12 -29q0 -21 -12.5 -31t-35.5 -10zM162 583v61l138 106l136 -106v-61l-136 107z" />
    <glyph glyph-name="uni1EDA" unicode="&#x1eda;" horiz-adv-x="707" 
d="M499 637l-60 4l2 8q46 0 64 15t19.5 42t-1.5 60h51q7 -48 0 -77t-26 -41.5t-49 -10.5zM354 -12q-72 0 -125 25t-88.5 70.5t-52.5 107.5t-17 137q0 113 36 189.5t99.5 115.5t145.5 39q65 0 117 -23.5t89 -69t57 -110t20 -145.5q0 -73 -17 -134.5t-52 -106.5t-87.5 -70
t-124.5 -25zM352 43q72 0 122.5 33.5t76.5 96.5t26 153q0 91 -27 156t-77.5 100t-120.5 35q-68 0 -118.5 -34t-77.5 -99t-27 -159q0 -68 15 -120.5t43.5 -88.5t70 -54.5t94.5 -18.5zM369 745h-55l70 146h71z" />
    <glyph glyph-name="uni1EDB" unicode="&#x1edb;" horiz-adv-x="606" 
d="M421 494l-57 5l2 13q43 0 61 15.5t21 40.5t0 54h52q7 -40 1.5 -69.5t-25 -45t-55.5 -13.5zM300 -12q-71 0 -125 33t-84.5 93.5t-30.5 144.5q0 89 32.5 147.5t86 88t117.5 29.5q67 0 121 -31.5t86.5 -92t32.5 -147.5q0 -86 -31 -145t-84.5 -89.5t-120.5 -30.5zM302 42
q54 0 93.5 26.5t61.5 74.5t22 111q0 65 -22.5 113.5t-63.5 75.5t-97 27q-54 0 -94 -25t-62.5 -71.5t-22.5 -112.5q0 -100 50.5 -159.5t134.5 -59.5zM314 597h-55l70 146h71z" />
    <glyph glyph-name="uni1EDC" unicode="&#x1edc;" horiz-adv-x="707" 
d="M499 637l-60 4l2 8q46 0 64 15t19.5 42t-1.5 60h51q7 -48 0 -77t-26 -41.5t-49 -10.5zM354 -12q-72 0 -125 25t-88.5 70.5t-52.5 107.5t-17 137q0 113 36 189.5t99.5 115.5t145.5 39q65 0 117 -23.5t89 -69t57 -110t20 -145.5q0 -73 -17 -134.5t-52 -106.5t-87.5 -70
t-124.5 -25zM352 43q72 0 122.5 33.5t76.5 96.5t26 153q0 91 -27 156t-77.5 100t-120.5 35q-68 0 -118.5 -34t-77.5 -99t-27 -159q0 -68 15 -120.5t43.5 -88.5t70 -54.5t94.5 -18.5zM339 745l-86 146h72l69 -146h-55z" />
    <glyph glyph-name="uni1EDD" unicode="&#x1edd;" horiz-adv-x="606" 
d="M421 494l-57 5l2 13q43 0 61 15.5t21 40.5t0 54h52q7 -40 1.5 -69.5t-25 -45t-55.5 -13.5zM300 -12q-71 0 -125 33t-84.5 93.5t-30.5 144.5q0 89 32.5 147.5t86 88t117.5 29.5q67 0 121 -31.5t86.5 -92t32.5 -147.5q0 -86 -31 -145t-84.5 -89.5t-120.5 -30.5zM302 42
q54 0 93.5 26.5t61.5 74.5t22 111q0 65 -22.5 113.5t-63.5 75.5t-97 27q-54 0 -94 -25t-62.5 -71.5t-22.5 -112.5q0 -100 50.5 -159.5t134.5 -59.5zM284 597l-85 146h71l69 -146h-55z" />
    <glyph glyph-name="uni1EDE" unicode="&#x1ede;" horiz-adv-x="707" 
d="M499 637l-60 4l2 8q46 0 64 15t19.5 42t-1.5 60h51q7 -48 0 -77t-26 -41.5t-49 -10.5zM354 -12q-72 0 -125 25t-88.5 70.5t-52.5 107.5t-17 137q0 113 36 189.5t99.5 115.5t145.5 39q65 0 117 -23.5t89 -69t57 -110t20 -145.5q0 -73 -17 -134.5t-52 -106.5t-87.5 -70
t-124.5 -25zM352 43q72 0 122.5 33.5t76.5 96.5t26 153q0 91 -27 156t-77.5 100t-120.5 35q-68 0 -118.5 -34t-77.5 -99t-27 -159q0 -68 15 -120.5t43.5 -88.5t70 -54.5t94.5 -18.5zM326 744q0 20 9 31.5t21 18.5t21 14t9 19t-11 18t-27.5 7.5t-34 -0.5t-30.5 -7v45
q15 8 41 11t53.5 -0.5t46 -17.5t18.5 -43q0 -22 -10 -34.5t-22.5 -21t-22.5 -17t-10 -23.5h-51z" />
    <glyph glyph-name="uni1EDF" unicode="&#x1edf;" horiz-adv-x="606" 
d="M421 494l-57 5l2 13q43 0 61 15.5t21 40.5t0 54h52q7 -40 1.5 -69.5t-25 -45t-55.5 -13.5zM300 -12q-71 0 -125 33t-84.5 93.5t-30.5 144.5q0 89 32.5 147.5t86 88t117.5 29.5q67 0 121 -31.5t86.5 -92t32.5 -147.5q0 -86 -31 -145t-84.5 -89.5t-120.5 -30.5zM302 42
q54 0 93.5 26.5t61.5 74.5t22 111q0 65 -22.5 113.5t-63.5 75.5t-97 27q-54 0 -94 -25t-62.5 -71.5t-22.5 -112.5q0 -100 50.5 -159.5t134.5 -59.5zM271 596q0 20 9 31.5t21 18.5t21 14t9 19t-11 18t-27.5 7.5t-34 -0.5t-30.5 -7v45q15 8 41 11t53.5 -0.5t46 -17.5t18.5 -43
q0 -22 -10 -34.5t-22.5 -21t-22.5 -17t-10 -23.5h-51z" />
    <glyph glyph-name="uni1EE0" unicode="&#x1ee0;" horiz-adv-x="707" 
d="M499 637l-60 4l2 8q46 0 64 15t19.5 42t-1.5 60h51q7 -48 0 -77t-26 -41.5t-49 -10.5zM354 -12q-72 0 -125 25t-88.5 70.5t-52.5 107.5t-17 137q0 113 36 189.5t99.5 115.5t145.5 39q65 0 117 -23.5t89 -69t57 -110t20 -145.5q0 -73 -17 -134.5t-52 -106.5t-87.5 -70
t-124.5 -25zM352 43q72 0 122.5 33.5t76.5 96.5t26 153q0 91 -27 156t-77.5 100t-120.5 35q-68 0 -118.5 -34t-77.5 -99t-27 -159q0 -68 15 -120.5t43.5 -88.5t70 -54.5t94.5 -18.5zM414 743q-24 0 -45 12.5t-38 25.5t-31 13q-11 0 -16.5 -10t-4.5 -27h-37q-3 27 0 46
t14 29.5t31 10.5q25 0 46.5 -13t40 -26t33.5 -13q12 0 17.5 10.5t3.5 27.5h38q4 -23 0 -42.5t-16.5 -31.5t-35.5 -12z" />
    <glyph glyph-name="uni1EE1" unicode="&#x1ee1;" horiz-adv-x="606" 
d="M421 494l-57 5l2 13q43 0 61 15.5t21 40.5t0 54h52q7 -40 1.5 -69.5t-25 -45t-55.5 -13.5zM300 -12q-71 0 -125 33t-84.5 93.5t-30.5 144.5q0 89 32.5 147.5t86 88t117.5 29.5q67 0 121 -31.5t86.5 -92t32.5 -147.5q0 -86 -31 -145t-84.5 -89.5t-120.5 -30.5zM302 42
q54 0 93.5 26.5t61.5 74.5t22 111q0 65 -22.5 113.5t-63.5 75.5t-97 27q-54 0 -94 -25t-62.5 -71.5t-22.5 -112.5q0 -100 50.5 -159.5t134.5 -59.5zM359 595q-24 0 -45 12.5t-38 25.5t-31 13q-11 0 -16.5 -10t-4.5 -27h-37q-3 27 0 46t14 29.5t31 10.5q25 0 46.5 -13t40 -26
t33.5 -13q12 0 17.5 10.5t3.5 27.5h38q4 -23 0 -42.5t-16.5 -31.5t-35.5 -12z" />
    <glyph glyph-name="uni1EE2" unicode="&#x1ee2;" horiz-adv-x="707" 
d="M499 637l-60 4l2 8q46 0 64 15t19.5 42t-1.5 60h51q7 -48 0 -77t-26 -41.5t-49 -10.5zM354 -12q-72 0 -125 25t-88.5 70.5t-52.5 107.5t-17 137q0 113 36 189.5t99.5 115.5t145.5 39q65 0 117 -23.5t89 -69t57 -110t20 -145.5q0 -73 -17 -134.5t-52 -106.5t-87.5 -70
t-124.5 -25zM352 43q72 0 122.5 33.5t76.5 96.5t26 153q0 91 -27 156t-77.5 100t-120.5 35q-68 0 -118.5 -34t-77.5 -99t-27 -159q0 -68 15 -120.5t43.5 -88.5t70 -54.5t94.5 -18.5zM358 -166q-24 0 -36 10t-12 31q0 19 12 29t36 10t36 -10t12 -29q0 -21 -12.5 -31
t-35.5 -10z" />
    <glyph glyph-name="uni1EE3" unicode="&#x1ee3;" horiz-adv-x="606" 
d="M421 494l-57 5l2 13q43 0 61 15.5t21 40.5t0 54h52q7 -40 1.5 -69.5t-25 -45t-55.5 -13.5zM300 -12q-71 0 -125 33t-84.5 93.5t-30.5 144.5q0 89 32.5 147.5t86 88t117.5 29.5q67 0 121 -31.5t86.5 -92t32.5 -147.5q0 -86 -31 -145t-84.5 -89.5t-120.5 -30.5zM302 42
q54 0 93.5 26.5t61.5 74.5t22 111q0 65 -22.5 113.5t-63.5 75.5t-97 27q-54 0 -94 -25t-62.5 -71.5t-22.5 -112.5q0 -100 50.5 -159.5t134.5 -59.5zM303 -166q-24 0 -36 10t-12 31q0 19 12 29t36 10t36 -10t12 -29q0 -21 -12.5 -31t-35.5 -10z" />
    <glyph glyph-name="uni1EE4" unicode="&#x1ee4;" horiz-adv-x="704" 
d="M352 -12q-50 0 -91.5 11t-73.5 32.5t-53.5 52.5t-33 71.5t-11.5 89.5v415h57v-412q0 -67 24 -112.5t70 -69t112 -23.5q68 0 113.5 23t69 69t23.5 113v412h57v-415q0 -123 -68.5 -190t-194.5 -67zM355 -166q-24 0 -36 10t-12 31q0 19 12 29t36 10t36 -10t12 -29
q0 -21 -12.5 -31t-35.5 -10z" />
    <glyph glyph-name="uni1EE5" unicode="&#x1ee5;" horiz-adv-x="564" 
d="M246 -12q-82 0 -124.5 58t-42.5 172v294h57v-293q0 -89 28 -132.5t90 -43.5q34 0 61 16t48.5 46t36 71t20.5 91v245h56v-295l1 -217h-58l14 167h-14q-11 -61 -35.5 -101t-59.5 -59t-78 -19zM300 -166q-24 0 -36 10t-12 31q0 19 12 29t36 10t36 -10t12 -29
q0 -21 -12.5 -31t-35.5 -10z" />
    <glyph glyph-name="uni1EE6" unicode="&#x1ee6;" horiz-adv-x="704" 
d="M352 -12q-50 0 -91.5 11t-73.5 32.5t-53.5 52.5t-33 71.5t-11.5 89.5v415h57v-412q0 -67 24 -112.5t70 -69t112 -23.5q68 0 113.5 23t69 69t23.5 113v412h57v-415q0 -123 -68.5 -190t-194.5 -67zM324 744q0 20 9 31.5t21 18.5t21 14t9 19t-11 18t-27.5 7.5t-34 -0.5
t-30.5 -7v45q15 8 41 11t53.5 -0.5t46 -17.5t18.5 -43q0 -22 -10 -34.5t-22.5 -21t-22.5 -17t-10 -23.5h-51z" />
    <glyph glyph-name="uni1EE7" unicode="&#x1ee7;" horiz-adv-x="564" 
d="M246 -12q-82 0 -124.5 58t-42.5 172v294h57v-293q0 -89 28 -132.5t90 -43.5q34 0 61 16t48.5 46t36 71t20.5 91v245h56v-295l1 -217h-58l14 167h-14q-11 -61 -35.5 -101t-59.5 -59t-78 -19zM250 596q0 20 9 31.5t21 18.5t21 14t9 19t-11 18t-27.5 7.5t-34 -0.5t-30.5 -7
v45q15 8 41 11t53.5 -0.5t46 -17.5t18.5 -43q0 -22 -10 -34.5t-22.5 -21t-22.5 -17t-10 -23.5h-51z" />
    <glyph glyph-name="uni1EE8" unicode="&#x1ee8;" horiz-adv-x="704" 
d="M352 -12q-50 0 -91.5 11t-73.5 32.5t-53.5 52.5t-33 71.5t-11.5 89.5v415h57v-412q0 -67 24 -112.5t70 -69t112 -23.5q68 0 113.5 23t69 69t23.5 113v412h57v-415q0 -123 -68.5 -190t-194.5 -67zM631 642l-53 5l2 13q34 0 51 11t23 28t5 35.5t-4 35.5h52q6 -38 1.5 -68
t-23 -46.5t-54.5 -13.5zM367 745h-55l70 146h71z" />
    <glyph glyph-name="uni1EE9" unicode="&#x1ee9;" horiz-adv-x="610" 
d="M246 -12q-82 0 -124.5 58t-42.5 172v294h57v-293q0 -89 28 -132.5t90 -43.5q34 0 61 16t48.5 46t36 71t20.5 91v245h56v-295l1 -217h-58l14 167h-14q-11 -61 -35.5 -101t-59.5 -59t-78 -19zM492 494l-53 5l2 13q34 0 51 11t23 28t5 35.5t-4 35.5h52q6 -38 1.5 -68
t-23 -46.5t-54.5 -13.5zM293 597h-55l70 146h71z" />
    <glyph glyph-name="uni1EEA" unicode="&#x1eea;" horiz-adv-x="704" 
d="M352 -12q-50 0 -91.5 11t-73.5 32.5t-53.5 52.5t-33 71.5t-11.5 89.5v415h57v-412q0 -67 24 -112.5t70 -69t112 -23.5q68 0 113.5 23t69 69t23.5 113v412h57v-415q0 -123 -68.5 -190t-194.5 -67zM630 642l-52 5l2 13q33 0 50.5 11t23.5 28t5 35.5t-4 35.5h52
q6 -37 1.5 -67.5t-23 -47t-55.5 -13.5zM337 745l-86 146h71l70 -146h-55z" />
    <glyph glyph-name="uni1EEB" unicode="&#x1eeb;" horiz-adv-x="610" 
d="M246 -12q-82 0 -124.5 58t-42.5 172v294h57v-293q0 -89 28 -132.5t90 -43.5q34 0 61 16t48.5 46t36 71t20.5 91v245h56v-295l1 -217h-58l14 167h-14q-11 -61 -35.5 -101t-59.5 -59t-78 -19zM492 494l-53 5l2 13q34 0 51.5 11t23.5 28t5 35.5t-4 35.5h52q6 -38 1.5 -68
t-23 -46.5t-55.5 -13.5zM263 597l-85 146h71l69 -146h-55z" />
    <glyph glyph-name="uni1EEC" unicode="&#x1eec;" horiz-adv-x="704" 
d="M352 -12q-50 0 -91.5 11t-73.5 32.5t-53.5 52.5t-33 71.5t-11.5 89.5v415h57v-412q0 -67 24 -112.5t70 -69t112 -23.5q68 0 113.5 23t69 69t23.5 113v412h57v-415q0 -123 -68.5 -190t-194.5 -67zM631 642l-53 5l2 13q34 0 51 11t23 28t5 35.5t-4 35.5h52q6 -38 1.5 -68
t-23 -46.5t-54.5 -13.5zM324 744q0 20 9 31.5t21 18.5t21 14t9 19t-11 18t-27.5 7.5t-34 -0.5t-30.5 -7v45q15 8 41 11t53.5 -0.5t46 -17.5t18.5 -43q0 -22 -10 -34.5t-22.5 -21t-22.5 -17t-10 -23.5h-51z" />
    <glyph glyph-name="uni1EED" unicode="&#x1eed;" horiz-adv-x="610" 
d="M246 -12q-82 0 -124.5 58t-42.5 172v294h57v-293q0 -89 28 -132.5t90 -43.5q34 0 61 16t48.5 46t36 71t20.5 91v245h56v-295l1 -217h-58l14 167h-14q-11 -61 -35.5 -101t-59.5 -59t-78 -19zM492 494l-53 5l2 13q34 0 51 11t23 28t5 35.5t-4 35.5h52q6 -38 1.5 -68
t-23 -46.5t-54.5 -13.5zM250 596q0 20 9 31.5t21 18.5t21 14t9 19t-11 18t-27.5 7.5t-34 -0.5t-30.5 -7v45q15 8 41 11t53.5 -0.5t46 -17.5t18.5 -43q0 -22 -10 -34.5t-22.5 -21t-22.5 -17t-10 -23.5h-51z" />
    <glyph glyph-name="uni1EEE" unicode="&#x1eee;" horiz-adv-x="704" 
d="M352 -12q-50 0 -91.5 11t-73.5 32.5t-53.5 52.5t-33 71.5t-11.5 89.5v415h57v-412q0 -67 24 -112.5t70 -69t112 -23.5q68 0 113.5 23t69 69t23.5 113v412h57v-415q0 -123 -68.5 -190t-194.5 -67zM631 642l-53 5l2 13q34 0 51 11t23 28t5 35.5t-4 35.5h52q6 -38 1.5 -68
t-23 -46.5t-54.5 -13.5zM427 754q-19 0 -39.5 8t-40.5 18t-37 18t-28 8q-10 0 -17.5 -9.5t-6.5 -35.5h-38q-3 31 2 51.5t17.5 31.5t31.5 11q18 0 39 -8t42 -18t39 -18t28 -8q13 0 21.5 13t6.5 33h37q5 -27 -0.5 -48.5t-19.5 -34t-37 -12.5z" />
    <glyph glyph-name="uni1EEF" unicode="&#x1eef;" horiz-adv-x="610" 
d="M246 -12q-82 0 -124.5 58t-42.5 172v294h57v-293q0 -89 28 -132.5t90 -43.5q34 0 61 16t48.5 46t36 71t20.5 91v245h56v-295l1 -217h-58l14 167h-14q-11 -61 -35.5 -101t-59.5 -59t-78 -19zM492 494l-53 5l2 13q34 0 51 11t23 28t5 35.5t-4 35.5h52q6 -38 1.5 -68
t-23 -46.5t-54.5 -13.5zM353 606q-19 0 -39.5 8t-40.5 18t-37 18t-28 8q-10 0 -17.5 -9.5t-6.5 -35.5h-38q-3 31 2 51.5t17.5 31.5t31.5 11q18 0 39 -8t42 -18t39 -18t28 -8q13 0 21.5 13t6.5 33h37q5 -27 -0.5 -48.5t-19.5 -34t-37 -12.5z" />
    <glyph glyph-name="uni1EF0" unicode="&#x1ef0;" horiz-adv-x="704" 
d="M352 -12q-50 0 -91.5 11t-73.5 32.5t-53.5 52.5t-33 71.5t-11.5 89.5v415h57v-412q0 -67 24 -112.5t70 -69t112 -23.5q68 0 113.5 23t69 69t23.5 113v412h57v-415q0 -123 -68.5 -190t-194.5 -67zM631 642l-53 5l2 13q34 0 51 11t23 28t5 35.5t-4 35.5h52q6 -38 1.5 -68
t-23 -46.5t-54.5 -13.5zM355 -166q-24 0 -36 10t-12 31q0 19 12 29t36 10t36 -10t12 -29q0 -21 -12.5 -31t-35.5 -10z" />
    <glyph glyph-name="uni1EF1" unicode="&#x1ef1;" horiz-adv-x="610" 
d="M246 -12q-82 0 -124.5 58t-42.5 172v294h57v-293q0 -89 28 -132.5t90 -43.5q34 0 61 16t48.5 46t36 71t20.5 91v245h56v-295l1 -217h-58l14 167h-14q-11 -61 -35.5 -101t-59.5 -59t-78 -19zM492 494l-53 5l2 13q34 0 51 11t23 28t5 35.5t-4 35.5h52q6 -38 1.5 -68
t-23 -46.5t-54.5 -13.5zM300 -166q-24 0 -36 10t-12 31q0 19 12 29t36 10t36 -10t12 -29q0 -21 -12.5 -31t-35.5 -10z" />
    <glyph glyph-name="Ygrave" unicode="&#x1ef2;" horiz-adv-x="538" 
d="M241 0v218l-223 442h63l187 -380h4l185 380h64l-223 -442v-218h-57zM255 745l-86 146h71l70 -146h-55z" />
    <glyph glyph-name="ygrave" unicode="&#x1ef3;" horiz-adv-x="573" 
d="M265 -168q-41 0 -79.5 10t-69 31.5t-48.5 55.5l49 28q17 -34 55 -53t90 -19q58 0 97 27t58.5 82.5t19.5 139.5l13 113h-16q-12 -77 -36.5 -122t-58.5 -64t-78 -19q-55 0 -93.5 28t-58.5 82.5t-20 131.5v228h55v-219q0 -99 32.5 -147.5t94.5 -48.5q34 0 61.5 16t48 49
t33 83.5t16.5 120.5v146h57v-383q0 -59 -8.5 -106.5t-26 -83t-44 -60t-62 -36t-81.5 -11.5zM274 597l-86 146h71l70 -146h-55z" />
    <glyph glyph-name="uni1EF4" unicode="&#x1ef4;" horiz-adv-x="538" 
d="M241 0v218l-223 442h63l187 -380h4l185 380h64l-223 -442v-218h-57zM273 -166q-24 0 -36 10t-12 31q0 19 12 29t36 10t36 -10t12 -29q0 -21 -12.5 -31t-35.5 -10z" />
    <glyph glyph-name="uni1EF5" unicode="&#x1ef5;" horiz-adv-x="573" 
d="M265 -168q-41 0 -79.5 10t-69 31.5t-48.5 55.5l49 28q17 -34 55 -53t90 -19q58 0 97 27t58.5 82.5t19.5 139.5l13 113h-16q-12 -77 -36.5 -122t-58.5 -64t-78 -19q-55 0 -93.5 28t-58.5 82.5t-20 131.5v228h55v-219q0 -99 32.5 -147.5t94.5 -48.5q34 0 61.5 16t48 49
t33 83.5t16.5 120.5v146h57v-383q0 -59 -8.5 -106.5t-26 -83t-44 -60t-62 -36t-81.5 -11.5zM306 -319q-24 0 -36 10t-12 31q0 19 12 29t36 10t36 -10t12 -29q0 -21 -12.5 -31t-35.5 -10z" />
    <glyph glyph-name="uni1EF6" unicode="&#x1ef6;" horiz-adv-x="538" 
d="M241 0v218l-223 442h63l187 -380h4l185 380h64l-223 -442v-218h-57zM241 744q0 20 9 31.5t21 18.5t21 14t9 19t-11 18t-27.5 7.5t-34 -0.5t-30.5 -7v45q15 8 41 11t53.5 -0.5t46 -17.5t18.5 -43q0 -22 -10 -34.5t-22.5 -21t-22.5 -17t-10 -23.5h-51z" />
    <glyph glyph-name="uni1EF7" unicode="&#x1ef7;" horiz-adv-x="573" 
d="M265 -168q-41 0 -79.5 10t-69 31.5t-48.5 55.5l49 28q17 -34 55 -53t90 -19q58 0 97 27t58.5 82.5t19.5 139.5l13 113h-16q-12 -77 -36.5 -122t-58.5 -64t-78 -19q-55 0 -93.5 28t-58.5 82.5t-20 131.5v228h55v-219q0 -99 32.5 -147.5t94.5 -48.5q34 0 61.5 16t48 49
t33 83.5t16.5 120.5v146h57v-383q0 -59 -8.5 -106.5t-26 -83t-44 -60t-62 -36t-81.5 -11.5zM261 596q0 20 9 31.5t21 18.5t21 14t9 19t-11 18t-27.5 7.5t-34 -0.5t-30.5 -7v45q15 8 41 11t53.5 -0.5t46 -17.5t18.5 -43q0 -22 -10 -34.5t-22.5 -21t-22.5 -17t-10 -23.5h-51z
" />
    <glyph glyph-name="uni1EF8" unicode="&#x1ef8;" horiz-adv-x="538" 
d="M241 0v218l-223 442h63l187 -380h4l185 380h64l-223 -442v-218h-57zM345 754q-19 0 -39.5 8t-40.5 18t-37 18t-28 8q-10 0 -17.5 -9.5t-6.5 -35.5h-38q-3 31 2 51.5t17.5 31.5t31.5 11q18 0 39 -8t42 -18t39 -18t28 -8q13 0 21.5 13t6.5 33h37q5 -27 -0.5 -48.5
t-19.5 -34t-37 -12.5z" />
    <glyph glyph-name="uni1EF9" unicode="&#x1ef9;" horiz-adv-x="573" 
d="M265 -168q-41 0 -79.5 10t-69 31.5t-48.5 55.5l49 28q17 -34 55 -53t90 -19q58 0 97 27t58.5 82.5t19.5 139.5l13 113h-16q-12 -77 -36.5 -122t-58.5 -64t-78 -19q-55 0 -93.5 28t-58.5 82.5t-20 131.5v228h55v-219q0 -99 32.5 -147.5t94.5 -48.5q34 0 61.5 16t48 49
t33 83.5t16.5 120.5v146h57v-383q0 -59 -8.5 -106.5t-26 -83t-44 -60t-62 -36t-81.5 -11.5zM364 606q-19 0 -39.5 8t-40.5 18t-37 18t-28 8q-10 0 -17.5 -9.5t-6.5 -35.5h-38q-3 31 2 51.5t17.5 31.5t31.5 11q18 0 39 -8t42 -18t39 -18t28 -8q13 0 21.5 13t6.5 33h37
q5 -27 -0.5 -48.5t-19.5 -34t-37 -12.5z" />
    <glyph glyph-name="uni2000" unicode="&#x2000;" horiz-adv-x="500" 
 />
    <glyph glyph-name="uni2001" unicode="&#x2001;" horiz-adv-x="1000" 
 />
    <glyph glyph-name="uni2002" unicode="&#x2002;" horiz-adv-x="500" 
 />
    <glyph glyph-name="uni2003" unicode="&#x2003;" horiz-adv-x="1000" 
 />
    <glyph glyph-name="uni2004" unicode="&#x2004;" horiz-adv-x="300" 
 />
    <glyph glyph-name="uni2005" unicode="&#x2005;" horiz-adv-x="250" 
 />
    <glyph glyph-name="uni2006" unicode="&#x2006;" horiz-adv-x="167" 
 />
    <glyph glyph-name="uni2007" unicode="&#x2007;" horiz-adv-x="589" 
 />
    <glyph glyph-name="uni2008" unicode="&#x2008;" horiz-adv-x="140" 
 />
    <glyph glyph-name="uni2009" unicode="&#x2009;" horiz-adv-x="139" 
 />
    <glyph glyph-name="uni200A" unicode="&#x200a;" horiz-adv-x="70" 
 />
    <glyph glyph-name="uni200B" unicode="&#x200b;" 
 />
    <glyph glyph-name="endash" unicode="&#x2013;" horiz-adv-x="496" 
d="M35 240v52h426v-52h-426z" />
    <glyph glyph-name="emdash" unicode="&#x2014;" horiz-adv-x="714" 
d="M35 240v52h644v-52h-644z" />
    <glyph glyph-name="uni2016" unicode="&#x2016;" horiz-adv-x="411" 
d="M94 -153v813h53v-813h-53zM263 -153v813h53v-813h-53z" />
    <glyph glyph-name="quoteleft" unicode="&#x2018;" horiz-adv-x="132" 
d="M117 700q-18 -45 -25.5 -81t-9 -63t-1.5 -48h-57q0 41 6 76t15.5 64t19.5 52h52z" />
    <glyph glyph-name="quoteright" unicode="&#x2019;" horiz-adv-x="132" 
d="M16 498q18 46 25.5 81.5t9 63t1.5 48.5h57q0 -41 -6 -76t-15.5 -64.5t-19.5 -52.5h-52z" />
    <glyph glyph-name="quotesinglbase" unicode="&#x201a;" horiz-adv-x="118" 
d="M0 -140q18 46 25.5 81.5t9 63t1.5 48.5h57q0 -41 -6 -76t-15.5 -64.5t-19.5 -52.5h-52z" />
    <glyph glyph-name="quotedblleft" unicode="&#x201c;" horiz-adv-x="265" 
d="M250 700q-18 -45 -25.5 -81t-9 -63t-1.5 -48h-57q0 41 6 76t15.5 64t19.5 52h52zM117 700q-18 -45 -25.5 -81t-9 -63t-1.5 -48h-57q0 41 6 76t15.5 64t19.5 52h52z" />
    <glyph glyph-name="quotedblright" unicode="&#x201d;" horiz-adv-x="265" 
d="M16 498q18 46 25.5 81.5t9 63t1.5 48.5h57q0 -41 -6 -76t-15.5 -64.5t-19.5 -52.5h-52zM149 498q18 46 25.5 81.5t9 63t1.5 48.5h57q0 -41 -6 -76t-15.5 -64.5t-19.5 -52.5h-52z" />
    <glyph glyph-name="quotedblbase" unicode="&#x201e;" horiz-adv-x="251" 
d="M0 -101q18 46 25.5 81.5t9 63t1.5 48.5h57q0 -41 -6 -76t-15.5 -64.5t-19.5 -52.5h-52zM133 -101q18 46 25.5 81.5t9 63t1.5 48.5h57q0 -41 -6 -76t-15.5 -64.5t-19.5 -52.5h-52z" />
    <glyph glyph-name="dagger" unicode="&#x2020;" horiz-adv-x="320" 
d="M140 583l-110 -16v58l111 -22l3 4l-16 113h63l-17 -113l4 -4l112 22v-58l-110 17l-5 -4l16 -230h-63l16 229z" />
    <glyph glyph-name="daggerdbl" unicode="&#x2021;" horiz-adv-x="293" 
d="M124 611l-94 -19v61l95 -24l5 4l-16 87h67l-15 -86l3 -4l95 23v-61l-93 19l-4 -4l-2 -61h-35l-2 61zM124 465l4 4l2 58h35l2 -59l4 -4l93 19v-60l-95 23l-3 -4l15 -86h-67l16 86l-5 4l-95 -23v60z" />
    <glyph glyph-name="bullet" unicode="&#x2022;" horiz-adv-x="185" 
d="M91 186q-33 0 -49.5 15t-16.5 48q0 34 16.5 49t49.5 15q35 0 52 -15t17 -49q0 -33 -17 -48t-52 -15z" />
    <glyph glyph-name="ellipsis" unicode="&#x2026;" horiz-adv-x="617" 
d="M70 -11q-22 0 -33.5 10t-11.5 32q0 23 11.5 33t33.5 10q23 0 34.5 -10t11.5 -33q0 -42 -46 -42zM309 -11q-22 0 -33.5 10t-11.5 32q0 23 11.5 33t33.5 10q23 0 34.5 -10t11.5 -33q0 -42 -46 -42zM546 -11q-22 0 -33.5 10t-11.5 32q0 23 11.5 33t33.5 10q23 0 34.5 -10
t11.5 -33q0 -42 -46 -42z" />
    <glyph glyph-name="uni202F" unicode="&#x202f;" horiz-adv-x="167" 
 />
    <glyph glyph-name="perthousand" unicode="&#x2030;" horiz-adv-x="1302" 
d="M210 299q-47 0 -87 21.5t-63.5 63.5t-23.5 101q0 45 13.5 79.5t37.5 57.5t55.5 35t66.5 12q47 0 86.5 -21.5t63 -63t23.5 -102.5q0 -62 -24.5 -102.5t-63.5 -60.5t-84 -20zM213 352q27 0 53.5 13.5t43.5 42t17 73.5q0 51 -19.5 80.5t-47.5 42t-54 12.5q-28 0 -54.5 -13.5
t-43.5 -42t-17 -73.5q0 -47 18.5 -77t47 -44t56.5 -14zM694 -12q-48 0 -88 21.5t-63.5 63.5t-23.5 101q0 45 13.5 79.5t37.5 57.5t55.5 35t66.5 12q48 0 87.5 -21.5t63 -63t23.5 -102.5q0 -62 -24.5 -102.5t-63.5 -60.5t-84 -20zM696 41q28 0 54.5 13.5t43.5 41.5t17 74
q0 51 -19.5 80.5t-47.5 42t-55 12.5q-28 0 -54.5 -13.5t-43.5 -42t-17 -73.5q0 -47 19 -77t47 -44t56 -14zM1094 -12q-48 0 -88 21.5t-63 63.5t-23 101q0 45 13.5 79.5t37.5 57.5t55.5 35t66.5 12q47 0 86.5 -21.5t63 -63t23.5 -102.5q0 -62 -24.5 -102.5t-63.5 -60.5
t-84 -20zM1097 41q27 0 53 13.5t43.5 41.5t17.5 74q0 51 -19.5 80.5t-47.5 42t-54 12.5q-28 0 -54.5 -13.5t-43.5 -42t-17 -73.5q0 -47 18.5 -77t47 -44t56.5 -14zM208 0l408 660h62l-409 -660h-61z" />
    <glyph glyph-name="minute" unicode="&#x2032;" horiz-adv-x="146" 
d="M36 442l30 218h58l-51 -218h-37z" />
    <glyph glyph-name="second" unicode="&#x2033;" horiz-adv-x="255" 
d="M146 442l30 218h58l-51 -218h-37zM36 442l30 218h58l-51 -218h-37z" />
    <glyph glyph-name="guilsinglleft" unicode="&#x2039;" horiz-adv-x="210" 
d="M97 79q-10 51 -24.5 97t-30.5 90q17 44 31 89t24 95h62q-14 -50 -30.5 -95t-34.5 -89q18 -44 34.5 -90t30.5 -97h-62z" />
    <glyph glyph-name="guilsinglright" unicode="&#x203a;" horiz-adv-x="179" 
d="M83 79h-63q14 51 30.5 97t34.5 90q-18 44 -34.5 89t-30.5 95h63q10 -50 24 -95t30 -89q-16 -44 -30.5 -90t-23.5 -97z" />
    <glyph glyph-name="fraction" unicode="&#x2044;" horiz-adv-x="247" 
d="M-111 0l408 660h62l-409 -660h-61z" />
    <glyph glyph-name="uni2070" unicode="&#x2070;" horiz-adv-x="431" 
d="M217 262q-50 0 -87 26t-57 72.5t-20 107.5q0 66 21 112.5t57.5 71.5t85.5 25q51 0 87 -27t55.5 -74t19.5 -109q0 -59 -19.5 -105.5t-56.5 -73t-86 -26.5zM216 308q32 0 57 17.5t39.5 54t14.5 91.5q0 75 -30 117t-80 42q-30 0 -55.5 -17t-41 -52.5t-15.5 -90.5
q0 -53 14 -89t39.5 -54.5t57.5 -18.5z" />
    <glyph glyph-name="uni2074" unicode="&#x2074;" horiz-adv-x="405" 
d="M25 357v60q40 39 74 81.5t61 86t45 85.5h90v-400h-52v360h-4q-29 -61 -71 -118t-92 -105v-5h269v-45h-320z" />
    <glyph glyph-name="uni2075" unicode="&#x2075;" horiz-adv-x="397" 
d="M195 262q-43 0 -75 13t-49 36.5t-17 56.5l47 12q2 -35 24.5 -55t68.5 -20q48 0 74.5 25t26.5 75q0 24 -7.5 46t-25.5 35.5t-52 13.5q-41 0 -61 -18.5t-27 -39.5h-58l11 227h253v-45h-208l-10 -147h9q12 38 42.5 52t63.5 14q42 0 69 -17.5t40.5 -48.5t13.5 -72
q0 -51 -20.5 -82.5t-55 -46t-77.5 -14.5z" />
    <glyph glyph-name="uni2076" unicode="&#x2076;" horiz-adv-x="424" 
d="M227 262q-82 0 -128 51.5t-46 152.5q0 63 19 110.5t56.5 74.5t93.5 27q28 0 52 -7.5t42 -22t29.5 -36t14.5 -49.5l-48 -12q-4 39 -28 60t-62 21q-43 0 -69.5 -24t-38.5 -63t-12 -84q0 -24 3.5 -46t10.5 -43h6q-4 51 13 82t47 45.5t63 14.5q34 0 63 -14t47 -41t18 -68
q0 -25 -8.5 -48t-26 -41.5t-45.5 -29t-66 -10.5zM222 304q37 0 58.5 13t31 33t9.5 41q0 43 -27 62t-60 19q-43 0 -69 -25.5t-26 -67.5q0 -30 13 -46t32 -22.5t38 -6.5z" />
    <glyph glyph-name="uni2077" unicode="&#x2077;" horiz-adv-x="329" 
d="M105 270q0 61 16 126.5t47.5 124.5t78.5 101v4l-214 -3v46h263v-51q-33 -31 -58.5 -69t-43 -82t-26.5 -93.5t-9 -103.5h-54z" />
    <glyph glyph-name="uni2078" unicode="&#x2078;" horiz-adv-x="416" 
d="M209 262q-48 0 -84.5 13t-57.5 38.5t-21 60.5q0 40 27 64t72 31v4l63 8l63 -7v-5q28 -2 50.5 -14t36 -33t13.5 -51q0 -35 -20.5 -59t-57 -37t-84.5 -13zM209 306q21 0 47 6.5t45 22t19 41.5q0 25 -17 42t-43 26t-52 9t-51.5 -9t-42 -25.5t-16.5 -41.5t18 -40.5t43.5 -23
t49.5 -7.5zM207 493q22 0 44 8.5t37.5 25t15.5 40.5t-16.5 38t-39 20.5t-44.5 6.5q-20 0 -41.5 -6.5t-36.5 -21t-15 -36.5q0 -24 14 -40.5t36.5 -25.5t45.5 -9zM208 459l-63 9v10q-36 6 -61 29t-25 62q0 27 11 47t31 33.5t47 21t60 7.5q68 0 108 -29.5t40 -79.5
q0 -38 -23 -60.5t-62 -30.5v-10z" />
    <glyph glyph-name="uni2079" unicode="&#x2079;" horiz-adv-x="421" 
d="M200 262q-31 0 -56.5 7t-44 21.5t-30 35.5t-14.5 49l48 12q5 -34 20.5 -51.5t36 -23.5t39.5 -6q34 0 57.5 12t37.5 33.5t20 49.5t6 59q0 25 -4 53t-10 55h-8q6 -49 -11 -80.5t-47 -46.5t-62 -15q-50 0 -88 32.5t-38 90.5q0 26 9 49t26.5 41t44.5 28.5t63 10.5
q54 0 93 -25t60 -73t21 -118q0 -61 -17.5 -106t-55 -69.5t-96.5 -24.5zM191 464q40 0 65 27.5t25 69.5q0 30 -12 45.5t-31 21.5t-39 6q-34 0 -55.5 -12.5t-31 -32t-9.5 -41.5q0 -41 27.5 -62.5t60.5 -21.5z" />
    <glyph glyph-name="uni2080" unicode="&#x2080;" horiz-adv-x="431" 
d="M217 -218q-50 0 -87 26t-57 72.5t-20 107.5q0 66 21 112.5t57.5 71.5t85.5 25q51 0 87 -27t55.5 -74t19.5 -109q0 -59 -19.5 -105.5t-56.5 -73t-86 -26.5zM216 -172q32 0 57 17.5t39.5 54t14.5 91.5q0 75 -30 117t-80 42q-30 0 -55.5 -17t-41 -52.5t-15.5 -90.5
q0 -53 14 -89t39.5 -54.5t57.5 -18.5z" />
    <glyph glyph-name="uni2081" unicode="&#x2081;" horiz-adv-x="231" 
d="M100 -210v311h-56v45q25 0 43 8.5t23 35.5h40v-400h-50z" />
    <glyph glyph-name="uni2082" unicode="&#x2082;" horiz-adv-x="380" 
d="M40 -210v61l143 111q18 14 38.5 32.5t35 41t14.5 47.5q0 30 -22 49.5t-65 19.5q-31 0 -51 -12t-29 -36t-9 -61l-49 13q-1 59 31 100.5t108 41.5q42 0 73 -13.5t48 -38.5t17 -59q0 -25 -9 -47t-24.5 -41.5t-34 -36.5t-38.5 -32l-122 -94v-4l238 5v-47h-293z" />
    <glyph glyph-name="uni2083" unicode="&#x2083;" horiz-adv-x="394" 
d="M176 -218q-76 0 -112.5 32t-39.5 84l48 12q1 -28 14 -47.5t36 -29t54 -9.5q43 0 75 18.5t32 60.5q0 28 -16 48.5t-53.5 31.5t-100.5 10v33l147 116v4l-220 -1v44h271v-56l-136 -106v-5q78 0 118.5 -31t40.5 -87q0 -55 -40.5 -88.5t-117.5 -33.5z" />
    <glyph glyph-name="uni2084" unicode="&#x2084;" horiz-adv-x="405" 
d="M25 -123v60q40 39 74 81.5t61 86t45 85.5h90v-400h-52v360h-4q-29 -61 -71 -118t-92 -105v-5h269v-45h-320z" />
    <glyph glyph-name="uni2085" unicode="&#x2085;" horiz-adv-x="397" 
d="M195 -218q-43 0 -75 13t-49 36.5t-17 56.5l47 12q2 -35 24.5 -55t68.5 -20q48 0 74.5 25t26.5 75q0 24 -7.5 46t-25.5 35.5t-52 13.5q-41 0 -61 -18.5t-27 -39.5h-58l11 227h253v-45h-208l-10 -147h9q12 38 42.5 52t63.5 14q42 0 69 -17.5t40.5 -48.5t13.5 -72
q0 -51 -20.5 -82.5t-55 -46t-77.5 -14.5z" />
    <glyph glyph-name="uni2086" unicode="&#x2086;" horiz-adv-x="424" 
d="M227 -218q-82 0 -128 51.5t-46 152.5q0 63 19 110.5t56.5 74.5t93.5 27q28 0 52 -7.5t42 -22t29.5 -36t14.5 -49.5l-48 -12q-4 39 -28 60t-62 21q-43 0 -69.5 -24t-38.5 -63t-12 -84q0 -24 3.5 -46t10.5 -43h6q-4 51 13 82t47 45.5t63 14.5q34 0 63 -14t47 -41t18 -68
q0 -25 -8.5 -48t-26 -41.5t-45.5 -29t-66 -10.5zM222 -176q37 0 58.5 13t31 33t9.5 41q0 43 -27 62t-60 19q-43 0 -69 -25.5t-26 -67.5q0 -30 13 -46t32 -22.5t38 -6.5z" />
    <glyph glyph-name="uni2087" unicode="&#x2087;" horiz-adv-x="329" 
d="M105 -210q0 61 16 126.5t47.5 124.5t78.5 101v4l-214 -3v46h263v-51q-33 -31 -58.5 -69t-43 -82t-26.5 -93.5t-9 -103.5h-54z" />
    <glyph glyph-name="uni2088" unicode="&#x2088;" horiz-adv-x="416" 
d="M209 -218q-48 0 -84.5 13t-57.5 38.5t-21 60.5q0 40 27 64t72 31v4l63 8l63 -7v-5q28 -2 50.5 -14t36 -33t13.5 -51q0 -35 -20.5 -59t-57 -37t-84.5 -13zM209 -174q21 0 47 6.5t45 22t19 41.5q0 25 -17 42t-43 26t-52 9t-51.5 -9t-42 -25.5t-16.5 -41.5t18 -40.5
t43.5 -23t49.5 -7.5zM207 13q22 0 44 8.5t37.5 25t15.5 40.5t-16.5 38t-39 20.5t-44.5 6.5q-20 0 -41.5 -6.5t-36.5 -21t-15 -36.5q0 -24 14 -40.5t36.5 -25.5t45.5 -9zM208 -21l-63 9v10q-36 6 -61 29t-25 62q0 27 11 47t31 33.5t47 21t60 7.5q68 0 108 -29.5t40 -79.5
q0 -38 -23 -60.5t-62 -30.5v-10z" />
    <glyph glyph-name="uni2089" unicode="&#x2089;" horiz-adv-x="421" 
d="M200 -218q-31 0 -56.5 7t-44 21.5t-30 35.5t-14.5 49l48 12q5 -34 20.5 -51.5t36 -23.5t39.5 -6q34 0 57.5 12t37.5 33.5t20 49.5t6 59q0 25 -4 53t-10 55h-8q6 -49 -11 -80.5t-47 -46.5t-62 -15q-50 0 -88 32.5t-38 90.5q0 26 9 49t26.5 41t44.5 28.5t63 10.5
q54 0 93 -25t60 -73t21 -118q0 -61 -17.5 -106t-55 -69.5t-96.5 -24.5zM191 -16q40 0 65 27.5t25 69.5q0 30 -12 45.5t-31 21.5t-39 6q-34 0 -55.5 -12.5t-31 -32t-9.5 -41.5q0 -41 27.5 -62.5t60.5 -21.5z" />
    <glyph glyph-name="colonmonetary" unicode="&#x20a1;" horiz-adv-x="645" 
d="M461 624l-48 20l26 131h59zM172 -97l33 131l47 -20l-21 -111h-59zM311 -97l33 131l46 -20l-19 -111h-60zM322 624l-48 20l25 131h60zM352 -5q-67 0 -119.5 22t-88.5 64.5t-54.5 103t-18.5 137.5t19 140.5t55 109t87.5 70t116.5 24.5q49 0 90.5 -14.5t72 -41.5t47.5 -65
t17 -85l-54 -13q1 55 -22.5 91.5t-63.5 55t-87 18.5q-46 0 -86 -17.5t-71 -53.5t-48.5 -90.5t-17.5 -129.5q0 -96 28.5 -155t79.5 -86.5t121 -27.5q64 0 105 22t62 64.5t23 104.5l53 -11q-1 -48 -16 -91t-45 -75.5t-76 -51.5t-109 -19z" />
    <glyph glyph-name="lira" unicode="&#x20a4;" horiz-adv-x="716" 
d="M176 -13q-63 0 -101 36t-38 91q0 34 15 62t45.5 45t75.5 17q31 0 57.5 -10t46.5 -38h14l-2 -59q-19 32 -48 43.5t-59 11.5q-46 0 -67 -22t-21 -51q0 -35 24 -54.5t61 -19.5q39 0 63 19t35 50.5t11 67.5q0 40 -10.5 70.5t-26.5 56t-32 51.5t-26.5 57.5t-10.5 73.5
q0 67 28 107.5t73 59.5t96 19q43 0 81 -13.5t66 -39.5t43 -64t12 -88l-55 -4q2 50 -13 84.5t-47.5 53t-83.5 18.5q-76 0 -109 -38t-33 -94q0 -36 10 -65t25 -56t30.5 -55t25.5 -61.5t10 -76.5t-11.5 -77t-33.5 -58t-52 -37t-68 -13zM513 -13q-48 0 -84 18t-61 45t-42 53
l-14 13l15 55q11 -14 29.5 -35.5t43 -43.5t54 -37t61.5 -15q34 0 54 19t29 50t9 67q0 19 -2.5 40t-7.5 41.5t-12 38.5l57 6q12 -30 17 -64.5t5 -64.5q0 -37 -8.5 -71t-27 -59.5t-47 -40.5t-68.5 -15zM85 289v45l187 1v-37zM85 397v45l138 1v-37zM280 298v38l175 11v-45z
M231 406l-1 38l225 11v-45z" />
    <glyph glyph-name="uni20A6" unicode="&#x20a6;" horiz-adv-x="831" 
d="M633 382v50h155v-50h-155zM44 243v50h155v-50h-155zM44 382v50h155v-50h-155zM633 243v50h155v-50h-155zM159 7v647h78l372 -574h6l-5 574h54v-647h-72l-376 581h-7l5 -581h-55z" />
    <glyph glyph-name="uni20A8" unicode="&#x20a8;" horiz-adv-x="1151" 
d="M94 0v660h204q48 0 88 -8t71.5 -23.5t53 -38.5t33 -53.5t11.5 -67.5q0 -35 -10.5 -64.5t-30.5 -51.5t-49.5 -36t-68.5 -19v-11q26 -4 50 -16t44.5 -39t34.5 -76l45 -156h-59l-37 142q-10 41 -34 67.5t-60 40.5t-83 14h-146v-264h-57zM151 317h142q103 0 154 36t51 109
q0 74 -50 109.5t-155 35.5h-142v-290zM898 -12q-54 0 -95 12.5t-67.5 35.5t-39 55t-9.5 70l55 5q-5 -42 13.5 -69.5t56 -41.5t88.5 -14q70 0 107.5 24t37.5 66q0 33 -21 51.5t-56.5 29t-80.5 19.5q-35 8 -69.5 18t-62 25.5t-44 40.5t-16.5 62q0 46 24 78.5t67.5 50.5
t102.5 18q63 0 105.5 -20.5t64.5 -57.5t21 -85l-54 -8q1 40 -16.5 66t-50 39t-76.5 13q-61 0 -96.5 -24t-35.5 -66q0 -32 20.5 -50.5t55 -28.5t75.5 -19q39 -8 74.5 -18t63 -25.5t44 -41t16.5 -64.5q0 -50 -26 -82.5t-71.5 -48t-104.5 -15.5z" />
    <glyph glyph-name="uni20A9" unicode="&#x20a9;" horiz-adv-x="979" 
d="M782 382v50h155v-50h-155zM43 243v50h155v-50h-155zM43 382v50h155v-50h-155zM782 243v50h155v-50h-155zM258 7l-173 647h59l152 -591h8l147 591h82l143 -591h8l156 591h60l-178 -647h-84l-142 591h-7l-147 -591h-84z" />
    <glyph glyph-name="dong" unicode="&#x20ab;" horiz-adv-x="569" 
d="M116 -111v43h375v-43h-375zM265 -12q-67 0 -112.5 35.5t-68.5 96t-23 135.5q0 77 24 138t69.5 96t109.5 35q58 0 94 -25.5t56 -63t29 -73.5h14q-3 26 -6.5 58.5t-6 65t-2.5 58.5v147h57l-1 -437l1 -254h-57l9 131h-14q-12 -37 -33 -69.5t-55 -53t-84 -20.5zM266 42
q40 0 72.5 19t56 49.5t35.5 67t12 70.5v8q0 21 -5.5 49t-18.5 56.5t-33.5 53t-48.5 39.5t-65 15q-50 0 -84 -29.5t-51.5 -78.5t-17.5 -110q0 -63 17.5 -110t50.5 -73t80 -26zM227 631h343v-39h-343v39z" />
    <glyph glyph-name="Euro" unicode="&#x20ac;" horiz-adv-x="727" 
d="M55 368l23 46h363l-24 -46h-362zM41 228l22 45h342l-23 -45h-341zM430 -12q-68 0 -121.5 22.5t-90.5 65.5t-56 105t-19 140q0 79 19.5 143.5t56.5 111t89.5 71.5t118.5 25q50 0 92.5 -14.5t73.5 -42t48.5 -66.5t17.5 -87l-56 -13q2 57 -22 94t-65 55.5t-89 18.5
q-46 0 -87.5 -18t-72.5 -54t-49 -92t-18 -133q0 -97 28.5 -157.5t81 -88.5t123.5 -28q66 0 107.5 22.5t62.5 66t24 106.5l54 -11q-1 -49 -16 -93t-45.5 -77.5t-77.5 -52.5t-112 -19z" />
    <glyph glyph-name="uni20AD" unicode="&#x20ad;" horiz-adv-x="692" 
d="M569 0l-271 308v49l271 303h75l-306 -323v-7l306 -330h-75zM135 0v660h57v-660h-57zM32 308v49h573v-49h-573z" />
    <glyph glyph-name="uni20AE" unicode="&#x20ae;" horiz-adv-x="517" 
d="M49 329l401 88v-51l-401 -88v51zM49 202l401 88v-51l-401 -88v51zM231 7v647h56v-647h-56zM30 602v52h458v-52h-458z" />
    <glyph glyph-name="uni20B1" unicode="&#x20b1;" horiz-adv-x="764" 
d="M39 344v50h156v-50h-156zM579 344v50h145v-50h-145zM39 483v50h156v-50h-156zM579 483v50h145v-50h-145zM174 212v55h171q110 0 165.5 41t55.5 132q0 84 -52 125.5t-157 41.5h-183v53h184q64 0 114.5 -15t84.5 -43.5t51.5 -70t17.5 -94.5q0 -73 -33 -123t-97 -76
t-156 -26h-166zM160 0v660h57v-660h-57z" />
    <glyph glyph-name="uni20B2" unicode="&#x20b2;" horiz-adv-x="641" 
d="M283 650l-16 132h72l-16 -132h-40zM267 -126l16 132h40l16 -132h-72zM312 -7q-80 0 -141 36.5t-95 111t-34 186.5q0 78 18 140.5t53.5 106t87.5 67t121 23.5q49 0 90 -13.5t72 -39t50.5 -63.5t26.5 -87l-55 -14q-5 62 -33 97.5t-68 50.5t-83 15q-64 0 -114.5 -28.5
t-79.5 -90.5t-29 -164q0 -80 18 -134t48.5 -85t68 -44.5t77.5 -13.5q56 0 98 22.5t67.5 69t33.5 117.5h-164v52h220v-84v-222h-57l29 183h-11q-12 -66 -39 -109.5t-71 -64.5t-105 -21z" />
    <glyph glyph-name="uni20B4" unicode="&#x20b4;" horiz-adv-x="683" 
d="M340 -12q-84 0 -140.5 22.5t-84.5 63t-28 94.5q0 50 20 81.5t52 51.5h115q-15 -8 -33 -15t-35 -16.5t-31.5 -22.5t-23 -31.5t-8.5 -44.5q0 -39 23 -68t66.5 -44.5t106.5 -15.5q62 0 106 16.5t67 49.5t23 83l53 -8q1 -47 -14.5 -83.5t-47 -61.5t-78.5 -38t-108 -13z
M61 255v46h561v-46h-561zM61 383v46h561v-46h-561zM430 383q15 6 29 13.5t24.5 16.5t18.5 20.5t12 25t4 30.5q0 40 -22 69t-59.5 45t-85.5 16q-49 0 -88.5 -14.5t-64.5 -44t-31 -73.5l-55 15q9 58 42.5 95.5t84.5 56t111 18.5q65 0 115.5 -22.5t79.5 -64t29 -99.5
q0 -34 -10 -59t-28 -44h-106z" />
    <glyph glyph-name="uni20B5" unicode="&#x20b5;" horiz-adv-x="645" 
d="M313 650l-16 132h72l-16 -132h-40zM297 -126l16 132h40l16 -132h-72zM352 -5q-67 0 -119.5 22t-88.5 64.5t-54.5 103t-18.5 137.5t19 140.5t55 109t87.5 70t116.5 24.5q49 0 90.5 -14.5t72 -41.5t47.5 -65t17 -85l-54 -13q1 55 -22.5 91.5t-63.5 55t-87 18.5
q-46 0 -86 -17.5t-71 -53.5t-48.5 -90.5t-17.5 -129.5q0 -96 28.5 -155t79.5 -86.5t121 -27.5q64 0 105 22t62 64.5t23 104.5l53 -11q-1 -48 -16 -91t-45 -75.5t-76 -51.5t-109 -19z" />
    <glyph glyph-name="uni20B8" unicode="&#x20b8;" horiz-adv-x="527" 
d="M236 7v520h57v-520h-57zM30 474v53h467v-53h-467zM30 599v50h467v-50h-467z" />
    <glyph glyph-name="uni20B9" unicode="&#x20b9;" horiz-adv-x="607" 
d="M429 0l-22 91q-10 41 -31.5 77t-60 58.5t-101.5 22.5h-169v52h136q32 0 71.5 3t75.5 16t59.5 44.5t23.5 88.5q0 46 -15 75.5t-39 45.5t-51 23t-51 8.5t-39 1.5v26h164v-37q30 -13 49.5 -34t29.5 -48t10 -60q0 -30 -9 -60t-29 -54.5t-51 -39.5t-76 -17v-12q41 -4 70 -22.5
t50 -53.5t36 -90l29 -105h-60zM45 429v50h523v-50h-523zM45 607v53h523v-53h-523z" />
    <glyph glyph-name="uni20BA" unicode="&#x20ba;" horiz-adv-x="646" 
d="M612 239v-20q0 -58 -19.5 -99.5t-54.5 -68t-82 -39t-102 -12.5h-160v53h152q16 0 41.5 2t54.5 9.5t54.5 25.5t42 49.5t16.5 80.5v23zM180 660h57v-660h-57v660zM50 398l401 88v-51l-401 -88v51zM50 271l401 88v-51l-401 -88v51z" />
    <glyph glyph-name="uni20BC" unicode="&#x20bc;" horiz-adv-x="660" 
d="M77 0v305q0 49 10.5 89.5t31 71.5t51 52.5t71 32.5t89.5 11q48 0 87.5 -10.5t70.5 -31t52 -51.5t32 -72t11 -92v-305h-57v302q0 39 -8 75.5t-29 64.5t-59.5 44.5t-99.5 16.5q-79 0 -121.5 -28t-58.5 -74t-16 -99v-302h-57zM302 0v660h57v-660h-57z" />
    <glyph glyph-name="uni20BD" unicode="&#x20bd;" horiz-adv-x="659" 
d="M48 76v50h376v-50h-376zM48 215v50h140v-50h-140zM172 215v54h167q108 0 162.5 40t54.5 129q0 83 -51 123.5t-154 40.5h-179v52h180q63 0 112 -14.5t82.5 -42.5t51 -69t17.5 -93q0 -71 -32.5 -120.5t-95 -74.5t-152.5 -25h-163zM158 7v647h56v-647h-56z" />
    <glyph glyph-name="uni20BE" unicode="&#x20be;" horiz-adv-x="657" 
d="M232 41v27q-38 12 -68 37.5t-51.5 61.5t-32.5 81t-11 96q0 67 20 126.5t58 105t93.5 71.5t125.5 26q72 0 125.5 -27t84.5 -77t35 -119l-53 -11q-5 57 -29 97t-65 61t-98 21q-71 0 -125 -34t-84 -95.5t-30 -146.5q0 -63 17 -115.5t49 -92t77 -61t101 -21.5l-3 -11h-136z
M82 0v52h519v-52h-519zM262 379v339l45 25v-340zM398 388v360l45 24v-359z" />
    <glyph glyph-name="uni20BF" unicode="&#x20bf;" horiz-adv-x="629" 
d="M192 632l-7 142h57l-7 -142h-43zM374 632l-7 142h57l-6 -142h-44zM192 24h43l7 -132h-57zM374 24h44l6 -132h-57zM94 7v647h217q51 0 93 -9.5t72.5 -29.5t47 -52t16.5 -77q0 -38 -14.5 -65.5t-45 -46t-78.5 -28.5v-9q87 -9 125 -50.5t38 -107.5q0 -54 -23.5 -92.5
t-74.5 -59t-134 -20.5h-239zM149 59h201q80 0 120 29t40 88q0 69 -57.5 104t-172.5 35h-131v-256zM149 366h115q110 0 164.5 29.5t54.5 88.5t-46 88.5t-139 29.5h-149v-236z" />
    <glyph glyph-name="uni2113" unicode="&#x2113;" horiz-adv-x="480" 
d="M319 -14q-57 0 -99 29t-70.5 81t-42 122t-13.5 153q0 106 21 172t59.5 97.5t89.5 31.5t83.5 -25.5t48.5 -67.5t16 -93q0 -75 -32.5 -131.5t-88 -96.5t-124.5 -65t-142 -35v35q82 18 144 45.5t104 64.5t63.5 82.5t21.5 99.5q0 61 -25 97.5t-68 36.5q-37 0 -63 -29.5
t-38.5 -86t-12.5 -136.5q0 -71 10 -131t31.5 -104t53.5 -68.5t75 -24.5q20 0 40 5.5t48 17.5l23 -50q-29 -13 -58 -19.5t-55 -6.5z" />
    <glyph glyph-name="uni2116" unicode="&#x2116;" horiz-adv-x="1002" 
d="M718 350h223v-50h-223v50zM94 0v660h79l380 -586h6l-5 586h55v-660h-72l-385 593h-7l5 -593h-56zM833 405q-38 0 -68 17.5t-46.5 47.5t-16.5 67q0 28 9.5 52t27 42t42 28t53.5 10q39 0 69 -17.5t46.5 -47.5t16.5 -69q0 -37 -17 -66.5t-47 -46.5t-69 -17zM836 454
q35 0 56.5 23.5t21.5 59.5q0 35 -22 59t-59 24q-35 0 -57 -23t-22 -58q0 -37 22.5 -61t59.5 -24z" />
    <glyph glyph-name="trademark" unicode="&#x2122;" horiz-adv-x="872" 
d="M127 328v328h50v-328h-50zM7 610v46h288v-46h-288zM350 328v328h76l134 -270l132 270h76v-328h-48v274l-136 -274h-50l-136 274v-274h-48z" />
    <glyph glyph-name="uni2126" unicode="&#x2126;" horiz-adv-x="762" 
d="M39 0v52h214v10q-59 14 -102.5 54.5t-66.5 101t-23 132.5q0 53 12.5 101t38.5 88.5t63.5 70t89 46t115.5 16.5t115 -16.5t90 -46t65 -70t39 -89.5t13 -103q0 -73 -23.5 -132.5t-66.5 -99t-102 -53.5v-10h214v-52h-298v64q50 7 90 29t68.5 58.5t44 85t15.5 108.5
q0 98 -37.5 157.5t-97.5 87t-130 27.5q-71 0 -130 -28t-94.5 -87t-35.5 -154q0 -64 17 -114.5t47 -86t69.5 -56.5t84.5 -27v-64h-298z" />
    <glyph glyph-name="estimated" unicode="&#x212e;" horiz-adv-x="861" 
d="M436 -5q-110 0 -195 42t-133 119t-48 182q0 103 48 180.5t133 120.5t195 43q111 0 193.5 -40.5t130 -119.5t52.5 -193h-598q-7 0 -11 -2.5t-4 -15.5v-168q0 -13 17 -33.5t48.5 -40.5t75 -33.5t96.5 -13.5q71 0 134.5 31.5t103.5 77.5h70q-44 -49 -88 -79t-96.5 -43.5
t-123.5 -13.5v0zM214 350v0h442q11 0 13.5 3.5t2.5 12.5v165q0 20 -21.5 42.5t-57 41.5t-77 31t-81.5 12q-51 0 -94 -14t-75 -34.5t-49.5 -40.5t-17.5 -31v-179q0 -9 15 -9z" />
    <glyph glyph-name="uni2153" unicode="&#x2153;" horiz-adv-x="851" 
d="M100 300v311h-56v45q25 0 43 8.5t23 35.5h40v-400h-50zM105 0l408 660h62l-409 -660h-61zM633 -48q-76 0 -112.5 32t-39.5 84l48 12q1 -28 14 -47.5t36 -29t54 -9.5q43 0 75 18.5t32 60.5q0 28 -16 48.5t-53.5 31.5t-100.5 10v33l147 116v4l-220 -1v44h271v-56l-136 -106
v-5q78 0 118.5 -31t40.5 -87q0 -55 -40.5 -88.5t-117.5 -33.5z" />
    <glyph glyph-name="uni2154" unicode="&#x2154;" horiz-adv-x="1006" 
d="M40 300v61l143 111q18 14 38.5 32.5t35 41t14.5 47.5q0 30 -22 49.5t-65 19.5q-31 0 -51 -12t-29 -36t-9 -61l-49 13q-1 59 31 100.5t108 41.5q42 0 73 -13.5t48 -38.5t17 -59q0 -25 -9 -47t-24.5 -41.5t-34 -36.5t-38.5 -32l-122 -94v-4l238 5v-47h-293zM260 0l408 660
h62l-409 -660h-61zM788 -48q-76 0 -112.5 32t-39.5 84l48 12q1 -28 14 -47.5t36 -29t54 -9.5q43 0 75 18.5t32 60.5q0 28 -16 48.5t-53.5 31.5t-100.5 10v33l147 116v4l-220 -1v44h271v-56l-136 -106v-5q78 0 118.5 -31t40.5 -87q0 -55 -40.5 -88.5t-117.5 -33.5z" />
    <glyph glyph-name="oneeighth" unicode="&#x215b;" horiz-adv-x="861" 
d="M100 300v311h-56v45q25 0 43 8.5t23 35.5h40v-400h-50zM105 0l408 660h62l-409 -660h-61zM653 -48q-48 0 -84.5 13t-57.5 38.5t-21 60.5q0 40 27 64t72 31v4l63 8l63 -7v-5q28 -2 50.5 -14t36 -33t13.5 -51q0 -35 -20.5 -59t-57 -37t-84.5 -13zM653 -4q21 0 47 6.5t45 22
t19 41.5q0 25 -17 42t-43 26t-52 9t-51.5 -9t-42 -25.5t-16.5 -41.5t18 -40.5t43.5 -23t49.5 -7.5zM651 183q22 0 44 8.5t37.5 25t15.5 40.5t-16.5 38t-39 20.5t-44.5 6.5q-20 0 -41.5 -6.5t-36.5 -21t-15 -36.5q0 -24 14 -40.5t36.5 -25.5t45.5 -9zM652 149l-63 9v10
q-36 6 -61 29t-25 62q0 27 11 47t31 33.5t47 21t60 7.5q68 0 108 -29.5t40 -79.5q0 -38 -23 -60.5t-62 -30.5v-10z" />
    <glyph glyph-name="threeeighths" unicode="&#x215c;" horiz-adv-x="1016" 
d="M176 292q-76 0 -112.5 32t-39.5 84l48 12q1 -28 14 -47.5t36 -29t54 -9.5q43 0 75 18.5t32 60.5q0 28 -16 48.5t-53.5 31.5t-100.5 10v33l147 116v4l-220 -1v44h271v-56l-136 -106v-5q78 0 118.5 -31t40.5 -87q0 -55 -40.5 -88.5t-117.5 -33.5zM260 0l408 660h62
l-409 -660h-61zM809 -48q-48 0 -84.5 13t-57.5 38.5t-21 60.5q0 40 27 64t72 31v4l63 8l63 -7v-5q28 -2 50.5 -14t36 -33t13.5 -51q0 -35 -20.5 -59t-57 -37t-84.5 -13zM809 -4q21 0 47 6.5t45 22t19 41.5q0 25 -17 42t-43 26t-52 9t-51.5 -9t-42 -25.5t-16.5 -41.5
t18 -40.5t43.5 -23t49.5 -7.5zM807 183q22 0 44 8.5t37.5 25t15.5 40.5t-16.5 38t-39 20.5t-44.5 6.5q-20 0 -41.5 -6.5t-36.5 -21t-15 -36.5q0 -24 14 -40.5t36.5 -25.5t45.5 -9zM808 149l-63 9v10q-36 6 -61 29t-25 62q0 27 11 47t31 33.5t47 21t60 7.5q68 0 108 -29.5
t40 -79.5q0 -38 -23 -60.5t-62 -30.5v-10z" />
    <glyph glyph-name="fiveeighths" unicode="&#x215d;" horiz-adv-x="1026" 
d="M195 292q-43 0 -75 13t-49 36.5t-17 56.5l47 12q2 -35 24.5 -55t68.5 -20q48 0 74.5 25t26.5 75q0 24 -7.5 46t-25.5 35.5t-52 13.5q-41 0 -61 -18.5t-27 -39.5h-58l11 227h253v-45h-208l-10 -147h9q12 38 42.5 52t63.5 14q42 0 69 -17.5t40.5 -48.5t13.5 -72
q0 -51 -20.5 -82.5t-55 -46t-77.5 -14.5zM270 0l408 660h62l-409 -660h-61zM818 -48q-48 0 -84.5 13t-57.5 38.5t-21 60.5q0 40 27 64t72 31v4l63 8l63 -7v-5q28 -2 50.5 -14t36 -33t13.5 -51q0 -35 -20.5 -59t-57 -37t-84.5 -13zM818 -4q21 0 47 6.5t45 22t19 41.5
q0 25 -17 42t-43 26t-52 9t-51.5 -9t-42 -25.5t-16.5 -41.5t18 -40.5t43.5 -23t49.5 -7.5zM816 183q22 0 44 8.5t37.5 25t15.5 40.5t-16.5 38t-39 20.5t-44.5 6.5q-20 0 -41.5 -6.5t-36.5 -21t-15 -36.5q0 -24 14 -40.5t36.5 -25.5t45.5 -9zM817 149l-63 9v10q-36 6 -61 29
t-25 62q0 27 11 47t31 33.5t47 21t60 7.5q68 0 108 -29.5t40 -79.5q0 -38 -23 -60.5t-62 -30.5v-10z" />
    <glyph glyph-name="seveneighths" unicode="&#x215e;" horiz-adv-x="908" 
d="M105 300q0 61 16 126.5t47.5 124.5t78.5 101v4l-214 -3v46h263v-51q-33 -31 -58.5 -69t-43 -82t-26.5 -93.5t-9 -103.5h-54zM152 0l408 660h62l-409 -660h-61zM700 -48q-48 0 -84.5 13t-57.5 38.5t-21 60.5q0 40 27 64t72 31v4l63 8l63 -7v-5q28 -2 50.5 -14t36 -33
t13.5 -51q0 -35 -20.5 -59t-57 -37t-84.5 -13zM700 -4q21 0 47 6.5t45 22t19 41.5q0 25 -17 42t-43 26t-52 9t-51.5 -9t-42 -25.5t-16.5 -41.5t18 -40.5t43.5 -23t49.5 -7.5zM698 183q22 0 44 8.5t37.5 25t15.5 40.5t-16.5 38t-39 20.5t-44.5 6.5q-20 0 -41.5 -6.5
t-36.5 -21t-15 -36.5q0 -24 14 -40.5t36.5 -25.5t45.5 -9zM699 149l-63 9v10q-36 6 -61 29t-25 62q0 27 11 47t31 33.5t47 21t60 7.5q68 0 108 -29.5t40 -79.5q0 -38 -23 -60.5t-62 -30.5v-10z" />
    <glyph glyph-name="arrowleft" unicode="&#x2190;" horiz-adv-x="588" 
d="M199 57h-59q-8 62 -34.5 106t-73.5 83v38q32 26 54.5 56t35.5 63.5t18 69.5h59q-6 -30 -19.5 -64t-37.5 -65t-61 -54v-4l483 6v-54l-483 6v-4q36 -18 60.5 -50t38.5 -67.5t19 -65.5z" />
    <glyph glyph-name="arrowup" unicode="&#x2191;" horiz-adv-x="473" 
d="M445 492q-30 6 -65.5 20.5t-67 39t-50.5 59.5h-4l6 -611h-54l6 611h-4q-22 -37 -53.5 -61t-65 -37.5t-64.5 -20.5v59q36 5 69.5 18.5t63.5 36t56 54.5h38q26 -31 54 -53.5t61 -36t74 -19.5v-59z" />
    <glyph glyph-name="arrowright" unicode="&#x2192;" horiz-adv-x="588" 
d="M388 57q6 30 20.5 65.5t39 67.5t59.5 50v4l-483 -6v54l483 -6v4q-37 23 -61 54t-37.5 65t-20.5 64h59q5 -36 18.5 -69.5t36 -63.5t54.5 -56v-38q-46 -39 -73.5 -83t-35.5 -106h-59z" />
    <glyph glyph-name="arrowdown" unicode="&#x2193;" horiz-adv-x="475" 
d="M30 168q30 -5 65.5 -19.5t67.5 -39t50 -60.5h4l-6 611h54l-6 -611h4q23 37 54 61t65 38t64 20v-59q-36 -5 -69.5 -18.5t-63.5 -36t-56 -54.5h-38q-26 31 -54 53.5t-60.5 36.5t-74.5 19v59z" />
    <glyph glyph-name="partialdiff" unicode="&#x2202;" horiz-adv-x="600" 
d="M470 194q-5 38 -21.5 77.5t-43 73.5t-61.5 55t-76 21q-39 0 -73 -22t-55 -64t-21 -104q0 -56 19 -99t55.5 -67t85.5 -24q54 0 92 26.5t62 68t35 87t11 84.5q0 28 -7.5 66.5t-27.5 79.5t-57.5 76.5t-97.5 57.5t-148 22l-12 54q89 5 156.5 -14.5t114 -57t75 -86
t41.5 -102.5t13 -105q0 -48 -10.5 -93.5t-31 -85t-50.5 -69t-69.5 -46.5t-88.5 -17q-43 0 -82 14.5t-70 44t-48.5 75.5t-17.5 109q0 80 28 135t74.5 83t99.5 28q38 0 76 -17t71 -57.5t55 -112.5h24z" />
    <glyph glyph-name="emptyset" unicode="&#x2205;" horiz-adv-x="751" 
d="M375 -14q-72 0 -128 24t-95.5 66.5t-60 97t-20.5 115.5q0 69 24 125t66.5 96t97.5 61.5t117 21.5q65 0 120.5 -23t96.5 -64.5t64 -97t23 -121.5q0 -60 -20.5 -114.5t-60 -96.5t-96 -66t-128.5 -24zM374 41q35 0 77.5 10.5t81.5 36.5t64 73.5t25 121.5q0 66 -21 114
t-56.5 79t-78.5 46.5t-88 15.5q-25 0 -58 -6t-66 -21.5t-61.5 -43.5t-46 -72t-17.5 -106q0 -72 23 -119.5t60.5 -76t80 -40.5t81.5 -12zM104 -16l464 609h62l-464 -609h-62z" />
    <glyph glyph-name="uni2206" unicode="&#x2206;" horiz-adv-x="650" 
d="M37 0l247 660h82l247 -660h-61l-223 607h-8l-222 -607h-62zM76 0v51h503v-51h-503z" />
    <glyph glyph-name="product" unicode="&#x220f;" horiz-adv-x="687" 
d="M536 -159v819h57v-819h-57zM94 -159v819h57v-819h-57zM114 607v53h445v-53h-445z" />
    <glyph glyph-name="summation" unicode="&#x2211;" horiz-adv-x="576" 
d="M64 -159v58l198 349l-198 349v58h472v-53h-407v-12l194 -342l-194 -342v-12h407v-53h-472z" />
    <glyph glyph-name="minus" unicode="&#x2212;" horiz-adv-x="498" 
d="M63 267v52h372v-52h-372z" />
    <glyph glyph-name="radical" unicode="&#x221a;" horiz-adv-x="620" 
d="M261 0l-120 337h60l99 -282h7l214 605h61l-238 -660h-83zM30 284v53h155v-53h-155z" />
    <glyph glyph-name="infinity" unicode="&#x221e;" horiz-adv-x="950" 
d="M442 259q-15 31 -36.5 63.5t-55.5 55t-88 22.5q-50 0 -82 -20.5t-47 -52t-15 -65.5q0 -32 14.5 -65t46.5 -55t84 -22q53 0 87 22.5t55.5 54.5t36.5 62zM494 259l-17 -44h-9q-19 -45 -50.5 -78.5t-72 -52t-88.5 -18.5q-58 0 -102 26t-69 70.5t-25 99.5t25 98.5t69.5 68.5
t102.5 25q48 0 90 -18t73 -51t47 -79h9zM508 259q17 -34 39 -66t55.5 -52.5t84.5 -20.5q54 0 86 22.5t45.5 55.5t13.5 64q0 34 -15 65.5t-46.5 52t-83.5 20.5q-51 0 -84.5 -20.5t-55.5 -52.5t-39 -68zM456 259l17 47h9q19 46 50 79t72 51t89 18q59 0 103 -25t68.5 -68.5
t24.5 -98.5t-25 -99.5t-69 -70.5t-102 -26q-48 0 -89 18.5t-72 52t-50 78.5h-9z" />
    <glyph glyph-name="integral" unicode="&#x222b;" horiz-adv-x="414" 
d="M104 -171q-18 0 -38.5 6.5t-49.5 19.5l16 47q28 -13 49.5 -18t36 8t19.5 53l87 615q8 56 29.5 83t56.5 27q18 0 39 -6.5t49 -19.5l-16 -47q-28 13 -49.5 18t-35 -8t-19.5 -53l-87 -615q-8 -56 -30 -83t-57 -27z" />
    <glyph glyph-name="approxequal" unicode="&#x2248;" horiz-adv-x="498" 
d="M367 337q-34 0 -67 5t-62.5 11t-54.5 11t-44 5q-10 0 -17 -6.5t-6 -27.5h-54q-4 27 0 47.5t19 32t42 11.5q32 0 64 -5t63 -11t58 -11t48 -5q14 0 21 6.5t5 28.5h52q6 -27 1.5 -48t-21 -32.5t-47.5 -11.5zM367 146q-34 0 -67 5t-62.5 11t-54.5 11t-44 5q-10 0 -17 -6.5
t-6 -27.5h-54q-4 27 0 47.5t19 32t42 11.5q32 0 64 -5t63 -11t58 -11t48 -5q14 0 21 6.5t5 28.5h52q6 -27 1.5 -48t-21 -32.5t-47.5 -11.5z" />
    <glyph glyph-name="notequal" unicode="&#x2260;" horiz-adv-x="498" 
d="M174 79h-55l205 422h55zM63 346v53h372v-53h-372zM63 182v52h372v-52h-372z" />
    <glyph glyph-name="lessequal" unicode="&#x2264;" horiz-adv-x="498" 
d="M435 253l-372 126v72l372 134v-62l-320 -103v-11l320 -94v-62zM435 127h-372v52h372v-52z" />
    <glyph glyph-name="greaterequal" unicode="&#x2265;" horiz-adv-x="498" 
d="M63 253v62l320 94v11l-320 103v62l372 -134v-72zM63 127v52h372v-52h-372z" />
    <glyph glyph-name="uni27E8" unicode="&#x27e8;" horiz-adv-x="284" 
d="M83 271l152 -412h-59l-151 412l151 389h59z" />
    <glyph glyph-name="uni27E9" unicode="&#x27e9;" horiz-adv-x="284" 
d="M201 271l-152 389h59l151 -389l-151 -412h-59z" />
    <glyph glyph-name="i.loclTRK" horiz-adv-x="230" 
d="M87 0v512h56v-512h-56zM115 610q-24 0 -36 10t-12 31q0 19 12 29t36 10t36 -10t12 -29q0 -21 -12.5 -31t-35.5 -10z" />
    <glyph glyph-name="zero.osf" horiz-adv-x="637" 
d="M320 -11q-57 0 -103.5 19.5t-79.5 54.5t-50.5 84t-17.5 107q0 83 31.5 143.5t88 93.5t131.5 33q79 0 134 -35t84.5 -96t29.5 -140q0 -57 -16.5 -105t-49 -83.5t-78 -55.5t-104.5 -20zM318 42q44 0 79.5 14t61 41t39.5 67.5t14 94.5q0 66 -24 113.5t-67 73t-101 25.5
q-54 0 -98.5 -22.5t-71 -70t-26.5 -121.5q0 -69 24 -117t68 -73t102 -25z" />
    <glyph glyph-name="one.osf" horiz-adv-x="279" 
d="M143 0v393h-94v52q29 0 52.5 5t39.5 19.5t22 42.5h36v-512h-56z" />
    <glyph glyph-name="two.osf" horiz-adv-x="502" 
d="M61 0v68l187 142q28 22 58.5 48t51.5 57.5t21 66.5q0 41 -30 65t-88 24q-25 0 -49.5 -5t-45 -19.5t-32.5 -42t-10 -72.5l-53 9q-2 54 18.5 95t63.5 64.5t109 23.5q57 0 95.5 -18t58 -50t19.5 -74q0 -34 -13.5 -63.5t-35 -55t-46 -46.5t-46.5 -38l-171 -127v-7l327 9v-54
h-389z" />
    <glyph glyph-name="three.osf" horiz-adv-x="583" 
d="M275 -172q-57 0 -99.5 15t-71 42.5t-44 64.5t-16.5 80l55 15q1 -49 18 -80.5t43.5 -49.5t57.5 -25.5t60 -7.5q48 0 89.5 16.5t67.5 50.5t26 87q0 60 -34.5 95t-96 50t-141.5 16v45l238 211v7l-361 -1v53h417v-74l-219 -193v-6q90 -3 146 -29t82 -69.5t26 -101.5
q0 -60 -27.5 -108t-81.5 -75.5t-134 -27.5z" />
    <glyph glyph-name="four.osf" horiz-adv-x="586" 
d="M44 0v80q49 41 96 93t88.5 109.5t75.5 116t55 113.5h100v-671h-56v618h-8q-36 -83 -83 -155t-100.5 -132.5t-110.5 -109.5v-9h446v-53h-503z" />
    <glyph glyph-name="five.osf" horiz-adv-x="593" 
d="M291 -172q-67 0 -115.5 23t-74 65t-25.5 98l51 17q2 -65 40 -106.5t121 -41.5q86 0 133 47.5t47 135.5q0 32 -6.5 62.5t-22.5 55t-44 39.5t-71 15q-40 0 -68.5 -10t-46.5 -26.5t-28 -35.5t-14 -38h-75l18 384h383v-53h-331l-16 -278h13q20 64 68 88.5t101 24.5
q69 0 112.5 -29t64.5 -80t21 -118q0 -62 -18 -107t-50.5 -74t-75 -43.5t-91.5 -14.5z" />
    <glyph glyph-name="six.osf" horiz-adv-x="630" 
d="M337 -14q-122 0 -194 83.5t-72 252.5q0 102 28 181t85 124.5t145 45.5q44 0 81 -12.5t64.5 -37t45 -60.5t21.5 -83l-55 -13q-5 51 -25.5 84.5t-53.5 50.5t-77 17q-56 0 -95.5 -25.5t-63.5 -69.5t-35 -99t-11 -115q0 -40 6 -82.5t18 -79.5h9q-6 66 8.5 114t43 78.5
t67 45.5t81.5 15q54 0 100 -23t74.5 -68t28.5 -113q0 -44 -14 -82.5t-42 -67.5t-70 -45t-98 -16zM330 39q51 0 84.5 14.5t53 38t27.5 51.5t8 56q0 54 -22.5 87t-56.5 48t-71 15q-51 0 -87.5 -22t-56.5 -61.5t-20 -92.5q0 -42 12.5 -68t33.5 -40.5t45.5 -20t49.5 -5.5z" />
    <glyph glyph-name="seven.osf" horiz-adv-x="482" 
d="M165 -159q0 79 12.5 164t39.5 167.5t69.5 154.5t101.5 126v8l-344 -3v54h402v-67q-57 -56 -99 -121t-69.5 -139.5t-41 -160t-13.5 -183.5h-58z" />
    <glyph glyph-name="eight.osf" horiz-adv-x="630" 
d="M314 -14q-73 0 -129.5 20t-88 59.5t-31.5 96.5q0 49 22 83t58 55t79 29v5l90 8l90 -6v-6q40 -4 77 -24.5t60 -56t23 -87.5q0 -57 -31.5 -96.5t-88 -59.5t-130.5 -20zM315 43q28 0 61 5t63 17.5t49 35.5t19 58q0 45 -29.5 78.5t-73.5 52t-90 18.5q-44 0 -88.5 -18
t-73.5 -50.5t-29 -78.5q0 -34 18.5 -57t48 -36.5t62.5 -19t63 -5.5zM313 364q39 0 78 16.5t65.5 47t26.5 73.5q0 32 -16.5 54t-42.5 36t-56.5 20t-58.5 6q-38 0 -76.5 -11t-64.5 -35.5t-26 -66.5q0 -43 25.5 -74.5t65 -48.5t80.5 -17zM314 319l-90 7v17q-36 8 -67.5 27
t-51.5 51t-20 79q0 56 29.5 94.5t81 58.5t118.5 20q71 0 121.5 -21.5t77 -60.5t26.5 -92q0 -64 -37 -103t-98 -53v-15z" />
    <glyph glyph-name="nine.osf" horiz-adv-x="630" 
d="M310 -172q-49 0 -89 13t-69.5 37.5t-47 60t-21.5 81.5l53 14q4 -44 19.5 -73.5t39 -46.5t52 -24.5t58.5 -7.5q60 0 99.5 23t61.5 62.5t31.5 89t9.5 103.5q0 38 -3.5 73.5t-9 68.5t-11.5 61h-14q9 -67 -3 -116.5t-40 -82t-66.5 -48.5t-80.5 -16q-54 0 -100 25.5t-73.5 72
t-27.5 113.5q0 46 14 84.5t41.5 67.5t68 45t92.5 16q82 0 141.5 -41t92 -121.5t32.5 -201.5q0 -96 -24 -171t-78.5 -118t-147.5 -43zM285 151q47 0 82 23t54.5 64.5t19.5 96.5q0 57 -19.5 86.5t-50.5 40t-67 10.5q-50 0 -82.5 -14t-51.5 -38t-27 -52.5t-8 -57.5
q0 -54 21 -88.5t55.5 -52.5t73.5 -18z" />
    <glyph glyph-name="zero.tf" horiz-adv-x="589" 
d="M295 -14q-54 0 -97.5 25t-74.5 70.5t-47 108t-16 136.5q0 106 29.5 183.5t82.5 120.5t124 43q74 0 126.5 -45.5t80 -124t27.5 -178.5q0 -72 -16 -133.5t-46 -108t-73.5 -72t-99.5 -25.5zM295 41q41 0 74 19.5t56.5 57t36 92t12.5 124.5q0 87 -22 151t-62 99t-94 35
q-38 0 -71 -18t-58.5 -54t-39 -90.5t-13.5 -126.5q0 -68 13 -121.5t36.5 -91t56.5 -57t75 -19.5z" />
    <glyph glyph-name="one.tf" horiz-adv-x="589" 
d="M268 0v541h-154v52q59 0 95 5t54 19.5t25 42.5h38v-660h-58zM45 0v53h499v-53h-499z" />
    <glyph glyph-name="two.tf" horiz-adv-x="589" 
d="M60 0v81l230 186q27 23 55 48t52 53t39 59.5t15 66.5q0 37 -18 65t-53.5 44t-89.5 16q-29 0 -58.5 -7.5t-53.5 -27.5t-38 -58.5t-12 -100.5l-56 13q-2 70 20.5 123t71.5 82.5t127 29.5q67 0 115.5 -22t75 -61t26.5 -91q0 -43 -16.5 -81.5t-43 -72t-56 -61.5t-56.5 -49
l-219 -177v-8l413 3v-53h-470z" />
    <glyph glyph-name="three.tf" horiz-adv-x="589" 
d="M274 -14q-59 0 -102.5 14t-72 39.5t-43 61t-16.5 77.5l56 15q2 -49 19.5 -79t44.5 -46t57 -22t56 -6q54 0 99 13.5t72.5 44.5t27.5 82q0 65 -37 100t-101 49.5t-144 15.5v45l246 211v7l-373 -1v53h431v-74l-227 -193v-6q69 -2 119 -17.5t81.5 -42t47 -62.5t15.5 -80
q0 -59 -29 -104t-85.5 -70t-141.5 -25z" />
    <glyph glyph-name="four.tf" horiz-adv-x="589" 
d="M20 154v80q49 41 98 92t94 107.5t82 114.5t62 113h104v-661h-58v608h-9q-41 -83 -92.5 -154t-108 -130t-113.5 -108v-9h465v-53h-524z" />
    <glyph glyph-name="five.tf" horiz-adv-x="589" 
d="M289 -14q-67 0 -116.5 20.5t-76 60t-26.5 94.5l51 17q2 -64 41 -100.5t125 -36.5q87 0 135.5 43.5t48.5 139.5q0 31 -6.5 61.5t-22.5 55.5t-45 40t-73 15q-42 0 -71.5 -10t-48 -26.5t-28.5 -36t-13 -37.5h-77l19 374h391v-53h-339l-16 -268h13q14 43 41 67.5t61.5 35
t70.5 10.5q70 0 115 -29t66.5 -80t21.5 -118q0 -87 -32.5 -139.5t-86.5 -76t-122 -23.5z" />
    <glyph glyph-name="six.tf" horiz-adv-x="589" 
d="M309 -14q-114 0 -181.5 83.5t-67.5 252.5q0 102 26.5 181t80 124.5t135.5 45.5q41 0 75.5 -12.5t60.5 -37t42 -60.5t20 -83l-53 -13q-5 51 -24 84.5t-49.5 50.5t-71.5 17q-51 0 -87.5 -25.5t-59 -69.5t-32.5 -99.5t-10 -114.5q0 -38 5.5 -81.5t15.5 -80.5h9
q-5 66 8.5 114t40 78.5t62.5 45.5t76 15q50 0 93.5 -23t70 -68t26.5 -113q0 -44 -13 -82.5t-39.5 -67.5t-66 -45t-92.5 -16zM303 39q47 0 78 14.5t49 38t25.5 51.5t7.5 56q0 54 -20.5 87t-52.5 48t-66 15q-71 0 -111.5 -49t-40.5 -127q0 -55 20 -84t50.5 -39.5t60.5 -10.5z
" />
    <glyph glyph-name="seven.tf" horiz-adv-x="589" 
d="M210 0q0 75 15.5 158t48.5 164.5t84.5 153t124.5 125.5v8l-438 -3v54h499v-67q-70 -56 -121.5 -121t-85 -138.5t-50 -157t-16.5 -176.5h-61z" />
    <glyph glyph-name="eight.tf" horiz-adv-x="589" 
d="M295 -14q-69 0 -122.5 20t-83.5 59.5t-30 96.5q0 48 20.5 82t54.5 55.5t74 29.5v5l87 8l84 -6v-6q39 -4 73 -24.5t56 -56t22 -87.5q0 -57 -30 -96.5t-82.5 -59.5t-122.5 -20zM295 43q26 0 56.5 5t58.5 17.5t46 35.5t18 58q0 45 -27 78.5t-68.5 52t-83.5 18.5
q-43 0 -84 -18t-68 -50.5t-27 -78.5q0 -34 17 -57t45 -36.5t59 -19t58 -5.5zM294 364q36 0 72.5 16.5t61 47t24.5 73.5q0 32 -15.5 54t-40 36t-53 20t-54.5 6q-34 0 -69.5 -11t-60.5 -35.5t-25 -66.5q0 -43 24 -74.5t61 -48.5t75 -17zM295 319l-87 7v17q-33 8 -63 27
t-48.5 51t-18.5 79q0 56 28 94.5t76.5 58.5t111.5 20q67 0 114.5 -21.5t73 -60.5t25.5 -92q0 -64 -35 -103t-93 -53v-15z" />
    <glyph glyph-name="nine.tf" horiz-adv-x="589" 
d="M290 -14q-46 0 -83.5 11.5t-65.5 35t-45 60t-21 85.5l52 15q5 -49 20.5 -79.5t39 -46t50 -21t49.5 -5.5q56 0 93 21.5t58.5 60t30.5 89.5t9 110q0 34 -3 66.5t-8.5 64t-11.5 59.5h-12q9 -63 -3.5 -110.5t-39.5 -79t-63 -47.5t-77 -16q-51 0 -94.5 24.5t-69 70.5
t-25.5 110q0 44 13.5 82t39.5 66.5t64.5 44.5t88.5 16q78 0 135 -40.5t88 -120t31 -198.5q0 -96 -23.5 -170t-76.5 -116t-140 -42zM267 310q44 0 77 22t52 62.5t19 93.5q0 54 -19 83t-48 39.5t-61 10.5q-48 0 -78.5 -14.5t-49 -38t-26 -51t-7.5 -54.5q0 -52 20 -86
t52.5 -50.5t68.5 -16.5z" />
    <glyph glyph-name="zero.tosf" horiz-adv-x="570" 
d="M286 -11q-51 0 -93.5 19.5t-72 54.5t-45 84t-15.5 107q0 83 28.5 143.5t79.5 93.5t118 33q71 0 121 -35t76.5 -96t26.5 -140q0 -57 -15 -105t-44.5 -83.5t-70.5 -55.5t-94 -20zM285 42q38 0 69.5 14t54 41t35 67.5t12.5 94.5q0 66 -21.5 113.5t-59.5 73t-89 25.5
q-47 0 -86.5 -22.5t-63 -70t-23.5 -121.5q0 -69 21.5 -117t60.5 -73t90 -25z" />
    <glyph glyph-name="one.tosf" horiz-adv-x="570" 
d="M254 0v393h-134v52q49 0 80.5 5t49.5 19.5t24 42.5h38v-512h-58zM55 53h460v-53h-460v53z" />
    <glyph glyph-name="two.tosf" horiz-adv-x="570" 
d="M70 0v68l205 142q24 16 48.5 35t45 41t33.5 46t13 50q0 41 -33 65t-91 24q-27 0 -55 -5t-51.5 -20t-36.5 -44t-12 -76l-56 15q-2 54 20.5 95t70.5 64.5t121 23.5q58 0 98.5 -18t61.5 -50t21 -74q0 -34 -14 -64.5t-36.5 -56t-48.5 -46.5t-50 -36l-194 -127v-7l370 9v-54
h-430z" />
    <glyph glyph-name="three.tosf" horiz-adv-x="570" 
d="M270 -172q-56 0 -98.5 15t-70.5 42.5t-43.5 64.5t-17.5 80l55 15q2 -49 18.5 -80.5t42.5 -49.5t56.5 -25.5t60.5 -7.5q47 0 88 16.5t66.5 50.5t25.5 87q0 60 -34.5 95t-95 50t-140.5 16v45l236 211v7l-357 -1v53h413v-74l-216 -193v-6q88 -3 143.5 -29t81.5 -70t26 -101
q0 -60 -27 -108t-80.5 -75.5t-132.5 -27.5z" />
    <glyph glyph-name="four.tosf" horiz-adv-x="570" 
d="M20 0v80q50 41 96.5 93t88.5 109.5t75.5 116t55.5 113.5h101v-671h-56v618h-8q-37 -83 -85 -155.5t-101.5 -133t-109.5 -108.5v-9h448v-53h-505z" />
    <glyph glyph-name="five.tosf" horiz-adv-x="570" 
d="M280 -172q-65 0 -112.5 23t-72.5 65t-25 98l51 17q2 -65 38 -106.5t118 -41.5q83 0 129.5 47.5t46.5 135.5q0 32 -6.5 62.5t-22 55t-43 39.5t-69.5 15q-39 0 -66.5 -10t-45.5 -26.5t-27.5 -35.5t-13.5 -38h-73l17 384h375v-53h-323l-16 -278h13q20 64 66.5 88.5
t98.5 24.5q67 0 109.5 -29t63 -80t20.5 -118q0 -62 -17.5 -107t-49.5 -74t-73.5 -43.5t-89.5 -14.5z" />
    <glyph glyph-name="six.tosf" horiz-adv-x="570" 
d="M298 -14q-109 0 -173.5 83.5t-64.5 252.5q0 102 25 181t76.5 124.5t129.5 45.5q39 0 72.5 -12.5t58.5 -37t40.5 -60.5t19.5 -83l-52 -13q-4 51 -22.5 84.5t-47.5 50.5t-67 17q-49 0 -83.5 -25.5t-55.5 -69.5t-30.5 -99t-9.5 -115q0 -40 4 -82.5t14 -79.5h9q-5 66 7.5 114
t38 78.5t59.5 45.5t73 15q48 0 89 -23t66.5 -68t25.5 -113q0 -44 -12.5 -82.5t-38 -67.5t-63 -45t-88.5 -16zM292 39q45 0 74 14.5t46 38t24 51.5t7 56q0 54 -19 87t-49 48t-63 15q-67 0 -105.5 -48.5t-38.5 -127.5q0 -55 19 -84t47.5 -39.5t57.5 -10.5z" />
    <glyph glyph-name="seven.tosf" horiz-adv-x="570" 
d="M198 -159q0 76 13.5 160t43 167t77.5 156.5t116 128.5v8l-388 -3v54h450v-67q-64 -56 -111.5 -121t-79 -139.5t-46.5 -160t-15 -183.5h-60z" />
    <glyph glyph-name="eight.tosf" horiz-adv-x="570" 
d="M285 -14q-68 0 -120 20t-81 59.5t-29 96.5q0 49 20 83t53 55t72 29v5l85 8l83 -6v-6q37 -4 70.5 -24.5t55 -56t21.5 -87.5q0 -57 -29 -96.5t-81 -59.5t-120 -20zM285 43q25 0 55 5t57.5 17.5t45 35.5t17.5 58q0 45 -26.5 78.5t-67 52t-81.5 18.5q-40 0 -80.5 -18
t-67 -50.5t-26.5 -78.5q0 -34 17 -57t43.5 -36.5t56.5 -19t57 -5.5zM284 364q35 0 70.5 16.5t59.5 47t24 73.5q0 32 -15 54t-39 36t-51.5 20t-53.5 6q-33 0 -68 -11t-58.5 -35.5t-23.5 -66.5q0 -43 23.5 -74.5t59 -48.5t72.5 -17zM285 319l-85 7v17q-32 8 -61.5 27t-47.5 51
t-18 79q0 56 27 94.5t75 58.5t110 20q65 0 111.5 -21.5t71 -60.5t24.5 -92q0 -64 -34 -103t-90 -53v-15z" />
    <glyph glyph-name="nine.tosf" horiz-adv-x="570" 
d="M283 -172q-45 0 -81.5 13t-63.5 37.5t-43 60t-18 81.5l51 14q5 -59 27 -92t55 -46.5t69 -13.5q53 0 87.5 23t54.5 62t28 89t8 104q0 38 -2.5 73.5t-7 68.5t-10.5 61h-12q8 -67 -3 -116.5t-36.5 -82t-60 -48.5t-71.5 -16q-50 0 -92 25t-67 72t-25 114q0 46 13 84.5
t38.5 67.5t62.5 45t85 16q74 0 128 -41t83.5 -121.5t29.5 -201.5q0 -96 -22 -171t-72 -118t-133 -43zM261 151q41 0 72 23t48.5 64.5t17.5 96.5q0 57 -17.5 86.5t-45 40t-58.5 10.5q-44 0 -73.5 -14t-46.5 -38t-24 -52.5t-7 -57.5q0 -54 18.5 -89t49.5 -52.5t66 -17.5z" />
    <glyph glyph-name="zero.dnom" horiz-adv-x="431" 
d="M217 -48q-50 0 -87 26t-57 72.5t-20 107.5q0 66 21 112.5t57.5 71.5t85.5 25q51 0 87 -27t55.5 -74t19.5 -109q0 -59 -19.5 -105.5t-56.5 -73t-86 -26.5zM216 -2q32 0 57 17.5t39.5 54t14.5 91.5q0 75 -30 117t-80 42q-30 0 -55.5 -17t-41 -52.5t-15.5 -90.5
q0 -53 14 -89t39.5 -54.5t57.5 -18.5z" />
    <glyph glyph-name="one.dnom" horiz-adv-x="231" 
d="M100 -40v311h-56v45q25 0 43 8.5t23 35.5h40v-400h-50z" />
    </font>
</defs>
</svg>
