<svg width="40" height="40" viewBox="0 0 40 40" fill="none" xmlns="http://www.w3.org/2000/svg">
<g clip-path="url(#clip0_16_867)">
<path d="M5 33.3333H35V20C35 18.6739 34.4732 17.4021 33.5355 16.4645C32.5979 15.5268 31.3261 15 30 15H10C8.67392 15 7.40215 15.5268 6.46447 16.4645C5.52678 17.4021 5 18.6739 5 20V33.3333Z" stroke="black" stroke-width="2" stroke-linecap="round" stroke-linejoin="round"/>
<path d="M5 24.6716C5.52 24.8966 6.09 25.0116 6.66667 25C7.31583 25.0136 7.95854 24.8689 8.53929 24.5786C9.12005 24.2882 9.62138 23.8608 10 23.3333C10.3786 22.8058 10.88 22.3784 11.4607 22.0881C12.0415 21.7977 12.6842 21.6531 13.3333 21.6666C13.9825 21.6531 14.6252 21.7977 15.206 22.0881C15.7867 22.3784 16.288 22.8058 16.6667 23.3333C17.0453 23.8608 17.5466 24.2882 18.1274 24.5786C18.7081 24.8689 19.3508 25.0136 20 25C20.6492 25.0136 21.2919 24.8689 21.8726 24.5786C22.4534 24.2882 22.9547 23.8608 23.3333 23.3333C23.712 22.8058 24.2133 22.3784 24.794 22.0881C25.3748 21.7977 26.0175 21.6531 26.6667 21.6666C27.3158 21.6531 27.9585 21.7977 28.5393 22.0881C29.12 22.3784 29.6214 22.8058 30 23.3333C30.3786 23.8608 30.88 24.2882 31.4607 24.5786C32.0415 24.8689 32.6842 25.0136 33.3333 25C33.9167 25.0116 34.4867 24.8966 35 24.6716" stroke="black" stroke-width="2" stroke-linecap="round" stroke-linejoin="round"/>
<path d="M19.9998 6.66675L22.4415 9.39675C22.8772 9.86514 23.1689 10.449 23.2818 11.0787C23.3947 11.7083 23.3241 12.3572 23.0783 12.9478C22.8325 13.5384 22.422 14.0458 21.8957 14.4094C21.3694 14.7731 20.7496 14.9776 20.1102 14.9986C19.4709 15.0196 18.839 14.8562 18.2899 14.5278C17.7409 14.1995 17.298 13.7201 17.014 13.1469C16.73 12.5737 16.6169 11.9309 16.6883 11.2952C16.7597 10.6595 17.0124 10.0577 17.4165 9.56175L19.9998 6.66675Z" stroke="black" stroke-width="2" stroke-linecap="round" stroke-linejoin="round"/>
</g>
<defs>
<clipPath id="clip0_16_867">
<rect width="40" height="40" fill="white"/>
</clipPath>
</defs>
</svg>
