<svg width="40" height="40" viewBox="0 0 40 40" fill="none" xmlns="http://www.w3.org/2000/svg">
<g clip-path="url(#clip0_16_855)">
<path d="M29.2548 27.9168C26.9106 25.5729 23.7314 24.2561 20.4165 24.2561C17.1015 24.2561 13.9223 25.5729 11.5781 27.9168" stroke="black" stroke-width="2" stroke-linecap="round" stroke-linejoin="round"/>
<path d="M29.9998 6.33997C27.7031 5.01395 24.9736 4.6546 22.4119 5.34098C19.8501 6.02736 17.666 7.70324 16.3398 9.99997L33.6598 20C34.9859 17.7032 35.3452 14.9737 34.6588 12.412C33.9725 9.85025 32.2966 7.66609 29.9998 6.33997Z" stroke="black" stroke-width="2" stroke-linecap="round" stroke-linejoin="round"/>
<path d="M27.8866 16.6666C30.6499 11.8832 31.5949 7.25989 29.9999 6.33989C28.4049 5.41989 24.8749 8.54989 22.1133 13.3332" stroke="black" stroke-width="2" stroke-linecap="round" stroke-linejoin="round"/>
<path d="M25 15L20 23.66" stroke="black" stroke-width="2" stroke-linecap="round" stroke-linejoin="round"/>
<path d="M5 32.0833C5.51882 31.8254 6.08749 31.6832 6.66667 31.6666C7.31583 31.6531 7.95854 31.7977 8.53929 32.0881C9.12005 32.3784 9.62138 32.8058 10 33.3333C10.3786 33.8608 10.88 34.2882 11.4607 34.5786C12.0415 34.8689 12.6842 35.0136 13.3333 35C13.9825 35.0136 14.6252 34.8689 15.206 34.5786C15.7867 34.2882 16.288 33.8608 16.6667 33.3333C17.0453 32.8058 17.5466 32.3784 18.1274 32.0881C18.7081 31.7977 19.3508 31.6531 20 31.6666C20.6492 31.6531 21.2919 31.7977 21.8726 32.0881C22.4534 32.3784 22.9547 32.8058 23.3333 33.3333C23.712 33.8608 24.2133 34.2882 24.794 34.5786C25.3748 34.8689 26.0175 35.0136 26.6667 35C27.3158 35.0136 27.9585 34.8689 28.5393 34.5786C29.12 34.2882 29.6214 33.8608 30 33.3333C30.3786 32.8058 30.88 32.3784 31.4607 32.0881C32.0415 31.7977 32.6842 31.6531 33.3333 31.6666C33.9125 31.6832 34.4812 31.8254 35 32.0833" stroke="black" stroke-width="2" stroke-linecap="round" stroke-linejoin="round"/>
</g>
<defs>
<clipPath id="clip0_16_855">
<rect width="40" height="40" fill="white"/>
</clipPath>
</defs>
</svg>
