<svg width="40" height="40" viewBox="0 0 40 40" fill="none" xmlns="http://www.w3.org/2000/svg">
<g clip-path="url(#clip0_16_740)">
<path d="M23.3335 5V11.6667C23.3335 12.1087 23.5091 12.5326 23.8217 12.8452C24.1342 13.1577 24.5581 13.3333 25.0002 13.3333H31.6668" stroke="black" stroke-width="2" stroke-linecap="round" stroke-linejoin="round"/>
<path d="M28.3335 35H11.6668C10.7828 35 9.93493 34.6488 9.30981 34.0237C8.68469 33.3986 8.3335 32.5507 8.3335 31.6667V8.33333C8.3335 7.44928 8.68469 6.60143 9.30981 5.97631C9.93493 5.35119 10.7828 5 11.6668 5H23.3335L31.6668 13.3333V31.6667C31.6668 32.5507 31.3156 33.3986 30.6905 34.0237C30.0654 34.6488 29.2176 35 28.3335 35Z" stroke="black" stroke-width="2" stroke-linecap="round" stroke-linejoin="round"/>
<path d="M24 27.533C23.3787 27.8407 22.7033 28 22.0198 28C21.3363 28 20.6609 27.8407 20.0396 27.533C19.3901 27.2908 18.6997 27.2036 18.0159 27.2774C17.3322 27.3513 16.6715 27.5845 16.0792 27.9609C16.5033 27.8023 16.8772 27.5172 17.1575 27.1386C17.4379 26.7599 17.6133 26.3032 17.6634 25.8214V19.4027C17.6675 18.6529 17.8994 17.9254 18.3234 17.3318C18.7474 16.7382 19.34 16.3115 20.0102 16.1171C20.6804 15.9227 21.3911 15.9714 22.0332 16.2557C22.6753 16.5401 23.2132 17.0443 23.5644 17.691M21.5446 22.826H16" stroke="black" stroke-width="2" stroke-linecap="round" stroke-linejoin="round"/>
</g>
<defs>
<clipPath id="clip0_16_740">
<rect width="40" height="40" fill="white"/>
</clipPath>
</defs>
</svg>
