<svg width="40" height="40" viewBox="0 0 40 40" fill="none" xmlns="http://www.w3.org/2000/svg">
<g clip-path="url(#clip0_16_761)">
<path d="M5 35H35" stroke="black" stroke-width="2" stroke-linecap="round" stroke-linejoin="round"/>
<path d="M31.6665 34.9999V28.3333" stroke="black" stroke-width="2" stroke-linecap="round" stroke-linejoin="round"/>
<path d="M31.6668 28.3333C32.5509 28.3333 33.3987 27.9821 34.0239 27.3569C34.649 26.7318 35.0002 25.884 35.0002 24.9999V21.6666C35.0002 20.7825 34.649 19.9347 34.0239 19.3096C33.3987 18.6844 32.5509 18.3333 31.6668 18.3333C30.7828 18.3333 29.9349 18.6844 29.3098 19.3096C28.6847 19.9347 28.3335 20.7825 28.3335 21.6666V24.9999C28.3335 25.884 28.6847 26.7318 29.3098 27.3569C29.9349 27.9821 30.7828 28.3333 31.6668 28.3333Z" stroke="black" stroke-width="2" stroke-linecap="round" stroke-linejoin="round"/>
<path d="M23.3332 35.0001V11.6667C23.3332 10.3407 22.8064 9.0689 21.8687 8.13121C20.931 7.19353 19.6593 6.66675 18.3332 6.66675H11.6665C10.3404 6.66675 9.06865 7.19353 8.13097 8.13121C7.19329 9.0689 6.6665 10.3407 6.6665 11.6667V35.0001" stroke="black" stroke-width="2" stroke-linecap="round" stroke-linejoin="round"/>
<path d="M15 28.3333V34.9999" stroke="black" stroke-width="2" stroke-linecap="round" stroke-linejoin="round"/>
<path d="M13.3335 21.6667H16.6668" stroke="black" stroke-width="2" stroke-linecap="round" stroke-linejoin="round"/>
<path d="M13.3335 15H16.6668" stroke="black" stroke-width="2" stroke-linecap="round" stroke-linejoin="round"/>
</g>
<defs>
<clipPath id="clip0_16_761">
<rect width="40" height="40" fill="white"/>
</clipPath>
</defs>
</svg>
