<svg width="40" height="40" viewBox="0 0 40 40" fill="none" xmlns="http://www.w3.org/2000/svg">
<g clip-path="url(#clip0_16_907)">
<path d="M18.3332 34.9999H9.99984C9.11578 34.9999 8.26794 34.6487 7.64281 34.0236C7.01769 33.3985 6.6665 32.5506 6.6665 31.6666V11.6666C6.6665 10.7825 7.01769 9.93468 7.64281 9.30956C8.26794 8.68444 9.11578 8.33325 9.99984 8.33325H29.9998C30.8839 8.33325 31.7317 8.68444 32.3569 9.30956C32.982 9.93468 33.3332 10.7825 33.3332 11.6666V17.4999" stroke="black" stroke-width="2" stroke-linecap="round" stroke-linejoin="round"/>
<path d="M26.6665 5V11.6667" stroke="black" stroke-width="2" stroke-linecap="round" stroke-linejoin="round"/>
<path d="M13.3335 5V11.6667" stroke="black" stroke-width="2" stroke-linecap="round" stroke-linejoin="round"/>
<path d="M6.6665 18.3333H24.9998" stroke="black" stroke-width="2" stroke-linecap="round" stroke-linejoin="round"/>
<path d="M29.6666 34.695L26.0466 36.5916C25.9391 36.6475 25.8183 36.6725 25.6975 36.6637C25.5767 36.6549 25.4608 36.6127 25.3626 36.5418C25.2644 36.4709 25.1878 36.3742 25.1414 36.2623C25.095 36.1504 25.0807 36.0279 25.0999 35.9083L25.7916 31.89L22.8632 29.045C22.7758 28.9605 22.7139 28.8531 22.6846 28.7351C22.6553 28.6171 22.6598 28.4933 22.6975 28.3777C22.7352 28.2621 22.8047 28.1595 22.8979 28.0815C22.9912 28.0035 23.1045 27.9533 23.2249 27.9366L27.2716 27.35L29.0816 23.695C29.1357 23.5861 29.2191 23.4945 29.3225 23.4305C29.4258 23.3664 29.545 23.3325 29.6666 23.3325C29.7881 23.3325 29.9073 23.3664 30.0107 23.4305C30.114 23.4945 30.1974 23.5861 30.2516 23.695L32.0616 27.35L36.1082 27.9366C36.2283 27.9539 36.3411 28.0044 36.434 28.0825C36.5268 28.1606 36.596 28.263 36.6336 28.3784C36.6713 28.4937 36.6759 28.6172 36.6469 28.735C36.618 28.8528 36.5567 28.9602 36.4699 29.045L33.5416 31.89L34.2316 35.9066C34.2523 36.0264 34.239 36.1496 34.1932 36.2622C34.1474 36.3748 34.071 36.4723 33.9726 36.5436C33.8741 36.615 33.7577 36.6573 33.6364 36.6658C33.5152 36.6743 33.394 36.6486 33.2866 36.5916L29.6666 34.695Z" stroke="black" stroke-width="2" stroke-linecap="round" stroke-linejoin="round"/>
</g>
<defs>
<clipPath id="clip0_16_907">
<rect width="40" height="40" fill="white"/>
</clipPath>
</defs>
</svg>
