<svg width="40" height="40" viewBox="0 0 40 40" fill="none" xmlns="http://www.w3.org/2000/svg">
<g clip-path="url(#clip0_16_783)">
<path d="M11.6665 29.9998C11.6665 30.8839 12.0177 31.7317 12.6428 32.3569C13.2679 32.982 14.1158 33.3332 14.9998 33.3332C15.8839 33.3332 16.7317 32.982 17.3569 32.3569C17.982 31.7317 18.3332 30.8839 18.3332 29.9998C18.3332 29.1158 17.982 28.2679 17.3569 27.6428C16.7317 27.0177 15.8839 26.6665 14.9998 26.6665C14.1158 26.6665 13.2679 27.0177 12.6428 27.6428C12.0177 28.2679 11.6665 29.1158 11.6665 29.9998Z" stroke="black" stroke-width="2" stroke-linecap="round" stroke-linejoin="round"/>
<path d="M18.3333 29.9998H30C30.8841 29.9998 31.7319 29.6486 32.357 29.0235C32.9821 28.3984 33.3333 27.5506 33.3333 26.6665V14.9998C33.3333 14.1158 32.9821 13.2679 32.357 12.6428C31.7319 12.0177 30.8841 11.6665 30 11.6665H14.1667C11.7355 11.6665 9.40394 12.6323 7.68485 14.3514C5.96577 16.0704 5 18.402 5 20.8332V26.6665C5 27.5506 5.35119 28.3984 5.97631 29.0235C6.60143 29.6486 7.44928 29.9998 8.33333 29.9998H11.6667" stroke="black" stroke-width="2" stroke-linecap="round" stroke-linejoin="round"/>
<path d="M13.3335 11.6665L25.0002 6.6665L26.6668 11.6665" stroke="black" stroke-width="2" stroke-linecap="round" stroke-linejoin="round"/>
<path d="M21.6665 19.1668C21.6665 18.9458 21.7543 18.7339 21.9106 18.5776C22.0669 18.4213 22.2788 18.3335 22.4998 18.3335H25.8332C26.0542 18.3335 26.2661 18.4213 26.4224 18.5776C26.5787 18.7339 26.6665 18.9458 26.6665 19.1668V22.5002C26.6665 22.7212 26.5787 22.9331 26.4224 23.0894C26.2661 23.2457 26.0542 23.3335 25.8332 23.3335H22.4998C22.2788 23.3335 22.0669 23.2457 21.9106 23.0894C21.7543 22.9331 21.6665 22.7212 21.6665 22.5002V19.1668Z" stroke="black" stroke-width="2" stroke-linecap="round" stroke-linejoin="round"/>
<path d="M33.3335 26.6665H36.6668" stroke="black" stroke-width="2" stroke-linecap="round" stroke-linejoin="round"/>
</g>
<defs>
<clipPath id="clip0_16_783">
<rect width="40" height="40" fill="white"/>
</clipPath>
</defs>
</svg>
