<svg width="40" height="40" viewBox="0 0 40 40" fill="none" xmlns="http://www.w3.org/2000/svg">
<g clip-path="url(#clip0_16_824)">
<path d="M15 23.3335C15 26.0952 19.4767 28.3335 25 28.3335C30.5233 28.3335 35 26.0952 35 23.3335C35 20.5718 30.5233 18.3335 25 18.3335C19.4767 18.3335 15 20.5718 15 23.3335Z" stroke="black" stroke-width="2" stroke-linecap="round" stroke-linejoin="round"/>
<path d="M15 23.3335V30.0002C15 32.7602 19.4767 35.0002 25 35.0002C30.5233 35.0002 35 32.7602 35 30.0002V23.3335" stroke="black" stroke-width="2" stroke-linecap="round" stroke-linejoin="round"/>
<path d="M5 10C5 11.7867 6.90667 13.4367 10 14.33C13.0933 15.2233 16.9067 15.2233 20 14.33C23.0933 13.4367 25 11.7867 25 10C25 8.21333 23.0933 6.56333 20 5.67C16.9067 4.77667 13.0933 4.77667 10 5.67C6.90667 6.56333 5 8.21333 5 10Z" stroke="black" stroke-width="2" stroke-linecap="round" stroke-linejoin="round"/>
<path d="M5 10V26.6667C5 28.1467 6.28667 29.0833 8.33333 30" stroke="black" stroke-width="2" stroke-linecap="round" stroke-linejoin="round"/>
<path d="M5 18.3335C5 19.8135 6.28667 20.7502 8.33333 21.6668" stroke="black" stroke-width="2" stroke-linecap="round" stroke-linejoin="round"/>
</g>
<defs>
<clipPath id="clip0_16_824">
<rect width="40" height="40" fill="white"/>
</clipPath>
</defs>
</svg>
