<svg width="40" height="40" viewBox="0 0 40 40" fill="none" xmlns="http://www.w3.org/2000/svg">
<g clip-path="url(#clip0_16_804)">
<path d="M19.6583 34.9999H8.33333C7.44928 34.9999 6.60143 34.6487 5.97631 34.0236C5.35119 33.3985 5 32.5506 5 31.6666V11.6666C5 10.7825 5.35119 9.93468 5.97631 9.30956C6.60143 8.68444 7.44928 8.33325 8.33333 8.33325H28.3333C29.2174 8.33325 30.0652 8.68444 30.6904 9.30956C31.3155 9.93468 31.6667 10.7825 31.6667 11.6666V18.3333" stroke="black" stroke-width="2" stroke-linecap="round" stroke-linejoin="round"/>
<path d="M30 23.3333V29.9999H36.6667" stroke="black" stroke-width="2" stroke-linecap="round" stroke-linejoin="round"/>
<path d="M23.3335 29.9999C23.3335 31.768 24.0359 33.4637 25.2861 34.714C26.5364 35.9642 28.2321 36.6666 30.0002 36.6666C31.7683 36.6666 33.464 35.9642 34.7142 34.714C35.9644 33.4637 36.6668 31.768 36.6668 29.9999C36.6668 28.2318 35.9644 26.5361 34.7142 25.2859C33.464 24.0356 31.7683 23.3333 30.0002 23.3333C28.2321 23.3333 26.5364 24.0356 25.2861 25.2859C24.0359 26.5361 23.3335 28.2318 23.3335 29.9999Z" stroke="black" stroke-width="2" stroke-linecap="round" stroke-linejoin="round"/>
<path d="M25 5V11.6667" stroke="black" stroke-width="2" stroke-linecap="round" stroke-linejoin="round"/>
<path d="M11.6665 5V11.6667" stroke="black" stroke-width="2" stroke-linecap="round" stroke-linejoin="round"/>
<path d="M5 18.3333H31.6667" stroke="black" stroke-width="2" stroke-linecap="round" stroke-linejoin="round"/>
</g>
<defs>
<clipPath id="clip0_16_804">
<rect width="40" height="40" fill="white"/>
</clipPath>
</defs>
</svg>
