<svg width="40" height="40" viewBox="0 0 40 40" fill="none" xmlns="http://www.w3.org/2000/svg">
<g clip-path="url(#clip0_16_936)">
<path d="M30.1001 24.2485L32.3374 21.9645C32.0727 21.6946 31.8773 21.3621 31.7686 20.9967C31.6599 20.6313 31.6412 20.2442 31.7142 19.8696C31.7871 19.4951 31.9495 19.1446 32.1869 18.8494C32.4242 18.5541 32.7293 18.3232 33.0751 18.177C33.4208 18.0307 33.7966 17.9738 34.1691 18.0111C34.5415 18.0485 34.8992 18.179 35.2105 18.391C35.5217 18.6031 35.7769 18.8902 35.9535 19.227C36.13 19.5637 36.2224 19.9397 36.2225 20.3216C36.5969 20.3213 36.9655 20.4152 37.2958 20.5951C37.6261 20.775 37.9078 21.0352 38.1159 21.3527C38.324 21.6702 38.4522 22.0352 38.4891 22.4153C38.5259 22.7954 38.4703 23.1789 38.3271 23.5319C38.1839 23.8848 37.9576 24.1963 37.6683 24.4386C37.3789 24.681 37.0355 24.8468 36.6683 24.9214C36.3011 24.9959 35.9216 24.9769 35.5633 24.866C35.2051 24.7551 34.8792 24.5557 34.6145 24.2856L32.5434 26.4" stroke="black" stroke-width="2" stroke-linecap="round" stroke-linejoin="round"/>
<path d="M21.3191 35.4989C24.5158 38.4301 28.2202 39.7874 29.5887 38.532C30.9596 37.2754 29.4788 33.8811 26.2809 30.951C23.0842 28.0198 19.3798 26.6625 18.0113 27.9179C16.6404 29.1745 18.1212 32.5688 21.3191 35.4989Z" stroke="black" stroke-width="2" stroke-linecap="round" stroke-linejoin="round"/>
<path d="M22.75 32.7L23.8 33.75" stroke="black" stroke-width="2" stroke-linecap="round" stroke-linejoin="round"/>
<path d="M29.2643 39C33.491 34.4706 34.5192 28.2296 31.56 25.0604C28.6019 21.89 22.7765 22.9916 18.5498 27.5199" stroke="black" stroke-width="2" stroke-linecap="round" stroke-linejoin="round"/>
<path d="M6.05225 5.42104H11.947V2.47368C11.947 2.08284 11.7917 1.708 11.5153 1.43163C11.239 1.15526 10.8641 1 10.4733 1H7.52593C7.13508 1 6.76025 1.15526 6.48388 1.43163C6.20751 1.708 6.05225 2.08284 6.05225 2.47368V5.42104Z" stroke="black" stroke-width="2" stroke-linecap="round" stroke-linejoin="round"/>
<path d="M11.9471 3.21045C11.9471 5.60665 12.6943 7.94391 14.084 9.89654L14.1576 9.9997C15.5956 12.0197 16.3683 14.4376 16.3682 16.9172V26.0525C16.3682 26.8342 16.0576 27.5839 15.5049 28.1366C14.9522 28.6893 14.2025 28.9999 13.4208 28.9999H4.57871C3.79702 28.9999 3.04735 28.6893 2.49461 28.1366C1.94187 27.5839 1.63135 26.8342 1.63135 26.0525V16.9157C1.63135 14.437 2.40356 12.0201 3.84187 9.9997L3.91555 9.89654C5.30549 7.94413 6.0524 5.60708 6.05239 3.21045" stroke="black" stroke-width="2" stroke-linecap="round" stroke-linejoin="round"/>
<path d="M1.63135 19.8675C2.22082 19.6141 2.73024 19.205 3.10503 18.6842C3.43981 18.2178 3.88309 17.8399 4.3966 17.5831C4.91011 17.3264 5.4784 17.1985 6.05239 17.2105C6.62638 17.1985 7.19468 17.3264 7.70818 17.5831C8.22169 17.8399 8.66498 18.2178 8.99975 18.6842C9.33453 19.1506 9.77781 19.5285 10.2913 19.7852C10.8048 20.042 11.3731 20.1699 11.9471 20.1579C12.5211 20.1699 13.0894 20.042 13.6029 19.7852C14.1164 19.5285 14.5597 19.1506 14.8945 18.6842C15.2689 18.1623 15.7783 17.7521 16.3682 17.4979" stroke="black" stroke-width="2" stroke-linecap="round" stroke-linejoin="round"/>
</g>
<defs>
<clipPath id="clip0_16_936">
<rect width="40" height="40" fill="white"/>
</clipPath>
</defs>
</svg>
