<svg width="40" height="40" viewBox="0 0 40 40" fill="none" xmlns="http://www.w3.org/2000/svg">
<g clip-path="url(#clip0_16_918)">
<path d="M6.6665 11.6666C6.6665 10.7825 7.01769 9.93468 7.64281 9.30956C8.26794 8.68444 9.11578 8.33325 9.99984 8.33325H29.9998C30.8839 8.33325 31.7317 8.68444 32.3569 9.30956C32.982 9.93468 33.3332 10.7825 33.3332 11.6666V31.6666C33.3332 32.5506 32.982 33.3985 32.3569 34.0236C31.7317 34.6487 30.8839 34.9999 29.9998 34.9999H9.99984C9.11578 34.9999 8.26794 34.6487 7.64281 34.0236C7.01769 33.3985 6.6665 32.5506 6.6665 31.6666V11.6666Z" stroke="black" stroke-width="2" stroke-linecap="round" stroke-linejoin="round"/>
<path d="M26.6665 5V11.6667" stroke="black" stroke-width="2" stroke-linecap="round" stroke-linejoin="round"/>
<path d="M13.3335 5V11.6667" stroke="black" stroke-width="2" stroke-linecap="round" stroke-linejoin="round"/>
<path d="M6.6665 18.3333H33.3332" stroke="black" stroke-width="2" stroke-linecap="round" stroke-linejoin="round"/>
<path d="M11.6665 23.3333H11.6882" stroke="black" stroke-width="2" stroke-linecap="round" stroke-linejoin="round"/>
<path d="M16.6831 23.3333H16.6912" stroke="black" stroke-width="2" stroke-linecap="round" stroke-linejoin="round"/>
<path d="M21.6831 23.3333H21.6912" stroke="black" stroke-width="2" stroke-linecap="round" stroke-linejoin="round"/>
<path d="M26.6919 23.3333H26.7" stroke="black" stroke-width="2" stroke-linecap="round" stroke-linejoin="round"/>
<path d="M21.6919 28.3333H21.7" stroke="black" stroke-width="2" stroke-linecap="round" stroke-linejoin="round"/>
<path d="M11.6831 28.3333H11.6912" stroke="black" stroke-width="2" stroke-linecap="round" stroke-linejoin="round"/>
<path d="M16.6831 28.3333H16.6912" stroke="black" stroke-width="2" stroke-linecap="round" stroke-linejoin="round"/>
</g>
<defs>
<clipPath id="clip0_16_918">
<rect width="40" height="40" fill="white"/>
</clipPath>
</defs>
</svg>
