<svg width="40" height="40" viewBox="0 0 40 40" fill="none" xmlns="http://www.w3.org/2000/svg">
<g clip-path="url(#clip0_16_816)">
<path d="M8.3335 35V8.33333C8.3335 7.44928 8.68469 6.60143 9.30981 5.97631C9.93493 5.35119 10.7828 5 11.6668 5H28.3335C29.2176 5 30.0654 5.35119 30.6905 5.97631C31.3156 6.60143 31.6668 7.44928 31.6668 8.33333V35L26.6668 31.6667L23.3335 35L20.0002 31.6667L16.6668 35L13.3335 31.6667L8.3335 35Z" stroke="black" stroke-width="2" stroke-linecap="round" stroke-linejoin="round"/>
<path d="M24 23.533C23.3787 23.8407 22.7033 24 22.0198 24C21.3363 24 20.6609 23.8407 20.0396 23.533C19.3901 23.2908 18.6997 23.2036 18.0159 23.2774C17.3322 23.3513 16.6715 23.5845 16.0792 23.9609C16.5033 23.8023 16.8772 23.5172 17.1575 23.1386C17.4379 22.7599 17.6133 22.3032 17.6634 21.8214V15.4027C17.6675 14.6529 17.8994 13.9254 18.3234 13.3318C18.7474 12.7382 19.34 12.3115 20.0102 12.1171C20.6804 11.9227 21.3911 11.9714 22.0332 12.2557C22.6753 12.5401 23.2132 13.0443 23.5644 13.691M21.5446 18.826H16" stroke="black" stroke-width="2" stroke-linecap="round" stroke-linejoin="round"/>
</g>
<defs>
<clipPath id="clip0_16_816">
<rect width="40" height="40" fill="white"/>
</clipPath>
</defs>
</svg>
