<svg width="226" height="227" viewBox="0 0 226 227" fill="none" xmlns="http://www.w3.org/2000/svg">
<path d="M103.867 138.307L126.267 94.3066M99.6007 94.3066L122.001 138.307M88.9341 134.307C88.9341 129.888 92.5158 126.307 96.9341 126.307C101.352 126.307 104.934 129.888 104.934 134.307C104.934 138.725 101.352 142.307 96.9341 142.307C92.5158 142.307 88.9341 138.725 88.9341 134.307ZM120.934 134.307C120.934 129.888 124.516 126.307 128.934 126.307C133.352 126.307 136.934 129.888 136.934 134.307C136.934 138.725 133.352 142.307 128.934 142.307C124.516 142.307 120.934 138.725 120.934 134.307Z" stroke="black" stroke-width="2" stroke-linecap="round" stroke-linejoin="round"/>
<path d="M115.909 25.0066L117.888 5.10605L120.181 5.33414L119.45 12.6802L119.645 12.6996C119.839 12.4572 120.105 12.15 120.443 11.778C120.788 11.4002 121.258 11.0806 121.853 10.8192C122.456 10.552 123.243 10.4667 124.214 10.5634C125.471 10.6884 126.548 11.1127 127.444 11.8365C128.34 12.5602 129 13.5253 129.423 14.7319C129.846 15.9385 129.979 17.3256 129.823 18.8933C129.666 20.4739 129.261 21.8173 128.608 22.9234C127.956 24.023 127.122 24.8429 126.106 25.383C125.091 25.9167 123.962 26.1217 122.718 25.998C121.76 25.9026 121.008 25.6675 120.463 25.2928C119.918 24.9115 119.511 24.5014 119.241 24.0623C118.971 23.6168 118.766 23.2496 118.624 22.9608L118.352 22.9337L118.124 25.227L115.909 25.0066ZM118.905 17.7681C118.793 18.8953 118.859 19.9061 119.104 20.8006C119.349 21.6885 119.765 22.407 120.352 22.956C120.939 23.4985 121.692 23.8155 122.612 23.907C123.571 24.0024 124.396 23.8293 125.088 23.3878C125.787 22.9405 126.341 22.3021 126.75 21.4727C127.167 20.6375 127.428 19.6887 127.534 18.6263C127.638 17.5769 127.57 16.615 127.33 15.7406C127.097 14.8604 126.681 14.142 126.082 13.5852C125.491 13.0226 124.709 12.693 123.737 12.5963C122.804 12.5036 121.997 12.662 121.315 13.0718C120.634 13.4751 120.09 14.0817 119.682 14.8916C119.275 15.6951 119.016 16.6539 118.905 17.7681Z" fill="#353535"/>
<path d="M138.908 29.3391C137.524 28.921 136.423 28.255 135.604 27.3411C134.794 26.4228 134.284 25.3302 134.075 24.0634C133.875 22.7922 133.996 21.4213 134.441 19.9506C134.885 18.4799 135.545 17.2647 136.42 16.305C137.303 15.3409 138.323 14.6901 139.479 14.3527C140.643 14.0108 141.873 14.0358 143.169 14.4275C143.917 14.6535 144.618 15.0013 145.272 15.4709C145.926 15.9405 146.467 16.5462 146.895 17.2878C147.326 18.0232 147.581 18.9026 147.659 19.926C147.737 20.9494 147.574 22.131 147.169 23.4708L146.887 24.4056L135.819 21.0608L136.396 19.1539L145.22 21.8207C145.464 21.0106 145.521 20.2388 145.389 19.5052C145.263 18.7735 144.96 18.1344 144.479 17.5878C144.004 17.0431 143.368 16.6502 142.57 16.4092C141.692 16.1436 140.866 16.132 140.092 16.3742C139.326 16.6121 138.668 17.0251 138.116 17.6132C137.564 18.2013 137.169 18.8911 136.929 19.6825L136.545 20.9538C136.218 22.0381 136.127 23.0138 136.273 23.8808C136.427 24.7435 136.781 25.4728 137.335 26.0688C137.892 26.6586 138.615 27.0881 139.507 27.3574C140.086 27.5326 140.634 27.6097 141.15 27.589C141.675 27.5639 142.158 27.4379 142.601 27.2112C143.045 26.9783 143.436 26.6408 143.774 26.1988L145.724 27.4411C145.282 28.0962 144.712 28.6179 144.017 29.0062C143.324 29.3883 142.541 29.6143 141.67 29.6842C140.801 29.7479 139.88 29.6329 138.908 29.3391Z" fill="#353535"/>
<path d="M160.929 21.8161L160.094 23.5815L153.067 20.2576L153.902 18.4922L160.929 21.8161ZM157.487 16.2126L159.57 17.1981L153.457 30.121C153.178 30.7095 153.055 31.1912 153.087 31.5662C153.127 31.9381 153.258 32.238 153.482 32.4661C153.714 32.6911 153.983 32.876 154.289 33.0208C154.518 33.1293 154.712 33.2067 154.87 33.2527C155.032 33.2929 155.16 33.325 155.257 33.3491L154.795 35.4209C154.629 35.4071 154.407 35.3668 154.129 35.3C153.848 35.2392 153.513 35.1169 153.125 34.9331C152.536 34.6548 152.02 34.2554 151.574 33.7351C151.135 33.2176 150.852 32.6122 150.727 31.919C150.607 31.2285 150.733 30.489 151.106 29.7005L157.487 16.2126Z" fill="#353535"/>
<path d="M170.359 27.3993L169.343 29.0677L162.703 25.0267L163.719 23.3584L170.359 27.3993ZM167.522 21.4664L169.491 22.6645L162.059 34.8767C161.72 35.4328 161.547 35.899 161.539 36.2752C161.54 36.6492 161.64 36.9613 161.838 37.2116C162.045 37.4596 162.294 37.6716 162.583 37.8476C162.8 37.9796 162.984 38.0768 163.137 38.1391C163.293 38.1959 163.418 38.2414 163.511 38.2755L162.835 40.2876C162.671 40.2564 162.455 40.1931 162.185 40.0976C161.912 40.0077 161.592 39.851 161.225 39.6277C160.669 39.2892 160.197 38.838 159.808 38.274C159.426 37.7133 159.208 37.0817 159.155 36.3791C159.108 35.6799 159.312 34.9577 159.765 34.2125L167.522 21.4664Z" fill="#353535"/>
<path d="M169.502 45.9607C168.39 45.0383 167.634 43.997 167.234 42.8369C166.844 41.6759 166.798 40.4711 167.098 39.2226C167.406 37.9732 168.051 36.7572 169.032 35.5745C170.012 34.3918 171.092 33.5281 172.271 32.9834C173.459 32.4379 174.651 32.2341 175.848 32.372C177.054 32.509 178.178 33.0097 179.22 33.874C179.821 34.3727 180.332 34.9653 180.752 35.6519C181.172 36.3385 181.436 37.1068 181.543 37.9567C181.654 38.8016 181.547 39.7109 181.222 40.6844C180.897 41.6579 180.288 42.6834 179.394 43.7609L178.771 44.5126L169.871 37.1328L171.142 35.5993L178.238 41.4832C178.779 40.8317 179.13 40.1423 179.294 39.4151C179.462 38.692 179.43 37.9853 179.2 37.2949C178.974 36.6086 178.54 35.9995 177.899 35.4676C177.192 34.8817 176.435 34.5502 175.628 34.473C174.83 34.395 174.063 34.5198 173.326 34.8475C172.589 35.1752 171.957 35.6573 171.429 36.2938L170.581 37.3161C169.858 38.1881 169.396 39.0519 169.194 39.9076C169.001 40.7625 169.044 41.5721 169.323 42.3366C169.607 43.0961 170.107 43.7729 170.824 44.3671C171.29 44.7536 171.765 45.0374 172.249 45.2188C172.742 45.3993 173.236 45.471 173.732 45.4339C174.232 45.3919 174.724 45.2327 175.206 44.9564L176.521 46.8586C175.859 47.2904 175.132 47.5501 174.34 47.6379C173.553 47.7207 172.744 47.6252 171.914 47.3514C171.088 47.0725 170.284 46.609 169.502 45.9607Z" fill="#353535"/>
<path d="M177.238 52.732L188.475 42.7977L189.95 44.4658L188.252 45.9663L188.356 46.0833C189.093 45.7966 189.872 45.7685 190.692 45.9989C191.513 46.2292 192.221 46.681 192.816 47.354C192.928 47.4809 193.066 47.6415 193.229 47.8361C193.392 48.0306 193.512 48.1809 193.589 48.2871L191.833 49.8393C191.796 49.7679 191.699 49.6143 191.543 49.3787C191.396 49.1437 191.221 48.9116 191.018 48.6823C190.536 48.1361 189.99 47.7497 189.381 47.5231C188.782 47.2971 188.172 47.2365 187.552 47.3413C186.941 47.4467 186.383 47.7236 185.875 48.1721L178.764 54.4586L177.238 52.732Z" fill="#353535"/>
<path d="M204.049 71.6628L202.563 70.107C202.807 69.8305 203.014 69.504 203.183 69.1273C203.361 68.7534 203.444 68.3263 203.433 67.8461C203.422 67.3658 203.26 66.8293 202.946 66.2367C202.517 65.4253 201.972 64.8482 201.312 64.5052C200.66 64.1649 200.05 64.1455 199.48 64.4469C198.974 64.7148 198.671 65.1106 198.573 65.6341C198.474 66.1577 198.534 66.8625 198.752 67.7486L199.31 69.9722C199.65 71.3098 199.677 72.426 199.392 73.3208C199.112 74.2125 198.509 74.9034 197.583 75.3936C196.823 75.7955 196.029 75.9361 195.199 75.8155C194.372 75.7006 193.581 75.346 192.824 74.7519C192.068 74.1578 191.417 73.3457 190.872 72.3157C190.157 70.9635 189.858 69.689 189.976 68.4923C190.094 67.2957 190.655 66.281 191.658 65.4483L193.164 67.1259C192.548 67.6876 192.197 68.3189 192.111 69.0198C192.029 69.7264 192.208 70.4969 192.65 71.3313C193.152 72.2807 193.752 72.9279 194.45 73.273C195.157 73.6207 195.795 73.6438 196.365 73.3424C196.825 73.0988 197.126 72.7337 197.266 72.2471C197.412 71.7574 197.386 71.1377 197.188 70.388L196.537 67.9044C196.182 66.5381 196.156 65.4102 196.459 64.5209C196.771 63.6342 197.384 62.9488 198.299 62.4647C199.047 62.0689 199.82 61.9288 200.617 62.0444C201.418 62.1657 202.176 62.505 202.89 63.0623C203.608 63.6252 204.213 64.3728 204.707 65.305C205.401 66.6169 205.658 67.7992 205.479 68.8517C205.302 69.9099 204.826 70.847 204.049 71.6628Z" fill="#353535"/>
<path d="M196.54 85.5948C196.25 84.6894 196.159 83.8133 196.264 82.9664C196.376 82.1175 196.688 81.372 197.2 80.73C197.719 80.0859 198.443 79.6154 199.374 79.3183C200.192 79.0569 200.907 79.0062 201.519 79.1663C202.136 79.3244 202.677 79.6266 203.141 80.0731C203.605 80.5195 204.012 81.0455 204.362 81.6511C204.721 82.2609 205.05 82.8838 205.349 83.5196C205.738 84.3522 206.046 85.0293 206.274 85.551C206.511 86.0769 206.74 86.4411 206.961 86.6436C207.185 86.8523 207.474 86.9002 207.827 86.7874L207.902 86.7636C208.82 86.4705 209.453 85.9916 209.801 85.3268C210.151 84.6683 210.164 83.8336 209.842 82.8228C209.507 81.7748 209.015 81.0264 208.366 80.5776C207.717 80.1288 207.093 79.8667 206.495 79.7912L206.574 77.4698C207.561 77.5646 208.395 77.8449 209.077 78.3105C209.767 78.7804 210.326 79.3537 210.754 80.0302C211.19 80.711 211.523 81.4111 211.753 82.1305C211.899 82.5894 212.012 83.1343 212.09 83.7653C212.177 84.4005 212.142 85.0507 211.985 85.7157C211.831 86.387 211.475 87.0166 210.918 87.6046C210.361 88.1926 209.515 88.6678 208.38 89.0302L198.966 92.0366L198.265 89.8413L200.2 89.2234L200.164 89.1117C199.806 89.0619 199.395 88.9198 198.931 88.6854C198.467 88.451 198.018 88.0851 197.586 87.5876C197.154 87.0901 196.805 86.4258 196.54 85.5948ZM198.619 85.2999C198.896 86.1681 199.3 86.8454 199.831 87.3318C200.365 87.8244 200.949 88.1365 201.586 88.2681C202.225 88.4059 202.841 88.3797 203.437 88.1895L205.446 87.5479C205.305 87.4905 205.137 87.3185 204.943 87.032C204.757 86.7496 204.565 86.4147 204.366 86.0272C204.175 85.6439 203.994 85.2679 203.821 84.8993C203.657 84.5348 203.522 84.2398 203.415 84.014C203.159 83.4672 202.868 82.9725 202.542 82.5299C202.224 82.0915 201.852 81.7728 201.427 81.5739C201.009 81.3792 200.521 81.371 199.963 81.5493C199.2 81.7929 198.714 82.2592 198.503 82.9483C198.301 83.6416 198.339 84.4255 198.619 85.2999Z" fill="#353535"/>
<path d="M219.894 95.3619L200.21 98.8956L199.803 96.6274L219.487 93.0936L219.894 95.3619Z" fill="#353535"/>
<path d="M201.021 109.767C200.965 108.414 201.237 107.213 201.838 106.165C202.44 105.124 203.308 104.293 204.442 103.672C205.576 103.058 206.917 102.718 208.465 102.653C210.026 102.588 211.4 102.814 212.588 103.332C213.776 103.855 214.714 104.611 215.4 105.599C216.087 106.593 216.458 107.767 216.515 109.12C216.571 110.473 216.299 111.67 215.697 112.711C215.096 113.759 214.225 114.591 213.084 115.205C211.944 115.826 210.593 116.169 209.032 116.235C207.484 116.299 206.119 116.07 204.937 115.546C203.756 115.028 202.822 114.272 202.135 113.278C201.449 112.29 201.078 111.12 201.021 109.767ZM203.09 109.68C203.133 110.708 203.431 111.543 203.986 112.184C204.54 112.826 205.254 113.288 206.126 113.57C206.997 113.853 207.934 113.974 208.936 113.932C209.938 113.89 210.864 113.692 211.716 113.337C212.568 112.982 213.246 112.462 213.752 111.776C214.258 111.09 214.489 110.234 214.446 109.206C214.403 108.178 214.101 107.344 213.54 106.703C212.979 106.062 212.259 105.6 211.381 105.317C210.503 105.035 209.563 104.914 208.561 104.956C207.559 104.998 206.636 105.196 205.791 105.551C204.945 105.905 204.273 106.425 203.774 107.111C203.275 107.796 203.047 108.653 203.09 109.68Z" fill="#353535"/>
<path d="M209.884 124.619L200.963 123.263L201.31 120.985L216.138 123.239L215.804 125.44L213.487 125.088L213.457 125.281C214.158 125.743 214.682 126.362 215.032 127.14C215.388 127.918 215.48 128.867 215.31 129.987C215.157 130.991 214.818 131.838 214.292 132.529C213.772 133.22 213.065 133.712 212.171 134.004C211.284 134.297 210.209 134.348 208.948 134.156L199.525 132.724L199.872 130.446L209.139 131.854C210.304 132.031 211.258 131.867 212 131.361C212.748 130.855 213.203 130.075 213.363 129.02C213.474 128.292 213.415 127.618 213.187 126.998C212.957 126.383 212.565 125.866 212.01 125.446C211.455 125.026 210.746 124.75 209.884 124.619Z" fill="#353535"/>
<path d="M201.068 156.932L199.101 156.068L202.619 148.057L204.586 148.921L201.068 156.932Z" fill="#353535"/>
<path d="M185.611 164.347L201.173 176.907L199.726 178.7L193.981 174.064L193.859 174.216C193.955 174.511 194.066 174.902 194.192 175.389C194.319 175.884 194.329 176.453 194.221 177.094C194.115 177.744 193.755 178.449 193.142 179.209C192.349 180.192 191.404 180.86 190.307 181.213C189.211 181.566 188.042 181.589 186.801 181.282C185.56 180.974 184.326 180.326 183.1 179.337C181.864 178.339 180.962 177.264 180.395 176.112C179.833 174.964 179.604 173.817 179.708 172.671C179.818 171.53 180.265 170.473 181.05 169.501C181.655 168.751 182.264 168.251 182.876 168C183.493 167.754 184.059 167.638 184.575 167.652C185.095 167.67 185.515 167.7 185.834 167.74L186.006 167.527L184.212 166.08L185.611 164.347ZM190.024 170.82C189.142 170.109 188.261 169.61 187.378 169.325C186.501 169.043 185.672 168.998 184.891 169.188C184.116 169.381 183.438 169.838 182.857 170.557C182.252 171.307 181.945 172.092 181.935 172.913C181.927 173.742 182.157 174.556 182.626 175.353C183.097 176.159 183.747 176.897 184.578 177.568C185.399 178.23 186.241 178.7 187.104 178.979C187.968 179.266 188.797 179.312 189.59 179.116C190.385 178.929 191.089 178.456 191.703 177.696C192.291 176.966 192.601 176.204 192.632 175.409C192.668 174.618 192.459 173.831 192.005 173.046C191.555 172.265 190.895 171.523 190.024 170.82Z" fill="#353535"/>
<path d="M169.385 181.231C170.491 180.301 171.651 179.743 172.863 179.557C174.075 179.38 175.269 179.55 176.444 180.067C177.618 180.594 178.7 181.445 179.688 182.621C180.677 183.797 181.334 185.014 181.66 186.271C181.985 187.537 181.972 188.747 181.623 189.9C181.273 191.061 180.58 192.078 179.544 192.949C178.946 193.452 178.272 193.849 177.521 194.14C176.77 194.431 175.967 194.553 175.112 194.507C174.261 194.465 173.385 194.198 172.485 193.704C171.585 193.211 170.685 192.428 169.784 191.357L169.156 190.609L178.005 183.169L179.287 184.694L172.232 190.626C172.776 191.274 173.392 191.743 174.078 192.033C174.76 192.328 175.461 192.423 176.181 192.319C176.897 192.219 177.574 191.901 178.211 191.365C178.914 190.774 179.375 190.089 179.595 189.308C179.814 188.537 179.828 187.76 179.637 186.976C179.446 186.193 179.085 185.485 178.553 184.852L177.698 183.835C176.969 182.968 176.202 182.359 175.396 182.008C174.589 181.665 173.785 181.563 172.983 181.702C172.185 181.845 171.43 182.217 170.717 182.816C170.254 183.205 169.89 183.622 169.625 184.066C169.359 184.519 169.2 184.993 169.148 185.487C169.101 185.987 169.17 186.498 169.355 187.023L167.249 187.977C166.942 187.248 166.816 186.487 166.871 185.692C166.93 184.902 167.169 184.124 167.586 183.356C168.008 182.593 168.608 181.885 169.385 181.231Z" fill="#353535"/>
<path d="M163.659 203.796L162.635 202.133L169.254 198.057L170.278 199.72L163.659 203.796ZM170.233 203.968L168.271 205.176L160.775 193.003C160.433 192.449 160.097 192.083 159.765 191.905C159.432 191.735 159.109 191.682 158.795 191.745C158.48 191.817 158.179 191.941 157.89 192.119C157.674 192.252 157.504 192.372 157.379 192.48C157.257 192.593 157.16 192.683 157.087 192.751L155.602 191.234C155.705 191.102 155.86 190.938 156.067 190.742C156.272 190.539 156.557 190.326 156.922 190.1C157.477 189.759 158.093 189.543 158.772 189.454C159.446 189.368 160.107 189.462 160.757 189.734C161.401 190.011 161.952 190.52 162.409 191.263L170.233 203.968Z" fill="#353535"/>
<path d="M153.841 208.654L152.997 206.893L160.005 203.532L160.85 205.293L153.841 208.654ZM160.361 209.513L158.283 210.509L152.101 197.619C151.82 197.032 151.523 196.633 151.212 196.421C150.898 196.218 150.582 196.131 150.265 196.161C149.944 196.199 149.631 196.291 149.325 196.438C149.096 196.548 148.914 196.649 148.779 196.743C148.646 196.843 148.54 196.923 148.46 196.983L147.143 195.319C147.258 195.198 147.429 195.051 147.656 194.877C147.881 194.698 148.186 194.515 148.574 194.329C149.161 194.047 149.797 193.898 150.481 193.88C151.16 193.865 151.808 194.027 152.426 194.366C153.037 194.708 153.532 195.272 153.909 196.059L160.361 209.513Z" fill="#353535"/>
<path d="M138.762 197.799C140.142 197.371 141.427 197.307 142.617 197.606C143.803 197.914 144.837 198.534 145.719 199.467C146.597 200.408 147.263 201.612 147.717 203.08C148.172 204.548 148.305 205.924 148.117 207.209C147.925 208.502 147.444 209.612 146.675 210.539C145.902 211.473 144.868 212.141 143.575 212.542C142.828 212.773 142.053 212.877 141.248 212.854C140.444 212.83 139.656 212.631 138.886 212.257C138.118 211.888 137.414 211.302 136.777 210.497C136.139 209.693 135.613 208.623 135.199 207.286L134.91 206.353L145.954 202.931L146.543 204.834L137.738 207.562C137.989 208.371 138.374 209.042 138.894 209.576C139.407 210.112 140.016 210.472 140.721 210.656C141.419 210.841 142.166 210.811 142.962 210.564C143.839 210.293 144.53 209.84 145.036 209.206C145.537 208.581 145.852 207.87 145.98 207.074C146.108 206.277 146.05 205.485 145.805 204.695L145.412 203.426C145.077 202.344 144.606 201.485 144 200.848C143.389 200.219 142.688 199.813 141.895 199.629C141.104 199.452 140.264 199.501 139.374 199.776C138.796 199.956 138.299 200.198 137.882 200.505C137.462 200.819 137.132 201.194 136.892 201.629C136.654 202.071 136.518 202.57 136.486 203.125L134.174 203.187C134.175 202.396 134.355 201.645 134.714 200.934C135.074 200.229 135.596 199.604 136.279 199.059C136.964 198.52 137.792 198.1 138.762 197.799Z" fill="#353535"/>
<path d="M128.859 200.571L131.012 215.415L128.809 215.734L128.484 213.492L128.329 213.515C128.165 214.288 127.762 214.955 127.119 215.516C126.477 216.076 125.711 216.42 124.822 216.549C124.655 216.574 124.445 216.601 124.193 216.631C123.94 216.661 123.749 216.679 123.618 216.684L123.282 214.365C123.362 214.373 123.543 214.377 123.826 214.375C124.103 214.381 124.393 214.362 124.696 214.318C125.417 214.213 126.04 213.968 126.563 213.583C127.08 213.206 127.465 212.729 127.717 212.153C127.963 211.584 128.038 210.965 127.941 210.295L126.578 200.902L128.859 200.571Z" fill="#353535"/>
<path d="M98.1631 212.623L100.279 212.233C100.376 212.588 100.536 212.94 100.759 213.288C100.974 213.641 101.286 213.945 101.694 214.199C102.101 214.453 102.639 214.611 103.307 214.673C104.221 214.759 105.002 214.619 105.651 214.255C106.292 213.897 106.643 213.397 106.703 212.755C106.756 212.184 106.591 211.715 106.207 211.345C105.823 210.976 105.201 210.64 104.34 210.337L102.174 209.585C100.869 209.136 99.9207 208.547 99.3285 207.818C98.7356 207.096 98.488 206.213 98.5856 205.17C98.6656 204.314 98.9835 203.572 99.5391 202.944C100.088 202.316 100.819 201.848 101.73 201.541C102.641 201.234 103.677 201.134 104.837 201.243C106.361 201.385 107.59 201.834 108.527 202.588C109.463 203.343 110.005 204.368 110.152 205.663L107.923 206.004C107.791 205.18 107.455 204.541 106.916 204.085C106.37 203.629 105.627 203.357 104.687 203.269C103.618 203.169 102.747 203.316 102.076 203.711C101.398 204.112 101.029 204.633 100.969 205.275C100.92 205.793 101.061 206.245 101.391 206.629C101.721 207.019 102.254 207.337 102.989 207.582L105.424 208.398C106.761 208.85 107.719 209.447 108.297 210.187C108.868 210.934 109.105 211.822 109.009 212.853C108.93 213.695 108.623 214.419 108.09 215.023C107.549 215.626 106.85 216.074 105.993 216.366C105.128 216.658 104.171 216.755 103.121 216.657C101.643 216.519 100.513 216.086 99.7315 215.359C98.943 214.631 98.4202 213.719 98.1631 212.623Z" fill="#353535"/>
<path d="M85.1414 213.197L85.5959 211.297L93.1555 213.106L92.701 215.005L85.1414 213.197ZM89.6616 217.973L87.4203 217.437L90.7467 203.533C90.8982 202.9 90.92 202.403 90.8122 202.043C90.6964 201.687 90.5058 201.42 90.2403 201.243C89.967 201.071 89.6657 200.945 89.3365 200.866C89.0896 200.807 88.8839 200.771 88.7196 200.759C88.5537 200.753 88.4211 200.748 88.3216 200.744L88.3474 198.621C88.513 198.601 88.7387 198.595 89.0246 198.603C89.312 198.605 89.6646 198.655 90.0825 198.755C90.7156 198.907 91.3035 199.192 91.8462 199.609C92.3825 200.025 92.7835 200.56 93.0491 201.212C93.3083 201.863 93.3364 202.613 93.1335 203.462L89.6616 217.973Z" fill="#353535"/>
<path d="M85.9362 191.884C86.2984 192.031 86.6091 192.191 86.8684 192.366C87.1301 192.535 87.3043 192.669 87.391 192.767L86.0868 194.431C85.6214 194.088 85.1822 193.854 84.7692 193.73C84.3562 193.605 83.9311 193.64 83.494 193.836C83.0533 194.023 82.5605 194.417 82.0156 195.018L81.1782 195.944L80.6717 212.001L78.354 211.064L78.9934 198.431L78.8486 198.373L70.5316 207.903L68.2138 206.966L80.5561 193.417C81.1119 192.806 81.6811 192.345 82.2637 192.033C82.8487 191.714 83.4471 191.545 84.0589 191.526C84.6646 191.504 85.2904 191.623 85.9362 191.884Z" fill="#353535"/>
<path d="M58.6708 207.336L68.5384 189.941L70.5429 191.078L60.6753 208.473L58.6708 207.336Z" fill="#353535"/>
<path d="M64.6093 187.511L56.2105 199.938L54.3011 198.647L62.6999 186.22L64.6093 187.511ZM53.8399 201.353C54.212 201.604 54.4473 201.948 54.5456 202.384C54.6386 202.816 54.5648 203.21 54.3242 203.566C54.0836 203.922 53.7455 204.137 53.3099 204.212C52.8689 204.283 52.4623 204.193 52.0901 203.942C51.7179 203.69 51.4854 203.348 51.3924 202.916C51.2941 202.48 51.3652 202.084 51.6058 201.728C51.8464 201.373 52.1872 201.159 52.6282 201.088C53.0638 201.013 53.4677 201.101 53.8399 201.353Z" fill="#353535"/>
<path d="M43.0672 185.241L45.011 186.163C44.8817 186.508 44.8055 186.887 44.7822 187.299C44.7498 187.712 44.8245 188.141 45.0064 188.585C45.1883 189.03 45.5316 189.473 46.0362 189.915C46.727 190.519 47.442 190.863 48.1812 190.948C48.9112 191.033 49.4884 190.833 49.9128 190.348C50.29 189.917 50.4311 189.439 50.3362 188.915C50.2413 188.391 49.9335 187.754 49.413 187.004L48.0975 185.127C47.3026 183.999 46.8785 182.966 46.8252 182.028C46.7676 181.096 47.0839 180.235 47.7741 179.446C48.3399 178.799 49.0319 178.384 49.8501 178.2C50.6634 178.012 51.5293 178.061 52.448 178.345C53.3666 178.63 54.2644 179.156 55.1414 179.924C56.2927 180.931 57.027 182.015 57.3442 183.175C57.6615 184.334 57.5004 185.482 56.8611 186.618L54.8548 185.59C55.2296 184.845 55.3319 184.13 55.1616 183.445C54.9865 182.755 54.5437 182.099 53.8333 181.478C53.0249 180.771 52.233 180.38 51.4577 180.308C50.6732 180.235 50.0688 180.442 49.6444 180.927C49.3014 181.319 49.1514 181.767 49.1943 182.272C49.2329 182.781 49.4785 183.351 49.931 183.98L51.4266 186.067C52.246 187.217 52.6732 188.261 52.7081 189.2C52.7338 190.139 52.4059 190.998 51.7243 191.777C51.167 192.414 50.4952 192.821 49.7089 192.998C48.9176 193.171 48.0887 193.125 47.2222 192.86C46.3507 192.59 45.5181 192.108 44.7244 191.414C43.6074 190.436 42.9447 189.424 42.7365 188.377C42.5234 187.325 42.6336 186.28 43.0672 185.241Z" fill="#353535"/>
<path d="M32.1957 178.144L33.6693 176.863L38.7702 182.728L37.2966 184.009L32.1957 178.144ZM33.0984 184.658L31.5861 182.919L42.3731 173.538C42.8643 173.11 43.1708 172.719 43.2925 172.363C43.405 172.006 43.4048 171.678 43.2918 171.38C43.1696 171.08 42.9974 170.803 42.7753 170.548C42.6086 170.356 42.4621 170.208 42.3357 170.102C42.2043 170 42.0992 169.919 42.0204 169.858L43.2749 168.146C43.4216 168.226 43.6089 168.352 43.8368 168.524C44.0697 168.693 44.327 168.939 44.609 169.264C45.0362 169.755 45.3493 170.328 45.5482 170.983C45.7428 171.634 45.7586 172.301 45.5954 172.987C45.428 173.667 45.0152 174.294 44.357 174.866L33.0984 184.658Z" fill="#353535"/>
<path d="M26.271 163.654L27.8945 165.066C27.677 165.364 27.5015 165.708 27.3681 166.099C27.2256 166.487 27.1821 166.92 27.2375 167.397C27.2929 167.875 27.5041 168.394 27.8711 168.955C28.3736 169.723 28.9694 170.247 29.6584 170.528C30.3385 170.807 30.9482 170.769 31.4876 170.417C31.9671 170.103 32.2317 169.681 32.2815 169.151C32.3313 168.62 32.2065 167.924 31.9071 167.062L31.146 164.899C30.6844 163.599 30.5542 162.49 30.7554 161.573C30.9512 160.659 31.4877 159.915 32.3649 159.341C33.084 158.871 33.8623 158.658 34.6998 158.701C35.5336 158.739 36.3545 159.019 37.1625 159.541C37.9704 160.062 38.6933 160.811 39.3312 161.786C40.1686 163.066 40.5838 164.308 40.5769 165.51C40.5699 166.713 40.1056 167.775 39.1838 168.697L37.5289 167.165C38.0904 166.549 38.3815 165.888 38.4022 165.182C38.4192 164.471 38.1694 163.721 37.6527 162.931C37.0648 162.032 36.4073 161.443 35.6803 161.164C34.9442 160.883 34.3065 160.919 33.7672 161.271C33.3313 161.556 33.066 161.948 32.9714 162.445C32.8713 162.946 32.9544 163.561 33.2206 164.289L34.0987 166.702C34.5781 168.03 34.7082 169.15 34.4889 170.064C34.2607 170.976 33.7134 171.715 32.8471 172.281C32.1389 172.744 31.3823 172.955 30.5773 172.914C29.7688 172.867 28.983 172.599 28.2199 172.111C27.4533 171.616 26.7813 170.928 26.204 170.045C25.3916 168.803 25.0261 167.65 25.1077 166.585C25.1857 165.515 25.5735 164.538 26.271 163.654Z" fill="#353535"/>
<path d="M18.7708 140.921L20.8052 140.231L23.6168 148.516L21.5825 149.206L18.7708 140.921Z" fill="#353535"/>
<path d="M25.1816 125.04L5.22056 126.267L5.07911 123.967L12.4475 123.514L12.4356 123.319C12.1653 123.166 11.8195 122.952 11.3983 122.678C10.9701 122.398 10.5795 121.985 10.2263 121.439C9.86628 120.887 9.65629 120.124 9.59636 119.149C9.51884 117.889 9.76566 116.758 10.3368 115.758C10.908 114.758 11.7552 113.952 12.8787 113.342C14.0021 112.731 15.3501 112.378 16.9225 112.281C18.508 112.184 19.8988 112.369 21.0951 112.836C22.2848 113.305 23.2275 113.997 23.923 114.913C24.612 115.829 24.9949 116.911 25.0716 118.159C25.1307 119.12 25.0189 119.9 24.736 120.498C24.4467 121.096 24.1069 121.564 23.7168 121.901C23.3201 122.239 22.9905 122.5 22.728 122.686L22.7448 122.959L25.045 122.817L25.1816 125.04ZM17.5572 123.239C18.6878 123.169 19.675 122.942 20.5188 122.558C21.3561 122.173 21.9989 121.648 22.4471 120.981C22.8887 120.315 23.0812 119.52 23.0245 118.598C22.9653 117.636 22.6626 116.849 22.1162 116.237C21.5629 115.619 20.8442 115.174 19.96 114.902C19.0689 114.624 18.0906 114.518 17.025 114.584C15.9723 114.648 15.0336 114.869 14.2089 115.246C13.3773 115.617 12.7345 116.142 12.2807 116.822C11.8199 117.496 11.6195 118.321 11.6794 119.295C11.737 120.231 12.0225 121.003 12.536 121.61C13.043 122.218 13.7288 122.659 14.5935 122.932C15.4517 123.205 16.4396 123.307 17.5572 123.239Z" fill="#353535"/>
<path d="M25.7783 101.466C25.588 102.899 25.1077 104.093 24.3373 105.048C23.5612 105.995 22.5648 106.674 21.348 107.084C20.1256 107.486 18.7529 107.586 17.2299 107.384C15.7069 107.182 14.4015 106.726 13.3136 106.017C12.2201 105.3 11.4139 104.398 10.895 103.311C10.3705 102.217 10.1973 100.999 10.3756 99.6568C10.4785 98.8824 10.7091 98.1348 11.0676 97.4141C11.426 96.6933 11.9367 96.0618 12.5998 95.5194C13.2565 94.9761 14.0835 94.5836 15.081 94.3418C16.0785 94.0999 17.271 94.0712 18.6585 94.2555L19.6265 94.384L18.1041 105.845L16.1294 105.583L17.3432 96.4449C16.5042 96.3335 15.7334 96.4019 15.0306 96.65C14.3286 96.8917 13.7465 97.2938 13.2844 97.8563C12.823 98.4123 12.5375 99.1034 12.4278 99.9294C12.3069 100.839 12.4282 101.657 12.7917 102.381C13.1495 103.099 13.663 103.682 14.3322 104.132C15.0014 104.583 15.7458 104.862 16.5653 104.971L17.8818 105.146C19.0047 105.295 19.9823 105.228 20.8146 104.944C21.6412 104.653 22.3042 104.187 22.8033 103.544C23.296 102.9 23.6036 102.117 23.7262 101.194C23.8059 100.594 23.794 100.04 23.6905 99.534C23.5814 99.0204 23.3794 98.5634 23.0845 98.1631C22.7832 97.7618 22.3873 97.4302 21.8967 97.168L22.8094 95.0432C23.5271 95.375 24.1335 95.8528 24.6285 96.4768C25.1171 97.0999 25.4659 97.8358 25.675 98.6845C25.8776 99.5323 25.9121 100.46 25.7783 101.466Z" fill="#353535"/>
<path d="M14.8102 80.9398L16.687 81.48L14.5373 88.9497L12.6605 88.4096L14.8102 80.9398ZM9.83365 85.2387L10.471 83.024L24.2094 86.9777C24.835 87.1578 25.3303 87.2021 25.6953 87.1107C26.0559 87.0112 26.3308 86.8329 26.5199 86.5757C26.7046 86.3105 26.8438 86.0152 26.9374 85.6899C27.0077 85.4459 27.0528 85.2421 27.0727 85.0785C27.0865 84.9131 27.0975 84.7808 27.1057 84.6816L29.2248 84.8037C29.2379 84.97 29.2338 85.1958 29.2127 85.481C29.1979 85.768 29.131 86.118 29.0122 86.5309C28.8322 87.1565 28.5212 87.7309 28.0794 88.2541C27.6393 88.771 27.0873 89.1473 26.4233 89.383C25.7612 89.6124 25.0109 89.6065 24.1726 89.3652L9.83365 85.2387Z" fill="#353535"/>
<path d="M18.7935 70.7634L20.6034 71.4973L17.6826 78.7006L15.8727 77.9667L18.7935 70.7634ZM13.3938 74.517L14.2598 72.3813L27.5081 77.7532C28.1114 77.9978 28.5993 78.0938 28.9719 78.0412C29.3409 77.9801 29.633 77.8315 29.848 77.5956C30.0595 77.3512 30.2289 77.0721 30.3561 76.7584C30.4515 76.5231 30.5177 76.3252 30.5547 76.1646C30.5857 76.0015 30.6105 75.8711 30.6291 75.7732L32.7237 76.1168C32.7193 76.2836 32.6916 76.5077 32.6408 76.7891C32.5959 77.073 32.4927 77.414 32.3313 77.8122C32.0867 78.4155 31.7172 78.9541 31.223 79.4281C30.7312 79.8961 30.1428 80.2124 29.4578 80.3772C28.7752 80.536 28.0297 80.4515 27.2213 80.1237L13.3938 74.517Z" fill="#353535"/>
<path d="M37.2681 68.6084C36.535 69.8539 35.6277 70.7665 34.5463 71.3462C33.4625 71.9169 32.2805 72.1541 31.0002 72.0577C29.7175 71.9525 28.4142 71.5102 27.0901 70.7309C25.7661 69.9516 24.7411 69.0235 24.0152 67.9466C23.287 66.8608 22.8955 65.7164 22.8407 64.5133C22.7836 63.3012 23.0984 62.1117 23.7853 60.9448C24.1815 60.2715 24.685 59.6727 25.2958 59.1484C25.9065 58.6241 26.6229 58.2412 27.4448 57.9998C28.2612 57.7551 29.1758 57.7155 30.1887 57.8812C31.2017 58.0468 32.3113 58.4846 33.5175 59.1945L34.3591 59.6898L28.4945 69.6539L26.7778 68.6434L31.4535 60.6991C30.7242 60.2698 29.9875 60.0327 29.2436 59.9876C28.5029 59.9369 27.8102 60.0807 27.1655 60.4188C26.5241 60.7514 25.992 61.2767 25.5694 61.9948C25.1038 62.7859 24.8973 63.5859 24.9499 64.395C25.0002 65.1951 25.2459 65.9327 25.687 66.6078C26.1282 67.2829 26.705 67.8301 27.4175 68.2495L28.562 68.9231C29.5383 69.4977 30.4648 69.8164 31.3418 69.8794C32.2165 69.9334 33.0089 69.7614 33.719 69.3635C34.4234 68.9624 35.0118 68.3606 35.484 67.5583C35.7911 67.0366 35.9955 66.5224 36.0973 66.0157C36.1968 65.5002 36.1886 65.0006 36.0729 64.517C35.9516 64.0302 35.716 63.5705 35.3662 63.138L37.0342 61.5362C37.5661 62.1213 37.9386 62.7975 38.1516 63.565C38.359 64.3291 38.3938 65.1428 38.256 66.0059C38.1125 66.8657 37.7832 67.7332 37.2681 68.6084Z" fill="#353535"/>
<path d="M42.7223 59.8918L31.1269 50.3777L32.5391 48.6565L34.2905 50.0935L34.3896 49.9727C33.9893 49.2906 33.8376 48.5261 33.9346 47.6794C34.0315 46.8326 34.3648 46.0619 34.9347 45.3674C35.0421 45.2365 35.1788 45.0751 35.3449 44.8829C35.511 44.6908 35.6403 44.5485 35.733 44.4561L37.5448 45.9427C37.4801 45.9907 37.3439 46.1105 37.1361 46.3021C36.9275 46.4846 36.7261 46.6941 36.532 46.9306C36.0695 47.4943 35.7749 48.0946 35.648 48.7316C35.5202 49.3594 35.5574 49.9709 35.7595 50.5662C35.9607 51.1523 36.323 51.6601 36.8464 52.0896L44.1841 58.1102L42.7223 59.8918Z" fill="#353535"/>
<path d="M52.16 37.4055L57.5263 44.6591L55.6737 46.0297L43.7795 29.9524L45.6321 28.5818L49.9995 34.4852L50.1565 34.369C49.9784 33.5372 50.0364 32.729 50.3306 31.9445C50.6262 31.1509 51.2476 30.4037 52.1948 29.7029C53.0165 29.095 53.8581 28.7275 54.7195 28.6003C55.5771 28.4679 56.4258 28.6134 57.2654 29.0369C58.1064 29.4512 58.9102 30.1765 59.6768 31.2128L65.3452 38.8746L63.4925 40.2452L57.9171 32.709C57.2086 31.7513 56.4121 31.1946 55.5277 31.0391C54.6447 30.8745 53.7662 31.1154 52.8923 31.762C52.2852 32.2112 51.8357 32.7421 51.544 33.3547C51.2575 33.9635 51.1575 34.6164 51.2441 35.3136C51.3359 36.0069 51.6412 36.7042 52.16 37.4055Z" fill="#353535"/>
<path d="M73.7018 34.7558C72.846 35.1692 71.9914 35.3832 71.1381 35.3978C70.2819 35.4065 69.5 35.2022 68.7924 34.7849C68.0819 34.3618 67.5143 33.7106 67.0895 32.8313C66.7157 32.0575 66.5651 31.3567 66.6378 30.7288C66.7075 30.095 66.9309 29.5171 67.3078 28.9953C67.6847 28.4734 68.1483 27.9964 68.6987 27.5643C69.2521 27.1234 69.8226 26.7105 70.4101 26.3254C71.1798 25.8234 71.8069 25.4229 72.2914 25.1238C72.779 24.816 73.1074 24.538 73.2767 24.2899C73.452 24.039 73.4589 23.7465 73.2974 23.4124L73.2635 23.342C72.8444 22.4745 72.2813 21.915 71.5743 21.6637C70.8732 21.4096 70.0448 21.5133 69.0894 21.9749C68.0987 22.4534 67.4268 23.0455 67.0736 23.7511C66.7204 24.4568 66.5484 25.111 66.5577 25.7138L64.2483 25.9619C64.2035 24.9713 64.3638 24.1058 64.7291 23.3654C65.0975 22.6163 65.5866 21.9824 66.1963 21.4637C66.8091 20.9364 67.4555 20.5084 68.1355 20.1799C68.5693 19.9704 69.093 19.7825 69.7068 19.6161C70.3235 19.4411 70.9721 19.3844 71.6526 19.4461C72.3389 19.505 73.0123 19.7689 73.6727 20.238C74.333 20.707 74.9223 21.4779 75.4405 22.5506L79.739 31.449L77.6639 32.4514L76.7804 30.6225L76.6749 30.6735C76.6758 31.0345 76.5928 31.4614 76.426 31.9541C76.2591 32.4468 75.9598 32.9421 75.5279 33.4399C75.096 33.9377 74.4873 34.3763 73.7018 34.7558ZM73.1179 32.7388C73.9385 32.3424 74.5524 31.847 74.9594 31.2528C75.3722 30.6557 75.5991 30.0328 75.64 29.384C75.6867 28.7325 75.5741 28.1253 75.3023 27.5626L74.3848 25.6633C74.3479 25.8113 74.2011 26.0015 73.9447 26.2338C73.6912 26.4575 73.3866 26.695 73.0309 26.9464C72.6782 27.1891 72.3314 27.4216 71.9907 27.6441C71.6529 27.8578 71.3797 28.0332 71.1711 28.1701C70.6658 28.501 70.2169 28.8588 69.8244 29.2436C69.435 29.6197 69.1716 30.0325 69.0345 30.4819C68.9004 30.9227 68.9607 31.4068 69.2156 31.9344C69.5639 32.6554 70.094 33.0717 70.8058 33.1833C71.5206 33.2862 72.2913 33.1381 73.1179 32.7388Z" fill="#353535"/>
<path d="M84.1266 29.9887L79.4221 15.7465L81.6104 15.0237L86.3148 29.2659L84.1266 29.9887ZM79.7507 13.0053C79.3242 13.1462 78.9084 13.1224 78.5034 12.9339C78.1045 12.7435 77.8377 12.4442 77.7029 12.0363C77.5682 11.6283 77.6043 11.229 77.8112 10.8384C78.0243 10.4458 78.3441 10.179 78.7706 10.0381C79.1972 9.89726 79.6099 9.92206 80.0087 10.1125C80.4138 10.301 80.6837 10.5992 80.8184 11.0072C80.9532 11.4151 80.914 11.8154 80.7009 12.2081C80.494 12.5986 80.1773 12.8644 79.7507 13.0053Z" fill="#353535"/>
<path d="M90.8762 27.907L87.6393 13.2614L89.8132 12.7809L90.3021 14.993L90.4547 14.9592C90.5615 14.1756 90.9147 13.4808 91.5141 12.875C92.1136 12.2691 92.8519 11.8692 93.7292 11.6753C93.8944 11.6388 94.1017 11.5963 94.351 11.5479C94.6003 11.4995 94.79 11.4676 94.9199 11.4522L95.4257 13.7405C95.3452 13.7383 95.1641 13.7484 94.8823 13.7706C94.6055 13.7852 94.3177 13.8254 94.019 13.8915C93.307 14.0488 92.7044 14.3387 92.211 14.7611C91.7226 15.1757 91.3739 15.6795 91.165 16.2724C90.9609 16.8575 90.932 17.4806 91.0781 18.1417L93.1265 27.4096L90.8762 27.907Z" fill="#353535"/>
</svg>
