<svg width="220" height="204" viewBox="0 0 220 204" fill="none" xmlns="http://www.w3.org/2000/svg">
<path d="M15.6431 71.8891L19.7221 80.3076L17.5719 81.3494L8.53104 62.6901L10.6812 61.6483L14.0009 68.4998L14.1831 68.4115C14.1609 67.5298 14.3748 66.7174 14.8248 65.9744C15.2779 65.2223 16.0541 64.58 17.1535 64.0473C18.1071 63.5852 19.035 63.3719 19.9371 63.4073C20.8363 63.4366 21.6732 63.7474 22.4476 64.3397C23.2252 64.9229 23.9053 65.8158 24.4881 67.0185L28.7966 75.9108L26.6464 76.9526L22.4085 68.2061C21.8699 67.0945 21.165 66.3749 20.2937 66.047C19.4255 65.7102 18.4842 65.7875 17.4698 66.279C16.7653 66.6204 16.2057 67.0753 15.7911 67.6436C15.3825 68.2091 15.1556 68.8553 15.1104 69.5822C15.0712 70.3062 15.2487 71.0751 15.6431 71.8891Z" fill="white"/>
<path d="M40.3001 72.5386C39.3405 72.7625 38.4274 72.785 37.5609 72.6061C36.6928 72.4206 35.9482 72.0364 35.3271 71.4537C34.7044 70.8643 34.278 70.0767 34.0479 69.0908C33.8454 68.2232 33.8521 67.48 34.0681 66.8613C34.2826 66.236 34.6397 65.7021 35.1394 65.2598C35.6391 64.8174 36.2164 64.4401 36.8713 64.1278C37.5312 63.8075 38.202 63.5192 38.8838 63.2631C39.7764 62.93 40.5017 62.6671 41.0597 62.4745C41.6228 62.2738 42.0181 62.0672 42.2458 61.8547C42.48 61.6406 42.5533 61.3462 42.4659 60.9716L42.4475 60.8927C42.2205 59.9199 41.7779 59.2262 41.1197 58.8115C40.4681 58.3952 39.6066 58.3121 38.5352 58.5622C37.4244 58.8214 36.6103 59.2679 36.0928 59.9015C35.5754 60.5352 35.2529 61.158 35.1254 61.7699L32.7329 61.4966C32.9125 60.4844 33.2711 59.6452 33.8087 58.9792C34.3514 58.305 34.99 57.7747 35.7246 57.3884C36.4643 56.994 37.2153 56.7078 37.9777 56.5299C38.4641 56.4164 39.0366 56.3451 39.6952 56.3162C40.3588 56.2791 41.0279 56.369 41.7022 56.5859C42.3832 56.8012 43.0045 57.2211 43.566 57.8455C44.1276 58.4699 44.5488 59.3835 44.8295 60.5863L47.1581 70.5637L44.8314 71.1068L44.3527 69.0561L44.2344 69.0837C44.1534 69.4491 43.9726 69.8621 43.6919 70.3227C43.4113 70.7832 42.996 71.2163 42.4461 71.6219C41.8962 72.0274 41.1809 72.333 40.3001 72.5386ZM40.1672 70.3656C41.0874 70.1508 41.8208 69.7891 42.3674 69.2803C42.9206 68.77 43.2915 68.1914 43.4801 67.5444C43.6753 66.8958 43.6993 66.2561 43.552 65.6251L43.055 63.4955C42.984 63.6368 42.7924 63.7959 42.4802 63.9727C42.173 64.1415 41.811 64.3126 41.3941 64.4861C40.9822 64.6516 40.5786 64.8081 40.1834 64.9558C39.7932 65.0954 39.477 65.2108 39.2349 65.3019C38.6486 65.5219 38.1133 65.782 37.6289 66.0822C37.1495 66.3743 36.7895 66.7321 36.5487 67.1556C36.313 67.571 36.2642 68.0745 36.4022 68.6661C36.5909 69.4745 37.0326 70.016 37.7274 70.2905C38.4272 70.5569 39.2405 70.5819 40.1672 70.3656Z" fill="white"/>
<path d="M54.2676 69.7007L53.238 54.1843L55.622 54.0261L56.6517 69.5425L54.2676 69.7007ZM54.2786 51.5177C53.8139 51.5486 53.4027 51.4169 53.045 51.1227C52.694 50.8281 52.5037 50.4585 52.4742 50.0141C52.4447 49.5696 52.5845 49.1781 52.8935 48.8397C53.2092 48.5008 53.5994 48.316 54.0641 48.2851C54.5288 48.2543 54.9366 48.3862 55.2876 48.6808C55.6453 48.975 55.839 49.3443 55.8685 49.7888C55.898 50.2333 55.7548 50.625 55.4391 50.9638C55.1301 51.3023 54.7433 51.4869 54.2786 51.5177Z" fill="white"/>
<path d="M63.8981 69.255L64.9015 53.7368L67.205 53.8858L67.0534 56.2297L67.2151 56.2401C67.5476 55.4906 68.0998 54.9007 68.8716 54.4704C69.6434 54.0401 70.494 53.855 71.4235 53.9151C71.5986 53.9264 71.8173 53.9439 72.0795 53.9676C72.3418 53.9913 72.5398 54.0143 72.6737 54.0365L72.5169 56.4612C72.4374 56.4358 72.2541 56.3935 71.9671 56.3343C71.6873 56.2689 71.3891 56.2259 71.0725 56.2055C70.3181 56.1567 69.6344 56.2714 69.0212 56.5497C68.4152 56.8216 67.9226 57.2226 67.5434 57.7527C67.1713 58.2765 66.9627 58.8886 66.9174 59.5891L66.2824 69.4092L63.8981 69.255Z" fill="white"/>
<path d="M102.565 65.4882L100.343 65.2922C100.344 64.9099 100.282 64.5142 100.156 64.1051C100.039 63.6922 99.8114 63.3024 99.4743 62.9357C99.1373 62.5691 98.6439 62.2621 97.9942 62.0147C97.1048 61.6761 96.2856 61.5989 95.5366 61.7832C94.7963 61.9636 94.3072 62.366 94.0695 62.9904C93.8582 63.5455 93.8931 64.0607 94.1743 64.5361C94.4555 65.0115 94.9842 65.5197 95.7604 66.0608L97.7159 67.412C98.8953 68.222 99.6798 69.0732 100.07 69.9655C100.462 70.8514 100.464 71.8021 100.078 72.8177C99.7607 73.6503 99.2377 74.3033 98.5085 74.7768C97.7857 75.2527 96.9265 75.5178 95.9308 75.5721C94.9352 75.6263 93.8729 75.4385 92.7438 75.0087C91.2615 74.4443 90.1571 73.6555 89.4307 72.6423C88.7042 71.6291 88.447 70.4551 88.6591 69.1203L90.9802 69.3974C90.8843 70.2564 91.0426 70.9883 91.4551 71.5931C91.8739 72.2003 92.5406 72.678 93.4552 73.0262C94.496 73.4225 95.4063 73.5163 96.1863 73.3077C96.9749 73.0952 97.4881 72.6767 97.7259 72.0523C97.918 71.5477 97.9023 71.0578 97.6787 70.5827C97.4576 70.1013 97.0136 69.6361 96.3467 69.1873L94.1407 67.6974C92.9299 66.8753 92.1383 66.0142 91.766 65.1142C91.4024 64.2102 91.4115 63.2568 91.7933 62.2538C92.1055 61.4338 92.6119 60.7961 93.3125 60.3406C94.0195 59.8876 94.8419 59.6338 95.7799 59.5792C96.7241 59.5271 97.7072 59.6955 98.729 60.0846C100.167 60.6321 101.176 61.3774 101.756 62.3203C102.342 63.2657 102.612 64.3216 102.565 65.4882Z" fill="white"/>
<path d="M108.358 82.5359C107.53 82.0006 106.88 81.3589 106.408 80.611C105.939 79.8573 105.698 79.0547 105.686 78.203C105.678 77.3457 105.949 76.492 106.499 75.642C106.983 74.894 107.523 74.383 108.118 74.109C108.717 73.8293 109.349 73.7158 110.015 73.7684C110.68 73.8211 111.352 73.9747 112.032 74.2294C112.72 74.482 113.394 74.7648 114.051 75.0778C114.911 75.4891 115.603 75.8287 116.129 76.0967C116.665 76.3627 117.088 76.5038 117.399 76.5202C117.715 76.5401 117.978 76.3886 118.187 76.0656L118.231 75.9976C118.774 75.159 118.966 74.3588 118.808 73.5972C118.655 72.8392 118.117 72.1614 117.193 71.5637C116.235 70.9441 115.349 70.668 114.534 70.7353C113.718 70.8027 113.046 71.0029 112.517 71.3359L111.053 69.424C111.906 68.8506 112.759 68.5263 113.612 68.4509C114.474 68.3735 115.299 68.4652 116.087 68.7258C116.884 68.9844 117.612 69.3264 118.269 69.7517C118.688 70.023 119.137 70.3857 119.615 70.8397C120.102 71.2916 120.502 71.8356 120.814 72.4716C121.132 73.1112 121.261 73.8499 121.201 74.6876C121.142 75.5252 120.776 76.4625 120.105 77.4996L114.54 86.1016L112.534 84.8037L113.678 83.0357L113.576 82.9697C113.256 83.165 112.833 83.3215 112.307 83.4392C111.781 83.5569 111.181 83.5586 110.507 83.4443C109.833 83.33 109.117 83.0272 108.358 82.5359ZM109.83 80.9318C110.623 81.4451 111.392 81.722 112.138 81.7623C112.889 81.8062 113.563 81.6715 114.16 81.3582C114.762 81.0485 115.239 80.6217 115.591 80.0777L116.779 78.2417C116.628 78.2887 116.381 78.2612 116.037 78.1592C115.702 78.0552 115.328 77.9134 114.913 77.7337C114.508 77.5521 114.116 77.3703 113.735 77.1883C113.364 77.0043 113.061 76.8568 112.827 76.7458C112.262 76.4765 111.703 76.2717 111.151 76.1314C110.608 75.9891 110.1 75.9782 109.628 76.0989C109.166 76.2176 108.769 76.5319 108.439 77.0419C107.988 77.739 107.905 78.4328 108.19 79.1234C108.484 79.8121 109.031 80.4149 109.83 80.9318Z" fill="white"/>
<path d="M135.798 76.8712L121.856 92.2186L120.088 90.6121L134.029 75.2647L135.798 76.8712Z" fill="white"/>
<path d="M130.98 102.363C130.115 101.258 129.618 100.082 129.491 98.836C129.368 97.5951 129.596 96.3704 130.175 95.162C130.759 93.9589 131.683 92.8621 132.948 91.8716C134.223 90.8728 135.517 90.232 136.83 89.9493C138.148 89.6719 139.394 89.7417 140.569 90.1585C141.749 90.5807 142.771 91.3444 143.637 92.4496C144.503 93.5548 144.997 94.7279 145.12 95.9688C145.248 97.2151 145.017 98.4418 144.428 99.6491C143.843 100.862 142.913 101.967 141.638 102.966C140.373 103.957 139.085 104.589 137.773 104.862C136.465 105.14 135.221 105.069 134.042 104.646C132.866 104.229 131.846 103.468 130.98 102.363ZM132.67 101.04C133.328 101.879 134.084 102.401 134.939 102.606C135.794 102.811 136.674 102.769 137.579 102.48C138.484 102.191 139.346 101.726 140.164 101.085C140.983 100.444 141.643 99.7169 142.146 98.903C142.649 98.0891 142.906 97.2405 142.917 96.3573C142.928 95.474 142.605 94.6126 141.947 93.7731C141.29 92.9336 140.531 92.4135 139.671 92.2128C138.811 92.012 137.925 92.0583 137.014 92.3514C136.104 92.6446 135.239 93.1117 134.421 93.7526C133.603 94.3935 132.945 95.1188 132.448 95.9286C131.95 96.7383 131.698 97.5827 131.693 98.4618C131.687 99.3409 132.012 100.2 132.67 101.04Z" fill="white"/>
<path d="M148.891 111.807L140.417 115.771L139.405 113.606L153.491 107.018L154.469 109.109L152.268 110.138L152.354 110.321C153.223 110.317 154.033 110.549 154.781 111.019C155.536 111.486 156.162 112.251 156.66 113.315C157.106 114.268 157.301 115.194 157.244 116.093C157.193 116.988 156.867 117.819 156.264 118.585C155.667 119.349 154.77 120.011 153.571 120.571L144.621 124.758L143.609 122.593L152.412 118.475C153.519 117.958 154.247 117.267 154.595 116.404C154.95 115.537 154.893 114.603 154.424 113.6C154.101 112.909 153.662 112.362 153.108 111.958C152.557 111.56 151.921 111.34 151.201 111.297C150.48 111.254 149.71 111.424 148.891 111.807Z" fill="white"/>
<path d="M149.855 142.698L170.515 140.943L170.717 143.324L163.091 143.972L163.108 144.173C163.392 144.325 163.756 144.538 164.199 144.812C164.649 145.092 165.064 145.511 165.444 146.068C165.83 146.631 166.066 147.417 166.152 148.426C166.263 149.731 166.034 150.909 165.467 151.959C164.899 153.01 164.04 153.865 162.89 154.525C161.741 155.185 160.352 155.584 158.725 155.723C157.084 155.862 155.638 155.704 154.386 155.248C153.142 154.791 152.148 154.097 151.405 153.164C150.669 152.231 150.246 151.119 150.136 149.828C150.051 148.832 150.149 148.021 150.427 147.395C150.713 146.768 151.053 146.275 151.45 145.916C151.853 145.557 152.188 145.277 152.456 145.079L152.432 144.796L150.051 144.998L149.855 142.698ZM157.802 144.38C156.631 144.48 155.614 144.739 154.748 145.158C153.89 145.577 153.236 146.137 152.788 146.839C152.346 147.54 152.166 148.368 152.247 149.323C152.332 150.318 152.665 151.127 153.246 151.748C153.834 152.375 154.59 152.819 155.513 153.079C156.443 153.346 157.46 153.432 158.563 153.338C159.652 153.246 160.62 152.994 161.466 152.584C162.319 152.179 162.972 151.619 163.426 150.903C163.887 150.193 164.075 149.334 163.989 148.325C163.907 147.357 163.592 146.564 163.046 145.947C162.505 145.329 161.784 144.889 160.881 144.627C159.985 144.364 158.958 144.282 157.802 144.38Z" fill="white"/>
<path d="M155.816 173.526L164.913 174.848L164.569 177.213L149.18 174.975L149.524 172.611L152.129 172.99L152.152 172.829C151.423 172.355 150.84 171.697 150.403 170.856C149.973 170.016 149.842 169.015 150.011 167.853C150.151 166.891 150.486 166.067 151.015 165.38C151.551 164.694 152.278 164.199 153.195 163.896C154.119 163.594 155.235 163.538 156.544 163.728L166.323 165.15L165.979 167.515L156.361 166.116C155.239 165.953 154.298 166.137 153.539 166.668C152.779 167.205 152.327 167.965 152.185 168.946C152.099 169.534 152.162 170.154 152.375 170.805C152.586 171.464 152.972 172.045 153.533 172.549C154.093 173.06 154.854 173.386 155.816 173.526Z" fill="white"/>
<path d="M154.863 197.061L155.048 194.838C155.43 194.837 155.825 194.773 156.234 194.644C156.646 194.525 157.035 194.296 157.4 193.957C157.765 193.618 158.069 193.123 158.313 192.472C158.647 191.581 158.72 190.761 158.531 190.013C158.347 189.274 157.942 188.787 157.317 188.552C156.76 188.344 156.245 188.382 155.771 188.665C155.298 188.949 154.792 189.481 154.255 190.26L152.914 192.222C152.11 193.406 151.263 194.195 150.373 194.589C149.489 194.986 148.539 194.994 147.521 194.612C146.687 194.3 146.031 193.78 145.554 193.053C145.074 192.333 144.804 191.475 144.745 190.48C144.685 189.485 144.868 188.421 145.292 187.29C145.848 185.805 146.631 184.696 147.64 183.964C148.65 183.233 149.822 182.969 151.158 183.174L150.893 185.497C150.034 185.405 149.303 185.568 148.7 185.983C148.095 186.405 147.621 187.074 147.278 187.991C146.887 189.034 146.798 189.945 147.011 190.723C147.227 191.511 147.648 192.022 148.274 192.256C148.78 192.446 149.269 192.428 149.743 192.202C150.224 191.978 150.686 191.531 151.132 190.862L152.61 188.648C153.426 187.433 154.283 186.637 155.181 186.26C156.083 185.892 157.036 185.896 158.041 186.272C158.863 186.58 159.503 187.083 159.962 187.782C160.419 188.486 160.677 189.307 160.737 190.245C160.794 191.189 160.631 192.173 160.247 193.197C159.707 194.638 158.967 195.651 158.027 196.235C157.085 196.827 156.03 197.102 154.863 197.061Z" fill="white"/>
<path d="M140.509 198.976L154.044 206.633L152.867 208.713L139.333 201.055L140.509 198.976ZM155.702 208.967C155.931 208.561 156.267 208.29 156.709 208.152C157.148 208.021 157.561 208.065 157.949 208.284C158.337 208.503 158.587 208.835 158.7 209.279C158.81 209.729 158.751 210.157 158.521 210.562C158.292 210.967 157.958 211.236 157.519 211.367C157.077 211.505 156.662 211.464 156.274 211.245C155.886 211.025 155.637 210.691 155.527 210.241C155.414 209.797 155.472 209.372 155.702 208.967Z" fill="white"/>
<path d="M-2.48964 97.8289L-13.4078 86.7558L-11.7642 85.1351L-10.1151 86.8076L-9.99972 86.6939C-10.3381 85.947 -10.4112 85.1422 -10.219 84.2798C-10.0267 83.4173 -9.59902 82.659 -8.93579 82.0051C-8.81083 81.8819 -8.65227 81.7303 -8.46009 81.5503C-8.26792 81.3702 -8.11903 81.2377 -8.01343 81.1525L-6.30746 82.8827C-6.37935 82.9251 -6.53285 83.0338 -6.76794 83.2087C-7.00296 83.3741 -7.23342 83.5682 -7.4593 83.7909C-7.99758 84.3217 -8.36682 84.9085 -8.56703 85.5514C-8.76717 86.1847 -8.79551 86.8193 -8.65203 87.4551C-8.50849 88.0813 -8.19031 88.6443 -7.69747 89.1442L-0.788302 96.1514L-2.48964 97.8289Z" fill="white"/>
</svg>
