<svg width="191" height="169" viewBox="0 0 191 169" fill="none" xmlns="http://www.w3.org/2000/svg">
<path d="M119.986 16.3384L118.933 25.6336L116.559 25.3646L118.894 4.7623L121.268 5.03132L120.41 12.5962L120.612 12.619C121.064 11.862 121.679 11.2898 122.457 10.9024C123.242 10.5091 124.241 10.3812 125.455 10.5187C126.508 10.6381 127.406 10.9538 128.15 11.466C128.894 11.9715 129.435 12.6815 129.773 13.596C130.118 14.5046 130.216 15.6228 130.065 16.9507L128.953 26.769L126.578 26.4999L127.673 16.8426C127.812 15.6153 127.601 14.6303 127.04 13.8874C126.486 13.1386 125.649 12.7008 124.529 12.5739C123.751 12.4857 123.035 12.571 122.381 12.8297C121.733 13.0892 121.196 13.514 120.769 14.1041C120.349 14.695 120.088 15.4398 119.986 16.3384Z" fill="white"/>
<path d="M140.477 30.069C139.546 29.7453 138.763 29.2762 138.126 28.6617C137.492 28.0409 137.068 27.3182 136.854 26.4936C136.643 25.6627 136.704 24.7691 137.036 23.8129C137.329 22.9714 137.732 22.347 138.245 21.9395C138.761 21.5257 139.348 21.2655 140.007 21.1588C140.666 21.052 141.355 21.0418 142.076 21.128C142.805 21.21 143.526 21.3251 144.239 21.4731C145.171 21.6687 145.925 21.8343 146.499 21.9699C147.082 22.1013 147.527 22.138 147.833 22.08C148.145 22.0243 148.365 21.8148 148.491 21.4514L148.518 21.3749C148.846 20.4315 148.843 19.6086 148.508 18.9062C148.18 18.2061 147.496 17.6754 146.457 17.3139C145.38 16.9392 144.453 16.8813 143.677 17.1401C142.901 17.399 142.296 17.753 141.861 18.202L139.985 16.692C140.678 15.9325 141.429 15.4151 142.24 15.1396C143.059 14.8599 143.882 14.7532 144.709 14.8195C145.545 14.8815 146.333 15.0412 147.073 15.2984C147.544 15.4625 148.066 15.7083 148.638 16.0359C149.219 16.3594 149.736 16.793 150.19 17.3368C150.651 17.8828 150.951 18.5698 151.092 19.3977C151.233 20.2255 151.1 21.2228 150.695 22.3894L147.329 32.0663L145.072 31.2813L145.764 29.2924L145.649 29.2525C145.385 29.518 145.012 29.7704 144.528 30.0096C144.045 30.2488 143.462 30.3928 142.781 30.4415C142.099 30.4903 141.331 30.3662 140.477 30.069ZM141.526 28.1616C142.419 28.472 143.232 28.5583 143.966 28.4206C144.706 28.2851 145.329 27.9943 145.834 27.5484C146.346 27.1046 146.708 26.5768 146.921 25.9648L147.64 23.8994C147.504 23.9808 147.257 24.0129 146.899 23.9954C146.549 23.9738 146.152 23.9249 145.706 23.8486C145.27 23.7683 144.845 23.6848 144.432 23.5984C144.028 23.5077 143.699 23.4362 143.446 23.3838C142.832 23.2563 142.241 23.19 141.671 23.1847C141.11 23.1753 140.614 23.2852 140.184 23.5144C139.763 23.7394 139.453 24.1388 139.253 24.7126C138.98 25.4967 139.064 26.1904 139.505 26.7938C139.954 27.393 140.628 27.8489 141.526 28.1616Z" fill="white"/>
<path d="M153.799 35.1374L161.223 21.4738L163.323 22.6146L155.898 36.2782L153.799 35.1374ZM163.528 19.7766C163.119 19.5543 162.842 19.2231 162.697 18.7833C162.558 18.3467 162.595 17.9326 162.807 17.5412C163.02 17.1498 163.347 16.8937 163.789 16.7729C164.237 16.6553 164.666 16.7077 165.075 16.93C165.484 17.1524 165.759 17.4819 165.898 17.9185C166.043 18.3584 166.009 18.774 165.796 19.1654C165.584 19.5568 165.253 19.8113 164.805 19.9289C164.363 20.0497 163.938 19.999 163.528 19.7766Z" fill="white"/>
<path d="M162.176 39.9076L171.32 27.3294L173.187 28.6867L171.806 30.5866L171.937 30.6818C172.619 30.2261 173.401 30.0228 174.283 30.0717C175.165 30.1207 175.983 30.419 176.736 30.9667C176.878 31.0699 177.054 31.2016 177.263 31.3618C177.472 31.522 177.627 31.6473 177.728 31.7376L176.299 33.7029C176.246 33.6389 176.113 33.5052 175.903 33.3018C175.701 33.0969 175.472 32.9012 175.215 32.7147C174.604 32.2702 173.965 32.0016 173.298 31.909C172.64 31.8148 172.01 31.8904 171.406 32.1356C170.811 32.3794 170.308 32.7852 169.895 33.3529L164.109 41.3126L162.176 39.9076Z" fill="white"/>
<path d="M196.868 57.3956L195.095 56.0422C195.3 55.7197 195.459 55.3519 195.571 54.9389C195.693 54.5272 195.709 54.0764 195.62 53.5863C195.531 53.0963 195.279 52.5731 194.862 52.0167C194.291 51.2551 193.64 50.7519 192.909 50.5072C192.187 50.2639 191.558 50.3426 191.023 50.7432C190.548 51.0993 190.302 51.5534 190.286 52.1055C190.269 52.6576 190.444 53.3698 190.811 54.242L191.741 56.4292C192.305 57.7443 192.513 58.883 192.365 59.8454C192.223 60.8038 191.717 61.6087 190.847 62.2603C190.134 62.7945 189.343 63.0667 188.474 63.0771C187.609 63.0929 186.741 62.8575 185.87 62.3711C185 61.8848 184.203 61.1581 183.478 60.1912C182.527 58.9219 182.016 57.6649 181.943 56.4203C181.871 55.1756 182.281 54.046 183.174 53.0313L184.988 54.5063C184.447 55.181 184.19 55.8841 184.215 56.6158C184.244 57.3528 184.552 58.113 185.139 58.8962C185.807 59.7874 186.526 60.3534 187.297 60.5941C188.077 60.8361 188.734 60.7568 189.269 60.3561C189.701 60.0324 189.95 59.61 190.015 59.089C190.085 58.5639 189.959 57.9335 189.635 57.1976L188.567 54.7592C187.983 53.4171 187.775 52.2662 187.941 51.3066C188.117 50.3482 188.635 49.5473 189.494 48.9039C190.196 48.3778 190.965 48.1096 191.8 48.0992C192.64 48.0942 193.471 48.3194 194.292 48.7747C195.118 49.2354 195.859 49.9033 196.515 50.7784C197.437 52.0099 197.892 53.1791 197.878 54.286C197.868 55.3983 197.531 56.4349 196.868 57.3956Z" fill="white"/>
<path d="M192.649 74.8985C192.236 74.0038 192.03 73.1141 192.031 72.2292C192.037 71.3416 192.263 70.5348 192.708 69.8088C193.16 69.08 193.845 68.5034 194.764 68.079C195.573 67.7056 196.303 67.5622 196.952 67.6489C197.608 67.7328 198.203 67.9748 198.737 68.3749C199.271 68.7751 199.757 69.2644 200.195 69.8427C200.642 70.4244 201.06 71.0233 201.448 71.6393C201.955 72.4463 202.358 73.1037 202.66 73.6113C202.97 74.1223 203.252 74.4678 203.506 74.6478C203.763 74.834 204.066 74.8465 204.416 74.6852L204.489 74.6513C205.396 74.2326 205.986 73.6591 206.259 72.9308C206.536 72.2085 206.443 71.348 205.982 70.3492C205.504 69.3136 204.902 68.6063 204.177 68.2273C203.452 67.8484 202.777 67.6583 202.152 67.6569L201.937 65.2585C202.965 65.2301 203.859 65.412 204.62 65.8041C205.39 66.1995 206.038 66.718 206.564 67.3595C207.1 68.0043 207.532 68.6822 207.86 69.393C208.069 69.8465 208.255 70.3928 208.416 71.032C208.586 71.6745 208.633 72.3479 208.557 73.0522C208.483 73.7626 208.198 74.4558 207.699 75.1318C207.201 75.8078 206.391 76.4047 205.27 76.9224L195.968 81.2168L194.966 79.0475L196.878 78.1649L196.827 78.0546C196.453 78.0489 196.012 77.9552 195.504 77.7733C194.997 77.5914 194.489 77.272 193.98 76.8153C193.472 76.3586 193.029 75.7196 192.649 74.8985ZM194.751 74.3298C195.147 75.1877 195.649 75.833 196.258 76.2657C196.869 76.7045 197.511 76.951 198.183 77.0051C198.857 77.0654 199.489 76.9597 200.077 76.6881L202.062 75.7716C201.91 75.7306 201.715 75.575 201.479 75.3049C201.252 75.0381 201.011 74.7181 200.757 74.3448C200.512 73.9747 200.277 73.6111 200.053 73.2538C199.837 72.8998 199.66 72.6134 199.522 72.3947C199.188 71.8649 198.826 71.3931 198.434 70.9792C198.051 70.5687 197.628 70.2882 197.165 70.1379C196.71 69.9908 196.207 70.0446 195.656 70.2992C194.902 70.6472 194.461 71.1891 194.332 71.925C194.212 72.6641 194.352 73.4657 194.751 74.3298Z" fill="white"/>
<path d="M195.558 147.926L213.956 157.487L212.854 159.607L206.063 156.078L205.969 156.258C206.128 156.538 206.321 156.912 206.549 157.381C206.78 157.858 206.907 158.434 206.93 159.107C206.956 159.79 206.735 160.581 206.268 161.479C205.664 162.641 204.842 163.514 203.8 164.098C202.759 164.683 201.576 164.947 200.251 164.89C198.927 164.833 197.54 164.428 196.091 163.675C194.629 162.915 193.492 162.009 192.678 160.954C191.87 159.903 191.402 158.785 191.272 157.6C191.149 156.417 191.386 155.251 191.984 154.101C192.444 153.215 192.96 152.582 193.53 152.201C194.107 151.824 194.658 151.589 195.185 151.498C195.718 151.41 196.15 151.353 196.483 151.328L196.613 151.076L194.493 149.975L195.558 147.926ZM201.374 153.596C200.332 153.054 199.333 152.729 198.378 152.621C197.429 152.516 196.577 152.64 195.823 152.993C195.075 153.35 194.48 153.953 194.038 154.804C193.577 155.69 193.426 156.551 193.585 157.387C193.747 158.231 194.148 159.011 194.789 159.724C195.433 160.446 196.246 161.063 197.228 161.573C198.199 162.077 199.151 162.382 200.085 162.487C201.022 162.602 201.874 162.478 202.64 162.115C203.409 161.762 204.027 161.136 204.494 160.238C204.943 159.375 205.1 158.537 204.968 157.723C204.842 156.912 204.468 156.154 203.845 155.45C203.228 154.749 202.404 154.131 201.374 153.596Z" fill="white"/>
<path d="M184.115 177.165L191.095 183.146L189.541 184.961L177.732 174.843L179.286 173.029L181.285 174.741L181.391 174.618C181.028 173.828 180.887 172.96 180.967 172.016C181.053 171.076 181.478 170.16 182.242 169.268C182.874 168.53 183.597 168.012 184.412 167.715C185.232 167.422 186.111 167.392 187.048 167.627C187.99 167.865 188.963 168.415 189.968 169.275L197.472 175.704L195.917 177.519L188.536 171.195C187.675 170.457 186.782 170.11 185.857 170.152C184.927 170.2 184.139 170.601 183.494 171.354C183.107 171.805 182.83 172.363 182.661 173.027C182.487 173.696 182.503 174.394 182.707 175.12C182.907 175.851 183.376 176.533 184.115 177.165Z" fill="white"/>
<path d="M42.3909 165.721L29.3838 174.244L28.1187 172.313L30.0833 171.026L29.9945 170.89C29.1956 171.075 28.3923 170.988 27.5845 170.63C26.7768 170.271 26.1177 169.703 25.6072 168.924C25.5111 168.777 25.3937 168.592 25.255 168.368C25.1164 168.144 25.0158 167.972 24.9531 167.851L26.9854 166.52C27.0129 166.599 27.0892 166.77 27.2144 167.035C27.3302 167.298 27.4751 167.563 27.649 167.828C28.0632 168.46 28.5658 168.938 29.1567 169.261C29.7382 169.582 30.3547 169.735 31.0063 169.719C31.6486 169.702 32.2632 169.501 32.8504 169.116L41.0814 163.723L42.3909 165.721Z" fill="white"/>
<path d="M14.1354 142.738L16.0622 142.116L18.5384 149.785L16.6116 150.407L14.1354 142.738ZM12.3444 149.316L11.6103 147.043L25.7149 142.489C26.3572 142.281 26.8089 142.033 27.0699 141.743C27.3224 141.448 27.4555 141.136 27.4693 140.805C27.4746 140.47 27.4233 140.135 27.3155 139.801C27.2346 139.551 27.1554 139.35 27.0778 139.197C26.9939 139.047 26.9267 138.927 26.8763 138.837L28.7695 137.715C28.8771 137.85 29.0044 138.047 29.1513 138.304C29.3047 138.56 29.4499 138.899 29.5868 139.323C29.7941 139.966 29.8593 140.64 29.7822 141.345C29.703 142.045 29.4462 142.688 29.0116 143.275C28.575 143.856 27.9263 144.285 27.0657 144.563L12.3444 149.316Z" fill="white"/>
<path d="M17.7701 131.529L27.0459 130.317L27.3555 132.686L6.79615 135.373L6.48655 133.003L14.0357 132.017L14.0094 131.816C13.1658 131.559 12.4625 131.099 11.8996 130.438C11.3291 129.77 10.9647 128.831 10.8064 127.62C10.6691 126.569 10.7597 125.621 11.0781 124.776C11.3898 123.933 11.9489 123.237 12.7554 122.689C13.5543 122.135 14.6164 121.772 15.9415 121.599L25.7393 120.318L26.0489 122.687L16.4117 123.947C15.187 124.107 14.2815 124.548 13.6954 125.272C13.1016 125.989 12.8778 126.907 13.0238 128.024C13.1253 128.801 13.3802 129.475 13.7886 130.048C14.1961 130.614 14.7376 131.034 15.413 131.306C16.0876 131.572 16.8733 131.646 17.7701 131.529Z" fill="white"/>
<path d="M26.2999 106.195C26.1588 107.687 25.7078 108.943 24.947 109.962C24.1801 110.974 23.1743 111.716 21.9297 112.188C20.679 112.653 19.2607 112.811 17.6749 112.661C16.0892 112.511 14.7189 112.089 13.564 111.397C12.4031 110.698 11.5326 109.795 10.9524 108.689C10.3662 107.576 10.1392 106.321 10.2714 104.923C10.3477 104.117 10.5574 103.333 10.9005 102.573C11.2436 101.812 11.7481 101.137 12.4138 100.55C13.0729 99.9611 13.9144 99.5221 14.9384 99.2325C15.9624 98.9429 17.1967 98.8665 18.6414 99.0031L19.6493 99.0985L18.5205 111.032L16.4644 110.838L17.3643 101.323C16.4908 101.24 15.6948 101.341 14.9764 101.626C14.2586 101.904 13.6713 102.343 13.2145 102.944C12.7583 103.538 12.4895 104.265 12.4082 105.125C12.3185 106.073 12.4762 106.915 12.8811 107.651C13.2799 108.381 13.8347 108.965 14.5456 109.405C15.2565 109.845 16.0387 110.106 16.892 110.187L18.2628 110.316C19.432 110.427 20.4421 110.319 21.2933 109.993C22.1384 109.659 22.807 109.149 23.2989 108.464C23.7842 107.778 24.0722 106.954 24.1631 105.993C24.2222 105.368 24.1883 104.795 24.0612 104.275C23.9281 103.747 23.701 103.282 23.3798 102.878C23.0519 102.474 22.6287 102.146 22.1102 101.894L22.9726 99.6569C23.7292 99.9725 24.3761 100.444 24.9134 101.071C25.444 101.697 25.8342 102.446 26.084 103.317C26.3271 104.188 26.399 105.147 26.2999 106.195Z" fill="white"/>
<path d="M31.0461 82.5142L12.3347 73.5817L13.364 71.4255L20.2711 74.7229L20.3584 74.5401C20.1903 74.2655 19.9844 73.8979 19.7405 73.4374C19.4934 72.968 19.3471 72.397 19.3017 71.7247C19.253 71.0433 19.4467 70.2458 19.8829 69.3321C20.447 68.1505 21.2396 67.2499 22.2608 66.6305C23.2819 66.0111 24.4553 65.7074 25.7808 65.7194C27.1063 65.7315 28.5061 66.0893 29.9801 66.793C31.4663 67.5025 32.6339 68.3702 33.4828 69.3962C34.3256 70.4194 34.8318 71.5211 35.0013 72.7014C35.1647 73.8788 34.9672 75.0523 34.409 76.2217C33.9786 77.1232 33.4848 77.7737 32.9276 78.1733C32.3643 78.57 31.8209 78.823 31.2976 78.9322C30.7682 79.0384 30.3378 79.1097 30.0064 79.1459L29.8843 79.4018L32.0405 80.4311L31.0461 82.5142ZM25.0412 77.0449C26.101 77.5508 27.1101 77.8418 28.0685 77.9179C29.0208 77.9911 29.8678 77.8383 30.6096 77.4594C31.3453 77.0777 31.9196 76.4543 32.3325 75.5894C32.7628 74.688 32.8844 73.8223 32.6971 72.9925C32.5067 72.1537 32.0792 71.3887 31.4144 70.6974C30.7466 69.9972 29.9131 69.4086 28.9142 68.9317C27.9275 68.4607 26.9655 68.1884 26.0283 68.115C25.0879 68.0325 24.2409 68.1853 23.4872 68.5735C22.7304 68.9526 22.1338 69.5989 21.6977 70.5126C21.279 71.3897 21.1495 72.2328 21.3091 73.042C21.4627 73.8483 21.8628 74.5927 22.5092 75.2752C23.1495 75.9548 23.9935 76.5447 25.0412 77.0449Z" fill="white"/>
<path d="M44.6672 59.6384C43.7326 60.8096 42.6679 61.6136 41.4731 62.0504C40.2773 62.4777 39.0293 62.5483 37.7293 62.2621C36.4282 61.9664 35.1551 61.3219 33.9101 60.3283C32.6651 59.3348 31.7488 58.2323 31.1612 57.0209C30.5726 55.7999 30.3381 54.568 30.4578 53.3251C30.5765 52.0727 31.0736 50.8978 31.9492 49.8005C32.4544 49.1674 33.0588 48.6265 33.7624 48.1776C34.4659 47.7288 35.2572 47.4406 36.1361 47.313C37.0098 47.1812 37.9544 47.2744 38.9699 47.5925C39.9853 47.9107 41.0602 48.5223 42.1944 49.4274L42.9858 50.0589L35.5091 59.4283L33.8948 58.1401L39.8559 50.6699C39.1701 50.1226 38.4486 49.7714 37.6916 49.6164C36.9388 49.456 36.2068 49.5022 35.4956 49.755C34.7886 50.0026 34.1657 50.464 33.6269 51.1392C33.0333 51.8831 32.7043 52.674 32.64 53.5121C32.5746 54.3407 32.7189 55.1337 33.073 55.8912C33.427 56.6486 33.9391 57.2947 34.6091 57.8293L35.6853 58.6881C36.6032 59.4206 37.5077 59.8833 38.3986 60.0762C39.2885 60.2595 40.1269 60.199 40.9139 59.8944C41.6957 59.5857 42.3876 59.0541 42.9896 58.2997C43.3811 57.809 43.6661 57.3112 43.8447 56.8061C44.0222 56.2914 44.0869 55.7775 44.0389 55.2642C43.9855 54.7467 43.811 54.2405 43.5152 53.7454L45.4614 52.3453C45.9218 53.0236 46.2053 53.7721 46.3117 54.591C46.4128 55.4057 46.3295 56.2459 46.0618 57.1116C45.7888 57.9732 45.3239 58.8154 44.6672 59.6384Z" fill="white"/>
<path d="M47.9781 33.6126L49.3105 35.1372L43.2424 40.4403L41.91 38.9156L47.9781 33.6126ZM41.2269 34.5647L43.026 32.9924L52.7794 44.1528C53.2235 44.661 53.6303 44.9777 53.9997 45.103C54.3698 45.2188 54.7095 45.2178 55.0188 45.0998C55.3287 44.9724 55.6158 44.7932 55.8801 44.5623C56.0783 44.3891 56.2321 44.2368 56.3413 44.1054C56.4462 43.969 56.5301 43.8598 56.593 43.7779L58.3713 45.0743C58.2893 45.2266 58.159 45.4211 57.9804 45.6578C57.8063 45.8996 57.5515 46.1671 57.2161 46.4602C56.7079 46.9044 56.1144 47.2304 55.4355 47.4382C54.7617 47.6416 54.0693 47.6596 53.3583 47.4922C52.6524 47.3203 52.0018 46.8939 51.4067 46.2129L41.2269 34.5647Z" fill="white"/>
<path d="M59.5195 25.3701L60.6347 27.0602L53.9083 31.4986L52.7931 29.8085L59.5195 25.3701ZM52.7017 25.4052L54.6959 24.0893L62.859 36.4605C63.2307 37.0239 63.5912 37.3925 63.9404 37.5663C64.2916 37.7309 64.6283 37.7755 64.9507 37.7003C65.2749 37.6157 65.5835 37.4768 65.8765 37.2835C66.0962 37.1385 66.269 37.0083 66.395 36.8928C66.5172 36.7717 66.615 36.6749 66.6884 36.6022L68.2761 38.126C68.1743 38.2659 68.0191 38.4411 67.8103 38.6517C67.6052 38.8679 67.3168 39.0986 66.945 39.344C66.3816 39.7157 65.7496 39.9589 65.0489 40.0735C64.3539 40.1844 63.6654 40.109 62.9834 39.8475C62.307 39.5822 61.7197 39.0721 61.2216 38.3172L52.7017 25.4052Z" fill="white"/>
<path d="M78.6415 33.2908C77.2639 33.8801 75.9454 34.0843 74.6862 33.9036C73.4306 33.7139 72.2979 33.1854 71.2882 32.3179C70.282 31.4416 69.4657 30.2712 68.8393 28.8067C68.2128 27.3422 67.9276 25.9373 67.9834 24.5921C68.0429 23.2379 68.4195 22.0418 69.1132 21.0036C69.8106 19.9565 70.8046 19.1569 72.0953 18.6048C72.84 18.2863 73.6284 18.0959 74.4607 18.0335C75.2929 17.9712 76.1263 18.0919 76.9609 18.3955C77.7929 18.693 78.5808 19.2222 79.3248 19.9831C80.0687 20.744 80.726 21.7916 81.2967 23.1257L81.6948 24.0566L70.6738 28.7708L69.8616 26.8719L78.6486 23.1133C78.3035 22.3065 77.8343 21.6557 77.2408 21.1608C76.6536 20.6632 75.9869 20.3574 75.2408 20.2435C74.5009 20.1269 73.7337 20.2384 72.9394 20.5782C72.0645 20.9525 71.4003 21.4935 70.9469 22.2013C70.4971 22.9002 70.2489 23.6671 70.2022 24.5019C70.1555 25.3367 70.3008 26.1481 70.6379 26.9362L71.1794 28.2022C71.6412 29.2819 72.2189 30.1176 72.9124 30.7092C73.6095 31.292 74.3767 31.6355 75.2142 31.7397C76.0489 31.8378 76.91 31.6971 77.7974 31.3175C78.3745 31.0706 78.8613 30.767 79.2577 30.4066C79.6576 30.0373 79.9579 29.6152 80.1585 29.1403C80.3565 28.6592 80.4424 28.1306 80.4162 27.5546L82.7933 27.2425C82.8778 28.0579 82.7731 28.8514 82.4793 29.6231C82.1827 30.3887 81.7116 31.0893 81.066 31.7252C80.4177 32.3549 79.6096 32.8767 78.6415 33.2908Z" fill="white"/>
<path d="M90.7957 28.5664L87.4881 13.3716L89.7436 12.8806L90.2432 15.1757L90.4015 15.1412C90.5148 14.3291 90.8832 13.61 91.5068 12.9838C92.1303 12.3577 92.8971 11.9455 93.8072 11.7474C93.9787 11.7101 94.1937 11.6667 94.4524 11.6174C94.711 11.568 94.9077 11.5355 95.0425 11.52L95.5593 13.8942C95.4758 13.8916 95.288 13.9014 94.9958 13.9236C94.7088 13.9377 94.4103 13.9785 94.1003 14.046C93.3617 14.2067 92.7359 14.5053 92.223 14.9416C91.7153 15.3698 91.3521 15.891 91.1335 16.505C90.92 17.1109 90.8879 17.7569 91.0372 18.4427L93.1303 28.0582L90.7957 28.5664Z" fill="white"/>
</svg>
