<svg width="178" height="155" viewBox="0 0 178 155" fill="none" xmlns="http://www.w3.org/2000/svg">
<path d="M119.718 16.0611L118.664 25.3563L116.29 25.0872L118.625 4.48496L120.999 4.75398L120.142 12.3189L120.343 12.3417C120.795 11.5846 121.41 11.0124 122.188 10.6251C122.973 10.2317 123.972 10.1038 125.186 10.2414C126.239 10.3607 127.137 10.6765 127.881 11.1886C128.625 11.6941 129.166 12.4041 129.504 13.3186C129.849 14.2272 129.947 15.3455 129.796 16.6733L128.684 26.4916L126.31 26.2226L127.404 16.5653C127.543 15.338 127.332 14.3529 126.771 13.6101C126.217 12.8613 125.38 12.4235 124.26 12.2965C123.482 12.2084 122.766 12.2937 122.112 12.5524C121.465 12.8118 120.927 13.2366 120.501 13.8268C120.08 14.4176 119.819 15.1624 119.718 16.0611Z" fill="white"/>
<path d="M140.209 29.7917C139.278 29.468 138.494 28.9989 137.858 28.3844C137.223 27.7635 136.799 27.0408 136.586 26.2163C136.375 25.3853 136.435 24.4918 136.768 23.5355C137.061 22.6941 137.464 22.0696 137.977 21.6622C138.492 21.2484 139.08 20.9881 139.738 20.8814C140.397 20.7747 141.087 20.7644 141.807 20.8506C142.536 20.9327 143.257 21.0477 143.97 21.1957C144.903 21.3914 145.656 21.557 146.231 21.6925C146.814 21.8239 147.258 21.8606 147.564 21.8027C147.877 21.747 148.096 21.5375 148.223 21.1741L148.249 21.0976C148.577 20.1541 148.574 19.3312 148.24 18.6289C147.911 17.9288 147.228 17.398 146.189 17.0366C145.111 16.6619 144.185 16.6039 143.409 16.8628C142.633 17.1217 142.027 17.4756 141.592 17.9246L139.716 16.4146C140.409 15.6552 141.161 15.1377 141.971 14.8622C142.79 14.5826 143.614 14.4759 144.441 14.5421C145.277 14.6042 146.065 14.7638 146.804 15.021C147.276 15.1851 147.798 15.431 148.37 15.7586C148.95 16.082 149.468 16.5157 149.922 17.0595C150.382 17.6055 150.683 18.2924 150.823 19.1203C150.964 19.9482 150.832 20.9454 150.426 22.112L147.06 31.7889L144.803 31.004L145.495 29.0151L145.38 28.9752C145.117 29.2407 144.743 29.493 144.26 29.7322C143.776 29.9714 143.194 30.1154 142.512 30.1642C141.831 30.213 141.063 30.0888 140.209 29.7917ZM141.258 27.8842C142.15 28.1947 142.964 28.281 143.698 28.1433C144.438 28.0077 145.061 27.717 145.566 27.271C146.078 26.8273 146.44 26.2994 146.653 25.6874L147.371 23.622C147.236 23.7035 146.989 23.7355 146.63 23.718C146.28 23.6964 145.883 23.6475 145.438 23.5713C145.001 23.4909 144.577 23.4075 144.164 23.321C143.759 23.2304 143.43 23.1589 143.177 23.1065C142.564 22.979 141.972 22.9126 141.403 22.9073C140.841 22.8979 140.346 23.0078 139.916 23.237C139.495 23.4621 139.184 23.8615 138.985 24.4352C138.712 25.2193 138.796 25.9131 139.236 26.5164C139.685 27.1157 140.359 27.5716 141.258 27.8842Z" fill="white"/>
<path d="M153.53 34.8601L160.955 21.1965L163.055 22.3373L155.63 36.0009L153.53 34.8601ZM163.26 19.4993C162.851 19.2769 162.574 18.9458 162.429 18.5059C162.29 18.0693 162.326 17.6553 162.539 17.2639C162.752 16.8725 163.079 16.6164 163.521 16.4955C163.969 16.3779 164.398 16.4303 164.807 16.6527C165.216 16.875 165.49 17.2045 165.629 17.6412C165.774 18.081 165.741 18.4967 165.528 18.8881C165.315 19.2795 164.985 19.534 164.537 19.6516C164.095 19.7724 163.669 19.7216 163.26 19.4993Z" fill="white"/>
<path d="M161.907 39.6303L171.051 27.0521L172.918 28.4094L171.537 30.3092L171.668 30.4045C172.35 29.9488 173.132 29.7454 174.014 29.7944C174.897 29.8433 175.715 30.1416 176.468 30.6893C176.61 30.7925 176.785 30.9242 176.994 31.0845C177.203 31.2447 177.358 31.37 177.46 31.4603L176.031 33.4256C175.977 33.3616 175.845 33.2279 175.634 33.0245C175.432 32.8196 175.203 32.6239 174.947 32.4373C174.335 31.9928 173.696 31.7243 173.029 31.6316C172.372 31.5375 171.741 31.613 171.137 31.8583C170.543 32.102 170.039 32.5078 169.626 33.0756L163.84 41.0352L161.907 39.6303Z" fill="white"/>
<path d="M13.8668 142.461L15.7937 141.838L18.2699 149.507L16.343 150.13L13.8668 142.461ZM12.0759 149.039L11.3417 146.765L25.4464 142.211C26.0887 142.004 26.5403 141.755 26.8013 141.465C27.0538 141.171 27.187 140.858 27.2007 140.528C27.206 140.193 27.1548 139.858 27.0469 139.524C26.966 139.274 26.8868 139.072 26.8093 138.92C26.7253 138.77 26.6582 138.65 26.6078 138.559L28.5009 137.438C28.6085 137.573 28.7358 137.77 28.8828 138.027C29.0362 138.282 29.1813 138.622 29.3182 139.046C29.5256 139.688 29.5907 140.362 29.5136 141.068C29.4345 141.768 29.1776 142.411 28.7431 142.998C28.3064 143.579 27.6578 144.008 26.7971 144.286L12.0759 149.039Z" fill="white"/>
<path d="M17.5015 131.252L26.7773 130.039L27.0869 132.409L6.5276 135.095L6.218 132.726L13.7671 131.74L13.7409 131.539C12.8973 131.282 12.194 130.822 11.631 130.161C11.0606 129.493 10.6962 128.554 10.5379 127.342C10.4006 126.292 10.4911 125.344 10.8095 124.499C11.1213 123.655 11.6804 122.959 12.4869 122.411C13.2858 121.858 14.3478 121.494 15.6729 121.321L25.4707 120.041L25.7803 122.41L16.1431 123.669C14.9184 123.829 14.013 124.271 13.4268 124.994C12.8331 125.712 12.6092 126.629 12.7553 127.747C12.8567 128.523 13.1116 129.198 13.52 129.771C13.9276 130.337 14.469 130.756 15.1445 131.029C15.8191 131.294 16.6047 131.369 17.5015 131.252Z" fill="white"/>
<path d="M26.0313 105.918C25.8902 107.41 25.4393 108.665 24.6784 109.685C23.9115 110.697 22.9058 111.439 21.6611 111.911C20.4104 112.376 18.9922 112.533 17.4064 112.383C15.8206 112.233 14.4503 111.812 13.2955 111.12C12.1346 110.42 11.264 109.518 10.6839 108.412C10.0977 107.299 9.87064 106.043 10.0028 104.646C10.0791 103.839 10.2888 103.056 10.6319 102.295C10.9751 101.534 11.4795 100.86 12.1453 100.272C12.8043 99.6838 13.6458 99.2447 14.6698 98.9552C15.6938 98.6656 16.9281 98.5891 18.3728 98.7258L19.3807 98.8211L18.2519 110.755L16.1958 110.56L17.0958 101.046C16.2222 100.963 15.4263 101.064 14.7078 101.349C13.99 101.626 13.4027 102.066 12.9459 102.667C12.4897 103.261 12.221 103.988 12.1396 104.848C12.05 105.795 12.2076 106.637 12.6125 107.374C13.0113 108.103 13.5662 108.688 14.2771 109.128C14.988 109.568 15.7701 109.829 16.6235 109.909L17.9942 110.039C19.1634 110.149 20.1736 110.042 21.0248 109.715C21.8699 109.382 22.5384 108.872 23.0304 108.186C23.5156 107.5 23.8037 106.677 23.8946 105.716C23.9537 105.091 23.9197 104.518 23.7927 103.998C23.6595 103.47 23.4324 103.004 23.1112 102.601C22.7833 102.197 22.3601 101.869 21.8417 101.617L22.7041 99.3795C23.4607 99.6951 24.1076 100.166 24.6449 100.794C25.1754 101.42 25.5656 102.169 25.8154 103.04C26.0585 103.91 26.1305 104.87 26.0313 105.918Z" fill="white"/>
<path d="M30.7775 82.2368L12.0661 73.3044L13.0955 71.1482L20.0026 74.4455L20.0898 74.2628C19.9218 73.9881 19.7158 73.6205 19.4719 73.1601C19.2249 72.6906 19.0786 72.1197 19.0331 71.4473C18.9844 70.7659 19.1782 69.9684 19.6143 69.0548C20.1784 67.8731 20.9711 66.9726 21.9922 66.3532C23.0134 65.7338 24.1867 65.4301 25.5123 65.4421C26.8378 65.4541 28.2375 65.812 29.7116 66.5156C31.1977 67.2251 32.3653 68.0929 33.2142 69.1189C34.0571 70.142 34.5633 71.2437 34.7327 72.4241C34.8961 73.6015 34.6987 74.7749 34.1404 75.9444C33.7101 76.8458 33.2163 77.4964 32.659 77.896C32.0957 78.2927 31.5524 78.5456 31.0291 78.6548C30.4997 78.7611 30.0693 78.8323 29.7379 78.8686L29.6157 79.1244L31.7719 80.1537L30.7775 82.2368ZM24.7726 76.7675C25.8324 77.2735 26.8415 77.5645 27.7999 77.6406C28.7522 77.7137 29.5993 77.5609 30.341 77.1821C31.0767 76.8003 31.651 76.177 32.0639 75.3121C32.4943 74.4106 32.6158 73.545 32.4286 72.7152C32.2382 71.8764 31.8106 71.1114 31.1459 70.4201C30.478 69.7198 29.6446 69.1312 28.6457 68.6544C27.6589 68.1833 26.697 67.9111 25.7598 67.8376C24.8194 67.7552 23.9723 67.908 23.2187 68.2961C22.4618 68.6752 21.8653 69.3216 21.4291 70.2352C21.0104 71.1123 20.8809 71.9555 21.0406 72.7646C21.1942 73.5709 21.5942 74.3153 22.2406 74.9979C22.881 75.6775 23.725 76.2674 24.7726 76.7675Z" fill="white"/>
<path d="M44.3986 59.3611C43.4641 60.5322 42.3994 61.3362 41.2046 61.773C40.0087 62.2003 38.7608 62.2709 37.4608 61.9848C36.1597 61.6891 34.8866 61.0445 33.6416 60.051C32.3965 59.0575 31.4802 57.955 30.8927 56.7435C30.304 55.5226 30.0696 54.2906 30.1893 53.0477C30.3079 51.7953 30.805 50.6205 31.6807 49.5232C32.1859 48.8901 32.7902 48.3491 33.4938 47.9003C34.1974 47.4514 34.9886 47.1632 35.8676 47.0357C36.7413 46.9039 37.6858 46.9971 38.7013 47.3152C39.7168 47.6333 40.7916 48.245 41.9259 49.1501L42.7172 49.7816L35.2405 59.151L33.6262 57.8627L39.5873 50.3925C38.9015 49.8453 38.1801 49.4941 37.4231 49.339C36.6703 49.1787 35.9383 49.2249 35.2271 49.4777C34.5201 49.7252 33.8972 50.1866 33.3583 50.8619C32.7647 51.6057 32.4358 52.3967 32.3714 53.2348C32.3061 54.0634 32.4504 54.8564 32.8044 55.6138C33.1585 56.3713 33.6705 57.0173 34.3405 57.552L35.4167 58.4108C36.3347 59.1433 37.2391 59.606 38.13 59.7988C39.0199 59.9822 39.8584 59.9216 40.6454 59.6171C41.4271 59.3083 42.119 58.7767 42.721 58.0223C43.1125 57.5317 43.3976 57.0338 43.5761 56.5287C43.7536 56.0141 43.8184 55.5002 43.7703 54.9869C43.717 54.4694 43.5424 53.9631 43.2467 53.4681L45.1929 52.068C45.6533 52.7462 45.9367 53.4948 46.0431 54.3137C46.1443 55.1284 46.061 55.9686 45.7932 56.8343C45.5202 57.6958 45.0554 58.5381 44.3986 59.3611Z" fill="white"/>
<path d="M47.7095 33.3352L49.0419 34.8599L42.9739 40.1629L41.6414 38.6383L47.7095 33.3352ZM40.9584 34.2873L42.7574 32.7151L52.5108 43.8754C52.9549 44.3836 53.3617 44.7004 53.7312 44.8257C54.1013 44.9415 54.441 44.9404 54.7503 44.8225C55.0602 44.6951 55.3473 44.5159 55.6115 44.2849C55.8098 44.1117 55.9635 43.9594 56.0728 43.8281C56.1776 43.6916 56.2615 43.5825 56.3244 43.5006L58.1027 44.7969C58.0207 44.9493 57.8904 45.1438 57.7119 45.3805C57.5377 45.6223 57.283 45.8898 56.9476 46.1829C56.4393 46.627 55.8458 46.953 55.1669 47.1609C54.4932 47.3643 53.8008 47.3823 53.0897 47.2149C52.3838 47.043 51.7333 46.6166 51.1381 45.9356L40.9584 34.2873Z" fill="white"/>
<path d="M59.251 25.0928L60.3661 26.7829L53.6397 31.2212L52.5246 29.5312L59.251 25.0928ZM52.4331 25.1279L54.4274 23.812L62.5905 36.1832C62.9622 36.7465 63.3227 37.1151 63.6719 37.289C64.023 37.4535 64.3598 37.4982 64.6821 37.423C65.0064 37.3384 65.315 37.1994 65.6079 37.0061C65.8276 36.8612 66.0005 36.731 66.1264 36.6155C66.2487 36.4944 66.3465 36.3975 66.4198 36.3248L68.0075 37.8487C67.9058 37.9886 67.7505 38.1638 67.5417 38.3743C67.3367 38.5905 67.0482 38.8213 66.6764 39.0666C66.1131 39.4383 65.481 39.6815 64.7804 39.7961C64.0854 39.907 63.3968 39.8317 62.7148 39.5701C62.0384 39.3049 61.4512 38.7948 60.953 38.0399L52.4331 25.1279Z" fill="white"/>
<path d="M78.3732 33.0135C76.9956 33.6028 75.6771 33.807 74.4179 33.6262C73.1622 33.4366 72.0296 32.908 71.0199 32.0406C70.0137 31.1643 69.1974 29.9939 68.571 28.5294C67.9445 27.0649 67.6593 25.66 67.7151 24.3147C67.7746 22.9606 68.1512 21.7644 68.8449 20.7262C69.5422 19.6792 70.5363 18.8796 71.827 18.3275C72.5717 18.009 73.3601 17.8185 74.1924 17.7562C75.0246 17.6938 75.858 17.8145 76.6926 18.1182C77.5246 18.4157 78.3125 18.9448 79.0564 19.7058C79.8004 20.4667 80.4577 21.5142 81.0284 22.8484L81.4265 23.7792L70.4055 28.4934L69.5933 26.5945L78.3803 22.8359C78.0352 22.0292 77.566 21.3784 76.9725 20.8834C76.3853 20.3859 75.7186 20.0801 74.9725 19.9661C74.2326 19.8495 73.4654 19.9611 72.6711 20.3008C71.7961 20.6751 71.132 21.2161 70.6786 21.9239C70.2288 22.6229 69.9806 23.3897 69.9339 24.2245C69.8872 25.0593 70.0325 25.8708 70.3696 26.6589L70.9111 27.9248C71.3729 29.0046 71.9506 29.8403 72.6441 30.4319C73.3412 31.0146 74.1084 31.3581 74.9459 31.4624C75.7806 31.5605 76.6417 31.4197 77.5291 31.0401C78.1062 30.7933 78.593 30.4896 78.9894 30.1292C79.3893 29.7599 79.6896 29.3378 79.8902 28.863C80.0882 28.3819 80.1741 27.8533 80.1479 27.2772L82.525 26.9651C82.6095 27.7805 82.5048 28.5741 82.2109 29.3458C81.9144 30.1113 81.4433 30.812 80.7977 31.4479C80.1494 32.0775 79.3412 32.5994 78.3732 33.0135Z" fill="white"/>
<path d="M90.5269 28.289L87.2193 13.0942L89.4748 12.6033L89.9744 14.8983L90.1327 14.8639C90.246 14.0518 90.6144 13.3326 91.238 12.7065C91.8615 12.0803 92.6283 11.6682 93.5384 11.4701C93.7099 11.4328 93.9249 11.3894 94.1836 11.34C94.4422 11.2906 94.6389 11.2582 94.7737 11.2426L95.2905 13.6168C95.207 13.6143 95.0192 13.6241 94.727 13.6462C94.44 13.6604 94.1415 13.7012 93.8315 13.7686C93.0929 13.9294 92.4671 14.2279 91.9542 14.6642C91.4465 15.0925 91.0833 15.6136 90.8647 16.2276C90.6512 16.8336 90.6191 17.4795 90.7684 18.1654L92.8615 27.7808L90.5269 28.289Z" fill="white"/>
</svg>
