<svg width="16" height="16" viewBox="0 0 16 16" fill="none" xmlns="http://www.w3.org/2000/svg">
<path d="M5.20016 1.33331H10.8002C12.9335 1.33331 14.6668 3.06665 14.6668 5.19998V10.8C14.6668 11.8255 14.2594 12.809 13.5343 13.5341C12.8092 14.2593 11.8257 14.6666 10.8002 14.6666H5.20016C3.06683 14.6666 1.3335 12.9333 1.3335 10.8V5.19998C1.3335 4.17448 1.74088 3.19097 2.46602 2.46583C3.19116 1.74069 4.17466 1.33331 5.20016 1.33331ZM5.06683 2.66665C4.43031 2.66665 3.81986 2.9195 3.36977 3.36959C2.91969 3.81968 2.66683 4.43013 2.66683 5.06665V10.9333C2.66683 12.26 3.74016 13.3333 5.06683 13.3333H10.9335C11.57 13.3333 12.1805 13.0805 12.6306 12.6304C13.0806 12.1803 13.3335 11.5698 13.3335 10.9333V5.06665C13.3335 3.73998 12.2602 2.66665 10.9335 2.66665H5.06683ZM11.5002 3.66665C11.7212 3.66665 11.9331 3.75444 12.0894 3.91072C12.2457 4.067 12.3335 4.27897 12.3335 4.49998C12.3335 4.72099 12.2457 4.93295 12.0894 5.08924C11.9331 5.24552 11.7212 5.33331 11.5002 5.33331C11.2791 5.33331 11.0672 5.24552 10.9109 5.08924C10.7546 4.93295 10.6668 4.72099 10.6668 4.49998C10.6668 4.27897 10.7546 4.067 10.9109 3.91072C11.0672 3.75444 11.2791 3.66665 11.5002 3.66665ZM8.00016 4.66665C8.88422 4.66665 9.73206 5.01784 10.3572 5.64296C10.9823 6.26808 11.3335 7.11592 11.3335 7.99998C11.3335 8.88403 10.9823 9.73188 10.3572 10.357C9.73206 10.9821 8.88422 11.3333 8.00016 11.3333C7.11611 11.3333 6.26826 10.9821 5.64314 10.357C5.01802 9.73188 4.66683 8.88403 4.66683 7.99998C4.66683 7.11592 5.01802 6.26808 5.64314 5.64296C6.26826 5.01784 7.11611 4.66665 8.00016 4.66665ZM8.00016 5.99998C7.46973 5.99998 6.96102 6.21069 6.58595 6.58577C6.21088 6.96084 6.00016 7.46955 6.00016 7.99998C6.00016 8.53041 6.21088 9.03912 6.58595 9.41419C6.96102 9.78927 7.46973 9.99998 8.00016 9.99998C8.5306 9.99998 9.0393 9.78927 9.41438 9.41419C9.78945 9.03912 10.0002 8.53041 10.0002 7.99998C10.0002 7.46955 9.78945 6.96084 9.41438 6.58577C9.0393 6.21069 8.5306 5.99998 8.00016 5.99998Z" fill="white"/>
</svg>
