<svg width="195" height="75" viewBox="0 0 95 41" fill="none" xmlns="http://www.w3.org/2000/svg">
<path d="M65.0248 38.7594H66.7748V38.9994C66.7748 39.4794 66.6165 39.8727 66.2998 40.1794C65.9865 40.4827 65.5732 40.6344 65.0598 40.6344C64.5198 40.6344 64.0732 40.4594 63.7198 40.1094C63.3698 39.7594 63.1948 39.3294 63.1948 38.8194C63.1948 38.3127 63.3698 37.8844 63.7198 37.5344C64.0732 37.1811 64.5098 37.0044 65.0298 37.0044C65.3532 37.0044 65.6498 37.0794 65.9198 37.2294C66.1932 37.3761 66.4048 37.5777 66.5548 37.8344L66.0598 38.1194C65.9665 37.9494 65.8282 37.8144 65.6448 37.7144C65.4615 37.6144 65.2565 37.5644 65.0298 37.5644C64.6632 37.5644 64.3615 37.6844 64.1248 37.9244C63.8882 38.1677 63.7698 38.4677 63.7698 38.8244C63.7698 39.1844 63.8882 39.4827 64.1248 39.7194C64.3682 39.9561 64.6815 40.0744 65.0648 40.0744C65.3715 40.0744 65.6232 40.0027 65.8198 39.8594C66.0165 39.7161 66.1415 39.5211 66.1948 39.2744H65.0248V38.7594Z" fill="white"/>
<path d="M69.9255 40.5694H69.2955L68.5555 39.2944H67.8755V40.5694H67.3005V37.0694H68.7005C69.0138 37.0694 69.2788 37.1794 69.4955 37.3994C69.7155 37.6127 69.8255 37.8777 69.8255 38.1944C69.8255 38.4177 69.7605 38.6227 69.6305 38.8094C69.5038 38.9927 69.3372 39.1261 69.1305 39.2094L69.9255 40.5694ZM68.7005 37.6094H67.8755V38.7794H68.7005C68.8538 38.7794 68.9838 38.7227 69.0905 38.6094C69.1972 38.4961 69.2505 38.3577 69.2505 38.1944C69.2505 38.0311 69.1972 37.8927 69.0905 37.7794C68.9838 37.6661 68.8538 37.6094 68.7005 37.6094Z" fill="white"/>
<path d="M73.2675 40.1094C72.9175 40.4594 72.4892 40.6344 71.9825 40.6344C71.4758 40.6344 71.0458 40.4594 70.6925 40.1094C70.3425 39.7561 70.1675 39.3261 70.1675 38.8194C70.1675 38.3127 70.3425 37.8844 70.6925 37.5344C71.0458 37.1811 71.4758 37.0044 71.9825 37.0044C72.4892 37.0044 72.9175 37.1811 73.2675 37.5344C73.6208 37.8844 73.7975 38.3127 73.7975 38.8194C73.7975 39.3261 73.6208 39.7561 73.2675 40.1094ZM71.0975 39.7194C71.3408 39.9561 71.6358 40.0744 71.9825 40.0744C72.3325 40.0744 72.6258 39.9561 72.8625 39.7194C73.1025 39.4794 73.2225 39.1794 73.2225 38.8194C73.2225 38.4594 73.1025 38.1611 72.8625 37.9244C72.6258 37.6844 72.3325 37.5644 71.9825 37.5644C71.6325 37.5644 71.3375 37.6844 71.0975 37.9244C70.8608 38.1611 70.7425 38.4594 70.7425 38.8194C70.7425 39.1761 70.8608 39.4761 71.0975 39.7194Z" fill="white"/>
<path d="M74.2577 39.4094V37.0694H74.8327V39.3744C74.8327 39.5911 74.896 39.7627 75.0227 39.8894C75.1527 40.0127 75.3393 40.0744 75.5827 40.0744C75.826 40.0744 76.011 40.0127 76.1377 39.8894C76.2677 39.7627 76.3327 39.5911 76.3327 39.3744V37.0694H76.9077V39.4094C76.9077 39.7794 76.7843 40.0777 76.5377 40.3044C76.2943 40.5244 75.976 40.6344 75.5827 40.6344C75.1893 40.6344 74.871 40.5244 74.6277 40.3044C74.381 40.0777 74.2577 39.7794 74.2577 39.4094Z" fill="white"/>
<path d="M77.569 37.0694H78.859C79.189 37.0694 79.464 37.1794 79.684 37.3994C79.9074 37.6194 80.019 37.8927 80.019 38.2194C80.019 38.5427 79.9074 38.8161 79.684 39.0394C79.464 39.2594 79.189 39.3694 78.859 39.3694H78.144V40.5694H77.569V37.0694ZM78.144 38.8294H78.859C79.029 38.8294 79.169 38.7727 79.279 38.6594C79.389 38.5427 79.444 38.3961 79.444 38.2194C79.444 38.0427 79.389 37.8977 79.279 37.7844C79.169 37.6677 79.029 37.6094 78.859 37.6094H78.144V38.8294Z" fill="white"/>
<path d="M0 31.5693V31.5293C0.64 30.2893 0.8 29.5893 0.8 27.9493V20.5493C0.8 18.8893 0.64 18.2093 0 16.9693V16.9293H3.9V16.9693C3.24 18.2093 3.1 18.8893 3.1 20.5493V23.8293H10.08V20.5493C10.08 18.9093 9.94 18.2093 9.28 16.9693V16.9293H13.18V16.9693C12.54 18.2093 12.38 18.8893 12.38 20.5493V27.9493C12.38 29.6093 12.54 30.2893 13.18 31.5293V31.5693H9.28V31.5293C9.94 30.2893 10.08 29.5893 10.08 27.9493V24.2293H3.1V27.9493C3.1 29.6093 3.24 30.2893 3.9 31.5293V31.5693H0Z" fill="white"/>
<path d="M18.2567 30.7893C18.9367 30.7893 19.5567 30.5293 19.8967 30.2093V27.1693C18.3167 27.5293 16.7967 28.1893 16.7967 29.5093C16.7967 30.2893 17.3167 30.7893 18.2567 30.7893ZM21.5967 31.8093C20.5967 31.8093 20.0767 31.2293 19.9367 30.5493C19.3167 31.2493 18.3167 31.8693 17.0567 31.8693C15.8767 31.8693 14.9167 31.3093 14.9167 30.1693C14.9167 28.1493 17.7967 27.1693 19.8967 26.8293V24.6493C19.8967 23.6093 19.4767 22.9293 18.0567 22.9293C17.2967 22.9293 16.2567 23.1293 15.3967 23.8293L15.2967 23.7093C16.1167 22.5493 17.5367 21.7293 19.2767 21.7293C21.2967 21.7293 21.8967 22.8693 21.8967 24.1093V29.8093C21.8967 30.3093 22.0967 30.6893 22.6767 30.6893C22.9767 30.6893 23.2967 30.5893 23.6567 30.3093L23.6967 30.3493C23.3967 30.9893 22.7967 31.8093 21.5967 31.8093Z" fill="white"/>
<path d="M24.6373 31.5693V31.5293C24.8973 30.9693 25.0773 30.2893 25.0773 28.7893V19.6893C25.0773 18.3893 24.6573 17.6293 24.1773 17.1093V17.0693L27.0773 16.0093V28.7693C27.0773 30.2693 27.2573 30.9893 27.5373 31.5293V31.5693H24.6373Z" fill="white"/>
<path d="M33.99 31.8693C31.17 31.8693 28.85 29.5093 28.87 26.8093C28.89 24.1293 31.21 21.7293 33.99 21.7293C36.79 21.7293 39.13 24.1293 39.13 26.8093C39.13 29.5093 36.81 31.8693 33.99 31.8693ZM33.99 31.4693C36.05 31.4693 36.93 29.2293 36.93 26.8093C36.93 24.4093 36.03 22.1293 33.99 22.1293C31.95 22.1293 31.07 24.4093 31.07 26.8093C31.07 29.2293 31.93 31.4693 33.99 31.4693Z" fill="white"/>
<path d="M44.418 31.5693V31.5293C45.058 30.2893 45.218 29.5893 45.218 27.9493V20.5493C45.218 18.8893 45.058 18.2093 44.418 16.9693V16.9293H48.318V16.9693C47.658 18.2093 47.518 18.8893 47.518 20.5493V23.8293H54.498V20.5493C54.498 18.9093 54.358 18.2093 53.698 16.9693V16.9293H57.598V16.9693C56.958 18.2093 56.798 18.8893 56.798 20.5493V27.9493C56.798 29.6093 56.958 30.2893 57.598 31.5293V31.5693H53.698V31.5293C54.358 30.2893 54.498 29.5893 54.498 27.9493V24.2293H47.518V27.9493C47.518 29.6093 47.658 30.2893 48.318 31.5293V31.5693H44.418Z" fill="white"/>
<path d="M62.6747 30.7893C63.3547 30.7893 63.9747 30.5293 64.3147 30.2093V27.1693C62.7347 27.5293 61.2147 28.1893 61.2147 29.5093C61.2147 30.2893 61.7347 30.7893 62.6747 30.7893ZM66.0147 31.8093C65.0147 31.8093 64.4947 31.2293 64.3547 30.5493C63.7347 31.2493 62.7347 31.8693 61.4747 31.8693C60.2947 31.8693 59.3347 31.3093 59.3347 30.1693C59.3347 28.1493 62.2147 27.1693 64.3147 26.8293V24.6493C64.3147 23.6093 63.8947 22.9293 62.4747 22.9293C61.7147 22.9293 60.6747 23.1293 59.8147 23.8293L59.7147 23.7093C60.5347 22.5493 61.9547 21.7293 63.6947 21.7293C65.7147 21.7293 66.3147 22.8693 66.3147 24.1093V29.8093C66.3147 30.3093 66.5147 30.6893 67.0947 30.6893C67.3947 30.6893 67.7147 30.5893 68.0747 30.3093L68.1147 30.3493C67.8147 30.9893 67.2147 31.8093 66.0147 31.8093Z" fill="white"/>
<path d="M71.9883 18.4093C71.9883 19.0693 71.4483 19.6093 70.7883 19.6093C70.1283 19.6093 69.5883 19.0693 69.5883 18.4093C69.5883 17.7493 70.1283 17.1893 70.7883 17.1893C71.4483 17.1893 71.9883 17.7493 71.9883 18.4093ZM69.4283 31.5693V31.5293C69.7083 30.4293 69.8883 29.4293 69.8883 27.6893V25.4093C69.8883 24.1293 69.4683 23.3693 68.9883 22.8293V22.6893L71.8883 21.6293V27.6693C71.8883 29.3893 71.9283 30.4293 72.3283 31.5293V31.5693H69.4283Z" fill="white"/>
<path d="M77.2744 31.5693H74.3744V31.5293C74.7544 30.4293 74.8344 29.4493 74.8344 27.6893V25.3293C74.8344 24.0093 74.4144 23.2693 73.9344 22.7293V22.6893L76.7544 21.6293V24.0693H76.8344C77.6344 23.1293 78.7144 21.7093 80.0144 21.7293L79.9744 24.1693H79.8944C79.5144 23.8693 78.5544 23.5693 78.1144 23.5693C77.7944 23.5693 77.2744 23.8693 76.8344 24.4693V27.6693C76.8344 29.4093 76.8744 30.4293 77.2744 31.5293V31.5693Z" fill="white"/>
<path fill-rule="evenodd" clip-rule="evenodd" d="M84.2114 0.135991C84.2437 0.220389 84.1831 0.290575 84.052 0.320947C83.5551 0.436106 82.0378 1.10574 81.3675 1.50564C81.1808 1.6171 80.8534 1.76701 80.6401 1.83895C80.0117 2.05058 78.6518 2.73783 78.6518 2.84365C78.6518 2.89728 78.7213 2.91442 78.8063 2.88171C79.4695 2.62627 79.4734 2.69704 78.8308 3.33427C77.523 4.6311 76.8116 5.86699 76.4635 7.4469C76.3306 8.05025 76.3039 9.90477 76.4167 10.708C76.522 11.4585 76.7822 12.5938 76.9634 13.0929C77.0023 13.2 76.8383 13.0248 76.5989 12.7035C76.3596 12.3823 76.0883 12.0574 75.9961 11.9814C75.8399 11.8528 75.837 11.8629 75.9532 12.1275C76.0796 12.4154 76.6047 13.2201 77.1866 14.0177C77.3623 14.2586 77.6386 14.7186 77.8003 15.0398C77.9621 15.3611 78.174 15.7371 78.2712 15.8754C78.3763 16.0247 78.4257 16.2126 78.3931 16.3378C78.3529 16.4924 78.3818 16.5487 78.5016 16.5487C78.6774 16.5487 78.6609 16.4277 78.3964 15.7793C78.3221 15.5971 78.2738 15.4354 78.2892 15.4201C78.3044 15.4047 78.556 15.6227 78.8481 15.9046C80.1979 17.2069 81.7999 18.1682 83.3557 18.6094C83.99 18.7893 84.3705 18.829 85.441 18.8273C86.6792 18.8253 86.8044 18.8068 87.7445 18.4855C88.2912 18.2987 88.7386 18.1547 88.7386 18.1653C88.7386 18.1759 88.5005 18.3432 88.2094 18.5371C87.6658 18.8994 87.4852 19.0796 87.6664 19.0796C87.8431 19.0796 88.4632 18.7132 89.3205 18.1023C89.7739 17.7792 90.5377 17.2689 91.0178 16.9685C92.015 16.3444 93.0324 15.502 92.9502 15.3686C92.9197 15.319 92.9524 15.2904 93.0231 15.3051C93.1002 15.3211 93.1395 15.2609 93.1214 15.1543C93.1048 15.0567 93.1335 14.9252 93.1851 14.8623C93.2367 14.7993 93.3108 14.5288 93.3498 14.2611C93.3889 13.9934 93.5631 13.3363 93.737 12.8009C93.9579 12.1205 94.0718 11.5489 94.115 10.9027C94.1722 10.0499 94.0835 8.78949 93.9335 8.32301C93.8991 8.21593 93.9819 8.36389 94.1174 8.65184C94.253 8.93979 94.3639 9.27933 94.3639 9.40627C94.3639 9.57224 94.4184 9.63717 94.5579 9.63717C94.6646 9.63717 94.7519 9.60096 94.7519 9.55657C94.7519 9.21907 93.1644 5.89006 92.3625 4.54621C91.6497 3.35159 90.5751 2.01816 90.4369 2.15678C90.4114 2.18238 90.4662 2.30289 90.5587 2.42458C90.6512 2.54626 90.816 2.76236 90.925 2.90478C91.4936 3.64791 91.4659 3.71401 90.8173 3.16177C89.0964 1.69653 87.663 1.12151 85.441 1.00509C84.8809 0.97569 84.0966 0.99808 83.6983 1.05483C82.9832 1.15675 82.7176 1.13758 83.0751 1.00976C83.1761 0.973646 83.5761 0.797354 83.964 0.618044C84.3519 0.438735 84.712 0.292035 84.7642 0.292035C84.8164 0.292035 84.8591 0.243168 84.8591 0.183301C84.8591 0.122558 84.7735 0.0970531 84.6651 0.125575C84.5584 0.153513 84.4711 0.13677 84.4711 0.0881947C84.4711 0.0397168 84.401 0 84.3152 0C84.2216 0 84.1801 0.0543186 84.2114 0.135991ZM80.9498 0.743619C80.8723 0.821398 80.9599 0.973451 81.0822 0.973451C81.1325 0.973451 81.1735 0.907743 81.1735 0.827434C81.1735 0.676938 81.059 0.634009 80.9498 0.743619ZM89.9698 1.32769C89.8923 1.40547 89.9799 1.55752 90.1021 1.55752C90.1524 1.55752 90.1934 1.49181 90.1934 1.4115C90.1934 1.26101 90.079 1.21808 89.9698 1.32769ZM83.0648 1.60931C81.9587 1.76876 81.0891 2.02906 81.2758 2.1449C81.3498 2.19075 81.3898 2.24439 81.3647 2.26405C81.3395 2.28362 81.0831 2.46994 80.7948 2.67796C80.5065 2.88609 80.3211 3.07319 80.3826 3.09382C80.557 3.15213 80.5142 3.30973 80.324 3.30973C80.2301 3.30973 80.1075 3.38644 80.0516 3.48009C79.9957 3.57373 79.8445 3.82566 79.7156 4.03982L79.4813 4.4292L80.0122 3.98249C81.0462 3.11242 81.9812 2.57127 83.1133 2.18783C83.7385 1.97601 84.0108 1.94145 85.053 1.94213C85.7198 1.94252 86.4152 1.98681 86.5984 2.04055C87.1085 2.19017 87.0561 2.09555 86.4947 1.85316C85.5839 1.45998 84.5912 1.38941 83.0648 1.60931ZM85.5933 2.62881C85.8638 2.67845 86.3438 2.78913 86.6601 2.8748C86.9765 2.96046 87.4447 3.0875 87.7005 3.1571C88.1126 3.26914 88.1626 3.26632 88.1368 3.13208C88.093 2.90381 87.0878 2.64438 86.0288 2.58792C85.275 2.54781 85.1936 2.55541 85.5933 2.62881ZM88.7386 2.55969C88.7386 2.59892 89.8472 3.29513 90.0479 3.38196C90.1013 3.40513 90.0358 3.33427 89.9025 3.22456C89.6385 3.00758 88.7386 2.4935 88.7386 2.55969ZM77.9729 2.72566C77.9729 2.7792 78.0383 2.82301 78.1184 2.82301C78.1984 2.82301 78.2638 2.7792 78.2638 2.72566C78.2638 2.67212 78.1984 2.62832 78.1184 2.62832C78.0383 2.62832 77.9729 2.67212 77.9729 2.72566ZM83.3557 2.78193C82.8841 2.89193 82.7341 2.94683 81.8808 3.3221C81.3162 3.57033 80.5323 4.08704 79.9897 4.5685L79.5334 4.97336L79.9396 5.38104L80.2898 4.99468C81.4608 3.70301 83.0279 2.92035 84.4435 2.92035C85.1055 2.92035 85.0795 2.85981 84.3706 2.75058C84.0255 2.69734 83.6715 2.70834 83.3557 2.78193ZM79.2601 3.72783C78.4515 4.57298 77.7432 5.68476 77.8193 5.98935C77.8616 6.15844 77.8268 6.24956 77.6925 6.32169C77.5907 6.3764 77.4383 6.63008 77.3539 6.88542L77.2004 7.34956L77.4475 7.05752C77.7289 6.72509 78.5548 5.48988 78.5548 5.40158C78.5548 5.36946 78.8617 4.85791 79.2368 4.26469C79.612 3.67157 79.9027 3.17004 79.8831 3.15019C79.8633 3.13042 79.583 3.39034 79.2601 3.72783ZM88.5446 3.30973C88.4153 3.39365 88.4153 3.40455 88.5446 3.40786C88.6246 3.41 88.943 3.51611 89.2521 3.64363C89.8781 3.90198 89.8475 3.72657 89.2097 3.39997C88.7921 3.1862 88.745 3.17978 88.5446 3.30973ZM83.8407 3.49985C82.6734 3.82216 81.4514 4.51136 80.6593 5.29421C79.7729 6.17003 79.5825 6.42381 79.0084 7.49411C78.728 8.01696 78.7206 8.0665 78.7224 9.3938C78.7239 10.5161 78.7624 10.8855 78.9403 11.4867C79.6037 13.7275 81.0104 15.3319 83.2535 16.4062L84.0241 16.7753L85.1197 16.6606C87.3561 16.4267 88.8446 15.7149 90.1983 14.2322C90.8834 13.4818 91.399 12.6056 91.727 11.6343C91.9305 11.0319 91.9499 10.8479 91.8919 10.0752C91.828 9.22559 91.6239 8.13669 91.4663 7.80445C90.6417 6.06587 90.1494 5.38698 89.1112 4.55653C88.7216 4.24483 88.1183 3.84883 87.7705 3.67653C87.1649 3.37651 87.0833 3.3622 85.8289 3.33787C84.7784 3.31742 84.3855 3.34945 83.8407 3.49985ZM89.377 4.11731C90.7716 5.08979 91.8354 6.7761 92.0763 8.39602C92.1142 8.65028 92.1804 8.85841 92.2237 8.85841C92.3517 8.85841 92.4235 8.15596 92.3332 7.78761C92.1826 7.17326 91.7675 6.28314 91.5848 6.18258C91.3356 6.04552 91.2567 5.91537 91.3127 5.73431C91.4177 5.39496 90.3109 4.22955 89.7094 4.04615C89.4688 3.97275 89.1847 3.88144 89.078 3.84319C88.9714 3.80493 89.1059 3.92827 89.377 4.11731ZM77.003 4.13717C77.003 4.21748 77.0466 4.28319 77.1 4.28319C77.1533 4.28319 77.197 4.21748 77.197 4.13717C77.197 4.05686 77.1533 3.99115 77.1 3.99115C77.0466 3.99115 77.003 4.05686 77.003 4.13717ZM91.3088 4.6788C91.4688 4.86103 91.6245 5.03274 91.6546 5.06039C91.8365 5.22675 92.3844 6.13683 92.6115 6.64994C93.0849 7.71918 93.2306 8.60356 93.1806 10.1044L93.1361 11.4381L93.311 11.0487C93.514 10.5968 93.5478 9.87469 93.3698 9.79127C93.2728 9.7459 93.2728 9.72312 93.3698 9.67776C93.7253 9.5112 93.2369 7.0585 92.6458 6.04153C92.3489 5.53076 91.731 4.83942 91.3148 4.55225L91.0178 4.34734L91.3088 4.6788ZM78.9756 5.57301C78.5255 6.07891 77.8565 8.36234 77.8847 9.29646C77.8918 9.53009 77.9304 9.47168 78.0774 9.00442C78.1785 8.68319 78.2618 8.34374 78.2625 8.25C78.2633 8.15626 78.2992 8.07965 78.3425 8.07965C78.3858 8.07965 78.5027 7.7182 78.6023 7.27655C78.7019 6.83489 78.8815 6.22152 79.0013 5.91372C79.1212 5.60591 79.2083 5.35398 79.1949 5.35398C79.1815 5.35398 79.0828 5.45259 78.9756 5.57301ZM79.3418 5.6722C79.298 5.79165 79.2305 6.0208 79.1918 6.18142C79.1255 6.45719 79.1382 6.45048 79.4201 6.06061C79.7663 5.58177 79.7648 5.58732 79.5701 5.51227C79.4735 5.47508 79.3937 5.53096 79.3418 5.6722ZM75.6674 5.85901C75.7273 6.03949 75.9361 6.06937 75.9361 5.89746C75.9361 5.81277 75.8671 5.74336 75.7826 5.74336C75.6981 5.74336 75.6462 5.79535 75.6674 5.85901ZM77.4879 7.54425C77.2403 7.94638 77.1569 7.97675 77.2207 7.64159C77.2462 7.50774 77.2394 7.39823 77.2056 7.39823C77.1113 7.39823 76.906 8.59811 76.906 9.14918C76.906 9.41902 76.9606 9.73257 77.0272 9.84588C77.1242 10.0108 77.1242 10.0608 77.0272 10.0961C76.6343 10.2389 77.3508 13.6788 77.9092 14.3312C78.1186 14.5757 78.1445 14.5824 78.2951 14.4313C78.4116 14.3143 78.4858 14.2989 78.5623 14.3756C78.6388 14.4524 78.6103 14.5225 78.4599 14.6283C78.2557 14.7718 78.2671 14.7887 79.0298 15.4631C79.7033 16.0589 80.4341 16.5487 80.6493 16.5487C80.6853 16.5487 80.3832 16.2091 79.9781 15.7942C78.9431 14.7344 78.1826 13.6542 77.7896 12.6857C77.7085 12.486 77.6154 12.3946 77.5274 12.4284C77.3681 12.4898 77.3458 12.3497 77.4915 12.2035C77.561 12.1338 77.5545 12.0147 77.4704 11.819C77.3886 11.6287 77.3513 11.0389 77.3568 10.0265C77.3634 8.81966 77.4038 8.38619 77.5589 7.86062C77.6656 7.49918 77.7405 7.20354 77.7253 7.20354C77.7101 7.20354 77.6033 7.35686 77.4879 7.54425ZM75.4512 8.07965C75.4512 8.13319 75.5166 8.17699 75.5967 8.17699C75.6767 8.17699 75.7421 8.13319 75.7421 8.07965C75.7421 8.02611 75.6767 7.9823 75.5967 7.9823C75.5166 7.9823 75.4512 8.02611 75.4512 8.07965ZM92.5307 9.29646C92.5238 9.6177 92.4549 10.1434 92.3776 10.4646C92.3003 10.7858 92.2355 11.2373 92.2337 11.4679C92.229 12.028 92.0298 13.2643 91.9255 13.3801C91.8779 13.4329 91.8408 13.2663 91.8389 12.9907L91.8356 12.5088L91.5001 13.1691C90.6426 14.857 89.477 15.9483 87.9211 16.52C87.3689 16.7228 86.5079 16.9305 86.2018 16.9345C85.9926 16.9374 85.9537 16.9747 85.9948 17.1327C86.0232 17.2416 85.9978 17.3274 85.9373 17.3274C85.8776 17.3274 85.8289 17.2617 85.8289 17.1814C85.8289 17.0712 85.7158 17.037 85.3682 17.0415C84.9651 17.047 84.9375 17.0597 85.1473 17.1437C85.2791 17.1966 85.4182 17.2904 85.4563 17.3524C85.556 17.5141 86.8442 17.2819 87.813 16.9273C89.0944 16.4584 89.915 15.924 90.8535 14.9472C91.3191 14.4628 91.8346 13.8473 91.9991 13.5796C92.351 13.007 92.6279 11.9605 92.4438 11.8989C92.2812 11.8445 92.2955 11.3894 92.4599 11.3894C92.6979 11.3894 92.8003 9.9585 92.6237 9.10177C92.5456 8.72251 92.5432 8.72758 92.5307 9.29646ZM92.2527 9.24779C92.2527 9.43518 92.2727 9.51188 92.297 9.41814C92.3214 9.3244 92.3214 9.17118 92.297 9.07743C92.2727 8.98369 92.2527 9.0604 92.2527 9.24779ZM78.1663 9.5479C78.1659 9.62373 78.1009 9.81035 78.0219 9.96259C77.8952 10.2064 77.8949 10.3338 78.0197 11.0334C78.2254 12.1862 78.3288 12.5161 78.7597 13.3948C79.3511 14.6004 80.4218 15.8605 81.6711 16.821C81.7976 16.9183 82.7896 17.2301 82.9725 17.2301C82.9966 17.2301 83.0163 17.1644 83.0163 17.0841C83.0163 17.0016 82.9295 16.9381 82.8168 16.9381C82.4841 16.9381 81.7554 16.7263 81.7554 16.6297C81.7554 16.5771 82.0101 16.5638 82.3616 16.5978L82.9678 16.6567L82.4343 16.3791C81.6781 15.9856 81.1794 15.6544 80.6477 15.1925C80.1079 14.7235 79.2972 13.7909 79.1219 13.4369C79.0546 13.3012 78.9502 13.1246 78.8898 13.0442C78.8295 12.9639 78.704 12.6354 78.611 12.3142C78.518 11.9929 78.418 11.6644 78.389 11.5841C78.3599 11.5038 78.3163 11.0001 78.2921 10.4648C78.2678 9.9294 78.2297 9.47314 78.2074 9.45075C78.1851 9.42836 78.1666 9.47207 78.1663 9.5479ZM75.6451 11.6408C75.6451 11.7256 75.6969 11.7777 75.7604 11.7565C75.9402 11.6963 75.97 11.4867 75.7987 11.4867C75.7142 11.4867 75.6451 11.5561 75.6451 11.6408ZM92.7928 12.9264C92.4296 13.6979 92.1978 14.3096 92.2492 14.3612C92.3139 14.4262 92.9727 13.0438 93.0508 12.6792C93.088 12.5052 93.1041 12.3645 93.0865 12.3666C93.0689 12.3687 92.9368 12.6205 92.7928 12.9264ZM76.2752 14.0184C76.2419 14.0723 76.2849 14.1435 76.3706 14.1765C76.5563 14.2479 76.6597 14.1692 76.5705 14.0242C76.49 13.8934 76.3537 13.8908 76.2752 14.0184ZM91.4917 14.9657C91.0716 15.5186 90.1109 16.4228 89.5386 16.8041C88.8949 17.2328 88.3188 17.4894 87.469 17.7258C86.6285 17.9596 84.4386 17.9829 83.5497 17.7674C82.4742 17.5068 82.539 17.6089 83.6482 17.9228C84.2634 18.0968 84.6836 18.1433 85.6927 18.1483C86.5698 18.1528 87.0077 18.1175 87.1079 18.0341C87.1877 17.9676 87.2777 17.9378 87.3076 17.9679C87.3894 18.0499 88.6096 17.7233 89.272 17.4422C89.89 17.1799 90.7218 16.539 91.1138 16.0231C91.3346 15.7327 91.8837 14.6018 91.804 14.6018C91.7843 14.6018 91.6438 14.7655 91.4917 14.9657ZM81.8035 15.0892C81.7703 15.1431 81.8132 15.2143 81.899 15.2473C82.0846 15.3187 82.1881 15.24 82.0989 15.095C82.0184 14.9642 81.8821 14.9616 81.8035 15.0892ZM79.3307 15.5265C79.3307 15.6069 79.3744 15.6726 79.4277 15.6726C79.481 15.6726 79.5247 15.6069 79.5247 15.5265C79.5247 15.4462 79.481 15.3805 79.4277 15.3805C79.3744 15.3805 79.3307 15.4462 79.3307 15.5265ZM91.6875 16.077L91.5028 16.2868L91.7695 16.1145C92.0445 15.9369 92.0965 15.8673 91.9542 15.8673C91.9091 15.8673 91.7892 15.9617 91.6875 16.077ZM81.1735 16.1593C81.1735 16.2128 81.2145 16.2566 81.2648 16.2566C81.315 16.2566 81.383 16.2128 81.416 16.1593C81.4489 16.1058 81.4078 16.0619 81.3247 16.0619C81.2416 16.0619 81.1735 16.1058 81.1735 16.1593ZM83.4057 17.0092C83.4112 17.285 83.6215 17.3629 84.4388 17.3917L85.2955 17.422L84.5681 17.2299C83.4773 16.9419 83.4041 16.928 83.4057 17.0092ZM87.1868 18.9366C87.1868 19.0942 87.3384 19.13 87.4229 18.9925C87.4525 18.9445 87.4114 18.8803 87.3317 18.8495C87.2437 18.8156 87.1868 18.8498 87.1868 18.9366ZM83.7922 19.177C83.7922 19.2305 83.8358 19.2743 83.8892 19.2743C83.9425 19.2743 83.9862 19.2305 83.9862 19.177C83.9862 19.1235 83.9425 19.0796 83.8892 19.0796C83.8358 19.0796 83.7922 19.1235 83.7922 19.177Z" fill="white"/>
</svg>
