<svg width="36" height="36" viewBox="0 0 36 36" fill="none" xmlns="http://www.w3.org/2000/svg">
<path d="M4 8C4 5.79086 5.79086 4 8 4H28C30.2091 4 32 5.79086 32 8V12H4V8Z" fill="#E06255"/>
<path d="M10.485 6.55C10.805 6.55 11.06 6.64167 11.25 6.825C11.44 7.005 11.535 7.25333 11.535 7.57C11.535 7.88667 11.415 8.15833 11.175 8.385C10.935 8.60833 10.6417 8.72 10.295 8.72H10.01L10.07 10H9.4L9.46 8.785L9.4 6.55H10.485ZM10.305 7.055H10.06L10.025 8.235H10.365C10.5317 8.235 10.66 8.18 10.75 8.07C10.8433 7.96 10.89 7.80333 10.89 7.6C10.89 7.23667 10.695 7.055 10.305 7.055ZM13.2939 8.735C13.2939 8.505 13.2739 8.35167 13.2339 8.275C13.1939 8.19833 13.1006 8.16 12.9539 8.16C12.8073 8.16 12.6406 8.21833 12.4539 8.335V8.7L12.5089 9.875L11.8339 10L11.8939 8.785L11.8339 6.255L12.5189 6.13L12.4539 7.425V8.01C12.5039 7.94333 12.5606 7.87833 12.6239 7.815C12.6873 7.75167 12.7856 7.68 12.9189 7.6C13.0523 7.52 13.1939 7.48 13.3439 7.48C13.4973 7.48 13.6256 7.54 13.7289 7.66C13.8323 7.77667 13.8839 7.93667 13.8839 8.14L13.8539 8.7L13.9089 9.9L13.2339 10.025L13.2939 8.735ZM14.9609 10C14.7642 10 14.6026 9.93833 14.4759 9.815C14.3526 9.68833 14.2909 9.52 14.2909 9.31C14.2909 9.09667 14.3876 8.91333 14.5809 8.76C14.7742 8.60333 15.0092 8.525 15.2859 8.525H15.6259V8.44C15.6259 8.27667 15.5926 8.165 15.5259 8.105C15.4592 8.045 15.3342 8.015 15.1509 8.015C15.0742 8.015 14.9826 8.03167 14.8759 8.065C14.7726 8.095 14.6559 8.14333 14.5259 8.21L14.3809 7.815C14.5242 7.715 14.6976 7.625 14.9009 7.545C15.1076 7.465 15.2776 7.425 15.4109 7.425C15.9342 7.425 16.1959 7.67833 16.1959 8.185V9.165C16.1959 9.35167 16.2542 9.56 16.3709 9.79L15.8409 10.015C15.7576 9.855 15.6959 9.71167 15.6559 9.585C15.4726 9.86167 15.2409 10 14.9609 10ZM15.1709 9.49C15.3042 9.49 15.4559 9.42167 15.6259 9.285V8.95C15.4492 8.91 15.3059 8.89 15.1959 8.89C14.9859 8.89 14.8809 8.98333 14.8809 9.17C14.8809 9.26667 14.9076 9.345 14.9609 9.405C15.0142 9.46167 15.0842 9.49 15.1709 9.49ZM17.5596 9.535C17.733 9.535 17.8196 9.45833 17.8196 9.305C17.8196 9.25167 17.7813 9.20167 17.7046 9.155C17.6313 9.10833 17.5396 9.06167 17.4296 9.015C17.323 8.96833 17.2146 8.91667 17.1046 8.86C16.998 8.8 16.9063 8.71833 16.8296 8.615C16.7563 8.51167 16.7196 8.39333 16.7196 8.26C16.7196 8.03667 16.818 7.84167 17.0146 7.675C17.2113 7.50833 17.438 7.425 17.6946 7.425C17.8146 7.425 17.9313 7.44 18.0446 7.47C18.1613 7.49667 18.273 7.54 18.3796 7.6L18.0446 8.21C18.0213 8.19 17.9913 8.165 17.9546 8.135C17.918 8.105 17.848 8.06667 17.7446 8.02C17.6446 7.97 17.5546 7.945 17.4746 7.945C17.398 7.945 17.338 7.96333 17.2946 8C17.2546 8.03333 17.2346 8.08167 17.2346 8.145C17.2346 8.205 17.2913 8.26667 17.4046 8.33C17.5213 8.39 17.648 8.44667 17.7846 8.5C17.9213 8.55 18.0463 8.635 18.1596 8.755C18.2763 8.87167 18.3346 9.01167 18.3346 9.175C18.3346 9.40833 18.238 9.61333 18.0446 9.79C17.8546 9.96667 17.6346 10.055 17.3846 10.055C17.2246 10.055 17.0746 10.02 16.9346 9.95C16.798 9.88 16.6996 9.81 16.6396 9.74L16.5496 9.635L16.9446 9.175C16.9646 9.20167 16.993 9.235 17.0296 9.275C17.0663 9.315 17.138 9.36833 17.2446 9.435C17.3546 9.50167 17.4596 9.535 17.5596 9.535ZM19.6724 9.49C19.7691 9.49 19.8708 9.465 19.9774 9.415C20.0841 9.365 20.1674 9.315 20.2274 9.265L20.3174 9.19L20.5474 9.47C20.5141 9.52667 20.4624 9.59167 20.3924 9.665C20.3224 9.73833 20.2508 9.80167 20.1774 9.855C20.1074 9.905 20.0124 9.95167 19.8924 9.995C19.7758 10.035 19.6541 10.055 19.5274 10.055C19.2574 10.055 19.0374 9.95333 18.8674 9.75C18.6974 9.54333 18.6124 9.27833 18.6124 8.955C18.6124 8.54833 18.7308 8.19167 18.9674 7.885C19.2041 7.57833 19.4808 7.425 19.7974 7.425C20.0408 7.425 20.2291 7.49333 20.3624 7.63C20.4991 7.76667 20.5674 7.95833 20.5674 8.205C20.5674 8.35167 20.5424 8.51833 20.4924 8.705L20.3924 8.81L19.1424 8.925C19.1991 9.30167 19.3758 9.49 19.6724 9.49ZM19.6724 7.94C19.5258 7.94 19.4024 8 19.3024 8.12C19.2024 8.23667 19.1441 8.38667 19.1274 8.57L19.9774 8.465C19.9874 8.38833 19.9924 8.325 19.9924 8.275C19.9924 8.05167 19.8858 7.94 19.6724 7.94ZM22.9104 6.75L22.8354 8.7L22.8954 10H22.1954L22.2554 8.785L22.2154 7.54L21.5154 7.545V7.22L22.9104 6.75ZM24.9937 6.755C25.337 6.755 25.612 6.89167 25.8187 7.165C26.0287 7.435 26.1337 7.79333 26.1337 8.24C26.1337 8.80333 26.007 9.24667 25.7537 9.57C25.5037 9.89333 25.1587 10.055 24.7187 10.055C24.382 10.055 24.107 9.91833 23.8937 9.645C23.6837 9.36833 23.5787 9.00833 23.5787 8.565C23.5787 8.035 23.7104 7.60167 23.9737 7.265C24.2404 6.925 24.5804 6.755 24.9937 6.755ZM24.8787 9.565C25.092 9.565 25.2404 9.48333 25.3237 9.32C25.4104 9.15667 25.4537 8.86667 25.4537 8.45C25.4537 8.03333 25.4104 7.74167 25.3237 7.575C25.237 7.405 25.0854 7.32 24.8687 7.32C24.652 7.32 24.4954 7.4 24.3987 7.56C24.3054 7.71667 24.2587 7.99167 24.2587 8.385C24.2587 8.775 24.3087 9.07 24.4087 9.27C24.5087 9.46667 24.6654 9.565 24.8787 9.565Z" fill="white"/>
<path d="M4 12H32V27C32 29.2091 30.2091 31 28 31H8C5.79086 31 4 29.2091 4 27V12Z" fill="#F1F1F1"/>
<path d="M11.488 20.264C11.488 19.9653 11.3067 19.816 10.944 19.816C10.72 19.816 10.472 19.864 10.2 19.96C9.93333 20.0507 9.72 20.144 9.56 20.24L9.328 20.376L9.544 19.232C9.752 19.12 10.0027 19.0213 10.296 18.936C10.5893 18.8453 10.848 18.8 11.072 18.8C11.5253 18.8 11.888 18.9173 12.16 19.152C12.4373 19.3813 12.576 19.688 12.576 20.072C12.576 20.5893 12.304 21.128 11.76 21.688L10.368 23.128L12.864 22.984L12.728 24.048L11.064 23.976L9.176 24.032L9.304 23.192L10.984 21.256C11.32 20.8773 11.488 20.5467 11.488 20.264ZM15.5743 18.808C16.1236 18.808 16.5636 19.0267 16.8943 19.464C17.2303 19.896 17.3983 20.4693 17.3983 21.184C17.3983 22.0853 17.1956 22.7947 16.7903 23.312C16.3903 23.8293 15.8383 24.088 15.1343 24.088C14.5956 24.088 14.1556 23.8693 13.8143 23.432C13.4783 22.9893 13.3103 22.4133 13.3103 21.704C13.3103 20.856 13.521 20.1627 13.9423 19.624C14.369 19.08 14.913 18.808 15.5743 18.808ZM15.3903 23.304C15.7316 23.304 15.969 23.1733 16.1023 22.912C16.241 22.6507 16.3103 22.1867 16.3103 21.52C16.3103 20.8533 16.241 20.3867 16.1023 20.12C15.9636 19.848 15.721 19.712 15.3743 19.712C15.0276 19.712 14.777 19.84 14.6223 20.096C14.473 20.3467 14.3983 20.7867 14.3983 21.416C14.3983 22.04 14.4783 22.512 14.6383 22.832C14.7983 23.1467 15.049 23.304 15.3903 23.304ZM20.1286 20.264C20.1286 19.9653 19.9473 19.816 19.5846 19.816C19.3606 19.816 19.1126 19.864 18.8406 19.96C18.574 20.0507 18.3606 20.144 18.2006 20.24L17.9686 20.376L18.1846 19.232C18.3926 19.12 18.6433 19.0213 18.9366 18.936C19.23 18.8453 19.4886 18.8 19.7126 18.8C20.166 18.8 20.5286 18.9173 20.8006 19.152C21.078 19.3813 21.2166 19.688 21.2166 20.072C21.2166 20.5893 20.9446 21.128 20.4006 21.688L19.0086 23.128L21.5046 22.984L21.3686 24.048L19.7046 23.976L17.8166 24.032L17.9446 23.192L19.6246 21.256C19.9606 20.8773 20.1286 20.5467 20.1286 20.264ZM25.3669 22.288C25.3669 22.784 25.1669 23.208 24.7669 23.56C24.3723 23.912 23.8896 24.088 23.3189 24.088C23.0523 24.088 22.7963 24.056 22.5509 23.992C22.3056 23.9227 22.1269 23.856 22.0149 23.792L21.8469 23.688L22.1829 22.752C22.3483 22.88 22.5536 22.9973 22.7989 23.104C23.0496 23.2107 23.2816 23.264 23.4949 23.264C23.7136 23.264 23.9083 23.1973 24.0789 23.064C24.2496 22.9253 24.3349 22.7573 24.3349 22.56C24.3349 22.0747 24.0096 21.7787 23.3589 21.672L22.2949 21.496V18.848L23.6709 18.944L25.2949 18.856L25.1189 19.96L23.0629 19.776V20.712L23.9349 20.864C24.3829 20.944 24.7323 21.112 24.9829 21.368C25.2389 21.624 25.3669 21.9307 25.3669 22.288Z" fill="#353535"/>
</svg>
