<svg width="36" height="36" viewBox="0 0 36 36" fill="none" xmlns="http://www.w3.org/2000/svg">
<path d="M4 8C4 5.79086 5.79086 4 8 4H28C30.2091 4 32 5.79086 32 8V12H4V8Z" fill="#E06255"/>
<path d="M11.485 6.55C11.805 6.55 12.06 6.64167 12.25 6.825C12.44 7.005 12.535 7.25333 12.535 7.57C12.535 7.88667 12.415 8.15833 12.175 8.385C11.935 8.60833 11.6417 8.72 11.295 8.72H11.01L11.07 10H10.4L10.46 8.785L10.4 6.55H11.485ZM11.305 7.055H11.06L11.025 8.235H11.365C11.5317 8.235 11.66 8.18 11.75 8.07C11.8433 7.96 11.89 7.80333 11.89 7.6C11.89 7.23667 11.695 7.055 11.305 7.055ZM14.2939 8.735C14.2939 8.505 14.2739 8.35167 14.2339 8.275C14.1939 8.19833 14.1006 8.16 13.9539 8.16C13.8073 8.16 13.6406 8.21833 13.4539 8.335V8.7L13.5089 9.875L12.8339 10L12.8939 8.785L12.8339 6.255L13.5189 6.13L13.4539 7.425V8.01C13.5039 7.94333 13.5606 7.87833 13.6239 7.815C13.6873 7.75167 13.7856 7.68 13.9189 7.6C14.0523 7.52 14.1939 7.48 14.3439 7.48C14.4973 7.48 14.6256 7.54 14.7289 7.66C14.8323 7.77667 14.8839 7.93667 14.8839 8.14L14.8539 8.7L14.9089 9.9L14.2339 10.025L14.2939 8.735ZM15.9609 10C15.7642 10 15.6026 9.93833 15.4759 9.815C15.3526 9.68833 15.2909 9.52 15.2909 9.31C15.2909 9.09667 15.3876 8.91333 15.5809 8.76C15.7742 8.60333 16.0092 8.525 16.2859 8.525H16.6259V8.44C16.6259 8.27667 16.5926 8.165 16.5259 8.105C16.4592 8.045 16.3342 8.015 16.1509 8.015C16.0742 8.015 15.9826 8.03167 15.8759 8.065C15.7726 8.095 15.6559 8.14333 15.5259 8.21L15.3809 7.815C15.5242 7.715 15.6976 7.625 15.9009 7.545C16.1076 7.465 16.2776 7.425 16.4109 7.425C16.9342 7.425 17.1959 7.67833 17.1959 8.185V9.165C17.1959 9.35167 17.2542 9.56 17.3709 9.79L16.8409 10.015C16.7576 9.855 16.6959 9.71167 16.6559 9.585C16.4726 9.86167 16.2409 10 15.9609 10ZM16.1709 9.49C16.3042 9.49 16.4559 9.42167 16.6259 9.285V8.95C16.4492 8.91 16.3059 8.89 16.1959 8.89C15.9859 8.89 15.8809 8.98333 15.8809 9.17C15.8809 9.26667 15.9076 9.345 15.9609 9.405C16.0142 9.46167 16.0842 9.49 16.1709 9.49ZM18.5596 9.535C18.733 9.535 18.8196 9.45833 18.8196 9.305C18.8196 9.25167 18.7813 9.20167 18.7046 9.155C18.6313 9.10833 18.5396 9.06167 18.4296 9.015C18.323 8.96833 18.2146 8.91667 18.1046 8.86C17.998 8.8 17.9063 8.71833 17.8296 8.615C17.7563 8.51167 17.7196 8.39333 17.7196 8.26C17.7196 8.03667 17.818 7.84167 18.0146 7.675C18.2113 7.50833 18.438 7.425 18.6946 7.425C18.8146 7.425 18.9313 7.44 19.0446 7.47C19.1613 7.49667 19.273 7.54 19.3796 7.6L19.0446 8.21C19.0213 8.19 18.9913 8.165 18.9546 8.135C18.918 8.105 18.848 8.06667 18.7446 8.02C18.6446 7.97 18.5546 7.945 18.4746 7.945C18.398 7.945 18.338 7.96333 18.2946 8C18.2546 8.03333 18.2346 8.08167 18.2346 8.145C18.2346 8.205 18.2913 8.26667 18.4046 8.33C18.5213 8.39 18.648 8.44667 18.7846 8.5C18.9213 8.55 19.0463 8.635 19.1596 8.755C19.2763 8.87167 19.3346 9.01167 19.3346 9.175C19.3346 9.40833 19.238 9.61333 19.0446 9.79C18.8546 9.96667 18.6346 10.055 18.3846 10.055C18.2246 10.055 18.0746 10.02 17.9346 9.95C17.798 9.88 17.6996 9.81 17.6396 9.74L17.5496 9.635L17.9446 9.175C17.9646 9.20167 17.993 9.235 18.0296 9.275C18.0663 9.315 18.138 9.36833 18.2446 9.435C18.3546 9.50167 18.4596 9.535 18.5596 9.535ZM20.6724 9.49C20.7691 9.49 20.8708 9.465 20.9774 9.415C21.0841 9.365 21.1674 9.315 21.2274 9.265L21.3174 9.19L21.5474 9.47C21.5141 9.52667 21.4624 9.59167 21.3924 9.665C21.3224 9.73833 21.2508 9.80167 21.1774 9.855C21.1074 9.905 21.0124 9.95167 20.8924 9.995C20.7758 10.035 20.6541 10.055 20.5274 10.055C20.2574 10.055 20.0374 9.95333 19.8674 9.75C19.6974 9.54333 19.6124 9.27833 19.6124 8.955C19.6124 8.54833 19.7308 8.19167 19.9674 7.885C20.2041 7.57833 20.4808 7.425 20.7974 7.425C21.0408 7.425 21.2291 7.49333 21.3624 7.63C21.4991 7.76667 21.5674 7.95833 21.5674 8.205C21.5674 8.35167 21.5424 8.51833 21.4924 8.705L21.3924 8.81L20.1424 8.925C20.1991 9.30167 20.3758 9.49 20.6724 9.49ZM20.6724 7.94C20.5258 7.94 20.4024 8 20.3024 8.12C20.2024 8.23667 20.1441 8.38667 20.1274 8.57L20.9774 8.465C20.9874 8.38833 20.9924 8.325 20.9924 8.275C20.9924 8.05167 20.8858 7.94 20.6724 7.94ZM22.6854 9.225C22.6854 9.04833 22.747 8.89667 22.8704 8.77C22.9937 8.64 23.1304 8.53667 23.2804 8.46C22.9604 8.27 22.8004 8.03167 22.8004 7.745C22.8004 7.455 22.9037 7.21667 23.1104 7.03C23.317 6.84333 23.562 6.75 23.8454 6.75C24.1287 6.75 24.3587 6.81833 24.5354 6.955C24.7154 7.09167 24.8054 7.26167 24.8054 7.465C24.8054 7.72833 24.6487 7.98667 24.3354 8.24C24.5354 8.33333 24.692 8.44167 24.8054 8.565C24.922 8.68833 24.9804 8.84333 24.9804 9.03C24.9804 9.31 24.8604 9.55167 24.6204 9.755C24.3837 9.955 24.107 10.055 23.7904 10.055C23.477 10.055 23.2137 9.97333 23.0004 9.81C22.7904 9.64667 22.6854 9.45167 22.6854 9.225ZM24.2454 8.91C24.122 8.83667 23.9904 8.77333 23.8504 8.72C23.7104 8.66333 23.6154 8.62333 23.5654 8.6C23.3487 8.74333 23.2404 8.88833 23.2404 9.035C23.2404 9.18167 23.2987 9.3 23.4154 9.39C23.532 9.48 23.677 9.525 23.8504 9.525C24.027 9.525 24.167 9.49333 24.2704 9.43C24.377 9.36333 24.4304 9.27833 24.4304 9.175C24.4304 9.06833 24.3687 8.98 24.2454 8.91ZM23.3504 7.585C23.3504 7.67167 23.377 7.73833 23.4304 7.785C23.4837 7.83167 23.5254 7.86667 23.5554 7.89C23.5854 7.91 23.6354 7.93667 23.7054 7.97C23.8287 8.02667 23.9387 8.07333 24.0354 8.11C24.1887 7.91667 24.2654 7.76333 24.2654 7.65C24.2654 7.53333 24.2204 7.44167 24.1304 7.375C24.0437 7.305 23.932 7.27 23.7954 7.27C23.662 7.27 23.5537 7.3 23.4704 7.36C23.3904 7.42 23.3504 7.495 23.3504 7.585Z" fill="white"/>
<path d="M4 12H32V27C32 29.2091 30.2091 31 28 31H8C5.79086 31 4 29.2091 4 27V12Z" fill="#F1F1F1"/>
<path d="M11.488 20.264C11.488 19.9653 11.3067 19.816 10.944 19.816C10.72 19.816 10.472 19.864 10.2 19.96C9.93333 20.0507 9.72 20.144 9.56 20.24L9.328 20.376L9.544 19.232C9.752 19.12 10.0027 19.0213 10.296 18.936C10.5893 18.8453 10.848 18.8 11.072 18.8C11.5253 18.8 11.888 18.9173 12.16 19.152C12.4373 19.3813 12.576 19.688 12.576 20.072C12.576 20.5893 12.304 21.128 11.76 21.688L10.368 23.128L12.864 22.984L12.728 24.048L11.064 23.976L9.176 24.032L9.304 23.192L10.984 21.256C11.32 20.8773 11.488 20.5467 11.488 20.264ZM15.5743 18.808C16.1236 18.808 16.5636 19.0267 16.8943 19.464C17.2303 19.896 17.3983 20.4693 17.3983 21.184C17.3983 22.0853 17.1956 22.7947 16.7903 23.312C16.3903 23.8293 15.8383 24.088 15.1343 24.088C14.5956 24.088 14.1556 23.8693 13.8143 23.432C13.4783 22.9893 13.3103 22.4133 13.3103 21.704C13.3103 20.856 13.521 20.1627 13.9423 19.624C14.369 19.08 14.913 18.808 15.5743 18.808ZM15.3903 23.304C15.7316 23.304 15.969 23.1733 16.1023 22.912C16.241 22.6507 16.3103 22.1867 16.3103 21.52C16.3103 20.8533 16.241 20.3867 16.1023 20.12C15.9636 19.848 15.721 19.712 15.3743 19.712C15.0276 19.712 14.777 19.84 14.6223 20.096C14.473 20.3467 14.3983 20.7867 14.3983 21.416C14.3983 22.04 14.4783 22.512 14.6383 22.832C14.7983 23.1467 15.049 23.304 15.3903 23.304ZM20.1286 20.264C20.1286 19.9653 19.9473 19.816 19.5846 19.816C19.3606 19.816 19.1126 19.864 18.8406 19.96C18.574 20.0507 18.3606 20.144 18.2006 20.24L17.9686 20.376L18.1846 19.232C18.3926 19.12 18.6433 19.0213 18.9366 18.936C19.23 18.8453 19.4886 18.8 19.7126 18.8C20.166 18.8 20.5286 18.9173 20.8006 19.152C21.078 19.3813 21.2166 19.688 21.2166 20.072C21.2166 20.5893 20.9446 21.128 20.4006 21.688L19.0086 23.128L21.5046 22.984L21.3686 24.048L19.7046 23.976L17.8166 24.032L17.9446 23.192L19.6246 21.256C19.9606 20.8773 20.1286 20.5467 20.1286 20.264ZM25.3669 22.288C25.3669 22.784 25.1669 23.208 24.7669 23.56C24.3723 23.912 23.8896 24.088 23.3189 24.088C23.0523 24.088 22.7963 24.056 22.5509 23.992C22.3056 23.9227 22.1269 23.856 22.0149 23.792L21.8469 23.688L22.1829 22.752C22.3483 22.88 22.5536 22.9973 22.7989 23.104C23.0496 23.2107 23.2816 23.264 23.4949 23.264C23.7136 23.264 23.9083 23.1973 24.0789 23.064C24.2496 22.9253 24.3349 22.7573 24.3349 22.56C24.3349 22.0747 24.0096 21.7787 23.3589 21.672L22.2949 21.496V18.848L23.6709 18.944L25.2949 18.856L25.1189 19.96L23.0629 19.776V20.712L23.9349 20.864C24.3829 20.944 24.7323 21.112 24.9829 21.368C25.2389 21.624 25.3669 21.9307 25.3669 22.288Z" fill="#353535"/>
</svg>
