<svg width="180" height="180" viewBox="0 0 180 180" fill="none" xmlns="http://www.w3.org/2000/svg">
<g clip-path="url(#clip0_626_6111)">
<mask id="mask0_626_6111" style="mask-type:alpha" maskUnits="userSpaceOnUse" x="-13" y="61" width="181" height="131">
<path d="M66.1721 153.531C66.1721 131.312 51.9765 118.778 34.374 118.778C27.5601 118.778 22.4497 120.488 18.475 122.766C18.475 104.535 34.374 89.7225 56.5191 85.1647V61.2363C16.7715 66.9336 -12.1875 99.9775 -12.1875 141.567C-12.1875 172.332 5.98285 191.133 28.6958 191.133C51.4087 191.133 66.1721 175.181 66.1721 153.531ZM167.812 153.531C167.812 131.312 153.049 118.778 135.447 118.778C129.201 118.778 124.09 119.918 120.115 122.197C120.115 104.535 136.014 89.7225 158.16 85.1647V61.2363C118.412 66.9336 88.8851 99.9775 88.8851 141.567C88.8851 172.332 107.055 191.133 130.336 191.133C152.481 191.133 167.812 175.181 167.812 153.531Z" fill="#F5F5F5"/>
</mask>
<g mask="url(#mask0_626_6111)">
<g style="mix-blend-mode:multiply" filter="url(#filter0_f_626_6111)">
<ellipse cx="22.5098" cy="41.1631" rx="22.5098" ry="41.1631" transform="matrix(0.9857 0.168509 -0.163504 0.986543 14.3984 83.6152)" fill="#C5A78C"/>
</g>
</g>
<mask id="mask1_626_6111" style="mask-type:alpha" maskUnits="userSpaceOnUse" x="109" y="115" width="74" height="53">
<path d="M150.979 131.019C150.979 139.907 156.746 144.921 163.897 144.921C166.665 144.921 168.741 144.237 170.356 143.325C170.356 150.618 163.897 156.543 154.9 158.366L154.9 167.938C171.048 165.659 182.812 152.441 182.812 135.805C182.812 123.499 175.431 115.979 166.204 115.979C156.977 115.979 150.979 122.36 150.979 131.019ZM109.687 131.019C109.687 139.907 115.685 144.921 122.836 144.921C125.374 144.921 127.45 144.465 129.064 143.553C129.064 150.618 122.605 156.543 113.609 158.366L113.609 167.938C129.757 165.659 141.752 152.441 141.752 135.805C141.752 123.499 134.37 115.979 124.912 115.979C115.916 115.979 109.687 122.36 109.687 131.019Z" fill="#F5F5F5"/>
</mask>
<g mask="url(#mask1_626_6111)">
<g style="mix-blend-mode:multiply" filter="url(#filter1_f_626_6111)">
<circle cx="139.219" cy="141.094" r="15" transform="rotate(180 139.219 141.094)" fill="#012B48"/>
</g>
</g>
</g>
<defs>
<filter id="filter0_f_626_6111" x="-30.8359" y="49.7285" width="121.384" height="156.578" filterUnits="userSpaceOnUse" color-interpolation-filters="sRGB">
<feFlood flood-opacity="0" result="BackgroundImageFix"/>
<feBlend mode="normal" in="SourceGraphic" in2="BackgroundImageFix" result="shape"/>
<feGaussianBlur stdDeviation="18.75" result="effect1_foregroundBlur_626_6111"/>
</filter>
<filter id="filter1_f_626_6111" x="97.9688" y="99.8438" width="82.5" height="82.5" filterUnits="userSpaceOnUse" color-interpolation-filters="sRGB">
<feFlood flood-opacity="0" result="BackgroundImageFix"/>
<feBlend mode="normal" in="SourceGraphic" in2="BackgroundImageFix" result="shape"/>
<feGaussianBlur stdDeviation="13.125" result="effect1_foregroundBlur_626_6111"/>
</filter>
<clipPath id="clip0_626_6111">
<rect width="180" height="180" rx="90" fill="white"/>
</clipPath>
</defs>
</svg>
