<svg width="16" height="16" viewBox="0 0 16 16" fill="none" xmlns="http://www.w3.org/2000/svg">
<path d="M11.0677 3.88C10.612 3.35975 10.3609 2.69162 10.3611 2H8.30108V10.2667C8.28519 10.714 8.09633 11.1377 7.77426 11.4486C7.45219 11.7595 7.02205 11.9333 6.57441 11.9333C5.62775 11.9333 4.84108 11.16 4.84108 10.2C4.84108 9.05333 5.94775 8.19333 7.08775 8.54667V6.44C4.78775 6.13333 2.77441 7.92 2.77441 10.2C2.77441 12.42 4.61441 14 6.56775 14C8.66108 14 10.3611 12.3 10.3611 10.2V6.00667C11.1964 6.60657 12.1993 6.92843 13.2277 6.92667V4.86667C13.2277 4.86667 11.9744 4.92667 11.0677 3.88Z" fill="white"/>
</svg>
