<svg width="16" height="16" viewBox="0 0 16 16" fill="none" xmlns="http://www.w3.org/2000/svg">
<path d="M6.66683 9.99998L10.1268 7.99998L6.66683 5.99998V9.99998ZM14.3735 4.77998C14.4602 5.09331 14.5202 5.51331 14.5602 6.04665C14.6068 6.57998 14.6268 7.03998 14.6268 7.43998L14.6668 7.99998C14.6668 9.45998 14.5602 10.5333 14.3735 11.22C14.2068 11.82 13.8202 12.2066 13.2202 12.3733C12.9068 12.46 12.3335 12.52 11.4535 12.56C10.5868 12.6066 9.7935 12.6266 9.06016 12.6266L8.00016 12.6666C5.20683 12.6666 3.46683 12.56 2.78016 12.3733C2.18016 12.2066 1.7935 11.82 1.62683 11.22C1.54016 10.9066 1.48016 10.4866 1.44016 9.95331C1.3935 9.41998 1.3735 8.95998 1.3735 8.55998L1.3335 7.99998C1.3335 6.53998 1.44016 5.46665 1.62683 4.77998C1.7935 4.17998 2.18016 3.79331 2.78016 3.62665C3.0935 3.53998 3.66683 3.47998 4.54683 3.43998C5.4135 3.39331 6.20683 3.37331 6.94016 3.37331L8.00016 3.33331C10.7935 3.33331 12.5335 3.43998 13.2202 3.62665C13.8202 3.79331 14.2068 4.17998 14.3735 4.77998Z" fill="white"/>
</svg>
