<svg width="123" height="44" viewBox="0 0 123 44" fill="none" xmlns="http://www.w3.org/2000/svg">
<g clip-path="url(#clip0_684_1369)">
<path d="M17.9958 17.4167H11.0572V18.1775C13.0497 18.3622 13.2581 18.52 13.2581 20.6998V24.878H4.76415V20.6998C4.76415 18.4932 4.97102 18.3622 6.9137 18.1775V17.4167H0V18.1775C2.1231 18.3622 2.32997 18.4932 2.32997 20.6998V31.2122C2.32997 33.4189 2.1231 33.5499 0.0777694 33.7346V34.4954H7.04279V33.7346C4.97102 33.5499 4.76415 33.4189 4.76415 31.2122V26.035H13.2581V31.2122C13.2581 33.4189 13.0497 33.5499 10.8753 33.7346V34.4954H17.9958V33.7346C15.8992 33.5499 15.6907 33.4189 15.6907 31.2122V20.6998C15.6907 18.4932 15.8992 18.3622 17.9958 18.1775V17.4167ZM29.725 33.4457L29.4668 32.7354C29.2071 32.8664 28.8447 32.999 28.5351 32.999C28.095 32.999 27.6548 32.6312 27.6548 31.4474V26.6648C27.6548 25.2457 27.395 24.1692 26.4369 23.3816C25.8676 22.9081 25.0651 22.6713 24.2625 22.6713C22.7864 22.9602 21.0506 23.9593 20.3009 24.5102C19.783 24.9048 19.4454 25.1937 19.4454 25.6151C19.4454 26.2449 20.1718 26.7705 20.6633 26.7705C21.0771 26.7705 21.3617 26.5874 21.4923 26.1139C21.6992 25.2994 21.9325 24.7217 22.242 24.3539C22.5018 24.0382 22.8906 23.8536 23.3557 23.8536C24.5984 23.8536 25.4275 24.9048 25.4275 26.7437V27.2693C24.8582 27.7428 22.942 28.4531 21.3881 29.004C19.9898 29.4775 19.3164 30.2652 19.3164 31.58C19.3164 33.2089 20.6104 34.8111 22.5018 34.8111C23.2266 34.8111 24.4693 33.8656 25.5052 33.1553C25.6079 33.5767 25.7899 33.9445 26.1258 34.2854C26.412 34.5743 26.9549 34.8111 27.395 34.8111L29.725 33.4457ZM25.4275 32.3156C24.9609 32.7623 24.1583 33.1553 23.5377 33.1553C22.76 33.1553 21.7505 32.5255 21.7505 31.1586C21.7505 30.1862 22.2949 29.7143 23.253 29.2408C23.8223 28.9772 24.8831 28.4784 25.4275 28.1895V32.3156ZM36.3027 34.4954V33.7867C34.6462 33.6288 34.4378 33.471 34.4378 31.7363V15.8398C33.4797 16.154 31.7968 16.6006 30.4249 16.7585V17.3899C32.0301 17.5477 32.1856 17.6266 32.1856 19.3598V31.7363C32.1856 33.471 31.9788 33.6036 30.3472 33.7867V34.4954H36.3027ZM43.372 22.6713C40.9113 22.6713 37.5968 24.668 37.5968 29.004C37.5968 31.8941 39.695 34.8111 43.3455 34.8111C45.9866 34.8111 49.0165 32.7875 49.0165 28.5305C49.0165 25.3247 46.6336 22.6713 43.372 22.6713ZM43.0609 23.5647C45.2104 23.5647 46.3754 25.9829 46.3754 29.1618C46.3754 32.8143 45.1062 33.9177 43.6302 33.9177C41.5584 33.9177 40.2379 31.4474 40.2379 28.1374C40.2379 25.1416 41.5584 23.5647 43.0609 23.5647ZM74.7286 17.4167H67.7884V18.1775C69.7824 18.3622 69.9893 18.52 69.9893 20.6998V24.878H61.4969V20.6998C61.4969 18.4932 61.7038 18.3622 63.6464 18.1775V17.4167H56.7327V18.1775C58.8558 18.3622 59.0627 18.4932 59.0627 20.6998V31.2122C59.0627 33.4189 58.8558 33.5499 56.8105 33.7346V34.4954H63.7755V33.7346C61.7038 33.5499 61.4969 33.4189 61.4969 31.2122V26.035H69.9893V31.2122C69.9893 33.4189 69.7824 33.5499 67.608 33.7346V34.4954H74.7286V33.7346C72.6304 33.5499 72.4235 33.4189 72.4235 31.2122V20.6998C72.4235 18.4932 72.6304 18.3622 74.7286 18.1775V17.4167ZM86.4577 33.4457L86.1996 32.7354C85.9398 32.8664 85.5774 32.999 85.2663 32.999C84.8277 32.999 84.386 32.6312 84.386 31.4474V26.6648C84.386 25.2457 84.1278 24.1692 83.1697 23.3816C82.6004 22.9081 81.7978 22.6713 80.9952 22.6713C79.5192 22.9602 77.7833 23.9593 77.0337 24.5102C76.5157 24.9048 76.1782 25.1937 76.1782 25.6151C76.1782 26.2449 76.903 26.7705 77.3961 26.7705C77.8098 26.7705 78.0944 26.5874 78.2235 26.1139C78.432 25.2994 78.6637 24.7217 78.9748 24.3539C79.2345 24.0382 79.6218 23.8536 80.0884 23.8536C81.3312 23.8536 82.1602 24.9048 82.1602 26.7437V27.2693C81.5894 27.7428 79.6747 28.4531 78.1209 29.004C76.7226 29.4775 76.0491 30.2652 76.0491 31.58C76.0491 33.2089 77.3432 34.8111 79.2345 34.8111C79.9593 34.8111 81.2021 33.8656 82.238 33.1553C82.3406 33.5767 82.5226 33.9445 82.8586 34.2854C83.1432 34.5743 83.6876 34.8111 84.1278 34.8111L86.4577 33.4457ZM82.1602 32.3156C81.6936 32.7623 80.891 33.1553 80.2689 33.1553C79.4927 33.1553 78.4833 32.5255 78.4833 31.1586C78.4833 30.1862 79.0261 29.7143 79.9842 29.2408C80.5551 28.9772 81.6158 28.4784 82.1602 28.1895V32.3156ZM89.9543 20.4899C90.7304 20.4899 91.3526 19.8333 91.3526 19.0709C91.3526 18.2312 90.7304 17.5998 89.9791 17.5998C89.203 17.5998 88.556 18.2312 88.556 19.0709C88.556 19.8333 89.203 20.4899 89.9543 20.4899ZM93.0604 34.4954V33.7867C91.4039 33.6288 91.2483 33.471 91.2483 31.6842V22.6445C90.0569 23.0912 88.7364 23.4337 87.391 23.6436V24.3003C88.867 24.537 88.9697 24.6428 88.9697 26.297V31.6842C88.9697 33.471 88.7893 33.6288 87.1826 33.7867V34.4954H93.0604ZM98.3176 25.4573V22.6192C96.997 23.1448 95.8056 23.459 94.4851 23.6705V24.275C95.9098 24.5102 96.0389 24.5891 96.0389 26.2717V31.7631C96.0389 33.471 95.8569 33.6288 94.2782 33.7867V34.4954H100.441V33.7867C98.4467 33.6288 98.3176 33.471 98.3176 31.7631V26.9284C98.8604 25.5362 99.6381 24.8527 100.259 24.8527C100.699 24.8527 101.01 25.0106 101.399 25.3783C101.554 25.5362 101.788 25.5883 102.097 25.4573C102.642 25.1937 103.004 24.6428 103.004 24.0382C103.004 23.3816 102.383 22.6713 101.45 22.6713C100.259 22.6713 99.1715 24.0635 98.3689 25.4573H98.3176Z" fill="white"/>
<path fill-rule="evenodd" clip-rule="evenodd" d="M77.9545 41.4377H80.258V41.7581C80.258 42.399 80.0496 42.9246 79.6328 43.3334C79.2206 43.7391 78.6762 43.9411 78.0012 43.9411C77.2903 43.9411 76.7024 43.7075 76.2373 43.2403C75.777 42.7731 75.5468 42.1985 75.5468 41.5182C75.5468 40.8411 75.777 40.2697 76.2373 39.8009C76.7024 39.3289 77.2779 39.0938 77.9623 39.0938C78.3869 39.0938 78.7773 39.1932 79.1335 39.3937C79.4928 39.5894 79.7712 39.8593 79.9687 40.2018L79.317 40.5822C79.1941 40.3565 79.0122 40.175 78.7711 40.0424C78.53 39.9082 78.2593 39.8419 77.9623 39.8419C77.4785 39.8419 77.0819 40.0014 76.7708 40.3218C76.4598 40.6469 76.3042 41.0479 76.3042 41.5245C76.3042 42.0044 76.4598 42.4037 76.7708 42.7194C77.0913 43.0351 77.5034 43.1929 78.0074 43.1929C78.4118 43.1929 78.7431 43.0982 79.0013 42.9057C79.2595 42.7147 79.4243 42.4542 79.4943 42.1243H77.9545V41.4377Z" fill="white"/>
<path fill-rule="evenodd" clip-rule="evenodd" d="M84.403 43.8534H83.574L82.6003 42.1503H81.706V43.8534H80.9501V39.1797H82.7916C83.2038 39.1797 83.5522 39.3265 83.8369 39.6201C84.1277 39.9058 84.2724 40.2593 84.2724 40.6824C84.2724 40.9807 84.1868 41.2538 84.0157 41.5031C83.8478 41.7478 83.6284 41.9262 83.3578 42.0367L84.403 43.8534ZM82.7916 39.901H81.706V41.4637H82.7916C82.9938 41.4637 83.1649 41.3879 83.3049 41.2364C83.4449 41.0849 83.5149 40.9002 83.5149 40.6824C83.5149 40.4645 83.4449 40.2799 83.3049 40.1283C83.1649 39.9768 82.9938 39.901 82.7916 39.901Z" fill="white"/>
<path fill-rule="evenodd" clip-rule="evenodd" d="M88.8017 43.2403C88.3398 43.7075 87.7767 43.9411 87.1094 43.9411C86.4437 43.9411 85.8776 43.7075 85.4125 43.2403C84.9521 42.7683 84.7219 42.1938 84.7219 41.5182C84.7219 40.8411 84.9521 40.2697 85.4125 39.8009C85.8776 39.3289 86.4437 39.0938 87.1094 39.0938C87.7767 39.0938 88.3398 39.3289 88.8017 39.8009C89.2652 40.2697 89.4985 40.8411 89.4985 41.5182C89.4985 42.1938 89.2652 42.7683 88.8017 43.2403ZM85.946 42.7194C86.2664 43.0351 86.6537 43.1929 87.1094 43.1929C87.5714 43.1929 87.9571 43.0351 88.2682 42.7194C88.5839 42.399 88.741 41.9981 88.741 41.5182C88.741 41.0368 88.5839 40.639 88.2682 40.3218C87.9571 40.0014 87.5714 39.8419 87.1094 39.8419C86.649 39.8419 86.2618 40.0014 85.946 40.3218C85.6334 40.639 85.4778 41.0368 85.4778 41.5182C85.4778 41.9933 85.6334 42.3943 85.946 42.7194Z" fill="white"/>
<path fill-rule="evenodd" clip-rule="evenodd" d="M90.1035 42.305V39.1797H90.861V42.2576C90.861 42.5465 90.9434 42.7769 91.1099 42.9458C91.2809 43.11 91.5267 43.1921 91.8471 43.1921C92.1675 43.1921 92.4102 43.11 92.5781 42.9458C92.7492 42.7769 92.8348 42.5465 92.8348 42.2576V39.1797H93.5907V42.305C93.5907 42.799 93.4274 43.1968 93.1039 43.4999C92.7835 43.7935 92.3651 43.9402 91.8471 43.9402C91.3292 43.9402 90.9108 43.7935 90.5904 43.4999C90.2668 43.1968 90.1035 42.799 90.1035 42.305Z" fill="white"/>
<path fill-rule="evenodd" clip-rule="evenodd" d="M94.4602 39.1797H96.1587C96.5926 39.1797 96.9535 39.3265 97.2444 39.6201C97.5383 39.9137 97.6845 40.2799 97.6845 40.7155C97.6845 41.1464 97.5383 41.5126 97.2444 41.8109C96.9535 42.1045 96.5926 42.2513 96.1587 42.2513H95.2177V43.8534H94.4602V39.1797ZM95.2177 41.53H96.1587C96.3811 41.53 96.5662 41.4542 96.7109 41.3027C96.8555 41.1464 96.9286 40.9507 96.9286 40.7155C96.9286 40.4787 96.8555 40.2862 96.7109 40.1346C96.5662 39.9784 96.3811 39.901 96.1587 39.901H95.2177V41.53Z" fill="white"/>
<path fill-rule="evenodd" clip-rule="evenodd" d="M109.789 0.232222C109.829 0.339555 109.753 0.427948 109.589 0.467409C108.966 0.612625 107.064 1.46498 106.224 1.97324C105.99 2.1153 105.58 2.30629 105.312 2.39784C104.525 2.66775 102.82 3.54062 102.82 3.67637C102.82 3.74424 102.908 3.76634 103.013 3.72372C103.845 3.40014 103.85 3.49011 103.044 4.29985C101.405 5.94932 100.514 7.52144 100.077 9.53236C99.9103 10.2995 99.8776 12.6577 100.019 13.6789C100.15 14.6339 100.476 16.0781 100.704 16.7127C100.753 16.85 100.546 16.6274 100.248 16.2186C99.9461 15.8098 99.607 15.3963 99.4919 15.3C99.2959 15.1358 99.2912 15.1484 99.4375 15.4846C99.5961 15.8508 100.254 16.8752 100.984 17.8902C101.204 18.1964 101.55 18.7804 101.753 19.1892C101.956 19.598 102.222 20.0763 102.343 20.2531C102.475 20.4425 102.537 20.6809 102.495 20.8419C102.446 21.0376 102.481 21.1086 102.632 21.1086C102.852 21.1086 102.831 20.9555 102.5 20.13C102.407 19.8995 102.346 19.6928 102.366 19.6738C102.385 19.6549 102.701 19.9311 103.066 20.2894C104.758 21.9468 106.766 23.1685 108.717 23.7304C109.512 23.9593 109.988 24.0098 111.33 24.0082C112.882 24.005 113.039 23.9814 114.217 23.5725C114.903 23.3358 115.463 23.1527 115.463 23.1653C115.463 23.1795 115.166 23.391 114.8 23.6388C114.119 24.0997 113.892 24.3286 114.12 24.3286C114.341 24.3286 115.119 23.863 116.194 23.0848C116.761 22.6744 117.719 22.0257 118.32 21.6437C119.57 20.8497 120.846 19.778 120.743 19.6075C120.704 19.5444 120.745 19.5081 120.835 19.527C120.93 19.5475 120.98 19.4702 120.958 19.336C120.936 19.2113 120.972 19.044 121.037 18.9635C121.102 18.8846 121.194 18.5389 121.244 18.1996C121.292 17.8586 121.51 17.0236 121.729 16.3417C122.006 15.4768 122.148 14.7491 122.202 13.9267C122.274 12.8423 122.163 11.2387 121.975 10.6467C121.931 10.5094 122.036 10.6973 122.205 11.065C122.375 11.4312 122.515 11.8621 122.515 12.0231C122.515 12.2346 122.583 12.3183 122.757 12.3183C122.891 12.3183 123 12.2709 123 12.2157C123 11.7864 121.011 7.55143 120.006 5.84198C119.113 4.32195 117.765 2.62513 117.592 2.80191C117.561 2.83506 117.629 2.98817 117.744 3.14286C117.861 3.29754 118.068 3.57219 118.203 3.75371C118.917 4.69919 118.881 4.78285 118.069 4.08045C115.912 2.21632 114.116 1.4855 111.33 1.33713C110.628 1.29924 109.645 1.32766 109.146 1.40026C108.25 1.5297 107.916 1.50602 108.365 1.34344C108.491 1.29767 108.992 1.07353 109.479 0.844655C109.964 0.61736 110.417 0.429526 110.482 0.429526C110.548 0.429526 110.6 0.367967 110.6 0.292202C110.6 0.214859 110.493 0.181712 110.358 0.218016C110.224 0.25432 110.114 0.232222 110.114 0.170663C110.114 0.109104 110.027 0.0585938 109.919 0.0585938C109.801 0.0585938 109.75 0.128045 109.789 0.232222ZM105.701 1.00408C105.603 1.10352 105.713 1.29767 105.866 1.29767C105.93 1.29767 105.981 1.21401 105.981 1.11141C105.981 0.92042 105.838 0.865174 105.701 1.00408ZM117.007 1.74752C116.909 1.84696 117.02 2.03953 117.172 2.03953C117.236 2.03953 117.287 1.95587 117.287 1.85485C117.287 1.66228 117.144 1.60862 117.007 1.74752ZM108.351 2.10582C106.966 2.30786 105.875 2.63934 106.109 2.78771C106.202 2.84611 106.252 2.91398 106.22 2.93924C106.189 2.96292 105.867 3.19968 105.507 3.46486C105.146 3.73003 104.912 3.96838 104.99 3.99363C105.208 4.06782 105.155 4.26828 104.917 4.26828C104.799 4.26828 104.645 4.36614 104.575 4.48611C104.505 4.60449 104.315 4.92491 104.153 5.19798L103.859 5.69203L104.525 5.12379C105.822 4.01731 106.994 3.32911 108.412 2.84138C109.196 2.57304 109.537 2.52885 110.843 2.52885C111.68 2.53042 112.551 2.58567 112.781 2.65354C113.42 2.84453 113.355 2.72457 112.65 2.41678C111.509 1.91641 110.265 1.82644 108.351 2.10582ZM111.521 3.4033C111.86 3.46644 112.462 3.60692 112.859 3.71583C113.254 3.82474 113.842 3.98574 114.162 4.07413C114.679 4.21777 114.741 4.21461 114.71 4.04257C114.654 3.75213 113.394 3.42224 112.067 3.35121C111.122 3.29912 111.02 3.31017 111.521 3.4033ZM115.463 3.31491C115.463 3.36542 116.853 4.25092 117.105 4.36141C117.172 4.38982 117.09 4.29985 116.923 4.16095C116.592 3.88472 115.463 3.23125 115.463 3.31491ZM101.97 3.52642C101.97 3.59429 102.051 3.64953 102.152 3.64953C102.253 3.64953 102.334 3.59429 102.334 3.52642C102.334 3.45697 102.253 3.40172 102.152 3.40172C102.051 3.40172 101.97 3.45697 101.97 3.52642ZM108.717 3.59745C108.124 3.73793 107.938 3.80738 106.868 4.28407C106.16 4.59975 105.177 5.25796 104.497 5.87039L103.925 6.38496L104.435 6.90427L104.874 6.4118C106.342 4.76865 108.305 3.77423 110.079 3.77423C110.91 3.77423 110.877 3.69689 109.988 3.55799C109.555 3.49011 109.112 3.50432 108.717 3.59745ZM103.583 4.80021C102.57 5.87513 101.682 7.28941 101.777 7.6777C101.83 7.89237 101.786 8.00917 101.618 8.10072C101.491 8.17017 101.299 8.49218 101.193 8.81733L101.001 9.40767L101.31 9.03516C101.663 8.61371 102.699 7.04159 102.699 6.92952C102.699 6.88848 103.083 6.23817 103.553 5.48368C104.024 4.72918 104.388 4.0915 104.363 4.06624C104.338 4.04099 103.987 4.37088 103.583 4.80021ZM115.22 4.26828C115.058 4.37562 115.058 4.38982 115.22 4.39298C115.321 4.39613 115.719 4.53188 116.107 4.69288C116.892 5.02277 116.853 4.79864 116.054 4.38351C115.531 4.11202 115.472 4.10412 115.22 4.26828ZM109.323 4.50978C107.861 4.92018 106.329 5.79779 105.337 6.79378C104.225 7.90658 103.987 8.23015 103.267 9.59235C102.915 10.2569 102.906 10.32 102.909 12.0074C102.911 13.4358 102.959 13.9062 103.181 14.6702C104.013 17.5208 105.777 19.5617 108.588 20.9271L109.554 21.3975L110.927 21.2522C113.731 20.9539 115.596 20.0479 117.293 18.1617C118.152 17.2083 118.797 16.0939 119.21 14.858C119.465 14.0909 119.488 13.8573 119.416 12.8755C119.336 11.7943 119.08 10.4084 118.883 9.98695C117.849 7.77557 117.231 6.91058 115.931 5.85461C115.442 5.45842 114.686 4.9549 114.249 4.7355C113.49 4.35352 113.389 4.33615 111.817 4.30459C110.499 4.27933 110.008 4.32037 109.323 4.50978ZM116.264 5.29584C118.012 6.53334 119.345 8.67843 119.647 10.7383C119.695 11.0619 119.777 11.327 119.832 11.327C119.992 11.327 120.082 10.4337 119.969 9.96486C119.78 9.18353 119.259 8.05179 119.031 7.92236C118.72 7.74873 118.62 7.583 118.69 7.35254C118.822 6.92163 117.435 5.43948 116.68 5.20587C116.379 5.11274 116.023 4.99594 115.889 4.94701C115.755 4.89966 115.925 5.05592 116.264 5.29584ZM100.753 5.3211C100.753 5.4237 100.808 5.50735 100.875 5.50735C100.942 5.50735 100.996 5.4237 100.996 5.3211C100.996 5.2185 100.942 5.13484 100.875 5.13484C100.808 5.13484 100.753 5.2185 100.753 5.3211ZM118.685 6.01087C118.886 6.2429 119.08 6.46073 119.119 6.49545C119.346 6.70696 120.034 7.86554 120.319 8.51743C120.911 9.87804 121.095 11.0035 121.031 12.9118L120.976 14.6086L121.194 14.113C121.449 13.5384 121.491 12.6198 121.269 12.514C121.148 12.4556 121.148 12.4272 121.269 12.3688C121.714 12.1573 121.102 9.03674 120.361 7.744C119.989 7.09368 119.214 6.21449 118.693 5.84987L118.32 5.58943L118.685 6.01087ZM103.226 7.14735C102.662 7.79135 101.823 10.6957 101.859 11.8842C101.869 12.181 101.917 12.1068 102.1 11.5133C102.226 11.1045 102.332 10.672 102.332 10.5536C102.334 10.4337 102.379 10.3358 102.433 10.3358C102.488 10.3358 102.634 9.87646 102.758 9.31454C102.883 8.75262 103.108 7.97287 103.257 7.58142C103.408 7.18997 103.517 6.86954 103.5 6.86954C103.485 6.86954 103.36 6.99424 103.226 7.14735ZM103.685 7.27362C103.631 7.42515 103.545 7.71716 103.497 7.92078C103.415 8.27277 103.43 8.2633 103.783 7.76767C104.217 7.1584 104.216 7.16629 103.971 7.07C103.85 7.02423 103.751 7.09368 103.685 7.27362ZM99.0797 7.51197C99.1544 7.74084 99.4157 7.77872 99.4157 7.5609C99.4157 7.45199 99.3301 7.36359 99.2244 7.36359C99.117 7.36359 99.0533 7.42989 99.0797 7.51197ZM101.361 9.65548C101.05 10.1669 100.946 10.2064 101.027 9.7786C101.058 9.60971 101.049 9.46923 101.007 9.46923C100.89 9.46923 100.632 10.9956 100.632 11.6964C100.632 12.0405 100.7 12.4383 100.784 12.5835C100.906 12.7934 100.906 12.8565 100.784 12.9007C100.291 13.0823 101.189 17.4577 101.89 18.2879C102.152 18.5989 102.184 18.6084 102.372 18.4158C102.519 18.2674 102.612 18.2469 102.708 18.3448C102.803 18.4426 102.769 18.5326 102.579 18.6668C102.324 18.8483 102.338 18.8704 103.293 19.7275C104.138 20.4867 105.054 21.1086 105.323 21.1086C105.37 21.1086 104.99 20.6777 104.483 20.1489C103.186 18.8009 102.232 17.4277 101.739 16.1949C101.638 15.9408 101.522 15.8256 101.411 15.8682C101.211 15.9455 101.183 15.7688 101.366 15.5825C101.453 15.4925 101.445 15.341 101.34 15.0932C101.237 14.8501 101.19 14.1004 101.197 12.8124C101.206 11.2781 101.256 10.7257 101.45 10.058C101.584 9.59866 101.677 9.22141 101.659 9.22141C101.64 9.22141 101.506 9.41714 101.361 9.65548ZM98.8091 10.3358C98.8091 10.4037 98.89 10.4605 98.9911 10.4605C99.0906 10.4605 99.173 10.4037 99.173 10.3358C99.173 10.2679 99.0906 10.2127 98.9911 10.2127C98.89 10.2127 98.8091 10.2679 98.8091 10.3358ZM120.217 11.8842C120.208 12.293 120.121 12.9607 120.025 13.3695C119.928 13.7784 119.847 14.3529 119.844 14.6465C119.838 15.3584 119.589 16.9321 119.458 17.0789C119.399 17.1467 119.351 16.9336 119.35 16.5832L119.346 15.9708L118.925 16.8105C117.85 18.9572 116.39 20.3462 114.439 21.0723C113.747 21.3312 112.668 21.5948 112.283 21.5995C112.022 21.6042 111.972 21.6516 112.024 21.8521C112.059 21.991 112.028 22.0999 111.952 22.0999C111.877 22.0999 111.817 22.0162 111.817 21.9136C111.817 21.7731 111.675 21.7305 111.238 21.7353C110.733 21.7431 110.698 21.7589 110.961 21.8663C111.128 21.9341 111.302 22.0525 111.349 22.1314C111.475 22.3366 113.089 22.0415 114.304 21.59C115.909 20.995 116.939 20.3147 118.115 19.0724C118.698 18.4553 119.345 17.6724 119.55 17.333C119.992 16.6038 120.339 15.2731 120.109 15.1942C119.905 15.1248 119.922 14.5471 120.127 14.5471C120.426 14.5471 120.555 12.7255 120.334 11.6364C120.236 11.1534 120.233 11.1597 120.217 11.8842ZM119.867 11.8227C119.867 12.061 119.894 12.1573 119.923 12.0389C119.955 11.919 119.955 11.7248 119.923 11.6049C119.894 11.4865 119.867 11.5843 119.867 11.8227ZM102.212 12.2047C102.211 12.3009 102.13 12.5377 102.03 12.7319C101.872 13.0412 101.872 13.2038 102.027 14.094C102.285 15.5604 102.416 15.9803 102.956 17.0978C103.698 18.6305 105.038 20.2342 106.605 21.4559C106.763 21.579 108.006 21.9752 108.236 21.9752C108.266 21.9752 108.291 21.8931 108.291 21.7905C108.291 21.6847 108.182 21.6042 108.04 21.6042C107.623 21.6042 106.71 21.3343 106.71 21.2128C106.71 21.1449 107.029 21.1276 107.471 21.1717L108.23 21.2459L107.561 20.8939C106.614 20.3936 105.989 19.9721 105.321 19.3834C104.645 18.7867 103.629 17.6013 103.41 17.1515C103.324 16.9778 103.194 16.7537 103.119 16.6511C103.043 16.5501 102.886 16.1318 102.769 15.723C102.652 15.3142 102.526 14.8959 102.491 14.7933C102.455 14.6923 102.4 14.0514 102.369 13.3711C102.338 12.6892 102.292 12.1084 102.264 12.08C102.236 12.0515 102.212 12.1068 102.212 12.2047ZM99.0517 14.8659C99.0517 14.9732 99.1155 15.0395 99.1964 15.0127C99.4219 14.9369 99.4592 14.6702 99.2446 14.6702C99.1373 14.6702 99.0517 14.7586 99.0517 14.8659ZM120.546 16.5012C120.09 17.4829 119.799 18.2611 119.864 18.3274C119.945 18.4095 120.771 16.6511 120.869 16.187C120.916 15.9661 120.936 15.7861 120.913 15.7893C120.891 15.7924 120.726 16.1129 120.546 16.5012ZM99.8403 17.8902C99.7999 17.9596 99.8527 18.0496 99.9616 18.0922C100.193 18.1822 100.324 18.0827 100.212 17.8981C100.111 17.7308 99.9398 17.7276 99.8403 17.8902ZM118.914 19.0961C118.388 19.7985 117.183 20.9492 116.466 21.4338C115.66 21.9799 114.937 22.3051 113.871 22.6065C112.818 22.9049 110.073 22.9333 108.96 22.6586C107.611 22.3272 107.692 22.4582 109.082 22.8575C109.854 23.0785 110.381 23.1385 111.646 23.1432C112.745 23.1495 113.294 23.1053 113.419 22.9996C113.52 22.9143 113.632 22.8765 113.669 22.9143C113.772 23.0185 115.302 22.6034 116.133 22.2467C116.908 21.912 117.95 21.0976 118.441 20.4409C118.718 20.0716 119.406 18.632 119.306 18.632C119.281 18.632 119.105 18.8404 118.914 19.0961ZM106.771 19.2524C106.729 19.3218 106.784 19.4118 106.891 19.4544C107.123 19.5444 107.253 19.4449 107.141 19.2603C107.04 19.0929 106.869 19.0898 106.771 19.2524ZM103.671 19.8096C103.671 19.9106 103.726 19.9942 103.793 19.9942C103.859 19.9942 103.914 19.9106 103.914 19.8096C103.914 19.707 103.859 19.6233 103.793 19.6233C103.726 19.6233 103.671 19.707 103.671 19.8096ZM119.16 20.5088L118.928 20.7756L119.262 20.5577C119.608 20.3304 119.673 20.2421 119.494 20.2421C119.438 20.2421 119.287 20.362 119.16 20.5088ZM105.981 20.613C105.981 20.6824 106.032 20.7377 106.096 20.7377C106.158 20.7377 106.244 20.6824 106.284 20.613C106.326 20.5467 106.275 20.4899 106.171 20.4899C106.067 20.4899 105.981 20.5467 105.981 20.613ZM108.779 21.6942C108.785 22.0462 109.05 22.1456 110.075 22.1819L111.148 22.2198L110.237 21.9752C108.869 21.609 108.778 21.5916 108.779 21.6942ZM113.518 24.1471C113.518 24.3476 113.708 24.3918 113.814 24.2181C113.851 24.1566 113.8 24.0745 113.7 24.035C113.59 23.9924 113.518 24.0366 113.518 24.1471ZM109.263 24.4533C109.263 24.5212 109.317 24.5764 109.384 24.5764C109.453 24.5764 109.507 24.5212 109.507 24.4533C109.507 24.3839 109.453 24.3286 109.384 24.3286C109.317 24.3286 109.263 24.3839 109.263 24.4533Z" fill="white"/>
</g>
<defs>
<clipPath id="clip0_684_1369">
<rect width="123" height="44" fill="white"/>
</clipPath>
</defs>
</svg>
