<svg width="123" height="44" viewBox="0 0 123 44" fill="none" xmlns="http://www.w3.org/2000/svg">
<g clip-path="url(#clip0_1553_1133)">
<path d="M17.9958 17.4169H11.0572V18.1778C13.0497 18.3624 13.2581 18.5203 13.2581 20.7001V24.8782H4.76415V20.7001C4.76415 18.4934 4.97102 18.3624 6.9137 18.1778V17.4169H0V18.1778C2.1231 18.3624 2.32997 18.4934 2.32997 20.7001V31.2125C2.32997 33.4191 2.1231 33.5501 0.0777694 33.7348V34.4956H7.04279V33.7348C4.97102 33.5501 4.76415 33.4191 4.76415 31.2125V26.0352H13.2581V31.2125C13.2581 33.4191 13.0497 33.5501 10.8753 33.7348V34.4956H17.9958V33.7348C15.8992 33.5501 15.6907 33.4191 15.6907 31.2125V20.7001C15.6907 18.4934 15.8992 18.3624 17.9958 18.1778V17.4169ZM29.725 33.446L29.4668 32.7357C29.2071 32.8667 28.8447 32.9993 28.5351 32.9993C28.095 32.9993 27.6548 32.6315 27.6548 31.4477V26.665C27.6548 25.246 27.395 24.1695 26.4369 23.3819C25.8676 22.9083 25.0651 22.6716 24.2625 22.6716C22.7864 22.9604 21.0506 23.9596 20.3009 24.5104C19.783 24.905 19.4454 25.1939 19.4454 25.6153C19.4454 26.2451 20.1718 26.7708 20.6633 26.7708C21.0771 26.7708 21.3617 26.5877 21.4923 26.1141C21.6992 25.2997 21.9325 24.7219 22.242 24.3542C22.5018 24.0385 22.8906 23.8538 23.3557 23.8538C24.5984 23.8538 25.4275 24.905 25.4275 26.7439V27.2695C24.8582 27.7431 22.942 28.4534 21.3881 29.0042C19.9898 29.4778 19.3164 30.2654 19.3164 31.5802C19.3164 33.2092 20.6104 34.8113 22.5018 34.8113C23.2266 34.8113 24.4693 33.8658 25.5052 33.1555C25.6079 33.577 25.7899 33.9447 26.1258 34.2857C26.412 34.5745 26.9549 34.8113 27.395 34.8113L29.725 33.446ZM25.4275 32.3158C24.9609 32.7625 24.1583 33.1555 23.5377 33.1555C22.76 33.1555 21.7505 32.5257 21.7505 31.1588C21.7505 30.1865 22.2949 29.7145 23.253 29.241C23.8223 28.9774 24.8831 28.4786 25.4275 28.1898V32.3158ZM36.3027 34.4956V33.7869C34.6462 33.6291 34.4378 33.4712 34.4378 31.7365V15.8401C33.4797 16.1542 31.7968 16.6009 30.4249 16.7587V17.3901C32.0301 17.548 32.1856 17.6269 32.1856 19.36V31.7365C32.1856 33.4712 31.9788 33.6038 30.3472 33.7869V34.4956H36.3027ZM43.372 22.6716C40.9113 22.6716 37.5968 24.6683 37.5968 29.0042C37.5968 31.8944 39.695 34.8113 43.3455 34.8113C45.9866 34.8113 49.0165 32.7878 49.0165 28.5307C49.0165 25.3249 46.6336 22.6716 43.372 22.6716ZM43.0609 23.565C45.2104 23.565 46.3754 25.9831 46.3754 29.1621C46.3754 32.8146 45.1062 33.9179 43.6302 33.9179C41.5584 33.9179 40.2379 31.4477 40.2379 28.1377C40.2379 25.1418 41.5584 23.565 43.0609 23.565ZM74.7286 17.4169H67.7884V18.1778C69.7824 18.3624 69.9893 18.5203 69.9893 20.7001V24.8782H61.4969V20.7001C61.4969 18.4934 61.7038 18.3624 63.6464 18.1778V17.4169H56.7327V18.1778C58.8558 18.3624 59.0627 18.4934 59.0627 20.7001V31.2125C59.0627 33.4191 58.8558 33.5501 56.8105 33.7348V34.4956H63.7755V33.7348C61.7038 33.5501 61.4969 33.4191 61.4969 31.2125V26.0352H69.9893V31.2125C69.9893 33.4191 69.7824 33.5501 67.608 33.7348V34.4956H74.7286V33.7348C72.6304 33.5501 72.4235 33.4191 72.4235 31.2125V20.7001C72.4235 18.4934 72.6304 18.3624 74.7286 18.1778V17.4169ZM86.4577 33.446L86.1996 32.7357C85.9398 32.8667 85.5774 32.9993 85.2663 32.9993C84.8277 32.9993 84.386 32.6315 84.386 31.4477V26.665C84.386 25.246 84.1278 24.1695 83.1697 23.3819C82.6004 22.9083 81.7978 22.6716 80.9952 22.6716C79.5192 22.9604 77.7833 23.9596 77.0337 24.5104C76.5157 24.905 76.1782 25.1939 76.1782 25.6153C76.1782 26.2451 76.903 26.7708 77.3961 26.7708C77.8098 26.7708 78.0944 26.5877 78.2235 26.1141C78.432 25.2997 78.6637 24.7219 78.9748 24.3542C79.2345 24.0385 79.6218 23.8538 80.0884 23.8538C81.3312 23.8538 82.1602 24.905 82.1602 26.7439V27.2695C81.5894 27.7431 79.6747 28.4534 78.1209 29.0042C76.7226 29.4778 76.0491 30.2654 76.0491 31.5802C76.0491 33.2092 77.3432 34.8113 79.2345 34.8113C79.9593 34.8113 81.2021 33.8658 82.238 33.1555C82.3406 33.577 82.5226 33.9447 82.8586 34.2857C83.1432 34.5745 83.6876 34.8113 84.1278 34.8113L86.4577 33.446ZM82.1602 32.3158C81.6936 32.7625 80.891 33.1555 80.2689 33.1555C79.4927 33.1555 78.4833 32.5257 78.4833 31.1588C78.4833 30.1865 79.0261 29.7145 79.9842 29.241C80.5551 28.9774 81.6158 28.4786 82.1602 28.1898V32.3158ZM89.9543 20.4902C90.7304 20.4902 91.3526 19.8335 91.3526 19.0711C91.3526 18.2314 90.7304 17.6 89.9791 17.6C89.203 17.6 88.556 18.2314 88.556 19.0711C88.556 19.8335 89.203 20.4902 89.9543 20.4902ZM93.0604 34.4956V33.7869C91.4039 33.6291 91.2483 33.4712 91.2483 31.6844V22.6447C90.0569 23.0914 88.7364 23.4339 87.391 23.6439V24.3005C88.867 24.5373 88.9697 24.643 88.9697 26.2972V31.6844C88.9697 33.4712 88.7893 33.6291 87.1826 33.7869V34.4956H93.0604ZM98.3176 25.4575V22.6195C96.997 23.1451 95.8056 23.4592 94.4851 23.6707V24.2752C95.9098 24.5104 96.0389 24.5894 96.0389 26.272V31.7633C96.0389 33.4712 95.8569 33.6291 94.2782 33.7869V34.4956H100.441V33.7869C98.4467 33.6291 98.3176 33.4712 98.3176 31.7633V26.9286C98.8604 25.5364 99.6381 24.853 100.259 24.853C100.699 24.853 101.01 25.0108 101.399 25.3786C101.554 25.5364 101.788 25.5885 102.097 25.4575C102.642 25.1939 103.004 24.643 103.004 24.0385C103.004 23.3819 102.383 22.6716 101.45 22.6716C100.259 22.6716 99.1715 24.0637 98.3689 25.4575H98.3176Z" fill="#353535"/>
<path fill-rule="evenodd" clip-rule="evenodd" d="M109.789 0.232466C109.829 0.339799 109.753 0.428192 109.589 0.467653C108.966 0.612869 107.064 1.46522 106.224 1.97348C105.99 2.11554 105.58 2.30653 105.312 2.39808C104.525 2.66799 102.82 3.54087 102.82 3.67661C102.82 3.74449 102.908 3.76658 103.013 3.72397C103.845 3.40039 103.85 3.49036 103.044 4.30009C101.405 5.94956 100.514 7.52168 100.077 9.53261C99.9103 10.2997 99.8776 12.6579 100.019 13.6792C100.15 14.6341 100.476 16.0784 100.704 16.7129C100.753 16.8502 100.546 16.6277 100.248 16.2189C99.9461 15.81 99.607 15.3965 99.4919 15.3002C99.2959 15.1361 99.2912 15.1487 99.4375 15.4849C99.5961 15.8511 100.254 16.8755 100.984 17.8904C101.204 18.1966 101.55 18.7807 101.753 19.1895C101.956 19.5983 102.222 20.0766 102.343 20.2533C102.475 20.4428 102.537 20.6811 102.495 20.8421C102.446 21.0378 102.481 21.1089 102.632 21.1089C102.852 21.1089 102.831 20.9557 102.5 20.1302C102.407 19.8998 102.346 19.693 102.366 19.6741C102.385 19.6551 102.701 19.9313 103.066 20.2896C104.758 21.947 106.766 23.1687 108.717 23.7306C109.512 23.9595 109.988 24.01 111.33 24.0084C112.882 24.0053 113.039 23.9816 114.217 23.5728C114.903 23.336 115.463 23.1529 115.463 23.1656C115.463 23.1798 115.166 23.3913 114.8 23.6391C114.119 24.1 113.892 24.3289 114.12 24.3289C114.341 24.3289 115.119 23.8632 116.194 23.0851C116.761 22.6747 117.719 22.0259 118.32 21.6439C119.57 20.85 120.846 19.7782 120.743 19.6078C120.704 19.5446 120.745 19.5083 120.835 19.5273C120.93 19.5478 120.98 19.4704 120.958 19.3363C120.936 19.2116 120.972 19.0443 121.037 18.9638C121.102 18.8848 121.194 18.5392 121.244 18.1998C121.292 17.8589 121.51 17.0239 121.729 16.342C122.006 15.477 122.148 14.7493 122.202 13.927C122.274 12.8426 122.163 11.2389 121.975 10.647C121.931 10.5097 122.036 10.6975 122.205 11.0653C122.375 11.4315 122.515 11.8624 122.515 12.0234C122.515 12.2349 122.583 12.3185 122.757 12.3185C122.891 12.3185 123 12.2712 123 12.2159C123 11.7866 121.011 7.55167 120.006 5.84223C119.113 4.32219 117.765 2.62537 117.592 2.80216C117.561 2.83531 117.629 2.98841 117.744 3.1431C117.861 3.29779 118.068 3.57244 118.203 3.75396C118.917 4.69944 118.881 4.7831 118.069 4.08069C115.912 2.21656 114.116 1.48574 111.33 1.33737C110.628 1.29949 109.645 1.3279 109.146 1.40051C108.25 1.52994 107.916 1.50626 108.365 1.34368C108.491 1.29791 108.992 1.07377 109.479 0.844899C109.964 0.617604 110.417 0.42977 110.482 0.42977C110.548 0.42977 110.6 0.368211 110.6 0.292446C110.6 0.215103 110.493 0.181956 110.358 0.21826C110.224 0.254564 110.114 0.232466 110.114 0.170907C110.114 0.109348 110.027 0.0588379 109.919 0.0588379C109.801 0.0588379 109.75 0.128289 109.789 0.232466ZM105.701 1.00432C105.603 1.10376 105.713 1.29791 105.866 1.29791C105.93 1.29791 105.981 1.21425 105.981 1.11165C105.981 0.920664 105.838 0.865418 105.701 1.00432ZM117.007 1.74776C116.909 1.84721 117.02 2.03977 117.172 2.03977C117.236 2.03977 117.287 1.95612 117.287 1.8551C117.287 1.66253 117.144 1.60886 117.007 1.74776ZM108.351 2.10607C106.966 2.30811 105.875 2.63958 106.109 2.78795C106.202 2.84636 106.252 2.91423 106.22 2.93948C106.189 2.96316 105.867 3.19992 105.507 3.4651C105.146 3.73028 104.912 3.96862 104.99 3.99388C105.208 4.06806 105.155 4.26853 104.917 4.26853C104.799 4.26853 104.645 4.36639 104.575 4.48635C104.505 4.60473 104.315 4.92516 104.153 5.19822L103.859 5.69227L104.525 5.12404C105.822 4.01755 106.994 3.32936 108.412 2.84162C109.196 2.57329 109.537 2.52909 110.843 2.52909C111.68 2.53067 112.551 2.58591 112.781 2.65379C113.42 2.84478 113.355 2.72482 112.65 2.41702C111.509 1.91666 110.265 1.82669 108.351 2.10607ZM111.521 3.40354C111.86 3.46668 112.462 3.60716 112.859 3.71607C113.254 3.82499 113.842 3.98599 114.162 4.07438C114.679 4.21802 114.741 4.21486 114.71 4.04281C114.654 3.75238 113.394 3.42248 112.067 3.35145C111.122 3.29937 111.02 3.31042 111.521 3.40354ZM115.463 3.31515C115.463 3.36566 116.853 4.25116 117.105 4.36165C117.172 4.39007 117.09 4.30009 116.923 4.16119C116.592 3.88497 115.463 3.23149 115.463 3.31515ZM101.97 3.52666C101.97 3.59453 102.051 3.64978 102.152 3.64978C102.253 3.64978 102.334 3.59453 102.334 3.52666C102.334 3.45721 102.253 3.40196 102.152 3.40196C102.051 3.40196 101.97 3.45721 101.97 3.52666ZM108.717 3.59769C108.124 3.73817 107.938 3.80762 106.868 4.28431C106.16 4.6 105.177 5.2582 104.497 5.87064L103.925 6.38521L104.435 6.90451L104.874 6.41204C106.342 4.76889 108.305 3.77448 110.079 3.77448C110.91 3.77448 110.877 3.69713 109.988 3.55823C109.555 3.49036 109.112 3.50456 108.717 3.59769ZM103.583 4.80046C102.57 5.87537 101.682 7.28965 101.777 7.67795C101.83 7.89261 101.786 8.00942 101.618 8.10097C101.491 8.17042 101.299 8.49242 101.193 8.81758L101.001 9.40791L101.31 9.0354C101.663 8.61396 102.699 7.04184 102.699 6.92977C102.699 6.88873 103.083 6.23841 103.553 5.48392C104.024 4.72943 104.388 4.09174 104.363 4.06649C104.338 4.04123 103.987 4.37112 103.583 4.80046ZM115.22 4.26853C115.058 4.37586 115.058 4.39007 115.22 4.39322C115.321 4.39638 115.719 4.53212 116.107 4.69312C116.892 5.02302 116.853 4.79888 116.054 4.38375C115.531 4.11226 115.472 4.10437 115.22 4.26853ZM109.323 4.51003C107.861 4.92042 106.329 5.79803 105.337 6.79402C104.225 7.90682 103.987 8.2304 103.267 9.59259C102.915 10.2571 102.906 10.3202 102.909 12.0076C102.911 13.4361 102.959 13.9065 103.181 14.6704C104.013 17.5211 105.777 19.562 108.588 20.9273L109.554 21.3977L110.927 21.2525C113.731 20.9542 115.596 20.0481 117.293 18.1619C118.152 17.2085 118.797 16.0942 119.21 14.8583C119.465 14.0911 119.488 13.8575 119.416 12.8757C119.336 11.7945 119.08 10.4086 118.883 9.9872C117.849 7.77581 117.231 6.91083 115.931 5.85485C115.442 5.45867 114.686 4.95514 114.249 4.73574C113.49 4.35376 113.389 4.3364 111.817 4.30483C110.499 4.27957 110.008 4.32061 109.323 4.51003ZM116.264 5.29609C118.012 6.53358 119.345 8.67868 119.647 10.7385C119.695 11.0621 119.777 11.3273 119.832 11.3273C119.992 11.3273 120.082 10.4339 119.969 9.9651C119.78 9.18377 119.259 8.05204 119.031 7.9226C118.72 7.74898 118.62 7.58324 118.69 7.35279C118.822 6.92188 117.435 5.43972 116.68 5.20612C116.379 5.11299 116.023 4.99618 115.889 4.94725C115.755 4.8999 115.925 5.05617 116.264 5.29609ZM100.753 5.32134C100.753 5.42394 100.808 5.5076 100.875 5.5076C100.942 5.5076 100.996 5.42394 100.996 5.32134C100.996 5.21874 100.942 5.13509 100.875 5.13509C100.808 5.13509 100.753 5.21874 100.753 5.32134ZM118.685 6.01112C118.886 6.24315 119.08 6.46097 119.119 6.4957C119.346 6.70721 120.034 7.86578 120.319 8.51767C120.911 9.87829 121.095 11.0037 121.031 12.912L120.976 14.6089L121.194 14.1132C121.449 13.5387 121.491 12.62 121.269 12.5143C121.148 12.4559 121.148 12.4275 121.269 12.3691C121.714 12.1575 121.102 9.03698 120.361 7.74424C119.989 7.09392 119.214 6.21474 118.693 5.85012L118.32 5.58968L118.685 6.01112ZM103.226 7.14759C102.662 7.79159 101.823 10.6959 101.859 11.8845C101.869 12.1812 101.917 12.107 102.1 11.5135C102.226 11.1047 102.332 10.6722 102.332 10.5539C102.334 10.4339 102.379 10.336 102.433 10.336C102.488 10.336 102.634 9.87671 102.758 9.31478C102.883 8.75286 103.108 7.97311 103.257 7.58166C103.408 7.19021 103.517 6.86979 103.5 6.86979C103.485 6.86979 103.36 6.99448 103.226 7.14759ZM103.685 7.27387C103.631 7.4254 103.545 7.71741 103.497 7.92103C103.415 8.27302 103.43 8.26355 103.783 7.76792C104.217 7.15864 104.216 7.16653 103.971 7.07025C103.85 7.02447 103.751 7.09392 103.685 7.27387ZM99.0797 7.51221C99.1544 7.74108 99.4157 7.77897 99.4157 7.56114C99.4157 7.45223 99.3301 7.36384 99.2244 7.36384C99.117 7.36384 99.0533 7.43013 99.0797 7.51221ZM101.361 9.65573C101.05 10.1671 100.946 10.2066 101.027 9.77884C101.058 9.60995 101.049 9.46947 101.007 9.46947C100.89 9.46947 100.632 10.9958 100.632 11.6966C100.632 12.0407 100.7 12.4385 100.784 12.5837C100.906 12.7937 100.906 12.8568 100.784 12.901C100.291 13.0825 101.189 17.4579 101.89 18.2882C102.152 18.5991 102.184 18.6086 102.372 18.416C102.519 18.2677 102.612 18.2472 102.708 18.345C102.803 18.4429 102.769 18.5328 102.579 18.667C102.324 18.8485 102.338 18.8706 103.293 19.7277C104.138 20.487 105.054 21.1089 105.323 21.1089C105.37 21.1089 104.99 20.6779 104.483 20.1492C103.186 18.8012 102.232 17.4279 101.739 16.1952C101.638 15.9411 101.522 15.8258 101.411 15.8684C101.211 15.9458 101.183 15.769 101.366 15.5828C101.453 15.4928 101.445 15.3413 101.34 15.0934C101.237 14.8504 101.19 14.1006 101.197 12.8126C101.206 11.2784 101.256 10.7259 101.45 10.0582C101.584 9.5989 101.677 9.22166 101.659 9.22166C101.64 9.22166 101.506 9.41738 101.361 9.65573ZM98.8091 10.336C98.8091 10.4039 98.89 10.4607 98.9911 10.4607C99.0906 10.4607 99.173 10.4039 99.173 10.336C99.173 10.2682 99.0906 10.2129 98.9911 10.2129C98.89 10.2129 98.8091 10.2682 98.8091 10.336ZM120.217 11.8845C120.208 12.2933 120.121 12.961 120.025 13.3698C119.928 13.7786 119.847 14.3532 119.844 14.6467C119.838 15.3586 119.589 16.9323 119.458 17.0791C119.399 17.147 119.351 16.9339 119.35 16.5835L119.346 15.971L118.925 16.8108C117.85 18.9574 116.39 20.3465 114.439 21.0726C113.747 21.3314 112.668 21.595 112.283 21.5997C112.022 21.6045 111.972 21.6518 112.024 21.8523C112.059 21.9912 112.028 22.1001 111.952 22.1001C111.877 22.1001 111.817 22.0165 111.817 21.9139C111.817 21.7734 111.675 21.7308 111.238 21.7355C110.733 21.7434 110.698 21.7592 110.961 21.8665C111.128 21.9344 111.302 22.0528 111.349 22.1317C111.475 22.3369 113.089 22.0417 114.304 21.5903C115.909 20.9952 116.939 20.3149 118.115 19.0727C118.698 18.4555 119.345 17.6726 119.55 17.3332C119.992 16.604 120.339 15.2734 120.109 15.1945C119.905 15.125 119.922 14.5473 120.127 14.5473C120.426 14.5473 120.555 12.7258 120.334 11.6367C120.236 11.1537 120.233 11.16 120.217 11.8845ZM119.867 11.8229C119.867 12.0613 119.894 12.1575 119.923 12.0392C119.955 11.9192 119.955 11.7251 119.923 11.6051C119.894 11.4867 119.867 11.5846 119.867 11.8229ZM102.212 12.2049C102.211 12.3012 102.13 12.5379 102.03 12.7321C101.872 13.0415 101.872 13.204 102.027 14.0943C102.285 15.5607 102.416 15.9805 102.956 17.098C103.698 18.6307 105.038 20.2344 106.605 21.4561C106.763 21.5792 108.006 21.9754 108.236 21.9754C108.266 21.9754 108.291 21.8933 108.291 21.7907C108.291 21.685 108.182 21.6045 108.04 21.6045C107.623 21.6045 106.71 21.3346 106.71 21.213C106.71 21.1452 107.029 21.1278 107.471 21.172L108.23 21.2462L107.561 20.8942C106.614 20.3938 105.989 19.9724 105.321 19.3836C104.645 18.787 103.629 17.6016 103.41 17.1517C103.324 16.9781 103.194 16.754 103.119 16.6514C103.043 16.5503 102.886 16.132 102.769 15.7232C102.652 15.3144 102.526 14.8961 102.491 14.7935C102.455 14.6925 102.4 14.0517 102.369 13.3714C102.338 12.6895 102.292 12.1086 102.264 12.0802C102.236 12.0518 102.212 12.107 102.212 12.2049ZM99.0517 14.8661C99.0517 14.9735 99.1155 15.0398 99.1964 15.0129C99.4219 14.9372 99.4592 14.6704 99.2446 14.6704C99.1373 14.6704 99.0517 14.7588 99.0517 14.8661ZM120.546 16.5014C120.09 17.4832 119.799 18.2614 119.864 18.3277C119.945 18.4097 120.771 16.6514 120.869 16.1873C120.916 15.9663 120.936 15.7864 120.913 15.7895C120.891 15.7927 120.726 16.1131 120.546 16.5014ZM99.8403 17.8904C99.7999 17.9599 99.8527 18.0498 99.9616 18.0925C100.193 18.1824 100.324 18.083 100.212 17.8983C100.111 17.731 99.9398 17.7278 99.8403 17.8904ZM118.914 19.0963C118.388 19.7988 117.183 20.9494 116.466 21.434C115.66 21.9802 114.937 22.3053 113.871 22.6068C112.818 22.9051 110.073 22.9335 108.96 22.6589C107.611 22.3274 107.692 22.4584 109.082 22.8578C109.854 23.0787 110.381 23.1387 111.646 23.1435C112.745 23.1498 113.294 23.1056 113.419 22.9998C113.52 22.9146 113.632 22.8767 113.669 22.9146C113.772 23.0188 115.302 22.6036 116.133 22.2469C116.908 21.9123 117.95 21.0978 118.441 20.4412C118.718 20.0718 119.406 18.6323 119.306 18.6323C119.281 18.6323 119.105 18.8406 118.914 19.0963ZM106.771 19.2526C106.729 19.3221 106.784 19.412 106.891 19.4547C107.123 19.5446 107.253 19.4452 107.141 19.2605C107.04 19.0932 106.869 19.09 106.771 19.2526ZM103.671 19.8098C103.671 19.9108 103.726 19.9945 103.793 19.9945C103.859 19.9945 103.914 19.9108 103.914 19.8098C103.914 19.7072 103.859 19.6235 103.793 19.6235C103.726 19.6235 103.671 19.7072 103.671 19.8098ZM119.16 20.509L118.928 20.7758L119.262 20.558C119.608 20.3307 119.673 20.2423 119.494 20.2423C119.438 20.2423 119.287 20.3623 119.16 20.509ZM105.981 20.6132C105.981 20.6827 106.032 20.7379 106.096 20.7379C106.158 20.7379 106.244 20.6827 106.284 20.6132C106.326 20.5469 106.275 20.4901 106.171 20.4901C106.067 20.4901 105.981 20.5469 105.981 20.6132ZM108.779 21.6945C108.785 22.0464 109.05 22.1459 110.075 22.1822L111.148 22.2201L110.237 21.9754C108.869 21.6092 108.778 21.5919 108.779 21.6945ZM113.518 24.1473C113.518 24.3478 113.708 24.392 113.814 24.2184C113.851 24.1568 113.8 24.0747 113.7 24.0353C113.59 23.9927 113.518 24.0369 113.518 24.1473ZM109.263 24.4536C109.263 24.5214 109.317 24.5767 109.384 24.5767C109.453 24.5767 109.507 24.5214 109.507 24.4536C109.507 24.3841 109.453 24.3289 109.384 24.3289C109.317 24.3289 109.263 24.3841 109.263 24.4536Z" fill="#353535"/>
<path d="M67.1022 38.7714C67.6781 38.7714 68.1553 38.9768 68.5339 39.3876C68.9165 39.7943 69.1078 40.2937 69.1078 40.8857C69.1078 41.4777 68.9165 41.9791 68.5339 42.3899C68.1553 42.7966 67.6781 43 67.1022 43H65.4531V38.7714H67.1022ZM67.1022 42.4684C67.5331 42.4684 67.8855 42.3174 68.1593 42.0153C68.4332 41.7133 68.5701 41.3368 68.5701 40.8857C68.5701 40.4347 68.4332 40.0581 68.1593 39.7561C67.8855 39.454 67.5331 39.303 67.1022 39.303H66.0149V42.4684H67.1022ZM72.4204 43L72.0761 42.0516H70.1733L69.8289 43H69.2309L70.8075 38.7714H71.4418L73.0185 43H72.4204ZM70.3666 41.526H71.8828L71.1217 39.442L70.3666 41.526ZM76.0243 43L75.0758 41.3811H74.0791V43H73.5173V38.7714H75.2087C75.5712 38.7714 75.8813 38.9003 76.139 39.158C76.3968 39.4118 76.5256 39.7198 76.5256 40.0823C76.5256 40.3561 76.4431 40.6058 76.278 40.8313C76.1169 41.0569 75.9075 41.2159 75.6497 41.3086L76.6465 43H76.0243ZM74.0791 39.297V40.8736H75.2087C75.4182 40.8736 75.5954 40.7971 75.7403 40.6441C75.8893 40.487 75.9638 40.2998 75.9638 40.0823C75.9638 39.8648 75.8893 39.6796 75.7403 39.5265C75.5954 39.3735 75.4182 39.297 75.2087 39.297H74.0791ZM77.772 42.4684H79.5964V43H77.2102V38.7714H77.772V42.4684ZM80.1599 38.7714H80.7217V43H80.1599V38.7714ZM84.2565 38.7714H84.8183V43H84.3653L82.1906 39.8407V43H81.6288V38.7714H82.0818L84.2565 41.9247V38.7714ZM89.8004 40.9038V41.1576C89.8004 41.7093 89.6111 42.1684 89.2325 42.5349C88.854 42.8973 88.3526 43.0785 87.7284 43.0785C87.084 43.0785 86.5504 42.8671 86.1276 42.4442C85.7087 42.0174 85.4993 41.4979 85.4993 40.8857C85.4993 40.2736 85.7087 39.7561 86.1276 39.3332C86.5504 38.9063 87.08 38.6929 87.7163 38.6929C88.1069 38.6929 88.4654 38.7875 88.7916 38.9768C89.1178 39.1621 89.3695 39.4077 89.5467 39.7138L89.0634 39.9977C88.9426 39.7682 88.7593 39.5849 88.5137 39.448C88.2721 39.307 88.0042 39.2366 87.7103 39.2366C87.227 39.2366 86.8303 39.3956 86.5202 39.7138C86.2101 40.0279 86.0551 40.4186 86.0551 40.8857C86.0551 41.3529 86.2101 41.7435 86.5202 42.0576C86.8343 42.3718 87.2391 42.5288 87.7344 42.5288C88.1573 42.5288 88.4996 42.4261 88.7614 42.2207C89.0231 42.0113 89.1822 41.7415 89.2386 41.4113H87.6861V40.9038H89.8004ZM92.9479 38.7714V39.303H91.6975V43H91.1417V39.303H89.8973V38.7714H92.9479ZM96.7778 42.4382C96.355 42.8651 95.8375 43.0785 95.2253 43.0785C94.6132 43.0785 94.0957 42.8651 93.6728 42.4382C93.25 42.0113 93.0385 41.4938 93.0385 40.8857C93.0385 40.2736 93.25 39.7561 93.6728 39.3332C94.0957 38.9063 94.6132 38.6929 95.2253 38.6929C95.8375 38.6929 96.355 38.9063 96.7778 39.3332C97.2047 39.7561 97.4181 40.2736 97.4181 40.8857C97.4181 41.4938 97.2047 42.0113 96.7778 42.4382ZM94.0594 42.0576C94.3736 42.3718 94.7622 42.5288 95.2253 42.5288C95.6884 42.5288 96.0751 42.3718 96.3852 42.0576C96.6993 41.7395 96.8563 41.3488 96.8563 40.8857C96.8563 40.4186 96.6993 40.0279 96.3852 39.7138C96.0751 39.3956 95.6884 39.2366 95.2253 39.2366C94.7622 39.2366 94.3736 39.3956 94.0594 39.7138C93.7493 40.0279 93.5943 40.4186 93.5943 40.8857C93.5943 41.3488 93.7493 41.7395 94.0594 42.0576ZM100.721 38.7714H101.283V43H100.83L98.6553 39.8407V43H98.0935V38.7714H98.5466L100.721 41.9247V38.7714Z" fill="#353535"/>
</g>
<defs>
<clipPath id="clip0_1553_1133">
<rect width="123" height="44" fill="white"/>
</clipPath>
</defs>
</svg>
