<svg width="90" height="90" viewBox="0 0 90 90" fill="none" xmlns="http://www.w3.org/2000/svg">
<circle opacity="0.3" cx="45" cy="45" r="45" fill="white"/>
<g clip-path="url(#clip0_48_734)">
<path d="M39 37.6667V52.3333C39 52.4965 39.0434 52.6566 39.1259 52.7973C39.2084 52.938 39.327 53.0541 39.4694 53.1337C39.6117 53.2133 39.7727 53.2535 39.9358 53.2501C40.0989 53.2467 40.2581 53.1998 40.397 53.1143L52.3137 45.781C52.4471 45.699 52.5574 45.5842 52.6338 45.4474C52.7103 45.3107 52.7504 45.1567 52.7504 45C52.7504 44.8434 52.7103 44.6893 52.6338 44.5526C52.5574 44.4159 52.4471 44.301 52.3137 44.219L40.397 36.8857C40.2581 36.8002 40.0989 36.7534 39.9358 36.75C39.7727 36.7465 39.6117 36.7867 39.4694 36.8663C39.327 36.9459 39.2084 37.062 39.1259 37.2027C39.0434 37.3434 39 37.5036 39 37.6667Z" fill="white"/>
</g>
<defs>
<clipPath id="clip0_48_734">
<rect width="22" height="22" fill="white" transform="translate(33.5 34)"/>
</clipPath>
</defs>
</svg>
